<?xml version="1.0" encoding="utf-8"?>
<svg xmlns="http://www.w3.org/2000/svg" xmlns:xlink="http://www.w3.org/1999/xlink" width="600" height="400" viewBox="0 0 2400 1600">
<defs>
  <clipPath id="clip710">
    <rect x="0" y="0" width="2400" height="1600"/>
  </clipPath>
</defs>
<path clip-path="url(#clip710)" d="M0 1600 L2400 1600 L2400 0 L0 0  Z" fill="#ffffff" fill-rule="evenodd" fill-opacity="1"/>
<defs>
  <clipPath id="clip711">
    <rect x="480" y="0" width="1681" height="1600"/>
  </clipPath>
</defs>
<path clip-path="url(#clip710)" d="M174.149 1423.18 L2352.76 1423.18 L2352.76 123.472 L174.149 123.472  Z" fill="#ffffff" fill-rule="evenodd" fill-opacity="1"/>
<defs>
  <clipPath id="clip712">
    <rect x="174" y="123" width="2180" height="1301"/>
  </clipPath>
</defs>
<polyline clip-path="url(#clip712)" style="stroke:#000000; stroke-linecap:round; stroke-linejoin:round; stroke-width:2; stroke-opacity:0.1; fill:none" points="274.397,1423.18 274.397,123.472 "/>
<polyline clip-path="url(#clip712)" style="stroke:#000000; stroke-linecap:round; stroke-linejoin:round; stroke-width:2; stroke-opacity:0.1; fill:none" points="768.924,1423.18 768.924,123.472 "/>
<polyline clip-path="url(#clip712)" style="stroke:#000000; stroke-linecap:round; stroke-linejoin:round; stroke-width:2; stroke-opacity:0.1; fill:none" points="1263.45,1423.18 1263.45,123.472 "/>
<polyline clip-path="url(#clip712)" style="stroke:#000000; stroke-linecap:round; stroke-linejoin:round; stroke-width:2; stroke-opacity:0.1; fill:none" points="1757.98,1423.18 1757.98,123.472 "/>
<polyline clip-path="url(#clip712)" style="stroke:#000000; stroke-linecap:round; stroke-linejoin:round; stroke-width:2; stroke-opacity:0.1; fill:none" points="2252.51,1423.18 2252.51,123.472 "/>
<polyline clip-path="url(#clip710)" style="stroke:#000000; stroke-linecap:round; stroke-linejoin:round; stroke-width:4; stroke-opacity:1; fill:none" points="174.149,1423.18 2352.76,1423.18 "/>
<polyline clip-path="url(#clip710)" style="stroke:#000000; stroke-linecap:round; stroke-linejoin:round; stroke-width:4; stroke-opacity:1; fill:none" points="274.397,1423.18 274.397,1404.28 "/>
<polyline clip-path="url(#clip710)" style="stroke:#000000; stroke-linecap:round; stroke-linejoin:round; stroke-width:4; stroke-opacity:1; fill:none" points="768.924,1423.18 768.924,1404.28 "/>
<polyline clip-path="url(#clip710)" style="stroke:#000000; stroke-linecap:round; stroke-linejoin:round; stroke-width:4; stroke-opacity:1; fill:none" points="1263.45,1423.18 1263.45,1404.28 "/>
<polyline clip-path="url(#clip710)" style="stroke:#000000; stroke-linecap:round; stroke-linejoin:round; stroke-width:4; stroke-opacity:1; fill:none" points="1757.98,1423.18 1757.98,1404.28 "/>
<polyline clip-path="url(#clip710)" style="stroke:#000000; stroke-linecap:round; stroke-linejoin:round; stroke-width:4; stroke-opacity:1; fill:none" points="2252.51,1423.18 2252.51,1404.28 "/>
<path clip-path="url(#clip710)" d="M236.7 1454.1 Q233.089 1454.1 231.26 1457.66 Q229.455 1461.2 229.455 1468.33 Q229.455 1475.44 231.26 1479.01 Q233.089 1482.55 236.7 1482.55 Q240.334 1482.55 242.14 1479.01 Q243.968 1475.44 243.968 1468.33 Q243.968 1461.2 242.14 1457.66 Q240.334 1454.1 236.7 1454.1 M236.7 1450.39 Q242.51 1450.39 245.566 1455 Q248.644 1459.58 248.644 1468.33 Q248.644 1477.06 245.566 1481.67 Q242.51 1486.25 236.7 1486.25 Q230.89 1486.25 227.811 1481.67 Q224.756 1477.06 224.756 1468.33 Q224.756 1459.58 227.811 1455 Q230.89 1450.39 236.7 1450.39 Z" fill="#000000" fill-rule="nonzero" fill-opacity="1" /><path clip-path="url(#clip710)" d="M256.862 1479.7 L261.746 1479.7 L261.746 1485.58 L256.862 1485.58 L256.862 1479.7 Z" fill="#000000" fill-rule="nonzero" fill-opacity="1" /><path clip-path="url(#clip710)" d="M281.931 1454.1 Q278.32 1454.1 276.491 1457.66 Q274.686 1461.2 274.686 1468.33 Q274.686 1475.44 276.491 1479.01 Q278.32 1482.55 281.931 1482.55 Q285.565 1482.55 287.371 1479.01 Q289.2 1475.44 289.2 1468.33 Q289.2 1461.2 287.371 1457.66 Q285.565 1454.1 281.931 1454.1 M281.931 1450.39 Q287.741 1450.39 290.797 1455 Q293.876 1459.58 293.876 1468.33 Q293.876 1477.06 290.797 1481.67 Q287.741 1486.25 281.931 1486.25 Q276.121 1486.25 273.042 1481.67 Q269.987 1477.06 269.987 1468.33 Q269.987 1459.58 273.042 1455 Q276.121 1450.39 281.931 1450.39 Z" fill="#000000" fill-rule="nonzero" fill-opacity="1" /><path clip-path="url(#clip710)" d="M312.093 1454.1 Q308.482 1454.1 306.653 1457.66 Q304.848 1461.2 304.848 1468.33 Q304.848 1475.44 306.653 1479.01 Q308.482 1482.55 312.093 1482.55 Q315.727 1482.55 317.533 1479.01 Q319.362 1475.44 319.362 1468.33 Q319.362 1461.2 317.533 1457.66 Q315.727 1454.1 312.093 1454.1 M312.093 1450.39 Q317.903 1450.39 320.959 1455 Q324.037 1459.58 324.037 1468.33 Q324.037 1477.06 320.959 1481.67 Q317.903 1486.25 312.093 1486.25 Q306.283 1486.25 303.204 1481.67 Q300.149 1477.06 300.149 1468.33 Q300.149 1459.58 303.204 1455 Q306.283 1450.39 312.093 1450.39 Z" fill="#000000" fill-rule="nonzero" fill-opacity="1" /><path clip-path="url(#clip710)" d="M731.726 1454.1 Q728.115 1454.1 726.286 1457.66 Q724.48 1461.2 724.48 1468.33 Q724.48 1475.44 726.286 1479.01 Q728.115 1482.55 731.726 1482.55 Q735.36 1482.55 737.165 1479.01 Q738.994 1475.44 738.994 1468.33 Q738.994 1461.2 737.165 1457.66 Q735.36 1454.1 731.726 1454.1 M731.726 1450.39 Q737.536 1450.39 740.591 1455 Q743.67 1459.58 743.67 1468.33 Q743.67 1477.06 740.591 1481.67 Q737.536 1486.25 731.726 1486.25 Q725.915 1486.25 722.837 1481.67 Q719.781 1477.06 719.781 1468.33 Q719.781 1459.58 722.837 1455 Q725.915 1450.39 731.726 1450.39 Z" fill="#000000" fill-rule="nonzero" fill-opacity="1" /><path clip-path="url(#clip710)" d="M751.888 1479.7 L756.772 1479.7 L756.772 1485.58 L751.888 1485.58 L751.888 1479.7 Z" fill="#000000" fill-rule="nonzero" fill-opacity="1" /><path clip-path="url(#clip710)" d="M770.985 1481.64 L787.304 1481.64 L787.304 1485.58 L765.36 1485.58 L765.36 1481.64 Q768.022 1478.89 772.605 1474.26 Q777.211 1469.61 778.392 1468.27 Q780.637 1465.74 781.517 1464.01 Q782.42 1462.25 782.42 1460.56 Q782.42 1457.8 780.475 1456.07 Q778.554 1454.33 775.452 1454.33 Q773.253 1454.33 770.799 1455.09 Q768.369 1455.86 765.591 1457.41 L765.591 1452.69 Q768.415 1451.55 770.869 1450.97 Q773.323 1450.39 775.36 1450.39 Q780.73 1450.39 783.924 1453.08 Q787.119 1455.77 787.119 1460.26 Q787.119 1462.39 786.309 1464.31 Q785.522 1466.2 783.415 1468.8 Q782.836 1469.47 779.735 1472.69 Q776.633 1475.88 770.985 1481.64 Z" fill="#000000" fill-rule="nonzero" fill-opacity="1" /><path clip-path="url(#clip710)" d="M797.165 1451.02 L815.521 1451.02 L815.521 1454.96 L801.447 1454.96 L801.447 1463.43 Q802.466 1463.08 803.484 1462.92 Q804.503 1462.73 805.522 1462.73 Q811.309 1462.73 814.688 1465.9 Q818.068 1469.08 818.068 1474.49 Q818.068 1480.07 814.596 1483.17 Q811.123 1486.25 804.804 1486.25 Q802.628 1486.25 800.359 1485.88 Q798.114 1485.51 795.707 1484.77 L795.707 1480.07 Q797.79 1481.2 800.012 1481.76 Q802.234 1482.32 804.711 1482.32 Q808.716 1482.32 811.054 1480.21 Q813.392 1478.1 813.392 1474.49 Q813.392 1470.88 811.054 1468.77 Q808.716 1466.67 804.711 1466.67 Q802.836 1466.67 800.961 1467.08 Q799.11 1467.5 797.165 1468.38 L797.165 1451.02 Z" fill="#000000" fill-rule="nonzero" fill-opacity="1" /><path clip-path="url(#clip710)" d="M1225.76 1454.1 Q1222.14 1454.1 1220.32 1457.66 Q1218.51 1461.2 1218.51 1468.33 Q1218.51 1475.44 1220.32 1479.01 Q1222.14 1482.55 1225.76 1482.55 Q1229.39 1482.55 1231.2 1479.01 Q1233.02 1475.44 1233.02 1468.33 Q1233.02 1461.2 1231.2 1457.66 Q1229.39 1454.1 1225.76 1454.1 M1225.76 1450.39 Q1231.57 1450.39 1234.62 1455 Q1237.7 1459.58 1237.7 1468.33 Q1237.7 1477.06 1234.62 1481.67 Q1231.57 1486.25 1225.76 1486.25 Q1219.95 1486.25 1216.87 1481.67 Q1213.81 1477.06 1213.81 1468.33 Q1213.81 1459.58 1216.87 1455 Q1219.95 1450.39 1225.76 1450.39 Z" fill="#000000" fill-rule="nonzero" fill-opacity="1" /><path clip-path="url(#clip710)" d="M1245.92 1479.7 L1250.8 1479.7 L1250.8 1485.58 L1245.92 1485.58 L1245.92 1479.7 Z" fill="#000000" fill-rule="nonzero" fill-opacity="1" /><path clip-path="url(#clip710)" d="M1261.03 1451.02 L1279.39 1451.02 L1279.39 1454.96 L1265.32 1454.96 L1265.32 1463.43 Q1266.33 1463.08 1267.35 1462.92 Q1268.37 1462.73 1269.39 1462.73 Q1275.18 1462.73 1278.56 1465.9 Q1281.94 1469.08 1281.94 1474.49 Q1281.94 1480.07 1278.46 1483.17 Q1274.99 1486.25 1268.67 1486.25 Q1266.5 1486.25 1264.23 1485.88 Q1261.98 1485.51 1259.58 1484.77 L1259.58 1480.07 Q1261.66 1481.2 1263.88 1481.76 Q1266.1 1482.32 1268.58 1482.32 Q1272.58 1482.32 1274.92 1480.21 Q1277.26 1478.1 1277.26 1474.49 Q1277.26 1470.88 1274.92 1468.77 Q1272.58 1466.67 1268.58 1466.67 Q1266.7 1466.67 1264.83 1467.08 Q1262.98 1467.5 1261.03 1468.38 L1261.03 1451.02 Z" fill="#000000" fill-rule="nonzero" fill-opacity="1" /><path clip-path="url(#clip710)" d="M1301.15 1454.1 Q1297.54 1454.1 1295.71 1457.66 Q1293.9 1461.2 1293.9 1468.33 Q1293.9 1475.44 1295.71 1479.01 Q1297.54 1482.55 1301.15 1482.55 Q1304.78 1482.55 1306.59 1479.01 Q1308.42 1475.44 1308.42 1468.33 Q1308.42 1461.2 1306.59 1457.66 Q1304.78 1454.1 1301.15 1454.1 M1301.15 1450.39 Q1306.96 1450.39 1310.01 1455 Q1313.09 1459.58 1313.09 1468.33 Q1313.09 1477.06 1310.01 1481.67 Q1306.96 1486.25 1301.15 1486.25 Q1295.34 1486.25 1292.26 1481.67 Q1289.2 1477.06 1289.2 1468.33 Q1289.2 1459.58 1292.26 1455 Q1295.34 1450.39 1301.15 1450.39 Z" fill="#000000" fill-rule="nonzero" fill-opacity="1" /><path clip-path="url(#clip710)" d="M1720.78 1454.1 Q1717.17 1454.1 1715.34 1457.66 Q1713.54 1461.2 1713.54 1468.33 Q1713.54 1475.44 1715.34 1479.01 Q1717.17 1482.55 1720.78 1482.55 Q1724.42 1482.55 1726.22 1479.01 Q1728.05 1475.44 1728.05 1468.33 Q1728.05 1461.2 1726.22 1457.66 Q1724.42 1454.1 1720.78 1454.1 M1720.78 1450.39 Q1726.59 1450.39 1729.65 1455 Q1732.73 1459.58 1732.73 1468.33 Q1732.73 1477.06 1729.65 1481.67 Q1726.59 1486.25 1720.78 1486.25 Q1714.97 1486.25 1711.89 1481.67 Q1708.84 1477.06 1708.84 1468.33 Q1708.84 1459.58 1711.89 1455 Q1714.97 1450.39 1720.78 1450.39 Z" fill="#000000" fill-rule="nonzero" fill-opacity="1" /><path clip-path="url(#clip710)" d="M1740.94 1479.7 L1745.83 1479.7 L1745.83 1485.58 L1740.94 1485.58 L1740.94 1479.7 Z" fill="#000000" fill-rule="nonzero" fill-opacity="1" /><path clip-path="url(#clip710)" d="M1754.83 1451.02 L1777.05 1451.02 L1777.05 1453.01 L1764.51 1485.58 L1759.62 1485.58 L1771.43 1454.96 L1754.83 1454.96 L1754.83 1451.02 Z" fill="#000000" fill-rule="nonzero" fill-opacity="1" /><path clip-path="url(#clip710)" d="M1786.22 1451.02 L1804.58 1451.02 L1804.58 1454.96 L1790.5 1454.96 L1790.5 1463.43 Q1791.52 1463.08 1792.54 1462.92 Q1793.56 1462.73 1794.58 1462.73 Q1800.36 1462.73 1803.74 1465.9 Q1807.12 1469.08 1807.12 1474.49 Q1807.12 1480.07 1803.65 1483.17 Q1800.18 1486.25 1793.86 1486.25 Q1791.68 1486.25 1789.42 1485.88 Q1787.17 1485.51 1784.76 1484.77 L1784.76 1480.07 Q1786.85 1481.2 1789.07 1481.76 Q1791.29 1482.32 1793.77 1482.32 Q1797.77 1482.32 1800.11 1480.21 Q1802.45 1478.1 1802.45 1474.49 Q1802.45 1470.88 1800.11 1468.77 Q1797.77 1466.67 1793.77 1466.67 Q1791.89 1466.67 1790.02 1467.08 Q1788.17 1467.5 1786.22 1468.38 L1786.22 1451.02 Z" fill="#000000" fill-rule="nonzero" fill-opacity="1" /><path clip-path="url(#clip710)" d="M2204.58 1481.64 L2212.22 1481.64 L2212.22 1455.28 L2203.91 1456.95 L2203.91 1452.69 L2212.17 1451.02 L2216.85 1451.02 L2216.85 1481.64 L2224.49 1481.64 L2224.49 1485.58 L2204.58 1485.58 L2204.58 1481.64 Z" fill="#000000" fill-rule="nonzero" fill-opacity="1" /><path clip-path="url(#clip710)" d="M2233.93 1479.7 L2238.82 1479.7 L2238.82 1485.58 L2233.93 1485.58 L2233.93 1479.7 Z" fill="#000000" fill-rule="nonzero" fill-opacity="1" /><path clip-path="url(#clip710)" d="M2259 1454.1 Q2255.39 1454.1 2253.56 1457.66 Q2251.76 1461.2 2251.76 1468.33 Q2251.76 1475.44 2253.56 1479.01 Q2255.39 1482.55 2259 1482.55 Q2262.64 1482.55 2264.44 1479.01 Q2266.27 1475.44 2266.27 1468.33 Q2266.27 1461.2 2264.44 1457.66 Q2262.64 1454.1 2259 1454.1 M2259 1450.39 Q2264.81 1450.39 2267.87 1455 Q2270.95 1459.58 2270.95 1468.33 Q2270.95 1477.06 2267.87 1481.67 Q2264.81 1486.25 2259 1486.25 Q2253.19 1486.25 2250.11 1481.67 Q2247.06 1477.06 2247.06 1468.33 Q2247.06 1459.58 2250.11 1455 Q2253.19 1450.39 2259 1450.39 Z" fill="#000000" fill-rule="nonzero" fill-opacity="1" /><path clip-path="url(#clip710)" d="M2289.16 1454.1 Q2285.55 1454.1 2283.72 1457.66 Q2281.92 1461.2 2281.92 1468.33 Q2281.92 1475.44 2283.72 1479.01 Q2285.55 1482.55 2289.16 1482.55 Q2292.8 1482.55 2294.6 1479.01 Q2296.43 1475.44 2296.43 1468.33 Q2296.43 1461.2 2294.6 1457.66 Q2292.8 1454.1 2289.16 1454.1 M2289.16 1450.39 Q2294.97 1450.39 2298.03 1455 Q2301.11 1459.58 2301.11 1468.33 Q2301.11 1477.06 2298.03 1481.67 Q2294.97 1486.25 2289.16 1486.25 Q2283.35 1486.25 2280.27 1481.67 Q2277.22 1477.06 2277.22 1468.33 Q2277.22 1459.58 2280.27 1455 Q2283.35 1450.39 2289.16 1450.39 Z" fill="#000000" fill-rule="nonzero" fill-opacity="1" /><path clip-path="url(#clip710)" d="M901.307 1525.81 L901.307 1543.66 L909.392 1543.66 Q913.88 1543.66 916.33 1541.34 Q918.781 1539.02 918.781 1534.72 Q918.781 1530.45 916.33 1528.13 Q913.88 1525.81 909.392 1525.81 L901.307 1525.81 M894.878 1520.52 L909.392 1520.52 Q917.381 1520.52 921.455 1524.15 Q925.561 1527.75 925.561 1534.72 Q925.561 1541.75 921.455 1545.35 Q917.381 1548.95 909.392 1548.95 L901.307 1548.95 L901.307 1568.04 L894.878 1568.04 L894.878 1520.52 Z" fill="#000000" fill-rule="nonzero" fill-opacity="1" /><path clip-path="url(#clip710)" d="M953.442 1537.87 Q952.456 1537.3 951.278 1537.04 Q950.132 1536.76 948.732 1536.76 Q943.767 1536.76 941.093 1540 Q938.451 1543.22 938.451 1549.27 L938.451 1568.04 L932.563 1568.04 L932.563 1532.4 L938.451 1532.4 L938.451 1537.93 Q940.297 1534.69 943.257 1533.13 Q946.217 1531.54 950.451 1531.54 Q951.055 1531.54 951.787 1531.63 Q952.519 1531.7 953.411 1531.85 L953.442 1537.87 Z" fill="#000000" fill-rule="nonzero" fill-opacity="1" /><path clip-path="url(#clip710)" d="M971.967 1536.5 Q967.256 1536.5 964.519 1540.19 Q961.782 1543.85 961.782 1550.25 Q961.782 1556.65 964.487 1560.34 Q967.224 1564 971.967 1564 Q976.645 1564 979.383 1560.31 Q982.12 1556.62 982.12 1550.25 Q982.12 1543.92 979.383 1540.23 Q976.645 1536.5 971.967 1536.5 M971.967 1531.54 Q979.606 1531.54 983.966 1536.5 Q988.327 1541.47 988.327 1550.25 Q988.327 1559 983.966 1564 Q979.606 1568.97 971.967 1568.97 Q964.296 1568.97 959.936 1564 Q955.607 1559 955.607 1550.25 Q955.607 1541.47 959.936 1536.5 Q964.296 1531.54 971.967 1531.54 Z" fill="#000000" fill-rule="nonzero" fill-opacity="1" /><path clip-path="url(#clip710)" d="M1023.62 1550.25 Q1023.62 1543.79 1020.95 1540.13 Q1018.31 1536.44 1013.66 1536.44 Q1009.02 1536.44 1006.34 1540.13 Q1003.7 1543.79 1003.7 1550.25 Q1003.7 1556.71 1006.34 1560.4 Q1009.02 1564.07 1013.66 1564.07 Q1018.31 1564.07 1020.95 1560.4 Q1023.62 1556.71 1023.62 1550.25 M1003.7 1537.81 Q1005.55 1534.62 1008.35 1533.1 Q1011.18 1531.54 1015.09 1531.54 Q1021.59 1531.54 1025.63 1536.69 Q1029.7 1541.85 1029.7 1550.25 Q1029.7 1558.65 1025.63 1563.81 Q1021.59 1568.97 1015.09 1568.97 Q1011.18 1568.97 1008.35 1567.44 Q1005.55 1565.88 1003.7 1562.7 L1003.7 1568.04 L997.811 1568.04 L997.811 1518.52 L1003.7 1518.52 L1003.7 1537.81 Z" fill="#000000" fill-rule="nonzero" fill-opacity="1" /><path clip-path="url(#clip710)" d="M1055.61 1550.12 Q1048.51 1550.12 1045.78 1551.75 Q1043.04 1553.37 1043.04 1557.29 Q1043.04 1560.4 1045.08 1562.25 Q1047.15 1564.07 1050.68 1564.07 Q1055.55 1564.07 1058.48 1560.63 Q1061.44 1557.16 1061.44 1551.43 L1061.44 1550.12 L1055.61 1550.12 M1067.29 1547.71 L1067.29 1568.04 L1061.44 1568.04 L1061.44 1562.63 Q1059.43 1565.88 1056.44 1567.44 Q1053.45 1568.97 1049.12 1568.97 Q1043.64 1568.97 1040.4 1565.91 Q1037.18 1562.82 1037.18 1557.67 Q1037.18 1551.65 1041.19 1548.6 Q1045.24 1545.54 1053.22 1545.54 L1061.44 1545.54 L1061.44 1544.97 Q1061.44 1540.93 1058.76 1538.73 Q1056.12 1536.5 1051.32 1536.5 Q1048.26 1536.5 1045.36 1537.23 Q1042.47 1537.97 1039.79 1539.43 L1039.79 1534.02 Q1043.01 1532.78 1046.03 1532.17 Q1049.06 1531.54 1051.92 1531.54 Q1059.65 1531.54 1063.47 1535.55 Q1067.29 1539.56 1067.29 1547.71 Z" fill="#000000" fill-rule="nonzero" fill-opacity="1" /><path clip-path="url(#clip710)" d="M1104.95 1550.25 Q1104.95 1543.79 1102.27 1540.13 Q1099.63 1536.44 1094.98 1536.44 Q1090.34 1536.44 1087.66 1540.13 Q1085.02 1543.79 1085.02 1550.25 Q1085.02 1556.71 1087.66 1560.4 Q1090.34 1564.07 1094.98 1564.07 Q1099.63 1564.07 1102.27 1560.4 Q1104.95 1556.71 1104.95 1550.25 M1085.02 1537.81 Q1086.87 1534.62 1089.67 1533.1 Q1092.5 1531.54 1096.42 1531.54 Q1102.91 1531.54 1106.95 1536.69 Q1111.03 1541.85 1111.03 1550.25 Q1111.03 1558.65 1106.95 1563.81 Q1102.91 1568.97 1096.42 1568.97 Q1092.5 1568.97 1089.67 1567.44 Q1086.87 1565.88 1085.02 1562.7 L1085.02 1568.04 L1079.13 1568.04 L1079.13 1518.52 L1085.02 1518.52 L1085.02 1537.81 Z" fill="#000000" fill-rule="nonzero" fill-opacity="1" /><path clip-path="url(#clip710)" d="M1120.73 1532.4 L1126.59 1532.4 L1126.59 1568.04 L1120.73 1568.04 L1120.73 1532.4 M1120.73 1518.52 L1126.59 1518.52 L1126.59 1525.93 L1120.73 1525.93 L1120.73 1518.52 Z" fill="#000000" fill-rule="nonzero" fill-opacity="1" /><path clip-path="url(#clip710)" d="M1138.84 1518.52 L1144.7 1518.52 L1144.7 1568.04 L1138.84 1568.04 L1138.84 1518.52 Z" fill="#000000" fill-rule="nonzero" fill-opacity="1" /><path clip-path="url(#clip710)" d="M1156.95 1532.4 L1162.81 1532.4 L1162.81 1568.04 L1156.95 1568.04 L1156.95 1532.4 M1156.95 1518.52 L1162.81 1518.52 L1162.81 1525.93 L1156.95 1525.93 L1156.95 1518.52 Z" fill="#000000" fill-rule="nonzero" fill-opacity="1" /><path clip-path="url(#clip710)" d="M1180.86 1522.27 L1180.86 1532.4 L1192.92 1532.4 L1192.92 1536.95 L1180.86 1536.95 L1180.86 1556.3 Q1180.86 1560.66 1182.04 1561.9 Q1183.24 1563.14 1186.9 1563.14 L1192.92 1563.14 L1192.92 1568.04 L1186.9 1568.04 Q1180.13 1568.04 1177.55 1565.53 Q1174.97 1562.98 1174.97 1556.3 L1174.97 1536.95 L1170.67 1536.95 L1170.67 1532.4 L1174.97 1532.4 L1174.97 1522.27 L1180.86 1522.27 Z" fill="#000000" fill-rule="nonzero" fill-opacity="1" /><path clip-path="url(#clip710)" d="M1215.45 1571.35 Q1212.97 1577.72 1210.62 1579.66 Q1208.26 1581.6 1204.31 1581.6 L1199.64 1581.6 L1199.64 1576.7 L1203.07 1576.7 Q1205.49 1576.7 1206.83 1575.56 Q1208.17 1574.41 1209.79 1570.14 L1210.84 1567.47 L1196.42 1532.4 L1202.63 1532.4 L1213.77 1560.28 L1224.91 1532.4 L1231.11 1532.4 L1215.45 1571.35 Z" fill="#000000" fill-rule="nonzero" fill-opacity="1" /><path clip-path="url(#clip710)" d="M1273.73 1536.5 Q1269.02 1536.5 1266.29 1540.19 Q1263.55 1543.85 1263.55 1550.25 Q1263.55 1556.65 1266.25 1560.34 Q1268.99 1564 1273.73 1564 Q1278.41 1564 1281.15 1560.31 Q1283.89 1556.62 1283.89 1550.25 Q1283.89 1543.92 1281.15 1540.23 Q1278.41 1536.5 1273.73 1536.5 M1273.73 1531.54 Q1281.37 1531.54 1285.73 1536.5 Q1290.09 1541.47 1290.09 1550.25 Q1290.09 1559 1285.73 1564 Q1281.37 1568.97 1273.73 1568.97 Q1266.06 1568.97 1261.7 1564 Q1257.37 1559 1257.37 1550.25 Q1257.37 1541.47 1261.7 1536.5 Q1266.06 1531.54 1273.73 1531.54 Z" fill="#000000" fill-rule="nonzero" fill-opacity="1" /><path clip-path="url(#clip710)" d="M1317.85 1518.52 L1317.85 1523.39 L1312.25 1523.39 Q1309.09 1523.39 1307.85 1524.66 Q1306.64 1525.93 1306.64 1529.24 L1306.64 1532.4 L1316.29 1532.4 L1316.29 1536.95 L1306.64 1536.95 L1306.64 1568.04 L1300.76 1568.04 L1300.76 1536.95 L1295.15 1536.95 L1295.15 1532.4 L1300.76 1532.4 L1300.76 1529.91 Q1300.76 1523.96 1303.52 1521.26 Q1306.29 1518.52 1312.31 1518.52 L1317.85 1518.52 Z" fill="#000000" fill-rule="nonzero" fill-opacity="1" /><path clip-path="url(#clip710)" d="M1349.13 1562.7 L1349.13 1581.6 L1343.25 1581.6 L1343.25 1532.4 L1349.13 1532.4 L1349.13 1537.81 Q1350.98 1534.62 1353.78 1533.1 Q1356.61 1531.54 1360.53 1531.54 Q1367.02 1531.54 1371.06 1536.69 Q1375.14 1541.85 1375.14 1550.25 Q1375.14 1558.65 1371.06 1563.81 Q1367.02 1568.97 1360.53 1568.97 Q1356.61 1568.97 1353.78 1567.44 Q1350.98 1565.88 1349.13 1562.7 M1369.06 1550.25 Q1369.06 1543.79 1366.39 1540.13 Q1363.74 1536.44 1359.1 1536.44 Q1354.45 1536.44 1351.78 1540.13 Q1349.13 1543.79 1349.13 1550.25 Q1349.13 1556.71 1351.78 1560.4 Q1354.45 1564.07 1359.1 1564.07 Q1363.74 1564.07 1366.39 1560.4 Q1369.06 1556.71 1369.06 1550.25 Z" fill="#000000" fill-rule="nonzero" fill-opacity="1" /><path clip-path="url(#clip710)" d="M1405.5 1537.87 Q1404.52 1537.3 1403.34 1537.04 Q1402.19 1536.76 1400.79 1536.76 Q1395.83 1536.76 1393.15 1540 Q1390.51 1543.22 1390.51 1549.27 L1390.51 1568.04 L1384.62 1568.04 L1384.62 1532.4 L1390.51 1532.4 L1390.51 1537.93 Q1392.36 1534.69 1395.32 1533.13 Q1398.28 1531.54 1402.51 1531.54 Q1403.12 1531.54 1403.85 1531.63 Q1404.58 1531.7 1405.47 1531.85 L1405.5 1537.87 Z" fill="#000000" fill-rule="nonzero" fill-opacity="1" /><path clip-path="url(#clip710)" d="M1440.71 1548.76 L1440.71 1551.62 L1413.78 1551.62 Q1414.16 1557.67 1417.41 1560.85 Q1420.69 1564 1426.51 1564 Q1429.88 1564 1433.03 1563.17 Q1436.22 1562.35 1439.34 1560.69 L1439.34 1566.23 Q1436.19 1567.57 1432.88 1568.27 Q1429.57 1568.97 1426.16 1568.97 Q1417.63 1568.97 1412.63 1564 Q1407.67 1559.04 1407.67 1550.57 Q1407.67 1541.82 1412.38 1536.69 Q1417.12 1531.54 1425.14 1531.54 Q1432.33 1531.54 1436.5 1536.18 Q1440.71 1540.8 1440.71 1548.76 M1434.85 1547.04 Q1434.79 1542.23 1432.14 1539.37 Q1429.53 1536.5 1425.21 1536.5 Q1420.3 1536.5 1417.34 1539.27 Q1414.42 1542.04 1413.97 1547.07 L1434.85 1547.04 Z" fill="#000000" fill-rule="nonzero" fill-opacity="1" /><path clip-path="url(#clip710)" d="M1473.04 1533.45 L1473.04 1538.98 Q1470.56 1537.71 1467.89 1537.07 Q1465.21 1536.44 1462.35 1536.44 Q1457.99 1536.44 1455.79 1537.77 Q1453.63 1539.11 1453.63 1541.79 Q1453.63 1543.82 1455.19 1545 Q1456.75 1546.15 1461.46 1547.2 L1463.46 1547.64 Q1469.7 1548.98 1472.31 1551.43 Q1474.95 1553.85 1474.95 1558.21 Q1474.95 1563.17 1471.01 1566.07 Q1467.09 1568.97 1460.22 1568.97 Q1457.35 1568.97 1454.23 1568.39 Q1451.15 1567.85 1447.71 1566.74 L1447.71 1560.69 Q1450.95 1562.38 1454.11 1563.24 Q1457.26 1564.07 1460.34 1564.07 Q1464.48 1564.07 1466.71 1562.66 Q1468.94 1561.23 1468.94 1558.65 Q1468.94 1556.27 1467.31 1554.99 Q1465.72 1553.72 1460.28 1552.54 L1458.24 1552.07 Q1452.8 1550.92 1450.38 1548.56 Q1447.96 1546.18 1447.96 1542.04 Q1447.96 1537.01 1451.53 1534.27 Q1455.09 1531.54 1461.65 1531.54 Q1464.9 1531.54 1467.76 1532.01 Q1470.62 1532.49 1473.04 1533.45 Z" fill="#000000" fill-rule="nonzero" fill-opacity="1" /><path clip-path="url(#clip710)" d="M1514.77 1548.76 L1514.77 1551.62 L1487.84 1551.62 Q1488.23 1557.67 1491.47 1560.85 Q1494.75 1564 1500.57 1564 Q1503.95 1564 1507.1 1563.17 Q1510.28 1562.35 1513.4 1560.69 L1513.4 1566.23 Q1510.25 1567.57 1506.94 1568.27 Q1503.63 1568.97 1500.22 1568.97 Q1491.69 1568.97 1486.7 1564 Q1481.73 1559.04 1481.73 1550.57 Q1481.73 1541.82 1486.44 1536.69 Q1491.19 1531.54 1499.21 1531.54 Q1506.4 1531.54 1510.57 1536.18 Q1514.77 1540.8 1514.77 1548.76 M1508.91 1547.04 Q1508.85 1542.23 1506.21 1539.37 Q1503.6 1536.5 1499.27 1536.5 Q1494.37 1536.5 1491.41 1539.27 Q1488.48 1542.04 1488.03 1547.07 L1508.91 1547.04 Z" fill="#000000" fill-rule="nonzero" fill-opacity="1" /><path clip-path="url(#clip710)" d="M1554.02 1546.53 L1554.02 1568.04 L1548.16 1568.04 L1548.16 1546.72 Q1548.16 1541.66 1546.19 1539.14 Q1544.21 1536.63 1540.27 1536.63 Q1535.52 1536.63 1532.79 1539.65 Q1530.05 1542.68 1530.05 1547.9 L1530.05 1568.04 L1524.16 1568.04 L1524.16 1532.4 L1530.05 1532.4 L1530.05 1537.93 Q1532.15 1534.72 1534.98 1533.13 Q1537.85 1531.54 1541.57 1531.54 Q1547.71 1531.54 1550.86 1535.36 Q1554.02 1539.14 1554.02 1546.53 Z" fill="#000000" fill-rule="nonzero" fill-opacity="1" /><path clip-path="url(#clip710)" d="M1591.35 1533.76 L1591.35 1539.24 Q1588.87 1537.87 1586.35 1537.2 Q1583.87 1536.5 1581.32 1536.5 Q1575.63 1536.5 1572.48 1540.13 Q1569.32 1543.73 1569.32 1550.25 Q1569.32 1556.78 1572.48 1560.4 Q1575.63 1564 1581.32 1564 Q1583.87 1564 1586.35 1563.33 Q1588.87 1562.63 1591.35 1561.26 L1591.35 1566.68 Q1588.9 1567.82 1586.26 1568.39 Q1583.65 1568.97 1580.69 1568.97 Q1572.63 1568.97 1567.89 1563.91 Q1563.15 1558.85 1563.15 1550.25 Q1563.15 1541.53 1567.92 1536.53 Q1572.73 1531.54 1581.07 1531.54 Q1583.77 1531.54 1586.35 1532.11 Q1588.93 1532.65 1591.35 1533.76 Z" fill="#000000" fill-rule="nonzero" fill-opacity="1" /><path clip-path="url(#clip710)" d="M1632.03 1548.76 L1632.03 1551.62 L1605.1 1551.62 Q1605.48 1557.67 1608.73 1560.85 Q1612.01 1564 1617.83 1564 Q1621.21 1564 1624.36 1563.17 Q1627.54 1562.35 1630.66 1560.69 L1630.66 1566.23 Q1627.51 1567.57 1624.2 1568.27 Q1620.89 1568.97 1617.48 1568.97 Q1608.95 1568.97 1603.95 1564 Q1598.99 1559.04 1598.99 1550.57 Q1598.99 1541.82 1603.7 1536.69 Q1608.44 1531.54 1616.46 1531.54 Q1623.66 1531.54 1627.83 1536.18 Q1632.03 1540.8 1632.03 1548.76 M1626.17 1547.04 Q1626.11 1542.23 1623.46 1539.37 Q1620.86 1536.5 1616.53 1536.5 Q1611.62 1536.5 1608.66 1539.27 Q1605.74 1542.04 1605.29 1547.07 L1626.17 1547.04 Z" fill="#000000" fill-rule="nonzero" fill-opacity="1" /><polyline clip-path="url(#clip712)" style="stroke:#000000; stroke-linecap:round; stroke-linejoin:round; stroke-width:2; stroke-opacity:0.1; fill:none" points="174.149,1386.4 2352.76,1386.4 "/>
<polyline clip-path="url(#clip712)" style="stroke:#000000; stroke-linecap:round; stroke-linejoin:round; stroke-width:2; stroke-opacity:0.1; fill:none" points="174.149,996.935 2352.76,996.935 "/>
<polyline clip-path="url(#clip712)" style="stroke:#000000; stroke-linecap:round; stroke-linejoin:round; stroke-width:2; stroke-opacity:0.1; fill:none" points="174.149,607.475 2352.76,607.475 "/>
<polyline clip-path="url(#clip712)" style="stroke:#000000; stroke-linecap:round; stroke-linejoin:round; stroke-width:2; stroke-opacity:0.1; fill:none" points="174.149,218.014 2352.76,218.014 "/>
<polyline clip-path="url(#clip710)" style="stroke:#000000; stroke-linecap:round; stroke-linejoin:round; stroke-width:4; stroke-opacity:1; fill:none" points="174.149,1423.18 174.149,123.472 "/>
<polyline clip-path="url(#clip710)" style="stroke:#000000; stroke-linecap:round; stroke-linejoin:round; stroke-width:4; stroke-opacity:1; fill:none" points="174.149,1386.4 193.047,1386.4 "/>
<polyline clip-path="url(#clip710)" style="stroke:#000000; stroke-linecap:round; stroke-linejoin:round; stroke-width:4; stroke-opacity:1; fill:none" points="174.149,996.935 193.047,996.935 "/>
<polyline clip-path="url(#clip710)" style="stroke:#000000; stroke-linecap:round; stroke-linejoin:round; stroke-width:4; stroke-opacity:1; fill:none" points="174.149,607.475 193.047,607.475 "/>
<polyline clip-path="url(#clip710)" style="stroke:#000000; stroke-linecap:round; stroke-linejoin:round; stroke-width:4; stroke-opacity:1; fill:none" points="174.149,218.014 193.047,218.014 "/>
<path clip-path="url(#clip710)" d="M126.205 1372.19 Q122.593 1372.19 120.765 1375.76 Q118.959 1379.3 118.959 1386.43 Q118.959 1393.54 120.765 1397.1 Q122.593 1400.64 126.205 1400.64 Q129.839 1400.64 131.644 1397.1 Q133.473 1393.54 133.473 1386.43 Q133.473 1379.3 131.644 1375.76 Q129.839 1372.19 126.205 1372.19 M126.205 1368.49 Q132.015 1368.49 135.07 1373.1 Q138.149 1377.68 138.149 1386.43 Q138.149 1395.16 135.07 1399.76 Q132.015 1404.35 126.205 1404.35 Q120.394 1404.35 117.316 1399.76 Q114.26 1395.16 114.26 1386.43 Q114.26 1377.68 117.316 1373.1 Q120.394 1368.49 126.205 1368.49 Z" fill="#000000" fill-rule="nonzero" fill-opacity="1" /><path clip-path="url(#clip710)" d="M118.242 1010.28 L125.88 1010.28 L125.88 983.914 L117.57 985.581 L117.57 981.322 L125.834 979.655 L130.51 979.655 L130.51 1010.28 L138.149 1010.28 L138.149 1014.22 L118.242 1014.22 L118.242 1010.28 Z" fill="#000000" fill-rule="nonzero" fill-opacity="1" /><path clip-path="url(#clip710)" d="M121.83 620.819 L138.149 620.819 L138.149 624.755 L116.205 624.755 L116.205 620.819 Q118.867 618.065 123.45 613.435 Q128.056 608.782 129.237 607.44 Q131.482 604.917 132.362 603.181 Q133.265 601.421 133.265 599.732 Q133.265 596.977 131.32 595.241 Q129.399 593.505 126.297 593.505 Q124.098 593.505 121.644 594.269 Q119.214 595.032 116.436 596.583 L116.436 591.861 Q119.26 590.727 121.714 590.148 Q124.168 589.57 126.205 589.57 Q131.575 589.57 134.769 592.255 Q137.964 594.94 137.964 599.431 Q137.964 601.56 137.154 603.481 Q136.367 605.38 134.26 607.972 Q133.681 608.644 130.58 611.861 Q127.478 615.056 121.83 620.819 Z" fill="#000000" fill-rule="nonzero" fill-opacity="1" /><path clip-path="url(#clip710)" d="M131.019 216.66 Q134.376 217.377 136.251 219.646 Q138.149 221.914 138.149 225.248 Q138.149 230.363 134.63 233.164 Q131.112 235.965 124.63 235.965 Q122.455 235.965 120.14 235.525 Q117.848 235.109 115.394 234.252 L115.394 229.738 Q117.339 230.873 119.654 231.451 Q121.968 232.03 124.492 232.03 Q128.89 232.03 131.181 230.294 Q133.496 228.558 133.496 225.248 Q133.496 222.192 131.343 220.479 Q129.214 218.743 125.394 218.743 L121.367 218.743 L121.367 214.901 L125.58 214.901 Q129.029 214.901 130.857 213.535 Q132.686 212.146 132.686 209.553 Q132.686 206.891 130.788 205.479 Q128.913 204.044 125.394 204.044 Q123.473 204.044 121.274 204.461 Q119.075 204.877 116.436 205.757 L116.436 201.59 Q119.098 200.85 121.413 200.479 Q123.751 200.109 125.811 200.109 Q131.135 200.109 134.237 202.54 Q137.339 204.947 137.339 209.067 Q137.339 211.938 135.695 213.928 Q134.052 215.896 131.019 216.66 Z" fill="#000000" fill-rule="nonzero" fill-opacity="1" /><path clip-path="url(#clip710)" d="M21.7677 886.636 L58.7206 886.636 L58.7206 878.869 Q58.7206 869.034 54.2646 864.483 Q49.8086 859.9 40.1964 859.9 Q30.6479 859.9 26.2237 864.483 Q21.7677 869.034 21.7677 878.869 L21.7677 886.636 M16.4842 893.065 L16.4842 879.856 Q16.4842 866.043 22.2451 859.581 Q27.9743 853.12 40.1964 853.12 Q52.4822 853.12 58.2432 859.613 Q64.0042 866.106 64.0042 879.856 L64.0042 893.065 L16.4842 893.065 Z" fill="#000000" fill-rule="nonzero" fill-opacity="1" /><path clip-path="url(#clip710)" d="M44.7161 812.634 L47.5806 812.634 L47.5806 839.561 Q53.6281 839.179 56.8109 835.933 Q59.9619 832.654 59.9619 826.83 Q59.9619 823.456 59.1344 820.305 Q58.3069 817.122 56.6518 814.003 L62.1899 814.003 Q63.5267 817.154 64.227 820.464 Q64.9272 823.774 64.9272 827.18 Q64.9272 835.71 59.9619 840.707 Q54.9967 845.672 46.5303 845.672 Q37.7774 845.672 32.6531 840.962 Q27.4968 836.219 27.4968 828.198 Q27.4968 821.005 32.1438 816.836 Q36.7589 812.634 44.7161 812.634 M42.9973 818.491 Q38.1912 818.554 35.3266 821.196 Q32.4621 823.806 32.4621 828.135 Q32.4621 833.036 35.2312 835.996 Q38.0002 838.925 43.0292 839.37 L42.9973 818.491 Z" fill="#000000" fill-rule="nonzero" fill-opacity="1" /><path clip-path="url(#clip710)" d="M42.4881 773.39 L64.0042 773.39 L64.0042 779.246 L42.679 779.246 Q37.6183 779.246 35.1038 781.219 Q32.5894 783.193 32.5894 787.14 Q32.5894 791.882 35.6131 794.619 Q38.6368 797.357 43.8567 797.357 L64.0042 797.357 L64.0042 803.245 L28.3562 803.245 L28.3562 797.357 L33.8944 797.357 Q30.6797 795.256 29.0883 792.423 Q27.4968 789.559 27.4968 785.835 Q27.4968 779.692 31.3163 776.541 Q35.1038 773.39 42.4881 773.39 Z" fill="#000000" fill-rule="nonzero" fill-opacity="1" /><path clip-path="url(#clip710)" d="M29.4065 738.983 L34.9447 738.983 Q33.6716 741.466 33.035 744.139 Q32.3984 746.813 32.3984 749.677 Q32.3984 754.038 33.7352 756.234 Q35.072 758.398 37.7456 758.398 Q39.7826 758.398 40.9603 756.839 Q42.1061 755.279 43.1565 750.569 L43.6021 748.563 Q44.9389 742.325 47.3897 739.715 Q49.8086 737.073 54.1691 737.073 Q59.1344 737.073 62.0308 741.02 Q64.9272 744.935 64.9272 751.81 Q64.9272 754.674 64.3543 757.794 Q63.8132 760.881 62.6992 764.319 L56.6518 764.319 Q58.3387 761.072 59.198 757.921 Q60.0256 754.77 60.0256 751.683 Q60.0256 747.545 58.6251 745.317 Q57.1929 743.089 54.6147 743.089 Q52.2276 743.089 50.9545 744.712 Q49.6813 746.304 48.5037 751.746 L48.0262 753.783 Q46.8804 759.226 44.5251 761.645 Q42.138 764.064 38.0002 764.064 Q32.9713 764.064 30.2341 760.499 Q27.4968 756.934 27.4968 750.378 Q27.4968 747.131 27.9743 744.267 Q28.4517 741.402 29.4065 738.983 Z" fill="#000000" fill-rule="nonzero" fill-opacity="1" /><path clip-path="url(#clip710)" d="M28.3562 727.748 L28.3562 721.891 L64.0042 721.891 L64.0042 727.748 L28.3562 727.748 M14.479 727.748 L14.479 721.891 L21.895 721.891 L21.895 727.748 L14.479 727.748 Z" fill="#000000" fill-rule="nonzero" fill-opacity="1" /><path clip-path="url(#clip710)" d="M18.2347 703.844 L28.3562 703.844 L28.3562 691.781 L32.9077 691.781 L32.9077 703.844 L52.2594 703.844 Q56.6199 703.844 57.8613 702.667 Q59.1026 701.457 59.1026 697.797 L59.1026 691.781 L64.0042 691.781 L64.0042 697.797 Q64.0042 704.576 61.4897 707.154 Q58.9434 709.733 52.2594 709.733 L32.9077 709.733 L32.9077 714.029 L28.3562 714.029 L28.3562 709.733 L18.2347 709.733 L18.2347 703.844 Z" fill="#000000" fill-rule="nonzero" fill-opacity="1" /><path clip-path="url(#clip710)" d="M67.3143 669.247 Q73.68 671.729 75.6216 674.085 Q77.5631 676.44 77.5631 680.387 L77.5631 685.065 L72.6615 685.065 L72.6615 681.628 Q72.6615 679.209 71.5157 677.872 Q70.3699 676.535 66.1048 674.912 L63.4312 673.862 L28.3562 688.28 L28.3562 682.074 L56.238 670.934 L28.3562 659.794 L28.3562 653.587 L67.3143 669.247 Z" fill="#000000" fill-rule="nonzero" fill-opacity="1" /><path clip-path="url(#clip710)" d="M545.693 18.8205 L545.693 41.5461 L555.982 41.5461 Q561.694 41.5461 564.813 38.5889 Q567.932 35.6318 567.932 30.163 Q567.932 24.7348 564.813 21.7777 Q561.694 18.8205 555.982 18.8205 L545.693 18.8205 M537.51 12.096 L555.982 12.096 Q566.15 12.096 571.335 16.714 Q576.561 21.2916 576.561 30.163 Q576.561 39.1155 571.335 43.6931 Q566.15 48.2706 555.982 48.2706 L545.693 48.2706 L545.693 72.576 L537.51 72.576 L537.51 12.096 Z" fill="#000000" fill-rule="nonzero" fill-opacity="1" /><path clip-path="url(#clip710)" d="M612.047 34.1734 Q610.791 33.4443 609.292 33.1202 Q607.834 32.7556 606.051 32.7556 Q599.732 32.7556 596.329 36.8875 Q592.967 40.9789 592.967 48.6757 L592.967 72.576 L585.473 72.576 L585.473 27.2059 L592.967 27.2059 L592.967 34.2544 Q595.317 30.1225 599.084 28.1376 Q602.851 26.1121 608.239 26.1121 Q609.009 26.1121 609.94 26.2337 Q610.872 26.3147 612.006 26.5172 L612.047 34.1734 Z" fill="#000000" fill-rule="nonzero" fill-opacity="1" /><path clip-path="url(#clip710)" d="M619.865 27.2059 L627.319 27.2059 L627.319 72.576 L619.865 72.576 L619.865 27.2059 M619.865 9.54393 L627.319 9.54393 L627.319 18.9825 L619.865 18.9825 L619.865 9.54393 Z" fill="#000000" fill-rule="nonzero" fill-opacity="1" /><path clip-path="url(#clip710)" d="M660.496 32.4315 Q654.5 32.4315 651.016 37.1306 Q647.533 41.7891 647.533 49.9314 Q647.533 58.0738 650.976 62.7728 Q654.46 67.4314 660.496 67.4314 Q666.45 67.4314 669.934 62.7323 Q673.418 58.0333 673.418 49.9314 Q673.418 41.8701 669.934 37.1711 Q666.45 32.4315 660.496 32.4315 M660.496 26.1121 Q670.218 26.1121 675.767 32.4315 Q681.317 38.7509 681.317 49.9314 Q681.317 61.0714 675.767 67.4314 Q670.218 73.7508 660.496 73.7508 Q650.733 73.7508 645.183 67.4314 Q639.674 61.0714 639.674 49.9314 Q639.674 38.7509 645.183 32.4315 Q650.733 26.1121 660.496 26.1121 Z" fill="#000000" fill-rule="nonzero" fill-opacity="1" /><path clip-path="url(#clip710)" d="M719.963 34.1734 Q718.707 33.4443 717.208 33.1202 Q715.75 32.7556 713.968 32.7556 Q707.648 32.7556 704.245 36.8875 Q700.883 40.9789 700.883 48.6757 L700.883 72.576 L693.389 72.576 L693.389 27.2059 L700.883 27.2059 L700.883 34.2544 Q703.233 30.1225 707 28.1376 Q710.767 26.1121 716.155 26.1121 Q716.925 26.1121 717.856 26.2337 Q718.788 26.3147 719.922 26.5172 L719.963 34.1734 Z" fill="#000000" fill-rule="nonzero" fill-opacity="1" /><path clip-path="url(#clip710)" d="M761.363 65.7705 L761.363 89.8329 L753.869 89.8329 L753.869 27.2059 L761.363 27.2059 L761.363 34.0924 Q763.713 30.0415 767.277 28.0971 Q770.883 26.1121 775.865 26.1121 Q784.129 26.1121 789.274 32.6746 Q794.459 39.2371 794.459 49.9314 Q794.459 60.6258 789.274 67.1883 Q784.129 73.7508 775.865 73.7508 Q770.883 73.7508 767.277 71.8063 Q763.713 69.8214 761.363 65.7705 M786.722 49.9314 Q786.722 41.7081 783.319 37.0496 Q779.957 32.3505 774.042 32.3505 Q768.128 32.3505 764.725 37.0496 Q761.363 41.7081 761.363 49.9314 Q761.363 58.1548 764.725 62.8538 Q768.128 67.5124 774.042 67.5124 Q779.957 67.5124 783.319 62.8538 Q786.722 58.1548 786.722 49.9314 Z" fill="#000000" fill-rule="nonzero" fill-opacity="1" /><path clip-path="url(#clip710)" d="M833.105 34.1734 Q831.849 33.4443 830.35 33.1202 Q828.892 32.7556 827.109 32.7556 Q820.79 32.7556 817.387 36.8875 Q814.025 40.9789 814.025 48.6757 L814.025 72.576 L806.531 72.576 L806.531 27.2059 L814.025 27.2059 L814.025 34.2544 Q816.374 30.1225 820.142 28.1376 Q823.909 26.1121 829.297 26.1121 Q830.066 26.1121 830.998 26.2337 Q831.93 26.3147 833.064 26.5172 L833.105 34.1734 Z" fill="#000000" fill-rule="nonzero" fill-opacity="1" /><path clip-path="url(#clip710)" d="M877.908 48.0275 L877.908 51.6733 L843.637 51.6733 Q844.123 59.3701 848.255 63.421 Q852.427 67.4314 859.841 67.4314 Q864.135 67.4314 868.145 66.3781 Q872.196 65.3249 876.166 63.2184 L876.166 70.267 Q872.155 71.9684 867.942 72.8596 Q863.729 73.7508 859.395 73.7508 Q848.539 73.7508 842.179 67.4314 Q835.859 61.1119 835.859 50.3365 Q835.859 39.1965 841.855 32.6746 Q847.89 26.1121 858.099 26.1121 Q867.254 26.1121 872.56 32.0264 Q877.908 37.9003 877.908 48.0275 M870.454 45.84 Q870.373 39.7232 867.011 36.0774 Q863.689 32.4315 858.18 32.4315 Q851.941 32.4315 848.174 35.9558 Q844.447 39.4801 843.88 45.8805 L870.454 45.84 Z" fill="#000000" fill-rule="nonzero" fill-opacity="1" /><path clip-path="url(#clip710)" d="M919.996 34.0924 L919.996 9.54393 L927.45 9.54393 L927.45 72.576 L919.996 72.576 L919.996 65.7705 Q917.647 69.8214 914.042 71.8063 Q910.477 73.7508 905.454 73.7508 Q897.23 73.7508 892.045 67.1883 Q886.901 60.6258 886.901 49.9314 Q886.901 39.2371 892.045 32.6746 Q897.23 26.1121 905.454 26.1121 Q910.477 26.1121 914.042 28.0971 Q917.647 30.0415 919.996 34.0924 M894.597 49.9314 Q894.597 58.1548 897.96 62.8538 Q901.362 67.5124 907.277 67.5124 Q913.191 67.5124 916.594 62.8538 Q919.996 58.1548 919.996 49.9314 Q919.996 41.7081 916.594 37.0496 Q913.191 32.3505 907.277 32.3505 Q901.362 32.3505 897.96 37.0496 Q894.597 41.7081 894.597 49.9314 Z" fill="#000000" fill-rule="nonzero" fill-opacity="1" /><path clip-path="url(#clip710)" d="M942.803 27.2059 L950.257 27.2059 L950.257 72.576 L942.803 72.576 L942.803 27.2059 M942.803 9.54393 L950.257 9.54393 L950.257 18.9825 L942.803 18.9825 L942.803 9.54393 Z" fill="#000000" fill-rule="nonzero" fill-opacity="1" /><path clip-path="url(#clip710)" d="M998.503 28.9478 L998.503 35.9153 Q995.343 34.1734 992.143 33.3227 Q988.983 32.4315 985.743 32.4315 Q978.492 32.4315 974.481 37.0496 Q970.471 41.6271 970.471 49.9314 Q970.471 58.2358 974.481 62.8538 Q978.492 67.4314 985.743 67.4314 Q988.983 67.4314 992.143 66.5807 Q995.343 65.6895 998.503 63.9476 L998.503 70.8341 Q995.384 72.2924 992.022 73.0216 Q988.7 73.7508 984.932 73.7508 Q974.684 73.7508 968.648 67.3098 Q962.612 60.8689 962.612 49.9314 Q962.612 38.832 968.688 32.472 Q974.805 26.1121 985.419 26.1121 Q988.862 26.1121 992.143 26.8413 Q995.424 27.5299 998.503 28.9478 Z" fill="#000000" fill-rule="nonzero" fill-opacity="1" /><path clip-path="url(#clip710)" d="M1018.84 14.324 L1018.84 27.2059 L1034.19 27.2059 L1034.19 32.9987 L1018.84 32.9987 L1018.84 57.6282 Q1018.84 63.1779 1020.34 64.7578 Q1021.88 66.3376 1026.54 66.3376 L1034.19 66.3376 L1034.19 72.576 L1026.54 72.576 Q1017.91 72.576 1014.63 69.3758 Q1011.34 66.1351 1011.34 57.6282 L1011.34 32.9987 L1005.88 32.9987 L1005.88 27.2059 L1011.34 27.2059 L1011.34 14.324 L1018.84 14.324 Z" fill="#000000" fill-rule="nonzero" fill-opacity="1" /><path clip-path="url(#clip710)" d="M1043.99 27.2059 L1051.45 27.2059 L1051.45 72.576 L1043.99 72.576 L1043.99 27.2059 M1043.99 9.54393 L1051.45 9.54393 L1051.45 18.9825 L1043.99 18.9825 L1043.99 9.54393 Z" fill="#000000" fill-rule="nonzero" fill-opacity="1" /><path clip-path="url(#clip710)" d="M1061.7 27.2059 L1069.6 27.2059 L1083.77 65.2844 L1097.95 27.2059 L1105.85 27.2059 L1088.84 72.576 L1078.71 72.576 L1061.7 27.2059 Z" fill="#000000" fill-rule="nonzero" fill-opacity="1" /><path clip-path="url(#clip710)" d="M1154.95 48.0275 L1154.95 51.6733 L1120.68 51.6733 Q1121.16 59.3701 1125.3 63.421 Q1129.47 67.4314 1136.88 67.4314 Q1141.18 67.4314 1145.19 66.3781 Q1149.24 65.3249 1153.21 63.2184 L1153.21 70.267 Q1149.2 71.9684 1144.98 72.8596 Q1140.77 73.7508 1136.44 73.7508 Q1125.58 73.7508 1119.22 67.4314 Q1112.9 61.1119 1112.9 50.3365 Q1112.9 39.1965 1118.9 32.6746 Q1124.93 26.1121 1135.14 26.1121 Q1144.3 26.1121 1149.6 32.0264 Q1154.95 37.9003 1154.95 48.0275 M1147.5 45.84 Q1147.41 39.7232 1144.05 36.0774 Q1140.73 32.4315 1135.22 32.4315 Q1128.98 32.4315 1125.22 35.9558 Q1121.49 39.4801 1120.92 45.8805 L1147.5 45.84 Z" fill="#000000" fill-rule="nonzero" fill-opacity="1" /><path clip-path="url(#clip710)" d="M1226.2 28.9478 L1226.2 35.9153 Q1223.04 34.1734 1219.84 33.3227 Q1216.68 32.4315 1213.44 32.4315 Q1206.19 32.4315 1202.18 37.0496 Q1198.17 41.6271 1198.17 49.9314 Q1198.17 58.2358 1202.18 62.8538 Q1206.19 67.4314 1213.44 67.4314 Q1216.68 67.4314 1219.84 66.5807 Q1223.04 65.6895 1226.2 63.9476 L1226.2 70.8341 Q1223.09 72.2924 1219.72 73.0216 Q1216.4 73.7508 1212.63 73.7508 Q1202.39 73.7508 1196.35 67.3098 Q1190.31 60.8689 1190.31 49.9314 Q1190.31 38.832 1196.39 32.472 Q1202.51 26.1121 1213.12 26.1121 Q1216.56 26.1121 1219.84 26.8413 Q1223.13 27.5299 1226.2 28.9478 Z" fill="#000000" fill-rule="nonzero" fill-opacity="1" /><path clip-path="url(#clip710)" d="M1276.88 45.1919 L1276.88 72.576 L1269.43 72.576 L1269.43 45.4349 Q1269.43 38.994 1266.92 35.7938 Q1264.4 32.5936 1259.38 32.5936 Q1253.35 32.5936 1249.86 36.4419 Q1246.38 40.2903 1246.38 46.9338 L1246.38 72.576 L1238.88 72.576 L1238.88 9.54393 L1246.38 9.54393 L1246.38 34.2544 Q1249.05 30.163 1252.66 28.1376 Q1256.3 26.1121 1261.04 26.1121 Q1268.86 26.1121 1272.87 30.9732 Q1276.88 35.7938 1276.88 45.1919 Z" fill="#000000" fill-rule="nonzero" fill-opacity="1" /><path clip-path="url(#clip710)" d="M1330.56 48.0275 L1330.56 51.6733 L1296.28 51.6733 Q1296.77 59.3701 1300.9 63.421 Q1305.08 67.4314 1312.49 67.4314 Q1316.78 67.4314 1320.79 66.3781 Q1324.84 65.3249 1328.81 63.2184 L1328.81 70.267 Q1324.8 71.9684 1320.59 72.8596 Q1316.38 73.7508 1312.04 73.7508 Q1301.19 73.7508 1294.83 67.4314 Q1288.51 61.1119 1288.51 50.3365 Q1288.51 39.1965 1294.5 32.6746 Q1300.54 26.1121 1310.75 26.1121 Q1319.9 26.1121 1325.21 32.0264 Q1330.56 37.9003 1330.56 48.0275 M1323.1 45.84 Q1323.02 39.7232 1319.66 36.0774 Q1316.34 32.4315 1310.83 32.4315 Q1304.59 32.4315 1300.82 35.9558 Q1297.1 39.4801 1296.53 45.8805 L1323.1 45.84 Z" fill="#000000" fill-rule="nonzero" fill-opacity="1" /><path clip-path="url(#clip710)" d="M1375.44 28.9478 L1375.44 35.9153 Q1372.28 34.1734 1369.08 33.3227 Q1365.92 32.4315 1362.68 32.4315 Q1355.43 32.4315 1351.42 37.0496 Q1347.41 41.6271 1347.41 49.9314 Q1347.41 58.2358 1351.42 62.8538 Q1355.43 67.4314 1362.68 67.4314 Q1365.92 67.4314 1369.08 66.5807 Q1372.28 65.6895 1375.44 63.9476 L1375.44 70.8341 Q1372.32 72.2924 1368.96 73.0216 Q1365.64 73.7508 1361.87 73.7508 Q1351.62 73.7508 1345.58 67.3098 Q1339.55 60.8689 1339.55 49.9314 Q1339.55 38.832 1345.63 32.472 Q1351.74 26.1121 1362.36 26.1121 Q1365.8 26.1121 1369.08 26.8413 Q1372.36 27.5299 1375.44 28.9478 Z" fill="#000000" fill-rule="nonzero" fill-opacity="1" /><path clip-path="url(#clip710)" d="M1388.12 9.54393 L1395.61 9.54393 L1395.61 46.7717 L1417.85 27.2059 L1427.37 27.2059 L1403.31 48.4326 L1428.38 72.576 L1418.66 72.576 L1395.61 50.4176 L1395.61 72.576 L1388.12 72.576 L1388.12 9.54393 Z" fill="#000000" fill-rule="nonzero" fill-opacity="1" /><path clip-path="url(#clip710)" d="M1438.35 62.2867 L1446.9 62.2867 L1446.9 69.2543 L1440.25 82.2172 L1435.03 82.2172 L1438.35 69.2543 L1438.35 62.2867 Z" fill="#000000" fill-rule="nonzero" fill-opacity="1" /><path clip-path="url(#clip710)" d="M1526.9 45.1919 L1526.9 72.576 L1519.45 72.576 L1519.45 45.4349 Q1519.45 38.994 1516.94 35.7938 Q1514.43 32.5936 1509.4 32.5936 Q1503.37 32.5936 1499.88 36.4419 Q1496.4 40.2903 1496.4 46.9338 L1496.4 72.576 L1488.91 72.576 L1488.91 27.2059 L1496.4 27.2059 L1496.4 34.2544 Q1499.07 30.163 1502.68 28.1376 Q1506.32 26.1121 1511.06 26.1121 Q1518.88 26.1121 1522.89 30.9732 Q1526.9 35.7938 1526.9 45.1919 Z" fill="#000000" fill-rule="nonzero" fill-opacity="1" /><path clip-path="url(#clip710)" d="M1562.39 49.7694 Q1553.36 49.7694 1549.87 51.8354 Q1546.39 53.9013 1546.39 58.8839 Q1546.39 62.8538 1548.98 65.2034 Q1551.61 67.5124 1556.11 67.5124 Q1562.31 67.5124 1566.03 63.1374 Q1569.8 58.7219 1569.8 51.4303 L1569.8 49.7694 L1562.39 49.7694 M1577.26 46.6907 L1577.26 72.576 L1569.8 72.576 L1569.8 65.6895 Q1567.25 69.8214 1563.44 71.8063 Q1559.63 73.7508 1554.13 73.7508 Q1547.16 73.7508 1543.03 69.8619 Q1538.93 65.9325 1538.93 59.3701 Q1538.93 51.7138 1544.04 47.825 Q1549.18 43.9361 1559.35 43.9361 L1569.8 43.9361 L1569.8 43.2069 Q1569.8 38.0623 1566.4 35.2672 Q1563.04 32.4315 1556.92 32.4315 Q1553.03 32.4315 1549.34 33.3632 Q1545.66 34.295 1542.26 36.1584 L1542.26 29.2718 Q1546.35 27.692 1550.2 26.9223 Q1554.04 26.1121 1557.69 26.1121 Q1567.53 26.1121 1572.39 31.2163 Q1577.26 36.3204 1577.26 46.6907 Z" fill="#000000" fill-rule="nonzero" fill-opacity="1" /><path clip-path="url(#clip710)" d="M1618.9 34.1734 Q1617.64 33.4443 1616.14 33.1202 Q1614.69 32.7556 1612.9 32.7556 Q1606.58 32.7556 1603.18 36.8875 Q1599.82 40.9789 1599.82 48.6757 L1599.82 72.576 L1592.33 72.576 L1592.33 27.2059 L1599.82 27.2059 L1599.82 34.2544 Q1602.17 30.1225 1605.94 28.1376 Q1609.7 26.1121 1615.09 26.1121 Q1615.86 26.1121 1616.79 26.2337 Q1617.72 26.3147 1618.86 26.5172 L1618.9 34.1734 Z" fill="#000000" fill-rule="nonzero" fill-opacity="1" /><path clip-path="url(#clip710)" d="M1651.55 34.1734 Q1650.29 33.4443 1648.79 33.1202 Q1647.34 32.7556 1645.55 32.7556 Q1639.23 32.7556 1635.83 36.8875 Q1632.47 40.9789 1632.47 48.6757 L1632.47 72.576 L1624.98 72.576 L1624.98 27.2059 L1632.47 27.2059 L1632.47 34.2544 Q1634.82 30.1225 1638.59 28.1376 Q1642.35 26.1121 1647.74 26.1121 Q1648.51 26.1121 1649.44 26.2337 Q1650.37 26.3147 1651.51 26.5172 L1651.55 34.1734 Z" fill="#000000" fill-rule="nonzero" fill-opacity="1" /><path clip-path="url(#clip710)" d="M1675.13 32.4315 Q1669.13 32.4315 1665.65 37.1306 Q1662.16 41.7891 1662.16 49.9314 Q1662.16 58.0738 1665.61 62.7728 Q1669.09 67.4314 1675.13 67.4314 Q1681.08 67.4314 1684.56 62.7323 Q1688.05 58.0333 1688.05 49.9314 Q1688.05 41.8701 1684.56 37.1711 Q1681.08 32.4315 1675.13 32.4315 M1675.13 26.1121 Q1684.85 26.1121 1690.4 32.4315 Q1695.95 38.7509 1695.95 49.9314 Q1695.95 61.0714 1690.4 67.4314 Q1684.85 73.7508 1675.13 73.7508 Q1665.36 73.7508 1659.81 67.4314 Q1654.3 61.0714 1654.3 49.9314 Q1654.3 38.7509 1659.81 32.4315 Q1665.36 26.1121 1675.13 26.1121 Z" fill="#000000" fill-rule="nonzero" fill-opacity="1" /><path clip-path="url(#clip710)" d="M1703.97 27.2059 L1711.42 27.2059 L1720.74 62.6108 L1730.02 27.2059 L1738.81 27.2059 L1748.12 62.6108 L1757.4 27.2059 L1764.85 27.2059 L1752.98 72.576 L1744.19 72.576 L1734.43 35.3887 L1724.63 72.576 L1715.84 72.576 L1703.97 27.2059 Z" fill="#000000" fill-rule="nonzero" fill-opacity="1" /><path clip-path="url(#clip710)" d="M1809.74 65.7705 L1809.74 89.8329 L1802.24 89.8329 L1802.24 27.2059 L1809.74 27.2059 L1809.74 34.0924 Q1812.09 30.0415 1815.65 28.0971 Q1819.26 26.1121 1824.24 26.1121 Q1832.5 26.1121 1837.65 32.6746 Q1842.83 39.2371 1842.83 49.9314 Q1842.83 60.6258 1837.65 67.1883 Q1832.5 73.7508 1824.24 73.7508 Q1819.26 73.7508 1815.65 71.8063 Q1812.09 69.8214 1809.74 65.7705 M1835.1 49.9314 Q1835.1 41.7081 1831.69 37.0496 Q1828.33 32.3505 1822.42 32.3505 Q1816.5 32.3505 1813.1 37.0496 Q1809.74 41.7081 1809.74 49.9314 Q1809.74 58.1548 1813.1 62.8538 Q1816.5 67.5124 1822.42 67.5124 Q1828.33 67.5124 1831.69 62.8538 Q1835.1 58.1548 1835.1 49.9314 Z" fill="#000000" fill-rule="nonzero" fill-opacity="1" /><path clip-path="url(#clip710)" d="M1881.48 34.1734 Q1880.22 33.4443 1878.72 33.1202 Q1877.27 32.7556 1875.48 32.7556 Q1869.16 32.7556 1865.76 36.8875 Q1862.4 40.9789 1862.4 48.6757 L1862.4 72.576 L1854.9 72.576 L1854.9 27.2059 L1862.4 27.2059 L1862.4 34.2544 Q1864.75 30.1225 1868.52 28.1376 Q1872.28 26.1121 1877.67 26.1121 Q1878.44 26.1121 1879.37 26.2337 Q1880.3 26.3147 1881.44 26.5172 L1881.48 34.1734 Z" fill="#000000" fill-rule="nonzero" fill-opacity="1" /><path clip-path="url(#clip710)" d="M1889.3 27.2059 L1896.75 27.2059 L1896.75 72.576 L1889.3 72.576 L1889.3 27.2059 M1889.3 9.54393 L1896.75 9.54393 L1896.75 18.9825 L1889.3 18.9825 L1889.3 9.54393 Z" fill="#000000" fill-rule="nonzero" fill-opacity="1" /><path clip-path="url(#clip710)" d="M1929.93 32.4315 Q1923.93 32.4315 1920.45 37.1306 Q1916.96 41.7891 1916.96 49.9314 Q1916.96 58.0738 1920.41 62.7728 Q1923.89 67.4314 1929.93 67.4314 Q1935.88 67.4314 1939.37 62.7323 Q1942.85 58.0333 1942.85 49.9314 Q1942.85 41.8701 1939.37 37.1711 Q1935.88 32.4315 1929.93 32.4315 M1929.93 26.1121 Q1939.65 26.1121 1945.2 32.4315 Q1950.75 38.7509 1950.75 49.9314 Q1950.75 61.0714 1945.2 67.4314 Q1939.65 73.7508 1929.93 73.7508 Q1920.16 73.7508 1914.62 67.4314 Q1909.11 61.0714 1909.11 49.9314 Q1909.11 38.7509 1914.62 32.4315 Q1920.16 26.1121 1929.93 26.1121 Z" fill="#000000" fill-rule="nonzero" fill-opacity="1" /><path clip-path="url(#clip710)" d="M1989.39 34.1734 Q1988.14 33.4443 1986.64 33.1202 Q1985.18 32.7556 1983.4 32.7556 Q1977.08 32.7556 1973.68 36.8875 Q1970.31 40.9789 1970.31 48.6757 L1970.31 72.576 L1962.82 72.576 L1962.82 27.2059 L1970.31 27.2059 L1970.31 34.2544 Q1972.66 30.1225 1976.43 28.1376 Q1980.2 26.1121 1985.59 26.1121 Q1986.36 26.1121 1987.29 26.2337 Q1988.22 26.3147 1989.35 26.5172 L1989.39 34.1734 Z" fill="#000000" fill-rule="nonzero" fill-opacity="1" /><path clip-path="url(#clip712)" d="M235.808 1386.39 L246.136 1386.36 L256.464 1386.06 L266.792 1384.79 L277.12 1382.88 L287.448 1381.95 L297.776 1381.81 L308.104 1381.63 L318.432 1381.33 L328.76 1381.05 L339.088 1380.74 L349.417 1380.34 L359.745 1379.93 L370.073 1379.5 L380.401 1378.95 L390.729 1378.34 L401.057 1377.81 L411.385 1377.36 L421.713 1376.81 L432.041 1375.99 L442.369 1374.91 L452.697 1373.82 L463.026 1372.83 L473.354 1371.67 L483.682 1370.35 L494.01 1368.98 L504.338 1367.54 L514.666 1365.87 L524.994 1363.95 L535.322 1361.8 L545.65 1359.44 L555.978 1356.98 L566.306 1354.31 L576.635 1351.48 L586.963 1348.41 L597.291 1344.71 L607.619 1340.55 L617.947 1336.33 L628.275 1331.69 L638.603 1326.59 L648.931 1321.25 L659.259 1315.36 L669.587 1308.78 L679.915 1301.74 L690.244 1294.31 L700.572 1285.85 L710.9 1276.68 L721.228 1267.08 L731.556 1256.88 L741.884 1246.06 L752.212 1234.25 L762.54 1221.41 L772.868 1207.76 L783.196 1193.67 L793.524 1178.61 L803.852 1161.82 L814.181 1143.7 L824.509 1124.87 L834.837 1105.76 L845.165 1086.71 L855.493 1066.62 L865.821 1044.62 L876.149 1021.06 L886.477 995.839 L896.805 970.618 L907.133 945.23 L917.461 917.764 L927.79 889.55 L938.118 861.47 L948.446 832.366 L958.774 803.194 L969.102 774.501 L979.43 744.494 L989.758 713.566 L1000.09 682.818 L1010.41 652.797 L1020.74 622.695 L1031.07 591.099 L1041.4 559.646 L1051.73 530.165 L1062.05 501.429 L1072.38 472.419 L1082.71 444.031 L1093.04 415.648 L1103.37 388.315 L1113.7 364.031 L1124.02 339.721 L1134.35 314.686 L1144.68 291.503 L1155.01 270.491 L1165.34 250.58 L1175.66 232.067 L1185.99 216.41 L1196.32 202.303 L1206.65 190.227 L1216.98 181.39 L1227.3 174.466 L1237.63 168.548 L1247.96 163.622 L1258.29 160.256 L1268.62 161.632 L1278.94 166.903 L1289.27 172.719 L1299.6 179.505 L1309.93 189.967 L1320.26 202.362 L1330.58 213.93 L1340.91 227.187 L1351.24 243.254 L1361.57 259.022 L1371.9 276.165 L1382.23 297.292 L1392.55 321.482 L1402.88 346.279 L1413.21 371.328 L1423.54 397.018 L1433.87 423.502 L1444.19 450.895 L1454.52 477.552 L1464.85 504.148 L1475.18 533.408 L1485.51 564.828 L1495.83 595.723 L1506.16 625.784 L1516.49 656.207 L1526.82 685.985 L1537.15 715.826 L1547.47 746.08 L1557.8 776.221 L1568.13 805.776 L1578.46 834.148 L1588.79 862.087 L1599.12 889.835 L1609.44 917.809 L1619.77 945.466 L1630.1 971.262 L1640.43 995.546 L1650.76 1019.18 L1661.08 1042.34 L1671.41 1065.06 L1681.74 1087.07 L1692.07 1107.49 L1702.4 1126.12 L1712.72 1143.67 L1723.05 1160.77 L1733.38 1177.06 L1743.71 1192.33 L1754.04 1206.92 L1764.36 1220.62 L1774.69 1233.1 L1785.02 1244.4 L1795.35 1255.36 L1805.68 1266.56 L1816.01 1277.14 L1826.33 1286.4 L1836.66 1294.58 L1846.99 1302.08 L1857.32 1309.21 L1867.65 1315.74 L1877.97 1321.49 L1888.3 1326.95 L1898.63 1332.15 L1908.96 1336.6 L1919.29 1340.53 L1929.61 1344.53 L1939.94 1348.34 L1950.27 1351.55 L1960.6 1354.44 L1970.93 1357.35 L1981.25 1360.03 L1991.58 1362.46 L2001.91 1364.64 L2012.24 1366.45 L2022.57 1367.86 L2032.9 1369.12 L2043.22 1370.5 L2053.55 1372.05 L2063.88 1373.48 L2074.21 1374.39 L2084.54 1375.12 L2094.86 1375.99 L2105.19 1376.85 L2115.52 1377.69 L2125.85 1378.37 L2136.18 1378.87 L2146.5 1379.32 L2156.83 1379.77 L2167.16 1380.14 L2177.49 1380.35 L2187.82 1380.64 L2198.14 1381.04 L2208.47 1381.44 L2218.8 1381.75 L2229.13 1381.89 L2239.46 1381.94 L2249.78 1382.81 L2260.11 1384.76 L2270.44 1386.05 L2280.77 1386.36 L2291.1 1386.39 L2291.1 1386.4 L2280.77 1386.4 L2270.44 1386.4 L2260.11 1386.4 L2249.78 1386.4 L2239.46 1386.4 L2229.13 1386.4 L2218.8 1386.4 L2208.47 1386.4 L2198.14 1386.4 L2187.82 1386.4 L2177.49 1386.4 L2167.16 1386.4 L2156.83 1386.4 L2146.5 1386.4 L2136.18 1386.4 L2125.85 1386.4 L2115.52 1386.4 L2105.19 1386.4 L2094.86 1386.4 L2084.54 1386.4 L2074.21 1386.4 L2063.88 1386.4 L2053.55 1386.4 L2043.22 1386.4 L2032.9 1386.4 L2022.57 1386.4 L2012.24 1386.4 L2001.91 1386.4 L1991.58 1386.4 L1981.25 1386.4 L1970.93 1386.4 L1960.6 1386.4 L1950.27 1386.4 L1939.94 1386.4 L1929.61 1386.4 L1919.29 1386.4 L1908.96 1386.4 L1898.63 1386.4 L1888.3 1386.4 L1877.97 1386.4 L1867.65 1386.4 L1857.32 1386.4 L1846.99 1386.4 L1836.66 1386.4 L1826.33 1386.4 L1816.01 1386.4 L1805.68 1386.4 L1795.35 1386.4 L1785.02 1386.4 L1774.69 1386.4 L1764.36 1386.4 L1754.04 1386.4 L1743.71 1386.4 L1733.38 1386.4 L1723.05 1386.4 L1712.72 1386.4 L1702.4 1386.4 L1692.07 1386.4 L1681.74 1386.4 L1671.41 1386.4 L1661.08 1386.4 L1650.76 1386.4 L1640.43 1386.4 L1630.1 1386.4 L1619.77 1386.4 L1609.44 1386.4 L1599.12 1386.4 L1588.79 1386.4 L1578.46 1386.4 L1568.13 1386.4 L1557.8 1386.4 L1547.47 1386.4 L1537.15 1386.4 L1526.82 1386.4 L1516.49 1386.4 L1506.16 1386.4 L1495.83 1386.4 L1485.51 1386.4 L1475.18 1386.4 L1464.85 1386.4 L1454.52 1386.4 L1444.19 1386.4 L1433.87 1386.4 L1423.54 1386.4 L1413.21 1386.4 L1402.88 1386.4 L1392.55 1386.4 L1382.23 1386.4 L1371.9 1386.4 L1361.57 1386.4 L1351.24 1386.4 L1340.91 1386.4 L1330.58 1386.4 L1320.26 1386.4 L1309.93 1386.4 L1299.6 1386.4 L1289.27 1386.4 L1278.94 1386.4 L1268.62 1386.4 L1258.29 1386.4 L1247.96 1386.4 L1237.63 1386.4 L1227.3 1386.4 L1216.98 1386.4 L1206.65 1386.4 L1196.32 1386.4 L1185.99 1386.4 L1175.66 1386.4 L1165.34 1386.4 L1155.01 1386.4 L1144.68 1386.4 L1134.35 1386.4 L1124.02 1386.4 L1113.7 1386.4 L1103.37 1386.4 L1093.04 1386.4 L1082.71 1386.4 L1072.38 1386.4 L1062.05 1386.4 L1051.73 1386.4 L1041.4 1386.4 L1031.07 1386.4 L1020.74 1386.4 L1010.41 1386.4 L1000.09 1386.4 L989.758 1386.4 L979.43 1386.4 L969.102 1386.4 L958.774 1386.4 L948.446 1386.4 L938.118 1386.4 L927.79 1386.4 L917.461 1386.4 L907.133 1386.4 L896.805 1386.4 L886.477 1386.4 L876.149 1386.4 L865.821 1386.4 L855.493 1386.4 L845.165 1386.4 L834.837 1386.4 L824.509 1386.4 L814.181 1386.4 L803.852 1386.4 L793.524 1386.4 L783.196 1386.4 L772.868 1386.4 L762.54 1386.4 L752.212 1386.4 L741.884 1386.4 L731.556 1386.4 L721.228 1386.4 L710.9 1386.4 L700.572 1386.4 L690.244 1386.4 L679.915 1386.4 L669.587 1386.4 L659.259 1386.4 L648.931 1386.4 L638.603 1386.4 L628.275 1386.4 L617.947 1386.4 L607.619 1386.4 L597.291 1386.4 L586.963 1386.4 L576.635 1386.4 L566.306 1386.4 L555.978 1386.4 L545.65 1386.4 L535.322 1386.4 L524.994 1386.4 L514.666 1386.4 L504.338 1386.4 L494.01 1386.4 L483.682 1386.4 L473.354 1386.4 L463.026 1386.4 L452.697 1386.4 L442.369 1386.4 L432.041 1386.4 L421.713 1386.4 L411.385 1386.4 L401.057 1386.4 L390.729 1386.4 L380.401 1386.4 L370.073 1386.4 L359.745 1386.4 L349.417 1386.4 L339.088 1386.4 L328.76 1386.4 L318.432 1386.4 L308.104 1386.4 L297.776 1386.4 L287.448 1386.4 L277.12 1386.4 L266.792 1386.4 L256.464 1386.4 L246.136 1386.4 L235.808 1386.4  Z" fill="#e26f46" fill-rule="evenodd" fill-opacity="0.2"/>
<polyline clip-path="url(#clip712)" style="stroke:#e26f46; stroke-linecap:round; stroke-linejoin:round; stroke-width:4; stroke-opacity:1; fill:none" points="235.808,1386.39 246.136,1386.36 256.464,1386.06 266.792,1384.79 277.12,1382.88 287.448,1381.95 297.776,1381.81 308.104,1381.63 318.432,1381.33 328.76,1381.05 339.088,1380.74 349.417,1380.34 359.745,1379.93 370.073,1379.5 380.401,1378.95 390.729,1378.34 401.057,1377.81 411.385,1377.36 421.713,1376.81 432.041,1375.99 442.369,1374.91 452.697,1373.82 463.026,1372.83 473.354,1371.67 483.682,1370.35 494.01,1368.98 504.338,1367.54 514.666,1365.87 524.994,1363.95 535.322,1361.8 545.65,1359.44 555.978,1356.98 566.306,1354.31 576.635,1351.48 586.963,1348.41 597.291,1344.71 607.619,1340.55 617.947,1336.33 628.275,1331.69 638.603,1326.59 648.931,1321.25 659.259,1315.36 669.587,1308.78 679.915,1301.74 690.244,1294.31 700.572,1285.85 710.9,1276.68 721.228,1267.08 731.556,1256.88 741.884,1246.06 752.212,1234.25 762.54,1221.41 772.868,1207.76 783.196,1193.67 793.524,1178.61 803.852,1161.82 814.181,1143.7 824.509,1124.87 834.837,1105.76 845.165,1086.71 855.493,1066.62 865.821,1044.62 876.149,1021.06 886.477,995.839 896.805,970.618 907.133,945.23 917.461,917.764 927.79,889.55 938.118,861.47 948.446,832.366 958.774,803.194 969.102,774.501 979.43,744.494 989.758,713.566 1000.09,682.818 1010.41,652.797 1020.74,622.695 1031.07,591.099 1041.4,559.646 1051.73,530.165 1062.05,501.429 1072.38,472.419 1082.71,444.031 1093.04,415.648 1103.37,388.315 1113.7,364.031 1124.02,339.721 1134.35,314.686 1144.68,291.503 1155.01,270.491 1165.34,250.58 1175.66,232.067 1185.99,216.41 1196.32,202.303 1206.65,190.227 1216.98,181.39 1227.3,174.466 1237.63,168.548 1247.96,163.622 1258.29,160.256 1268.62,161.632 1278.94,166.903 1289.27,172.719 1299.6,179.505 1309.93,189.967 1320.26,202.362 1330.58,213.93 1340.91,227.187 1351.24,243.254 1361.57,259.022 1371.9,276.165 1382.23,297.292 1392.55,321.482 1402.88,346.279 1413.21,371.328 1423.54,397.018 1433.87,423.502 1444.19,450.895 1454.52,477.552 1464.85,504.148 1475.18,533.408 1485.51,564.828 1495.83,595.723 1506.16,625.784 1516.49,656.207 1526.82,685.985 1537.15,715.826 1547.47,746.08 1557.8,776.221 1568.13,805.776 1578.46,834.148 1588.79,862.087 1599.12,889.835 1609.44,917.809 1619.77,945.466 1630.1,971.262 1640.43,995.546 1650.76,1019.18 1661.08,1042.34 1671.41,1065.06 1681.74,1087.07 1692.07,1107.49 1702.4,1126.12 1712.72,1143.67 1723.05,1160.77 1733.38,1177.06 1743.71,1192.33 1754.04,1206.92 1764.36,1220.62 1774.69,1233.1 1785.02,1244.4 1795.35,1255.36 1805.68,1266.56 1816.01,1277.14 1826.33,1286.4 1836.66,1294.58 1846.99,1302.08 1857.32,1309.21 1867.65,1315.74 1877.97,1321.49 1888.3,1326.95 1898.63,1332.15 1908.96,1336.6 1919.29,1340.53 1929.61,1344.53 1939.94,1348.34 1950.27,1351.55 1960.6,1354.44 1970.93,1357.35 1981.25,1360.03 1991.58,1362.46 2001.91,1364.64 2012.24,1366.45 2022.57,1367.86 2032.9,1369.12 2043.22,1370.5 2053.55,1372.05 2063.88,1373.48 2074.21,1374.39 2084.54,1375.12 2094.86,1375.99 2105.19,1376.85 2115.52,1377.69 2125.85,1378.37 2136.18,1378.87 2146.5,1379.32 2156.83,1379.77 2167.16,1380.14 2177.49,1380.35 2187.82,1380.64 2198.14,1381.04 2208.47,1381.44 2218.8,1381.75 2229.13,1381.89 2239.46,1381.94 2249.78,1382.81 2260.11,1384.76 2270.44,1386.05 2280.77,1386.36 2291.1,1386.39 "/>
</svg>
