<?xml version="1.0" encoding="utf-8"?>
<svg xmlns="http://www.w3.org/2000/svg" xmlns:xlink="http://www.w3.org/1999/xlink" width="600" height="400" viewBox="0 0 2400 1600">
<defs>
  <clipPath id="clip590">
    <rect x="0" y="0" width="2400" height="1600"/>
  </clipPath>
</defs>
<path clip-path="url(#clip590)" d="M0 1600 L2400 1600 L2400 0 L0 0  Z" fill="#ffffff" fill-rule="evenodd" fill-opacity="1"/>
<defs>
  <clipPath id="clip591">
    <rect x="480" y="0" width="1681" height="1600"/>
  </clipPath>
</defs>
<path clip-path="url(#clip590)" d="M175.445 1423.18 L2352.76 1423.18 L2352.76 123.472 L175.445 123.472  Z" fill="#ffffff" fill-rule="evenodd" fill-opacity="1"/>
<defs>
  <clipPath id="clip592">
    <rect x="175" y="123" width="2178" height="1301"/>
  </clipPath>
</defs>
<polyline clip-path="url(#clip592)" style="stroke:#000000; stroke-linecap:round; stroke-linejoin:round; stroke-width:2; stroke-opacity:0.1; fill:none" points="351.423,1423.18 351.423,123.472 "/>
<polyline clip-path="url(#clip592)" style="stroke:#000000; stroke-linecap:round; stroke-linejoin:round; stroke-width:2; stroke-opacity:0.1; fill:none" points="807.762,1423.18 807.762,123.472 "/>
<polyline clip-path="url(#clip592)" style="stroke:#000000; stroke-linecap:round; stroke-linejoin:round; stroke-width:2; stroke-opacity:0.1; fill:none" points="1264.1,1423.18 1264.1,123.472 "/>
<polyline clip-path="url(#clip592)" style="stroke:#000000; stroke-linecap:round; stroke-linejoin:round; stroke-width:2; stroke-opacity:0.1; fill:none" points="1720.44,1423.18 1720.44,123.472 "/>
<polyline clip-path="url(#clip592)" style="stroke:#000000; stroke-linecap:round; stroke-linejoin:round; stroke-width:2; stroke-opacity:0.1; fill:none" points="2176.78,1423.18 2176.78,123.472 "/>
<polyline clip-path="url(#clip590)" style="stroke:#000000; stroke-linecap:round; stroke-linejoin:round; stroke-width:4; stroke-opacity:1; fill:none" points="175.445,1423.18 2352.76,1423.18 "/>
<polyline clip-path="url(#clip590)" style="stroke:#000000; stroke-linecap:round; stroke-linejoin:round; stroke-width:4; stroke-opacity:1; fill:none" points="351.423,1423.18 351.423,1404.28 "/>
<polyline clip-path="url(#clip590)" style="stroke:#000000; stroke-linecap:round; stroke-linejoin:round; stroke-width:4; stroke-opacity:1; fill:none" points="807.762,1423.18 807.762,1404.28 "/>
<polyline clip-path="url(#clip590)" style="stroke:#000000; stroke-linecap:round; stroke-linejoin:round; stroke-width:4; stroke-opacity:1; fill:none" points="1264.1,1423.18 1264.1,1404.28 "/>
<polyline clip-path="url(#clip590)" style="stroke:#000000; stroke-linecap:round; stroke-linejoin:round; stroke-width:4; stroke-opacity:1; fill:none" points="1720.44,1423.18 1720.44,1404.28 "/>
<polyline clip-path="url(#clip590)" style="stroke:#000000; stroke-linecap:round; stroke-linejoin:round; stroke-width:4; stroke-opacity:1; fill:none" points="2176.78,1423.18 2176.78,1404.28 "/>
<path clip-path="url(#clip590)" d="M313.727 1454.1 Q310.116 1454.1 308.287 1457.66 Q306.481 1461.2 306.481 1468.33 Q306.481 1475.44 308.287 1479.01 Q310.116 1482.55 313.727 1482.55 Q317.361 1482.55 319.167 1479.01 Q320.995 1475.44 320.995 1468.33 Q320.995 1461.2 319.167 1457.66 Q317.361 1454.1 313.727 1454.1 M313.727 1450.39 Q319.537 1450.39 322.592 1455 Q325.671 1459.58 325.671 1468.33 Q325.671 1477.06 322.592 1481.67 Q319.537 1486.25 313.727 1486.25 Q307.917 1486.25 304.838 1481.67 Q301.782 1477.06 301.782 1468.33 Q301.782 1459.58 304.838 1455 Q307.917 1450.39 313.727 1450.39 Z" fill="#000000" fill-rule="nonzero" fill-opacity="1" /><path clip-path="url(#clip590)" d="M333.889 1479.7 L338.773 1479.7 L338.773 1485.58 L333.889 1485.58 L333.889 1479.7 Z" fill="#000000" fill-rule="nonzero" fill-opacity="1" /><path clip-path="url(#clip590)" d="M358.958 1454.1 Q355.347 1454.1 353.518 1457.66 Q351.713 1461.2 351.713 1468.33 Q351.713 1475.44 353.518 1479.01 Q355.347 1482.55 358.958 1482.55 Q362.592 1482.55 364.398 1479.01 Q366.226 1475.44 366.226 1468.33 Q366.226 1461.2 364.398 1457.66 Q362.592 1454.1 358.958 1454.1 M358.958 1450.39 Q364.768 1450.39 367.824 1455 Q370.902 1459.58 370.902 1468.33 Q370.902 1477.06 367.824 1481.67 Q364.768 1486.25 358.958 1486.25 Q353.148 1486.25 350.069 1481.67 Q347.014 1477.06 347.014 1468.33 Q347.014 1459.58 350.069 1455 Q353.148 1450.39 358.958 1450.39 Z" fill="#000000" fill-rule="nonzero" fill-opacity="1" /><path clip-path="url(#clip590)" d="M389.12 1454.1 Q385.509 1454.1 383.68 1457.66 Q381.875 1461.2 381.875 1468.33 Q381.875 1475.44 383.68 1479.01 Q385.509 1482.55 389.12 1482.55 Q392.754 1482.55 394.56 1479.01 Q396.388 1475.44 396.388 1468.33 Q396.388 1461.2 394.56 1457.66 Q392.754 1454.1 389.12 1454.1 M389.12 1450.39 Q394.93 1450.39 397.986 1455 Q401.064 1459.58 401.064 1468.33 Q401.064 1477.06 397.986 1481.67 Q394.93 1486.25 389.12 1486.25 Q383.31 1486.25 380.231 1481.67 Q377.176 1477.06 377.176 1468.33 Q377.176 1459.58 380.231 1455 Q383.31 1450.39 389.12 1450.39 Z" fill="#000000" fill-rule="nonzero" fill-opacity="1" /><path clip-path="url(#clip590)" d="M770.563 1454.1 Q766.952 1454.1 765.123 1457.66 Q763.318 1461.2 763.318 1468.33 Q763.318 1475.44 765.123 1479.01 Q766.952 1482.55 770.563 1482.55 Q774.197 1482.55 776.003 1479.01 Q777.832 1475.44 777.832 1468.33 Q777.832 1461.2 776.003 1457.66 Q774.197 1454.1 770.563 1454.1 M770.563 1450.39 Q776.373 1450.39 779.429 1455 Q782.507 1459.58 782.507 1468.33 Q782.507 1477.06 779.429 1481.67 Q776.373 1486.25 770.563 1486.25 Q764.753 1486.25 761.674 1481.67 Q758.619 1477.06 758.619 1468.33 Q758.619 1459.58 761.674 1455 Q764.753 1450.39 770.563 1450.39 Z" fill="#000000" fill-rule="nonzero" fill-opacity="1" /><path clip-path="url(#clip590)" d="M790.725 1479.7 L795.609 1479.7 L795.609 1485.58 L790.725 1485.58 L790.725 1479.7 Z" fill="#000000" fill-rule="nonzero" fill-opacity="1" /><path clip-path="url(#clip590)" d="M809.822 1481.64 L826.141 1481.64 L826.141 1485.58 L804.197 1485.58 L804.197 1481.64 Q806.859 1478.89 811.442 1474.26 Q816.049 1469.61 817.229 1468.27 Q819.475 1465.74 820.354 1464.01 Q821.257 1462.25 821.257 1460.56 Q821.257 1457.8 819.313 1456.07 Q817.392 1454.33 814.29 1454.33 Q812.091 1454.33 809.637 1455.09 Q807.206 1455.86 804.429 1457.41 L804.429 1452.69 Q807.253 1451.55 809.706 1450.97 Q812.16 1450.39 814.197 1450.39 Q819.567 1450.39 822.762 1453.08 Q825.956 1455.77 825.956 1460.26 Q825.956 1462.39 825.146 1464.31 Q824.359 1466.2 822.253 1468.8 Q821.674 1469.47 818.572 1472.69 Q815.47 1475.88 809.822 1481.64 Z" fill="#000000" fill-rule="nonzero" fill-opacity="1" /><path clip-path="url(#clip590)" d="M836.003 1451.02 L854.359 1451.02 L854.359 1454.96 L840.285 1454.96 L840.285 1463.43 Q841.303 1463.08 842.322 1462.92 Q843.34 1462.73 844.359 1462.73 Q850.146 1462.73 853.526 1465.9 Q856.905 1469.08 856.905 1474.49 Q856.905 1480.07 853.433 1483.17 Q849.961 1486.25 843.641 1486.25 Q841.465 1486.25 839.197 1485.88 Q836.952 1485.51 834.544 1484.77 L834.544 1480.07 Q836.628 1481.2 838.85 1481.76 Q841.072 1482.32 843.549 1482.32 Q847.553 1482.32 849.891 1480.21 Q852.229 1478.1 852.229 1474.49 Q852.229 1470.88 849.891 1468.77 Q847.553 1466.67 843.549 1466.67 Q841.674 1466.67 839.799 1467.08 Q837.947 1467.5 836.003 1468.38 L836.003 1451.02 Z" fill="#000000" fill-rule="nonzero" fill-opacity="1" /><path clip-path="url(#clip590)" d="M1226.4 1454.1 Q1222.79 1454.1 1220.96 1457.66 Q1219.16 1461.2 1219.16 1468.33 Q1219.16 1475.44 1220.96 1479.01 Q1222.79 1482.55 1226.4 1482.55 Q1230.04 1482.55 1231.84 1479.01 Q1233.67 1475.44 1233.67 1468.33 Q1233.67 1461.2 1231.84 1457.66 Q1230.04 1454.1 1226.4 1454.1 M1226.4 1450.39 Q1232.21 1450.39 1235.27 1455 Q1238.35 1459.58 1238.35 1468.33 Q1238.35 1477.06 1235.27 1481.67 Q1232.21 1486.25 1226.4 1486.25 Q1220.59 1486.25 1217.52 1481.67 Q1214.46 1477.06 1214.46 1468.33 Q1214.46 1459.58 1217.52 1455 Q1220.59 1450.39 1226.4 1450.39 Z" fill="#000000" fill-rule="nonzero" fill-opacity="1" /><path clip-path="url(#clip590)" d="M1246.57 1479.7 L1251.45 1479.7 L1251.45 1485.58 L1246.57 1485.58 L1246.57 1479.7 Z" fill="#000000" fill-rule="nonzero" fill-opacity="1" /><path clip-path="url(#clip590)" d="M1261.68 1451.02 L1280.04 1451.02 L1280.04 1454.96 L1265.96 1454.96 L1265.96 1463.43 Q1266.98 1463.08 1268 1462.92 Q1269.02 1462.73 1270.04 1462.73 Q1275.83 1462.73 1279.2 1465.9 Q1282.58 1469.08 1282.58 1474.49 Q1282.58 1480.07 1279.11 1483.17 Q1275.64 1486.25 1269.32 1486.25 Q1267.14 1486.25 1264.88 1485.88 Q1262.63 1485.51 1260.22 1484.77 L1260.22 1480.07 Q1262.31 1481.2 1264.53 1481.76 Q1266.75 1482.32 1269.23 1482.32 Q1273.23 1482.32 1275.57 1480.21 Q1277.91 1478.1 1277.91 1474.49 Q1277.91 1470.88 1275.57 1468.77 Q1273.23 1466.67 1269.23 1466.67 Q1267.35 1466.67 1265.48 1467.08 Q1263.63 1467.5 1261.68 1468.38 L1261.68 1451.02 Z" fill="#000000" fill-rule="nonzero" fill-opacity="1" /><path clip-path="url(#clip590)" d="M1301.8 1454.1 Q1298.19 1454.1 1296.36 1457.66 Q1294.55 1461.2 1294.55 1468.33 Q1294.55 1475.44 1296.36 1479.01 Q1298.19 1482.55 1301.8 1482.55 Q1305.43 1482.55 1307.24 1479.01 Q1309.07 1475.44 1309.07 1468.33 Q1309.07 1461.2 1307.24 1457.66 Q1305.43 1454.1 1301.8 1454.1 M1301.8 1450.39 Q1307.61 1450.39 1310.66 1455 Q1313.74 1459.58 1313.74 1468.33 Q1313.74 1477.06 1310.66 1481.67 Q1307.61 1486.25 1301.8 1486.25 Q1295.99 1486.25 1292.91 1481.67 Q1289.85 1477.06 1289.85 1468.33 Q1289.85 1459.58 1292.91 1455 Q1295.99 1450.39 1301.8 1450.39 Z" fill="#000000" fill-rule="nonzero" fill-opacity="1" /><path clip-path="url(#clip590)" d="M1683.24 1454.1 Q1679.63 1454.1 1677.8 1457.66 Q1675.99 1461.2 1675.99 1468.33 Q1675.99 1475.44 1677.8 1479.01 Q1679.63 1482.55 1683.24 1482.55 Q1686.87 1482.55 1688.68 1479.01 Q1690.51 1475.44 1690.51 1468.33 Q1690.51 1461.2 1688.68 1457.66 Q1686.87 1454.1 1683.24 1454.1 M1683.24 1450.39 Q1689.05 1450.39 1692.11 1455 Q1695.18 1459.58 1695.18 1468.33 Q1695.18 1477.06 1692.11 1481.67 Q1689.05 1486.25 1683.24 1486.25 Q1677.43 1486.25 1674.35 1481.67 Q1671.3 1477.06 1671.3 1468.33 Q1671.3 1459.58 1674.35 1455 Q1677.43 1450.39 1683.24 1450.39 Z" fill="#000000" fill-rule="nonzero" fill-opacity="1" /><path clip-path="url(#clip590)" d="M1703.4 1479.7 L1708.29 1479.7 L1708.29 1485.58 L1703.4 1485.58 L1703.4 1479.7 Z" fill="#000000" fill-rule="nonzero" fill-opacity="1" /><path clip-path="url(#clip590)" d="M1717.29 1451.02 L1739.51 1451.02 L1739.51 1453.01 L1726.97 1485.58 L1722.08 1485.58 L1733.89 1454.96 L1717.29 1454.96 L1717.29 1451.02 Z" fill="#000000" fill-rule="nonzero" fill-opacity="1" /><path clip-path="url(#clip590)" d="M1748.68 1451.02 L1767.04 1451.02 L1767.04 1454.96 L1752.96 1454.96 L1752.96 1463.43 Q1753.98 1463.08 1755 1462.92 Q1756.02 1462.73 1757.04 1462.73 Q1762.82 1462.73 1766.2 1465.9 Q1769.58 1469.08 1769.58 1474.49 Q1769.58 1480.07 1766.11 1483.17 Q1762.64 1486.25 1756.32 1486.25 Q1754.14 1486.25 1751.87 1485.88 Q1749.63 1485.51 1747.22 1484.77 L1747.22 1480.07 Q1749.3 1481.2 1751.53 1481.76 Q1753.75 1482.32 1756.23 1482.32 Q1760.23 1482.32 1762.57 1480.21 Q1764.91 1478.1 1764.91 1474.49 Q1764.91 1470.88 1762.57 1468.77 Q1760.23 1466.67 1756.23 1466.67 Q1754.35 1466.67 1752.48 1467.08 Q1750.62 1467.5 1748.68 1468.38 L1748.68 1451.02 Z" fill="#000000" fill-rule="nonzero" fill-opacity="1" /><path clip-path="url(#clip590)" d="M2128.85 1481.64 L2136.49 1481.64 L2136.49 1455.28 L2128.18 1456.95 L2128.18 1452.69 L2136.44 1451.02 L2141.12 1451.02 L2141.12 1481.64 L2148.76 1481.64 L2148.76 1485.58 L2128.85 1485.58 L2128.85 1481.64 Z" fill="#000000" fill-rule="nonzero" fill-opacity="1" /><path clip-path="url(#clip590)" d="M2158.2 1479.7 L2163.09 1479.7 L2163.09 1485.58 L2158.2 1485.58 L2158.2 1479.7 Z" fill="#000000" fill-rule="nonzero" fill-opacity="1" /><path clip-path="url(#clip590)" d="M2183.27 1454.1 Q2179.66 1454.1 2177.83 1457.66 Q2176.03 1461.2 2176.03 1468.33 Q2176.03 1475.44 2177.83 1479.01 Q2179.66 1482.55 2183.27 1482.55 Q2186.91 1482.55 2188.71 1479.01 Q2190.54 1475.44 2190.54 1468.33 Q2190.54 1461.2 2188.71 1457.66 Q2186.91 1454.1 2183.27 1454.1 M2183.27 1450.39 Q2189.08 1450.39 2192.14 1455 Q2195.22 1459.58 2195.22 1468.33 Q2195.22 1477.06 2192.14 1481.67 Q2189.08 1486.25 2183.27 1486.25 Q2177.46 1486.25 2174.38 1481.67 Q2171.33 1477.06 2171.33 1468.33 Q2171.33 1459.58 2174.38 1455 Q2177.46 1450.39 2183.27 1450.39 Z" fill="#000000" fill-rule="nonzero" fill-opacity="1" /><path clip-path="url(#clip590)" d="M2213.43 1454.1 Q2209.82 1454.1 2207.99 1457.66 Q2206.19 1461.2 2206.19 1468.33 Q2206.19 1475.44 2207.99 1479.01 Q2209.82 1482.55 2213.43 1482.55 Q2217.07 1482.55 2218.87 1479.01 Q2220.7 1475.44 2220.7 1468.33 Q2220.7 1461.2 2218.87 1457.66 Q2217.07 1454.1 2213.43 1454.1 M2213.43 1450.39 Q2219.24 1450.39 2222.3 1455 Q2225.38 1459.58 2225.38 1468.33 Q2225.38 1477.06 2222.3 1481.67 Q2219.24 1486.25 2213.43 1486.25 Q2207.62 1486.25 2204.54 1481.67 Q2201.49 1477.06 2201.49 1468.33 Q2201.49 1459.58 2204.54 1455 Q2207.62 1450.39 2213.43 1450.39 Z" fill="#000000" fill-rule="nonzero" fill-opacity="1" /><path clip-path="url(#clip590)" d="M901.956 1525.81 L901.956 1543.66 L910.04 1543.66 Q914.528 1543.66 916.979 1541.34 Q919.429 1539.02 919.429 1534.72 Q919.429 1530.45 916.979 1528.13 Q914.528 1525.81 910.04 1525.81 L901.956 1525.81 M895.526 1520.52 L910.04 1520.52 Q918.029 1520.52 922.103 1524.15 Q926.209 1527.75 926.209 1534.72 Q926.209 1541.75 922.103 1545.35 Q918.029 1548.95 910.04 1548.95 L901.956 1548.95 L901.956 1568.04 L895.526 1568.04 L895.526 1520.52 Z" fill="#000000" fill-rule="nonzero" fill-opacity="1" /><path clip-path="url(#clip590)" d="M954.091 1537.87 Q953.104 1537.3 951.926 1537.04 Q950.78 1536.76 949.38 1536.76 Q944.415 1536.76 941.741 1540 Q939.099 1543.22 939.099 1549.27 L939.099 1568.04 L933.211 1568.04 L933.211 1532.4 L939.099 1532.4 L939.099 1537.93 Q940.945 1534.69 943.906 1533.13 Q946.866 1531.54 951.099 1531.54 Q951.704 1531.54 952.436 1531.63 Q953.168 1531.7 954.059 1531.85 L954.091 1537.87 Z" fill="#000000" fill-rule="nonzero" fill-opacity="1" /><path clip-path="url(#clip590)" d="M972.615 1536.5 Q967.904 1536.5 965.167 1540.19 Q962.43 1543.85 962.43 1550.25 Q962.43 1556.65 965.135 1560.34 Q967.872 1564 972.615 1564 Q977.294 1564 980.031 1560.31 Q982.768 1556.62 982.768 1550.25 Q982.768 1543.92 980.031 1540.23 Q977.294 1536.5 972.615 1536.5 M972.615 1531.54 Q980.254 1531.54 984.614 1536.5 Q988.975 1541.47 988.975 1550.25 Q988.975 1559 984.614 1564 Q980.254 1568.97 972.615 1568.97 Q964.944 1568.97 960.584 1564 Q956.255 1559 956.255 1550.25 Q956.255 1541.47 960.584 1536.5 Q964.944 1531.54 972.615 1531.54 Z" fill="#000000" fill-rule="nonzero" fill-opacity="1" /><path clip-path="url(#clip590)" d="M1024.27 1550.25 Q1024.27 1543.79 1021.6 1540.13 Q1018.96 1536.44 1014.31 1536.44 Q1009.66 1536.44 1006.99 1540.13 Q1004.35 1543.79 1004.35 1550.25 Q1004.35 1556.71 1006.99 1560.4 Q1009.66 1564.07 1014.31 1564.07 Q1018.96 1564.07 1021.6 1560.4 Q1024.27 1556.71 1024.27 1550.25 M1004.35 1537.81 Q1006.19 1534.62 1008.99 1533.1 Q1011.83 1531.54 1015.74 1531.54 Q1022.24 1531.54 1026.28 1536.69 Q1030.35 1541.85 1030.35 1550.25 Q1030.35 1558.65 1026.28 1563.81 Q1022.24 1568.97 1015.74 1568.97 Q1011.83 1568.97 1008.99 1567.44 Q1006.19 1565.88 1004.35 1562.7 L1004.35 1568.04 L998.46 1568.04 L998.46 1518.52 L1004.35 1518.52 L1004.35 1537.81 Z" fill="#000000" fill-rule="nonzero" fill-opacity="1" /><path clip-path="url(#clip590)" d="M1056.26 1550.12 Q1049.16 1550.12 1046.43 1551.75 Q1043.69 1553.37 1043.69 1557.29 Q1043.69 1560.4 1045.72 1562.25 Q1047.79 1564.07 1051.33 1564.07 Q1056.2 1564.07 1059.12 1560.63 Q1062.08 1557.16 1062.08 1551.43 L1062.08 1550.12 L1056.26 1550.12 M1067.94 1547.71 L1067.94 1568.04 L1062.08 1568.04 L1062.08 1562.63 Q1060.08 1565.88 1057.09 1567.44 Q1054.1 1568.97 1049.77 1568.97 Q1044.29 1568.97 1041.05 1565.91 Q1037.83 1562.82 1037.83 1557.67 Q1037.83 1551.65 1041.84 1548.6 Q1045.88 1545.54 1053.87 1545.54 L1062.08 1545.54 L1062.08 1544.97 Q1062.08 1540.93 1059.41 1538.73 Q1056.77 1536.5 1051.96 1536.5 Q1048.91 1536.5 1046.01 1537.23 Q1043.12 1537.97 1040.44 1539.43 L1040.44 1534.02 Q1043.66 1532.78 1046.68 1532.17 Q1049.7 1531.54 1052.57 1531.54 Q1060.3 1531.54 1064.12 1535.55 Q1067.94 1539.56 1067.94 1547.71 Z" fill="#000000" fill-rule="nonzero" fill-opacity="1" /><path clip-path="url(#clip590)" d="M1105.59 1550.25 Q1105.59 1543.79 1102.92 1540.13 Q1100.28 1536.44 1095.63 1536.44 Q1090.99 1536.44 1088.31 1540.13 Q1085.67 1543.79 1085.67 1550.25 Q1085.67 1556.71 1088.31 1560.4 Q1090.99 1564.07 1095.63 1564.07 Q1100.28 1564.07 1102.92 1560.4 Q1105.59 1556.71 1105.59 1550.25 M1085.67 1537.81 Q1087.52 1534.62 1090.32 1533.1 Q1093.15 1531.54 1097.06 1531.54 Q1103.56 1531.54 1107.6 1536.69 Q1111.67 1541.85 1111.67 1550.25 Q1111.67 1558.65 1107.6 1563.81 Q1103.56 1568.97 1097.06 1568.97 Q1093.15 1568.97 1090.32 1567.44 Q1087.52 1565.88 1085.67 1562.7 L1085.67 1568.04 L1079.78 1568.04 L1079.78 1518.52 L1085.67 1518.52 L1085.67 1537.81 Z" fill="#000000" fill-rule="nonzero" fill-opacity="1" /><path clip-path="url(#clip590)" d="M1121.38 1532.4 L1127.24 1532.4 L1127.24 1568.04 L1121.38 1568.04 L1121.38 1532.4 M1121.38 1518.52 L1127.24 1518.52 L1127.24 1525.93 L1121.38 1525.93 L1121.38 1518.52 Z" fill="#000000" fill-rule="nonzero" fill-opacity="1" /><path clip-path="url(#clip590)" d="M1139.49 1518.52 L1145.35 1518.52 L1145.35 1568.04 L1139.49 1568.04 L1139.49 1518.52 Z" fill="#000000" fill-rule="nonzero" fill-opacity="1" /><path clip-path="url(#clip590)" d="M1157.6 1532.4 L1163.46 1532.4 L1163.46 1568.04 L1157.6 1568.04 L1157.6 1532.4 M1157.6 1518.52 L1163.46 1518.52 L1163.46 1525.93 L1157.6 1525.93 L1157.6 1518.52 Z" fill="#000000" fill-rule="nonzero" fill-opacity="1" /><path clip-path="url(#clip590)" d="M1181.51 1522.27 L1181.51 1532.4 L1193.57 1532.4 L1193.57 1536.95 L1181.51 1536.95 L1181.51 1556.3 Q1181.51 1560.66 1182.68 1561.9 Q1183.89 1563.14 1187.55 1563.14 L1193.57 1563.14 L1193.57 1568.04 L1187.55 1568.04 Q1180.77 1568.04 1178.2 1565.53 Q1175.62 1562.98 1175.62 1556.3 L1175.62 1536.95 L1171.32 1536.95 L1171.32 1532.4 L1175.62 1532.4 L1175.62 1522.27 L1181.51 1522.27 Z" fill="#000000" fill-rule="nonzero" fill-opacity="1" /><path clip-path="url(#clip590)" d="M1216.1 1571.35 Q1213.62 1577.72 1211.27 1579.66 Q1208.91 1581.6 1204.96 1581.6 L1200.28 1581.6 L1200.28 1576.7 L1203.72 1576.7 Q1206.14 1576.7 1207.48 1575.56 Q1208.81 1574.41 1210.44 1570.14 L1211.49 1567.47 L1197.07 1532.4 L1203.28 1532.4 L1214.42 1560.28 L1225.56 1532.4 L1231.76 1532.4 L1216.1 1571.35 Z" fill="#000000" fill-rule="nonzero" fill-opacity="1" /><path clip-path="url(#clip590)" d="M1274.38 1536.5 Q1269.67 1536.5 1266.93 1540.19 Q1264.2 1543.85 1264.2 1550.25 Q1264.2 1556.65 1266.9 1560.34 Q1269.64 1564 1274.38 1564 Q1279.06 1564 1281.8 1560.31 Q1284.53 1556.62 1284.53 1550.25 Q1284.53 1543.92 1281.8 1540.23 Q1279.06 1536.5 1274.38 1536.5 M1274.38 1531.54 Q1282.02 1531.54 1286.38 1536.5 Q1290.74 1541.47 1290.74 1550.25 Q1290.74 1559 1286.38 1564 Q1282.02 1568.97 1274.38 1568.97 Q1266.71 1568.97 1262.35 1564 Q1258.02 1559 1258.02 1550.25 Q1258.02 1541.47 1262.35 1536.5 Q1266.71 1531.54 1274.38 1531.54 Z" fill="#000000" fill-rule="nonzero" fill-opacity="1" /><path clip-path="url(#clip590)" d="M1318.5 1518.52 L1318.5 1523.39 L1312.89 1523.39 Q1309.74 1523.39 1308.5 1524.66 Q1307.29 1525.93 1307.29 1529.24 L1307.29 1532.4 L1316.94 1532.4 L1316.94 1536.95 L1307.29 1536.95 L1307.29 1568.04 L1301.4 1568.04 L1301.4 1536.95 L1295.8 1536.95 L1295.8 1532.4 L1301.4 1532.4 L1301.4 1529.91 Q1301.4 1523.96 1304.17 1521.26 Q1306.94 1518.52 1312.96 1518.52 L1318.5 1518.52 Z" fill="#000000" fill-rule="nonzero" fill-opacity="1" /><path clip-path="url(#clip590)" d="M1349.78 1562.7 L1349.78 1581.6 L1343.89 1581.6 L1343.89 1532.4 L1349.78 1532.4 L1349.78 1537.81 Q1351.63 1534.62 1354.43 1533.1 Q1357.26 1531.54 1361.18 1531.54 Q1367.67 1531.54 1371.71 1536.69 Q1375.79 1541.85 1375.79 1550.25 Q1375.79 1558.65 1371.71 1563.81 Q1367.67 1568.97 1361.18 1568.97 Q1357.26 1568.97 1354.43 1567.44 Q1351.63 1565.88 1349.78 1562.7 M1369.71 1550.25 Q1369.71 1543.79 1367.03 1540.13 Q1364.39 1536.44 1359.75 1536.44 Q1355.1 1536.44 1352.42 1540.13 Q1349.78 1543.79 1349.78 1550.25 Q1349.78 1556.71 1352.42 1560.4 Q1355.1 1564.07 1359.75 1564.07 Q1364.39 1564.07 1367.03 1560.4 Q1369.71 1556.71 1369.71 1550.25 Z" fill="#000000" fill-rule="nonzero" fill-opacity="1" /><path clip-path="url(#clip590)" d="M1406.15 1537.87 Q1405.16 1537.3 1403.99 1537.04 Q1402.84 1536.76 1401.44 1536.76 Q1396.48 1536.76 1393.8 1540 Q1391.16 1543.22 1391.16 1549.27 L1391.16 1568.04 L1385.27 1568.04 L1385.27 1532.4 L1391.16 1532.4 L1391.16 1537.93 Q1393.01 1534.69 1395.97 1533.13 Q1398.93 1531.54 1403.16 1531.54 Q1403.76 1531.54 1404.5 1531.63 Q1405.23 1531.7 1406.12 1531.85 L1406.15 1537.87 Z" fill="#000000" fill-rule="nonzero" fill-opacity="1" /><path clip-path="url(#clip590)" d="M1441.35 1548.76 L1441.35 1551.62 L1414.43 1551.62 Q1414.81 1557.67 1418.06 1560.85 Q1421.33 1564 1427.16 1564 Q1430.53 1564 1433.68 1563.17 Q1436.87 1562.35 1439.99 1560.69 L1439.99 1566.23 Q1436.83 1567.57 1433.52 1568.27 Q1430.21 1568.97 1426.81 1568.97 Q1418.28 1568.97 1413.28 1564 Q1408.32 1559.04 1408.32 1550.57 Q1408.32 1541.82 1413.03 1536.69 Q1417.77 1531.54 1425.79 1531.54 Q1432.98 1531.54 1437.15 1536.18 Q1441.35 1540.8 1441.35 1548.76 M1435.5 1547.04 Q1435.43 1542.23 1432.79 1539.37 Q1430.18 1536.5 1425.85 1536.5 Q1420.95 1536.5 1417.99 1539.27 Q1415.06 1542.04 1414.62 1547.07 L1435.5 1547.04 Z" fill="#000000" fill-rule="nonzero" fill-opacity="1" /><path clip-path="url(#clip590)" d="M1473.69 1533.45 L1473.69 1538.98 Q1471.21 1537.71 1468.54 1537.07 Q1465.86 1536.44 1463 1536.44 Q1458.64 1536.44 1456.44 1537.77 Q1454.28 1539.11 1454.28 1541.79 Q1454.28 1543.82 1455.84 1545 Q1457.4 1546.15 1462.11 1547.2 L1464.11 1547.64 Q1470.35 1548.98 1472.96 1551.43 Q1475.6 1553.85 1475.6 1558.21 Q1475.6 1563.17 1471.65 1566.07 Q1467.74 1568.97 1460.86 1568.97 Q1458 1568.97 1454.88 1568.39 Q1451.79 1567.85 1448.36 1566.74 L1448.36 1560.69 Q1451.6 1562.38 1454.75 1563.24 Q1457.9 1564.07 1460.99 1564.07 Q1465.13 1564.07 1467.36 1562.66 Q1469.59 1561.23 1469.59 1558.65 Q1469.59 1556.27 1467.96 1554.99 Q1466.37 1553.72 1460.93 1552.54 L1458.89 1552.07 Q1453.45 1550.92 1451.03 1548.56 Q1448.61 1546.18 1448.61 1542.04 Q1448.61 1537.01 1452.18 1534.27 Q1455.74 1531.54 1462.3 1531.54 Q1465.54 1531.54 1468.41 1532.01 Q1471.27 1532.49 1473.69 1533.45 Z" fill="#000000" fill-rule="nonzero" fill-opacity="1" /><path clip-path="url(#clip590)" d="M1515.42 1548.76 L1515.42 1551.62 L1488.49 1551.62 Q1488.87 1557.67 1492.12 1560.85 Q1495.4 1564 1501.22 1564 Q1504.6 1564 1507.75 1563.17 Q1510.93 1562.35 1514.05 1560.69 L1514.05 1566.23 Q1510.9 1567.57 1507.59 1568.27 Q1504.28 1568.97 1500.87 1568.97 Q1492.34 1568.97 1487.35 1564 Q1482.38 1559.04 1482.38 1550.57 Q1482.38 1541.82 1487.09 1536.69 Q1491.83 1531.54 1499.85 1531.54 Q1507.05 1531.54 1511.22 1536.18 Q1515.42 1540.8 1515.42 1548.76 M1509.56 1547.04 Q1509.5 1542.23 1506.86 1539.37 Q1504.25 1536.5 1499.92 1536.5 Q1495.02 1536.5 1492.06 1539.27 Q1489.13 1542.04 1488.68 1547.07 L1509.56 1547.04 Z" fill="#000000" fill-rule="nonzero" fill-opacity="1" /><path clip-path="url(#clip590)" d="M1554.66 1546.53 L1554.66 1568.04 L1548.81 1568.04 L1548.81 1546.72 Q1548.81 1541.66 1546.83 1539.14 Q1544.86 1536.63 1540.91 1536.63 Q1536.17 1536.63 1533.43 1539.65 Q1530.7 1542.68 1530.7 1547.9 L1530.7 1568.04 L1524.81 1568.04 L1524.81 1532.4 L1530.7 1532.4 L1530.7 1537.93 Q1532.8 1534.72 1535.63 1533.13 Q1538.49 1531.54 1542.22 1531.54 Q1548.36 1531.54 1551.51 1535.36 Q1554.66 1539.14 1554.66 1546.53 Z" fill="#000000" fill-rule="nonzero" fill-opacity="1" /><path clip-path="url(#clip590)" d="M1592 1533.76 L1592 1539.24 Q1589.52 1537.87 1587 1537.2 Q1584.52 1536.5 1581.97 1536.5 Q1576.27 1536.5 1573.12 1540.13 Q1569.97 1543.73 1569.97 1550.25 Q1569.97 1556.78 1573.12 1560.4 Q1576.27 1564 1581.97 1564 Q1584.52 1564 1587 1563.33 Q1589.52 1562.63 1592 1561.26 L1592 1566.68 Q1589.55 1567.82 1586.91 1568.39 Q1584.3 1568.97 1581.34 1568.97 Q1573.28 1568.97 1568.54 1563.91 Q1563.8 1558.85 1563.8 1550.25 Q1563.8 1541.53 1568.57 1536.53 Q1573.38 1531.54 1581.72 1531.54 Q1584.42 1531.54 1587 1532.11 Q1589.58 1532.65 1592 1533.76 Z" fill="#000000" fill-rule="nonzero" fill-opacity="1" /><path clip-path="url(#clip590)" d="M1632.67 1548.76 L1632.67 1551.62 L1605.75 1551.62 Q1606.13 1557.67 1609.38 1560.85 Q1612.65 1564 1618.48 1564 Q1621.85 1564 1625 1563.17 Q1628.19 1562.35 1631.31 1560.69 L1631.31 1566.23 Q1628.16 1567.57 1624.85 1568.27 Q1621.53 1568.97 1618.13 1568.97 Q1609.6 1568.97 1604.6 1564 Q1599.64 1559.04 1599.64 1550.57 Q1599.64 1541.82 1604.35 1536.69 Q1609.09 1531.54 1617.11 1531.54 Q1624.3 1531.54 1628.47 1536.18 Q1632.67 1540.8 1632.67 1548.76 M1626.82 1547.04 Q1626.75 1542.23 1624.11 1539.37 Q1621.5 1536.5 1617.17 1536.5 Q1612.27 1536.5 1609.31 1539.27 Q1606.38 1542.04 1605.94 1547.07 L1626.82 1547.04 Z" fill="#000000" fill-rule="nonzero" fill-opacity="1" /><polyline clip-path="url(#clip592)" style="stroke:#000000; stroke-linecap:round; stroke-linejoin:round; stroke-width:2; stroke-opacity:0.1; fill:none" points="175.445,1386.4 2352.76,1386.4 "/>
<polyline clip-path="url(#clip592)" style="stroke:#000000; stroke-linecap:round; stroke-linejoin:round; stroke-width:2; stroke-opacity:0.1; fill:none" points="175.445,1150.45 2352.76,1150.45 "/>
<polyline clip-path="url(#clip592)" style="stroke:#000000; stroke-linecap:round; stroke-linejoin:round; stroke-width:2; stroke-opacity:0.1; fill:none" points="175.445,914.502 2352.76,914.502 "/>
<polyline clip-path="url(#clip592)" style="stroke:#000000; stroke-linecap:round; stroke-linejoin:round; stroke-width:2; stroke-opacity:0.1; fill:none" points="175.445,678.556 2352.76,678.556 "/>
<polyline clip-path="url(#clip592)" style="stroke:#000000; stroke-linecap:round; stroke-linejoin:round; stroke-width:2; stroke-opacity:0.1; fill:none" points="175.445,442.609 2352.76,442.609 "/>
<polyline clip-path="url(#clip592)" style="stroke:#000000; stroke-linecap:round; stroke-linejoin:round; stroke-width:2; stroke-opacity:0.1; fill:none" points="175.445,206.663 2352.76,206.663 "/>
<polyline clip-path="url(#clip590)" style="stroke:#000000; stroke-linecap:round; stroke-linejoin:round; stroke-width:4; stroke-opacity:1; fill:none" points="175.445,1423.18 175.445,123.472 "/>
<polyline clip-path="url(#clip590)" style="stroke:#000000; stroke-linecap:round; stroke-linejoin:round; stroke-width:4; stroke-opacity:1; fill:none" points="175.445,1386.4 194.343,1386.4 "/>
<polyline clip-path="url(#clip590)" style="stroke:#000000; stroke-linecap:round; stroke-linejoin:round; stroke-width:4; stroke-opacity:1; fill:none" points="175.445,1150.45 194.343,1150.45 "/>
<polyline clip-path="url(#clip590)" style="stroke:#000000; stroke-linecap:round; stroke-linejoin:round; stroke-width:4; stroke-opacity:1; fill:none" points="175.445,914.502 194.343,914.502 "/>
<polyline clip-path="url(#clip590)" style="stroke:#000000; stroke-linecap:round; stroke-linejoin:round; stroke-width:4; stroke-opacity:1; fill:none" points="175.445,678.556 194.343,678.556 "/>
<polyline clip-path="url(#clip590)" style="stroke:#000000; stroke-linecap:round; stroke-linejoin:round; stroke-width:4; stroke-opacity:1; fill:none" points="175.445,442.609 194.343,442.609 "/>
<polyline clip-path="url(#clip590)" style="stroke:#000000; stroke-linecap:round; stroke-linejoin:round; stroke-width:4; stroke-opacity:1; fill:none" points="175.445,206.663 194.343,206.663 "/>
<path clip-path="url(#clip590)" d="M127.501 1372.19 Q123.89 1372.19 122.061 1375.76 Q120.255 1379.3 120.255 1386.43 Q120.255 1393.54 122.061 1397.1 Q123.89 1400.64 127.501 1400.64 Q131.135 1400.64 132.941 1397.1 Q134.769 1393.54 134.769 1386.43 Q134.769 1379.3 132.941 1375.76 Q131.135 1372.19 127.501 1372.19 M127.501 1368.49 Q133.311 1368.49 136.367 1373.1 Q139.445 1377.68 139.445 1386.43 Q139.445 1395.16 136.367 1399.76 Q133.311 1404.35 127.501 1404.35 Q121.691 1404.35 118.612 1399.76 Q115.556 1395.16 115.556 1386.43 Q115.556 1377.68 118.612 1373.1 Q121.691 1368.49 127.501 1368.49 Z" fill="#000000" fill-rule="nonzero" fill-opacity="1" /><path clip-path="url(#clip590)" d="M119.538 1163.79 L127.177 1163.79 L127.177 1137.43 L118.867 1139.09 L118.867 1134.84 L127.13 1133.17 L131.806 1133.17 L131.806 1163.79 L139.445 1163.79 L139.445 1167.73 L119.538 1167.73 L119.538 1163.79 Z" fill="#000000" fill-rule="nonzero" fill-opacity="1" /><path clip-path="url(#clip590)" d="M123.126 927.847 L139.445 927.847 L139.445 931.782 L117.501 931.782 L117.501 927.847 Q120.163 925.093 124.746 920.463 Q129.353 915.81 130.533 914.468 Q132.779 911.945 133.658 910.208 Q134.561 908.449 134.561 906.759 Q134.561 904.005 132.617 902.269 Q130.695 900.533 127.593 900.533 Q125.394 900.533 122.941 901.296 Q120.51 902.06 117.732 903.611 L117.732 898.889 Q120.556 897.755 123.01 897.176 Q125.464 896.597 127.501 896.597 Q132.871 896.597 136.066 899.283 Q139.26 901.968 139.26 906.458 Q139.26 908.588 138.45 910.509 Q137.663 912.408 135.556 915 Q134.978 915.671 131.876 918.889 Q128.774 922.083 123.126 927.847 Z" fill="#000000" fill-rule="nonzero" fill-opacity="1" /><path clip-path="url(#clip590)" d="M132.316 677.202 Q135.672 677.919 137.547 680.188 Q139.445 682.456 139.445 685.79 Q139.445 690.905 135.927 693.706 Q132.408 696.507 125.927 696.507 Q123.751 696.507 121.436 696.067 Q119.144 695.651 116.691 694.794 L116.691 690.28 Q118.635 691.415 120.95 691.993 Q123.265 692.572 125.788 692.572 Q130.186 692.572 132.478 690.836 Q134.792 689.1 134.792 685.79 Q134.792 682.734 132.64 681.021 Q130.51 679.285 126.691 679.285 L122.663 679.285 L122.663 675.442 L126.876 675.442 Q130.325 675.442 132.154 674.077 Q133.982 672.688 133.982 670.095 Q133.982 667.433 132.084 666.021 Q130.209 664.586 126.691 664.586 Q124.769 664.586 122.57 665.003 Q120.371 665.419 117.732 666.299 L117.732 662.132 Q120.394 661.392 122.709 661.021 Q125.047 660.651 127.107 660.651 Q132.431 660.651 135.533 663.081 Q138.635 665.489 138.635 669.609 Q138.635 672.479 136.992 674.47 Q135.348 676.438 132.316 677.202 Z" fill="#000000" fill-rule="nonzero" fill-opacity="1" /><path clip-path="url(#clip590)" d="M129.862 429.403 L118.056 447.852 L129.862 447.852 L129.862 429.403 M128.635 425.329 L134.515 425.329 L134.515 447.852 L139.445 447.852 L139.445 451.741 L134.515 451.741 L134.515 459.889 L129.862 459.889 L129.862 451.741 L114.26 451.741 L114.26 447.227 L128.635 425.329 Z" fill="#000000" fill-rule="nonzero" fill-opacity="1" /><path clip-path="url(#clip590)" d="M118.543 189.383 L136.899 189.383 L136.899 193.318 L122.825 193.318 L122.825 201.79 Q123.843 201.443 124.862 201.281 Q125.88 201.095 126.899 201.095 Q132.686 201.095 136.066 204.267 Q139.445 207.438 139.445 212.855 Q139.445 218.433 135.973 221.535 Q132.501 224.614 126.181 224.614 Q124.005 224.614 121.737 224.244 Q119.492 223.873 117.084 223.132 L117.084 218.433 Q119.168 219.568 121.39 220.123 Q123.612 220.679 126.089 220.679 Q130.093 220.679 132.431 218.572 Q134.769 216.466 134.769 212.855 Q134.769 209.244 132.431 207.137 Q130.093 205.031 126.089 205.031 Q124.214 205.031 122.339 205.447 Q120.487 205.864 118.543 206.744 L118.543 189.383 Z" fill="#000000" fill-rule="nonzero" fill-opacity="1" /><path clip-path="url(#clip590)" d="M21.7677 886.636 L58.7206 886.636 L58.7206 878.869 Q58.7206 869.034 54.2646 864.483 Q49.8086 859.9 40.1964 859.9 Q30.6479 859.9 26.2237 864.483 Q21.7677 869.034 21.7677 878.869 L21.7677 886.636 M16.4842 893.065 L16.4842 879.856 Q16.4842 866.043 22.2451 859.581 Q27.9743 853.12 40.1964 853.12 Q52.4822 853.12 58.2432 859.613 Q64.0042 866.106 64.0042 879.856 L64.0042 893.065 L16.4842 893.065 Z" fill="#000000" fill-rule="nonzero" fill-opacity="1" /><path clip-path="url(#clip590)" d="M44.7161 812.634 L47.5806 812.634 L47.5806 839.561 Q53.6281 839.179 56.8109 835.933 Q59.9619 832.654 59.9619 826.83 Q59.9619 823.456 59.1344 820.305 Q58.3069 817.122 56.6518 814.003 L62.1899 814.003 Q63.5267 817.154 64.227 820.464 Q64.9272 823.774 64.9272 827.18 Q64.9272 835.71 59.9619 840.707 Q54.9967 845.672 46.5303 845.672 Q37.7774 845.672 32.6531 840.962 Q27.4968 836.219 27.4968 828.198 Q27.4968 821.005 32.1438 816.836 Q36.7589 812.634 44.7161 812.634 M42.9973 818.491 Q38.1912 818.554 35.3266 821.196 Q32.4621 823.806 32.4621 828.135 Q32.4621 833.036 35.2312 835.996 Q38.0002 838.925 43.0292 839.37 L42.9973 818.491 Z" fill="#000000" fill-rule="nonzero" fill-opacity="1" /><path clip-path="url(#clip590)" d="M42.4881 773.39 L64.0042 773.39 L64.0042 779.246 L42.679 779.246 Q37.6183 779.246 35.1038 781.219 Q32.5894 783.193 32.5894 787.14 Q32.5894 791.882 35.6131 794.619 Q38.6368 797.357 43.8567 797.357 L64.0042 797.357 L64.0042 803.245 L28.3562 803.245 L28.3562 797.357 L33.8944 797.357 Q30.6797 795.256 29.0883 792.423 Q27.4968 789.559 27.4968 785.835 Q27.4968 779.692 31.3163 776.541 Q35.1038 773.39 42.4881 773.39 Z" fill="#000000" fill-rule="nonzero" fill-opacity="1" /><path clip-path="url(#clip590)" d="M29.4065 738.983 L34.9447 738.983 Q33.6716 741.466 33.035 744.139 Q32.3984 746.813 32.3984 749.677 Q32.3984 754.038 33.7352 756.234 Q35.072 758.398 37.7456 758.398 Q39.7826 758.398 40.9603 756.839 Q42.1061 755.279 43.1565 750.569 L43.6021 748.563 Q44.9389 742.325 47.3897 739.715 Q49.8086 737.073 54.1691 737.073 Q59.1344 737.073 62.0308 741.02 Q64.9272 744.935 64.9272 751.81 Q64.9272 754.674 64.3543 757.794 Q63.8132 760.881 62.6992 764.319 L56.6518 764.319 Q58.3387 761.072 59.198 757.921 Q60.0256 754.77 60.0256 751.683 Q60.0256 747.545 58.6251 745.317 Q57.1929 743.089 54.6147 743.089 Q52.2276 743.089 50.9545 744.712 Q49.6813 746.304 48.5037 751.746 L48.0262 753.783 Q46.8804 759.226 44.5251 761.645 Q42.138 764.064 38.0002 764.064 Q32.9713 764.064 30.2341 760.499 Q27.4968 756.934 27.4968 750.378 Q27.4968 747.131 27.9743 744.267 Q28.4517 741.402 29.4065 738.983 Z" fill="#000000" fill-rule="nonzero" fill-opacity="1" /><path clip-path="url(#clip590)" d="M28.3562 727.748 L28.3562 721.891 L64.0042 721.891 L64.0042 727.748 L28.3562 727.748 M14.479 727.748 L14.479 721.891 L21.895 721.891 L21.895 727.748 L14.479 727.748 Z" fill="#000000" fill-rule="nonzero" fill-opacity="1" /><path clip-path="url(#clip590)" d="M18.2347 703.844 L28.3562 703.844 L28.3562 691.781 L32.9077 691.781 L32.9077 703.844 L52.2594 703.844 Q56.6199 703.844 57.8613 702.667 Q59.1026 701.457 59.1026 697.797 L59.1026 691.781 L64.0042 691.781 L64.0042 697.797 Q64.0042 704.576 61.4897 707.154 Q58.9434 709.733 52.2594 709.733 L32.9077 709.733 L32.9077 714.029 L28.3562 714.029 L28.3562 709.733 L18.2347 709.733 L18.2347 703.844 Z" fill="#000000" fill-rule="nonzero" fill-opacity="1" /><path clip-path="url(#clip590)" d="M67.3143 669.247 Q73.68 671.729 75.6216 674.085 Q77.5631 676.44 77.5631 680.387 L77.5631 685.065 L72.6615 685.065 L72.6615 681.628 Q72.6615 679.209 71.5157 677.872 Q70.3699 676.535 66.1048 674.912 L63.4312 673.862 L28.3562 688.28 L28.3562 682.074 L56.238 670.934 L28.3562 659.794 L28.3562 653.587 L67.3143 669.247 Z" fill="#000000" fill-rule="nonzero" fill-opacity="1" /><path clip-path="url(#clip590)" d="M592.521 18.8205 L592.521 41.5461 L602.811 41.5461 Q608.522 41.5461 611.642 38.5889 Q614.761 35.6318 614.761 30.163 Q614.761 24.7348 611.642 21.7777 Q608.522 18.8205 602.811 18.8205 L592.521 18.8205 M584.339 12.096 L602.811 12.096 Q612.978 12.096 618.164 16.714 Q623.389 21.2916 623.389 30.163 Q623.389 39.1155 618.164 43.6931 Q612.978 48.2706 602.811 48.2706 L592.521 48.2706 L592.521 72.576 L584.339 72.576 L584.339 12.096 Z" fill="#000000" fill-rule="nonzero" fill-opacity="1" /><path clip-path="url(#clip590)" d="M658.875 34.1734 Q657.619 33.4443 656.121 33.1202 Q654.662 32.7556 652.88 32.7556 Q646.56 32.7556 643.158 36.8875 Q639.795 40.9789 639.795 48.6757 L639.795 72.576 L632.301 72.576 L632.301 27.2059 L639.795 27.2059 L639.795 34.2544 Q642.145 30.1225 645.912 28.1376 Q649.68 26.1121 655.067 26.1121 Q655.837 26.1121 656.769 26.2337 Q657.7 26.3147 658.835 26.5172 L658.875 34.1734 Z" fill="#000000" fill-rule="nonzero" fill-opacity="1" /><path clip-path="url(#clip590)" d="M666.693 27.2059 L674.147 27.2059 L674.147 72.576 L666.693 72.576 L666.693 27.2059 M666.693 9.54393 L674.147 9.54393 L674.147 18.9825 L666.693 18.9825 L666.693 9.54393 Z" fill="#000000" fill-rule="nonzero" fill-opacity="1" /><path clip-path="url(#clip590)" d="M707.324 32.4315 Q701.329 32.4315 697.845 37.1306 Q694.361 41.7891 694.361 49.9314 Q694.361 58.0738 697.804 62.7728 Q701.288 67.4314 707.324 67.4314 Q713.279 67.4314 716.763 62.7323 Q720.246 58.0333 720.246 49.9314 Q720.246 41.8701 716.763 37.1711 Q713.279 32.4315 707.324 32.4315 M707.324 26.1121 Q717.046 26.1121 722.596 32.4315 Q728.146 38.7509 728.146 49.9314 Q728.146 61.0714 722.596 67.4314 Q717.046 73.7508 707.324 73.7508 Q697.561 73.7508 692.012 67.4314 Q686.502 61.0714 686.502 49.9314 Q686.502 38.7509 692.012 32.4315 Q697.561 26.1121 707.324 26.1121 Z" fill="#000000" fill-rule="nonzero" fill-opacity="1" /><path clip-path="url(#clip590)" d="M766.791 34.1734 Q765.536 33.4443 764.037 33.1202 Q762.578 32.7556 760.796 32.7556 Q754.477 32.7556 751.074 36.8875 Q747.712 40.9789 747.712 48.6757 L747.712 72.576 L740.217 72.576 L740.217 27.2059 L747.712 27.2059 L747.712 34.2544 Q750.061 30.1225 753.828 28.1376 Q757.596 26.1121 762.983 26.1121 Q763.753 26.1121 764.685 26.2337 Q765.617 26.3147 766.751 26.5172 L766.791 34.1734 Z" fill="#000000" fill-rule="nonzero" fill-opacity="1" /><path clip-path="url(#clip590)" d="M808.192 65.7705 L808.192 89.8329 L800.697 89.8329 L800.697 27.2059 L808.192 27.2059 L808.192 34.0924 Q810.541 30.0415 814.106 28.0971 Q817.711 26.1121 822.694 26.1121 Q830.958 26.1121 836.102 32.6746 Q841.287 39.2371 841.287 49.9314 Q841.287 60.6258 836.102 67.1883 Q830.958 73.7508 822.694 73.7508 Q817.711 73.7508 814.106 71.8063 Q810.541 69.8214 808.192 65.7705 M833.55 49.9314 Q833.55 41.7081 830.147 37.0496 Q826.785 32.3505 820.871 32.3505 Q814.957 32.3505 811.554 37.0496 Q808.192 41.7081 808.192 49.9314 Q808.192 58.1548 811.554 62.8538 Q814.957 67.5124 820.871 67.5124 Q826.785 67.5124 830.147 62.8538 Q833.55 58.1548 833.55 49.9314 Z" fill="#000000" fill-rule="nonzero" fill-opacity="1" /><path clip-path="url(#clip590)" d="M879.933 34.1734 Q878.677 33.4443 877.178 33.1202 Q875.72 32.7556 873.938 32.7556 Q867.618 32.7556 864.216 36.8875 Q860.853 40.9789 860.853 48.6757 L860.853 72.576 L853.359 72.576 L853.359 27.2059 L860.853 27.2059 L860.853 34.2544 Q863.203 30.1225 866.97 28.1376 Q870.738 26.1121 876.125 26.1121 Q876.895 26.1121 877.827 26.2337 Q878.758 26.3147 879.893 26.5172 L879.933 34.1734 Z" fill="#000000" fill-rule="nonzero" fill-opacity="1" /><path clip-path="url(#clip590)" d="M924.736 48.0275 L924.736 51.6733 L890.465 51.6733 Q890.952 59.3701 895.083 63.421 Q899.256 67.4314 906.669 67.4314 Q910.963 67.4314 914.973 66.3781 Q919.024 65.3249 922.994 63.2184 L922.994 70.267 Q918.984 71.9684 914.771 72.8596 Q910.558 73.7508 906.223 73.7508 Q895.367 73.7508 889.007 67.4314 Q882.688 61.1119 882.688 50.3365 Q882.688 39.1965 888.683 32.6746 Q894.719 26.1121 904.927 26.1121 Q914.082 26.1121 919.389 32.0264 Q924.736 37.9003 924.736 48.0275 M917.282 45.84 Q917.201 39.7232 913.839 36.0774 Q910.517 32.4315 905.008 32.4315 Q898.77 32.4315 895.002 35.9558 Q891.276 39.4801 890.708 45.8805 L917.282 45.84 Z" fill="#000000" fill-rule="nonzero" fill-opacity="1" /><path clip-path="url(#clip590)" d="M966.825 34.0924 L966.825 9.54393 L974.279 9.54393 L974.279 72.576 L966.825 72.576 L966.825 65.7705 Q964.475 69.8214 960.87 71.8063 Q957.305 73.7508 952.282 73.7508 Q944.059 73.7508 938.874 67.1883 Q933.729 60.6258 933.729 49.9314 Q933.729 39.2371 938.874 32.6746 Q944.059 26.1121 952.282 26.1121 Q957.305 26.1121 960.87 28.0971 Q964.475 30.0415 966.825 34.0924 M941.426 49.9314 Q941.426 58.1548 944.788 62.8538 Q948.191 67.5124 954.105 67.5124 Q960.019 67.5124 963.422 62.8538 Q966.825 58.1548 966.825 49.9314 Q966.825 41.7081 963.422 37.0496 Q960.019 32.3505 954.105 32.3505 Q948.191 32.3505 944.788 37.0496 Q941.426 41.7081 941.426 49.9314 Z" fill="#000000" fill-rule="nonzero" fill-opacity="1" /><path clip-path="url(#clip590)" d="M989.632 27.2059 L997.085 27.2059 L997.085 72.576 L989.632 72.576 L989.632 27.2059 M989.632 9.54393 L997.085 9.54393 L997.085 18.9825 L989.632 18.9825 L989.632 9.54393 Z" fill="#000000" fill-rule="nonzero" fill-opacity="1" /><path clip-path="url(#clip590)" d="M1045.33 28.9478 L1045.33 35.9153 Q1042.17 34.1734 1038.97 33.3227 Q1035.81 32.4315 1032.57 32.4315 Q1025.32 32.4315 1021.31 37.0496 Q1017.3 41.6271 1017.3 49.9314 Q1017.3 58.2358 1021.31 62.8538 Q1025.32 67.4314 1032.57 67.4314 Q1035.81 67.4314 1038.97 66.5807 Q1042.17 65.6895 1045.33 63.9476 L1045.33 70.8341 Q1042.21 72.2924 1038.85 73.0216 Q1035.53 73.7508 1031.76 73.7508 Q1021.51 73.7508 1015.48 67.3098 Q1009.44 60.8689 1009.44 49.9314 Q1009.44 38.832 1015.52 32.472 Q1021.63 26.1121 1032.25 26.1121 Q1035.69 26.1121 1038.97 26.8413 Q1042.25 27.5299 1045.33 28.9478 Z" fill="#000000" fill-rule="nonzero" fill-opacity="1" /><path clip-path="url(#clip590)" d="M1065.67 14.324 L1065.67 27.2059 L1081.02 27.2059 L1081.02 32.9987 L1065.67 32.9987 L1065.67 57.6282 Q1065.67 63.1779 1067.17 64.7578 Q1068.71 66.3376 1073.36 66.3376 L1081.02 66.3376 L1081.02 72.576 L1073.36 72.576 Q1064.74 72.576 1061.45 69.3758 Q1058.17 66.1351 1058.17 57.6282 L1058.17 32.9987 L1052.7 32.9987 L1052.7 27.2059 L1058.17 27.2059 L1058.17 14.324 L1065.67 14.324 Z" fill="#000000" fill-rule="nonzero" fill-opacity="1" /><path clip-path="url(#clip590)" d="M1090.82 27.2059 L1098.28 27.2059 L1098.28 72.576 L1090.82 72.576 L1090.82 27.2059 M1090.82 9.54393 L1098.28 9.54393 L1098.28 18.9825 L1090.82 18.9825 L1090.82 9.54393 Z" fill="#000000" fill-rule="nonzero" fill-opacity="1" /><path clip-path="url(#clip590)" d="M1108.53 27.2059 L1116.42 27.2059 L1130.6 65.2844 L1144.78 27.2059 L1152.68 27.2059 L1135.67 72.576 L1125.54 72.576 L1108.53 27.2059 Z" fill="#000000" fill-rule="nonzero" fill-opacity="1" /><path clip-path="url(#clip590)" d="M1201.78 48.0275 L1201.78 51.6733 L1167.51 51.6733 Q1167.99 59.3701 1172.12 63.421 Q1176.3 67.4314 1183.71 67.4314 Q1188 67.4314 1192.01 66.3781 Q1196.07 65.3249 1200.04 63.2184 L1200.04 70.267 Q1196.03 71.9684 1191.81 72.8596 Q1187.6 73.7508 1183.26 73.7508 Q1172.41 73.7508 1166.05 67.4314 Q1159.73 61.1119 1159.73 50.3365 Q1159.73 39.1965 1165.72 32.6746 Q1171.76 26.1121 1181.97 26.1121 Q1191.12 26.1121 1196.43 32.0264 Q1201.78 37.9003 1201.78 48.0275 M1194.32 45.84 Q1194.24 39.7232 1190.88 36.0774 Q1187.56 32.4315 1182.05 32.4315 Q1175.81 32.4315 1172.04 35.9558 Q1168.32 39.4801 1167.75 45.8805 L1194.32 45.84 Z" fill="#000000" fill-rule="nonzero" fill-opacity="1" /><path clip-path="url(#clip590)" d="M1273.03 28.9478 L1273.03 35.9153 Q1269.87 34.1734 1266.67 33.3227 Q1263.51 32.4315 1260.27 32.4315 Q1253.02 32.4315 1249.01 37.0496 Q1245 41.6271 1245 49.9314 Q1245 58.2358 1249.01 62.8538 Q1253.02 67.4314 1260.27 67.4314 Q1263.51 67.4314 1266.67 66.5807 Q1269.87 65.6895 1273.03 63.9476 L1273.03 70.8341 Q1269.91 72.2924 1266.55 73.0216 Q1263.23 73.7508 1259.46 73.7508 Q1249.21 73.7508 1243.18 67.3098 Q1237.14 60.8689 1237.14 49.9314 Q1237.14 38.832 1243.22 32.472 Q1249.34 26.1121 1259.95 26.1121 Q1263.39 26.1121 1266.67 26.8413 Q1269.95 27.5299 1273.03 28.9478 Z" fill="#000000" fill-rule="nonzero" fill-opacity="1" /><path clip-path="url(#clip590)" d="M1323.71 45.1919 L1323.71 72.576 L1316.26 72.576 L1316.26 45.4349 Q1316.26 38.994 1313.74 35.7938 Q1311.23 32.5936 1306.21 32.5936 Q1300.17 32.5936 1296.69 36.4419 Q1293.21 40.2903 1293.21 46.9338 L1293.21 72.576 L1285.71 72.576 L1285.71 9.54393 L1293.21 9.54393 L1293.21 34.2544 Q1295.88 30.163 1299.49 28.1376 Q1303.13 26.1121 1307.87 26.1121 Q1315.69 26.1121 1319.7 30.9732 Q1323.71 35.7938 1323.71 45.1919 Z" fill="#000000" fill-rule="nonzero" fill-opacity="1" /><path clip-path="url(#clip590)" d="M1377.38 48.0275 L1377.38 51.6733 L1343.11 51.6733 Q1343.6 59.3701 1347.73 63.421 Q1351.9 67.4314 1359.32 67.4314 Q1363.61 67.4314 1367.62 66.3781 Q1371.67 65.3249 1375.64 63.2184 L1375.64 70.267 Q1371.63 71.9684 1367.42 72.8596 Q1363.21 73.7508 1358.87 73.7508 Q1348.02 73.7508 1341.66 67.4314 Q1335.34 61.1119 1335.34 50.3365 Q1335.34 39.1965 1341.33 32.6746 Q1347.37 26.1121 1357.58 26.1121 Q1366.73 26.1121 1372.04 32.0264 Q1377.38 37.9003 1377.38 48.0275 M1369.93 45.84 Q1369.85 39.7232 1366.49 36.0774 Q1363.17 32.4315 1357.66 32.4315 Q1351.42 32.4315 1347.65 35.9558 Q1343.92 39.4801 1343.36 45.8805 L1369.93 45.84 Z" fill="#000000" fill-rule="nonzero" fill-opacity="1" /><path clip-path="url(#clip590)" d="M1422.27 28.9478 L1422.27 35.9153 Q1419.11 34.1734 1415.91 33.3227 Q1412.75 32.4315 1409.51 32.4315 Q1402.26 32.4315 1398.25 37.0496 Q1394.24 41.6271 1394.24 49.9314 Q1394.24 58.2358 1398.25 62.8538 Q1402.26 67.4314 1409.51 67.4314 Q1412.75 67.4314 1415.91 66.5807 Q1419.11 65.6895 1422.27 63.9476 L1422.27 70.8341 Q1419.15 72.2924 1415.79 73.0216 Q1412.46 73.7508 1408.7 73.7508 Q1398.45 73.7508 1392.41 67.3098 Q1386.38 60.8689 1386.38 49.9314 Q1386.38 38.832 1392.45 32.472 Q1398.57 26.1121 1409.18 26.1121 Q1412.63 26.1121 1415.91 26.8413 Q1419.19 27.5299 1422.27 28.9478 Z" fill="#000000" fill-rule="nonzero" fill-opacity="1" /><path clip-path="url(#clip590)" d="M1434.95 9.54393 L1442.44 9.54393 L1442.44 46.7717 L1464.68 27.2059 L1474.2 27.2059 L1450.14 48.4326 L1475.21 72.576 L1465.49 72.576 L1442.44 50.4176 L1442.44 72.576 L1434.95 72.576 L1434.95 9.54393 Z" fill="#000000" fill-rule="nonzero" fill-opacity="1" /><path clip-path="url(#clip590)" d="M1485.18 62.2867 L1493.73 62.2867 L1493.73 69.2543 L1487.08 82.2172 L1481.86 82.2172 L1485.18 69.2543 L1485.18 62.2867 Z" fill="#000000" fill-rule="nonzero" fill-opacity="1" /><path clip-path="url(#clip590)" d="M1531.68 27.2059 L1539.14 27.2059 L1548.45 62.6108 L1557.73 27.2059 L1566.52 27.2059 L1575.84 62.6108 L1585.11 27.2059 L1592.57 27.2059 L1580.7 72.576 L1571.91 72.576 L1562.15 35.3887 L1552.34 72.576 L1543.55 72.576 L1531.68 27.2059 Z" fill="#000000" fill-rule="nonzero" fill-opacity="1" /><path clip-path="url(#clip590)" d="M1603.87 27.2059 L1611.32 27.2059 L1611.32 72.576 L1603.87 72.576 L1603.87 27.2059 M1603.87 9.54393 L1611.32 9.54393 L1611.32 18.9825 L1603.87 18.9825 L1603.87 9.54393 Z" fill="#000000" fill-rule="nonzero" fill-opacity="1" /><path clip-path="url(#clip590)" d="M1656.77 34.0924 L1656.77 9.54393 L1664.23 9.54393 L1664.23 72.576 L1656.77 72.576 L1656.77 65.7705 Q1654.43 69.8214 1650.82 71.8063 Q1647.26 73.7508 1642.23 73.7508 Q1634.01 73.7508 1628.82 67.1883 Q1623.68 60.6258 1623.68 49.9314 Q1623.68 39.2371 1628.82 32.6746 Q1634.01 26.1121 1642.23 26.1121 Q1647.26 26.1121 1650.82 28.0971 Q1654.43 30.0415 1656.77 34.0924 M1631.38 49.9314 Q1631.38 58.1548 1634.74 62.8538 Q1638.14 67.5124 1644.06 67.5124 Q1649.97 67.5124 1653.37 62.8538 Q1656.77 58.1548 1656.77 49.9314 Q1656.77 41.7081 1653.37 37.0496 Q1649.97 32.3505 1644.06 32.3505 Q1638.14 32.3505 1634.74 37.0496 Q1631.38 41.7081 1631.38 49.9314 Z" fill="#000000" fill-rule="nonzero" fill-opacity="1" /><path clip-path="url(#clip590)" d="M1718.39 48.0275 L1718.39 51.6733 L1684.12 51.6733 Q1684.6 59.3701 1688.74 63.421 Q1692.91 67.4314 1700.32 67.4314 Q1704.62 67.4314 1708.63 66.3781 Q1712.68 65.3249 1716.65 63.2184 L1716.65 70.267 Q1712.64 71.9684 1708.42 72.8596 Q1704.21 73.7508 1699.88 73.7508 Q1689.02 73.7508 1682.66 67.4314 Q1676.34 61.1119 1676.34 50.3365 Q1676.34 39.1965 1682.34 32.6746 Q1688.37 26.1121 1698.58 26.1121 Q1707.74 26.1121 1713.04 32.0264 Q1718.39 37.9003 1718.39 48.0275 M1710.94 45.84 Q1710.85 39.7232 1707.49 36.0774 Q1704.17 32.4315 1698.66 32.4315 Q1692.42 32.4315 1688.66 35.9558 Q1684.93 39.4801 1684.36 45.8805 L1710.94 45.84 Z" fill="#000000" fill-rule="nonzero" fill-opacity="1" /><path clip-path="url(#clip590)" d="M1764.2 65.7705 L1764.2 89.8329 L1756.71 89.8329 L1756.71 27.2059 L1764.2 27.2059 L1764.2 34.0924 Q1766.55 30.0415 1770.12 28.0971 Q1773.72 26.1121 1778.71 26.1121 Q1786.97 26.1121 1792.12 32.6746 Q1797.3 39.2371 1797.3 49.9314 Q1797.3 60.6258 1792.12 67.1883 Q1786.97 73.7508 1778.71 73.7508 Q1773.72 73.7508 1770.12 71.8063 Q1766.55 69.8214 1764.2 65.7705 M1789.56 49.9314 Q1789.56 41.7081 1786.16 37.0496 Q1782.8 32.3505 1776.88 32.3505 Q1770.97 32.3505 1767.57 37.0496 Q1764.2 41.7081 1764.2 49.9314 Q1764.2 58.1548 1767.57 62.8538 Q1770.97 67.5124 1776.88 67.5124 Q1782.8 67.5124 1786.16 62.8538 Q1789.56 58.1548 1789.56 49.9314 Z" fill="#000000" fill-rule="nonzero" fill-opacity="1" /><path clip-path="url(#clip590)" d="M1835.95 34.1734 Q1834.69 33.4443 1833.19 33.1202 Q1831.73 32.7556 1829.95 32.7556 Q1823.63 32.7556 1820.23 36.8875 Q1816.87 40.9789 1816.87 48.6757 L1816.87 72.576 L1809.37 72.576 L1809.37 27.2059 L1816.87 27.2059 L1816.87 34.2544 Q1819.22 30.1225 1822.98 28.1376 Q1826.75 26.1121 1832.14 26.1121 Q1832.91 26.1121 1833.84 26.2337 Q1834.77 26.3147 1835.91 26.5172 L1835.95 34.1734 Z" fill="#000000" fill-rule="nonzero" fill-opacity="1" /><path clip-path="url(#clip590)" d="M1843.76 27.2059 L1851.22 27.2059 L1851.22 72.576 L1843.76 72.576 L1843.76 27.2059 M1843.76 9.54393 L1851.22 9.54393 L1851.22 18.9825 L1843.76 18.9825 L1843.76 9.54393 Z" fill="#000000" fill-rule="nonzero" fill-opacity="1" /><path clip-path="url(#clip590)" d="M1884.4 32.4315 Q1878.4 32.4315 1874.92 37.1306 Q1871.43 41.7891 1871.43 49.9314 Q1871.43 58.0738 1874.88 62.7728 Q1878.36 67.4314 1884.4 67.4314 Q1890.35 67.4314 1893.83 62.7323 Q1897.32 58.0333 1897.32 49.9314 Q1897.32 41.8701 1893.83 37.1711 Q1890.35 32.4315 1884.4 32.4315 M1884.4 26.1121 Q1894.12 26.1121 1899.67 32.4315 Q1905.22 38.7509 1905.22 49.9314 Q1905.22 61.0714 1899.67 67.4314 Q1894.12 73.7508 1884.4 73.7508 Q1874.63 73.7508 1869.08 67.4314 Q1863.57 61.0714 1863.57 49.9314 Q1863.57 38.7509 1869.08 32.4315 Q1874.63 26.1121 1884.4 26.1121 Z" fill="#000000" fill-rule="nonzero" fill-opacity="1" /><path clip-path="url(#clip590)" d="M1943.86 34.1734 Q1942.61 33.4443 1941.11 33.1202 Q1939.65 32.7556 1937.87 32.7556 Q1931.55 32.7556 1928.15 36.8875 Q1924.78 40.9789 1924.78 48.6757 L1924.78 72.576 L1917.29 72.576 L1917.29 27.2059 L1924.78 27.2059 L1924.78 34.2544 Q1927.13 30.1225 1930.9 28.1376 Q1934.67 26.1121 1940.05 26.1121 Q1940.82 26.1121 1941.76 26.2337 Q1942.69 26.3147 1943.82 26.5172 L1943.86 34.1734 Z" fill="#000000" fill-rule="nonzero" fill-opacity="1" /><path clip-path="url(#clip592)" d="M237.067 1386.1 L247.389 1385.43 L257.711 1383.01 L268.033 1375.84 L278.355 1357.4 L288.677 1316.09 L298.999 1235.79 L309.321 1100.99 L319.643 907.052 L329.965 671.121 L340.287 434.884 L350.609 252.56 L360.931 167.794 L371.252 193.364 L381.574 307.293 L391.896 466.97 L402.218 630.206 L412.54 769.881 L422.862 876.683 L433.184 953.463 L443.506 1007.84 L453.828 1047.22 L464.15 1077.01 L474.472 1100.57 L484.794 1119.91 L495.116 1136.23 L505.438 1150.3 L515.76 1162.61 L526.082 1173.52 L536.404 1183.26 L546.726 1192 L557.047 1199.86 L567.369 1206.94 L577.691 1213.32 L588.013 1219.07 L598.335 1224.27 L608.657 1229.02 L618.979 1233.4 L629.301 1237.47 L639.623 1241.3 L649.945 1244.89 L660.267 1248.28 L670.589 1251.47 L680.911 1254.48 L691.233 1257.32 L701.555 1259.99 L711.877 1262.51 L722.199 1264.87 L732.52 1267.07 L742.842 1269.09 L753.164 1270.97 L763.486 1272.73 L773.808 1274.39 L784.13 1275.99 L794.452 1277.52 L804.774 1278.99 L815.096 1280.39 L825.418 1281.71 L835.74 1282.95 L846.062 1284.11 L856.384 1285.19 L866.706 1286.21 L877.028 1287.19 L887.35 1288.14 L897.672 1289.09 L907.994 1290.02 L918.315 1290.96 L928.637 1291.89 L938.959 1292.81 L949.281 1293.7 L959.603 1294.55 L969.925 1295.34 L980.247 1296.06 L990.569 1296.7 L1000.89 1297.28 L1011.21 1297.8 L1021.53 1298.27 L1031.86 1298.69 L1042.18 1299.08 L1052.5 1299.45 L1062.82 1299.81 L1073.14 1300.19 L1083.47 1300.58 L1093.79 1300.97 L1104.11 1301.36 L1114.43 1301.74 L1124.75 1302.08 L1135.08 1302.4 L1145.4 1302.68 L1155.72 1302.9 L1166.04 1303.08 L1176.36 1303.21 L1186.69 1303.29 L1197.01 1303.34 L1207.33 1303.36 L1217.65 1303.38 L1227.97 1303.42 L1238.3 1303.47 L1248.62 1303.54 L1258.94 1303.6 L1269.26 1303.64 L1279.58 1303.63 L1289.91 1303.57 L1300.23 1303.46 L1310.55 1303.33 L1320.87 1303.19 L1331.19 1303.06 L1341.52 1302.93 L1351.84 1302.81 L1362.16 1302.67 L1372.48 1302.52 L1382.8 1302.32 L1393.12 1302.09 L1403.45 1301.83 L1413.77 1301.56 L1424.09 1301.28 L1434.41 1301 L1444.73 1300.72 L1455.06 1300.42 L1465.38 1300.11 L1475.7 1299.77 L1486.02 1299.38 L1496.34 1298.94 L1506.67 1298.44 L1516.99 1297.9 L1527.31 1297.34 L1537.63 1296.75 L1547.95 1296.14 L1558.28 1295.51 L1568.6 1294.85 L1578.92 1294.17 L1589.24 1293.45 L1599.56 1292.69 L1609.89 1291.88 L1620.21 1291.01 L1630.53 1290.08 L1640.85 1289.09 L1651.17 1288.05 L1661.5 1286.94 L1671.82 1285.77 L1682.14 1284.52 L1692.46 1283.21 L1702.78 1281.84 L1713.11 1280.41 L1723.43 1278.91 L1733.75 1277.34 L1744.07 1275.7 L1754.39 1273.98 L1764.71 1272.2 L1775.04 1270.36 L1785.36 1268.45 L1795.68 1266.44 L1806 1264.31 L1816.32 1262.04 L1826.65 1259.62 L1836.97 1257.04 L1847.29 1254.3 L1857.61 1251.37 L1867.93 1248.23 L1878.26 1244.86 L1888.58 1241.23 L1898.9 1237.32 L1909.22 1233.12 L1919.54 1228.6 L1929.87 1223.73 L1940.19 1218.47 L1950.51 1212.73 L1960.83 1206.45 L1971.15 1199.51 L1981.48 1191.83 L1991.8 1183.29 L2002.12 1173.78 L2012.44 1163.1 L2022.76 1150.99 L2033.09 1137.05 L2043.41 1120.73 L2053.73 1101.25 L2064.05 1077.44 L2074.37 1047.33 L2084.7 1007.56 L2095.02 952.733 L2105.34 875.349 L2115.66 767.696 L2125.98 626.864 L2136.3 462.235 L2146.63 301.164 L2156.95 186.19 L2167.27 160.256 L2177.59 245.486 L2187.91 428.973 L2198.24 666.735 L2208.56 904.166 L2218.88 1099.31 L2229.2 1234.92 L2239.52 1315.69 L2249.85 1357.24 L2260.17 1375.78 L2270.49 1382.99 L2280.81 1385.42 L2291.13 1386.1 L2291.13 1386.4 L2280.81 1386.4 L2270.49 1386.4 L2260.17 1386.4 L2249.85 1386.4 L2239.52 1386.4 L2229.2 1386.4 L2218.88 1386.4 L2208.56 1386.4 L2198.24 1386.4 L2187.91 1386.4 L2177.59 1386.4 L2167.27 1386.4 L2156.95 1386.4 L2146.63 1386.4 L2136.3 1386.4 L2125.98 1386.4 L2115.66 1386.4 L2105.34 1386.4 L2095.02 1386.4 L2084.7 1386.4 L2074.37 1386.4 L2064.05 1386.4 L2053.73 1386.4 L2043.41 1386.4 L2033.09 1386.4 L2022.76 1386.4 L2012.44 1386.4 L2002.12 1386.4 L1991.8 1386.4 L1981.48 1386.4 L1971.15 1386.4 L1960.83 1386.4 L1950.51 1386.4 L1940.19 1386.4 L1929.87 1386.4 L1919.54 1386.4 L1909.22 1386.4 L1898.9 1386.4 L1888.58 1386.4 L1878.26 1386.4 L1867.93 1386.4 L1857.61 1386.4 L1847.29 1386.4 L1836.97 1386.4 L1826.65 1386.4 L1816.32 1386.4 L1806 1386.4 L1795.68 1386.4 L1785.36 1386.4 L1775.04 1386.4 L1764.71 1386.4 L1754.39 1386.4 L1744.07 1386.4 L1733.75 1386.4 L1723.43 1386.4 L1713.11 1386.4 L1702.78 1386.4 L1692.46 1386.4 L1682.14 1386.4 L1671.82 1386.4 L1661.5 1386.4 L1651.17 1386.4 L1640.85 1386.4 L1630.53 1386.4 L1620.21 1386.4 L1609.89 1386.4 L1599.56 1386.4 L1589.24 1386.4 L1578.92 1386.4 L1568.6 1386.4 L1558.28 1386.4 L1547.95 1386.4 L1537.63 1386.4 L1527.31 1386.4 L1516.99 1386.4 L1506.67 1386.4 L1496.34 1386.4 L1486.02 1386.4 L1475.7 1386.4 L1465.38 1386.4 L1455.06 1386.4 L1444.73 1386.4 L1434.41 1386.4 L1424.09 1386.4 L1413.77 1386.4 L1403.45 1386.4 L1393.12 1386.4 L1382.8 1386.4 L1372.48 1386.4 L1362.16 1386.4 L1351.84 1386.4 L1341.52 1386.4 L1331.19 1386.4 L1320.87 1386.4 L1310.55 1386.4 L1300.23 1386.4 L1289.91 1386.4 L1279.58 1386.4 L1269.26 1386.4 L1258.94 1386.4 L1248.62 1386.4 L1238.3 1386.4 L1227.97 1386.4 L1217.65 1386.4 L1207.33 1386.4 L1197.01 1386.4 L1186.69 1386.4 L1176.36 1386.4 L1166.04 1386.4 L1155.72 1386.4 L1145.4 1386.4 L1135.08 1386.4 L1124.75 1386.4 L1114.43 1386.4 L1104.11 1386.4 L1093.79 1386.4 L1083.47 1386.4 L1073.14 1386.4 L1062.82 1386.4 L1052.5 1386.4 L1042.18 1386.4 L1031.86 1386.4 L1021.53 1386.4 L1011.21 1386.4 L1000.89 1386.4 L990.569 1386.4 L980.247 1386.4 L969.925 1386.4 L959.603 1386.4 L949.281 1386.4 L938.959 1386.4 L928.637 1386.4 L918.315 1386.4 L907.994 1386.4 L897.672 1386.4 L887.35 1386.4 L877.028 1386.4 L866.706 1386.4 L856.384 1386.4 L846.062 1386.4 L835.74 1386.4 L825.418 1386.4 L815.096 1386.4 L804.774 1386.4 L794.452 1386.4 L784.13 1386.4 L773.808 1386.4 L763.486 1386.4 L753.164 1386.4 L742.842 1386.4 L732.52 1386.4 L722.199 1386.4 L711.877 1386.4 L701.555 1386.4 L691.233 1386.4 L680.911 1386.4 L670.589 1386.4 L660.267 1386.4 L649.945 1386.4 L639.623 1386.4 L629.301 1386.4 L618.979 1386.4 L608.657 1386.4 L598.335 1386.4 L588.013 1386.4 L577.691 1386.4 L567.369 1386.4 L557.047 1386.4 L546.726 1386.4 L536.404 1386.4 L526.082 1386.4 L515.76 1386.4 L505.438 1386.4 L495.116 1386.4 L484.794 1386.4 L474.472 1386.4 L464.15 1386.4 L453.828 1386.4 L443.506 1386.4 L433.184 1386.4 L422.862 1386.4 L412.54 1386.4 L402.218 1386.4 L391.896 1386.4 L381.574 1386.4 L371.252 1386.4 L360.931 1386.4 L350.609 1386.4 L340.287 1386.4 L329.965 1386.4 L319.643 1386.4 L309.321 1386.4 L298.999 1386.4 L288.677 1386.4 L278.355 1386.4 L268.033 1386.4 L257.711 1386.4 L247.389 1386.4 L237.067 1386.4  Z" fill="#e26f46" fill-rule="evenodd" fill-opacity="0.2"/>
<polyline clip-path="url(#clip592)" style="stroke:#e26f46; stroke-linecap:round; stroke-linejoin:round; stroke-width:4; stroke-opacity:1; fill:none" points="237.067,1386.1 247.389,1385.43 257.711,1383.01 268.033,1375.84 278.355,1357.4 288.677,1316.09 298.999,1235.79 309.321,1100.99 319.643,907.052 329.965,671.121 340.287,434.884 350.609,252.56 360.931,167.794 371.252,193.364 381.574,307.293 391.896,466.97 402.218,630.206 412.54,769.881 422.862,876.683 433.184,953.463 443.506,1007.84 453.828,1047.22 464.15,1077.01 474.472,1100.57 484.794,1119.91 495.116,1136.23 505.438,1150.3 515.76,1162.61 526.082,1173.52 536.404,1183.26 546.726,1192 557.047,1199.86 567.369,1206.94 577.691,1213.32 588.013,1219.07 598.335,1224.27 608.657,1229.02 618.979,1233.4 629.301,1237.47 639.623,1241.3 649.945,1244.89 660.267,1248.28 670.589,1251.47 680.911,1254.48 691.233,1257.32 701.555,1259.99 711.877,1262.51 722.199,1264.87 732.52,1267.07 742.842,1269.09 753.164,1270.97 763.486,1272.73 773.808,1274.39 784.13,1275.99 794.452,1277.52 804.774,1278.99 815.096,1280.39 825.418,1281.71 835.74,1282.95 846.062,1284.11 856.384,1285.19 866.706,1286.21 877.028,1287.19 887.35,1288.14 897.672,1289.09 907.994,1290.02 918.315,1290.96 928.637,1291.89 938.959,1292.81 949.281,1293.7 959.603,1294.55 969.925,1295.34 980.247,1296.06 990.569,1296.7 1000.89,1297.28 1011.21,1297.8 1021.53,1298.27 1031.86,1298.69 1042.18,1299.08 1052.5,1299.45 1062.82,1299.81 1073.14,1300.19 1083.47,1300.58 1093.79,1300.97 1104.11,1301.36 1114.43,1301.74 1124.75,1302.08 1135.08,1302.4 1145.4,1302.68 1155.72,1302.9 1166.04,1303.08 1176.36,1303.21 1186.69,1303.29 1197.01,1303.34 1207.33,1303.36 1217.65,1303.38 1227.97,1303.42 1238.3,1303.47 1248.62,1303.54 1258.94,1303.6 1269.26,1303.64 1279.58,1303.63 1289.91,1303.57 1300.23,1303.46 1310.55,1303.33 1320.87,1303.19 1331.19,1303.06 1341.52,1302.93 1351.84,1302.81 1362.16,1302.67 1372.48,1302.52 1382.8,1302.32 1393.12,1302.09 1403.45,1301.83 1413.77,1301.56 1424.09,1301.28 1434.41,1301 1444.73,1300.72 1455.06,1300.42 1465.38,1300.11 1475.7,1299.77 1486.02,1299.38 1496.34,1298.94 1506.67,1298.44 1516.99,1297.9 1527.31,1297.34 1537.63,1296.75 1547.95,1296.14 1558.28,1295.51 1568.6,1294.85 1578.92,1294.17 1589.24,1293.45 1599.56,1292.69 1609.89,1291.88 1620.21,1291.01 1630.53,1290.08 1640.85,1289.09 1651.17,1288.05 1661.5,1286.94 1671.82,1285.77 1682.14,1284.52 1692.46,1283.21 1702.78,1281.84 1713.11,1280.41 1723.43,1278.91 1733.75,1277.34 1744.07,1275.7 1754.39,1273.98 1764.71,1272.2 1775.04,1270.36 1785.36,1268.45 1795.68,1266.44 1806,1264.31 1816.32,1262.04 1826.65,1259.62 1836.97,1257.04 1847.29,1254.3 1857.61,1251.37 1867.93,1248.23 1878.26,1244.86 1888.58,1241.23 1898.9,1237.32 1909.22,1233.12 1919.54,1228.6 1929.87,1223.73 1940.19,1218.47 1950.51,1212.73 1960.83,1206.45 1971.15,1199.51 1981.48,1191.83 1991.8,1183.29 2002.12,1173.78 2012.44,1163.1 2022.76,1150.99 2033.09,1137.05 2043.41,1120.73 2053.73,1101.25 2064.05,1077.44 2074.37,1047.33 2084.7,1007.56 2095.02,952.733 2105.34,875.349 2115.66,767.696 2125.98,626.864 2136.3,462.235 2146.63,301.164 2156.95,186.19 2167.27,160.256 2177.59,245.486 2187.91,428.973 2198.24,666.735 2208.56,904.166 2218.88,1099.31 2229.2,1234.92 2239.52,1315.69 2249.85,1357.24 2260.17,1375.78 2270.49,1382.99 2280.81,1385.42 2291.13,1386.1 "/>
</svg>
