<?xml version="1.0" encoding="utf-8"?>
<svg xmlns="http://www.w3.org/2000/svg" xmlns:xlink="http://www.w3.org/1999/xlink" width="600" height="400" viewBox="0 0 2400 1600">
<defs>
  <clipPath id="clip860">
    <rect x="0" y="0" width="2400" height="1600"/>
  </clipPath>
</defs>
<path clip-path="url(#clip860)" d="M0 1600 L2400 1600 L2400 0 L0 0  Z" fill="#ffffff" fill-rule="evenodd" fill-opacity="1"/>
<defs>
  <clipPath id="clip861">
    <rect x="480" y="0" width="1681" height="1600"/>
  </clipPath>
</defs>
<path clip-path="url(#clip860)" d="M249.542 1423.18 L2352.76 1423.18 L2352.76 123.472 L249.542 123.472  Z" fill="#ffffff" fill-rule="evenodd" fill-opacity="1"/>
<defs>
  <clipPath id="clip862">
    <rect x="249" y="123" width="2104" height="1301"/>
  </clipPath>
</defs>
<polyline clip-path="url(#clip862)" style="stroke:#000000; stroke-linecap:round; stroke-linejoin:round; stroke-width:2; stroke-opacity:0.1; fill:none" points="386.821,1423.18 386.821,123.472 "/>
<polyline clip-path="url(#clip862)" style="stroke:#000000; stroke-linecap:round; stroke-linejoin:round; stroke-width:2; stroke-opacity:0.1; fill:none" points="843.985,1423.18 843.985,123.472 "/>
<polyline clip-path="url(#clip862)" style="stroke:#000000; stroke-linecap:round; stroke-linejoin:round; stroke-width:2; stroke-opacity:0.1; fill:none" points="1301.15,1423.18 1301.15,123.472 "/>
<polyline clip-path="url(#clip862)" style="stroke:#000000; stroke-linecap:round; stroke-linejoin:round; stroke-width:2; stroke-opacity:0.1; fill:none" points="1758.31,1423.18 1758.31,123.472 "/>
<polyline clip-path="url(#clip862)" style="stroke:#000000; stroke-linecap:round; stroke-linejoin:round; stroke-width:2; stroke-opacity:0.1; fill:none" points="2215.48,1423.18 2215.48,123.472 "/>
<polyline clip-path="url(#clip860)" style="stroke:#000000; stroke-linecap:round; stroke-linejoin:round; stroke-width:4; stroke-opacity:1; fill:none" points="249.542,1423.18 2352.76,1423.18 "/>
<polyline clip-path="url(#clip860)" style="stroke:#000000; stroke-linecap:round; stroke-linejoin:round; stroke-width:4; stroke-opacity:1; fill:none" points="386.821,1423.18 386.821,1404.28 "/>
<polyline clip-path="url(#clip860)" style="stroke:#000000; stroke-linecap:round; stroke-linejoin:round; stroke-width:4; stroke-opacity:1; fill:none" points="843.985,1423.18 843.985,1404.28 "/>
<polyline clip-path="url(#clip860)" style="stroke:#000000; stroke-linecap:round; stroke-linejoin:round; stroke-width:4; stroke-opacity:1; fill:none" points="1301.15,1423.18 1301.15,1404.28 "/>
<polyline clip-path="url(#clip860)" style="stroke:#000000; stroke-linecap:round; stroke-linejoin:round; stroke-width:4; stroke-opacity:1; fill:none" points="1758.31,1423.18 1758.31,1404.28 "/>
<polyline clip-path="url(#clip860)" style="stroke:#000000; stroke-linecap:round; stroke-linejoin:round; stroke-width:4; stroke-opacity:1; fill:none" points="2215.48,1423.18 2215.48,1404.28 "/>
<path clip-path="url(#clip860)" d="M349.125 1454.1 Q345.514 1454.1 343.685 1457.66 Q341.879 1461.2 341.879 1468.33 Q341.879 1475.44 343.685 1479.01 Q345.514 1482.55 349.125 1482.55 Q352.759 1482.55 354.564 1479.01 Q356.393 1475.44 356.393 1468.33 Q356.393 1461.2 354.564 1457.66 Q352.759 1454.1 349.125 1454.1 M349.125 1450.39 Q354.935 1450.39 357.99 1455 Q361.069 1459.58 361.069 1468.33 Q361.069 1477.06 357.99 1481.67 Q354.935 1486.25 349.125 1486.25 Q343.314 1486.25 340.236 1481.67 Q337.18 1477.06 337.18 1468.33 Q337.18 1459.58 340.236 1455 Q343.314 1450.39 349.125 1450.39 Z" fill="#000000" fill-rule="nonzero" fill-opacity="1" /><path clip-path="url(#clip860)" d="M369.287 1479.7 L374.171 1479.7 L374.171 1485.58 L369.287 1485.58 L369.287 1479.7 Z" fill="#000000" fill-rule="nonzero" fill-opacity="1" /><path clip-path="url(#clip860)" d="M394.356 1454.1 Q390.745 1454.1 388.916 1457.66 Q387.111 1461.2 387.111 1468.33 Q387.111 1475.44 388.916 1479.01 Q390.745 1482.55 394.356 1482.55 Q397.99 1482.55 399.796 1479.01 Q401.624 1475.44 401.624 1468.33 Q401.624 1461.2 399.796 1457.66 Q397.99 1454.1 394.356 1454.1 M394.356 1450.39 Q400.166 1450.39 403.222 1455 Q406.3 1459.58 406.3 1468.33 Q406.3 1477.06 403.222 1481.67 Q400.166 1486.25 394.356 1486.25 Q388.546 1486.25 385.467 1481.67 Q382.411 1477.06 382.411 1468.33 Q382.411 1459.58 385.467 1455 Q388.546 1450.39 394.356 1450.39 Z" fill="#000000" fill-rule="nonzero" fill-opacity="1" /><path clip-path="url(#clip860)" d="M424.518 1454.1 Q420.907 1454.1 419.078 1457.66 Q417.272 1461.2 417.272 1468.33 Q417.272 1475.44 419.078 1479.01 Q420.907 1482.55 424.518 1482.55 Q428.152 1482.55 429.958 1479.01 Q431.786 1475.44 431.786 1468.33 Q431.786 1461.2 429.958 1457.66 Q428.152 1454.1 424.518 1454.1 M424.518 1450.39 Q430.328 1450.39 433.383 1455 Q436.462 1459.58 436.462 1468.33 Q436.462 1477.06 433.383 1481.67 Q430.328 1486.25 424.518 1486.25 Q418.708 1486.25 415.629 1481.67 Q412.573 1477.06 412.573 1468.33 Q412.573 1459.58 415.629 1455 Q418.708 1450.39 424.518 1450.39 Z" fill="#000000" fill-rule="nonzero" fill-opacity="1" /><path clip-path="url(#clip860)" d="M806.786 1454.1 Q803.175 1454.1 801.346 1457.66 Q799.541 1461.2 799.541 1468.33 Q799.541 1475.44 801.346 1479.01 Q803.175 1482.55 806.786 1482.55 Q810.42 1482.55 812.226 1479.01 Q814.055 1475.44 814.055 1468.33 Q814.055 1461.2 812.226 1457.66 Q810.42 1454.1 806.786 1454.1 M806.786 1450.39 Q812.596 1450.39 815.652 1455 Q818.731 1459.58 818.731 1468.33 Q818.731 1477.06 815.652 1481.67 Q812.596 1486.25 806.786 1486.25 Q800.976 1486.25 797.897 1481.67 Q794.842 1477.06 794.842 1468.33 Q794.842 1459.58 797.897 1455 Q800.976 1450.39 806.786 1450.39 Z" fill="#000000" fill-rule="nonzero" fill-opacity="1" /><path clip-path="url(#clip860)" d="M826.948 1479.7 L831.832 1479.7 L831.832 1485.58 L826.948 1485.58 L826.948 1479.7 Z" fill="#000000" fill-rule="nonzero" fill-opacity="1" /><path clip-path="url(#clip860)" d="M846.045 1481.64 L862.365 1481.64 L862.365 1485.58 L840.42 1485.58 L840.42 1481.64 Q843.082 1478.89 847.666 1474.26 Q852.272 1469.61 853.453 1468.27 Q855.698 1465.74 856.578 1464.01 Q857.48 1462.25 857.48 1460.56 Q857.48 1457.8 855.536 1456.07 Q853.615 1454.33 850.513 1454.33 Q848.314 1454.33 845.86 1455.09 Q843.43 1455.86 840.652 1457.41 L840.652 1452.69 Q843.476 1451.55 845.93 1450.97 Q848.383 1450.39 850.42 1450.39 Q855.791 1450.39 858.985 1453.08 Q862.179 1455.77 862.179 1460.26 Q862.179 1462.39 861.369 1464.31 Q860.582 1466.2 858.476 1468.8 Q857.897 1469.47 854.795 1472.69 Q851.693 1475.88 846.045 1481.64 Z" fill="#000000" fill-rule="nonzero" fill-opacity="1" /><path clip-path="url(#clip860)" d="M872.226 1451.02 L890.582 1451.02 L890.582 1454.96 L876.508 1454.96 L876.508 1463.43 Q877.527 1463.08 878.545 1462.92 Q879.564 1462.73 880.582 1462.73 Q886.369 1462.73 889.749 1465.9 Q893.128 1469.08 893.128 1474.49 Q893.128 1480.07 889.656 1483.17 Q886.184 1486.25 879.865 1486.25 Q877.689 1486.25 875.42 1485.88 Q873.175 1485.51 870.767 1484.77 L870.767 1480.07 Q872.851 1481.2 875.073 1481.76 Q877.295 1482.32 879.772 1482.32 Q883.777 1482.32 886.114 1480.21 Q888.452 1478.1 888.452 1474.49 Q888.452 1470.88 886.114 1468.77 Q883.777 1466.67 879.772 1466.67 Q877.897 1466.67 876.022 1467.08 Q874.17 1467.5 872.226 1468.38 L872.226 1451.02 Z" fill="#000000" fill-rule="nonzero" fill-opacity="1" /><path clip-path="url(#clip860)" d="M1263.45 1454.1 Q1259.84 1454.1 1258.01 1457.66 Q1256.21 1461.2 1256.21 1468.33 Q1256.21 1475.44 1258.01 1479.01 Q1259.84 1482.55 1263.45 1482.55 Q1267.09 1482.55 1268.89 1479.01 Q1270.72 1475.44 1270.72 1468.33 Q1270.72 1461.2 1268.89 1457.66 Q1267.09 1454.1 1263.45 1454.1 M1263.45 1450.39 Q1269.26 1450.39 1272.32 1455 Q1275.4 1459.58 1275.4 1468.33 Q1275.4 1477.06 1272.32 1481.67 Q1269.26 1486.25 1263.45 1486.25 Q1257.64 1486.25 1254.56 1481.67 Q1251.51 1477.06 1251.51 1468.33 Q1251.51 1459.58 1254.56 1455 Q1257.64 1450.39 1263.45 1450.39 Z" fill="#000000" fill-rule="nonzero" fill-opacity="1" /><path clip-path="url(#clip860)" d="M1283.61 1479.7 L1288.5 1479.7 L1288.5 1485.58 L1283.61 1485.58 L1283.61 1479.7 Z" fill="#000000" fill-rule="nonzero" fill-opacity="1" /><path clip-path="url(#clip860)" d="M1298.73 1451.02 L1317.09 1451.02 L1317.09 1454.96 L1303.01 1454.96 L1303.01 1463.43 Q1304.03 1463.08 1305.05 1462.92 Q1306.07 1462.73 1307.09 1462.73 Q1312.87 1462.73 1316.25 1465.9 Q1319.63 1469.08 1319.63 1474.49 Q1319.63 1480.07 1316.16 1483.17 Q1312.69 1486.25 1306.37 1486.25 Q1304.19 1486.25 1301.92 1485.88 Q1299.68 1485.51 1297.27 1484.77 L1297.27 1480.07 Q1299.35 1481.2 1301.58 1481.76 Q1303.8 1482.32 1306.28 1482.32 Q1310.28 1482.32 1312.62 1480.21 Q1314.96 1478.1 1314.96 1474.49 Q1314.96 1470.88 1312.62 1468.77 Q1310.28 1466.67 1306.28 1466.67 Q1304.4 1466.67 1302.53 1467.08 Q1300.67 1467.5 1298.73 1468.38 L1298.73 1451.02 Z" fill="#000000" fill-rule="nonzero" fill-opacity="1" /><path clip-path="url(#clip860)" d="M1338.85 1454.1 Q1335.23 1454.1 1333.41 1457.66 Q1331.6 1461.2 1331.6 1468.33 Q1331.6 1475.44 1333.41 1479.01 Q1335.23 1482.55 1338.85 1482.55 Q1342.48 1482.55 1344.29 1479.01 Q1346.11 1475.44 1346.11 1468.33 Q1346.11 1461.2 1344.29 1457.66 Q1342.48 1454.1 1338.85 1454.1 M1338.85 1450.39 Q1344.66 1450.39 1347.71 1455 Q1350.79 1459.58 1350.79 1468.33 Q1350.79 1477.06 1347.71 1481.67 Q1344.66 1486.25 1338.85 1486.25 Q1333.04 1486.25 1329.96 1481.67 Q1326.9 1477.06 1326.9 1468.33 Q1326.9 1459.58 1329.96 1455 Q1333.04 1450.39 1338.85 1450.39 Z" fill="#000000" fill-rule="nonzero" fill-opacity="1" /><path clip-path="url(#clip860)" d="M1721.11 1454.1 Q1717.5 1454.1 1715.67 1457.66 Q1713.87 1461.2 1713.87 1468.33 Q1713.87 1475.44 1715.67 1479.01 Q1717.5 1482.55 1721.11 1482.55 Q1724.75 1482.55 1726.55 1479.01 Q1728.38 1475.44 1728.38 1468.33 Q1728.38 1461.2 1726.55 1457.66 Q1724.75 1454.1 1721.11 1454.1 M1721.11 1450.39 Q1726.92 1450.39 1729.98 1455 Q1733.06 1459.58 1733.06 1468.33 Q1733.06 1477.06 1729.98 1481.67 Q1726.92 1486.25 1721.11 1486.25 Q1715.3 1486.25 1712.23 1481.67 Q1709.17 1477.06 1709.17 1468.33 Q1709.17 1459.58 1712.23 1455 Q1715.3 1450.39 1721.11 1450.39 Z" fill="#000000" fill-rule="nonzero" fill-opacity="1" /><path clip-path="url(#clip860)" d="M1741.28 1479.7 L1746.16 1479.7 L1746.16 1485.58 L1741.28 1485.58 L1741.28 1479.7 Z" fill="#000000" fill-rule="nonzero" fill-opacity="1" /><path clip-path="url(#clip860)" d="M1755.16 1451.02 L1777.39 1451.02 L1777.39 1453.01 L1764.84 1485.58 L1759.96 1485.58 L1771.76 1454.96 L1755.16 1454.96 L1755.16 1451.02 Z" fill="#000000" fill-rule="nonzero" fill-opacity="1" /><path clip-path="url(#clip860)" d="M1786.55 1451.02 L1804.91 1451.02 L1804.91 1454.96 L1790.84 1454.96 L1790.84 1463.43 Q1791.85 1463.08 1792.87 1462.92 Q1793.89 1462.73 1794.91 1462.73 Q1800.7 1462.73 1804.08 1465.9 Q1807.46 1469.08 1807.46 1474.49 Q1807.46 1480.07 1803.98 1483.17 Q1800.51 1486.25 1794.19 1486.25 Q1792.02 1486.25 1789.75 1485.88 Q1787.5 1485.51 1785.1 1484.77 L1785.1 1480.07 Q1787.18 1481.2 1789.4 1481.76 Q1791.62 1482.32 1794.1 1482.32 Q1798.1 1482.32 1800.44 1480.21 Q1802.78 1478.1 1802.78 1474.49 Q1802.78 1470.88 1800.44 1468.77 Q1798.1 1466.67 1794.1 1466.67 Q1792.22 1466.67 1790.35 1467.08 Q1788.5 1467.5 1786.55 1468.38 L1786.55 1451.02 Z" fill="#000000" fill-rule="nonzero" fill-opacity="1" /><path clip-path="url(#clip860)" d="M2167.55 1481.64 L2175.19 1481.64 L2175.19 1455.28 L2166.88 1456.95 L2166.88 1452.69 L2175.14 1451.02 L2179.82 1451.02 L2179.82 1481.64 L2187.46 1481.64 L2187.46 1485.58 L2167.55 1485.58 L2167.55 1481.64 Z" fill="#000000" fill-rule="nonzero" fill-opacity="1" /><path clip-path="url(#clip860)" d="M2196.9 1479.7 L2201.78 1479.7 L2201.78 1485.58 L2196.9 1485.58 L2196.9 1479.7 Z" fill="#000000" fill-rule="nonzero" fill-opacity="1" /><path clip-path="url(#clip860)" d="M2221.97 1454.1 Q2218.36 1454.1 2216.53 1457.66 Q2214.72 1461.2 2214.72 1468.33 Q2214.72 1475.44 2216.53 1479.01 Q2218.36 1482.55 2221.97 1482.55 Q2225.6 1482.55 2227.41 1479.01 Q2229.24 1475.44 2229.24 1468.33 Q2229.24 1461.2 2227.41 1457.66 Q2225.6 1454.1 2221.97 1454.1 M2221.97 1450.39 Q2227.78 1450.39 2230.84 1455 Q2233.91 1459.58 2233.91 1468.33 Q2233.91 1477.06 2230.84 1481.67 Q2227.78 1486.25 2221.97 1486.25 Q2216.16 1486.25 2213.08 1481.67 Q2210.03 1477.06 2210.03 1468.33 Q2210.03 1459.58 2213.08 1455 Q2216.16 1450.39 2221.97 1450.39 Z" fill="#000000" fill-rule="nonzero" fill-opacity="1" /><path clip-path="url(#clip860)" d="M2252.13 1454.1 Q2248.52 1454.1 2246.69 1457.66 Q2244.89 1461.2 2244.89 1468.33 Q2244.89 1475.44 2246.69 1479.01 Q2248.52 1482.55 2252.13 1482.55 Q2255.77 1482.55 2257.57 1479.01 Q2259.4 1475.44 2259.4 1468.33 Q2259.4 1461.2 2257.57 1457.66 Q2255.77 1454.1 2252.13 1454.1 M2252.13 1450.39 Q2257.94 1450.39 2261 1455 Q2264.08 1459.58 2264.08 1468.33 Q2264.08 1477.06 2261 1481.67 Q2257.94 1486.25 2252.13 1486.25 Q2246.32 1486.25 2243.24 1481.67 Q2240.19 1477.06 2240.19 1468.33 Q2240.19 1459.58 2243.24 1455 Q2246.32 1450.39 2252.13 1450.39 Z" fill="#000000" fill-rule="nonzero" fill-opacity="1" /><path clip-path="url(#clip860)" d="M939.004 1525.81 L939.004 1543.66 L947.088 1543.66 Q951.576 1543.66 954.027 1541.34 Q956.478 1539.02 956.478 1534.72 Q956.478 1530.45 954.027 1528.13 Q951.576 1525.81 947.088 1525.81 L939.004 1525.81 M932.575 1520.52 L947.088 1520.52 Q955.077 1520.52 959.151 1524.15 Q963.257 1527.75 963.257 1534.72 Q963.257 1541.75 959.151 1545.35 Q955.077 1548.95 947.088 1548.95 L939.004 1548.95 L939.004 1568.04 L932.575 1568.04 L932.575 1520.52 Z" fill="#000000" fill-rule="nonzero" fill-opacity="1" /><path clip-path="url(#clip860)" d="M991.139 1537.87 Q990.152 1537.3 988.975 1537.04 Q987.829 1536.76 986.428 1536.76 Q981.463 1536.76 978.79 1540 Q976.148 1543.22 976.148 1549.27 L976.148 1568.04 L970.26 1568.04 L970.26 1532.4 L976.148 1532.4 L976.148 1537.93 Q977.994 1534.69 980.954 1533.13 Q983.914 1531.54 988.147 1531.54 Q988.752 1531.54 989.484 1531.63 Q990.216 1531.7 991.107 1531.85 L991.139 1537.87 Z" fill="#000000" fill-rule="nonzero" fill-opacity="1" /><path clip-path="url(#clip860)" d="M1009.66 1536.5 Q1004.95 1536.5 1002.22 1540.19 Q999.478 1543.85 999.478 1550.25 Q999.478 1556.65 1002.18 1560.34 Q1004.92 1564 1009.66 1564 Q1014.34 1564 1017.08 1560.31 Q1019.82 1556.62 1019.82 1550.25 Q1019.82 1543.92 1017.08 1540.23 Q1014.34 1536.5 1009.66 1536.5 M1009.66 1531.54 Q1017.3 1531.54 1021.66 1536.5 Q1026.02 1541.47 1026.02 1550.25 Q1026.02 1559 1021.66 1564 Q1017.3 1568.97 1009.66 1568.97 Q1001.99 1568.97 997.632 1564 Q993.303 1559 993.303 1550.25 Q993.303 1541.47 997.632 1536.5 Q1001.99 1531.54 1009.66 1531.54 Z" fill="#000000" fill-rule="nonzero" fill-opacity="1" /><path clip-path="url(#clip860)" d="M1061.32 1550.25 Q1061.32 1543.79 1058.65 1540.13 Q1056.01 1536.44 1051.36 1536.44 Q1046.71 1536.44 1044.04 1540.13 Q1041.4 1543.79 1041.4 1550.25 Q1041.4 1556.71 1044.04 1560.4 Q1046.71 1564.07 1051.36 1564.07 Q1056.01 1564.07 1058.65 1560.4 Q1061.32 1556.71 1061.32 1550.25 M1041.4 1537.81 Q1043.24 1534.62 1046.04 1533.1 Q1048.88 1531.54 1052.79 1531.54 Q1059.28 1531.54 1063.33 1536.69 Q1067.4 1541.85 1067.4 1550.25 Q1067.4 1558.65 1063.33 1563.81 Q1059.28 1568.97 1052.79 1568.97 Q1048.88 1568.97 1046.04 1567.44 Q1043.24 1565.88 1041.4 1562.7 L1041.4 1568.04 L1035.51 1568.04 L1035.51 1518.52 L1041.4 1518.52 L1041.4 1537.81 Z" fill="#000000" fill-rule="nonzero" fill-opacity="1" /><path clip-path="url(#clip860)" d="M1093.31 1550.12 Q1086.21 1550.12 1083.47 1551.75 Q1080.74 1553.37 1080.74 1557.29 Q1080.74 1560.4 1082.77 1562.25 Q1084.84 1564.07 1088.38 1564.07 Q1093.24 1564.07 1096.17 1560.63 Q1099.13 1557.16 1099.13 1551.43 L1099.13 1550.12 L1093.31 1550.12 M1104.99 1547.71 L1104.99 1568.04 L1099.13 1568.04 L1099.13 1562.63 Q1097.13 1565.88 1094.14 1567.44 Q1091.14 1568.97 1086.82 1568.97 Q1081.34 1568.97 1078.09 1565.91 Q1074.88 1562.82 1074.88 1557.67 Q1074.88 1551.65 1078.89 1548.6 Q1082.93 1545.54 1090.92 1545.54 L1099.13 1545.54 L1099.13 1544.97 Q1099.13 1540.93 1096.46 1538.73 Q1093.82 1536.5 1089.01 1536.5 Q1085.96 1536.5 1083.06 1537.23 Q1080.16 1537.97 1077.49 1539.43 L1077.49 1534.02 Q1080.7 1532.78 1083.73 1532.17 Q1086.75 1531.54 1089.62 1531.54 Q1097.35 1531.54 1101.17 1535.55 Q1104.99 1539.56 1104.99 1547.71 Z" fill="#000000" fill-rule="nonzero" fill-opacity="1" /><path clip-path="url(#clip860)" d="M1142.64 1550.25 Q1142.64 1543.79 1139.97 1540.13 Q1137.33 1536.44 1132.68 1536.44 Q1128.03 1536.44 1125.36 1540.13 Q1122.72 1543.79 1122.72 1550.25 Q1122.72 1556.71 1125.36 1560.4 Q1128.03 1564.07 1132.68 1564.07 Q1137.33 1564.07 1139.97 1560.4 Q1142.64 1556.71 1142.64 1550.25 M1122.72 1537.81 Q1124.56 1534.62 1127.37 1533.1 Q1130.2 1531.54 1134.11 1531.54 Q1140.61 1531.54 1144.65 1536.69 Q1148.72 1541.85 1148.72 1550.25 Q1148.72 1558.65 1144.65 1563.81 Q1140.61 1568.97 1134.11 1568.97 Q1130.2 1568.97 1127.37 1567.44 Q1124.56 1565.88 1122.72 1562.7 L1122.72 1568.04 L1116.83 1568.04 L1116.83 1518.52 L1122.72 1518.52 L1122.72 1537.81 Z" fill="#000000" fill-rule="nonzero" fill-opacity="1" /><path clip-path="url(#clip860)" d="M1158.43 1532.4 L1164.29 1532.4 L1164.29 1568.04 L1158.43 1568.04 L1158.43 1532.4 M1158.43 1518.52 L1164.29 1518.52 L1164.29 1525.93 L1158.43 1525.93 L1158.43 1518.52 Z" fill="#000000" fill-rule="nonzero" fill-opacity="1" /><path clip-path="url(#clip860)" d="M1176.54 1518.52 L1182.4 1518.52 L1182.4 1568.04 L1176.54 1568.04 L1176.54 1518.52 Z" fill="#000000" fill-rule="nonzero" fill-opacity="1" /><path clip-path="url(#clip860)" d="M1194.65 1532.4 L1200.51 1532.4 L1200.51 1568.04 L1194.65 1568.04 L1194.65 1532.4 M1194.65 1518.52 L1200.51 1518.52 L1200.51 1525.93 L1194.65 1525.93 L1194.65 1518.52 Z" fill="#000000" fill-rule="nonzero" fill-opacity="1" /><path clip-path="url(#clip860)" d="M1218.55 1522.27 L1218.55 1532.4 L1230.62 1532.4 L1230.62 1536.95 L1218.55 1536.95 L1218.55 1556.3 Q1218.55 1560.66 1219.73 1561.9 Q1220.94 1563.14 1224.6 1563.14 L1230.62 1563.14 L1230.62 1568.04 L1224.6 1568.04 Q1217.82 1568.04 1215.24 1565.53 Q1212.67 1562.98 1212.67 1556.3 L1212.67 1536.95 L1208.37 1536.95 L1208.37 1532.4 L1212.67 1532.4 L1212.67 1522.27 L1218.55 1522.27 Z" fill="#000000" fill-rule="nonzero" fill-opacity="1" /><path clip-path="url(#clip860)" d="M1253.15 1571.35 Q1250.67 1577.72 1248.31 1579.66 Q1245.96 1581.6 1242.01 1581.6 L1237.33 1581.6 L1237.33 1576.7 L1240.77 1576.7 Q1243.19 1576.7 1244.53 1575.56 Q1245.86 1574.41 1247.49 1570.14 L1248.54 1567.47 L1234.12 1532.4 L1240.32 1532.4 L1251.46 1560.28 L1262.6 1532.4 L1268.81 1532.4 L1253.15 1571.35 Z" fill="#000000" fill-rule="nonzero" fill-opacity="1" /><path clip-path="url(#clip860)" d="M1311.43 1536.5 Q1306.72 1536.5 1303.98 1540.19 Q1301.24 1543.85 1301.24 1550.25 Q1301.24 1556.65 1303.95 1560.34 Q1306.69 1564 1311.43 1564 Q1316.11 1564 1318.85 1560.31 Q1321.58 1556.62 1321.58 1550.25 Q1321.58 1543.92 1318.85 1540.23 Q1316.11 1536.5 1311.43 1536.5 M1311.43 1531.54 Q1319.07 1531.54 1323.43 1536.5 Q1327.79 1541.47 1327.79 1550.25 Q1327.79 1559 1323.43 1564 Q1319.07 1568.97 1311.43 1568.97 Q1303.76 1568.97 1299.4 1564 Q1295.07 1559 1295.07 1550.25 Q1295.07 1541.47 1299.4 1536.5 Q1303.76 1531.54 1311.43 1531.54 Z" fill="#000000" fill-rule="nonzero" fill-opacity="1" /><path clip-path="url(#clip860)" d="M1355.54 1518.52 L1355.54 1523.39 L1349.94 1523.39 Q1346.79 1523.39 1345.55 1524.66 Q1344.34 1525.93 1344.34 1529.24 L1344.34 1532.4 L1353.98 1532.4 L1353.98 1536.95 L1344.34 1536.95 L1344.34 1568.04 L1338.45 1568.04 L1338.45 1536.95 L1332.85 1536.95 L1332.85 1532.4 L1338.45 1532.4 L1338.45 1529.91 Q1338.45 1523.96 1341.22 1521.26 Q1343.99 1518.52 1350.01 1518.52 L1355.54 1518.52 Z" fill="#000000" fill-rule="nonzero" fill-opacity="1" /><path clip-path="url(#clip860)" d="M1386.83 1562.7 L1386.83 1581.6 L1380.94 1581.6 L1380.94 1532.4 L1386.83 1532.4 L1386.83 1537.81 Q1388.68 1534.62 1391.48 1533.1 Q1394.31 1531.54 1398.23 1531.54 Q1404.72 1531.54 1408.76 1536.69 Q1412.84 1541.85 1412.84 1550.25 Q1412.84 1558.65 1408.76 1563.81 Q1404.72 1568.97 1398.23 1568.97 Q1394.31 1568.97 1391.48 1567.44 Q1388.68 1565.88 1386.83 1562.7 M1406.76 1550.25 Q1406.76 1543.79 1404.08 1540.13 Q1401.44 1536.44 1396.79 1536.44 Q1392.15 1536.44 1389.47 1540.13 Q1386.83 1543.79 1386.83 1550.25 Q1386.83 1556.71 1389.47 1560.4 Q1392.15 1564.07 1396.79 1564.07 Q1401.44 1564.07 1404.08 1560.4 Q1406.76 1556.71 1406.76 1550.25 Z" fill="#000000" fill-rule="nonzero" fill-opacity="1" /><path clip-path="url(#clip860)" d="M1443.2 1537.87 Q1442.21 1537.3 1441.04 1537.04 Q1439.89 1536.76 1438.49 1536.76 Q1433.52 1536.76 1430.85 1540 Q1428.21 1543.22 1428.21 1549.27 L1428.21 1568.04 L1422.32 1568.04 L1422.32 1532.4 L1428.21 1532.4 L1428.21 1537.93 Q1430.05 1534.69 1433.01 1533.13 Q1435.97 1531.54 1440.21 1531.54 Q1440.81 1531.54 1441.54 1531.63 Q1442.28 1531.7 1443.17 1531.85 L1443.2 1537.87 Z" fill="#000000" fill-rule="nonzero" fill-opacity="1" /><path clip-path="url(#clip860)" d="M1478.4 1548.76 L1478.4 1551.62 L1451.48 1551.62 Q1451.86 1557.67 1455.1 1560.85 Q1458.38 1564 1464.21 1564 Q1467.58 1564 1470.73 1563.17 Q1473.91 1562.35 1477.03 1560.69 L1477.03 1566.23 Q1473.88 1567.57 1470.57 1568.27 Q1467.26 1568.97 1463.86 1568.97 Q1455.33 1568.97 1450.33 1564 Q1445.36 1559.04 1445.36 1550.57 Q1445.36 1541.82 1450.07 1536.69 Q1454.82 1531.54 1462.84 1531.54 Q1470.03 1531.54 1474.2 1536.18 Q1478.4 1540.8 1478.4 1548.76 M1472.55 1547.04 Q1472.48 1542.23 1469.84 1539.37 Q1467.23 1536.5 1462.9 1536.5 Q1458 1536.5 1455.04 1539.27 Q1452.11 1542.04 1451.67 1547.07 L1472.55 1547.04 Z" fill="#000000" fill-rule="nonzero" fill-opacity="1" /><path clip-path="url(#clip860)" d="M1510.74 1533.45 L1510.74 1538.98 Q1508.26 1537.71 1505.58 1537.07 Q1502.91 1536.44 1500.05 1536.44 Q1495.68 1536.44 1493.49 1537.77 Q1491.32 1539.11 1491.32 1541.79 Q1491.32 1543.82 1492.88 1545 Q1494.44 1546.15 1499.15 1547.2 L1501.16 1547.64 Q1507.4 1548.98 1510.01 1551.43 Q1512.65 1553.85 1512.65 1558.21 Q1512.65 1563.17 1508.7 1566.07 Q1504.79 1568.97 1497.91 1568.97 Q1495.05 1568.97 1491.93 1568.39 Q1488.84 1567.85 1485.4 1566.74 L1485.4 1560.69 Q1488.65 1562.38 1491.8 1563.24 Q1494.95 1564.07 1498.04 1564.07 Q1502.18 1564.07 1504.41 1562.66 Q1506.63 1561.23 1506.63 1558.65 Q1506.63 1556.27 1505.01 1554.99 Q1503.42 1553.72 1497.98 1552.54 L1495.94 1552.07 Q1490.5 1550.92 1488.08 1548.56 Q1485.66 1546.18 1485.66 1542.04 Q1485.66 1537.01 1489.22 1534.27 Q1492.79 1531.54 1499.35 1531.54 Q1502.59 1531.54 1505.46 1532.01 Q1508.32 1532.49 1510.74 1533.45 Z" fill="#000000" fill-rule="nonzero" fill-opacity="1" /><path clip-path="url(#clip860)" d="M1552.47 1548.76 L1552.47 1551.62 L1525.54 1551.62 Q1525.92 1557.67 1529.17 1560.85 Q1532.45 1564 1538.27 1564 Q1541.65 1564 1544.8 1563.17 Q1547.98 1562.35 1551.1 1560.69 L1551.1 1566.23 Q1547.95 1567.57 1544.64 1568.27 Q1541.33 1568.97 1537.92 1568.97 Q1529.39 1568.97 1524.39 1564 Q1519.43 1559.04 1519.43 1550.57 Q1519.43 1541.82 1524.14 1536.69 Q1528.88 1531.54 1536.9 1531.54 Q1544.1 1531.54 1548.27 1536.18 Q1552.47 1540.8 1552.47 1548.76 M1546.61 1547.04 Q1546.55 1542.23 1543.91 1539.37 Q1541.3 1536.5 1536.97 1536.5 Q1532.06 1536.5 1529.1 1539.27 Q1526.18 1542.04 1525.73 1547.07 L1546.61 1547.04 Z" fill="#000000" fill-rule="nonzero" fill-opacity="1" /><path clip-path="url(#clip860)" d="M1591.71 1546.53 L1591.71 1568.04 L1585.86 1568.04 L1585.86 1546.72 Q1585.86 1541.66 1583.88 1539.14 Q1581.91 1536.63 1577.96 1536.63 Q1573.22 1536.63 1570.48 1539.65 Q1567.74 1542.68 1567.74 1547.9 L1567.74 1568.04 L1561.86 1568.04 L1561.86 1532.4 L1567.74 1532.4 L1567.74 1537.93 Q1569.85 1534.72 1572.68 1533.13 Q1575.54 1531.54 1579.27 1531.54 Q1585.41 1531.54 1588.56 1535.36 Q1591.71 1539.14 1591.71 1546.53 Z" fill="#000000" fill-rule="nonzero" fill-opacity="1" /><path clip-path="url(#clip860)" d="M1629.05 1533.76 L1629.05 1539.24 Q1626.56 1537.87 1624.05 1537.2 Q1621.57 1536.5 1619.02 1536.5 Q1613.32 1536.5 1610.17 1540.13 Q1607.02 1543.73 1607.02 1550.25 Q1607.02 1556.78 1610.17 1560.4 Q1613.32 1564 1619.02 1564 Q1621.57 1564 1624.05 1563.33 Q1626.56 1562.63 1629.05 1561.26 L1629.05 1566.68 Q1626.6 1567.82 1623.95 1568.39 Q1621.34 1568.97 1618.38 1568.97 Q1610.33 1568.97 1605.59 1563.91 Q1600.85 1558.85 1600.85 1550.25 Q1600.85 1541.53 1605.62 1536.53 Q1610.43 1531.54 1618.77 1531.54 Q1621.47 1531.54 1624.05 1532.11 Q1626.63 1532.65 1629.05 1533.76 Z" fill="#000000" fill-rule="nonzero" fill-opacity="1" /><path clip-path="url(#clip860)" d="M1669.72 1548.76 L1669.72 1551.62 L1642.8 1551.62 Q1643.18 1557.67 1646.42 1560.85 Q1649.7 1564 1655.53 1564 Q1658.9 1564 1662.05 1563.17 Q1665.24 1562.35 1668.35 1560.69 L1668.35 1566.23 Q1665.2 1567.57 1661.89 1568.27 Q1658.58 1568.97 1655.18 1568.97 Q1646.65 1568.97 1641.65 1564 Q1636.69 1559.04 1636.69 1550.57 Q1636.69 1541.82 1641.4 1536.69 Q1646.14 1531.54 1654.16 1531.54 Q1661.35 1531.54 1665.52 1536.18 Q1669.72 1540.8 1669.72 1548.76 M1663.87 1547.04 Q1663.8 1542.23 1661.16 1539.37 Q1658.55 1536.5 1654.22 1536.5 Q1649.32 1536.5 1646.36 1539.27 Q1643.43 1542.04 1642.99 1547.07 L1663.87 1547.04 Z" fill="#000000" fill-rule="nonzero" fill-opacity="1" /><polyline clip-path="url(#clip862)" style="stroke:#000000; stroke-linecap:round; stroke-linejoin:round; stroke-width:2; stroke-opacity:0.1; fill:none" points="249.542,1386.4 2352.76,1386.4 "/>
<polyline clip-path="url(#clip862)" style="stroke:#000000; stroke-linecap:round; stroke-linejoin:round; stroke-width:2; stroke-opacity:0.1; fill:none" points="249.542,1095.4 2352.76,1095.4 "/>
<polyline clip-path="url(#clip862)" style="stroke:#000000; stroke-linecap:round; stroke-linejoin:round; stroke-width:2; stroke-opacity:0.1; fill:none" points="249.542,804.395 2352.76,804.395 "/>
<polyline clip-path="url(#clip862)" style="stroke:#000000; stroke-linecap:round; stroke-linejoin:round; stroke-width:2; stroke-opacity:0.1; fill:none" points="249.542,513.394 2352.76,513.394 "/>
<polyline clip-path="url(#clip862)" style="stroke:#000000; stroke-linecap:round; stroke-linejoin:round; stroke-width:2; stroke-opacity:0.1; fill:none" points="249.542,222.394 2352.76,222.394 "/>
<polyline clip-path="url(#clip860)" style="stroke:#000000; stroke-linecap:round; stroke-linejoin:round; stroke-width:4; stroke-opacity:1; fill:none" points="249.542,1423.18 249.542,123.472 "/>
<polyline clip-path="url(#clip860)" style="stroke:#000000; stroke-linecap:round; stroke-linejoin:round; stroke-width:4; stroke-opacity:1; fill:none" points="249.542,1386.4 268.44,1386.4 "/>
<polyline clip-path="url(#clip860)" style="stroke:#000000; stroke-linecap:round; stroke-linejoin:round; stroke-width:4; stroke-opacity:1; fill:none" points="249.542,1095.4 268.44,1095.4 "/>
<polyline clip-path="url(#clip860)" style="stroke:#000000; stroke-linecap:round; stroke-linejoin:round; stroke-width:4; stroke-opacity:1; fill:none" points="249.542,804.395 268.44,804.395 "/>
<polyline clip-path="url(#clip860)" style="stroke:#000000; stroke-linecap:round; stroke-linejoin:round; stroke-width:4; stroke-opacity:1; fill:none" points="249.542,513.394 268.44,513.394 "/>
<polyline clip-path="url(#clip860)" style="stroke:#000000; stroke-linecap:round; stroke-linejoin:round; stroke-width:4; stroke-opacity:1; fill:none" points="249.542,222.394 268.44,222.394 "/>
<path clip-path="url(#clip860)" d="M126.205 1372.19 Q122.593 1372.19 120.765 1375.76 Q118.959 1379.3 118.959 1386.43 Q118.959 1393.54 120.765 1397.1 Q122.593 1400.64 126.205 1400.64 Q129.839 1400.64 131.644 1397.1 Q133.473 1393.54 133.473 1386.43 Q133.473 1379.3 131.644 1375.76 Q129.839 1372.19 126.205 1372.19 M126.205 1368.49 Q132.015 1368.49 135.07 1373.1 Q138.149 1377.68 138.149 1386.43 Q138.149 1395.16 135.07 1399.76 Q132.015 1404.35 126.205 1404.35 Q120.394 1404.35 117.316 1399.76 Q114.26 1395.16 114.26 1386.43 Q114.26 1377.68 117.316 1373.1 Q120.394 1368.49 126.205 1368.49 Z" fill="#000000" fill-rule="nonzero" fill-opacity="1" /><path clip-path="url(#clip860)" d="M146.366 1397.8 L151.251 1397.8 L151.251 1403.68 L146.366 1403.68 L146.366 1397.8 Z" fill="#000000" fill-rule="nonzero" fill-opacity="1" /><path clip-path="url(#clip860)" d="M171.436 1372.19 Q167.825 1372.19 165.996 1375.76 Q164.19 1379.3 164.19 1386.43 Q164.19 1393.54 165.996 1397.1 Q167.825 1400.64 171.436 1400.64 Q175.07 1400.64 176.876 1397.1 Q178.704 1393.54 178.704 1386.43 Q178.704 1379.3 176.876 1375.76 Q175.07 1372.19 171.436 1372.19 M171.436 1368.49 Q177.246 1368.49 180.301 1373.1 Q183.38 1377.68 183.38 1386.43 Q183.38 1395.16 180.301 1399.76 Q177.246 1404.35 171.436 1404.35 Q165.626 1404.35 162.547 1399.76 Q159.491 1395.16 159.491 1386.43 Q159.491 1377.68 162.547 1373.1 Q165.626 1368.49 171.436 1368.49 Z" fill="#000000" fill-rule="nonzero" fill-opacity="1" /><path clip-path="url(#clip860)" d="M201.598 1372.19 Q197.987 1372.19 196.158 1375.76 Q194.352 1379.3 194.352 1386.43 Q194.352 1393.54 196.158 1397.1 Q197.987 1400.64 201.598 1400.64 Q205.232 1400.64 207.037 1397.1 Q208.866 1393.54 208.866 1386.43 Q208.866 1379.3 207.037 1375.76 Q205.232 1372.19 201.598 1372.19 M201.598 1368.49 Q207.408 1368.49 210.463 1373.1 Q213.542 1377.68 213.542 1386.43 Q213.542 1395.16 210.463 1399.76 Q207.408 1404.35 201.598 1404.35 Q195.787 1404.35 192.709 1399.76 Q189.653 1395.16 189.653 1386.43 Q189.653 1377.68 192.709 1373.1 Q195.787 1368.49 201.598 1368.49 Z" fill="#000000" fill-rule="nonzero" fill-opacity="1" /><path clip-path="url(#clip860)" d="M127.2 1081.19 Q123.589 1081.19 121.76 1084.76 Q119.955 1088.3 119.955 1095.43 Q119.955 1102.54 121.76 1106.1 Q123.589 1109.64 127.2 1109.64 Q130.834 1109.64 132.64 1106.1 Q134.468 1102.54 134.468 1095.43 Q134.468 1088.3 132.64 1084.76 Q130.834 1081.19 127.2 1081.19 M127.2 1077.49 Q133.01 1077.49 136.066 1082.1 Q139.144 1086.68 139.144 1095.43 Q139.144 1104.16 136.066 1108.76 Q133.01 1113.35 127.2 1113.35 Q121.39 1113.35 118.311 1108.76 Q115.256 1104.16 115.256 1095.43 Q115.256 1086.68 118.311 1082.1 Q121.39 1077.49 127.2 1077.49 Z" fill="#000000" fill-rule="nonzero" fill-opacity="1" /><path clip-path="url(#clip860)" d="M147.362 1106.8 L152.246 1106.8 L152.246 1112.68 L147.362 1112.68 L147.362 1106.8 Z" fill="#000000" fill-rule="nonzero" fill-opacity="1" /><path clip-path="url(#clip860)" d="M166.459 1108.74 L182.778 1108.74 L182.778 1112.68 L160.834 1112.68 L160.834 1108.74 Q163.496 1105.99 168.079 1101.36 Q172.686 1096.7 173.866 1095.36 Q176.112 1092.84 176.991 1091.1 Q177.894 1089.34 177.894 1087.65 Q177.894 1084.9 175.95 1083.16 Q174.028 1081.43 170.927 1081.43 Q168.727 1081.43 166.274 1082.19 Q163.843 1082.95 161.065 1084.5 L161.065 1079.78 Q163.89 1078.65 166.343 1078.07 Q168.797 1077.49 170.834 1077.49 Q176.204 1077.49 179.399 1080.18 Q182.593 1082.86 182.593 1087.35 Q182.593 1089.48 181.783 1091.4 Q180.996 1093.3 178.889 1095.89 Q178.311 1096.56 175.209 1099.78 Q172.107 1102.98 166.459 1108.74 Z" fill="#000000" fill-rule="nonzero" fill-opacity="1" /><path clip-path="url(#clip860)" d="M192.639 1078.12 L210.996 1078.12 L210.996 1082.05 L196.922 1082.05 L196.922 1090.52 Q197.94 1090.18 198.959 1090.01 Q199.977 1089.83 200.996 1089.83 Q206.783 1089.83 210.162 1093 Q213.542 1096.17 213.542 1101.59 Q213.542 1107.17 210.07 1110.27 Q206.598 1113.35 200.278 1113.35 Q198.102 1113.35 195.834 1112.98 Q193.588 1112.61 191.181 1111.87 L191.181 1107.17 Q193.264 1108.3 195.487 1108.86 Q197.709 1109.41 200.186 1109.41 Q204.19 1109.41 206.528 1107.3 Q208.866 1105.2 208.866 1101.59 Q208.866 1097.98 206.528 1095.87 Q204.19 1093.76 200.186 1093.76 Q198.311 1093.76 196.436 1094.18 Q194.584 1094.6 192.639 1095.48 L192.639 1078.12 Z" fill="#000000" fill-rule="nonzero" fill-opacity="1" /><path clip-path="url(#clip860)" d="M126.205 790.194 Q122.593 790.194 120.765 793.758 Q118.959 797.3 118.959 804.43 Q118.959 811.536 120.765 815.101 Q122.593 818.642 126.205 818.642 Q129.839 818.642 131.644 815.101 Q133.473 811.536 133.473 804.43 Q133.473 797.3 131.644 793.758 Q129.839 790.194 126.205 790.194 M126.205 786.49 Q132.015 786.49 135.07 791.096 Q138.149 795.68 138.149 804.43 Q138.149 813.156 135.07 817.763 Q132.015 822.346 126.205 822.346 Q120.394 822.346 117.316 817.763 Q114.26 813.156 114.26 804.43 Q114.26 795.68 117.316 791.096 Q120.394 786.49 126.205 786.49 Z" fill="#000000" fill-rule="nonzero" fill-opacity="1" /><path clip-path="url(#clip860)" d="M146.366 815.795 L151.251 815.795 L151.251 821.675 L146.366 821.675 L146.366 815.795 Z" fill="#000000" fill-rule="nonzero" fill-opacity="1" /><path clip-path="url(#clip860)" d="M161.482 787.115 L179.839 787.115 L179.839 791.05 L165.765 791.05 L165.765 799.522 Q166.783 799.175 167.802 799.013 Q168.82 798.828 169.839 798.828 Q175.626 798.828 179.005 801.999 Q182.385 805.17 182.385 810.587 Q182.385 816.166 178.913 819.267 Q175.44 822.346 169.121 822.346 Q166.945 822.346 164.677 821.976 Q162.431 821.605 160.024 820.865 L160.024 816.166 Q162.107 817.3 164.329 817.855 Q166.552 818.411 169.028 818.411 Q173.033 818.411 175.371 816.305 Q177.709 814.198 177.709 810.587 Q177.709 806.976 175.371 804.869 Q173.033 802.763 169.028 802.763 Q167.153 802.763 165.278 803.18 Q163.427 803.596 161.482 804.476 L161.482 787.115 Z" fill="#000000" fill-rule="nonzero" fill-opacity="1" /><path clip-path="url(#clip860)" d="M201.598 790.194 Q197.987 790.194 196.158 793.758 Q194.352 797.3 194.352 804.43 Q194.352 811.536 196.158 815.101 Q197.987 818.642 201.598 818.642 Q205.232 818.642 207.037 815.101 Q208.866 811.536 208.866 804.43 Q208.866 797.3 207.037 793.758 Q205.232 790.194 201.598 790.194 M201.598 786.49 Q207.408 786.49 210.463 791.096 Q213.542 795.68 213.542 804.43 Q213.542 813.156 210.463 817.763 Q207.408 822.346 201.598 822.346 Q195.787 822.346 192.709 817.763 Q189.653 813.156 189.653 804.43 Q189.653 795.68 192.709 791.096 Q195.787 786.49 201.598 786.49 Z" fill="#000000" fill-rule="nonzero" fill-opacity="1" /><path clip-path="url(#clip860)" d="M127.2 499.193 Q123.589 499.193 121.76 502.758 Q119.955 506.3 119.955 513.429 Q119.955 520.536 121.76 524.1 Q123.589 527.642 127.2 527.642 Q130.834 527.642 132.64 524.1 Q134.468 520.536 134.468 513.429 Q134.468 506.3 132.64 502.758 Q130.834 499.193 127.2 499.193 M127.2 495.489 Q133.01 495.489 136.066 500.096 Q139.144 504.679 139.144 513.429 Q139.144 522.156 136.066 526.762 Q133.01 531.346 127.2 531.346 Q121.39 531.346 118.311 526.762 Q115.256 522.156 115.256 513.429 Q115.256 504.679 118.311 500.096 Q121.39 495.489 127.2 495.489 Z" fill="#000000" fill-rule="nonzero" fill-opacity="1" /><path clip-path="url(#clip860)" d="M147.362 524.795 L152.246 524.795 L152.246 530.674 L147.362 530.674 L147.362 524.795 Z" fill="#000000" fill-rule="nonzero" fill-opacity="1" /><path clip-path="url(#clip860)" d="M161.251 496.114 L183.473 496.114 L183.473 498.105 L170.927 530.674 L166.042 530.674 L177.848 500.05 L161.251 500.05 L161.251 496.114 Z" fill="#000000" fill-rule="nonzero" fill-opacity="1" /><path clip-path="url(#clip860)" d="M192.639 496.114 L210.996 496.114 L210.996 500.05 L196.922 500.05 L196.922 508.522 Q197.94 508.175 198.959 508.013 Q199.977 507.827 200.996 507.827 Q206.783 507.827 210.162 510.999 Q213.542 514.17 213.542 519.587 Q213.542 525.165 210.07 528.267 Q206.598 531.346 200.278 531.346 Q198.102 531.346 195.834 530.975 Q193.588 530.605 191.181 529.864 L191.181 525.165 Q193.264 526.299 195.487 526.855 Q197.709 527.411 200.186 527.411 Q204.19 527.411 206.528 525.304 Q208.866 523.198 208.866 519.587 Q208.866 515.975 206.528 513.869 Q204.19 511.763 200.186 511.763 Q198.311 511.763 196.436 512.179 Q194.584 512.596 192.639 513.475 L192.639 496.114 Z" fill="#000000" fill-rule="nonzero" fill-opacity="1" /><path clip-path="url(#clip860)" d="M117.015 235.739 L124.654 235.739 L124.654 209.373 L116.343 211.04 L116.343 206.781 L124.607 205.114 L129.283 205.114 L129.283 235.739 L136.922 235.739 L136.922 239.674 L117.015 239.674 L117.015 235.739 Z" fill="#000000" fill-rule="nonzero" fill-opacity="1" /><path clip-path="url(#clip860)" d="M146.366 233.794 L151.251 233.794 L151.251 239.674 L146.366 239.674 L146.366 233.794 Z" fill="#000000" fill-rule="nonzero" fill-opacity="1" /><path clip-path="url(#clip860)" d="M171.436 208.193 Q167.825 208.193 165.996 211.758 Q164.19 215.299 164.19 222.429 Q164.19 229.535 165.996 233.1 Q167.825 236.642 171.436 236.642 Q175.07 236.642 176.876 233.1 Q178.704 229.535 178.704 222.429 Q178.704 215.299 176.876 211.758 Q175.07 208.193 171.436 208.193 M171.436 204.489 Q177.246 204.489 180.301 209.096 Q183.38 213.679 183.38 222.429 Q183.38 231.156 180.301 235.762 Q177.246 240.345 171.436 240.345 Q165.626 240.345 162.547 235.762 Q159.491 231.156 159.491 222.429 Q159.491 213.679 162.547 209.096 Q165.626 204.489 171.436 204.489 Z" fill="#000000" fill-rule="nonzero" fill-opacity="1" /><path clip-path="url(#clip860)" d="M201.598 208.193 Q197.987 208.193 196.158 211.758 Q194.352 215.299 194.352 222.429 Q194.352 229.535 196.158 233.1 Q197.987 236.642 201.598 236.642 Q205.232 236.642 207.037 233.1 Q208.866 229.535 208.866 222.429 Q208.866 215.299 207.037 211.758 Q205.232 208.193 201.598 208.193 M201.598 204.489 Q207.408 204.489 210.463 209.096 Q213.542 213.679 213.542 222.429 Q213.542 231.156 210.463 235.762 Q207.408 240.345 201.598 240.345 Q195.787 240.345 192.709 235.762 Q189.653 231.156 189.653 222.429 Q189.653 213.679 192.709 209.096 Q195.787 204.489 201.598 204.489 Z" fill="#000000" fill-rule="nonzero" fill-opacity="1" /><path clip-path="url(#clip860)" d="M21.7677 886.636 L58.7206 886.636 L58.7206 878.869 Q58.7206 869.034 54.2646 864.483 Q49.8086 859.9 40.1964 859.9 Q30.6479 859.9 26.2237 864.483 Q21.7677 869.034 21.7677 878.869 L21.7677 886.636 M16.4842 893.065 L16.4842 879.856 Q16.4842 866.043 22.2451 859.581 Q27.9743 853.12 40.1964 853.12 Q52.4822 853.12 58.2432 859.613 Q64.0042 866.106 64.0042 879.856 L64.0042 893.065 L16.4842 893.065 Z" fill="#000000" fill-rule="nonzero" fill-opacity="1" /><path clip-path="url(#clip860)" d="M44.7161 812.634 L47.5806 812.634 L47.5806 839.561 Q53.6281 839.179 56.8109 835.933 Q59.9619 832.654 59.9619 826.83 Q59.9619 823.456 59.1344 820.305 Q58.3069 817.122 56.6518 814.003 L62.1899 814.003 Q63.5267 817.154 64.227 820.464 Q64.9272 823.774 64.9272 827.18 Q64.9272 835.71 59.9619 840.707 Q54.9967 845.672 46.5303 845.672 Q37.7774 845.672 32.6531 840.962 Q27.4968 836.219 27.4968 828.198 Q27.4968 821.005 32.1438 816.836 Q36.7589 812.634 44.7161 812.634 M42.9973 818.491 Q38.1912 818.554 35.3266 821.196 Q32.4621 823.806 32.4621 828.135 Q32.4621 833.036 35.2312 835.996 Q38.0002 838.925 43.0292 839.37 L42.9973 818.491 Z" fill="#000000" fill-rule="nonzero" fill-opacity="1" /><path clip-path="url(#clip860)" d="M42.4881 773.39 L64.0042 773.39 L64.0042 779.246 L42.679 779.246 Q37.6183 779.246 35.1038 781.219 Q32.5894 783.193 32.5894 787.14 Q32.5894 791.882 35.6131 794.619 Q38.6368 797.357 43.8567 797.357 L64.0042 797.357 L64.0042 803.245 L28.3562 803.245 L28.3562 797.357 L33.8944 797.357 Q30.6797 795.256 29.0883 792.423 Q27.4968 789.559 27.4968 785.835 Q27.4968 779.692 31.3163 776.541 Q35.1038 773.39 42.4881 773.39 Z" fill="#000000" fill-rule="nonzero" fill-opacity="1" /><path clip-path="url(#clip860)" d="M29.4065 738.983 L34.9447 738.983 Q33.6716 741.466 33.035 744.139 Q32.3984 746.813 32.3984 749.677 Q32.3984 754.038 33.7352 756.234 Q35.072 758.398 37.7456 758.398 Q39.7826 758.398 40.9603 756.839 Q42.1061 755.279 43.1565 750.569 L43.6021 748.563 Q44.9389 742.325 47.3897 739.715 Q49.8086 737.073 54.1691 737.073 Q59.1344 737.073 62.0308 741.02 Q64.9272 744.935 64.9272 751.81 Q64.9272 754.674 64.3543 757.794 Q63.8132 760.881 62.6992 764.319 L56.6518 764.319 Q58.3387 761.072 59.198 757.921 Q60.0256 754.77 60.0256 751.683 Q60.0256 747.545 58.6251 745.317 Q57.1929 743.089 54.6147 743.089 Q52.2276 743.089 50.9545 744.712 Q49.6813 746.304 48.5037 751.746 L48.0262 753.783 Q46.8804 759.226 44.5251 761.645 Q42.138 764.064 38.0002 764.064 Q32.9713 764.064 30.2341 760.499 Q27.4968 756.934 27.4968 750.378 Q27.4968 747.131 27.9743 744.267 Q28.4517 741.402 29.4065 738.983 Z" fill="#000000" fill-rule="nonzero" fill-opacity="1" /><path clip-path="url(#clip860)" d="M28.3562 727.748 L28.3562 721.891 L64.0042 721.891 L64.0042 727.748 L28.3562 727.748 M14.479 727.748 L14.479 721.891 L21.895 721.891 L21.895 727.748 L14.479 727.748 Z" fill="#000000" fill-rule="nonzero" fill-opacity="1" /><path clip-path="url(#clip860)" d="M18.2347 703.844 L28.3562 703.844 L28.3562 691.781 L32.9077 691.781 L32.9077 703.844 L52.2594 703.844 Q56.6199 703.844 57.8613 702.667 Q59.1026 701.457 59.1026 697.797 L59.1026 691.781 L64.0042 691.781 L64.0042 697.797 Q64.0042 704.576 61.4897 707.154 Q58.9434 709.733 52.2594 709.733 L32.9077 709.733 L32.9077 714.029 L28.3562 714.029 L28.3562 709.733 L18.2347 709.733 L18.2347 703.844 Z" fill="#000000" fill-rule="nonzero" fill-opacity="1" /><path clip-path="url(#clip860)" d="M67.3143 669.247 Q73.68 671.729 75.6216 674.085 Q77.5631 676.44 77.5631 680.387 L77.5631 685.065 L72.6615 685.065 L72.6615 681.628 Q72.6615 679.209 71.5157 677.872 Q70.3699 676.535 66.1048 674.912 L63.4312 673.862 L28.3562 688.28 L28.3562 682.074 L56.238 670.934 L28.3562 659.794 L28.3562 653.587 L67.3143 669.247 Z" fill="#000000" fill-rule="nonzero" fill-opacity="1" /><path clip-path="url(#clip860)" d="M580.918 18.8205 L580.918 41.5461 L591.208 41.5461 Q596.92 41.5461 600.039 38.5889 Q603.158 35.6318 603.158 30.163 Q603.158 24.7348 600.039 21.7777 Q596.92 18.8205 591.208 18.8205 L580.918 18.8205 M572.736 12.096 L591.208 12.096 Q601.376 12.096 606.561 16.714 Q611.786 21.2916 611.786 30.163 Q611.786 39.1155 606.561 43.6931 Q601.376 48.2706 591.208 48.2706 L580.918 48.2706 L580.918 72.576 L572.736 72.576 L572.736 12.096 Z" fill="#000000" fill-rule="nonzero" fill-opacity="1" /><path clip-path="url(#clip860)" d="M647.272 34.1734 Q646.016 33.4443 644.518 33.1202 Q643.059 32.7556 641.277 32.7556 Q634.958 32.7556 631.555 36.8875 Q628.193 40.9789 628.193 48.6757 L628.193 72.576 L620.698 72.576 L620.698 27.2059 L628.193 27.2059 L628.193 34.2544 Q630.542 30.1225 634.309 28.1376 Q638.077 26.1121 643.464 26.1121 Q644.234 26.1121 645.166 26.2337 Q646.098 26.3147 647.232 26.5172 L647.272 34.1734 Z" fill="#000000" fill-rule="nonzero" fill-opacity="1" /><path clip-path="url(#clip860)" d="M655.091 27.2059 L662.544 27.2059 L662.544 72.576 L655.091 72.576 L655.091 27.2059 M655.091 9.54393 L662.544 9.54393 L662.544 18.9825 L655.091 18.9825 L655.091 9.54393 Z" fill="#000000" fill-rule="nonzero" fill-opacity="1" /><path clip-path="url(#clip860)" d="M695.721 32.4315 Q689.726 32.4315 686.242 37.1306 Q682.758 41.7891 682.758 49.9314 Q682.758 58.0738 686.201 62.7728 Q689.685 67.4314 695.721 67.4314 Q701.676 67.4314 705.16 62.7323 Q708.643 58.0333 708.643 49.9314 Q708.643 41.8701 705.16 37.1711 Q701.676 32.4315 695.721 32.4315 M695.721 26.1121 Q705.443 26.1121 710.993 32.4315 Q716.543 38.7509 716.543 49.9314 Q716.543 61.0714 710.993 67.4314 Q705.443 73.7508 695.721 73.7508 Q685.958 73.7508 680.409 67.4314 Q674.899 61.0714 674.899 49.9314 Q674.899 38.7509 680.409 32.4315 Q685.958 26.1121 695.721 26.1121 Z" fill="#000000" fill-rule="nonzero" fill-opacity="1" /><path clip-path="url(#clip860)" d="M755.188 34.1734 Q753.933 33.4443 752.434 33.1202 Q750.975 32.7556 749.193 32.7556 Q742.874 32.7556 739.471 36.8875 Q736.109 40.9789 736.109 48.6757 L736.109 72.576 L728.614 72.576 L728.614 27.2059 L736.109 27.2059 L736.109 34.2544 Q738.458 30.1225 742.225 28.1376 Q745.993 26.1121 751.381 26.1121 Q752.15 26.1121 753.082 26.2337 Q754.014 26.3147 755.148 26.5172 L755.188 34.1734 Z" fill="#000000" fill-rule="nonzero" fill-opacity="1" /><path clip-path="url(#clip860)" d="M796.589 65.7705 L796.589 89.8329 L789.094 89.8329 L789.094 27.2059 L796.589 27.2059 L796.589 34.0924 Q798.938 30.0415 802.503 28.0971 Q806.108 26.1121 811.091 26.1121 Q819.355 26.1121 824.499 32.6746 Q829.684 39.2371 829.684 49.9314 Q829.684 60.6258 824.499 67.1883 Q819.355 73.7508 811.091 73.7508 Q806.108 73.7508 802.503 71.8063 Q798.938 69.8214 796.589 65.7705 M821.947 49.9314 Q821.947 41.7081 818.544 37.0496 Q815.182 32.3505 809.268 32.3505 Q803.354 32.3505 799.951 37.0496 Q796.589 41.7081 796.589 49.9314 Q796.589 58.1548 799.951 62.8538 Q803.354 67.5124 809.268 67.5124 Q815.182 67.5124 818.544 62.8538 Q821.947 58.1548 821.947 49.9314 Z" fill="#000000" fill-rule="nonzero" fill-opacity="1" /><path clip-path="url(#clip860)" d="M868.33 34.1734 Q867.074 33.4443 865.575 33.1202 Q864.117 32.7556 862.335 32.7556 Q856.015 32.7556 852.613 36.8875 Q849.25 40.9789 849.25 48.6757 L849.25 72.576 L841.756 72.576 L841.756 27.2059 L849.25 27.2059 L849.25 34.2544 Q851.6 30.1225 855.367 28.1376 Q859.135 26.1121 864.522 26.1121 Q865.292 26.1121 866.224 26.2337 Q867.155 26.3147 868.29 26.5172 L868.33 34.1734 Z" fill="#000000" fill-rule="nonzero" fill-opacity="1" /><path clip-path="url(#clip860)" d="M913.133 48.0275 L913.133 51.6733 L878.862 51.6733 Q879.349 59.3701 883.48 63.421 Q887.653 67.4314 895.066 67.4314 Q899.36 67.4314 903.37 66.3781 Q907.421 65.3249 911.391 63.2184 L911.391 70.267 Q907.381 71.9684 903.168 72.8596 Q898.955 73.7508 894.62 73.7508 Q883.764 73.7508 877.404 67.4314 Q871.085 61.1119 871.085 50.3365 Q871.085 39.1965 877.08 32.6746 Q883.116 26.1121 893.324 26.1121 Q902.479 26.1121 907.786 32.0264 Q913.133 37.9003 913.133 48.0275 M905.679 45.84 Q905.598 39.7232 902.236 36.0774 Q898.914 32.4315 893.405 32.4315 Q887.167 32.4315 883.399 35.9558 Q879.673 39.4801 879.106 45.8805 L905.679 45.84 Z" fill="#000000" fill-rule="nonzero" fill-opacity="1" /><path clip-path="url(#clip860)" d="M955.222 34.0924 L955.222 9.54393 L962.676 9.54393 L962.676 72.576 L955.222 72.576 L955.222 65.7705 Q952.872 69.8214 949.267 71.8063 Q945.702 73.7508 940.679 73.7508 Q932.456 73.7508 927.271 67.1883 Q922.126 60.6258 922.126 49.9314 Q922.126 39.2371 927.271 32.6746 Q932.456 26.1121 940.679 26.1121 Q945.702 26.1121 949.267 28.0971 Q952.872 30.0415 955.222 34.0924 M929.823 49.9314 Q929.823 58.1548 933.185 62.8538 Q936.588 67.5124 942.502 67.5124 Q948.416 67.5124 951.819 62.8538 Q955.222 58.1548 955.222 49.9314 Q955.222 41.7081 951.819 37.0496 Q948.416 32.3505 942.502 32.3505 Q936.588 32.3505 933.185 37.0496 Q929.823 41.7081 929.823 49.9314 Z" fill="#000000" fill-rule="nonzero" fill-opacity="1" /><path clip-path="url(#clip860)" d="M978.029 27.2059 L985.482 27.2059 L985.482 72.576 L978.029 72.576 L978.029 27.2059 M978.029 9.54393 L985.482 9.54393 L985.482 18.9825 L978.029 18.9825 L978.029 9.54393 Z" fill="#000000" fill-rule="nonzero" fill-opacity="1" /><path clip-path="url(#clip860)" d="M1033.73 28.9478 L1033.73 35.9153 Q1030.57 34.1734 1027.37 33.3227 Q1024.21 32.4315 1020.97 32.4315 Q1013.72 32.4315 1009.71 37.0496 Q1005.7 41.6271 1005.7 49.9314 Q1005.7 58.2358 1009.71 62.8538 Q1013.72 67.4314 1020.97 67.4314 Q1024.21 67.4314 1027.37 66.5807 Q1030.57 65.6895 1033.73 63.9476 L1033.73 70.8341 Q1030.61 72.2924 1027.25 73.0216 Q1023.93 73.7508 1020.16 73.7508 Q1009.91 73.7508 1003.87 67.3098 Q997.838 60.8689 997.838 49.9314 Q997.838 38.832 1003.91 32.472 Q1010.03 26.1121 1020.64 26.1121 Q1024.09 26.1121 1027.37 26.8413 Q1030.65 27.5299 1033.73 28.9478 Z" fill="#000000" fill-rule="nonzero" fill-opacity="1" /><path clip-path="url(#clip860)" d="M1054.06 14.324 L1054.06 27.2059 L1069.42 27.2059 L1069.42 32.9987 L1054.06 32.9987 L1054.06 57.6282 Q1054.06 63.1779 1055.56 64.7578 Q1057.1 66.3376 1061.76 66.3376 L1069.42 66.3376 L1069.42 72.576 L1061.76 72.576 Q1053.13 72.576 1049.85 69.3758 Q1046.57 66.1351 1046.57 57.6282 L1046.57 32.9987 L1041.1 32.9987 L1041.1 27.2059 L1046.57 27.2059 L1046.57 14.324 L1054.06 14.324 Z" fill="#000000" fill-rule="nonzero" fill-opacity="1" /><path clip-path="url(#clip860)" d="M1079.22 27.2059 L1086.67 27.2059 L1086.67 72.576 L1079.22 72.576 L1079.22 27.2059 M1079.22 9.54393 L1086.67 9.54393 L1086.67 18.9825 L1079.22 18.9825 L1079.22 9.54393 Z" fill="#000000" fill-rule="nonzero" fill-opacity="1" /><path clip-path="url(#clip860)" d="M1096.92 27.2059 L1104.82 27.2059 L1119 65.2844 L1133.18 27.2059 L1141.08 27.2059 L1124.06 72.576 L1113.94 72.576 L1096.92 27.2059 Z" fill="#000000" fill-rule="nonzero" fill-opacity="1" /><path clip-path="url(#clip860)" d="M1190.17 48.0275 L1190.17 51.6733 L1155.9 51.6733 Q1156.39 59.3701 1160.52 63.421 Q1164.69 67.4314 1172.11 67.4314 Q1176.4 67.4314 1180.41 66.3781 Q1184.46 65.3249 1188.43 63.2184 L1188.43 70.267 Q1184.42 71.9684 1180.21 72.8596 Q1176 73.7508 1171.66 73.7508 Q1160.81 73.7508 1154.45 67.4314 Q1148.13 61.1119 1148.13 50.3365 Q1148.13 39.1965 1154.12 32.6746 Q1160.16 26.1121 1170.37 26.1121 Q1179.52 26.1121 1184.83 32.0264 Q1190.17 37.9003 1190.17 48.0275 M1182.72 45.84 Q1182.64 39.7232 1179.28 36.0774 Q1175.96 32.4315 1170.45 32.4315 Q1164.21 32.4315 1160.44 35.9558 Q1156.71 39.4801 1156.15 45.8805 L1182.72 45.84 Z" fill="#000000" fill-rule="nonzero" fill-opacity="1" /><path clip-path="url(#clip860)" d="M1261.43 28.9478 L1261.43 35.9153 Q1258.27 34.1734 1255.07 33.3227 Q1251.91 32.4315 1248.67 32.4315 Q1241.42 32.4315 1237.41 37.0496 Q1233.4 41.6271 1233.4 49.9314 Q1233.4 58.2358 1237.41 62.8538 Q1241.42 67.4314 1248.67 67.4314 Q1251.91 67.4314 1255.07 66.5807 Q1258.27 65.6895 1261.43 63.9476 L1261.43 70.8341 Q1258.31 72.2924 1254.95 73.0216 Q1251.63 73.7508 1247.86 73.7508 Q1237.61 73.7508 1231.57 67.3098 Q1225.54 60.8689 1225.54 49.9314 Q1225.54 38.832 1231.62 32.472 Q1237.73 26.1121 1248.35 26.1121 Q1251.79 26.1121 1255.07 26.8413 Q1258.35 27.5299 1261.43 28.9478 Z" fill="#000000" fill-rule="nonzero" fill-opacity="1" /><path clip-path="url(#clip860)" d="M1312.11 45.1919 L1312.11 72.576 L1304.65 72.576 L1304.65 45.4349 Q1304.65 38.994 1302.14 35.7938 Q1299.63 32.5936 1294.61 32.5936 Q1288.57 32.5936 1285.09 36.4419 Q1281.6 40.2903 1281.6 46.9338 L1281.6 72.576 L1274.11 72.576 L1274.11 9.54393 L1281.6 9.54393 L1281.6 34.2544 Q1284.28 30.163 1287.88 28.1376 Q1291.53 26.1121 1296.27 26.1121 Q1304.09 26.1121 1308.1 30.9732 Q1312.11 35.7938 1312.11 45.1919 Z" fill="#000000" fill-rule="nonzero" fill-opacity="1" /><path clip-path="url(#clip860)" d="M1365.78 48.0275 L1365.78 51.6733 L1331.51 51.6733 Q1332 59.3701 1336.13 63.421 Q1340.3 67.4314 1347.71 67.4314 Q1352.01 67.4314 1356.02 66.3781 Q1360.07 65.3249 1364.04 63.2184 L1364.04 70.267 Q1360.03 71.9684 1355.82 72.8596 Q1351.6 73.7508 1347.27 73.7508 Q1336.41 73.7508 1330.05 67.4314 Q1323.73 61.1119 1323.73 50.3365 Q1323.73 39.1965 1329.73 32.6746 Q1335.76 26.1121 1345.97 26.1121 Q1355.13 26.1121 1360.43 32.0264 Q1365.78 37.9003 1365.78 48.0275 M1358.33 45.84 Q1358.25 39.7232 1354.88 36.0774 Q1351.56 32.4315 1346.05 32.4315 Q1339.81 32.4315 1336.05 35.9558 Q1332.32 39.4801 1331.75 45.8805 L1358.33 45.84 Z" fill="#000000" fill-rule="nonzero" fill-opacity="1" /><path clip-path="url(#clip860)" d="M1410.67 28.9478 L1410.67 35.9153 Q1407.51 34.1734 1404.31 33.3227 Q1401.15 32.4315 1397.9 32.4315 Q1390.65 32.4315 1386.64 37.0496 Q1382.63 41.6271 1382.63 49.9314 Q1382.63 58.2358 1386.64 62.8538 Q1390.65 67.4314 1397.9 67.4314 Q1401.15 67.4314 1404.31 66.5807 Q1407.51 65.6895 1410.67 63.9476 L1410.67 70.8341 Q1407.55 72.2924 1404.18 73.0216 Q1400.86 73.7508 1397.09 73.7508 Q1386.85 73.7508 1380.81 67.3098 Q1374.77 60.8689 1374.77 49.9314 Q1374.77 38.832 1380.85 32.472 Q1386.97 26.1121 1397.58 26.1121 Q1401.02 26.1121 1404.31 26.8413 Q1407.59 27.5299 1410.67 28.9478 Z" fill="#000000" fill-rule="nonzero" fill-opacity="1" /><path clip-path="url(#clip860)" d="M1423.34 9.54393 L1430.84 9.54393 L1430.84 46.7717 L1453.08 27.2059 L1462.6 27.2059 L1438.54 48.4326 L1463.61 72.576 L1453.89 72.576 L1430.84 50.4176 L1430.84 72.576 L1423.34 72.576 L1423.34 9.54393 Z" fill="#000000" fill-rule="nonzero" fill-opacity="1" /><path clip-path="url(#clip860)" d="M1473.58 62.2867 L1482.12 62.2867 L1482.12 69.2543 L1475.48 82.2172 L1470.25 82.2172 L1473.58 69.2543 L1473.58 62.2867 Z" fill="#000000" fill-rule="nonzero" fill-opacity="1" /><path clip-path="url(#clip860)" d="M1554.27 34.0924 L1554.27 9.54393 L1561.72 9.54393 L1561.72 72.576 L1554.27 72.576 L1554.27 65.7705 Q1551.92 69.8214 1548.31 71.8063 Q1544.75 73.7508 1539.73 73.7508 Q1531.5 73.7508 1526.32 67.1883 Q1521.17 60.6258 1521.17 49.9314 Q1521.17 39.2371 1526.32 32.6746 Q1531.5 26.1121 1539.73 26.1121 Q1544.75 26.1121 1548.31 28.0971 Q1551.92 30.0415 1554.27 34.0924 M1528.87 49.9314 Q1528.87 58.1548 1532.23 62.8538 Q1535.64 67.5124 1541.55 67.5124 Q1547.46 67.5124 1550.87 62.8538 Q1554.27 58.1548 1554.27 49.9314 Q1554.27 41.7081 1550.87 37.0496 Q1547.46 32.3505 1541.55 32.3505 Q1535.64 32.3505 1532.23 37.0496 Q1528.87 41.7081 1528.87 49.9314 Z" fill="#000000" fill-rule="nonzero" fill-opacity="1" /><path clip-path="url(#clip860)" d="M1615.88 48.0275 L1615.88 51.6733 L1581.61 51.6733 Q1582.1 59.3701 1586.23 63.421 Q1590.4 67.4314 1597.82 67.4314 Q1602.11 67.4314 1606.12 66.3781 Q1610.17 65.3249 1614.14 63.2184 L1614.14 70.267 Q1610.13 71.9684 1605.92 72.8596 Q1601.71 73.7508 1597.37 73.7508 Q1586.51 73.7508 1580.15 67.4314 Q1573.84 61.1119 1573.84 50.3365 Q1573.84 39.1965 1579.83 32.6746 Q1585.87 26.1121 1596.08 26.1121 Q1605.23 26.1121 1610.54 32.0264 Q1615.88 37.9003 1615.88 48.0275 M1608.43 45.84 Q1608.35 39.7232 1604.99 36.0774 Q1601.67 32.4315 1596.16 32.4315 Q1589.92 32.4315 1586.15 35.9558 Q1582.42 39.4801 1581.86 45.8805 L1608.43 45.84 Z" fill="#000000" fill-rule="nonzero" fill-opacity="1" /><path clip-path="url(#clip860)" d="M1651.09 9.54393 L1651.09 15.7418 L1643.96 15.7418 Q1639.95 15.7418 1638.37 17.3622 Q1636.83 18.9825 1636.83 23.1955 L1636.83 27.2059 L1649.1 27.2059 L1649.1 32.9987 L1636.83 32.9987 L1636.83 72.576 L1629.33 72.576 L1629.33 32.9987 L1622.2 32.9987 L1622.2 27.2059 L1629.33 27.2059 L1629.33 24.0462 Q1629.33 16.471 1632.86 13.0277 Q1636.38 9.54393 1644.04 9.54393 L1651.09 9.54393 Z" fill="#000000" fill-rule="nonzero" fill-opacity="1" /><path clip-path="url(#clip860)" d="M1677.94 49.7694 Q1668.91 49.7694 1665.43 51.8354 Q1661.94 53.9013 1661.94 58.8839 Q1661.94 62.8538 1664.54 65.2034 Q1667.17 67.5124 1671.66 67.5124 Q1677.86 67.5124 1681.59 63.1374 Q1685.36 58.7219 1685.36 51.4303 L1685.36 49.7694 L1677.94 49.7694 M1692.81 46.6907 L1692.81 72.576 L1685.36 72.576 L1685.36 65.6895 Q1682.8 69.8214 1679 71.8063 Q1675.19 73.7508 1669.68 73.7508 Q1662.71 73.7508 1658.58 69.8619 Q1654.49 65.9325 1654.49 59.3701 Q1654.49 51.7138 1659.59 47.825 Q1664.74 43.9361 1674.91 43.9361 L1685.36 43.9361 L1685.36 43.2069 Q1685.36 38.0623 1681.95 35.2672 Q1678.59 32.4315 1672.48 32.4315 Q1668.59 32.4315 1664.9 33.3632 Q1661.21 34.295 1657.81 36.1584 L1657.81 29.2718 Q1661.9 27.692 1665.75 26.9223 Q1669.6 26.1121 1673.24 26.1121 Q1683.09 26.1121 1687.95 31.2163 Q1692.81 36.3204 1692.81 46.6907 Z" fill="#000000" fill-rule="nonzero" fill-opacity="1" /><path clip-path="url(#clip860)" d="M1707.39 54.671 L1707.39 27.2059 L1714.85 27.2059 L1714.85 54.3874 Q1714.85 60.8284 1717.36 64.0691 Q1719.87 67.2693 1724.89 67.2693 Q1730.93 67.2693 1734.41 63.421 Q1737.94 59.5726 1737.94 52.9291 L1737.94 27.2059 L1745.39 27.2059 L1745.39 72.576 L1737.94 72.576 L1737.94 65.6084 Q1735.22 69.7404 1731.62 71.7658 Q1728.05 73.7508 1723.31 73.7508 Q1715.5 73.7508 1711.44 68.8897 Q1707.39 64.0286 1707.39 54.671 M1726.15 26.1121 L1726.15 26.1121 Z" fill="#000000" fill-rule="nonzero" fill-opacity="1" /><path clip-path="url(#clip860)" d="M1760.74 9.54393 L1768.2 9.54393 L1768.2 72.576 L1760.74 72.576 L1760.74 9.54393 Z" fill="#000000" fill-rule="nonzero" fill-opacity="1" /><path clip-path="url(#clip860)" d="M1791.17 14.324 L1791.17 27.2059 L1806.52 27.2059 L1806.52 32.9987 L1791.17 32.9987 L1791.17 57.6282 Q1791.17 63.1779 1792.67 64.7578 Q1794.2 66.3376 1798.86 66.3376 L1806.52 66.3376 L1806.52 72.576 L1798.86 72.576 Q1790.23 72.576 1786.95 69.3758 Q1783.67 66.1351 1783.67 57.6282 L1783.67 32.9987 L1778.2 32.9987 L1778.2 27.2059 L1783.67 27.2059 L1783.67 14.324 L1791.17 14.324 Z" fill="#000000" fill-rule="nonzero" fill-opacity="1" /><path clip-path="url(#clip860)" d="M1849.9 65.7705 L1849.9 89.8329 L1842.41 89.8329 L1842.41 27.2059 L1849.9 27.2059 L1849.9 34.0924 Q1852.25 30.0415 1855.82 28.0971 Q1859.42 26.1121 1864.41 26.1121 Q1872.67 26.1121 1877.82 32.6746 Q1883 39.2371 1883 49.9314 Q1883 60.6258 1877.82 67.1883 Q1872.67 73.7508 1864.41 73.7508 Q1859.42 73.7508 1855.82 71.8063 Q1852.25 69.8214 1849.9 65.7705 M1875.26 49.9314 Q1875.26 41.7081 1871.86 37.0496 Q1868.5 32.3505 1862.58 32.3505 Q1856.67 32.3505 1853.27 37.0496 Q1849.9 41.7081 1849.9 49.9314 Q1849.9 58.1548 1853.27 62.8538 Q1856.67 67.5124 1862.58 67.5124 Q1868.5 67.5124 1871.86 62.8538 Q1875.26 58.1548 1875.26 49.9314 Z" fill="#000000" fill-rule="nonzero" fill-opacity="1" /><path clip-path="url(#clip860)" d="M1921.65 34.1734 Q1920.39 33.4443 1918.89 33.1202 Q1917.43 32.7556 1915.65 32.7556 Q1909.33 32.7556 1905.93 36.8875 Q1902.57 40.9789 1902.57 48.6757 L1902.57 72.576 L1895.07 72.576 L1895.07 27.2059 L1902.57 27.2059 L1902.57 34.2544 Q1904.92 30.1225 1908.68 28.1376 Q1912.45 26.1121 1917.84 26.1121 Q1918.61 26.1121 1919.54 26.2337 Q1920.47 26.3147 1921.61 26.5172 L1921.65 34.1734 Z" fill="#000000" fill-rule="nonzero" fill-opacity="1" /><path clip-path="url(#clip860)" d="M1929.46 27.2059 L1936.92 27.2059 L1936.92 72.576 L1929.46 72.576 L1929.46 27.2059 M1929.46 9.54393 L1936.92 9.54393 L1936.92 18.9825 L1929.46 18.9825 L1929.46 9.54393 Z" fill="#000000" fill-rule="nonzero" fill-opacity="1" /><path clip-path="url(#clip860)" d="M1970.1 32.4315 Q1964.1 32.4315 1960.62 37.1306 Q1957.13 41.7891 1957.13 49.9314 Q1957.13 58.0738 1960.58 62.7728 Q1964.06 67.4314 1970.1 67.4314 Q1976.05 67.4314 1979.53 62.7323 Q1983.02 58.0333 1983.02 49.9314 Q1983.02 41.8701 1979.53 37.1711 Q1976.05 32.4315 1970.1 32.4315 M1970.1 26.1121 Q1979.82 26.1121 1985.37 32.4315 Q1990.92 38.7509 1990.92 49.9314 Q1990.92 61.0714 1985.37 67.4314 Q1979.82 73.7508 1970.1 73.7508 Q1960.33 73.7508 1954.78 67.4314 Q1949.27 61.0714 1949.27 49.9314 Q1949.27 38.7509 1954.78 32.4315 Q1960.33 26.1121 1970.1 26.1121 Z" fill="#000000" fill-rule="nonzero" fill-opacity="1" /><path clip-path="url(#clip860)" d="M2029.56 34.1734 Q2028.31 33.4443 2026.81 33.1202 Q2025.35 32.7556 2023.57 32.7556 Q2017.25 32.7556 2013.84 36.8875 Q2010.48 40.9789 2010.48 48.6757 L2010.48 72.576 L2002.99 72.576 L2002.99 27.2059 L2010.48 27.2059 L2010.48 34.2544 Q2012.83 30.1225 2016.6 28.1376 Q2020.37 26.1121 2025.75 26.1121 Q2026.52 26.1121 2027.46 26.2337 Q2028.39 26.3147 2029.52 26.5172 L2029.56 34.1734 Z" fill="#000000" fill-rule="nonzero" fill-opacity="1" /><path clip-path="url(#clip862)" d="M309.067 1386.33 L319.038 1386.02 L329.008 1384.35 L338.979 1377.63 L348.95 1356.6 L358.92 1305.41 L368.891 1208.66 L378.862 1066.45 L388.832 903.227 L398.803 755.18 L408.774 645.715 L418.744 574.666 L428.715 528.28 L438.686 493.572 L448.656 463.77 L458.627 436.556 L468.598 411.429 L478.568 388.531 L488.539 368.182 L498.51 350.382 L508.48 334.54 L518.451 319.811 L528.422 305.715 L538.392 292.356 L548.363 280.027 L558.334 268.764 L568.304 258.409 L578.275 248.913 L588.246 240.324 L598.216 232.643 L608.187 225.888 L618.158 220.153 L628.129 215.359 L638.099 211.104 L648.07 206.945 L658.041 202.76 L668.011 198.729 L677.982 195.117 L687.953 192.14 L697.923 189.846 L707.894 187.956 L717.865 185.977 L727.835 183.579 L737.806 180.832 L747.777 178.116 L757.747 175.913 L767.718 174.562 L777.689 173.964 L787.659 173.586 L797.63 172.947 L807.601 172.066 L817.571 171.278 L827.542 170.736 L837.513 170.253 L847.483 169.562 L857.454 168.524 L867.425 167.188 L877.395 165.909 L887.366 165.301 L897.337 165.768 L907.307 166.983 L917.278 168.037 L927.249 168.165 L937.219 167.281 L947.19 165.885 L957.161 164.602 L967.131 163.768 L977.102 163.338 L987.073 163.12 L997.043 163.064 L1007.01 163.226 L1016.98 163.443 L1026.96 163.275 L1036.93 162.444 L1046.9 161.24 L1056.87 160.345 L1066.84 160.256 L1076.81 160.919 L1086.78 161.799 L1096.75 162.294 L1106.72 162.195 L1116.69 161.783 L1126.66 161.459 L1136.63 161.396 L1146.6 161.59 L1156.57 162.031 L1166.54 162.691 L1176.52 163.498 L1186.49 164.366 L1196.46 165.134 L1206.43 165.564 L1216.4 165.616 L1226.37 165.6 L1236.34 165.808 L1246.31 166.07 L1256.28 165.875 L1266.25 164.878 L1276.22 163.25 L1286.19 161.689 L1296.16 161.14 L1306.13 162.182 L1316.1 164.45 L1326.08 166.815 L1336.05 168.355 L1346.02 169.066 L1355.99 169.507 L1365.96 169.964 L1375.93 170.163 L1385.9 169.816 L1395.87 169.219 L1405.84 169.111 L1415.81 169.962 L1425.78 171.596 L1435.75 173.433 L1445.72 174.899 L1455.69 175.625 L1465.67 175.498 L1475.64 174.607 L1485.61 173.255 L1495.58 172.045 L1505.55 171.713 L1515.52 172.503 L1525.49 173.771 L1535.46 174.472 L1545.43 174.058 L1555.4 172.788 L1565.37 171.278 L1575.34 169.951 L1585.31 168.909 L1595.28 168.211 L1605.25 168.079 L1615.23 168.726 L1625.2 170.064 L1635.17 171.698 L1645.14 173.183 L1655.11 174.264 L1665.08 174.958 L1675.05 175.412 L1685.02 175.729 L1694.99 175.977 L1704.96 176.224 L1714.93 176.481 L1724.9 176.734 L1734.87 177.087 L1744.84 177.698 L1754.81 178.487 L1764.79 179.025 L1774.76 178.862 L1784.73 177.992 L1794.7 176.972 L1804.67 176.527 L1814.64 177.068 L1824.61 178.586 L1834.58 180.821 L1844.55 183.356 L1854.52 185.702 L1864.49 187.605 L1874.46 189.281 L1884.43 191.132 L1894.4 193.238 L1904.37 195.362 L1914.35 197.449 L1924.32 199.814 L1934.29 202.765 L1944.26 206.308 L1954.23 210.294 L1964.2 214.619 L1974.17 219.204 L1984.14 223.996 L1994.11 229.104 L2004.08 234.86 L2014.05 241.653 L2024.02 249.699 L2033.99 258.899 L2043.96 268.91 L2053.93 279.463 L2063.91 290.69 L2073.88 303.076 L2083.85 317.063 L2093.82 332.687 L2103.79 349.653 L2113.76 367.759 L2123.73 387.221 L2133.7 408.603 L2143.67 432.537 L2153.64 459.585 L2163.61 490.464 L2173.58 527.239 L2183.55 576.11 L2193.52 649.378 L2203.49 760.199 L2213.47 908.382 L2223.44 1070.63 L2233.41 1211.34 L2243.38 1306.77 L2253.35 1357.14 L2263.32 1377.8 L2273.29 1384.39 L2283.26 1386.02 L2293.23 1386.34 L2293.23 1386.4 L2283.26 1386.4 L2273.29 1386.4 L2263.32 1386.4 L2253.35 1386.4 L2243.38 1386.4 L2233.41 1386.4 L2223.44 1386.4 L2213.47 1386.4 L2203.49 1386.4 L2193.52 1386.4 L2183.55 1386.4 L2173.58 1386.4 L2163.61 1386.4 L2153.64 1386.4 L2143.67 1386.4 L2133.7 1386.4 L2123.73 1386.4 L2113.76 1386.4 L2103.79 1386.4 L2093.82 1386.4 L2083.85 1386.4 L2073.88 1386.4 L2063.91 1386.4 L2053.93 1386.4 L2043.96 1386.4 L2033.99 1386.4 L2024.02 1386.4 L2014.05 1386.4 L2004.08 1386.4 L1994.11 1386.4 L1984.14 1386.4 L1974.17 1386.4 L1964.2 1386.4 L1954.23 1386.4 L1944.26 1386.4 L1934.29 1386.4 L1924.32 1386.4 L1914.35 1386.4 L1904.37 1386.4 L1894.4 1386.4 L1884.43 1386.4 L1874.46 1386.4 L1864.49 1386.4 L1854.52 1386.4 L1844.55 1386.4 L1834.58 1386.4 L1824.61 1386.4 L1814.64 1386.4 L1804.67 1386.4 L1794.7 1386.4 L1784.73 1386.4 L1774.76 1386.4 L1764.79 1386.4 L1754.81 1386.4 L1744.84 1386.4 L1734.87 1386.4 L1724.9 1386.4 L1714.93 1386.4 L1704.96 1386.4 L1694.99 1386.4 L1685.02 1386.4 L1675.05 1386.4 L1665.08 1386.4 L1655.11 1386.4 L1645.14 1386.4 L1635.17 1386.4 L1625.2 1386.4 L1615.23 1386.4 L1605.25 1386.4 L1595.28 1386.4 L1585.31 1386.4 L1575.34 1386.4 L1565.37 1386.4 L1555.4 1386.4 L1545.43 1386.4 L1535.46 1386.4 L1525.49 1386.4 L1515.52 1386.4 L1505.55 1386.4 L1495.58 1386.4 L1485.61 1386.4 L1475.64 1386.4 L1465.67 1386.4 L1455.69 1386.4 L1445.72 1386.4 L1435.75 1386.4 L1425.78 1386.4 L1415.81 1386.4 L1405.84 1386.4 L1395.87 1386.4 L1385.9 1386.4 L1375.93 1386.4 L1365.96 1386.4 L1355.99 1386.4 L1346.02 1386.4 L1336.05 1386.4 L1326.08 1386.4 L1316.1 1386.4 L1306.13 1386.4 L1296.16 1386.4 L1286.19 1386.4 L1276.22 1386.4 L1266.25 1386.4 L1256.28 1386.4 L1246.31 1386.4 L1236.34 1386.4 L1226.37 1386.4 L1216.4 1386.4 L1206.43 1386.4 L1196.46 1386.4 L1186.49 1386.4 L1176.52 1386.4 L1166.54 1386.4 L1156.57 1386.4 L1146.6 1386.4 L1136.63 1386.4 L1126.66 1386.4 L1116.69 1386.4 L1106.72 1386.4 L1096.75 1386.4 L1086.78 1386.4 L1076.81 1386.4 L1066.84 1386.4 L1056.87 1386.4 L1046.9 1386.4 L1036.93 1386.4 L1026.96 1386.4 L1016.98 1386.4 L1007.01 1386.4 L997.043 1386.4 L987.073 1386.4 L977.102 1386.4 L967.131 1386.4 L957.161 1386.4 L947.19 1386.4 L937.219 1386.4 L927.249 1386.4 L917.278 1386.4 L907.307 1386.4 L897.337 1386.4 L887.366 1386.4 L877.395 1386.4 L867.425 1386.4 L857.454 1386.4 L847.483 1386.4 L837.513 1386.4 L827.542 1386.4 L817.571 1386.4 L807.601 1386.4 L797.63 1386.4 L787.659 1386.4 L777.689 1386.4 L767.718 1386.4 L757.747 1386.4 L747.777 1386.4 L737.806 1386.4 L727.835 1386.4 L717.865 1386.4 L707.894 1386.4 L697.923 1386.4 L687.953 1386.4 L677.982 1386.4 L668.011 1386.4 L658.041 1386.4 L648.07 1386.4 L638.099 1386.4 L628.129 1386.4 L618.158 1386.4 L608.187 1386.4 L598.216 1386.4 L588.246 1386.4 L578.275 1386.4 L568.304 1386.4 L558.334 1386.4 L548.363 1386.4 L538.392 1386.4 L528.422 1386.4 L518.451 1386.4 L508.48 1386.4 L498.51 1386.4 L488.539 1386.4 L478.568 1386.4 L468.598 1386.4 L458.627 1386.4 L448.656 1386.4 L438.686 1386.4 L428.715 1386.4 L418.744 1386.4 L408.774 1386.4 L398.803 1386.4 L388.832 1386.4 L378.862 1386.4 L368.891 1386.4 L358.92 1386.4 L348.95 1386.4 L338.979 1386.4 L329.008 1386.4 L319.038 1386.4 L309.067 1386.4  Z" fill="#e26f46" fill-rule="evenodd" fill-opacity="0.2"/>
<polyline clip-path="url(#clip862)" style="stroke:#e26f46; stroke-linecap:round; stroke-linejoin:round; stroke-width:4; stroke-opacity:1; fill:none" points="309.067,1386.33 319.038,1386.02 329.008,1384.35 338.979,1377.63 348.95,1356.6 358.92,1305.41 368.891,1208.66 378.862,1066.45 388.832,903.227 398.803,755.18 408.774,645.715 418.744,574.666 428.715,528.28 438.686,493.572 448.656,463.77 458.627,436.556 468.598,411.429 478.568,388.531 488.539,368.182 498.51,350.382 508.48,334.54 518.451,319.811 528.422,305.715 538.392,292.356 548.363,280.027 558.334,268.764 568.304,258.409 578.275,248.913 588.246,240.324 598.216,232.643 608.187,225.888 618.158,220.153 628.129,215.359 638.099,211.104 648.07,206.945 658.041,202.76 668.011,198.729 677.982,195.117 687.953,192.14 697.923,189.846 707.894,187.956 717.865,185.977 727.835,183.579 737.806,180.832 747.777,178.116 757.747,175.913 767.718,174.562 777.689,173.964 787.659,173.586 797.63,172.947 807.601,172.066 817.571,171.278 827.542,170.736 837.513,170.253 847.483,169.562 857.454,168.524 867.425,167.188 877.395,165.909 887.366,165.301 897.337,165.768 907.307,166.983 917.278,168.037 927.249,168.165 937.219,167.281 947.19,165.885 957.161,164.602 967.131,163.768 977.102,163.338 987.073,163.12 997.043,163.064 1007.01,163.226 1016.98,163.443 1026.96,163.275 1036.93,162.444 1046.9,161.24 1056.87,160.345 1066.84,160.256 1076.81,160.919 1086.78,161.799 1096.75,162.294 1106.72,162.195 1116.69,161.783 1126.66,161.459 1136.63,161.396 1146.6,161.59 1156.57,162.031 1166.54,162.691 1176.52,163.498 1186.49,164.366 1196.46,165.134 1206.43,165.564 1216.4,165.616 1226.37,165.6 1236.34,165.808 1246.31,166.07 1256.28,165.875 1266.25,164.878 1276.22,163.25 1286.19,161.689 1296.16,161.14 1306.13,162.182 1316.1,164.45 1326.08,166.815 1336.05,168.355 1346.02,169.066 1355.99,169.507 1365.96,169.964 1375.93,170.163 1385.9,169.816 1395.87,169.219 1405.84,169.111 1415.81,169.962 1425.78,171.596 1435.75,173.433 1445.72,174.899 1455.69,175.625 1465.67,175.498 1475.64,174.607 1485.61,173.255 1495.58,172.045 1505.55,171.713 1515.52,172.503 1525.49,173.771 1535.46,174.472 1545.43,174.058 1555.4,172.788 1565.37,171.278 1575.34,169.951 1585.31,168.909 1595.28,168.211 1605.25,168.079 1615.23,168.726 1625.2,170.064 1635.17,171.698 1645.14,173.183 1655.11,174.264 1665.08,174.958 1675.05,175.412 1685.02,175.729 1694.99,175.977 1704.96,176.224 1714.93,176.481 1724.9,176.734 1734.87,177.087 1744.84,177.698 1754.81,178.487 1764.79,179.025 1774.76,178.862 1784.73,177.992 1794.7,176.972 1804.67,176.527 1814.64,177.068 1824.61,178.586 1834.58,180.821 1844.55,183.356 1854.52,185.702 1864.49,187.605 1874.46,189.281 1884.43,191.132 1894.4,193.238 1904.37,195.362 1914.35,197.449 1924.32,199.814 1934.29,202.765 1944.26,206.308 1954.23,210.294 1964.2,214.619 1974.17,219.204 1984.14,223.996 1994.11,229.104 2004.08,234.86 2014.05,241.653 2024.02,249.699 2033.99,258.899 2043.96,268.91 2053.93,279.463 2063.91,290.69 2073.88,303.076 2083.85,317.063 2093.82,332.687 2103.79,349.653 2113.76,367.759 2123.73,387.221 2133.7,408.603 2143.67,432.537 2153.64,459.585 2163.61,490.464 2173.58,527.239 2183.55,576.11 2193.52,649.378 2203.49,760.199 2213.47,908.382 2223.44,1070.63 2233.41,1211.34 2243.38,1306.77 2253.35,1357.14 2263.32,1377.8 2273.29,1384.39 2283.26,1386.02 2293.23,1386.34 "/>
</svg>
