<?xml version="1.0" encoding="utf-8"?>
<svg xmlns="http://www.w3.org/2000/svg" xmlns:xlink="http://www.w3.org/1999/xlink" width="600" height="400" viewBox="0 0 2400 1600">
<defs>
  <clipPath id="clip710">
    <rect x="0" y="0" width="2400" height="1600"/>
  </clipPath>
</defs>
<path clip-path="url(#clip710)" d="M0 1600 L2400 1600 L2400 0 L0 0  Z" fill="#ffffff" fill-rule="evenodd" fill-opacity="1"/>
<defs>
  <clipPath id="clip711">
    <rect x="480" y="0" width="1681" height="1600"/>
  </clipPath>
</defs>
<path clip-path="url(#clip710)" d="M156.598 1486.45 L2352.76 1486.45 L2352.76 47.2441 L156.598 47.2441  Z" fill="#ffffff" fill-rule="evenodd" fill-opacity="1"/>
<defs>
  <clipPath id="clip712">
    <rect x="156" y="47" width="2197" height="1440"/>
  </clipPath>
</defs>
<polyline clip-path="url(#clip712)" style="stroke:#000000; stroke-linecap:round; stroke-linejoin:round; stroke-width:2; stroke-opacity:0.1; fill:none" points="156.598,1486.45 156.598,47.2441 "/>
<polyline clip-path="url(#clip712)" style="stroke:#000000; stroke-linecap:round; stroke-linejoin:round; stroke-width:2; stroke-opacity:0.1; fill:none" points="705.638,1486.45 705.638,47.2441 "/>
<polyline clip-path="url(#clip712)" style="stroke:#000000; stroke-linecap:round; stroke-linejoin:round; stroke-width:2; stroke-opacity:0.1; fill:none" points="1254.68,1486.45 1254.68,47.2441 "/>
<polyline clip-path="url(#clip712)" style="stroke:#000000; stroke-linecap:round; stroke-linejoin:round; stroke-width:2; stroke-opacity:0.1; fill:none" points="1803.72,1486.45 1803.72,47.2441 "/>
<polyline clip-path="url(#clip712)" style="stroke:#000000; stroke-linecap:round; stroke-linejoin:round; stroke-width:2; stroke-opacity:0.1; fill:none" points="2352.76,1486.45 2352.76,47.2441 "/>
<polyline clip-path="url(#clip710)" style="stroke:#000000; stroke-linecap:round; stroke-linejoin:round; stroke-width:4; stroke-opacity:1; fill:none" points="156.598,1486.45 2352.76,1486.45 "/>
<polyline clip-path="url(#clip710)" style="stroke:#000000; stroke-linecap:round; stroke-linejoin:round; stroke-width:4; stroke-opacity:1; fill:none" points="156.598,1486.45 156.598,1467.55 "/>
<polyline clip-path="url(#clip710)" style="stroke:#000000; stroke-linecap:round; stroke-linejoin:round; stroke-width:4; stroke-opacity:1; fill:none" points="705.638,1486.45 705.638,1467.55 "/>
<polyline clip-path="url(#clip710)" style="stroke:#000000; stroke-linecap:round; stroke-linejoin:round; stroke-width:4; stroke-opacity:1; fill:none" points="1254.68,1486.45 1254.68,1467.55 "/>
<polyline clip-path="url(#clip710)" style="stroke:#000000; stroke-linecap:round; stroke-linejoin:round; stroke-width:4; stroke-opacity:1; fill:none" points="1803.72,1486.45 1803.72,1467.55 "/>
<polyline clip-path="url(#clip710)" style="stroke:#000000; stroke-linecap:round; stroke-linejoin:round; stroke-width:4; stroke-opacity:1; fill:none" points="2352.76,1486.45 2352.76,1467.55 "/>
<path clip-path="url(#clip710)" d="M125.499 1532.02 L155.175 1532.02 L155.175 1535.95 L125.499 1535.95 L125.499 1532.02 Z" fill="#000000" fill-rule="nonzero" fill-opacity="1" /><path clip-path="url(#clip710)" d="M178.114 1518.36 L166.309 1536.81 L178.114 1536.81 L178.114 1518.36 M176.887 1514.29 L182.767 1514.29 L182.767 1536.81 L187.698 1536.81 L187.698 1540.7 L182.767 1540.7 L182.767 1548.85 L178.114 1548.85 L178.114 1540.7 L162.513 1540.7 L162.513 1536.19 L176.887 1514.29 Z" fill="#000000" fill-rule="nonzero" fill-opacity="1" /><path clip-path="url(#clip710)" d="M675.58 1532.02 L705.256 1532.02 L705.256 1535.95 L675.58 1535.95 L675.58 1532.02 Z" fill="#000000" fill-rule="nonzero" fill-opacity="1" /><path clip-path="url(#clip710)" d="M719.376 1544.91 L735.695 1544.91 L735.695 1548.85 L713.751 1548.85 L713.751 1544.91 Q716.413 1542.16 720.996 1537.53 Q725.603 1532.88 726.783 1531.53 Q729.029 1529.01 729.908 1527.27 Q730.811 1525.51 730.811 1523.82 Q730.811 1521.07 728.867 1519.33 Q726.945 1517.6 723.844 1517.6 Q721.645 1517.6 719.191 1518.36 Q716.76 1519.13 713.983 1520.68 L713.983 1515.95 Q716.807 1514.82 719.26 1514.24 Q721.714 1513.66 723.751 1513.66 Q729.121 1513.66 732.316 1516.35 Q735.51 1519.03 735.51 1523.52 Q735.51 1525.65 734.7 1527.57 Q733.913 1529.47 731.806 1532.07 Q731.228 1532.74 728.126 1535.95 Q725.024 1539.15 719.376 1544.91 Z" fill="#000000" fill-rule="nonzero" fill-opacity="1" /><path clip-path="url(#clip710)" d="M1254.68 1517.37 Q1251.07 1517.37 1249.24 1520.93 Q1247.43 1524.47 1247.43 1531.6 Q1247.43 1538.71 1249.24 1542.27 Q1251.07 1545.82 1254.68 1545.82 Q1258.31 1545.82 1260.12 1542.27 Q1261.95 1538.71 1261.95 1531.6 Q1261.95 1524.47 1260.12 1520.93 Q1258.31 1517.37 1254.68 1517.37 M1254.68 1513.66 Q1260.49 1513.66 1263.54 1518.27 Q1266.62 1522.85 1266.62 1531.6 Q1266.62 1540.33 1263.54 1544.94 Q1260.49 1549.52 1254.68 1549.52 Q1248.87 1549.52 1245.79 1544.94 Q1242.73 1540.33 1242.73 1531.6 Q1242.73 1522.85 1245.79 1518.27 Q1248.87 1513.66 1254.68 1513.66 Z" fill="#000000" fill-rule="nonzero" fill-opacity="1" /><path clip-path="url(#clip710)" d="M1798.37 1544.91 L1814.69 1544.91 L1814.69 1548.85 L1792.74 1548.85 L1792.74 1544.91 Q1795.41 1542.16 1799.99 1537.53 Q1804.6 1532.88 1805.78 1531.53 Q1808.02 1529.01 1808.9 1527.27 Q1809.8 1525.51 1809.8 1523.82 Q1809.8 1521.07 1807.86 1519.33 Q1805.94 1517.6 1802.84 1517.6 Q1800.64 1517.6 1798.18 1518.36 Q1795.75 1519.13 1792.98 1520.68 L1792.98 1515.95 Q1795.8 1514.82 1798.25 1514.24 Q1800.71 1513.66 1802.74 1513.66 Q1808.11 1513.66 1811.31 1516.35 Q1814.5 1519.03 1814.5 1523.52 Q1814.5 1525.65 1813.69 1527.57 Q1812.91 1529.47 1810.8 1532.07 Q1810.22 1532.74 1807.12 1535.95 Q1804.02 1539.15 1798.37 1544.91 Z" fill="#000000" fill-rule="nonzero" fill-opacity="1" /><path clip-path="url(#clip710)" d="M2355.77 1518.36 L2343.96 1536.81 L2355.77 1536.81 L2355.77 1518.36 M2354.54 1514.29 L2360.42 1514.29 L2360.42 1536.81 L2365.35 1536.81 L2365.35 1540.7 L2360.42 1540.7 L2360.42 1548.85 L2355.77 1548.85 L2355.77 1540.7 L2340.16 1540.7 L2340.16 1536.19 L2354.54 1514.29 Z" fill="#000000" fill-rule="nonzero" fill-opacity="1" /><polyline clip-path="url(#clip712)" style="stroke:#000000; stroke-linecap:round; stroke-linejoin:round; stroke-width:2; stroke-opacity:0.1; fill:none" points="156.598,1486.45 2352.76,1486.45 "/>
<polyline clip-path="url(#clip712)" style="stroke:#000000; stroke-linecap:round; stroke-linejoin:round; stroke-width:2; stroke-opacity:0.1; fill:none" points="156.598,1173.67 2352.76,1173.67 "/>
<polyline clip-path="url(#clip712)" style="stroke:#000000; stroke-linecap:round; stroke-linejoin:round; stroke-width:2; stroke-opacity:0.1; fill:none" points="156.598,860.887 2352.76,860.887 "/>
<polyline clip-path="url(#clip712)" style="stroke:#000000; stroke-linecap:round; stroke-linejoin:round; stroke-width:2; stroke-opacity:0.1; fill:none" points="156.598,548.106 2352.76,548.106 "/>
<polyline clip-path="url(#clip712)" style="stroke:#000000; stroke-linecap:round; stroke-linejoin:round; stroke-width:2; stroke-opacity:0.1; fill:none" points="156.598,235.326 2352.76,235.326 "/>
<polyline clip-path="url(#clip710)" style="stroke:#000000; stroke-linecap:round; stroke-linejoin:round; stroke-width:4; stroke-opacity:1; fill:none" points="156.598,1486.45 156.598,47.2441 "/>
<polyline clip-path="url(#clip710)" style="stroke:#000000; stroke-linecap:round; stroke-linejoin:round; stroke-width:4; stroke-opacity:1; fill:none" points="156.598,1486.45 175.496,1486.45 "/>
<polyline clip-path="url(#clip710)" style="stroke:#000000; stroke-linecap:round; stroke-linejoin:round; stroke-width:4; stroke-opacity:1; fill:none" points="156.598,1173.67 175.496,1173.67 "/>
<polyline clip-path="url(#clip710)" style="stroke:#000000; stroke-linecap:round; stroke-linejoin:round; stroke-width:4; stroke-opacity:1; fill:none" points="156.598,860.887 175.496,860.887 "/>
<polyline clip-path="url(#clip710)" style="stroke:#000000; stroke-linecap:round; stroke-linejoin:round; stroke-width:4; stroke-opacity:1; fill:none" points="156.598,548.106 175.496,548.106 "/>
<polyline clip-path="url(#clip710)" style="stroke:#000000; stroke-linecap:round; stroke-linejoin:round; stroke-width:4; stroke-opacity:1; fill:none" points="156.598,235.326 175.496,235.326 "/>
<path clip-path="url(#clip710)" d="M63.4226 1472.25 Q59.8115 1472.25 57.9828 1475.81 Q56.1773 1479.35 56.1773 1486.48 Q56.1773 1493.59 57.9828 1497.15 Q59.8115 1500.7 63.4226 1500.7 Q67.0569 1500.7 68.8624 1497.15 Q70.6911 1493.59 70.6911 1486.48 Q70.6911 1479.35 68.8624 1475.81 Q67.0569 1472.25 63.4226 1472.25 M63.4226 1468.54 Q69.2328 1468.54 72.2883 1473.15 Q75.367 1477.73 75.367 1486.48 Q75.367 1495.21 72.2883 1499.82 Q69.2328 1504.4 63.4226 1504.4 Q57.6125 1504.4 54.5338 1499.82 Q51.4782 1495.21 51.4782 1486.48 Q51.4782 1477.73 54.5338 1473.15 Q57.6125 1468.54 63.4226 1468.54 Z" fill="#000000" fill-rule="nonzero" fill-opacity="1" /><path clip-path="url(#clip710)" d="M83.5845 1497.85 L88.4688 1497.85 L88.4688 1503.73 L83.5845 1503.73 L83.5845 1497.85 Z" fill="#000000" fill-rule="nonzero" fill-opacity="1" /><path clip-path="url(#clip710)" d="M108.654 1472.25 Q105.043 1472.25 103.214 1475.81 Q101.409 1479.35 101.409 1486.48 Q101.409 1493.59 103.214 1497.15 Q105.043 1500.7 108.654 1500.7 Q112.288 1500.7 114.094 1497.15 Q115.922 1493.59 115.922 1486.48 Q115.922 1479.35 114.094 1475.81 Q112.288 1472.25 108.654 1472.25 M108.654 1468.54 Q114.464 1468.54 117.52 1473.15 Q120.598 1477.73 120.598 1486.48 Q120.598 1495.21 117.52 1499.82 Q114.464 1504.4 108.654 1504.4 Q102.844 1504.4 99.765 1499.82 Q96.7095 1495.21 96.7095 1486.48 Q96.7095 1477.73 99.765 1473.15 Q102.844 1468.54 108.654 1468.54 Z" fill="#000000" fill-rule="nonzero" fill-opacity="1" /><path clip-path="url(#clip710)" d="M64.6495 1159.47 Q61.0384 1159.47 59.2097 1163.03 Q57.4041 1166.57 57.4041 1173.7 Q57.4041 1180.81 59.2097 1184.37 Q61.0384 1187.91 64.6495 1187.91 Q68.2837 1187.91 70.0892 1184.37 Q71.9179 1180.81 71.9179 1173.7 Q71.9179 1166.57 70.0892 1163.03 Q68.2837 1159.47 64.6495 1159.47 M64.6495 1155.76 Q70.4596 1155.76 73.5152 1160.37 Q76.5938 1164.95 76.5938 1173.7 Q76.5938 1182.43 73.5152 1187.04 Q70.4596 1191.62 64.6495 1191.62 Q58.8393 1191.62 55.7606 1187.04 Q52.7051 1182.43 52.7051 1173.7 Q52.7051 1164.95 55.7606 1160.37 Q58.8393 1155.76 64.6495 1155.76 Z" fill="#000000" fill-rule="nonzero" fill-opacity="1" /><path clip-path="url(#clip710)" d="M84.8114 1185.07 L89.6956 1185.07 L89.6956 1190.95 L84.8114 1190.95 L84.8114 1185.07 Z" fill="#000000" fill-rule="nonzero" fill-opacity="1" /><path clip-path="url(#clip710)" d="M100.691 1187.01 L108.33 1187.01 L108.33 1160.65 L100.02 1162.31 L100.02 1158.05 L108.283 1156.39 L112.959 1156.39 L112.959 1187.01 L120.598 1187.01 L120.598 1190.95 L100.691 1190.95 L100.691 1187.01 Z" fill="#000000" fill-rule="nonzero" fill-opacity="1" /><path clip-path="url(#clip710)" d="M65.0198 846.685 Q61.4087 846.685 59.58 850.25 Q57.7745 853.792 57.7745 860.921 Q57.7745 868.028 59.58 871.593 Q61.4087 875.134 65.0198 875.134 Q68.6541 875.134 70.4596 871.593 Q72.2883 868.028 72.2883 860.921 Q72.2883 853.792 70.4596 850.25 Q68.6541 846.685 65.0198 846.685 M65.0198 842.982 Q70.83 842.982 73.8855 847.588 Q76.9642 852.171 76.9642 860.921 Q76.9642 869.648 73.8855 874.255 Q70.83 878.838 65.0198 878.838 Q59.2097 878.838 56.131 874.255 Q53.0754 869.648 53.0754 860.921 Q53.0754 852.171 56.131 847.588 Q59.2097 842.982 65.0198 842.982 Z" fill="#000000" fill-rule="nonzero" fill-opacity="1" /><path clip-path="url(#clip710)" d="M85.1818 872.287 L90.066 872.287 L90.066 878.167 L85.1818 878.167 L85.1818 872.287 Z" fill="#000000" fill-rule="nonzero" fill-opacity="1" /><path clip-path="url(#clip710)" d="M104.279 874.232 L120.598 874.232 L120.598 878.167 L98.6539 878.167 L98.6539 874.232 Q101.316 871.477 105.899 866.847 Q110.506 862.195 111.686 860.852 Q113.932 858.329 114.811 856.593 Q115.714 854.833 115.714 853.144 Q115.714 850.389 113.77 848.653 Q111.848 846.917 108.746 846.917 Q106.547 846.917 104.094 847.681 Q101.663 848.445 98.8854 849.996 L98.8854 845.273 Q101.709 844.139 104.163 843.56 Q106.617 842.982 108.654 842.982 Q114.024 842.982 117.219 845.667 Q120.413 848.352 120.413 852.843 Q120.413 854.972 119.603 856.894 Q118.816 858.792 116.709 861.384 Q116.131 862.056 113.029 865.273 Q109.927 868.468 104.279 874.232 Z" fill="#000000" fill-rule="nonzero" fill-opacity="1" /><path clip-path="url(#clip710)" d="M64.0708 533.905 Q60.4597 533.905 58.631 537.47 Q56.8254 541.011 56.8254 548.141 Q56.8254 555.247 58.631 558.812 Q60.4597 562.354 64.0708 562.354 Q67.705 562.354 69.5105 558.812 Q71.3392 555.247 71.3392 548.141 Q71.3392 541.011 69.5105 537.47 Q67.705 533.905 64.0708 533.905 M64.0708 530.201 Q69.8809 530.201 72.9365 534.808 Q76.0151 539.391 76.0151 548.141 Q76.0151 556.868 72.9365 561.474 Q69.8809 566.057 64.0708 566.057 Q58.2606 566.057 55.1819 561.474 Q52.1264 556.868 52.1264 548.141 Q52.1264 539.391 55.1819 534.808 Q58.2606 530.201 64.0708 530.201 Z" fill="#000000" fill-rule="nonzero" fill-opacity="1" /><path clip-path="url(#clip710)" d="M84.2327 559.507 L89.1169 559.507 L89.1169 565.386 L84.2327 565.386 L84.2327 559.507 Z" fill="#000000" fill-rule="nonzero" fill-opacity="1" /><path clip-path="url(#clip710)" d="M113.469 546.752 Q116.825 547.47 118.7 549.738 Q120.598 552.007 120.598 555.34 Q120.598 560.456 117.08 563.256 Q113.561 566.057 107.08 566.057 Q104.904 566.057 102.589 565.618 Q100.297 565.201 97.8437 564.344 L97.8437 559.831 Q99.7882 560.965 102.103 561.544 Q104.418 562.122 106.941 562.122 Q111.339 562.122 113.631 560.386 Q115.945 558.65 115.945 555.34 Q115.945 552.284 113.793 550.571 Q111.663 548.835 107.844 548.835 L103.816 548.835 L103.816 544.993 L108.029 544.993 Q111.478 544.993 113.307 543.627 Q115.135 542.238 115.135 539.646 Q115.135 536.983 113.237 535.571 Q111.362 534.136 107.844 534.136 Q105.922 534.136 103.723 534.553 Q101.524 534.97 98.8854 535.849 L98.8854 531.683 Q101.547 530.942 103.862 530.571 Q106.2 530.201 108.26 530.201 Q113.584 530.201 116.686 532.632 Q119.788 535.039 119.788 539.159 Q119.788 542.03 118.145 544.02 Q116.501 545.988 113.469 546.752 Z" fill="#000000" fill-rule="nonzero" fill-opacity="1" /><path clip-path="url(#clip710)" d="M62.9365 221.124 Q59.3254 221.124 57.4967 224.689 Q55.6912 228.231 55.6912 235.36 Q55.6912 242.467 57.4967 246.031 Q59.3254 249.573 62.9365 249.573 Q66.5707 249.573 68.3763 246.031 Q70.205 242.467 70.205 235.36 Q70.205 228.231 68.3763 224.689 Q66.5707 221.124 62.9365 221.124 M62.9365 217.421 Q68.7467 217.421 71.8022 222.027 Q74.8809 226.61 74.8809 235.36 Q74.8809 244.087 71.8022 248.694 Q68.7467 253.277 62.9365 253.277 Q57.1264 253.277 54.0477 248.694 Q50.9921 244.087 50.9921 235.36 Q50.9921 226.61 54.0477 222.027 Q57.1264 217.421 62.9365 217.421 Z" fill="#000000" fill-rule="nonzero" fill-opacity="1" /><path clip-path="url(#clip710)" d="M83.0984 246.726 L87.9827 246.726 L87.9827 252.606 L83.0984 252.606 L83.0984 246.726 Z" fill="#000000" fill-rule="nonzero" fill-opacity="1" /><path clip-path="url(#clip710)" d="M111.015 222.12 L99.2095 240.569 L111.015 240.569 L111.015 222.12 M109.788 218.046 L115.668 218.046 L115.668 240.569 L120.598 240.569 L120.598 244.457 L115.668 244.457 L115.668 252.606 L111.015 252.606 L111.015 244.457 L95.4132 244.457 L95.4132 239.944 L109.788 218.046 Z" fill="#000000" fill-rule="nonzero" fill-opacity="1" /><path clip-path="url(#clip712)" d="M705.638 1203.09 L705.638 1486.45 L842.898 1486.45 L842.898 1203.09 L705.638 1203.09 L705.638 1203.09  Z" fill="#009af9" fill-rule="evenodd" fill-opacity="1"/>
<polyline clip-path="url(#clip712)" style="stroke:#000000; stroke-linecap:round; stroke-linejoin:round; stroke-width:4; stroke-opacity:1; fill:none" points="705.638,1203.09 705.638,1486.45 842.898,1486.45 842.898,1203.09 705.638,1203.09 "/>
<path clip-path="url(#clip712)" d="M842.898 759.896 L842.898 1486.45 L980.157 1486.45 L980.157 759.896 L842.898 759.896 L842.898 759.896  Z" fill="#009af9" fill-rule="evenodd" fill-opacity="1"/>
<polyline clip-path="url(#clip712)" style="stroke:#000000; stroke-linecap:round; stroke-linejoin:round; stroke-width:4; stroke-opacity:1; fill:none" points="842.898,759.896 842.898,1486.45 980.157,1486.45 980.157,759.896 842.898,759.896 "/>
<path clip-path="url(#clip712)" d="M980.157 570.992 L980.157 1486.45 L1117.42 1486.45 L1117.42 570.992 L980.157 570.992 L980.157 570.992  Z" fill="#009af9" fill-rule="evenodd" fill-opacity="1"/>
<polyline clip-path="url(#clip712)" style="stroke:#000000; stroke-linecap:round; stroke-linejoin:round; stroke-width:4; stroke-opacity:1; fill:none" points="980.157,570.992 980.157,1486.45 1117.42,1486.45 1117.42,570.992 980.157,570.992 "/>
<path clip-path="url(#clip712)" d="M1117.42 113.265 L1117.42 1486.45 L1254.68 1486.45 L1254.68 113.265 L1117.42 113.265 L1117.42 113.265  Z" fill="#009af9" fill-rule="evenodd" fill-opacity="1"/>
<polyline clip-path="url(#clip712)" style="stroke:#000000; stroke-linecap:round; stroke-linejoin:round; stroke-width:4; stroke-opacity:1; fill:none" points="1117.42,113.265 1117.42,1486.45 1254.68,1486.45 1254.68,113.265 1117.42,113.265 "/>
<path clip-path="url(#clip712)" d="M1254.68 309.434 L1254.68 1486.45 L1391.94 1486.45 L1391.94 309.434 L1254.68 309.434 L1254.68 309.434  Z" fill="#009af9" fill-rule="evenodd" fill-opacity="1"/>
<polyline clip-path="url(#clip712)" style="stroke:#000000; stroke-linecap:round; stroke-linejoin:round; stroke-width:4; stroke-opacity:1; fill:none" points="1254.68,309.434 1254.68,1486.45 1391.94,1486.45 1391.94,309.434 1254.68,309.434 "/>
<path clip-path="url(#clip712)" d="M1391.94 665.444 L1391.94 1486.45 L1529.2 1486.45 L1529.2 665.444 L1391.94 665.444 L1391.94 665.444  Z" fill="#009af9" fill-rule="evenodd" fill-opacity="1"/>
<polyline clip-path="url(#clip712)" style="stroke:#000000; stroke-linecap:round; stroke-linejoin:round; stroke-width:4; stroke-opacity:1; fill:none" points="1391.94,665.444 1391.94,1486.45 1529.2,1486.45 1529.2,665.444 1391.94,665.444 "/>
<path clip-path="url(#clip712)" d="M1529.2 1006.92 L1529.2 1486.45 L1666.46 1486.45 L1666.46 1006.92 L1529.2 1006.92 L1529.2 1006.92  Z" fill="#009af9" fill-rule="evenodd" fill-opacity="1"/>
<polyline clip-path="url(#clip712)" style="stroke:#000000; stroke-linecap:round; stroke-linejoin:round; stroke-width:4; stroke-opacity:1; fill:none" points="1529.2,1006.92 1529.2,1486.45 1666.46,1486.45 1666.46,1006.92 1529.2,1006.92 "/>
<path clip-path="url(#clip712)" d="M1666.46 1253.95 L1666.46 1486.45 L1803.72 1486.45 L1803.72 1253.95 L1666.46 1253.95 L1666.46 1253.95  Z" fill="#009af9" fill-rule="evenodd" fill-opacity="1"/>
<polyline clip-path="url(#clip712)" style="stroke:#000000; stroke-linecap:round; stroke-linejoin:round; stroke-width:4; stroke-opacity:1; fill:none" points="1666.46,1253.95 1666.46,1486.45 1803.72,1486.45 1803.72,1253.95 1666.46,1253.95 "/>
<path clip-path="url(#clip712)" d="M1803.72 1355.67 L1803.72 1486.45 L1940.98 1486.45 L1940.98 1355.67 L1803.72 1355.67 L1803.72 1355.67  Z" fill="#009af9" fill-rule="evenodd" fill-opacity="1"/>
<polyline clip-path="url(#clip712)" style="stroke:#000000; stroke-linecap:round; stroke-linejoin:round; stroke-width:4; stroke-opacity:1; fill:none" points="1803.72,1355.67 1803.72,1486.45 1940.98,1486.45 1940.98,1355.67 1803.72,1355.67 "/>
<path clip-path="url(#clip712)" d="M1940.98 1392 L1940.98 1486.45 L2078.24 1486.45 L2078.24 1392 L1940.98 1392 L1940.98 1392  Z" fill="#009af9" fill-rule="evenodd" fill-opacity="1"/>
<polyline clip-path="url(#clip712)" style="stroke:#000000; stroke-linecap:round; stroke-linejoin:round; stroke-width:4; stroke-opacity:1; fill:none" points="1940.98,1392 1940.98,1486.45 2078.24,1486.45 2078.24,1392 1940.98,1392 "/>
<path clip-path="url(#clip712)" d="M2078.24 1464.65 L2078.24 1486.45 L2215.5 1486.45 L2215.5 1464.65 L2078.24 1464.65 L2078.24 1464.65  Z" fill="#009af9" fill-rule="evenodd" fill-opacity="1"/>
<polyline clip-path="url(#clip712)" style="stroke:#000000; stroke-linecap:round; stroke-linejoin:round; stroke-width:4; stroke-opacity:1; fill:none" points="2078.24,1464.65 2078.24,1486.45 2215.5,1486.45 2215.5,1464.65 2078.24,1464.65 "/>
<circle clip-path="url(#clip712)" style="fill:#009af9; stroke:none; fill-opacity:0" cx="774.268" cy="1203.09" r="2"/>
<circle clip-path="url(#clip712)" style="fill:#009af9; stroke:none; fill-opacity:0" cx="911.527" cy="759.896" r="2"/>
<circle clip-path="url(#clip712)" style="fill:#009af9; stroke:none; fill-opacity:0" cx="1048.79" cy="570.992" r="2"/>
<circle clip-path="url(#clip712)" style="fill:#009af9; stroke:none; fill-opacity:0" cx="1186.05" cy="113.265" r="2"/>
<circle clip-path="url(#clip712)" style="fill:#009af9; stroke:none; fill-opacity:0" cx="1323.31" cy="309.434" r="2"/>
<circle clip-path="url(#clip712)" style="fill:#009af9; stroke:none; fill-opacity:0" cx="1460.57" cy="665.444" r="2"/>
<circle clip-path="url(#clip712)" style="fill:#009af9; stroke:none; fill-opacity:0" cx="1597.83" cy="1006.92" r="2"/>
<circle clip-path="url(#clip712)" style="fill:#009af9; stroke:none; fill-opacity:0" cx="1735.09" cy="1253.95" r="2"/>
<circle clip-path="url(#clip712)" style="fill:#009af9; stroke:none; fill-opacity:0" cx="1872.35" cy="1355.67" r="2"/>
<circle clip-path="url(#clip712)" style="fill:#009af9; stroke:none; fill-opacity:0" cx="2009.61" cy="1392" r="2"/>
<circle clip-path="url(#clip712)" style="fill:#009af9; stroke:none; fill-opacity:0" cx="2146.87" cy="1464.65" r="2"/>
<polyline clip-path="url(#clip712)" style="stroke:#ffffff; stroke-linecap:round; stroke-linejoin:round; stroke-width:12; stroke-opacity:1; fill:none" points="-292.504,1486.45 -276.663,1486.45 -260.822,1486.45 -244.98,1486.45 -229.139,1486.45 -213.298,1486.45 -197.456,1486.45 -181.615,1486.45 -165.773,1486.45 -149.932,1486.45 -134.091,1486.45 -118.249,1486.45 -102.408,1486.45 -86.5666,1486.44 -70.7252,1486.44 -54.8838,1486.44 -39.0425,1486.44 -23.2011,1486.44 -7.35973,1486.43 8.48164,1486.43 24.323,1486.43 40.1644,1486.42 56.0057,1486.4 71.8471,1486.38 87.6885,1486.39 103.53,1486.38 119.371,1486.34 135.213,1486.31 151.054,1486.27 166.895,1486.2 182.737,1486.16 198.578,1486.09 214.419,1486 230.261,1485.87 246.102,1485.72 261.944,1485.57 277.785,1485.38 293.626,1485.12 309.468,1484.79 325.309,1484.42 341.15,1484.02 356.992,1483.48 372.833,1482.84 388.675,1482.04 404.516,1481.13 420.357,1480.16 436.199,1478.9 452.04,1477.35 467.881,1475.79 483.723,1473.77 499.564,1471.39 515.405,1468.77 531.247,1465.48 547.088,1461.64 562.93,1457.02 578.771,1451.81 594.612,1446.3 610.454,1439.56 626.295,1431.54 642.136,1422.26 657.978,1412.44 673.819,1400.74 689.661,1387.84 705.502,1372.75 721.343,1355.9 737.185,1337.08 753.026,1316.21 768.867,1293.3 784.709,1267.65 800.55,1239.34 816.392,1209.35 832.233,1176.21 848.074,1138.54 863.916,1099.9 879.757,1057.96 895.598,1013.28 911.44,965.429 927.281,915.738 943.122,862.337 958.964,807.43 974.805,751.473 990.647,694.562 1006.49,635.827 1022.33,575.377 1038.17,516.566 1054.01,458.99 1069.85,402.256 1085.69,347.856 1101.54,295.295 1117.38,245.249 1133.22,200.164 1149.06,159.977 1164.9,124.101 1180.74,95.7845 1196.58,73.8694 1212.43,58.2449 1228.27,49.5194 1244.11,47.2441 1259.95,54.9091 1275.79,71.6399 1291.63,92.0193 1307.47,118.434 1323.32,153.008 1339.16,194.23 1355,239.928 1370.84,288.261 1386.68,339.264 1402.52,394.668 1418.36,455.355 1434.2,513.106 1450.05,571.554 1465.89,630.535 1481.73,686.542 1497.57,742.243 1513.41,795.202 1529.25,845.196 1545.09,892.836 1560.94,937.177 1576.78,978.366 1592.62,1017.77 1608.46,1054.97 1624.3,1088.01 1640.14,1117.92 1655.98,1146.16 1671.83,1172.42 1687.67,1196.69 1703.51,1218.56 1719.35,1239.36 1735.19,1258.6 1751.03,1276.58 1766.87,1293.16 1782.72,1308.04 1798.56,1322.96 1814.4,1337.11 1830.24,1349.79 1846.08,1361.87 1861.92,1373.15 1877.76,1383.9 1893.6,1394.29 1909.45,1403.61 1925.29,1412.8 1941.13,1421.38 1956.97,1429.06 1972.81,1436.18 1988.65,1442.26 2004.49,1448.17 2020.34,1453.57 2036.18,1458.22 2052.02,1462.08 2067.86,1465.69 2083.7,1468.79 2099.54,1471.67 2115.38,1474.17 2131.23,1476.2 2147.07,1478.07 2162.91,1479.48 2178.75,1480.67 2194.59,1481.69 2210.43,1482.69 2226.27,1483.45 2242.11,1484.08 2257.96,1484.56 2273.8,1484.89 2289.64,1485.25 2305.48,1485.55 2321.32,1485.75 2337.16,1485.88 2353,1485.98 2368.85,1486.07 2384.69,1486.15 2400.53,1486.24 2416.37,1486.29 2432.21,1486.32 2448.05,1486.34 2463.89,1486.36 2479.74,1486.39 2495.58,1486.41 2511.42,1486.42 2527.26,1486.42 2543.1,1486.43 2558.94,1486.44 2574.78,1486.44 2590.62,1486.44 2606.47,1486.44 2622.31,1486.44 2638.15,1486.44 2653.99,1486.44 2669.83,1486.45 2685.67,1486.45 2701.51,1486.45 2717.36,1486.45 2733.2,1486.45 2749.04,1486.45 2764.88,1486.45 2780.72,1486.45 2796.56,1486.45 2812.4,1486.45 2828.25,1486.45 2844.09,1486.45 2859.93,1486.45 "/>
<path clip-path="url(#clip712)" d="M-292.504 1486.45 L-276.663 1486.45 L-260.822 1486.45 L-244.98 1486.45 L-229.139 1486.45 L-213.298 1486.45 L-197.456 1486.45 L-181.615 1486.45 L-165.773 1486.45 L-149.932 1486.45 L-134.091 1486.45 L-118.249 1486.45 L-102.408 1486.45 L-86.5666 1486.44 L-70.7252 1486.44 L-54.8838 1486.44 L-39.0425 1486.44 L-23.2011 1486.44 L-7.35973 1486.43 L8.48164 1486.43 L24.323 1486.43 L40.1644 1486.42 L56.0057 1486.4 L71.8471 1486.38 L87.6885 1486.39 L103.53 1486.38 L119.371 1486.34 L135.213 1486.31 L151.054 1486.27 L166.895 1486.2 L182.737 1486.16 L198.578 1486.09 L214.419 1486 L230.261 1485.87 L246.102 1485.72 L261.944 1485.57 L277.785 1485.38 L293.626 1485.12 L309.468 1484.79 L325.309 1484.42 L341.15 1484.02 L356.992 1483.48 L372.833 1482.84 L388.675 1482.04 L404.516 1481.13 L420.357 1480.16 L436.199 1478.9 L452.04 1477.35 L467.881 1475.79 L483.723 1473.77 L499.564 1471.39 L515.405 1468.77 L531.247 1465.48 L547.088 1461.64 L562.93 1457.02 L578.771 1451.81 L594.612 1446.3 L610.454 1439.56 L626.295 1431.54 L642.136 1422.26 L657.978 1412.44 L673.819 1400.74 L689.661 1387.84 L705.502 1372.75 L721.343 1355.9 L737.185 1337.08 L753.026 1316.21 L768.867 1293.3 L784.709 1267.65 L800.55 1239.34 L816.392 1209.35 L832.233 1176.21 L848.074 1138.54 L863.916 1099.9 L879.757 1057.96 L895.598 1013.28 L911.44 965.429 L927.281 915.738 L943.122 862.337 L958.964 807.43 L974.805 751.473 L990.647 694.562 L1006.49 635.827 L1022.33 575.377 L1038.17 516.566 L1054.01 458.99 L1069.85 402.256 L1085.69 347.856 L1101.54 295.295 L1117.38 245.249 L1133.22 200.164 L1149.06 159.977 L1164.9 124.101 L1180.74 95.7845 L1196.58 73.8694 L1212.43 58.2449 L1228.27 49.5194 L1244.11 47.2441 L1259.95 54.9091 L1275.79 71.6399 L1291.63 92.0193 L1307.47 118.434 L1323.32 153.008 L1339.16 194.23 L1355 239.928 L1370.84 288.261 L1386.68 339.264 L1402.52 394.668 L1418.36 455.355 L1434.2 513.106 L1450.05 571.554 L1465.89 630.535 L1481.73 686.542 L1497.57 742.243 L1513.41 795.202 L1529.25 845.196 L1545.09 892.836 L1560.94 937.177 L1576.78 978.366 L1592.62 1017.77 L1608.46 1054.97 L1624.3 1088.01 L1640.14 1117.92 L1655.98 1146.16 L1671.83 1172.42 L1687.67 1196.69 L1703.51 1218.56 L1719.35 1239.36 L1735.19 1258.6 L1751.03 1276.58 L1766.87 1293.16 L1782.72 1308.04 L1798.56 1322.96 L1814.4 1337.11 L1830.24 1349.79 L1846.08 1361.87 L1861.92 1373.15 L1877.76 1383.9 L1893.6 1394.29 L1909.45 1403.61 L1925.29 1412.8 L1941.13 1421.38 L1956.97 1429.06 L1972.81 1436.18 L1988.65 1442.26 L2004.49 1448.17 L2020.34 1453.57 L2036.18 1458.22 L2052.02 1462.08 L2067.86 1465.69 L2083.7 1468.79 L2099.54 1471.67 L2115.38 1474.17 L2131.23 1476.2 L2147.07 1478.07 L2162.91 1479.48 L2178.75 1480.67 L2194.59 1481.69 L2210.43 1482.69 L2226.27 1483.45 L2242.11 1484.08 L2257.96 1484.56 L2273.8 1484.89 L2289.64 1485.25 L2305.48 1485.55 L2321.32 1485.75 L2337.16 1485.88 L2353 1485.98 L2368.85 1486.07 L2384.69 1486.15 L2400.53 1486.24 L2416.37 1486.29 L2432.21 1486.32 L2448.05 1486.34 L2463.89 1486.36 L2479.74 1486.39 L2495.58 1486.41 L2511.42 1486.42 L2527.26 1486.42 L2543.1 1486.43 L2558.94 1486.44 L2574.78 1486.44 L2590.62 1486.44 L2606.47 1486.44 L2622.31 1486.44 L2638.15 1486.44 L2653.99 1486.44 L2669.83 1486.45 L2685.67 1486.45 L2701.51 1486.45 L2717.36 1486.45 L2733.2 1486.45 L2749.04 1486.45 L2764.88 1486.45 L2780.72 1486.45 L2796.56 1486.45 L2812.4 1486.45 L2828.25 1486.45 L2844.09 1486.45 L2859.93 1486.45 L2859.93 1486.45 L2844.09 1486.45 L2828.25 1486.45 L2812.4 1486.45 L2796.56 1486.45 L2780.72 1486.45 L2764.88 1486.45 L2749.04 1486.45 L2733.2 1486.45 L2717.36 1486.45 L2701.51 1486.45 L2685.67 1486.45 L2669.83 1486.45 L2653.99 1486.45 L2638.15 1486.45 L2622.31 1486.45 L2606.47 1486.45 L2590.62 1486.45 L2574.78 1486.45 L2558.94 1486.45 L2543.1 1486.45 L2527.26 1486.45 L2511.42 1486.45 L2495.58 1486.45 L2479.74 1486.45 L2463.89 1486.45 L2448.05 1486.45 L2432.21 1486.45 L2416.37 1486.45 L2400.53 1486.45 L2384.69 1486.45 L2368.85 1486.45 L2353 1486.45 L2337.16 1486.45 L2321.32 1486.45 L2305.48 1486.45 L2289.64 1486.45 L2273.8 1486.45 L2257.96 1486.45 L2242.11 1486.45 L2226.27 1486.45 L2210.43 1486.45 L2194.59 1486.45 L2178.75 1486.45 L2162.91 1486.45 L2147.07 1486.45 L2131.23 1486.45 L2115.38 1486.45 L2099.54 1486.45 L2083.7 1486.45 L2067.86 1486.45 L2052.02 1486.45 L2036.18 1486.45 L2020.34 1486.45 L2004.49 1486.45 L1988.65 1486.45 L1972.81 1486.45 L1956.97 1486.45 L1941.13 1486.45 L1925.29 1486.45 L1909.45 1486.45 L1893.6 1486.45 L1877.76 1486.45 L1861.92 1486.45 L1846.08 1486.45 L1830.24 1486.45 L1814.4 1486.45 L1798.56 1486.45 L1782.72 1486.45 L1766.87 1486.45 L1751.03 1486.45 L1735.19 1486.45 L1719.35 1486.45 L1703.51 1486.45 L1687.67 1486.45 L1671.83 1486.45 L1655.98 1486.45 L1640.14 1486.45 L1624.3 1486.45 L1608.46 1486.45 L1592.62 1486.45 L1576.78 1486.45 L1560.94 1486.45 L1545.09 1486.45 L1529.25 1486.45 L1513.41 1486.45 L1497.57 1486.45 L1481.73 1486.45 L1465.89 1486.45 L1450.05 1486.45 L1434.2 1486.45 L1418.36 1486.45 L1402.52 1486.45 L1386.68 1486.45 L1370.84 1486.45 L1355 1486.45 L1339.16 1486.45 L1323.32 1486.45 L1307.47 1486.45 L1291.63 1486.45 L1275.79 1486.45 L1259.95 1486.45 L1244.11 1486.45 L1228.27 1486.45 L1212.43 1486.45 L1196.58 1486.45 L1180.74 1486.45 L1164.9 1486.45 L1149.06 1486.45 L1133.22 1486.45 L1117.38 1486.45 L1101.54 1486.45 L1085.69 1486.45 L1069.85 1486.45 L1054.01 1486.45 L1038.17 1486.45 L1022.33 1486.45 L1006.49 1486.45 L990.647 1486.45 L974.805 1486.45 L958.964 1486.45 L943.122 1486.45 L927.281 1486.45 L911.44 1486.45 L895.598 1486.45 L879.757 1486.45 L863.916 1486.45 L848.074 1486.45 L832.233 1486.45 L816.392 1486.45 L800.55 1486.45 L784.709 1486.45 L768.867 1486.45 L753.026 1486.45 L737.185 1486.45 L721.343 1486.45 L705.502 1486.45 L689.661 1486.45 L673.819 1486.45 L657.978 1486.45 L642.136 1486.45 L626.295 1486.45 L610.454 1486.45 L594.612 1486.45 L578.771 1486.45 L562.93 1486.45 L547.088 1486.45 L531.247 1486.45 L515.405 1486.45 L499.564 1486.45 L483.723 1486.45 L467.881 1486.45 L452.04 1486.45 L436.199 1486.45 L420.357 1486.45 L404.516 1486.45 L388.675 1486.45 L372.833 1486.45 L356.992 1486.45 L341.15 1486.45 L325.309 1486.45 L309.468 1486.45 L293.626 1486.45 L277.785 1486.45 L261.944 1486.45 L246.102 1486.45 L230.261 1486.45 L214.419 1486.45 L198.578 1486.45 L182.737 1486.45 L166.895 1486.45 L151.054 1486.45 L135.213 1486.45 L119.371 1486.45 L103.53 1486.45 L87.6885 1486.45 L71.8471 1486.45 L56.0057 1486.45 L40.1644 1486.45 L24.323 1486.45 L8.48164 1486.45 L-7.35973 1486.45 L-23.2011 1486.45 L-39.0425 1486.45 L-54.8838 1486.45 L-70.7252 1486.45 L-86.5666 1486.45 L-102.408 1486.45 L-118.249 1486.45 L-134.091 1486.45 L-149.932 1486.45 L-165.773 1486.45 L-181.615 1486.45 L-197.456 1486.45 L-213.298 1486.45 L-229.139 1486.45 L-244.98 1486.45 L-260.822 1486.45 L-276.663 1486.45 L-292.504 1486.45  Z" fill="#e26f46" fill-rule="evenodd" fill-opacity="0.2"/>
<polyline clip-path="url(#clip712)" style="stroke:#e26f46; stroke-linecap:round; stroke-linejoin:round; stroke-width:4; stroke-opacity:1; fill:none" points="-292.504,1486.45 -276.663,1486.45 -260.822,1486.45 -244.98,1486.45 -229.139,1486.45 -213.298,1486.45 -197.456,1486.45 -181.615,1486.45 -165.773,1486.45 -149.932,1486.45 -134.091,1486.45 -118.249,1486.45 -102.408,1486.45 -86.5666,1486.44 -70.7252,1486.44 -54.8838,1486.44 -39.0425,1486.44 -23.2011,1486.44 -7.35973,1486.43 8.48164,1486.43 24.323,1486.43 40.1644,1486.42 56.0057,1486.4 71.8471,1486.38 87.6885,1486.39 103.53,1486.38 119.371,1486.34 135.213,1486.31 151.054,1486.27 166.895,1486.2 182.737,1486.16 198.578,1486.09 214.419,1486 230.261,1485.87 246.102,1485.72 261.944,1485.57 277.785,1485.38 293.626,1485.12 309.468,1484.79 325.309,1484.42 341.15,1484.02 356.992,1483.48 372.833,1482.84 388.675,1482.04 404.516,1481.13 420.357,1480.16 436.199,1478.9 452.04,1477.35 467.881,1475.79 483.723,1473.77 499.564,1471.39 515.405,1468.77 531.247,1465.48 547.088,1461.64 562.93,1457.02 578.771,1451.81 594.612,1446.3 610.454,1439.56 626.295,1431.54 642.136,1422.26 657.978,1412.44 673.819,1400.74 689.661,1387.84 705.502,1372.75 721.343,1355.9 737.185,1337.08 753.026,1316.21 768.867,1293.3 784.709,1267.65 800.55,1239.34 816.392,1209.35 832.233,1176.21 848.074,1138.54 863.916,1099.9 879.757,1057.96 895.598,1013.28 911.44,965.429 927.281,915.738 943.122,862.337 958.964,807.43 974.805,751.473 990.647,694.562 1006.49,635.827 1022.33,575.377 1038.17,516.566 1054.01,458.99 1069.85,402.256 1085.69,347.856 1101.54,295.295 1117.38,245.249 1133.22,200.164 1149.06,159.977 1164.9,124.101 1180.74,95.7845 1196.58,73.8694 1212.43,58.2449 1228.27,49.5194 1244.11,47.2441 1259.95,54.9091 1275.79,71.6399 1291.63,92.0193 1307.47,118.434 1323.32,153.008 1339.16,194.23 1355,239.928 1370.84,288.261 1386.68,339.264 1402.52,394.668 1418.36,455.355 1434.2,513.106 1450.05,571.554 1465.89,630.535 1481.73,686.542 1497.57,742.243 1513.41,795.202 1529.25,845.196 1545.09,892.836 1560.94,937.177 1576.78,978.366 1592.62,1017.77 1608.46,1054.97 1624.3,1088.01 1640.14,1117.92 1655.98,1146.16 1671.83,1172.42 1687.67,1196.69 1703.51,1218.56 1719.35,1239.36 1735.19,1258.6 1751.03,1276.58 1766.87,1293.16 1782.72,1308.04 1798.56,1322.96 1814.4,1337.11 1830.24,1349.79 1846.08,1361.87 1861.92,1373.15 1877.76,1383.9 1893.6,1394.29 1909.45,1403.61 1925.29,1412.8 1941.13,1421.38 1956.97,1429.06 1972.81,1436.18 1988.65,1442.26 2004.49,1448.17 2020.34,1453.57 2036.18,1458.22 2052.02,1462.08 2067.86,1465.69 2083.7,1468.79 2099.54,1471.67 2115.38,1474.17 2131.23,1476.2 2147.07,1478.07 2162.91,1479.48 2178.75,1480.67 2194.59,1481.69 2210.43,1482.69 2226.27,1483.45 2242.11,1484.08 2257.96,1484.56 2273.8,1484.89 2289.64,1485.25 2305.48,1485.55 2321.32,1485.75 2337.16,1485.88 2353,1485.98 2368.85,1486.07 2384.69,1486.15 2400.53,1486.24 2416.37,1486.29 2432.21,1486.32 2448.05,1486.34 2463.89,1486.36 2479.74,1486.39 2495.58,1486.41 2511.42,1486.42 2527.26,1486.42 2543.1,1486.43 2558.94,1486.44 2574.78,1486.44 2590.62,1486.44 2606.47,1486.44 2622.31,1486.44 2638.15,1486.44 2653.99,1486.44 2669.83,1486.45 2685.67,1486.45 2701.51,1486.45 2717.36,1486.45 2733.2,1486.45 2749.04,1486.45 2764.88,1486.45 2780.72,1486.45 2796.56,1486.45 2812.4,1486.45 2828.25,1486.45 2844.09,1486.45 2859.93,1486.45 "/>
</svg>
