<?xml version="1.0" encoding="utf-8"?>
<svg xmlns="http://www.w3.org/2000/svg" xmlns:xlink="http://www.w3.org/1999/xlink" width="600" height="400" viewBox="0 0 2400 1600">
<defs>
  <clipPath id="clip540">
    <rect x="0" y="0" width="2400" height="1600"/>
  </clipPath>
</defs>
<path clip-path="url(#clip540)" d="M0 1600 L2400 1600 L2400 0 L0 0  Z" fill="#ffffff" fill-rule="evenodd" fill-opacity="1"/>
<defs>
  <clipPath id="clip541">
    <rect x="480" y="0" width="1681" height="1600"/>
  </clipPath>
</defs>
<path clip-path="url(#clip540)" d="M219.866 1423.18 L2352.76 1423.18 L2352.76 123.472 L219.866 123.472  Z" fill="#ffffff" fill-rule="evenodd" fill-opacity="1"/>
<defs>
  <clipPath id="clip542">
    <rect x="219" y="123" width="2134" height="1301"/>
  </clipPath>
</defs>
<polyline clip-path="url(#clip542)" style="stroke:#000000; stroke-linecap:round; stroke-linejoin:round; stroke-width:2; stroke-opacity:0.1; fill:none" points="219.866,1423.18 219.866,123.472 "/>
<polyline clip-path="url(#clip542)" style="stroke:#000000; stroke-linecap:round; stroke-linejoin:round; stroke-width:2; stroke-opacity:0.1; fill:none" points="753.089,1423.18 753.089,123.472 "/>
<polyline clip-path="url(#clip542)" style="stroke:#000000; stroke-linecap:round; stroke-linejoin:round; stroke-width:2; stroke-opacity:0.1; fill:none" points="1286.31,1423.18 1286.31,123.472 "/>
<polyline clip-path="url(#clip542)" style="stroke:#000000; stroke-linecap:round; stroke-linejoin:round; stroke-width:2; stroke-opacity:0.1; fill:none" points="1819.53,1423.18 1819.53,123.472 "/>
<polyline clip-path="url(#clip542)" style="stroke:#000000; stroke-linecap:round; stroke-linejoin:round; stroke-width:2; stroke-opacity:0.1; fill:none" points="2352.76,1423.18 2352.76,123.472 "/>
<polyline clip-path="url(#clip540)" style="stroke:#000000; stroke-linecap:round; stroke-linejoin:round; stroke-width:4; stroke-opacity:1; fill:none" points="219.866,1423.18 2352.76,1423.18 "/>
<polyline clip-path="url(#clip540)" style="stroke:#000000; stroke-linecap:round; stroke-linejoin:round; stroke-width:4; stroke-opacity:1; fill:none" points="219.866,1423.18 219.866,1404.28 "/>
<polyline clip-path="url(#clip540)" style="stroke:#000000; stroke-linecap:round; stroke-linejoin:round; stroke-width:4; stroke-opacity:1; fill:none" points="753.089,1423.18 753.089,1404.28 "/>
<polyline clip-path="url(#clip540)" style="stroke:#000000; stroke-linecap:round; stroke-linejoin:round; stroke-width:4; stroke-opacity:1; fill:none" points="1286.31,1423.18 1286.31,1404.28 "/>
<polyline clip-path="url(#clip540)" style="stroke:#000000; stroke-linecap:round; stroke-linejoin:round; stroke-width:4; stroke-opacity:1; fill:none" points="1819.53,1423.18 1819.53,1404.28 "/>
<polyline clip-path="url(#clip540)" style="stroke:#000000; stroke-linecap:round; stroke-linejoin:round; stroke-width:4; stroke-opacity:1; fill:none" points="2352.76,1423.18 2352.76,1404.28 "/>
<path clip-path="url(#clip540)" d="M188.767 1468.75 L218.443 1468.75 L218.443 1472.69 L188.767 1472.69 L188.767 1468.75 Z" fill="#000000" fill-rule="nonzero" fill-opacity="1" /><path clip-path="url(#clip540)" d="M241.382 1455.09 L229.577 1473.54 L241.382 1473.54 L241.382 1455.09 M240.156 1451.02 L246.035 1451.02 L246.035 1473.54 L250.966 1473.54 L250.966 1477.43 L246.035 1477.43 L246.035 1485.58 L241.382 1485.58 L241.382 1477.43 L225.781 1477.43 L225.781 1472.92 L240.156 1451.02 Z" fill="#000000" fill-rule="nonzero" fill-opacity="1" /><path clip-path="url(#clip540)" d="M723.031 1468.75 L752.707 1468.75 L752.707 1472.69 L723.031 1472.69 L723.031 1468.75 Z" fill="#000000" fill-rule="nonzero" fill-opacity="1" /><path clip-path="url(#clip540)" d="M766.827 1481.64 L783.146 1481.64 L783.146 1485.58 L761.202 1485.58 L761.202 1481.64 Q763.864 1478.89 768.447 1474.26 Q773.054 1469.61 774.234 1468.27 Q776.48 1465.74 777.359 1464.01 Q778.262 1462.25 778.262 1460.56 Q778.262 1457.8 776.318 1456.07 Q774.396 1454.33 771.295 1454.33 Q769.096 1454.33 766.642 1455.09 Q764.211 1455.86 761.434 1457.41 L761.434 1452.69 Q764.258 1451.55 766.711 1450.97 Q769.165 1450.39 771.202 1450.39 Q776.572 1450.39 779.767 1453.08 Q782.961 1455.77 782.961 1460.26 Q782.961 1462.39 782.151 1464.31 Q781.364 1466.2 779.258 1468.8 Q778.679 1469.47 775.577 1472.69 Q772.475 1475.88 766.827 1481.64 Z" fill="#000000" fill-rule="nonzero" fill-opacity="1" /><path clip-path="url(#clip540)" d="M1286.31 1454.1 Q1282.7 1454.1 1280.87 1457.66 Q1279.07 1461.2 1279.07 1468.33 Q1279.07 1475.44 1280.87 1479.01 Q1282.7 1482.55 1286.31 1482.55 Q1289.95 1482.55 1291.75 1479.01 Q1293.58 1475.44 1293.58 1468.33 Q1293.58 1461.2 1291.75 1457.66 Q1289.95 1454.1 1286.31 1454.1 M1286.31 1450.39 Q1292.12 1450.39 1295.18 1455 Q1298.26 1459.58 1298.26 1468.33 Q1298.26 1477.06 1295.18 1481.67 Q1292.12 1486.25 1286.31 1486.25 Q1280.5 1486.25 1277.42 1481.67 Q1274.37 1477.06 1274.37 1468.33 Q1274.37 1459.58 1277.42 1455 Q1280.5 1450.39 1286.31 1450.39 Z" fill="#000000" fill-rule="nonzero" fill-opacity="1" /><path clip-path="url(#clip540)" d="M1814.19 1481.64 L1830.51 1481.64 L1830.51 1485.58 L1808.56 1485.58 L1808.56 1481.64 Q1811.22 1478.89 1815.81 1474.26 Q1820.41 1469.61 1821.59 1468.27 Q1823.84 1465.74 1824.72 1464.01 Q1825.62 1462.25 1825.62 1460.56 Q1825.62 1457.8 1823.68 1456.07 Q1821.76 1454.33 1818.65 1454.33 Q1816.45 1454.33 1814 1455.09 Q1811.57 1455.86 1808.79 1457.41 L1808.79 1452.69 Q1811.62 1451.55 1814.07 1450.97 Q1816.52 1450.39 1818.56 1450.39 Q1823.93 1450.39 1827.13 1453.08 Q1830.32 1455.77 1830.32 1460.26 Q1830.32 1462.39 1829.51 1464.31 Q1828.72 1466.2 1826.62 1468.8 Q1826.04 1469.47 1822.94 1472.69 Q1819.83 1475.88 1814.19 1481.64 Z" fill="#000000" fill-rule="nonzero" fill-opacity="1" /><path clip-path="url(#clip540)" d="M2355.77 1455.09 L2343.96 1473.54 L2355.77 1473.54 L2355.77 1455.09 M2354.54 1451.02 L2360.42 1451.02 L2360.42 1473.54 L2365.35 1473.54 L2365.35 1477.43 L2360.42 1477.43 L2360.42 1485.58 L2355.77 1485.58 L2355.77 1477.43 L2340.16 1477.43 L2340.16 1472.92 L2354.54 1451.02 Z" fill="#000000" fill-rule="nonzero" fill-opacity="1" /><path clip-path="url(#clip540)" d="M885.319 1532.4 L913.137 1532.4 L913.137 1537.74 L891.112 1563.37 L913.137 1563.37 L913.137 1568.04 L884.524 1568.04 L884.524 1562.7 L906.549 1537.07 L885.319 1537.07 L885.319 1532.4 Z" fill="#000000" fill-rule="nonzero" fill-opacity="1" /><path clip-path="url(#clip540)" d="M919.121 1547.58 L936.277 1547.58 L936.277 1552.8 L919.121 1552.8 L919.121 1547.58 Z" fill="#000000" fill-rule="nonzero" fill-opacity="1" /><path clip-path="url(#clip540)" d="M968.328 1533.45 L968.328 1538.98 Q965.845 1537.71 963.172 1537.07 Q960.498 1536.44 957.634 1536.44 Q953.273 1536.44 951.077 1537.77 Q948.913 1539.11 948.913 1541.79 Q948.913 1543.82 950.472 1545 Q952.032 1546.15 956.743 1547.2 L958.748 1547.64 Q964.986 1548.98 967.596 1551.43 Q970.238 1553.85 970.238 1558.21 Q970.238 1563.17 966.291 1566.07 Q962.376 1568.97 955.501 1568.97 Q952.637 1568.97 949.517 1568.39 Q946.43 1567.85 942.993 1566.74 L942.993 1560.69 Q946.239 1562.38 949.39 1563.24 Q952.541 1564.07 955.629 1564.07 Q959.766 1564.07 961.994 1562.66 Q964.222 1561.23 964.222 1558.65 Q964.222 1556.27 962.599 1554.99 Q961.008 1553.72 955.565 1552.54 L953.528 1552.07 Q948.085 1550.92 945.666 1548.56 Q943.247 1546.18 943.247 1542.04 Q943.247 1537.01 946.812 1534.27 Q950.377 1531.54 956.934 1531.54 Q960.18 1531.54 963.045 1532.01 Q965.909 1532.49 968.328 1533.45 Z" fill="#000000" fill-rule="nonzero" fill-opacity="1" /><path clip-path="url(#clip540)" d="M985.356 1522.27 L985.356 1532.4 L997.419 1532.4 L997.419 1536.95 L985.356 1536.95 L985.356 1556.3 Q985.356 1560.66 986.534 1561.9 Q987.744 1563.14 991.404 1563.14 L997.419 1563.14 L997.419 1568.04 L991.404 1568.04 Q984.624 1568.04 982.046 1565.53 Q979.468 1562.98 979.468 1556.3 L979.468 1536.95 L975.171 1536.95 L975.171 1532.4 L979.468 1532.4 L979.468 1522.27 L985.356 1522.27 Z" fill="#000000" fill-rule="nonzero" fill-opacity="1" /><path clip-path="url(#clip540)" d="M1021.32 1550.12 Q1014.22 1550.12 1011.49 1551.75 Q1008.75 1553.37 1008.75 1557.29 Q1008.75 1560.4 1010.79 1562.25 Q1012.86 1564.07 1016.39 1564.07 Q1021.26 1564.07 1024.19 1560.63 Q1027.15 1557.16 1027.15 1551.43 L1027.15 1550.12 L1021.32 1550.12 M1033 1547.71 L1033 1568.04 L1027.15 1568.04 L1027.15 1562.63 Q1025.14 1565.88 1022.15 1567.44 Q1019.16 1568.97 1014.83 1568.97 Q1009.36 1568.97 1006.11 1565.91 Q1002.89 1562.82 1002.89 1557.67 Q1002.89 1551.65 1006.9 1548.6 Q1010.95 1545.54 1018.94 1545.54 L1027.15 1545.54 L1027.15 1544.97 Q1027.15 1540.93 1024.47 1538.73 Q1021.83 1536.5 1017.03 1536.5 Q1013.97 1536.5 1011.07 1537.23 Q1008.18 1537.97 1005.5 1539.43 L1005.5 1534.02 Q1008.72 1532.78 1011.74 1532.17 Q1014.77 1531.54 1017.63 1531.54 Q1025.36 1531.54 1029.18 1535.55 Q1033 1539.56 1033 1547.71 Z" fill="#000000" fill-rule="nonzero" fill-opacity="1" /><path clip-path="url(#clip540)" d="M1074.7 1546.53 L1074.7 1568.04 L1068.84 1568.04 L1068.84 1546.72 Q1068.84 1541.66 1066.87 1539.14 Q1064.9 1536.63 1060.95 1536.63 Q1056.21 1536.63 1053.47 1539.65 Q1050.73 1542.68 1050.73 1547.9 L1050.73 1568.04 L1044.84 1568.04 L1044.84 1532.4 L1050.73 1532.4 L1050.73 1537.93 Q1052.83 1534.72 1055.67 1533.13 Q1058.53 1531.54 1062.25 1531.54 Q1068.4 1531.54 1071.55 1535.36 Q1074.7 1539.14 1074.7 1546.53 Z" fill="#000000" fill-rule="nonzero" fill-opacity="1" /><path clip-path="url(#clip540)" d="M1109.84 1537.81 L1109.84 1518.52 L1115.69 1518.52 L1115.69 1568.04 L1109.84 1568.04 L1109.84 1562.7 Q1107.99 1565.88 1105.16 1567.44 Q1102.36 1568.97 1098.41 1568.97 Q1091.95 1568.97 1087.88 1563.81 Q1083.83 1558.65 1083.83 1550.25 Q1083.83 1541.85 1087.88 1536.69 Q1091.95 1531.54 1098.41 1531.54 Q1102.36 1531.54 1105.16 1533.1 Q1107.99 1534.62 1109.84 1537.81 M1089.88 1550.25 Q1089.88 1556.71 1092.52 1560.4 Q1095.2 1564.07 1099.84 1564.07 Q1104.49 1564.07 1107.16 1560.4 Q1109.84 1556.71 1109.84 1550.25 Q1109.84 1543.79 1107.16 1540.13 Q1104.49 1536.44 1099.84 1536.44 Q1095.2 1536.44 1092.52 1540.13 Q1089.88 1543.79 1089.88 1550.25 Z" fill="#000000" fill-rule="nonzero" fill-opacity="1" /><path clip-path="url(#clip540)" d="M1143.96 1550.12 Q1136.86 1550.12 1134.12 1551.75 Q1131.39 1553.37 1131.39 1557.29 Q1131.39 1560.4 1133.42 1562.25 Q1135.49 1564.07 1139.02 1564.07 Q1143.89 1564.07 1146.82 1560.63 Q1149.78 1557.16 1149.78 1551.43 L1149.78 1550.12 L1143.96 1550.12 M1155.64 1547.71 L1155.64 1568.04 L1149.78 1568.04 L1149.78 1562.63 Q1147.78 1565.88 1144.79 1567.44 Q1141.79 1568.97 1137.46 1568.97 Q1131.99 1568.97 1128.74 1565.91 Q1125.53 1562.82 1125.53 1557.67 Q1125.53 1551.65 1129.54 1548.6 Q1133.58 1545.54 1141.57 1545.54 L1149.78 1545.54 L1149.78 1544.97 Q1149.78 1540.93 1147.11 1538.73 Q1144.47 1536.5 1139.66 1536.5 Q1136.61 1536.5 1133.71 1537.23 Q1130.81 1537.97 1128.14 1539.43 L1128.14 1534.02 Q1131.35 1532.78 1134.38 1532.17 Q1137.4 1531.54 1140.27 1531.54 Q1148 1531.54 1151.82 1535.55 Q1155.64 1539.56 1155.64 1547.71 Z" fill="#000000" fill-rule="nonzero" fill-opacity="1" /><path clip-path="url(#clip540)" d="M1188.36 1537.87 Q1187.37 1537.3 1186.19 1537.04 Q1185.05 1536.76 1183.65 1536.76 Q1178.68 1536.76 1176.01 1540 Q1173.37 1543.22 1173.37 1549.27 L1173.37 1568.04 L1167.48 1568.04 L1167.48 1532.4 L1173.37 1532.4 L1173.37 1537.93 Q1175.21 1534.69 1178.17 1533.13 Q1181.13 1531.54 1185.37 1531.54 Q1185.97 1531.54 1186.7 1531.63 Q1187.44 1531.7 1188.33 1531.85 L1188.36 1537.87 Z" fill="#000000" fill-rule="nonzero" fill-opacity="1" /><path clip-path="url(#clip540)" d="M1216.81 1537.81 L1216.81 1518.52 L1222.67 1518.52 L1222.67 1568.04 L1216.81 1568.04 L1216.81 1562.7 Q1214.97 1565.88 1212.13 1567.44 Q1209.33 1568.97 1205.39 1568.97 Q1198.93 1568.97 1194.85 1563.81 Q1190.81 1558.65 1190.81 1550.25 Q1190.81 1541.85 1194.85 1536.69 Q1198.93 1531.54 1205.39 1531.54 Q1209.33 1531.54 1212.13 1533.1 Q1214.97 1534.62 1216.81 1537.81 M1196.86 1550.25 Q1196.86 1556.71 1199.5 1560.4 Q1202.17 1564.07 1206.82 1564.07 Q1211.47 1564.07 1214.14 1560.4 Q1216.81 1556.71 1216.81 1550.25 Q1216.81 1543.79 1214.14 1540.13 Q1211.47 1536.44 1206.82 1536.44 Q1202.17 1536.44 1199.5 1540.13 Q1196.86 1543.79 1196.86 1550.25 Z" fill="#000000" fill-rule="nonzero" fill-opacity="1" /><path clip-path="url(#clip540)" d="M1234.73 1532.4 L1240.59 1532.4 L1240.59 1568.04 L1234.73 1568.04 L1234.73 1532.4 M1234.73 1518.52 L1240.59 1518.52 L1240.59 1525.93 L1234.73 1525.93 L1234.73 1518.52 Z" fill="#000000" fill-rule="nonzero" fill-opacity="1" /><path clip-path="url(#clip540)" d="M1275.57 1533.45 L1275.57 1538.98 Q1273.09 1537.71 1270.41 1537.07 Q1267.74 1536.44 1264.87 1536.44 Q1260.51 1536.44 1258.32 1537.77 Q1256.15 1539.11 1256.15 1541.79 Q1256.15 1543.82 1257.71 1545 Q1259.27 1546.15 1263.98 1547.2 L1265.99 1547.64 Q1272.23 1548.98 1274.84 1551.43 Q1277.48 1553.85 1277.48 1558.21 Q1277.48 1563.17 1273.53 1566.07 Q1269.62 1568.97 1262.74 1568.97 Q1259.88 1568.97 1256.76 1568.39 Q1253.67 1567.85 1250.23 1566.74 L1250.23 1560.69 Q1253.48 1562.38 1256.63 1563.24 Q1259.78 1564.07 1262.87 1564.07 Q1267.01 1564.07 1269.24 1562.66 Q1271.46 1561.23 1271.46 1558.65 Q1271.46 1556.27 1269.84 1554.99 Q1268.25 1553.72 1262.81 1552.54 L1260.77 1552.07 Q1255.33 1550.92 1252.91 1548.56 Q1250.49 1546.18 1250.49 1542.04 Q1250.49 1537.01 1254.05 1534.27 Q1257.62 1531.54 1264.17 1531.54 Q1267.42 1531.54 1270.29 1532.01 Q1273.15 1532.49 1275.57 1533.45 Z" fill="#000000" fill-rule="nonzero" fill-opacity="1" /><path clip-path="url(#clip540)" d="M1317.3 1548.76 L1317.3 1551.62 L1290.37 1551.62 Q1290.75 1557.67 1294 1560.85 Q1297.28 1564 1303.1 1564 Q1306.47 1564 1309.63 1563.17 Q1312.81 1562.35 1315.93 1560.69 L1315.93 1566.23 Q1312.78 1567.57 1309.47 1568.27 Q1306.16 1568.97 1302.75 1568.97 Q1294.22 1568.97 1289.22 1564 Q1284.26 1559.04 1284.26 1550.57 Q1284.26 1541.82 1288.97 1536.69 Q1293.71 1531.54 1301.73 1531.54 Q1308.93 1531.54 1313.09 1536.18 Q1317.3 1540.8 1317.3 1548.76 M1311.44 1547.04 Q1311.38 1542.23 1308.73 1539.37 Q1306.12 1536.5 1301.8 1536.5 Q1296.89 1536.5 1293.93 1539.27 Q1291.01 1542.04 1290.56 1547.07 L1311.44 1547.04 Z" fill="#000000" fill-rule="nonzero" fill-opacity="1" /><path clip-path="url(#clip540)" d="M1350.37 1537.81 L1350.37 1518.52 L1356.22 1518.52 L1356.22 1568.04 L1350.37 1568.04 L1350.37 1562.7 Q1348.52 1565.88 1345.69 1567.44 Q1342.89 1568.97 1338.94 1568.97 Q1332.48 1568.97 1328.4 1563.81 Q1324.36 1558.65 1324.36 1550.25 Q1324.36 1541.85 1328.4 1536.69 Q1332.48 1531.54 1338.94 1531.54 Q1342.89 1531.54 1345.69 1533.1 Q1348.52 1534.62 1350.37 1537.81 M1330.41 1550.25 Q1330.41 1556.71 1333.05 1560.4 Q1335.72 1564.07 1340.37 1564.07 Q1345.02 1564.07 1347.69 1560.4 Q1350.37 1556.71 1350.37 1550.25 Q1350.37 1543.79 1347.69 1540.13 Q1345.02 1536.44 1340.37 1536.44 Q1335.72 1536.44 1333.05 1540.13 Q1330.41 1543.79 1330.41 1550.25 Z" fill="#000000" fill-rule="nonzero" fill-opacity="1" /><path clip-path="url(#clip540)" d="M1389.01 1518.52 L1394.86 1518.52 L1394.86 1568.04 L1389.01 1568.04 L1389.01 1518.52 Z" fill="#000000" fill-rule="nonzero" fill-opacity="1" /><path clip-path="url(#clip540)" d="M1420.93 1536.5 Q1416.22 1536.5 1413.48 1540.19 Q1410.74 1543.85 1410.74 1550.25 Q1410.74 1556.65 1413.45 1560.34 Q1416.19 1564 1420.93 1564 Q1425.61 1564 1428.35 1560.31 Q1431.08 1556.62 1431.08 1550.25 Q1431.08 1543.92 1428.35 1540.23 Q1425.61 1536.5 1420.93 1536.5 M1420.93 1531.54 Q1428.57 1531.54 1432.93 1536.5 Q1437.29 1541.47 1437.29 1550.25 Q1437.29 1559 1432.93 1564 Q1428.57 1568.97 1420.93 1568.97 Q1413.26 1568.97 1408.9 1564 Q1404.57 1559 1404.57 1550.25 Q1404.57 1541.47 1408.9 1536.5 Q1413.26 1531.54 1420.93 1531.54 Z" fill="#000000" fill-rule="nonzero" fill-opacity="1" /><path clip-path="url(#clip540)" d="M1470.46 1549.81 Q1470.46 1543.44 1467.81 1539.94 Q1465.2 1536.44 1460.46 1536.44 Q1455.75 1536.44 1453.11 1539.94 Q1450.5 1543.44 1450.5 1549.81 Q1450.5 1556.14 1453.11 1559.64 Q1455.75 1563.14 1460.46 1563.14 Q1465.2 1563.14 1467.81 1559.64 Q1470.46 1556.14 1470.46 1549.81 M1476.31 1563.62 Q1476.31 1572.72 1472.27 1577.15 Q1468.23 1581.6 1459.89 1581.6 Q1456.8 1581.6 1454.06 1581.13 Q1451.33 1580.68 1448.75 1579.72 L1448.75 1574.03 Q1451.33 1575.43 1453.84 1576.1 Q1456.36 1576.76 1458.96 1576.76 Q1464.73 1576.76 1467.59 1573.74 Q1470.46 1570.75 1470.46 1564.67 L1470.46 1561.77 Q1468.64 1564.92 1465.81 1566.48 Q1462.98 1568.04 1459.03 1568.04 Q1452.47 1568.04 1448.46 1563.05 Q1444.45 1558.05 1444.45 1549.81 Q1444.45 1541.53 1448.46 1536.53 Q1452.47 1531.54 1459.03 1531.54 Q1462.98 1531.54 1465.81 1533.1 Q1468.64 1534.66 1470.46 1537.81 L1470.46 1532.4 L1476.31 1532.4 L1476.31 1563.62 Z" fill="#000000" fill-rule="nonzero" fill-opacity="1" /><path clip-path="url(#clip540)" d="M1485.41 1547.58 L1502.57 1547.58 L1502.57 1552.8 L1485.41 1552.8 L1485.41 1547.58 Z" fill="#000000" fill-rule="nonzero" fill-opacity="1" /><path clip-path="url(#clip540)" d="M1537.55 1533.76 L1537.55 1539.24 Q1535.07 1537.87 1532.55 1537.2 Q1530.07 1536.5 1527.52 1536.5 Q1521.83 1536.5 1518.68 1540.13 Q1515.52 1543.73 1515.52 1550.25 Q1515.52 1556.78 1518.68 1560.4 Q1521.83 1564 1527.52 1564 Q1530.07 1564 1532.55 1563.33 Q1535.07 1562.63 1537.55 1561.26 L1537.55 1566.68 Q1535.1 1567.82 1532.46 1568.39 Q1529.85 1568.97 1526.89 1568.97 Q1518.83 1568.97 1514.09 1563.91 Q1509.35 1558.85 1509.35 1550.25 Q1509.35 1541.53 1514.12 1536.53 Q1518.93 1531.54 1527.27 1531.54 Q1529.97 1531.54 1532.55 1532.11 Q1535.13 1532.65 1537.55 1533.76 Z" fill="#000000" fill-rule="nonzero" fill-opacity="1" /><path clip-path="url(#clip540)" d="M1561.55 1536.5 Q1556.84 1536.5 1554.1 1540.19 Q1551.36 1543.85 1551.36 1550.25 Q1551.36 1556.65 1554.07 1560.34 Q1556.81 1564 1561.55 1564 Q1566.23 1564 1568.96 1560.31 Q1571.7 1556.62 1571.7 1550.25 Q1571.7 1543.92 1568.96 1540.23 Q1566.23 1536.5 1561.55 1536.5 M1561.55 1531.54 Q1569.19 1531.54 1573.55 1536.5 Q1577.91 1541.47 1577.91 1550.25 Q1577.91 1559 1573.55 1564 Q1569.19 1568.97 1561.55 1568.97 Q1553.88 1568.97 1549.52 1564 Q1545.19 1559 1545.19 1550.25 Q1545.19 1541.47 1549.52 1536.5 Q1553.88 1531.54 1561.55 1531.54 Z" fill="#000000" fill-rule="nonzero" fill-opacity="1" /><path clip-path="url(#clip540)" d="M1587.01 1553.98 L1587.01 1532.4 L1592.87 1532.4 L1592.87 1553.75 Q1592.87 1558.81 1594.84 1561.36 Q1596.81 1563.87 1600.76 1563.87 Q1605.5 1563.87 1608.24 1560.85 Q1611.01 1557.83 1611.01 1552.61 L1611.01 1532.4 L1616.87 1532.4 L1616.87 1568.04 L1611.01 1568.04 L1611.01 1562.57 Q1608.88 1565.82 1606.04 1567.41 Q1603.24 1568.97 1599.52 1568.97 Q1593.38 1568.97 1590.19 1565.15 Q1587.01 1561.33 1587.01 1553.98 M1601.75 1531.54 L1601.75 1531.54 Z" fill="#000000" fill-rule="nonzero" fill-opacity="1" /><path clip-path="url(#clip540)" d="M1658.56 1546.53 L1658.56 1568.04 L1652.71 1568.04 L1652.71 1546.72 Q1652.71 1541.66 1650.73 1539.14 Q1648.76 1536.63 1644.81 1536.63 Q1640.07 1536.63 1637.33 1539.65 Q1634.59 1542.68 1634.59 1547.9 L1634.59 1568.04 L1628.71 1568.04 L1628.71 1532.4 L1634.59 1532.4 L1634.59 1537.93 Q1636.7 1534.72 1639.53 1533.13 Q1642.39 1531.54 1646.12 1531.54 Q1652.26 1531.54 1655.41 1535.36 Q1658.56 1539.14 1658.56 1546.53 Z" fill="#000000" fill-rule="nonzero" fill-opacity="1" /><path clip-path="url(#clip540)" d="M1676.04 1522.27 L1676.04 1532.4 L1688.1 1532.4 L1688.1 1536.95 L1676.04 1536.95 L1676.04 1556.3 Q1676.04 1560.66 1677.21 1561.9 Q1678.42 1563.14 1682.08 1563.14 L1688.1 1563.14 L1688.1 1568.04 L1682.08 1568.04 Q1675.3 1568.04 1672.73 1565.53 Q1670.15 1562.98 1670.15 1556.3 L1670.15 1536.95 L1665.85 1536.95 L1665.85 1532.4 L1670.15 1532.4 L1670.15 1522.27 L1676.04 1522.27 Z" fill="#000000" fill-rule="nonzero" fill-opacity="1" /><polyline clip-path="url(#clip542)" style="stroke:#000000; stroke-linecap:round; stroke-linejoin:round; stroke-width:2; stroke-opacity:0.1; fill:none" points="219.866,1423.18 2352.76,1423.18 "/>
<polyline clip-path="url(#clip542)" style="stroke:#000000; stroke-linecap:round; stroke-linejoin:round; stroke-width:2; stroke-opacity:0.1; fill:none" points="219.866,1128.35 2352.76,1128.35 "/>
<polyline clip-path="url(#clip542)" style="stroke:#000000; stroke-linecap:round; stroke-linejoin:round; stroke-width:2; stroke-opacity:0.1; fill:none" points="219.866,833.523 2352.76,833.523 "/>
<polyline clip-path="url(#clip542)" style="stroke:#000000; stroke-linecap:round; stroke-linejoin:round; stroke-width:2; stroke-opacity:0.1; fill:none" points="219.866,538.695 2352.76,538.695 "/>
<polyline clip-path="url(#clip542)" style="stroke:#000000; stroke-linecap:round; stroke-linejoin:round; stroke-width:2; stroke-opacity:0.1; fill:none" points="219.866,243.866 2352.76,243.866 "/>
<polyline clip-path="url(#clip540)" style="stroke:#000000; stroke-linecap:round; stroke-linejoin:round; stroke-width:4; stroke-opacity:1; fill:none" points="219.866,1423.18 219.866,123.472 "/>
<polyline clip-path="url(#clip540)" style="stroke:#000000; stroke-linecap:round; stroke-linejoin:round; stroke-width:4; stroke-opacity:1; fill:none" points="219.866,1423.18 238.764,1423.18 "/>
<polyline clip-path="url(#clip540)" style="stroke:#000000; stroke-linecap:round; stroke-linejoin:round; stroke-width:4; stroke-opacity:1; fill:none" points="219.866,1128.35 238.764,1128.35 "/>
<polyline clip-path="url(#clip540)" style="stroke:#000000; stroke-linecap:round; stroke-linejoin:round; stroke-width:4; stroke-opacity:1; fill:none" points="219.866,833.523 238.764,833.523 "/>
<polyline clip-path="url(#clip540)" style="stroke:#000000; stroke-linecap:round; stroke-linejoin:round; stroke-width:4; stroke-opacity:1; fill:none" points="219.866,538.695 238.764,538.695 "/>
<polyline clip-path="url(#clip540)" style="stroke:#000000; stroke-linecap:round; stroke-linejoin:round; stroke-width:4; stroke-opacity:1; fill:none" points="219.866,243.866 238.764,243.866 "/>
<path clip-path="url(#clip540)" d="M126.691 1408.98 Q123.08 1408.98 121.251 1412.54 Q119.445 1416.08 119.445 1423.21 Q119.445 1430.32 121.251 1433.89 Q123.08 1437.43 126.691 1437.43 Q130.325 1437.43 132.13 1433.89 Q133.959 1430.32 133.959 1423.21 Q133.959 1416.08 132.13 1412.54 Q130.325 1408.98 126.691 1408.98 M126.691 1405.27 Q132.501 1405.27 135.556 1409.88 Q138.635 1414.46 138.635 1423.21 Q138.635 1431.94 135.556 1436.55 Q132.501 1441.13 126.691 1441.13 Q120.88 1441.13 117.802 1436.55 Q114.746 1431.94 114.746 1423.21 Q114.746 1414.46 117.802 1409.88 Q120.88 1405.27 126.691 1405.27 Z" fill="#000000" fill-rule="nonzero" fill-opacity="1" /><path clip-path="url(#clip540)" d="M146.853 1434.58 L151.737 1434.58 L151.737 1440.46 L146.853 1440.46 L146.853 1434.58 Z" fill="#000000" fill-rule="nonzero" fill-opacity="1" /><path clip-path="url(#clip540)" d="M171.922 1408.98 Q168.311 1408.98 166.482 1412.54 Q164.677 1416.08 164.677 1423.21 Q164.677 1430.32 166.482 1433.89 Q168.311 1437.43 171.922 1437.43 Q175.556 1437.43 177.362 1433.89 Q179.19 1430.32 179.19 1423.21 Q179.19 1416.08 177.362 1412.54 Q175.556 1408.98 171.922 1408.98 M171.922 1405.27 Q177.732 1405.27 180.788 1409.88 Q183.866 1414.46 183.866 1423.21 Q183.866 1431.94 180.788 1436.55 Q177.732 1441.13 171.922 1441.13 Q166.112 1441.13 163.033 1436.55 Q159.978 1431.94 159.978 1423.21 Q159.978 1414.46 163.033 1409.88 Q166.112 1405.27 171.922 1405.27 Z" fill="#000000" fill-rule="nonzero" fill-opacity="1" /><path clip-path="url(#clip540)" d="M127.917 1114.15 Q124.306 1114.15 122.478 1117.71 Q120.672 1121.26 120.672 1128.39 Q120.672 1135.49 122.478 1139.06 Q124.306 1142.6 127.917 1142.6 Q131.552 1142.6 133.357 1139.06 Q135.186 1135.49 135.186 1128.39 Q135.186 1121.26 133.357 1117.71 Q131.552 1114.15 127.917 1114.15 M127.917 1110.45 Q133.728 1110.45 136.783 1115.05 Q139.862 1119.64 139.862 1128.39 Q139.862 1137.11 136.783 1141.72 Q133.728 1146.3 127.917 1146.3 Q122.107 1146.3 119.029 1141.72 Q115.973 1137.11 115.973 1128.39 Q115.973 1119.64 119.029 1115.05 Q122.107 1110.45 127.917 1110.45 Z" fill="#000000" fill-rule="nonzero" fill-opacity="1" /><path clip-path="url(#clip540)" d="M148.079 1139.75 L152.964 1139.75 L152.964 1145.63 L148.079 1145.63 L148.079 1139.75 Z" fill="#000000" fill-rule="nonzero" fill-opacity="1" /><path clip-path="url(#clip540)" d="M163.959 1141.7 L171.598 1141.7 L171.598 1115.33 L163.288 1117 L163.288 1112.74 L171.552 1111.07 L176.227 1111.07 L176.227 1141.7 L183.866 1141.7 L183.866 1145.63 L163.959 1145.63 L163.959 1141.7 Z" fill="#000000" fill-rule="nonzero" fill-opacity="1" /><path clip-path="url(#clip540)" d="M128.288 819.322 Q124.677 819.322 122.848 822.886 Q121.043 826.428 121.043 833.558 Q121.043 840.664 122.848 844.229 Q124.677 847.771 128.288 847.771 Q131.922 847.771 133.728 844.229 Q135.556 840.664 135.556 833.558 Q135.556 826.428 133.728 822.886 Q131.922 819.322 128.288 819.322 M128.288 815.618 Q134.098 815.618 137.154 820.224 Q140.232 824.808 140.232 833.558 Q140.232 842.285 137.154 846.891 Q134.098 851.474 128.288 851.474 Q122.478 851.474 119.399 846.891 Q116.343 842.285 116.343 833.558 Q116.343 824.808 119.399 820.224 Q122.478 815.618 128.288 815.618 Z" fill="#000000" fill-rule="nonzero" fill-opacity="1" /><path clip-path="url(#clip540)" d="M148.45 844.923 L153.334 844.923 L153.334 850.803 L148.45 850.803 L148.45 844.923 Z" fill="#000000" fill-rule="nonzero" fill-opacity="1" /><path clip-path="url(#clip540)" d="M167.547 846.868 L183.866 846.868 L183.866 850.803 L161.922 850.803 L161.922 846.868 Q164.584 844.113 169.167 839.484 Q173.774 834.831 174.954 833.488 Q177.2 830.965 178.079 829.229 Q178.982 827.47 178.982 825.78 Q178.982 823.025 177.038 821.289 Q175.116 819.553 172.014 819.553 Q169.815 819.553 167.362 820.317 Q164.931 821.081 162.153 822.632 L162.153 817.91 Q164.977 816.775 167.431 816.197 Q169.885 815.618 171.922 815.618 Q177.292 815.618 180.487 818.303 Q183.681 820.988 183.681 825.479 Q183.681 827.609 182.871 829.53 Q182.084 831.428 179.977 834.021 Q179.399 834.692 176.297 837.91 Q173.195 841.104 167.547 846.868 Z" fill="#000000" fill-rule="nonzero" fill-opacity="1" /><path clip-path="url(#clip540)" d="M127.339 524.493 Q123.728 524.493 121.899 528.058 Q120.093 531.6 120.093 538.729 Q120.093 545.836 121.899 549.4 Q123.728 552.942 127.339 552.942 Q130.973 552.942 132.779 549.4 Q134.607 545.836 134.607 538.729 Q134.607 531.6 132.779 528.058 Q130.973 524.493 127.339 524.493 M127.339 520.79 Q133.149 520.79 136.204 525.396 Q139.283 529.979 139.283 538.729 Q139.283 547.456 136.204 552.063 Q133.149 556.646 127.339 556.646 Q121.529 556.646 118.45 552.063 Q115.394 547.456 115.394 538.729 Q115.394 529.979 118.45 525.396 Q121.529 520.79 127.339 520.79 Z" fill="#000000" fill-rule="nonzero" fill-opacity="1" /><path clip-path="url(#clip540)" d="M147.501 550.095 L152.385 550.095 L152.385 555.975 L147.501 555.975 L147.501 550.095 Z" fill="#000000" fill-rule="nonzero" fill-opacity="1" /><path clip-path="url(#clip540)" d="M176.737 537.34 Q180.093 538.058 181.968 540.326 Q183.866 542.595 183.866 545.928 Q183.866 551.044 180.348 553.845 Q176.829 556.646 170.348 556.646 Q168.172 556.646 165.857 556.206 Q163.565 555.789 161.112 554.933 L161.112 550.419 Q163.056 551.553 165.371 552.132 Q167.686 552.711 170.209 552.711 Q174.607 552.711 176.899 550.975 Q179.214 549.238 179.214 545.928 Q179.214 542.873 177.061 541.16 Q174.931 539.424 171.112 539.424 L167.084 539.424 L167.084 535.581 L171.297 535.581 Q174.746 535.581 176.575 534.215 Q178.403 532.827 178.403 530.234 Q178.403 527.572 176.505 526.16 Q174.63 524.725 171.112 524.725 Q169.19 524.725 166.991 525.141 Q164.792 525.558 162.153 526.438 L162.153 522.271 Q164.815 521.53 167.13 521.16 Q169.468 520.79 171.528 520.79 Q176.852 520.79 179.954 523.22 Q183.056 525.627 183.056 529.748 Q183.056 532.618 181.413 534.609 Q179.769 536.576 176.737 537.34 Z" fill="#000000" fill-rule="nonzero" fill-opacity="1" /><path clip-path="url(#clip540)" d="M126.205 229.665 Q122.593 229.665 120.765 233.23 Q118.959 236.771 118.959 243.901 Q118.959 251.007 120.765 254.572 Q122.593 258.114 126.205 258.114 Q129.839 258.114 131.644 254.572 Q133.473 251.007 133.473 243.901 Q133.473 236.771 131.644 233.23 Q129.839 229.665 126.205 229.665 M126.205 225.961 Q132.015 225.961 135.07 230.568 Q138.149 235.151 138.149 243.901 Q138.149 252.628 135.07 257.234 Q132.015 261.817 126.205 261.817 Q120.394 261.817 117.316 257.234 Q114.26 252.628 114.26 243.901 Q114.26 235.151 117.316 230.568 Q120.394 225.961 126.205 225.961 Z" fill="#000000" fill-rule="nonzero" fill-opacity="1" /><path clip-path="url(#clip540)" d="M146.366 255.267 L151.251 255.267 L151.251 261.146 L146.366 261.146 L146.366 255.267 Z" fill="#000000" fill-rule="nonzero" fill-opacity="1" /><path clip-path="url(#clip540)" d="M174.283 230.66 L162.477 249.109 L174.283 249.109 L174.283 230.66 M173.056 226.586 L178.936 226.586 L178.936 249.109 L183.866 249.109 L183.866 252.998 L178.936 252.998 L178.936 261.146 L174.283 261.146 L174.283 252.998 L158.681 252.998 L158.681 248.484 L173.056 226.586 Z" fill="#000000" fill-rule="nonzero" fill-opacity="1" /><path clip-path="url(#clip540)" d="M21.7677 886.636 L58.7206 886.636 L58.7206 878.869 Q58.7206 869.034 54.2646 864.483 Q49.8086 859.9 40.1964 859.9 Q30.6479 859.9 26.2237 864.483 Q21.7677 869.034 21.7677 878.869 L21.7677 886.636 M16.4842 893.065 L16.4842 879.856 Q16.4842 866.043 22.2451 859.581 Q27.9743 853.12 40.1964 853.12 Q52.4822 853.12 58.2432 859.613 Q64.0042 866.106 64.0042 879.856 L64.0042 893.065 L16.4842 893.065 Z" fill="#000000" fill-rule="nonzero" fill-opacity="1" /><path clip-path="url(#clip540)" d="M44.7161 812.634 L47.5806 812.634 L47.5806 839.561 Q53.6281 839.179 56.8109 835.933 Q59.9619 832.654 59.9619 826.83 Q59.9619 823.456 59.1344 820.305 Q58.3069 817.122 56.6518 814.003 L62.1899 814.003 Q63.5267 817.154 64.227 820.464 Q64.9272 823.774 64.9272 827.18 Q64.9272 835.71 59.9619 840.707 Q54.9967 845.672 46.5303 845.672 Q37.7774 845.672 32.6531 840.962 Q27.4968 836.219 27.4968 828.198 Q27.4968 821.005 32.1438 816.836 Q36.7589 812.634 44.7161 812.634 M42.9973 818.491 Q38.1912 818.554 35.3266 821.196 Q32.4621 823.806 32.4621 828.135 Q32.4621 833.036 35.2312 835.996 Q38.0002 838.925 43.0292 839.37 L42.9973 818.491 Z" fill="#000000" fill-rule="nonzero" fill-opacity="1" /><path clip-path="url(#clip540)" d="M42.4881 773.39 L64.0042 773.39 L64.0042 779.246 L42.679 779.246 Q37.6183 779.246 35.1038 781.219 Q32.5894 783.193 32.5894 787.14 Q32.5894 791.882 35.6131 794.619 Q38.6368 797.357 43.8567 797.357 L64.0042 797.357 L64.0042 803.245 L28.3562 803.245 L28.3562 797.357 L33.8944 797.357 Q30.6797 795.256 29.0883 792.423 Q27.4968 789.559 27.4968 785.835 Q27.4968 779.692 31.3163 776.541 Q35.1038 773.39 42.4881 773.39 Z" fill="#000000" fill-rule="nonzero" fill-opacity="1" /><path clip-path="url(#clip540)" d="M29.4065 738.983 L34.9447 738.983 Q33.6716 741.466 33.035 744.139 Q32.3984 746.813 32.3984 749.677 Q32.3984 754.038 33.7352 756.234 Q35.072 758.398 37.7456 758.398 Q39.7826 758.398 40.9603 756.839 Q42.1061 755.279 43.1565 750.569 L43.6021 748.563 Q44.9389 742.325 47.3897 739.715 Q49.8086 737.073 54.1691 737.073 Q59.1344 737.073 62.0308 741.02 Q64.9272 744.935 64.9272 751.81 Q64.9272 754.674 64.3543 757.794 Q63.8132 760.881 62.6992 764.319 L56.6518 764.319 Q58.3387 761.072 59.198 757.921 Q60.0256 754.77 60.0256 751.683 Q60.0256 747.545 58.6251 745.317 Q57.1929 743.089 54.6147 743.089 Q52.2276 743.089 50.9545 744.712 Q49.6813 746.304 48.5037 751.746 L48.0262 753.783 Q46.8804 759.226 44.5251 761.645 Q42.138 764.064 38.0002 764.064 Q32.9713 764.064 30.2341 760.499 Q27.4968 756.934 27.4968 750.378 Q27.4968 747.131 27.9743 744.267 Q28.4517 741.402 29.4065 738.983 Z" fill="#000000" fill-rule="nonzero" fill-opacity="1" /><path clip-path="url(#clip540)" d="M28.3562 727.748 L28.3562 721.891 L64.0042 721.891 L64.0042 727.748 L28.3562 727.748 M14.479 727.748 L14.479 721.891 L21.895 721.891 L21.895 727.748 L14.479 727.748 Z" fill="#000000" fill-rule="nonzero" fill-opacity="1" /><path clip-path="url(#clip540)" d="M18.2347 703.844 L28.3562 703.844 L28.3562 691.781 L32.9077 691.781 L32.9077 703.844 L52.2594 703.844 Q56.6199 703.844 57.8613 702.667 Q59.1026 701.457 59.1026 697.797 L59.1026 691.781 L64.0042 691.781 L64.0042 697.797 Q64.0042 704.576 61.4897 707.154 Q58.9434 709.733 52.2594 709.733 L32.9077 709.733 L32.9077 714.029 L28.3562 714.029 L28.3562 709.733 L18.2347 709.733 L18.2347 703.844 Z" fill="#000000" fill-rule="nonzero" fill-opacity="1" /><path clip-path="url(#clip540)" d="M67.3143 669.247 Q73.68 671.729 75.6216 674.085 Q77.5631 676.44 77.5631 680.387 L77.5631 685.065 L72.6615 685.065 L72.6615 681.628 Q72.6615 679.209 71.5157 677.872 Q70.3699 676.535 66.1048 674.912 L63.4312 673.862 L28.3562 688.28 L28.3562 682.074 L56.238 670.934 L28.3562 659.794 L28.3562 653.587 L67.3143 669.247 Z" fill="#000000" fill-rule="nonzero" fill-opacity="1" /><path clip-path="url(#clip540)" d="M594.396 18.8205 L594.396 41.5461 L604.686 41.5461 Q610.397 41.5461 613.517 38.5889 Q616.636 35.6318 616.636 30.163 Q616.636 24.7348 613.517 21.7777 Q610.397 18.8205 604.686 18.8205 L594.396 18.8205 M586.214 12.096 L604.686 12.096 Q614.853 12.096 620.039 16.714 Q625.264 21.2916 625.264 30.163 Q625.264 39.1155 620.039 43.6931 Q614.853 48.2706 604.686 48.2706 L594.396 48.2706 L594.396 72.576 L586.214 72.576 L586.214 12.096 Z" fill="#000000" fill-rule="nonzero" fill-opacity="1" /><path clip-path="url(#clip540)" d="M660.75 34.1734 Q659.494 33.4443 657.996 33.1202 Q656.537 32.7556 654.755 32.7556 Q648.435 32.7556 645.033 36.8875 Q641.67 40.9789 641.67 48.6757 L641.67 72.576 L634.176 72.576 L634.176 27.2059 L641.67 27.2059 L641.67 34.2544 Q644.02 30.1225 647.787 28.1376 Q651.555 26.1121 656.942 26.1121 Q657.712 26.1121 658.644 26.2337 Q659.575 26.3147 660.71 26.5172 L660.75 34.1734 Z" fill="#000000" fill-rule="nonzero" fill-opacity="1" /><path clip-path="url(#clip540)" d="M668.568 27.2059 L676.022 27.2059 L676.022 72.576 L668.568 72.576 L668.568 27.2059 M668.568 9.54393 L676.022 9.54393 L676.022 18.9825 L668.568 18.9825 L668.568 9.54393 Z" fill="#000000" fill-rule="nonzero" fill-opacity="1" /><path clip-path="url(#clip540)" d="M709.199 32.4315 Q703.204 32.4315 699.72 37.1306 Q696.236 41.7891 696.236 49.9314 Q696.236 58.0738 699.679 62.7728 Q703.163 67.4314 709.199 67.4314 Q715.154 67.4314 718.638 62.7323 Q722.121 58.0333 722.121 49.9314 Q722.121 41.8701 718.638 37.1711 Q715.154 32.4315 709.199 32.4315 M709.199 26.1121 Q718.921 26.1121 724.471 32.4315 Q730.021 38.7509 730.021 49.9314 Q730.021 61.0714 724.471 67.4314 Q718.921 73.7508 709.199 73.7508 Q699.436 73.7508 693.887 67.4314 Q688.377 61.0714 688.377 49.9314 Q688.377 38.7509 693.887 32.4315 Q699.436 26.1121 709.199 26.1121 Z" fill="#000000" fill-rule="nonzero" fill-opacity="1" /><path clip-path="url(#clip540)" d="M768.666 34.1734 Q767.411 33.4443 765.912 33.1202 Q764.453 32.7556 762.671 32.7556 Q756.352 32.7556 752.949 36.8875 Q749.587 40.9789 749.587 48.6757 L749.587 72.576 L742.092 72.576 L742.092 27.2059 L749.587 27.2059 L749.587 34.2544 Q751.936 30.1225 755.703 28.1376 Q759.471 26.1121 764.858 26.1121 Q765.628 26.1121 766.56 26.2337 Q767.492 26.3147 768.626 26.5172 L768.666 34.1734 Z" fill="#000000" fill-rule="nonzero" fill-opacity="1" /><path clip-path="url(#clip540)" d="M810.067 65.7705 L810.067 89.8329 L802.572 89.8329 L802.572 27.2059 L810.067 27.2059 L810.067 34.0924 Q812.416 30.0415 815.981 28.0971 Q819.586 26.1121 824.569 26.1121 Q832.833 26.1121 837.977 32.6746 Q843.162 39.2371 843.162 49.9314 Q843.162 60.6258 837.977 67.1883 Q832.833 73.7508 824.569 73.7508 Q819.586 73.7508 815.981 71.8063 Q812.416 69.8214 810.067 65.7705 M835.425 49.9314 Q835.425 41.7081 832.022 37.0496 Q828.66 32.3505 822.746 32.3505 Q816.832 32.3505 813.429 37.0496 Q810.067 41.7081 810.067 49.9314 Q810.067 58.1548 813.429 62.8538 Q816.832 67.5124 822.746 67.5124 Q828.66 67.5124 832.022 62.8538 Q835.425 58.1548 835.425 49.9314 Z" fill="#000000" fill-rule="nonzero" fill-opacity="1" /><path clip-path="url(#clip540)" d="M881.808 34.1734 Q880.552 33.4443 879.053 33.1202 Q877.595 32.7556 875.813 32.7556 Q869.493 32.7556 866.091 36.8875 Q862.728 40.9789 862.728 48.6757 L862.728 72.576 L855.234 72.576 L855.234 27.2059 L862.728 27.2059 L862.728 34.2544 Q865.078 30.1225 868.845 28.1376 Q872.612 26.1121 878 26.1121 Q878.77 26.1121 879.702 26.2337 Q880.633 26.3147 881.768 26.5172 L881.808 34.1734 Z" fill="#000000" fill-rule="nonzero" fill-opacity="1" /><path clip-path="url(#clip540)" d="M926.611 48.0275 L926.611 51.6733 L892.34 51.6733 Q892.827 59.3701 896.958 63.421 Q901.131 67.4314 908.544 67.4314 Q912.838 67.4314 916.848 66.3781 Q920.899 65.3249 924.869 63.2184 L924.869 70.267 Q920.859 71.9684 916.646 72.8596 Q912.433 73.7508 908.098 73.7508 Q897.242 73.7508 890.882 67.4314 Q884.563 61.1119 884.563 50.3365 Q884.563 39.1965 890.558 32.6746 Q896.594 26.1121 906.802 26.1121 Q915.957 26.1121 921.264 32.0264 Q926.611 37.9003 926.611 48.0275 M919.157 45.84 Q919.076 39.7232 915.714 36.0774 Q912.392 32.4315 906.883 32.4315 Q900.645 32.4315 896.877 35.9558 Q893.151 39.4801 892.583 45.8805 L919.157 45.84 Z" fill="#000000" fill-rule="nonzero" fill-opacity="1" /><path clip-path="url(#clip540)" d="M968.7 34.0924 L968.7 9.54393 L976.154 9.54393 L976.154 72.576 L968.7 72.576 L968.7 65.7705 Q966.35 69.8214 962.745 71.8063 Q959.18 73.7508 954.157 73.7508 Q945.934 73.7508 940.749 67.1883 Q935.604 60.6258 935.604 49.9314 Q935.604 39.2371 940.749 32.6746 Q945.934 26.1121 954.157 26.1121 Q959.18 26.1121 962.745 28.0971 Q966.35 30.0415 968.7 34.0924 M943.301 49.9314 Q943.301 58.1548 946.663 62.8538 Q950.066 67.5124 955.98 67.5124 Q961.894 67.5124 965.297 62.8538 Q968.7 58.1548 968.7 49.9314 Q968.7 41.7081 965.297 37.0496 Q961.894 32.3505 955.98 32.3505 Q950.066 32.3505 946.663 37.0496 Q943.301 41.7081 943.301 49.9314 Z" fill="#000000" fill-rule="nonzero" fill-opacity="1" /><path clip-path="url(#clip540)" d="M991.507 27.2059 L998.96 27.2059 L998.96 72.576 L991.507 72.576 L991.507 27.2059 M991.507 9.54393 L998.96 9.54393 L998.96 18.9825 L991.507 18.9825 L991.507 9.54393 Z" fill="#000000" fill-rule="nonzero" fill-opacity="1" /><path clip-path="url(#clip540)" d="M1047.21 28.9478 L1047.21 35.9153 Q1044.05 34.1734 1040.85 33.3227 Q1037.69 32.4315 1034.45 32.4315 Q1027.19 32.4315 1023.18 37.0496 Q1019.17 41.6271 1019.17 49.9314 Q1019.17 58.2358 1023.18 62.8538 Q1027.19 67.4314 1034.45 67.4314 Q1037.69 67.4314 1040.85 66.5807 Q1044.05 65.6895 1047.21 63.9476 L1047.21 70.8341 Q1044.09 72.2924 1040.73 73.0216 Q1037.4 73.7508 1033.64 73.7508 Q1023.39 73.7508 1017.35 67.3098 Q1011.32 60.8689 1011.32 49.9314 Q1011.32 38.832 1017.39 32.472 Q1023.51 26.1121 1034.12 26.1121 Q1037.57 26.1121 1040.85 26.8413 Q1044.13 27.5299 1047.21 28.9478 Z" fill="#000000" fill-rule="nonzero" fill-opacity="1" /><path clip-path="url(#clip540)" d="M1067.54 14.324 L1067.54 27.2059 L1082.89 27.2059 L1082.89 32.9987 L1067.54 32.9987 L1067.54 57.6282 Q1067.54 63.1779 1069.04 64.7578 Q1070.58 66.3376 1075.24 66.3376 L1082.89 66.3376 L1082.89 72.576 L1075.24 72.576 Q1066.61 72.576 1063.33 69.3758 Q1060.05 66.1351 1060.05 57.6282 L1060.05 32.9987 L1054.58 32.9987 L1054.58 27.2059 L1060.05 27.2059 L1060.05 14.324 L1067.54 14.324 Z" fill="#000000" fill-rule="nonzero" fill-opacity="1" /><path clip-path="url(#clip540)" d="M1092.7 27.2059 L1100.15 27.2059 L1100.15 72.576 L1092.7 72.576 L1092.7 27.2059 M1092.7 9.54393 L1100.15 9.54393 L1100.15 18.9825 L1092.7 18.9825 L1092.7 9.54393 Z" fill="#000000" fill-rule="nonzero" fill-opacity="1" /><path clip-path="url(#clip540)" d="M1110.4 27.2059 L1118.3 27.2059 L1132.48 65.2844 L1146.66 27.2059 L1154.56 27.2059 L1137.54 72.576 L1127.41 72.576 L1110.4 27.2059 Z" fill="#000000" fill-rule="nonzero" fill-opacity="1" /><path clip-path="url(#clip540)" d="M1203.65 48.0275 L1203.65 51.6733 L1169.38 51.6733 Q1169.87 59.3701 1174 63.421 Q1178.17 67.4314 1185.59 67.4314 Q1189.88 67.4314 1193.89 66.3781 Q1197.94 65.3249 1201.91 63.2184 L1201.91 70.267 Q1197.9 71.9684 1193.69 72.8596 Q1189.47 73.7508 1185.14 73.7508 Q1174.28 73.7508 1167.92 67.4314 Q1161.6 61.1119 1161.6 50.3365 Q1161.6 39.1965 1167.6 32.6746 Q1173.64 26.1121 1183.84 26.1121 Q1193 26.1121 1198.31 32.0264 Q1203.65 37.9003 1203.65 48.0275 M1196.2 45.84 Q1196.12 39.7232 1192.76 36.0774 Q1189.43 32.4315 1183.92 32.4315 Q1177.69 32.4315 1173.92 35.9558 Q1170.19 39.4801 1169.62 45.8805 L1196.2 45.84 Z" fill="#000000" fill-rule="nonzero" fill-opacity="1" /><path clip-path="url(#clip540)" d="M1274.91 28.9478 L1274.91 35.9153 Q1271.75 34.1734 1268.55 33.3227 Q1265.39 32.4315 1262.15 32.4315 Q1254.9 32.4315 1250.89 37.0496 Q1246.88 41.6271 1246.88 49.9314 Q1246.88 58.2358 1250.89 62.8538 Q1254.9 67.4314 1262.15 67.4314 Q1265.39 67.4314 1268.55 66.5807 Q1271.75 65.6895 1274.91 63.9476 L1274.91 70.8341 Q1271.79 72.2924 1268.43 73.0216 Q1265.1 73.7508 1261.34 73.7508 Q1251.09 73.7508 1245.05 67.3098 Q1239.02 60.8689 1239.02 49.9314 Q1239.02 38.832 1245.09 32.472 Q1251.21 26.1121 1261.82 26.1121 Q1265.27 26.1121 1268.55 26.8413 Q1271.83 27.5299 1274.91 28.9478 Z" fill="#000000" fill-rule="nonzero" fill-opacity="1" /><path clip-path="url(#clip540)" d="M1325.58 45.1919 L1325.58 72.576 L1318.13 72.576 L1318.13 45.4349 Q1318.13 38.994 1315.62 35.7938 Q1313.11 32.5936 1308.08 32.5936 Q1302.05 32.5936 1298.57 36.4419 Q1295.08 40.2903 1295.08 46.9338 L1295.08 72.576 L1287.59 72.576 L1287.59 9.54393 L1295.08 9.54393 L1295.08 34.2544 Q1297.75 30.163 1301.36 28.1376 Q1305.01 26.1121 1309.75 26.1121 Q1317.56 26.1121 1321.57 30.9732 Q1325.58 35.7938 1325.58 45.1919 Z" fill="#000000" fill-rule="nonzero" fill-opacity="1" /><path clip-path="url(#clip540)" d="M1379.26 48.0275 L1379.26 51.6733 L1344.99 51.6733 Q1345.47 59.3701 1349.61 63.421 Q1353.78 67.4314 1361.19 67.4314 Q1365.49 67.4314 1369.5 66.3781 Q1373.55 65.3249 1377.52 63.2184 L1377.52 70.267 Q1373.51 71.9684 1369.29 72.8596 Q1365.08 73.7508 1360.75 73.7508 Q1349.89 73.7508 1343.53 67.4314 Q1337.21 61.1119 1337.21 50.3365 Q1337.21 39.1965 1343.21 32.6746 Q1349.24 26.1121 1359.45 26.1121 Q1368.61 26.1121 1373.91 32.0264 Q1379.26 37.9003 1379.26 48.0275 M1371.81 45.84 Q1371.72 39.7232 1368.36 36.0774 Q1365.04 32.4315 1359.53 32.4315 Q1353.29 32.4315 1349.53 35.9558 Q1345.8 39.4801 1345.23 45.8805 L1371.81 45.84 Z" fill="#000000" fill-rule="nonzero" fill-opacity="1" /><path clip-path="url(#clip540)" d="M1424.14 28.9478 L1424.14 35.9153 Q1420.98 34.1734 1417.78 33.3227 Q1414.62 32.4315 1411.38 32.4315 Q1404.13 32.4315 1400.12 37.0496 Q1396.11 41.6271 1396.11 49.9314 Q1396.11 58.2358 1400.12 62.8538 Q1404.13 67.4314 1411.38 67.4314 Q1414.62 67.4314 1417.78 66.5807 Q1420.98 65.6895 1424.14 63.9476 L1424.14 70.8341 Q1421.02 72.2924 1417.66 73.0216 Q1414.34 73.7508 1410.57 73.7508 Q1400.32 73.7508 1394.29 67.3098 Q1388.25 60.8689 1388.25 49.9314 Q1388.25 38.832 1394.33 32.472 Q1400.45 26.1121 1411.06 26.1121 Q1414.5 26.1121 1417.78 26.8413 Q1421.06 27.5299 1424.14 28.9478 Z" fill="#000000" fill-rule="nonzero" fill-opacity="1" /><path clip-path="url(#clip540)" d="M1436.82 9.54393 L1444.32 9.54393 L1444.32 46.7717 L1466.56 27.2059 L1476.08 27.2059 L1452.01 48.4326 L1477.09 72.576 L1467.37 72.576 L1444.32 50.4176 L1444.32 72.576 L1436.82 72.576 L1436.82 9.54393 Z" fill="#000000" fill-rule="nonzero" fill-opacity="1" /><path clip-path="url(#clip540)" d="M1487.05 62.2867 L1495.6 62.2867 L1495.6 69.2543 L1488.96 82.2172 L1483.73 82.2172 L1487.05 69.2543 L1487.05 62.2867 Z" fill="#000000" fill-rule="nonzero" fill-opacity="1" /><path clip-path="url(#clip540)" d="M1573.22 35.9153 Q1576.01 30.8922 1579.9 28.5022 Q1583.79 26.1121 1589.06 26.1121 Q1596.14 26.1121 1599.99 31.0947 Q1603.84 36.0368 1603.84 45.1919 L1603.84 72.576 L1596.35 72.576 L1596.35 45.4349 Q1596.35 38.913 1594.04 35.7533 Q1591.73 32.5936 1586.99 32.5936 Q1581.2 32.5936 1577.83 36.4419 Q1574.47 40.2903 1574.47 46.9338 L1574.47 72.576 L1566.98 72.576 L1566.98 45.4349 Q1566.98 38.8725 1564.67 35.7533 Q1562.36 32.5936 1557.54 32.5936 Q1551.83 32.5936 1548.47 36.4824 Q1545.1 40.3308 1545.1 46.9338 L1545.1 72.576 L1537.61 72.576 L1537.61 27.2059 L1545.1 27.2059 L1545.1 34.2544 Q1547.66 30.082 1551.22 28.0971 Q1554.78 26.1121 1559.69 26.1121 Q1564.63 26.1121 1568.07 28.6237 Q1571.56 31.1352 1573.22 35.9153 Z" fill="#000000" fill-rule="nonzero" fill-opacity="1" /><path clip-path="url(#clip540)" d="M1657.52 48.0275 L1657.52 51.6733 L1623.25 51.6733 Q1623.73 59.3701 1627.86 63.421 Q1632.04 67.4314 1639.45 67.4314 Q1643.74 67.4314 1647.75 66.3781 Q1651.8 65.3249 1655.77 63.2184 L1655.77 70.267 Q1651.76 71.9684 1647.55 72.8596 Q1643.34 73.7508 1639 73.7508 Q1628.15 73.7508 1621.79 67.4314 Q1615.47 61.1119 1615.47 50.3365 Q1615.47 39.1965 1621.46 32.6746 Q1627.5 26.1121 1637.71 26.1121 Q1646.86 26.1121 1652.17 32.0264 Q1657.52 37.9003 1657.52 48.0275 M1650.06 45.84 Q1649.98 39.7232 1646.62 36.0774 Q1643.3 32.4315 1637.79 32.4315 Q1631.55 32.4315 1627.78 35.9558 Q1624.06 39.4801 1623.49 45.8805 L1650.06 45.84 Z" fill="#000000" fill-rule="nonzero" fill-opacity="1" /><path clip-path="url(#clip540)" d="M1690.37 49.7694 Q1681.34 49.7694 1677.85 51.8354 Q1674.37 53.9013 1674.37 58.8839 Q1674.37 62.8538 1676.96 65.2034 Q1679.59 67.5124 1684.09 67.5124 Q1690.29 67.5124 1694.01 63.1374 Q1697.78 58.7219 1697.78 51.4303 L1697.78 49.7694 L1690.37 49.7694 M1705.24 46.6907 L1705.24 72.576 L1697.78 72.576 L1697.78 65.6895 Q1695.23 69.8214 1691.42 71.8063 Q1687.61 73.7508 1682.1 73.7508 Q1675.14 73.7508 1671.01 69.8619 Q1666.91 65.9325 1666.91 59.3701 Q1666.91 51.7138 1672.02 47.825 Q1677.16 43.9361 1687.33 43.9361 L1697.78 43.9361 L1697.78 43.2069 Q1697.78 38.0623 1694.38 35.2672 Q1691.02 32.4315 1684.9 32.4315 Q1681.01 32.4315 1677.32 33.3632 Q1673.64 34.295 1670.24 36.1584 L1670.24 29.2718 Q1674.33 27.692 1678.18 26.9223 Q1682.02 26.1121 1685.67 26.1121 Q1695.51 26.1121 1700.37 31.2163 Q1705.24 36.3204 1705.24 46.6907 Z" fill="#000000" fill-rule="nonzero" fill-opacity="1" /><path clip-path="url(#clip540)" d="M1758.3 45.1919 L1758.3 72.576 L1750.85 72.576 L1750.85 45.4349 Q1750.85 38.994 1748.34 35.7938 Q1745.83 32.5936 1740.8 32.5936 Q1734.77 32.5936 1731.28 36.4419 Q1727.8 40.2903 1727.8 46.9338 L1727.8 72.576 L1720.3 72.576 L1720.3 27.2059 L1727.8 27.2059 L1727.8 34.2544 Q1730.47 30.163 1734.08 28.1376 Q1737.72 26.1121 1742.46 26.1121 Q1750.28 26.1121 1754.29 30.9732 Q1758.3 35.7938 1758.3 45.1919 Z" fill="#000000" fill-rule="nonzero" fill-opacity="1" /><path clip-path="url(#clip540)" d="M1806.75 65.7705 L1806.75 89.8329 L1799.26 89.8329 L1799.26 27.2059 L1806.75 27.2059 L1806.75 34.0924 Q1809.1 30.0415 1812.67 28.0971 Q1816.27 26.1121 1821.25 26.1121 Q1829.52 26.1121 1834.66 32.6746 Q1839.85 39.2371 1839.85 49.9314 Q1839.85 60.6258 1834.66 67.1883 Q1829.52 73.7508 1821.25 73.7508 Q1816.27 73.7508 1812.67 71.8063 Q1809.1 69.8214 1806.75 65.7705 M1832.11 49.9314 Q1832.11 41.7081 1828.71 37.0496 Q1825.34 32.3505 1819.43 32.3505 Q1813.52 32.3505 1810.11 37.0496 Q1806.75 41.7081 1806.75 49.9314 Q1806.75 58.1548 1810.11 62.8538 Q1813.52 67.5124 1819.43 67.5124 Q1825.34 67.5124 1828.71 62.8538 Q1832.11 58.1548 1832.11 49.9314 Z" fill="#000000" fill-rule="nonzero" fill-opacity="1" /><path clip-path="url(#clip540)" d="M1878.49 34.1734 Q1877.24 33.4443 1875.74 33.1202 Q1874.28 32.7556 1872.5 32.7556 Q1866.18 32.7556 1862.78 36.8875 Q1859.41 40.9789 1859.41 48.6757 L1859.41 72.576 L1851.92 72.576 L1851.92 27.2059 L1859.41 27.2059 L1859.41 34.2544 Q1861.76 30.1225 1865.53 28.1376 Q1869.3 26.1121 1874.68 26.1121 Q1875.45 26.1121 1876.39 26.2337 Q1877.32 26.3147 1878.45 26.5172 L1878.49 34.1734 Z" fill="#000000" fill-rule="nonzero" fill-opacity="1" /><path clip-path="url(#clip540)" d="M1886.31 27.2059 L1893.76 27.2059 L1893.76 72.576 L1886.31 72.576 L1886.31 27.2059 M1886.31 9.54393 L1893.76 9.54393 L1893.76 18.9825 L1886.31 18.9825 L1886.31 9.54393 Z" fill="#000000" fill-rule="nonzero" fill-opacity="1" /><path clip-path="url(#clip540)" d="M1926.94 32.4315 Q1920.95 32.4315 1917.46 37.1306 Q1913.98 41.7891 1913.98 49.9314 Q1913.98 58.0738 1917.42 62.7728 Q1920.91 67.4314 1926.94 67.4314 Q1932.9 67.4314 1936.38 62.7323 Q1939.86 58.0333 1939.86 49.9314 Q1939.86 41.8701 1936.38 37.1711 Q1932.9 32.4315 1926.94 32.4315 M1926.94 26.1121 Q1936.66 26.1121 1942.21 32.4315 Q1947.76 38.7509 1947.76 49.9314 Q1947.76 61.0714 1942.21 67.4314 Q1936.66 73.7508 1926.94 73.7508 Q1917.18 73.7508 1911.63 67.4314 Q1906.12 61.0714 1906.12 49.9314 Q1906.12 38.7509 1911.63 32.4315 Q1917.18 26.1121 1926.94 26.1121 Z" fill="#000000" fill-rule="nonzero" fill-opacity="1" /><path clip-path="url(#clip540)" d="M1986.41 34.1734 Q1985.15 33.4443 1983.65 33.1202 Q1982.2 32.7556 1980.41 32.7556 Q1974.09 32.7556 1970.69 36.8875 Q1967.33 40.9789 1967.33 48.6757 L1967.33 72.576 L1959.83 72.576 L1959.83 27.2059 L1967.33 27.2059 L1967.33 34.2544 Q1969.68 30.1225 1973.45 28.1376 Q1977.21 26.1121 1982.6 26.1121 Q1983.37 26.1121 1984.3 26.2337 Q1985.23 26.3147 1986.37 26.5172 L1986.41 34.1734 Z" fill="#000000" fill-rule="nonzero" fill-opacity="1" /><path clip-path="url(#clip542)" d="M753.089 1156.4 L753.089 1423.18 L886.394 1423.18 L886.394 1156.4 L753.089 1156.4 L753.089 1156.4  Z" fill="#009af9" fill-rule="evenodd" fill-opacity="1"/>
<polyline clip-path="url(#clip542)" style="stroke:#000000; stroke-linecap:round; stroke-linejoin:round; stroke-width:4; stroke-opacity:1; fill:none" points="753.089,1156.4 753.089,1423.18 886.394,1423.18 886.394,1156.4 753.089,1156.4 "/>
<path clip-path="url(#clip542)" d="M886.394 739.123 L886.394 1423.18 L1019.7 1423.18 L1019.7 739.123 L886.394 739.123 L886.394 739.123  Z" fill="#009af9" fill-rule="evenodd" fill-opacity="1"/>
<polyline clip-path="url(#clip542)" style="stroke:#000000; stroke-linecap:round; stroke-linejoin:round; stroke-width:4; stroke-opacity:1; fill:none" points="886.394,739.123 886.394,1423.18 1019.7,1423.18 1019.7,739.123 886.394,739.123 "/>
<path clip-path="url(#clip542)" d="M1019.7 561.268 L1019.7 1423.18 L1153.01 1423.18 L1153.01 561.268 L1019.7 561.268 L1019.7 561.268  Z" fill="#009af9" fill-rule="evenodd" fill-opacity="1"/>
<polyline clip-path="url(#clip542)" style="stroke:#000000; stroke-linecap:round; stroke-linejoin:round; stroke-width:4; stroke-opacity:1; fill:none" points="1019.7,561.268 1019.7,1423.18 1153.01,1423.18 1153.01,561.268 1019.7,561.268 "/>
<path clip-path="url(#clip542)" d="M1153.01 123.472 L1153.01 1423.18 L1286.31 1423.18 L1286.31 123.472 L1153.01 123.472 L1153.01 123.472  Z" fill="#009af9" fill-rule="evenodd" fill-opacity="1"/>
<polyline clip-path="url(#clip542)" style="stroke:#000000; stroke-linecap:round; stroke-linejoin:round; stroke-width:4; stroke-opacity:1; fill:none" points="1153.01,123.472 1153.01,1423.18 1286.31,1423.18 1286.31,123.472 1153.01,123.472 "/>
<path clip-path="url(#clip542)" d="M1286.31 315.008 L1286.31 1423.18 L1419.62 1423.18 L1419.62 315.008 L1286.31 315.008 L1286.31 315.008  Z" fill="#009af9" fill-rule="evenodd" fill-opacity="1"/>
<polyline clip-path="url(#clip542)" style="stroke:#000000; stroke-linecap:round; stroke-linejoin:round; stroke-width:4; stroke-opacity:1; fill:none" points="1286.31,315.008 1286.31,1423.18 1419.62,1423.18 1419.62,315.008 1286.31,315.008 "/>
<path clip-path="url(#clip542)" d="M1419.62 657.036 L1419.62 1423.18 L1552.92 1423.18 L1552.92 657.036 L1419.62 657.036 L1419.62 657.036  Z" fill="#009af9" fill-rule="evenodd" fill-opacity="1"/>
<polyline clip-path="url(#clip542)" style="stroke:#000000; stroke-linecap:round; stroke-linejoin:round; stroke-width:4; stroke-opacity:1; fill:none" points="1419.62,657.036 1419.62,1423.18 1552.92,1423.18 1552.92,657.036 1419.62,657.036 "/>
<path clip-path="url(#clip542)" d="M1552.92 964.862 L1552.92 1423.18 L1686.23 1423.18 L1686.23 964.862 L1552.92 964.862 L1552.92 964.862  Z" fill="#009af9" fill-rule="evenodd" fill-opacity="1"/>
<polyline clip-path="url(#clip542)" style="stroke:#000000; stroke-linecap:round; stroke-linejoin:round; stroke-width:4; stroke-opacity:1; fill:none" points="1552.92,964.862 1552.92,1423.18 1686.23,1423.18 1686.23,964.862 1552.92,964.862 "/>
<path clip-path="url(#clip542)" d="M1686.23 1204.28 L1686.23 1423.18 L1819.53 1423.18 L1819.53 1204.28 L1686.23 1204.28 L1686.23 1204.28  Z" fill="#009af9" fill-rule="evenodd" fill-opacity="1"/>
<polyline clip-path="url(#clip542)" style="stroke:#000000; stroke-linecap:round; stroke-linejoin:round; stroke-width:4; stroke-opacity:1; fill:none" points="1686.23,1204.28 1686.23,1423.18 1819.53,1423.18 1819.53,1204.28 1686.23,1204.28 "/>
<path clip-path="url(#clip542)" d="M1819.53 1300.05 L1819.53 1423.18 L1952.84 1423.18 L1952.84 1300.05 L1819.53 1300.05 L1819.53 1300.05  Z" fill="#009af9" fill-rule="evenodd" fill-opacity="1"/>
<polyline clip-path="url(#clip542)" style="stroke:#000000; stroke-linecap:round; stroke-linejoin:round; stroke-width:4; stroke-opacity:1; fill:none" points="1819.53,1300.05 1819.53,1423.18 1952.84,1423.18 1952.84,1300.05 1819.53,1300.05 "/>
<path clip-path="url(#clip542)" d="M1952.84 1334.25 L1952.84 1423.18 L2086.14 1423.18 L2086.14 1334.25 L1952.84 1334.25 L1952.84 1334.25  Z" fill="#009af9" fill-rule="evenodd" fill-opacity="1"/>
<polyline clip-path="url(#clip542)" style="stroke:#000000; stroke-linecap:round; stroke-linejoin:round; stroke-width:4; stroke-opacity:1; fill:none" points="1952.84,1334.25 1952.84,1423.18 2086.14,1423.18 2086.14,1334.25 1952.84,1334.25 "/>
<path clip-path="url(#clip542)" d="M2086.14 1402.66 L2086.14 1423.18 L2219.45 1423.18 L2219.45 1402.66 L2086.14 1402.66 L2086.14 1402.66  Z" fill="#009af9" fill-rule="evenodd" fill-opacity="1"/>
<polyline clip-path="url(#clip542)" style="stroke:#000000; stroke-linecap:round; stroke-linejoin:round; stroke-width:4; stroke-opacity:1; fill:none" points="2086.14,1402.66 2086.14,1423.18 2219.45,1423.18 2219.45,1402.66 2086.14,1402.66 "/>
<circle clip-path="url(#clip542)" style="fill:#009af9; stroke:none; fill-opacity:0" cx="819.741" cy="1156.4" r="2"/>
<circle clip-path="url(#clip542)" style="fill:#009af9; stroke:none; fill-opacity:0" cx="953.047" cy="739.123" r="2"/>
<circle clip-path="url(#clip542)" style="fill:#009af9; stroke:none; fill-opacity:0" cx="1086.35" cy="561.268" r="2"/>
<circle clip-path="url(#clip542)" style="fill:#009af9; stroke:none; fill-opacity:0" cx="1219.66" cy="123.472" r="2"/>
<circle clip-path="url(#clip542)" style="fill:#009af9; stroke:none; fill-opacity:0" cx="1352.96" cy="315.008" r="2"/>
<circle clip-path="url(#clip542)" style="fill:#009af9; stroke:none; fill-opacity:0" cx="1486.27" cy="657.036" r="2"/>
<circle clip-path="url(#clip542)" style="fill:#009af9; stroke:none; fill-opacity:0" cx="1619.58" cy="964.862" r="2"/>
<circle clip-path="url(#clip542)" style="fill:#009af9; stroke:none; fill-opacity:0" cx="1752.88" cy="1204.28" r="2"/>
<circle clip-path="url(#clip542)" style="fill:#009af9; stroke:none; fill-opacity:0" cx="1886.19" cy="1300.05" r="2"/>
<circle clip-path="url(#clip542)" style="fill:#009af9; stroke:none; fill-opacity:0" cx="2019.49" cy="1334.25" r="2"/>
<circle clip-path="url(#clip542)" style="fill:#009af9; stroke:none; fill-opacity:0" cx="2152.8" cy="1402.66" r="2"/>
<polyline clip-path="url(#clip542)" style="stroke:#ffffff; stroke-linecap:round; stroke-linejoin:round; stroke-width:12; stroke-opacity:1; fill:none" points="-40070.7,1423.18 -39608.4,1423.18 -39146,1423.18 -38683.6,1423.18 -38221.3,1423.18 -37758.9,1423.18 -37296.6,1423.18 -36834.2,1423.18 -36371.9,1423.18 -35909.5,1423.18 -35447.2,1423.18 -34984.8,1423.18 -34522.4,1423.18 -34060.1,1423.18 -33597.7,1423.18 -33135.4,1423.18 -32673,1423.18 -32210.7,1423.18 -31748.3,1423.18 -31286,1423.18 -30823.6,1423.18 -30361.2,1423.18 -29898.9,1423.18 -29436.5,1423.18 -28974.2,1423.18 -28511.8,1423.18 -28049.5,1423.18 -27587.1,1423.18 -27124.8,1423.18 -26662.4,1423.18 -26200,1423.18 -25737.7,1423.18 -25275.3,1423.18 -24813,1423.18 -24350.6,1423.18 -23888.3,1423.18 -23425.9,1423.18 -22963.5,1423.18 -22501.2,1423.18 -22038.8,1423.17 -21576.5,1423.18 -21114.1,1423.18 -20651.8,1423.18 -20189.4,1423.17 -19727.1,1423.17 -19264.7,1423.17 -18802.3,1423.17 -18340,1423.17 -17877.6,1423.17 -17415.3,1423.16 -16952.9,1423.17 -16490.6,1423.17 -16028.2,1423.17 -15565.9,1423.17 -15103.5,1423.16 -14641.1,1423.16 -14178.8,1423.16 -13716.4,1423.16 -13254.1,1423.16 -12791.7,1423.15 -12329.4,1423.15 -11867,1423.16 -11404.6,1423.14 -10942.3,1423.14 -10479.9,1423.14 -10017.6,1423.14 -9555.23,1423.12 -9092.87,1423.1 -8630.51,1423.09 -8168.16,1423.08 -7705.8,1423.05 -7243.45,1422.99 -6781.09,1422.93 -6318.73,1422.85 -5856.38,1422.74 -5394.02,1422.61 -4931.67,1422.38 -4469.31,1421.93 -4006.95,1421.22 -3544.6,1419.92 -3082.24,1417.77 -2619.89,1414.11 -2157.53,1407.72 -1695.17,1397.38 -1232.82,1380.36 -770.463,1354.87 -308.107,1317.76 154.249,1269.75 616.605,1217.73 1078.96,1183.45 1541.32,1189.23 2003.67,1229.95 2466.03,1282.21 2928.38,1328.89 3390.74,1361.86 3853.1,1385.21 4315.45,1400.54 4777.81,1409.7 5240.16,1415.21 5702.52,1418.5 6164.88,1420.46 6627.23,1421.4 7089.59,1422.08 7551.94,1422.47 8014.3,1422.7 8476.66,1422.76 8939.01,1422.89 9401.37,1423 9863.72,1423.03 10326.1,1423.06 10788.4,1423.07 11250.8,1423.08 11713.1,1423.1 12175.5,1423.13 12637.9,1423.14 13100.2,1423.14 13562.6,1423.15 14024.9,1423.15 14487.3,1423.15 14949.6,1423.15 15412,1423.16 15874.4,1423.16 16336.7,1423.16 16799.1,1423.16 17261.4,1423.17 17723.8,1423.16 18186.1,1423.17 18648.5,1423.17 19110.8,1423.17 19573.2,1423.17 20035.6,1423.17 20497.9,1423.17 20960.3,1423.18 21422.6,1423.18 21885,1423.17 22347.3,1423.17 22809.7,1423.18 23272,1423.18 23734.4,1423.18 24196.8,1423.18 24659.1,1423.18 25121.5,1423.18 25583.8,1423.18 26046.2,1423.18 26508.5,1423.18 26970.9,1423.18 27433.2,1423.18 27895.6,1423.18 28358,1423.18 28820.3,1423.18 29282.7,1423.18 29745,1423.18 30207.4,1423.18 30669.7,1423.18 31132.1,1423.18 31594.5,1423.18 32056.8,1423.18 32519.2,1423.18 32981.5,1423.18 33443.9,1423.18 33906.2,1423.18 34368.6,1423.18 34830.9,1423.18 35293.3,1423.18 35755.7,1423.18 36218,1423.18 36680.4,1423.18 37142.7,1423.18 37605.1,1423.18 38067.4,1423.18 38529.8,1423.18 38992.1,1423.18 39454.5,1423.18 39916.9,1423.18 40379.2,1423.18 40841.6,1423.18 41303.9,1423.18 41766.3,1423.18 42228.6,1423.18 42691,1423.18 43153.4,1423.18 43615.7,1423.18 44078.1,1423.18 44540.4,1423.18 45002.8,1423.18 45465.1,1423.18 45927.5,1423.18 46389.8,1423.18 46852.2,1423.18 47314.6,1423.18 47776.9,1423.18 48239.3,1423.18 48701.6,1423.18 49164,1423.18 49626.3,1423.18 50088.7,1423.18 50551,1423.18 51013.4,1423.18 51475.8,1423.18 51938.1,1423.18 "/>
<path clip-path="url(#clip542)" d="M-40070.7 1423.18 L-39608.4 1423.18 L-39146 1423.18 L-38683.6 1423.18 L-38221.3 1423.18 L-37758.9 1423.18 L-37296.6 1423.18 L-36834.2 1423.18 L-36371.9 1423.18 L-35909.5 1423.18 L-35447.2 1423.18 L-34984.8 1423.18 L-34522.4 1423.18 L-34060.1 1423.18 L-33597.7 1423.18 L-33135.4 1423.18 L-32673 1423.18 L-32210.7 1423.18 L-31748.3 1423.18 L-31286 1423.18 L-30823.6 1423.18 L-30361.2 1423.18 L-29898.9 1423.18 L-29436.5 1423.18 L-28974.2 1423.18 L-28511.8 1423.18 L-28049.5 1423.18 L-27587.1 1423.18 L-27124.8 1423.18 L-26662.4 1423.18 L-26200 1423.18 L-25737.7 1423.18 L-25275.3 1423.18 L-24813 1423.18 L-24350.6 1423.18 L-23888.3 1423.18 L-23425.9 1423.18 L-22963.5 1423.18 L-22501.2 1423.18 L-22038.8 1423.17 L-21576.5 1423.18 L-21114.1 1423.18 L-20651.8 1423.18 L-20189.4 1423.17 L-19727.1 1423.17 L-19264.7 1423.17 L-18802.3 1423.17 L-18340 1423.17 L-17877.6 1423.17 L-17415.3 1423.16 L-16952.9 1423.17 L-16490.6 1423.17 L-16028.2 1423.17 L-15565.9 1423.17 L-15103.5 1423.16 L-14641.1 1423.16 L-14178.8 1423.16 L-13716.4 1423.16 L-13254.1 1423.16 L-12791.7 1423.15 L-12329.4 1423.15 L-11867 1423.16 L-11404.6 1423.14 L-10942.3 1423.14 L-10479.9 1423.14 L-10017.6 1423.14 L-9555.23 1423.12 L-9092.87 1423.1 L-8630.51 1423.09 L-8168.16 1423.08 L-7705.8 1423.05 L-7243.45 1422.99 L-6781.09 1422.93 L-6318.73 1422.85 L-5856.38 1422.74 L-5394.02 1422.61 L-4931.67 1422.38 L-4469.31 1421.93 L-4006.95 1421.22 L-3544.6 1419.92 L-3082.24 1417.77 L-2619.89 1414.11 L-2157.53 1407.72 L-1695.17 1397.38 L-1232.82 1380.36 L-770.463 1354.87 L-308.107 1317.76 L154.249 1269.75 L616.605 1217.73 L1078.96 1183.45 L1541.32 1189.23 L2003.67 1229.95 L2466.03 1282.21 L2928.38 1328.89 L3390.74 1361.86 L3853.1 1385.21 L4315.45 1400.54 L4777.81 1409.7 L5240.16 1415.21 L5702.52 1418.5 L6164.88 1420.46 L6627.23 1421.4 L7089.59 1422.08 L7551.94 1422.47 L8014.3 1422.7 L8476.66 1422.76 L8939.01 1422.89 L9401.37 1423 L9863.72 1423.03 L10326.1 1423.06 L10788.4 1423.07 L11250.8 1423.08 L11713.1 1423.1 L12175.5 1423.13 L12637.9 1423.14 L13100.2 1423.14 L13562.6 1423.15 L14024.9 1423.15 L14487.3 1423.15 L14949.6 1423.15 L15412 1423.16 L15874.4 1423.16 L16336.7 1423.16 L16799.1 1423.16 L17261.4 1423.17 L17723.8 1423.16 L18186.1 1423.17 L18648.5 1423.17 L19110.8 1423.17 L19573.2 1423.17 L20035.6 1423.17 L20497.9 1423.17 L20960.3 1423.18 L21422.6 1423.18 L21885 1423.17 L22347.3 1423.17 L22809.7 1423.18 L23272 1423.18 L23734.4 1423.18 L24196.8 1423.18 L24659.1 1423.18 L25121.5 1423.18 L25583.8 1423.18 L26046.2 1423.18 L26508.5 1423.18 L26970.9 1423.18 L27433.2 1423.18 L27895.6 1423.18 L28358 1423.18 L28820.3 1423.18 L29282.7 1423.18 L29745 1423.18 L30207.4 1423.18 L30669.7 1423.18 L31132.1 1423.18 L31594.5 1423.18 L32056.8 1423.18 L32519.2 1423.18 L32981.5 1423.18 L33443.9 1423.18 L33906.2 1423.18 L34368.6 1423.18 L34830.9 1423.18 L35293.3 1423.18 L35755.7 1423.18 L36218 1423.18 L36680.4 1423.18 L37142.7 1423.18 L37605.1 1423.18 L38067.4 1423.18 L38529.8 1423.18 L38992.1 1423.18 L39454.5 1423.18 L39916.9 1423.18 L40379.2 1423.18 L40841.6 1423.18 L41303.9 1423.18 L41766.3 1423.18 L42228.6 1423.18 L42691 1423.18 L43153.4 1423.18 L43615.7 1423.18 L44078.1 1423.18 L44540.4 1423.18 L45002.8 1423.18 L45465.1 1423.18 L45927.5 1423.18 L46389.8 1423.18 L46852.2 1423.18 L47314.6 1423.18 L47776.9 1423.18 L48239.3 1423.18 L48701.6 1423.18 L49164 1423.18 L49626.3 1423.18 L50088.7 1423.18 L50551 1423.18 L51013.4 1423.18 L51475.8 1423.18 L51938.1 1423.18 L51938.1 1423.18 L51475.8 1423.18 L51013.4 1423.18 L50551 1423.18 L50088.7 1423.18 L49626.3 1423.18 L49164 1423.18 L48701.6 1423.18 L48239.3 1423.18 L47776.9 1423.18 L47314.6 1423.18 L46852.2 1423.18 L46389.8 1423.18 L45927.5 1423.18 L45465.1 1423.18 L45002.8 1423.18 L44540.4 1423.18 L44078.1 1423.18 L43615.7 1423.18 L43153.4 1423.18 L42691 1423.18 L42228.6 1423.18 L41766.3 1423.18 L41303.9 1423.18 L40841.6 1423.18 L40379.2 1423.18 L39916.9 1423.18 L39454.5 1423.18 L38992.1 1423.18 L38529.8 1423.18 L38067.4 1423.18 L37605.1 1423.18 L37142.7 1423.18 L36680.4 1423.18 L36218 1423.18 L35755.7 1423.18 L35293.3 1423.18 L34830.9 1423.18 L34368.6 1423.18 L33906.2 1423.18 L33443.9 1423.18 L32981.5 1423.18 L32519.2 1423.18 L32056.8 1423.18 L31594.5 1423.18 L31132.1 1423.18 L30669.7 1423.18 L30207.4 1423.18 L29745 1423.18 L29282.7 1423.18 L28820.3 1423.18 L28358 1423.18 L27895.6 1423.18 L27433.2 1423.18 L26970.9 1423.18 L26508.5 1423.18 L26046.2 1423.18 L25583.8 1423.18 L25121.5 1423.18 L24659.1 1423.18 L24196.8 1423.18 L23734.4 1423.18 L23272 1423.18 L22809.7 1423.18 L22347.3 1423.18 L21885 1423.18 L21422.6 1423.18 L20960.3 1423.18 L20497.9 1423.18 L20035.6 1423.18 L19573.2 1423.18 L19110.8 1423.18 L18648.5 1423.18 L18186.1 1423.18 L17723.8 1423.18 L17261.4 1423.18 L16799.1 1423.18 L16336.7 1423.18 L15874.4 1423.18 L15412 1423.18 L14949.6 1423.18 L14487.3 1423.18 L14024.9 1423.18 L13562.6 1423.18 L13100.2 1423.18 L12637.9 1423.18 L12175.5 1423.18 L11713.1 1423.18 L11250.8 1423.18 L10788.4 1423.18 L10326.1 1423.18 L9863.72 1423.18 L9401.37 1423.18 L8939.01 1423.18 L8476.66 1423.18 L8014.3 1423.18 L7551.94 1423.18 L7089.59 1423.18 L6627.23 1423.18 L6164.88 1423.18 L5702.52 1423.18 L5240.16 1423.18 L4777.81 1423.18 L4315.45 1423.18 L3853.1 1423.18 L3390.74 1423.18 L2928.38 1423.18 L2466.03 1423.18 L2003.67 1423.18 L1541.32 1423.18 L1078.96 1423.18 L616.605 1423.18 L154.249 1423.18 L-308.107 1423.18 L-770.463 1423.18 L-1232.82 1423.18 L-1695.17 1423.18 L-2157.53 1423.18 L-2619.89 1423.18 L-3082.24 1423.18 L-3544.6 1423.18 L-4006.95 1423.18 L-4469.31 1423.18 L-4931.67 1423.18 L-5394.02 1423.18 L-5856.38 1423.18 L-6318.73 1423.18 L-6781.09 1423.18 L-7243.45 1423.18 L-7705.8 1423.18 L-8168.16 1423.18 L-8630.51 1423.18 L-9092.87 1423.18 L-9555.23 1423.18 L-10017.6 1423.18 L-10479.9 1423.18 L-10942.3 1423.18 L-11404.6 1423.18 L-11867 1423.18 L-12329.4 1423.18 L-12791.7 1423.18 L-13254.1 1423.18 L-13716.4 1423.18 L-14178.8 1423.18 L-14641.1 1423.18 L-15103.5 1423.18 L-15565.9 1423.18 L-16028.2 1423.18 L-16490.6 1423.18 L-16952.9 1423.18 L-17415.3 1423.18 L-17877.6 1423.18 L-18340 1423.18 L-18802.3 1423.18 L-19264.7 1423.18 L-19727.1 1423.18 L-20189.4 1423.18 L-20651.8 1423.18 L-21114.1 1423.18 L-21576.5 1423.18 L-22038.8 1423.18 L-22501.2 1423.18 L-22963.5 1423.18 L-23425.9 1423.18 L-23888.3 1423.18 L-24350.6 1423.18 L-24813 1423.18 L-25275.3 1423.18 L-25737.7 1423.18 L-26200 1423.18 L-26662.4 1423.18 L-27124.8 1423.18 L-27587.1 1423.18 L-28049.5 1423.18 L-28511.8 1423.18 L-28974.2 1423.18 L-29436.5 1423.18 L-29898.9 1423.18 L-30361.2 1423.18 L-30823.6 1423.18 L-31286 1423.18 L-31748.3 1423.18 L-32210.7 1423.18 L-32673 1423.18 L-33135.4 1423.18 L-33597.7 1423.18 L-34060.1 1423.18 L-34522.4 1423.18 L-34984.8 1423.18 L-35447.2 1423.18 L-35909.5 1423.18 L-36371.9 1423.18 L-36834.2 1423.18 L-37296.6 1423.18 L-37758.9 1423.18 L-38221.3 1423.18 L-38683.6 1423.18 L-39146 1423.18 L-39608.4 1423.18 L-40070.7 1423.18  Z" fill="#e26f46" fill-rule="evenodd" fill-opacity="0.2"/>
<polyline clip-path="url(#clip542)" style="stroke:#e26f46; stroke-linecap:round; stroke-linejoin:round; stroke-width:4; stroke-opacity:1; fill:none" points="-40070.7,1423.18 -39608.4,1423.18 -39146,1423.18 -38683.6,1423.18 -38221.3,1423.18 -37758.9,1423.18 -37296.6,1423.18 -36834.2,1423.18 -36371.9,1423.18 -35909.5,1423.18 -35447.2,1423.18 -34984.8,1423.18 -34522.4,1423.18 -34060.1,1423.18 -33597.7,1423.18 -33135.4,1423.18 -32673,1423.18 -32210.7,1423.18 -31748.3,1423.18 -31286,1423.18 -30823.6,1423.18 -30361.2,1423.18 -29898.9,1423.18 -29436.5,1423.18 -28974.2,1423.18 -28511.8,1423.18 -28049.5,1423.18 -27587.1,1423.18 -27124.8,1423.18 -26662.4,1423.18 -26200,1423.18 -25737.7,1423.18 -25275.3,1423.18 -24813,1423.18 -24350.6,1423.18 -23888.3,1423.18 -23425.9,1423.18 -22963.5,1423.18 -22501.2,1423.18 -22038.8,1423.17 -21576.5,1423.18 -21114.1,1423.18 -20651.8,1423.18 -20189.4,1423.17 -19727.1,1423.17 -19264.7,1423.17 -18802.3,1423.17 -18340,1423.17 -17877.6,1423.17 -17415.3,1423.16 -16952.9,1423.17 -16490.6,1423.17 -16028.2,1423.17 -15565.9,1423.17 -15103.5,1423.16 -14641.1,1423.16 -14178.8,1423.16 -13716.4,1423.16 -13254.1,1423.16 -12791.7,1423.15 -12329.4,1423.15 -11867,1423.16 -11404.6,1423.14 -10942.3,1423.14 -10479.9,1423.14 -10017.6,1423.14 -9555.23,1423.12 -9092.87,1423.1 -8630.51,1423.09 -8168.16,1423.08 -7705.8,1423.05 -7243.45,1422.99 -6781.09,1422.93 -6318.73,1422.85 -5856.38,1422.74 -5394.02,1422.61 -4931.67,1422.38 -4469.31,1421.93 -4006.95,1421.22 -3544.6,1419.92 -3082.24,1417.77 -2619.89,1414.11 -2157.53,1407.72 -1695.17,1397.38 -1232.82,1380.36 -770.463,1354.87 -308.107,1317.76 154.249,1269.75 616.605,1217.73 1078.96,1183.45 1541.32,1189.23 2003.67,1229.95 2466.03,1282.21 2928.38,1328.89 3390.74,1361.86 3853.1,1385.21 4315.45,1400.54 4777.81,1409.7 5240.16,1415.21 5702.52,1418.5 6164.88,1420.46 6627.23,1421.4 7089.59,1422.08 7551.94,1422.47 8014.3,1422.7 8476.66,1422.76 8939.01,1422.89 9401.37,1423 9863.72,1423.03 10326.1,1423.06 10788.4,1423.07 11250.8,1423.08 11713.1,1423.1 12175.5,1423.13 12637.9,1423.14 13100.2,1423.14 13562.6,1423.15 14024.9,1423.15 14487.3,1423.15 14949.6,1423.15 15412,1423.16 15874.4,1423.16 16336.7,1423.16 16799.1,1423.16 17261.4,1423.17 17723.8,1423.16 18186.1,1423.17 18648.5,1423.17 19110.8,1423.17 19573.2,1423.17 20035.6,1423.17 20497.9,1423.17 20960.3,1423.18 21422.6,1423.18 21885,1423.17 22347.3,1423.17 22809.7,1423.18 23272,1423.18 23734.4,1423.18 24196.8,1423.18 24659.1,1423.18 25121.5,1423.18 25583.8,1423.18 26046.2,1423.18 26508.5,1423.18 26970.9,1423.18 27433.2,1423.18 27895.6,1423.18 28358,1423.18 28820.3,1423.18 29282.7,1423.18 29745,1423.18 30207.4,1423.18 30669.7,1423.18 31132.1,1423.18 31594.5,1423.18 32056.8,1423.18 32519.2,1423.18 32981.5,1423.18 33443.9,1423.18 33906.2,1423.18 34368.6,1423.18 34830.9,1423.18 35293.3,1423.18 35755.7,1423.18 36218,1423.18 36680.4,1423.18 37142.7,1423.18 37605.1,1423.18 38067.4,1423.18 38529.8,1423.18 38992.1,1423.18 39454.5,1423.18 39916.9,1423.18 40379.2,1423.18 40841.6,1423.18 41303.9,1423.18 41766.3,1423.18 42228.6,1423.18 42691,1423.18 43153.4,1423.18 43615.7,1423.18 44078.1,1423.18 44540.4,1423.18 45002.8,1423.18 45465.1,1423.18 45927.5,1423.18 46389.8,1423.18 46852.2,1423.18 47314.6,1423.18 47776.9,1423.18 48239.3,1423.18 48701.6,1423.18 49164,1423.18 49626.3,1423.18 50088.7,1423.18 50551,1423.18 51013.4,1423.18 51475.8,1423.18 51938.1,1423.18 "/>
</svg>
