<?xml version="1.0" encoding="utf-8"?>
<svg xmlns="http://www.w3.org/2000/svg" xmlns:xlink="http://www.w3.org/1999/xlink" width="600" height="400" viewBox="0 0 2400 1600">
<defs>
  <clipPath id="clip960">
    <rect x="0" y="0" width="2400" height="1600"/>
  </clipPath>
</defs>
<path clip-path="url(#clip960)" d="M0 1600 L2400 1600 L2400 0 L0 0  Z" fill="#ffffff" fill-rule="evenodd" fill-opacity="1"/>
<defs>
  <clipPath id="clip961">
    <rect x="480" y="0" width="1681" height="1600"/>
  </clipPath>
</defs>
<path clip-path="url(#clip960)" d="M219.866 1423.18 L2352.76 1423.18 L2352.76 123.472 L219.866 123.472  Z" fill="#ffffff" fill-rule="evenodd" fill-opacity="1"/>
<defs>
  <clipPath id="clip962">
    <rect x="219" y="123" width="2134" height="1301"/>
  </clipPath>
</defs>
<polyline clip-path="url(#clip962)" style="stroke:#000000; stroke-linecap:round; stroke-linejoin:round; stroke-width:2; stroke-opacity:0.1; fill:none" points="219.866,1423.18 219.866,123.472 "/>
<polyline clip-path="url(#clip962)" style="stroke:#000000; stroke-linecap:round; stroke-linejoin:round; stroke-width:2; stroke-opacity:0.1; fill:none" points="753.089,1423.18 753.089,123.472 "/>
<polyline clip-path="url(#clip962)" style="stroke:#000000; stroke-linecap:round; stroke-linejoin:round; stroke-width:2; stroke-opacity:0.1; fill:none" points="1286.31,1423.18 1286.31,123.472 "/>
<polyline clip-path="url(#clip962)" style="stroke:#000000; stroke-linecap:round; stroke-linejoin:round; stroke-width:2; stroke-opacity:0.1; fill:none" points="1819.53,1423.18 1819.53,123.472 "/>
<polyline clip-path="url(#clip962)" style="stroke:#000000; stroke-linecap:round; stroke-linejoin:round; stroke-width:2; stroke-opacity:0.1; fill:none" points="2352.76,1423.18 2352.76,123.472 "/>
<polyline clip-path="url(#clip960)" style="stroke:#000000; stroke-linecap:round; stroke-linejoin:round; stroke-width:4; stroke-opacity:1; fill:none" points="219.866,1423.18 2352.76,1423.18 "/>
<polyline clip-path="url(#clip960)" style="stroke:#000000; stroke-linecap:round; stroke-linejoin:round; stroke-width:4; stroke-opacity:1; fill:none" points="219.866,1423.18 219.866,1404.28 "/>
<polyline clip-path="url(#clip960)" style="stroke:#000000; stroke-linecap:round; stroke-linejoin:round; stroke-width:4; stroke-opacity:1; fill:none" points="753.089,1423.18 753.089,1404.28 "/>
<polyline clip-path="url(#clip960)" style="stroke:#000000; stroke-linecap:round; stroke-linejoin:round; stroke-width:4; stroke-opacity:1; fill:none" points="1286.31,1423.18 1286.31,1404.28 "/>
<polyline clip-path="url(#clip960)" style="stroke:#000000; stroke-linecap:round; stroke-linejoin:round; stroke-width:4; stroke-opacity:1; fill:none" points="1819.53,1423.18 1819.53,1404.28 "/>
<polyline clip-path="url(#clip960)" style="stroke:#000000; stroke-linecap:round; stroke-linejoin:round; stroke-width:4; stroke-opacity:1; fill:none" points="2352.76,1423.18 2352.76,1404.28 "/>
<path clip-path="url(#clip960)" d="M188.767 1468.75 L218.443 1468.75 L218.443 1472.69 L188.767 1472.69 L188.767 1468.75 Z" fill="#000000" fill-rule="nonzero" fill-opacity="1" /><path clip-path="url(#clip960)" d="M241.382 1455.09 L229.577 1473.54 L241.382 1473.54 L241.382 1455.09 M240.156 1451.02 L246.035 1451.02 L246.035 1473.54 L250.966 1473.54 L250.966 1477.43 L246.035 1477.43 L246.035 1485.58 L241.382 1485.58 L241.382 1477.43 L225.781 1477.43 L225.781 1472.92 L240.156 1451.02 Z" fill="#000000" fill-rule="nonzero" fill-opacity="1" /><path clip-path="url(#clip960)" d="M723.031 1468.75 L752.707 1468.75 L752.707 1472.69 L723.031 1472.69 L723.031 1468.75 Z" fill="#000000" fill-rule="nonzero" fill-opacity="1" /><path clip-path="url(#clip960)" d="M766.827 1481.64 L783.146 1481.64 L783.146 1485.58 L761.202 1485.58 L761.202 1481.64 Q763.864 1478.89 768.447 1474.26 Q773.054 1469.61 774.234 1468.27 Q776.48 1465.74 777.359 1464.01 Q778.262 1462.25 778.262 1460.56 Q778.262 1457.8 776.318 1456.07 Q774.396 1454.33 771.295 1454.33 Q769.096 1454.33 766.642 1455.09 Q764.211 1455.86 761.434 1457.41 L761.434 1452.69 Q764.258 1451.55 766.711 1450.97 Q769.165 1450.39 771.202 1450.39 Q776.572 1450.39 779.767 1453.08 Q782.961 1455.77 782.961 1460.26 Q782.961 1462.39 782.151 1464.31 Q781.364 1466.2 779.258 1468.8 Q778.679 1469.47 775.577 1472.69 Q772.475 1475.88 766.827 1481.64 Z" fill="#000000" fill-rule="nonzero" fill-opacity="1" /><path clip-path="url(#clip960)" d="M1286.31 1454.1 Q1282.7 1454.1 1280.87 1457.66 Q1279.07 1461.2 1279.07 1468.33 Q1279.07 1475.44 1280.87 1479.01 Q1282.7 1482.55 1286.31 1482.55 Q1289.95 1482.55 1291.75 1479.01 Q1293.58 1475.44 1293.58 1468.33 Q1293.58 1461.2 1291.75 1457.66 Q1289.95 1454.1 1286.31 1454.1 M1286.31 1450.39 Q1292.12 1450.39 1295.18 1455 Q1298.26 1459.58 1298.26 1468.33 Q1298.26 1477.06 1295.18 1481.67 Q1292.12 1486.25 1286.31 1486.25 Q1280.5 1486.25 1277.42 1481.67 Q1274.37 1477.06 1274.37 1468.33 Q1274.37 1459.58 1277.42 1455 Q1280.5 1450.39 1286.31 1450.39 Z" fill="#000000" fill-rule="nonzero" fill-opacity="1" /><path clip-path="url(#clip960)" d="M1814.19 1481.64 L1830.51 1481.64 L1830.51 1485.58 L1808.56 1485.58 L1808.56 1481.64 Q1811.22 1478.89 1815.81 1474.26 Q1820.41 1469.61 1821.59 1468.27 Q1823.84 1465.74 1824.72 1464.01 Q1825.62 1462.25 1825.62 1460.56 Q1825.62 1457.8 1823.68 1456.07 Q1821.76 1454.33 1818.65 1454.33 Q1816.45 1454.33 1814 1455.09 Q1811.57 1455.86 1808.79 1457.41 L1808.79 1452.69 Q1811.62 1451.55 1814.07 1450.97 Q1816.52 1450.39 1818.56 1450.39 Q1823.93 1450.39 1827.13 1453.08 Q1830.32 1455.77 1830.32 1460.26 Q1830.32 1462.39 1829.51 1464.31 Q1828.72 1466.2 1826.62 1468.8 Q1826.04 1469.47 1822.94 1472.69 Q1819.83 1475.88 1814.19 1481.64 Z" fill="#000000" fill-rule="nonzero" fill-opacity="1" /><path clip-path="url(#clip960)" d="M2355.77 1455.09 L2343.96 1473.54 L2355.77 1473.54 L2355.77 1455.09 M2354.54 1451.02 L2360.42 1451.02 L2360.42 1473.54 L2365.35 1473.54 L2365.35 1477.43 L2360.42 1477.43 L2360.42 1485.58 L2355.77 1485.58 L2355.77 1477.43 L2340.16 1477.43 L2340.16 1472.92 L2354.54 1451.02 Z" fill="#000000" fill-rule="nonzero" fill-opacity="1" /><path clip-path="url(#clip960)" d="M885.319 1532.4 L913.137 1532.4 L913.137 1537.74 L891.112 1563.37 L913.137 1563.37 L913.137 1568.04 L884.524 1568.04 L884.524 1562.7 L906.549 1537.07 L885.319 1537.07 L885.319 1532.4 Z" fill="#000000" fill-rule="nonzero" fill-opacity="1" /><path clip-path="url(#clip960)" d="M919.121 1547.58 L936.277 1547.58 L936.277 1552.8 L919.121 1552.8 L919.121 1547.58 Z" fill="#000000" fill-rule="nonzero" fill-opacity="1" /><path clip-path="url(#clip960)" d="M968.328 1533.45 L968.328 1538.98 Q965.845 1537.71 963.172 1537.07 Q960.498 1536.44 957.634 1536.44 Q953.273 1536.44 951.077 1537.77 Q948.913 1539.11 948.913 1541.79 Q948.913 1543.82 950.472 1545 Q952.032 1546.15 956.743 1547.2 L958.748 1547.64 Q964.986 1548.98 967.596 1551.43 Q970.238 1553.85 970.238 1558.21 Q970.238 1563.17 966.291 1566.07 Q962.376 1568.97 955.501 1568.97 Q952.637 1568.97 949.517 1568.39 Q946.43 1567.85 942.993 1566.74 L942.993 1560.69 Q946.239 1562.38 949.39 1563.24 Q952.541 1564.07 955.629 1564.07 Q959.766 1564.07 961.994 1562.66 Q964.222 1561.23 964.222 1558.65 Q964.222 1556.27 962.599 1554.99 Q961.008 1553.72 955.565 1552.54 L953.528 1552.07 Q948.085 1550.92 945.666 1548.56 Q943.247 1546.18 943.247 1542.04 Q943.247 1537.01 946.812 1534.27 Q950.377 1531.54 956.934 1531.54 Q960.18 1531.54 963.045 1532.01 Q965.909 1532.49 968.328 1533.45 Z" fill="#000000" fill-rule="nonzero" fill-opacity="1" /><path clip-path="url(#clip960)" d="M985.356 1522.27 L985.356 1532.4 L997.419 1532.4 L997.419 1536.95 L985.356 1536.95 L985.356 1556.3 Q985.356 1560.66 986.534 1561.9 Q987.744 1563.14 991.404 1563.14 L997.419 1563.14 L997.419 1568.04 L991.404 1568.04 Q984.624 1568.04 982.046 1565.53 Q979.468 1562.98 979.468 1556.3 L979.468 1536.95 L975.171 1536.95 L975.171 1532.4 L979.468 1532.4 L979.468 1522.27 L985.356 1522.27 Z" fill="#000000" fill-rule="nonzero" fill-opacity="1" /><path clip-path="url(#clip960)" d="M1021.32 1550.12 Q1014.22 1550.12 1011.49 1551.75 Q1008.75 1553.37 1008.75 1557.29 Q1008.75 1560.4 1010.79 1562.25 Q1012.86 1564.07 1016.39 1564.07 Q1021.26 1564.07 1024.19 1560.63 Q1027.15 1557.16 1027.15 1551.43 L1027.15 1550.12 L1021.32 1550.12 M1033 1547.71 L1033 1568.04 L1027.15 1568.04 L1027.15 1562.63 Q1025.14 1565.88 1022.15 1567.44 Q1019.16 1568.97 1014.83 1568.97 Q1009.36 1568.97 1006.11 1565.91 Q1002.89 1562.82 1002.89 1557.67 Q1002.89 1551.65 1006.9 1548.6 Q1010.95 1545.54 1018.94 1545.54 L1027.15 1545.54 L1027.15 1544.97 Q1027.15 1540.93 1024.47 1538.73 Q1021.83 1536.5 1017.03 1536.5 Q1013.97 1536.5 1011.07 1537.23 Q1008.18 1537.97 1005.5 1539.43 L1005.5 1534.02 Q1008.72 1532.78 1011.74 1532.17 Q1014.77 1531.54 1017.63 1531.54 Q1025.36 1531.54 1029.18 1535.55 Q1033 1539.56 1033 1547.71 Z" fill="#000000" fill-rule="nonzero" fill-opacity="1" /><path clip-path="url(#clip960)" d="M1074.7 1546.53 L1074.7 1568.04 L1068.84 1568.04 L1068.84 1546.72 Q1068.84 1541.66 1066.87 1539.14 Q1064.9 1536.63 1060.95 1536.63 Q1056.21 1536.63 1053.47 1539.65 Q1050.73 1542.68 1050.73 1547.9 L1050.73 1568.04 L1044.84 1568.04 L1044.84 1532.4 L1050.73 1532.4 L1050.73 1537.93 Q1052.83 1534.72 1055.67 1533.13 Q1058.53 1531.54 1062.25 1531.54 Q1068.4 1531.54 1071.55 1535.36 Q1074.7 1539.14 1074.7 1546.53 Z" fill="#000000" fill-rule="nonzero" fill-opacity="1" /><path clip-path="url(#clip960)" d="M1109.84 1537.81 L1109.84 1518.52 L1115.69 1518.52 L1115.69 1568.04 L1109.84 1568.04 L1109.84 1562.7 Q1107.99 1565.88 1105.16 1567.44 Q1102.36 1568.97 1098.41 1568.97 Q1091.95 1568.97 1087.88 1563.81 Q1083.83 1558.65 1083.83 1550.25 Q1083.83 1541.85 1087.88 1536.69 Q1091.95 1531.54 1098.41 1531.54 Q1102.36 1531.54 1105.16 1533.1 Q1107.99 1534.62 1109.84 1537.81 M1089.88 1550.25 Q1089.88 1556.71 1092.52 1560.4 Q1095.2 1564.07 1099.84 1564.07 Q1104.49 1564.07 1107.16 1560.4 Q1109.84 1556.71 1109.84 1550.25 Q1109.84 1543.79 1107.16 1540.13 Q1104.49 1536.44 1099.84 1536.44 Q1095.2 1536.44 1092.52 1540.13 Q1089.88 1543.79 1089.88 1550.25 Z" fill="#000000" fill-rule="nonzero" fill-opacity="1" /><path clip-path="url(#clip960)" d="M1143.96 1550.12 Q1136.86 1550.12 1134.12 1551.75 Q1131.39 1553.37 1131.39 1557.29 Q1131.39 1560.4 1133.42 1562.25 Q1135.49 1564.07 1139.02 1564.07 Q1143.89 1564.07 1146.82 1560.63 Q1149.78 1557.16 1149.78 1551.43 L1149.78 1550.12 L1143.96 1550.12 M1155.64 1547.71 L1155.64 1568.04 L1149.78 1568.04 L1149.78 1562.63 Q1147.78 1565.88 1144.79 1567.44 Q1141.79 1568.97 1137.46 1568.97 Q1131.99 1568.97 1128.74 1565.91 Q1125.53 1562.82 1125.53 1557.67 Q1125.53 1551.65 1129.54 1548.6 Q1133.58 1545.54 1141.57 1545.54 L1149.78 1545.54 L1149.78 1544.97 Q1149.78 1540.93 1147.11 1538.73 Q1144.47 1536.5 1139.66 1536.5 Q1136.61 1536.5 1133.71 1537.23 Q1130.81 1537.97 1128.14 1539.43 L1128.14 1534.02 Q1131.35 1532.78 1134.38 1532.17 Q1137.4 1531.54 1140.27 1531.54 Q1148 1531.54 1151.82 1535.55 Q1155.64 1539.56 1155.64 1547.71 Z" fill="#000000" fill-rule="nonzero" fill-opacity="1" /><path clip-path="url(#clip960)" d="M1188.36 1537.87 Q1187.37 1537.3 1186.19 1537.04 Q1185.05 1536.76 1183.65 1536.76 Q1178.68 1536.76 1176.01 1540 Q1173.37 1543.22 1173.37 1549.27 L1173.37 1568.04 L1167.48 1568.04 L1167.48 1532.4 L1173.37 1532.4 L1173.37 1537.93 Q1175.21 1534.69 1178.17 1533.13 Q1181.13 1531.54 1185.37 1531.54 Q1185.97 1531.54 1186.7 1531.63 Q1187.44 1531.7 1188.33 1531.85 L1188.36 1537.87 Z" fill="#000000" fill-rule="nonzero" fill-opacity="1" /><path clip-path="url(#clip960)" d="M1216.81 1537.81 L1216.81 1518.52 L1222.67 1518.52 L1222.67 1568.04 L1216.81 1568.04 L1216.81 1562.7 Q1214.97 1565.88 1212.13 1567.44 Q1209.33 1568.97 1205.39 1568.97 Q1198.93 1568.97 1194.85 1563.81 Q1190.81 1558.65 1190.81 1550.25 Q1190.81 1541.85 1194.85 1536.69 Q1198.93 1531.54 1205.39 1531.54 Q1209.33 1531.54 1212.13 1533.1 Q1214.97 1534.62 1216.81 1537.81 M1196.86 1550.25 Q1196.86 1556.71 1199.5 1560.4 Q1202.17 1564.07 1206.82 1564.07 Q1211.47 1564.07 1214.14 1560.4 Q1216.81 1556.71 1216.81 1550.25 Q1216.81 1543.79 1214.14 1540.13 Q1211.47 1536.44 1206.82 1536.44 Q1202.17 1536.44 1199.5 1540.13 Q1196.86 1543.79 1196.86 1550.25 Z" fill="#000000" fill-rule="nonzero" fill-opacity="1" /><path clip-path="url(#clip960)" d="M1234.73 1532.4 L1240.59 1532.4 L1240.59 1568.04 L1234.73 1568.04 L1234.73 1532.4 M1234.73 1518.52 L1240.59 1518.52 L1240.59 1525.93 L1234.73 1525.93 L1234.73 1518.52 Z" fill="#000000" fill-rule="nonzero" fill-opacity="1" /><path clip-path="url(#clip960)" d="M1275.57 1533.45 L1275.57 1538.98 Q1273.09 1537.71 1270.41 1537.07 Q1267.74 1536.44 1264.87 1536.44 Q1260.51 1536.44 1258.32 1537.77 Q1256.15 1539.11 1256.15 1541.79 Q1256.15 1543.82 1257.71 1545 Q1259.27 1546.15 1263.98 1547.2 L1265.99 1547.64 Q1272.23 1548.98 1274.84 1551.43 Q1277.48 1553.85 1277.48 1558.21 Q1277.48 1563.17 1273.53 1566.07 Q1269.62 1568.97 1262.74 1568.97 Q1259.88 1568.97 1256.76 1568.39 Q1253.67 1567.85 1250.23 1566.74 L1250.23 1560.69 Q1253.48 1562.38 1256.63 1563.24 Q1259.78 1564.07 1262.87 1564.07 Q1267.01 1564.07 1269.24 1562.66 Q1271.46 1561.23 1271.46 1558.65 Q1271.46 1556.27 1269.84 1554.99 Q1268.25 1553.72 1262.81 1552.54 L1260.77 1552.07 Q1255.33 1550.92 1252.91 1548.56 Q1250.49 1546.18 1250.49 1542.04 Q1250.49 1537.01 1254.05 1534.27 Q1257.62 1531.54 1264.17 1531.54 Q1267.42 1531.54 1270.29 1532.01 Q1273.15 1532.49 1275.57 1533.45 Z" fill="#000000" fill-rule="nonzero" fill-opacity="1" /><path clip-path="url(#clip960)" d="M1317.3 1548.76 L1317.3 1551.62 L1290.37 1551.62 Q1290.75 1557.67 1294 1560.85 Q1297.28 1564 1303.1 1564 Q1306.47 1564 1309.63 1563.17 Q1312.81 1562.35 1315.93 1560.69 L1315.93 1566.23 Q1312.78 1567.57 1309.47 1568.27 Q1306.16 1568.97 1302.75 1568.97 Q1294.22 1568.97 1289.22 1564 Q1284.26 1559.04 1284.26 1550.57 Q1284.26 1541.82 1288.97 1536.69 Q1293.71 1531.54 1301.73 1531.54 Q1308.93 1531.54 1313.09 1536.18 Q1317.3 1540.8 1317.3 1548.76 M1311.44 1547.04 Q1311.38 1542.23 1308.73 1539.37 Q1306.12 1536.5 1301.8 1536.5 Q1296.89 1536.5 1293.93 1539.27 Q1291.01 1542.04 1290.56 1547.07 L1311.44 1547.04 Z" fill="#000000" fill-rule="nonzero" fill-opacity="1" /><path clip-path="url(#clip960)" d="M1350.37 1537.81 L1350.37 1518.52 L1356.22 1518.52 L1356.22 1568.04 L1350.37 1568.04 L1350.37 1562.7 Q1348.52 1565.88 1345.69 1567.44 Q1342.89 1568.97 1338.94 1568.97 Q1332.48 1568.97 1328.4 1563.81 Q1324.36 1558.65 1324.36 1550.25 Q1324.36 1541.85 1328.4 1536.69 Q1332.48 1531.54 1338.94 1531.54 Q1342.89 1531.54 1345.69 1533.1 Q1348.52 1534.62 1350.37 1537.81 M1330.41 1550.25 Q1330.41 1556.71 1333.05 1560.4 Q1335.72 1564.07 1340.37 1564.07 Q1345.02 1564.07 1347.69 1560.4 Q1350.37 1556.71 1350.37 1550.25 Q1350.37 1543.79 1347.69 1540.13 Q1345.02 1536.44 1340.37 1536.44 Q1335.72 1536.44 1333.05 1540.13 Q1330.41 1543.79 1330.41 1550.25 Z" fill="#000000" fill-rule="nonzero" fill-opacity="1" /><path clip-path="url(#clip960)" d="M1389.01 1518.52 L1394.86 1518.52 L1394.86 1568.04 L1389.01 1568.04 L1389.01 1518.52 Z" fill="#000000" fill-rule="nonzero" fill-opacity="1" /><path clip-path="url(#clip960)" d="M1420.93 1536.5 Q1416.22 1536.5 1413.48 1540.19 Q1410.74 1543.85 1410.74 1550.25 Q1410.74 1556.65 1413.45 1560.34 Q1416.19 1564 1420.93 1564 Q1425.61 1564 1428.35 1560.31 Q1431.08 1556.62 1431.08 1550.25 Q1431.08 1543.92 1428.35 1540.23 Q1425.61 1536.5 1420.93 1536.5 M1420.93 1531.54 Q1428.57 1531.54 1432.93 1536.5 Q1437.29 1541.47 1437.29 1550.25 Q1437.29 1559 1432.93 1564 Q1428.57 1568.97 1420.93 1568.97 Q1413.26 1568.97 1408.9 1564 Q1404.57 1559 1404.57 1550.25 Q1404.57 1541.47 1408.9 1536.5 Q1413.26 1531.54 1420.93 1531.54 Z" fill="#000000" fill-rule="nonzero" fill-opacity="1" /><path clip-path="url(#clip960)" d="M1470.46 1549.81 Q1470.46 1543.44 1467.81 1539.94 Q1465.2 1536.44 1460.46 1536.44 Q1455.75 1536.44 1453.11 1539.94 Q1450.5 1543.44 1450.5 1549.81 Q1450.5 1556.14 1453.11 1559.64 Q1455.75 1563.14 1460.46 1563.14 Q1465.2 1563.14 1467.81 1559.64 Q1470.46 1556.14 1470.46 1549.81 M1476.31 1563.62 Q1476.31 1572.72 1472.27 1577.15 Q1468.23 1581.6 1459.89 1581.6 Q1456.8 1581.6 1454.06 1581.13 Q1451.33 1580.68 1448.75 1579.72 L1448.75 1574.03 Q1451.33 1575.43 1453.84 1576.1 Q1456.36 1576.76 1458.96 1576.76 Q1464.73 1576.76 1467.59 1573.74 Q1470.46 1570.75 1470.46 1564.67 L1470.46 1561.77 Q1468.64 1564.92 1465.81 1566.48 Q1462.98 1568.04 1459.03 1568.04 Q1452.47 1568.04 1448.46 1563.05 Q1444.45 1558.05 1444.45 1549.81 Q1444.45 1541.53 1448.46 1536.53 Q1452.47 1531.54 1459.03 1531.54 Q1462.98 1531.54 1465.81 1533.1 Q1468.64 1534.66 1470.46 1537.81 L1470.46 1532.4 L1476.31 1532.4 L1476.31 1563.62 Z" fill="#000000" fill-rule="nonzero" fill-opacity="1" /><path clip-path="url(#clip960)" d="M1485.41 1547.58 L1502.57 1547.58 L1502.57 1552.8 L1485.41 1552.8 L1485.41 1547.58 Z" fill="#000000" fill-rule="nonzero" fill-opacity="1" /><path clip-path="url(#clip960)" d="M1537.55 1533.76 L1537.55 1539.24 Q1535.07 1537.87 1532.55 1537.2 Q1530.07 1536.5 1527.52 1536.5 Q1521.83 1536.5 1518.68 1540.13 Q1515.52 1543.73 1515.52 1550.25 Q1515.52 1556.78 1518.68 1560.4 Q1521.83 1564 1527.52 1564 Q1530.07 1564 1532.55 1563.33 Q1535.07 1562.63 1537.55 1561.26 L1537.55 1566.68 Q1535.1 1567.82 1532.46 1568.39 Q1529.85 1568.97 1526.89 1568.97 Q1518.83 1568.97 1514.09 1563.91 Q1509.35 1558.85 1509.35 1550.25 Q1509.35 1541.53 1514.12 1536.53 Q1518.93 1531.54 1527.27 1531.54 Q1529.97 1531.54 1532.55 1532.11 Q1535.13 1532.65 1537.55 1533.76 Z" fill="#000000" fill-rule="nonzero" fill-opacity="1" /><path clip-path="url(#clip960)" d="M1561.55 1536.5 Q1556.84 1536.5 1554.1 1540.19 Q1551.36 1543.85 1551.36 1550.25 Q1551.36 1556.65 1554.07 1560.34 Q1556.81 1564 1561.55 1564 Q1566.23 1564 1568.96 1560.31 Q1571.7 1556.62 1571.7 1550.25 Q1571.7 1543.92 1568.96 1540.23 Q1566.23 1536.5 1561.55 1536.5 M1561.55 1531.54 Q1569.19 1531.54 1573.55 1536.5 Q1577.91 1541.47 1577.91 1550.25 Q1577.91 1559 1573.55 1564 Q1569.19 1568.97 1561.55 1568.97 Q1553.88 1568.97 1549.52 1564 Q1545.19 1559 1545.19 1550.25 Q1545.19 1541.47 1549.52 1536.5 Q1553.88 1531.54 1561.55 1531.54 Z" fill="#000000" fill-rule="nonzero" fill-opacity="1" /><path clip-path="url(#clip960)" d="M1587.01 1553.98 L1587.01 1532.4 L1592.87 1532.4 L1592.87 1553.75 Q1592.87 1558.81 1594.84 1561.36 Q1596.81 1563.87 1600.76 1563.87 Q1605.5 1563.87 1608.24 1560.85 Q1611.01 1557.83 1611.01 1552.61 L1611.01 1532.4 L1616.87 1532.4 L1616.87 1568.04 L1611.01 1568.04 L1611.01 1562.57 Q1608.88 1565.82 1606.04 1567.41 Q1603.24 1568.97 1599.52 1568.97 Q1593.38 1568.97 1590.19 1565.15 Q1587.01 1561.33 1587.01 1553.98 M1601.75 1531.54 L1601.75 1531.54 Z" fill="#000000" fill-rule="nonzero" fill-opacity="1" /><path clip-path="url(#clip960)" d="M1658.56 1546.53 L1658.56 1568.04 L1652.71 1568.04 L1652.71 1546.72 Q1652.71 1541.66 1650.73 1539.14 Q1648.76 1536.63 1644.81 1536.63 Q1640.07 1536.63 1637.33 1539.65 Q1634.59 1542.68 1634.59 1547.9 L1634.59 1568.04 L1628.71 1568.04 L1628.71 1532.4 L1634.59 1532.4 L1634.59 1537.93 Q1636.7 1534.72 1639.53 1533.13 Q1642.39 1531.54 1646.12 1531.54 Q1652.26 1531.54 1655.41 1535.36 Q1658.56 1539.14 1658.56 1546.53 Z" fill="#000000" fill-rule="nonzero" fill-opacity="1" /><path clip-path="url(#clip960)" d="M1676.04 1522.27 L1676.04 1532.4 L1688.1 1532.4 L1688.1 1536.95 L1676.04 1536.95 L1676.04 1556.3 Q1676.04 1560.66 1677.21 1561.9 Q1678.42 1563.14 1682.08 1563.14 L1688.1 1563.14 L1688.1 1568.04 L1682.08 1568.04 Q1675.3 1568.04 1672.73 1565.53 Q1670.15 1562.98 1670.15 1556.3 L1670.15 1536.95 L1665.85 1536.95 L1665.85 1532.4 L1670.15 1532.4 L1670.15 1522.27 L1676.04 1522.27 Z" fill="#000000" fill-rule="nonzero" fill-opacity="1" /><polyline clip-path="url(#clip962)" style="stroke:#000000; stroke-linecap:round; stroke-linejoin:round; stroke-width:2; stroke-opacity:0.1; fill:none" points="219.866,1423.18 2352.76,1423.18 "/>
<polyline clip-path="url(#clip962)" style="stroke:#000000; stroke-linecap:round; stroke-linejoin:round; stroke-width:2; stroke-opacity:0.1; fill:none" points="219.866,1127.14 2352.76,1127.14 "/>
<polyline clip-path="url(#clip962)" style="stroke:#000000; stroke-linecap:round; stroke-linejoin:round; stroke-width:2; stroke-opacity:0.1; fill:none" points="219.866,831.091 2352.76,831.091 "/>
<polyline clip-path="url(#clip962)" style="stroke:#000000; stroke-linecap:round; stroke-linejoin:round; stroke-width:2; stroke-opacity:0.1; fill:none" points="219.866,535.046 2352.76,535.046 "/>
<polyline clip-path="url(#clip962)" style="stroke:#000000; stroke-linecap:round; stroke-linejoin:round; stroke-width:2; stroke-opacity:0.1; fill:none" points="219.866,239.002 2352.76,239.002 "/>
<polyline clip-path="url(#clip960)" style="stroke:#000000; stroke-linecap:round; stroke-linejoin:round; stroke-width:4; stroke-opacity:1; fill:none" points="219.866,1423.18 219.866,123.472 "/>
<polyline clip-path="url(#clip960)" style="stroke:#000000; stroke-linecap:round; stroke-linejoin:round; stroke-width:4; stroke-opacity:1; fill:none" points="219.866,1423.18 238.764,1423.18 "/>
<polyline clip-path="url(#clip960)" style="stroke:#000000; stroke-linecap:round; stroke-linejoin:round; stroke-width:4; stroke-opacity:1; fill:none" points="219.866,1127.14 238.764,1127.14 "/>
<polyline clip-path="url(#clip960)" style="stroke:#000000; stroke-linecap:round; stroke-linejoin:round; stroke-width:4; stroke-opacity:1; fill:none" points="219.866,831.091 238.764,831.091 "/>
<polyline clip-path="url(#clip960)" style="stroke:#000000; stroke-linecap:round; stroke-linejoin:round; stroke-width:4; stroke-opacity:1; fill:none" points="219.866,535.046 238.764,535.046 "/>
<polyline clip-path="url(#clip960)" style="stroke:#000000; stroke-linecap:round; stroke-linejoin:round; stroke-width:4; stroke-opacity:1; fill:none" points="219.866,239.002 238.764,239.002 "/>
<path clip-path="url(#clip960)" d="M126.691 1408.98 Q123.08 1408.98 121.251 1412.54 Q119.445 1416.08 119.445 1423.21 Q119.445 1430.32 121.251 1433.89 Q123.08 1437.43 126.691 1437.43 Q130.325 1437.43 132.13 1433.89 Q133.959 1430.32 133.959 1423.21 Q133.959 1416.08 132.13 1412.54 Q130.325 1408.98 126.691 1408.98 M126.691 1405.27 Q132.501 1405.27 135.556 1409.88 Q138.635 1414.46 138.635 1423.21 Q138.635 1431.94 135.556 1436.55 Q132.501 1441.13 126.691 1441.13 Q120.88 1441.13 117.802 1436.55 Q114.746 1431.94 114.746 1423.21 Q114.746 1414.46 117.802 1409.88 Q120.88 1405.27 126.691 1405.27 Z" fill="#000000" fill-rule="nonzero" fill-opacity="1" /><path clip-path="url(#clip960)" d="M146.853 1434.58 L151.737 1434.58 L151.737 1440.46 L146.853 1440.46 L146.853 1434.58 Z" fill="#000000" fill-rule="nonzero" fill-opacity="1" /><path clip-path="url(#clip960)" d="M171.922 1408.98 Q168.311 1408.98 166.482 1412.54 Q164.677 1416.08 164.677 1423.21 Q164.677 1430.32 166.482 1433.89 Q168.311 1437.43 171.922 1437.43 Q175.556 1437.43 177.362 1433.89 Q179.19 1430.32 179.19 1423.21 Q179.19 1416.08 177.362 1412.54 Q175.556 1408.98 171.922 1408.98 M171.922 1405.27 Q177.732 1405.27 180.788 1409.88 Q183.866 1414.46 183.866 1423.21 Q183.866 1431.94 180.788 1436.55 Q177.732 1441.13 171.922 1441.13 Q166.112 1441.13 163.033 1436.55 Q159.978 1431.94 159.978 1423.21 Q159.978 1414.46 163.033 1409.88 Q166.112 1405.27 171.922 1405.27 Z" fill="#000000" fill-rule="nonzero" fill-opacity="1" /><path clip-path="url(#clip960)" d="M127.917 1112.93 Q124.306 1112.93 122.478 1116.5 Q120.672 1120.04 120.672 1127.17 Q120.672 1134.28 122.478 1137.84 Q124.306 1141.38 127.917 1141.38 Q131.552 1141.38 133.357 1137.84 Q135.186 1134.28 135.186 1127.17 Q135.186 1120.04 133.357 1116.5 Q131.552 1112.93 127.917 1112.93 M127.917 1109.23 Q133.728 1109.23 136.783 1113.84 Q139.862 1118.42 139.862 1127.17 Q139.862 1135.9 136.783 1140.5 Q133.728 1145.09 127.917 1145.09 Q122.107 1145.09 119.029 1140.5 Q115.973 1135.9 115.973 1127.17 Q115.973 1118.42 119.029 1113.84 Q122.107 1109.23 127.917 1109.23 Z" fill="#000000" fill-rule="nonzero" fill-opacity="1" /><path clip-path="url(#clip960)" d="M148.079 1138.54 L152.964 1138.54 L152.964 1144.42 L148.079 1144.42 L148.079 1138.54 Z" fill="#000000" fill-rule="nonzero" fill-opacity="1" /><path clip-path="url(#clip960)" d="M163.959 1140.48 L171.598 1140.48 L171.598 1114.11 L163.288 1115.78 L163.288 1111.52 L171.552 1109.86 L176.227 1109.86 L176.227 1140.48 L183.866 1140.48 L183.866 1144.42 L163.959 1144.42 L163.959 1140.48 Z" fill="#000000" fill-rule="nonzero" fill-opacity="1" /><path clip-path="url(#clip960)" d="M128.288 816.889 Q124.677 816.889 122.848 820.454 Q121.043 823.996 121.043 831.125 Q121.043 838.232 122.848 841.797 Q124.677 845.338 128.288 845.338 Q131.922 845.338 133.728 841.797 Q135.556 838.232 135.556 831.125 Q135.556 823.996 133.728 820.454 Q131.922 816.889 128.288 816.889 M128.288 813.186 Q134.098 813.186 137.154 817.792 Q140.232 822.376 140.232 831.125 Q140.232 839.852 137.154 844.459 Q134.098 849.042 128.288 849.042 Q122.478 849.042 119.399 844.459 Q116.343 839.852 116.343 831.125 Q116.343 822.376 119.399 817.792 Q122.478 813.186 128.288 813.186 Z" fill="#000000" fill-rule="nonzero" fill-opacity="1" /><path clip-path="url(#clip960)" d="M148.45 842.491 L153.334 842.491 L153.334 848.371 L148.45 848.371 L148.45 842.491 Z" fill="#000000" fill-rule="nonzero" fill-opacity="1" /><path clip-path="url(#clip960)" d="M167.547 844.436 L183.866 844.436 L183.866 848.371 L161.922 848.371 L161.922 844.436 Q164.584 841.681 169.167 837.051 Q173.774 832.399 174.954 831.056 Q177.2 828.533 178.079 826.797 Q178.982 825.038 178.982 823.348 Q178.982 820.593 177.038 818.857 Q175.116 817.121 172.014 817.121 Q169.815 817.121 167.362 817.885 Q164.931 818.649 162.153 820.2 L162.153 815.477 Q164.977 814.343 167.431 813.764 Q169.885 813.186 171.922 813.186 Q177.292 813.186 180.487 815.871 Q183.681 818.556 183.681 823.047 Q183.681 825.176 182.871 827.098 Q182.084 828.996 179.977 831.588 Q179.399 832.26 176.297 835.477 Q173.195 838.672 167.547 844.436 Z" fill="#000000" fill-rule="nonzero" fill-opacity="1" /><path clip-path="url(#clip960)" d="M127.339 520.845 Q123.728 520.845 121.899 524.41 Q120.093 527.951 120.093 535.081 Q120.093 542.187 121.899 545.752 Q123.728 549.294 127.339 549.294 Q130.973 549.294 132.779 545.752 Q134.607 542.187 134.607 535.081 Q134.607 527.951 132.779 524.41 Q130.973 520.845 127.339 520.845 M127.339 517.141 Q133.149 517.141 136.204 521.748 Q139.283 526.331 139.283 535.081 Q139.283 543.808 136.204 548.414 Q133.149 552.998 127.339 552.998 Q121.529 552.998 118.45 548.414 Q115.394 543.808 115.394 535.081 Q115.394 526.331 118.45 521.748 Q121.529 517.141 127.339 517.141 Z" fill="#000000" fill-rule="nonzero" fill-opacity="1" /><path clip-path="url(#clip960)" d="M147.501 546.447 L152.385 546.447 L152.385 552.326 L147.501 552.326 L147.501 546.447 Z" fill="#000000" fill-rule="nonzero" fill-opacity="1" /><path clip-path="url(#clip960)" d="M176.737 533.692 Q180.093 534.41 181.968 536.678 Q183.866 538.947 183.866 542.28 Q183.866 547.396 180.348 550.197 Q176.829 552.998 170.348 552.998 Q168.172 552.998 165.857 552.558 Q163.565 552.141 161.112 551.285 L161.112 546.771 Q163.056 547.905 165.371 548.484 Q167.686 549.062 170.209 549.062 Q174.607 549.062 176.899 547.326 Q179.214 545.59 179.214 542.28 Q179.214 539.224 177.061 537.512 Q174.931 535.775 171.112 535.775 L167.084 535.775 L167.084 531.933 L171.297 531.933 Q174.746 531.933 176.575 530.567 Q178.403 529.178 178.403 526.586 Q178.403 523.924 176.505 522.512 Q174.63 521.076 171.112 521.076 Q169.19 521.076 166.991 521.493 Q164.792 521.91 162.153 522.789 L162.153 518.623 Q164.815 517.882 167.13 517.512 Q169.468 517.141 171.528 517.141 Q176.852 517.141 179.954 519.572 Q183.056 521.979 183.056 526.1 Q183.056 528.97 181.413 530.961 Q179.769 532.928 176.737 533.692 Z" fill="#000000" fill-rule="nonzero" fill-opacity="1" /><path clip-path="url(#clip960)" d="M126.205 224.8 Q122.593 224.8 120.765 228.365 Q118.959 231.907 118.959 239.036 Q118.959 246.143 120.765 249.708 Q122.593 253.249 126.205 253.249 Q129.839 253.249 131.644 249.708 Q133.473 246.143 133.473 239.036 Q133.473 231.907 131.644 228.365 Q129.839 224.8 126.205 224.8 M126.205 221.097 Q132.015 221.097 135.07 225.703 Q138.149 230.286 138.149 239.036 Q138.149 247.763 135.07 252.37 Q132.015 256.953 126.205 256.953 Q120.394 256.953 117.316 252.37 Q114.26 247.763 114.26 239.036 Q114.26 230.286 117.316 225.703 Q120.394 221.097 126.205 221.097 Z" fill="#000000" fill-rule="nonzero" fill-opacity="1" /><path clip-path="url(#clip960)" d="M146.366 250.402 L151.251 250.402 L151.251 256.282 L146.366 256.282 L146.366 250.402 Z" fill="#000000" fill-rule="nonzero" fill-opacity="1" /><path clip-path="url(#clip960)" d="M174.283 225.796 L162.477 244.245 L174.283 244.245 L174.283 225.796 M173.056 221.722 L178.936 221.722 L178.936 244.245 L183.866 244.245 L183.866 248.134 L178.936 248.134 L178.936 256.282 L174.283 256.282 L174.283 248.134 L158.681 248.134 L158.681 243.62 L173.056 221.722 Z" fill="#000000" fill-rule="nonzero" fill-opacity="1" /><path clip-path="url(#clip960)" d="M21.7677 886.636 L58.7206 886.636 L58.7206 878.869 Q58.7206 869.034 54.2646 864.483 Q49.8086 859.9 40.1964 859.9 Q30.6479 859.9 26.2237 864.483 Q21.7677 869.034 21.7677 878.869 L21.7677 886.636 M16.4842 893.065 L16.4842 879.856 Q16.4842 866.043 22.2451 859.581 Q27.9743 853.12 40.1964 853.12 Q52.4822 853.12 58.2432 859.613 Q64.0042 866.106 64.0042 879.856 L64.0042 893.065 L16.4842 893.065 Z" fill="#000000" fill-rule="nonzero" fill-opacity="1" /><path clip-path="url(#clip960)" d="M44.7161 812.634 L47.5806 812.634 L47.5806 839.561 Q53.6281 839.179 56.8109 835.933 Q59.9619 832.654 59.9619 826.83 Q59.9619 823.456 59.1344 820.305 Q58.3069 817.122 56.6518 814.003 L62.1899 814.003 Q63.5267 817.154 64.227 820.464 Q64.9272 823.774 64.9272 827.18 Q64.9272 835.71 59.9619 840.707 Q54.9967 845.672 46.5303 845.672 Q37.7774 845.672 32.6531 840.962 Q27.4968 836.219 27.4968 828.198 Q27.4968 821.005 32.1438 816.836 Q36.7589 812.634 44.7161 812.634 M42.9973 818.491 Q38.1912 818.554 35.3266 821.196 Q32.4621 823.806 32.4621 828.135 Q32.4621 833.036 35.2312 835.996 Q38.0002 838.925 43.0292 839.37 L42.9973 818.491 Z" fill="#000000" fill-rule="nonzero" fill-opacity="1" /><path clip-path="url(#clip960)" d="M42.4881 773.39 L64.0042 773.39 L64.0042 779.246 L42.679 779.246 Q37.6183 779.246 35.1038 781.219 Q32.5894 783.193 32.5894 787.14 Q32.5894 791.882 35.6131 794.619 Q38.6368 797.357 43.8567 797.357 L64.0042 797.357 L64.0042 803.245 L28.3562 803.245 L28.3562 797.357 L33.8944 797.357 Q30.6797 795.256 29.0883 792.423 Q27.4968 789.559 27.4968 785.835 Q27.4968 779.692 31.3163 776.541 Q35.1038 773.39 42.4881 773.39 Z" fill="#000000" fill-rule="nonzero" fill-opacity="1" /><path clip-path="url(#clip960)" d="M29.4065 738.983 L34.9447 738.983 Q33.6716 741.466 33.035 744.139 Q32.3984 746.813 32.3984 749.677 Q32.3984 754.038 33.7352 756.234 Q35.072 758.398 37.7456 758.398 Q39.7826 758.398 40.9603 756.839 Q42.1061 755.279 43.1565 750.569 L43.6021 748.563 Q44.9389 742.325 47.3897 739.715 Q49.8086 737.073 54.1691 737.073 Q59.1344 737.073 62.0308 741.02 Q64.9272 744.935 64.9272 751.81 Q64.9272 754.674 64.3543 757.794 Q63.8132 760.881 62.6992 764.319 L56.6518 764.319 Q58.3387 761.072 59.198 757.921 Q60.0256 754.77 60.0256 751.683 Q60.0256 747.545 58.6251 745.317 Q57.1929 743.089 54.6147 743.089 Q52.2276 743.089 50.9545 744.712 Q49.6813 746.304 48.5037 751.746 L48.0262 753.783 Q46.8804 759.226 44.5251 761.645 Q42.138 764.064 38.0002 764.064 Q32.9713 764.064 30.2341 760.499 Q27.4968 756.934 27.4968 750.378 Q27.4968 747.131 27.9743 744.267 Q28.4517 741.402 29.4065 738.983 Z" fill="#000000" fill-rule="nonzero" fill-opacity="1" /><path clip-path="url(#clip960)" d="M28.3562 727.748 L28.3562 721.891 L64.0042 721.891 L64.0042 727.748 L28.3562 727.748 M14.479 727.748 L14.479 721.891 L21.895 721.891 L21.895 727.748 L14.479 727.748 Z" fill="#000000" fill-rule="nonzero" fill-opacity="1" /><path clip-path="url(#clip960)" d="M18.2347 703.844 L28.3562 703.844 L28.3562 691.781 L32.9077 691.781 L32.9077 703.844 L52.2594 703.844 Q56.6199 703.844 57.8613 702.667 Q59.1026 701.457 59.1026 697.797 L59.1026 691.781 L64.0042 691.781 L64.0042 697.797 Q64.0042 704.576 61.4897 707.154 Q58.9434 709.733 52.2594 709.733 L32.9077 709.733 L32.9077 714.029 L28.3562 714.029 L28.3562 709.733 L18.2347 709.733 L18.2347 703.844 Z" fill="#000000" fill-rule="nonzero" fill-opacity="1" /><path clip-path="url(#clip960)" d="M67.3143 669.247 Q73.68 671.729 75.6216 674.085 Q77.5631 676.44 77.5631 680.387 L77.5631 685.065 L72.6615 685.065 L72.6615 681.628 Q72.6615 679.209 71.5157 677.872 Q70.3699 676.535 66.1048 674.912 L63.4312 673.862 L28.3562 688.28 L28.3562 682.074 L56.238 670.934 L28.3562 659.794 L28.3562 653.587 L67.3143 669.247 Z" fill="#000000" fill-rule="nonzero" fill-opacity="1" /><path clip-path="url(#clip960)" d="M568.552 18.8205 L568.552 41.5461 L578.841 41.5461 Q584.553 41.5461 587.672 38.5889 Q590.791 35.6318 590.791 30.163 Q590.791 24.7348 587.672 21.7777 Q584.553 18.8205 578.841 18.8205 L568.552 18.8205 M560.369 12.096 L578.841 12.096 Q589.009 12.096 594.194 16.714 Q599.42 21.2916 599.42 30.163 Q599.42 39.1155 594.194 43.6931 Q589.009 48.2706 578.841 48.2706 L568.552 48.2706 L568.552 72.576 L560.369 72.576 L560.369 12.096 Z" fill="#000000" fill-rule="nonzero" fill-opacity="1" /><path clip-path="url(#clip960)" d="M634.905 34.1734 Q633.65 33.4443 632.151 33.1202 Q630.692 32.7556 628.91 32.7556 Q622.591 32.7556 619.188 36.8875 Q615.826 40.9789 615.826 48.6757 L615.826 72.576 L608.332 72.576 L608.332 27.2059 L615.826 27.2059 L615.826 34.2544 Q618.175 30.1225 621.943 28.1376 Q625.71 26.1121 631.098 26.1121 Q631.867 26.1121 632.799 26.2337 Q633.731 26.3147 634.865 26.5172 L634.905 34.1734 Z" fill="#000000" fill-rule="nonzero" fill-opacity="1" /><path clip-path="url(#clip960)" d="M642.724 27.2059 L650.177 27.2059 L650.177 72.576 L642.724 72.576 L642.724 27.2059 M642.724 9.54393 L650.177 9.54393 L650.177 18.9825 L642.724 18.9825 L642.724 9.54393 Z" fill="#000000" fill-rule="nonzero" fill-opacity="1" /><path clip-path="url(#clip960)" d="M683.354 32.4315 Q677.359 32.4315 673.875 37.1306 Q670.391 41.7891 670.391 49.9314 Q670.391 58.0738 673.835 62.7728 Q677.318 67.4314 683.354 67.4314 Q689.309 67.4314 692.793 62.7323 Q696.277 58.0333 696.277 49.9314 Q696.277 41.8701 692.793 37.1711 Q689.309 32.4315 683.354 32.4315 M683.354 26.1121 Q693.076 26.1121 698.626 32.4315 Q704.176 38.7509 704.176 49.9314 Q704.176 61.0714 698.626 67.4314 Q693.076 73.7508 683.354 73.7508 Q673.592 73.7508 668.042 67.4314 Q662.533 61.0714 662.533 49.9314 Q662.533 38.7509 668.042 32.4315 Q673.592 26.1121 683.354 26.1121 Z" fill="#000000" fill-rule="nonzero" fill-opacity="1" /><path clip-path="url(#clip960)" d="M742.822 34.1734 Q741.566 33.4443 740.067 33.1202 Q738.609 32.7556 736.826 32.7556 Q730.507 32.7556 727.104 36.8875 Q723.742 40.9789 723.742 48.6757 L723.742 72.576 L716.248 72.576 L716.248 27.2059 L723.742 27.2059 L723.742 34.2544 Q726.091 30.1225 729.859 28.1376 Q733.626 26.1121 739.014 26.1121 Q739.783 26.1121 740.715 26.2337 Q741.647 26.3147 742.781 26.5172 L742.822 34.1734 Z" fill="#000000" fill-rule="nonzero" fill-opacity="1" /><path clip-path="url(#clip960)" d="M784.222 65.7705 L784.222 89.8329 L776.728 89.8329 L776.728 27.2059 L784.222 27.2059 L784.222 34.0924 Q786.571 30.0415 790.136 28.0971 Q793.741 26.1121 798.724 26.1121 Q806.988 26.1121 812.132 32.6746 Q817.318 39.2371 817.318 49.9314 Q817.318 60.6258 812.132 67.1883 Q806.988 73.7508 798.724 73.7508 Q793.741 73.7508 790.136 71.8063 Q786.571 69.8214 784.222 65.7705 M809.58 49.9314 Q809.58 41.7081 806.178 37.0496 Q802.815 32.3505 796.901 32.3505 Q790.987 32.3505 787.584 37.0496 Q784.222 41.7081 784.222 49.9314 Q784.222 58.1548 787.584 62.8538 Q790.987 67.5124 796.901 67.5124 Q802.815 67.5124 806.178 62.8538 Q809.58 58.1548 809.58 49.9314 Z" fill="#000000" fill-rule="nonzero" fill-opacity="1" /><path clip-path="url(#clip960)" d="M855.963 34.1734 Q854.707 33.4443 853.209 33.1202 Q851.75 32.7556 849.968 32.7556 Q843.649 32.7556 840.246 36.8875 Q836.884 40.9789 836.884 48.6757 L836.884 72.576 L829.389 72.576 L829.389 27.2059 L836.884 27.2059 L836.884 34.2544 Q839.233 30.1225 843 28.1376 Q846.768 26.1121 852.155 26.1121 Q852.925 26.1121 853.857 26.2337 Q854.789 26.3147 855.923 26.5172 L855.963 34.1734 Z" fill="#000000" fill-rule="nonzero" fill-opacity="1" /><path clip-path="url(#clip960)" d="M900.766 48.0275 L900.766 51.6733 L866.496 51.6733 Q866.982 59.3701 871.114 63.421 Q875.286 67.4314 882.699 67.4314 Q886.993 67.4314 891.004 66.3781 Q895.055 65.3249 899.024 63.2184 L899.024 70.267 Q895.014 71.9684 890.801 72.8596 Q886.588 73.7508 882.254 73.7508 Q871.397 73.7508 865.037 67.4314 Q858.718 61.1119 858.718 50.3365 Q858.718 39.1965 864.713 32.6746 Q870.749 26.1121 880.957 26.1121 Q890.112 26.1121 895.419 32.0264 Q900.766 37.9003 900.766 48.0275 M893.313 45.84 Q893.232 39.7232 889.869 36.0774 Q886.548 32.4315 881.038 32.4315 Q874.8 32.4315 871.033 35.9558 Q867.306 39.4801 866.739 45.8805 L893.313 45.84 Z" fill="#000000" fill-rule="nonzero" fill-opacity="1" /><path clip-path="url(#clip960)" d="M942.855 34.0924 L942.855 9.54393 L950.309 9.54393 L950.309 72.576 L942.855 72.576 L942.855 65.7705 Q940.506 69.8214 936.9 71.8063 Q933.336 73.7508 928.312 73.7508 Q920.089 73.7508 914.904 67.1883 Q909.759 60.6258 909.759 49.9314 Q909.759 39.2371 914.904 32.6746 Q920.089 26.1121 928.312 26.1121 Q933.336 26.1121 936.9 28.0971 Q940.506 30.0415 942.855 34.0924 M917.456 49.9314 Q917.456 58.1548 920.818 62.8538 Q924.221 67.5124 930.135 67.5124 Q936.05 67.5124 939.452 62.8538 Q942.855 58.1548 942.855 49.9314 Q942.855 41.7081 939.452 37.0496 Q936.05 32.3505 930.135 32.3505 Q924.221 32.3505 920.818 37.0496 Q917.456 41.7081 917.456 49.9314 Z" fill="#000000" fill-rule="nonzero" fill-opacity="1" /><path clip-path="url(#clip960)" d="M965.662 27.2059 L973.115 27.2059 L973.115 72.576 L965.662 72.576 L965.662 27.2059 M965.662 9.54393 L973.115 9.54393 L973.115 18.9825 L965.662 18.9825 L965.662 9.54393 Z" fill="#000000" fill-rule="nonzero" fill-opacity="1" /><path clip-path="url(#clip960)" d="M1021.36 28.9478 L1021.36 35.9153 Q1018.2 34.1734 1015 33.3227 Q1011.84 32.4315 1008.6 32.4315 Q1001.35 32.4315 997.34 37.0496 Q993.329 41.6271 993.329 49.9314 Q993.329 58.2358 997.34 62.8538 Q1001.35 67.4314 1008.6 67.4314 Q1011.84 67.4314 1015 66.5807 Q1018.2 65.6895 1021.36 63.9476 L1021.36 70.8341 Q1018.24 72.2924 1014.88 73.0216 Q1011.56 73.7508 1007.79 73.7508 Q997.542 73.7508 991.507 67.3098 Q985.471 60.8689 985.471 49.9314 Q985.471 38.832 991.547 32.472 Q997.664 26.1121 1008.28 26.1121 Q1011.72 26.1121 1015 26.8413 Q1018.28 27.5299 1021.36 28.9478 Z" fill="#000000" fill-rule="nonzero" fill-opacity="1" /><path clip-path="url(#clip960)" d="M1041.7 14.324 L1041.7 27.2059 L1057.05 27.2059 L1057.05 32.9987 L1041.7 32.9987 L1041.7 57.6282 Q1041.7 63.1779 1043.2 64.7578 Q1044.74 66.3376 1049.39 66.3376 L1057.05 66.3376 L1057.05 72.576 L1049.39 72.576 Q1040.77 72.576 1037.48 69.3758 Q1034.2 66.1351 1034.2 57.6282 L1034.2 32.9987 L1028.73 32.9987 L1028.73 27.2059 L1034.2 27.2059 L1034.2 14.324 L1041.7 14.324 Z" fill="#000000" fill-rule="nonzero" fill-opacity="1" /><path clip-path="url(#clip960)" d="M1066.85 27.2059 L1074.31 27.2059 L1074.31 72.576 L1066.85 72.576 L1066.85 27.2059 M1066.85 9.54393 L1074.31 9.54393 L1074.31 18.9825 L1066.85 18.9825 L1066.85 9.54393 Z" fill="#000000" fill-rule="nonzero" fill-opacity="1" /><path clip-path="url(#clip960)" d="M1084.56 27.2059 L1092.46 27.2059 L1106.63 65.2844 L1120.81 27.2059 L1128.71 27.2059 L1111.7 72.576 L1101.57 72.576 L1084.56 27.2059 Z" fill="#000000" fill-rule="nonzero" fill-opacity="1" /><path clip-path="url(#clip960)" d="M1177.81 48.0275 L1177.81 51.6733 L1143.54 51.6733 Q1144.02 59.3701 1148.15 63.421 Q1152.33 67.4314 1159.74 67.4314 Q1164.03 67.4314 1168.04 66.3781 Q1172.1 65.3249 1176.07 63.2184 L1176.07 70.267 Q1172.06 71.9684 1167.84 72.8596 Q1163.63 73.7508 1159.29 73.7508 Q1148.44 73.7508 1142.08 67.4314 Q1135.76 61.1119 1135.76 50.3365 Q1135.76 39.1965 1141.75 32.6746 Q1147.79 26.1121 1158 26.1121 Q1167.15 26.1121 1172.46 32.0264 Q1177.81 37.9003 1177.81 48.0275 M1170.35 45.84 Q1170.27 39.7232 1166.91 36.0774 Q1163.59 32.4315 1158.08 32.4315 Q1151.84 32.4315 1148.07 35.9558 Q1144.35 39.4801 1143.78 45.8805 L1170.35 45.84 Z" fill="#000000" fill-rule="nonzero" fill-opacity="1" /><path clip-path="url(#clip960)" d="M1249.06 28.9478 L1249.06 35.9153 Q1245.9 34.1734 1242.7 33.3227 Q1239.54 32.4315 1236.3 32.4315 Q1229.05 32.4315 1225.04 37.0496 Q1221.03 41.6271 1221.03 49.9314 Q1221.03 58.2358 1225.04 62.8538 Q1229.05 67.4314 1236.3 67.4314 Q1239.54 67.4314 1242.7 66.5807 Q1245.9 65.6895 1249.06 63.9476 L1249.06 70.8341 Q1245.94 72.2924 1242.58 73.0216 Q1239.26 73.7508 1235.49 73.7508 Q1225.24 73.7508 1219.21 67.3098 Q1213.17 60.8689 1213.17 49.9314 Q1213.17 38.832 1219.25 32.472 Q1225.37 26.1121 1235.98 26.1121 Q1239.42 26.1121 1242.7 26.8413 Q1245.98 27.5299 1249.06 28.9478 Z" fill="#000000" fill-rule="nonzero" fill-opacity="1" /><path clip-path="url(#clip960)" d="M1299.74 45.1919 L1299.74 72.576 L1292.29 72.576 L1292.29 45.4349 Q1292.29 38.994 1289.77 35.7938 Q1287.26 32.5936 1282.24 32.5936 Q1276.2 32.5936 1272.72 36.4419 Q1269.24 40.2903 1269.24 46.9338 L1269.24 72.576 L1261.74 72.576 L1261.74 9.54393 L1269.24 9.54393 L1269.24 34.2544 Q1271.91 30.163 1275.52 28.1376 Q1279.16 26.1121 1283.9 26.1121 Q1291.72 26.1121 1295.73 30.9732 Q1299.74 35.7938 1299.74 45.1919 Z" fill="#000000" fill-rule="nonzero" fill-opacity="1" /><path clip-path="url(#clip960)" d="M1353.41 48.0275 L1353.41 51.6733 L1319.14 51.6733 Q1319.63 59.3701 1323.76 63.421 Q1327.93 67.4314 1335.35 67.4314 Q1339.64 67.4314 1343.65 66.3781 Q1347.7 65.3249 1351.67 63.2184 L1351.67 70.267 Q1347.66 71.9684 1343.45 72.8596 Q1339.24 73.7508 1334.9 73.7508 Q1324.05 73.7508 1317.69 67.4314 Q1311.37 61.1119 1311.37 50.3365 Q1311.37 39.1965 1317.36 32.6746 Q1323.4 26.1121 1333.61 26.1121 Q1342.76 26.1121 1348.07 32.0264 Q1353.41 37.9003 1353.41 48.0275 M1345.96 45.84 Q1345.88 39.7232 1342.52 36.0774 Q1339.2 32.4315 1333.69 32.4315 Q1327.45 32.4315 1323.68 35.9558 Q1319.95 39.4801 1319.39 45.8805 L1345.96 45.84 Z" fill="#000000" fill-rule="nonzero" fill-opacity="1" /><path clip-path="url(#clip960)" d="M1398.3 28.9478 L1398.3 35.9153 Q1395.14 34.1734 1391.94 33.3227 Q1388.78 32.4315 1385.54 32.4315 Q1378.29 32.4315 1374.28 37.0496 Q1370.27 41.6271 1370.27 49.9314 Q1370.27 58.2358 1374.28 62.8538 Q1378.29 67.4314 1385.54 67.4314 Q1388.78 67.4314 1391.94 66.5807 Q1395.14 65.6895 1398.3 63.9476 L1398.3 70.8341 Q1395.18 72.2924 1391.82 73.0216 Q1388.5 73.7508 1384.73 73.7508 Q1374.48 73.7508 1368.44 67.3098 Q1362.41 60.8689 1362.41 49.9314 Q1362.41 38.832 1368.48 32.472 Q1374.6 26.1121 1385.21 26.1121 Q1388.66 26.1121 1391.94 26.8413 Q1395.22 27.5299 1398.3 28.9478 Z" fill="#000000" fill-rule="nonzero" fill-opacity="1" /><path clip-path="url(#clip960)" d="M1410.98 9.54393 L1418.47 9.54393 L1418.47 46.7717 L1440.71 27.2059 L1450.23 27.2059 L1426.17 48.4326 L1451.24 72.576 L1441.52 72.576 L1418.47 50.4176 L1418.47 72.576 L1410.98 72.576 L1410.98 9.54393 Z" fill="#000000" fill-rule="nonzero" fill-opacity="1" /><path clip-path="url(#clip960)" d="M1461.21 62.2867 L1469.76 62.2867 L1469.76 69.2543 L1463.11 82.2172 L1457.89 82.2172 L1461.21 69.2543 L1461.21 62.2867 Z" fill="#000000" fill-rule="nonzero" fill-opacity="1" /><path clip-path="url(#clip960)" d="M1549.76 45.1919 L1549.76 72.576 L1542.31 72.576 L1542.31 45.4349 Q1542.31 38.994 1539.8 35.7938 Q1537.28 32.5936 1532.26 32.5936 Q1526.23 32.5936 1522.74 36.4419 Q1519.26 40.2903 1519.26 46.9338 L1519.26 72.576 L1511.76 72.576 L1511.76 27.2059 L1519.26 27.2059 L1519.26 34.2544 Q1521.93 30.163 1525.54 28.1376 Q1529.18 26.1121 1533.92 26.1121 Q1541.74 26.1121 1545.75 30.9732 Q1549.76 35.7938 1549.76 45.1919 Z" fill="#000000" fill-rule="nonzero" fill-opacity="1" /><path clip-path="url(#clip960)" d="M1585.25 49.7694 Q1576.21 49.7694 1572.73 51.8354 Q1569.25 53.9013 1569.25 58.8839 Q1569.25 62.8538 1571.84 65.2034 Q1574.47 67.5124 1578.97 67.5124 Q1585.17 67.5124 1588.89 63.1374 Q1592.66 58.7219 1592.66 51.4303 L1592.66 49.7694 L1585.25 49.7694 M1600.11 46.6907 L1600.11 72.576 L1592.66 72.576 L1592.66 65.6895 Q1590.11 69.8214 1586.3 71.8063 Q1582.49 73.7508 1576.98 73.7508 Q1570.02 73.7508 1565.88 69.8619 Q1561.79 65.9325 1561.79 59.3701 Q1561.79 51.7138 1566.9 47.825 Q1572.04 43.9361 1582.21 43.9361 L1592.66 43.9361 L1592.66 43.2069 Q1592.66 38.0623 1589.26 35.2672 Q1585.9 32.4315 1579.78 32.4315 Q1575.89 32.4315 1572.2 33.3632 Q1568.52 34.295 1565.11 36.1584 L1565.11 29.2718 Q1569.21 27.692 1573.05 26.9223 Q1576.9 26.1121 1580.55 26.1121 Q1590.39 26.1121 1595.25 31.2163 Q1600.11 36.3204 1600.11 46.6907 Z" fill="#000000" fill-rule="nonzero" fill-opacity="1" /><path clip-path="url(#clip960)" d="M1641.76 34.1734 Q1640.5 33.4443 1639 33.1202 Q1637.54 32.7556 1635.76 32.7556 Q1629.44 32.7556 1626.04 36.8875 Q1622.68 40.9789 1622.68 48.6757 L1622.68 72.576 L1615.18 72.576 L1615.18 27.2059 L1622.68 27.2059 L1622.68 34.2544 Q1625.03 30.1225 1628.79 28.1376 Q1632.56 26.1121 1637.95 26.1121 Q1638.72 26.1121 1639.65 26.2337 Q1640.58 26.3147 1641.72 26.5172 L1641.76 34.1734 Z" fill="#000000" fill-rule="nonzero" fill-opacity="1" /><path clip-path="url(#clip960)" d="M1674.41 34.1734 Q1673.15 33.4443 1671.65 33.1202 Q1670.2 32.7556 1668.41 32.7556 Q1662.09 32.7556 1658.69 36.8875 Q1655.33 40.9789 1655.33 48.6757 L1655.33 72.576 L1647.83 72.576 L1647.83 27.2059 L1655.33 27.2059 L1655.33 34.2544 Q1657.68 30.1225 1661.45 28.1376 Q1665.21 26.1121 1670.6 26.1121 Q1671.37 26.1121 1672.3 26.2337 Q1673.23 26.3147 1674.37 26.5172 L1674.41 34.1734 Z" fill="#000000" fill-rule="nonzero" fill-opacity="1" /><path clip-path="url(#clip960)" d="M1697.98 32.4315 Q1691.99 32.4315 1688.51 37.1306 Q1685.02 41.7891 1685.02 49.9314 Q1685.02 58.0738 1688.46 62.7728 Q1691.95 67.4314 1697.98 67.4314 Q1703.94 67.4314 1707.42 62.7323 Q1710.91 58.0333 1710.91 49.9314 Q1710.91 41.8701 1707.42 37.1711 Q1703.94 32.4315 1697.98 32.4315 M1697.98 26.1121 Q1707.71 26.1121 1713.26 32.4315 Q1718.81 38.7509 1718.81 49.9314 Q1718.81 61.0714 1713.26 67.4314 Q1707.71 73.7508 1697.98 73.7508 Q1688.22 73.7508 1682.67 67.4314 Q1677.16 61.0714 1677.16 49.9314 Q1677.16 38.7509 1682.67 32.4315 Q1688.22 26.1121 1697.98 26.1121 Z" fill="#000000" fill-rule="nonzero" fill-opacity="1" /><path clip-path="url(#clip960)" d="M1726.83 27.2059 L1734.28 27.2059 L1743.6 62.6108 L1752.87 27.2059 L1761.66 27.2059 L1770.98 62.6108 L1780.26 27.2059 L1787.71 27.2059 L1775.84 72.576 L1767.05 72.576 L1757.29 35.3887 L1747.49 72.576 L1738.7 72.576 L1726.83 27.2059 Z" fill="#000000" fill-rule="nonzero" fill-opacity="1" /><path clip-path="url(#clip960)" d="M1832.6 65.7705 L1832.6 89.8329 L1825.1 89.8329 L1825.1 27.2059 L1832.6 27.2059 L1832.6 34.0924 Q1834.95 30.0415 1838.51 28.0971 Q1842.12 26.1121 1847.1 26.1121 Q1855.36 26.1121 1860.51 32.6746 Q1865.69 39.2371 1865.69 49.9314 Q1865.69 60.6258 1860.51 67.1883 Q1855.36 73.7508 1847.1 73.7508 Q1842.12 73.7508 1838.51 71.8063 Q1834.95 69.8214 1832.6 65.7705 M1857.95 49.9314 Q1857.95 41.7081 1854.55 37.0496 Q1851.19 32.3505 1845.28 32.3505 Q1839.36 32.3505 1835.96 37.0496 Q1832.6 41.7081 1832.6 49.9314 Q1832.6 58.1548 1835.96 62.8538 Q1839.36 67.5124 1845.28 67.5124 Q1851.19 67.5124 1854.55 62.8538 Q1857.95 58.1548 1857.95 49.9314 Z" fill="#000000" fill-rule="nonzero" fill-opacity="1" /><path clip-path="url(#clip960)" d="M1904.34 34.1734 Q1903.08 33.4443 1901.58 33.1202 Q1900.12 32.7556 1898.34 32.7556 Q1892.02 32.7556 1888.62 36.8875 Q1885.26 40.9789 1885.26 48.6757 L1885.26 72.576 L1877.76 72.576 L1877.76 27.2059 L1885.26 27.2059 L1885.26 34.2544 Q1887.61 30.1225 1891.37 28.1376 Q1895.14 26.1121 1900.53 26.1121 Q1901.3 26.1121 1902.23 26.2337 Q1903.16 26.3147 1904.3 26.5172 L1904.34 34.1734 Z" fill="#000000" fill-rule="nonzero" fill-opacity="1" /><path clip-path="url(#clip960)" d="M1912.16 27.2059 L1919.61 27.2059 L1919.61 72.576 L1912.16 72.576 L1912.16 27.2059 M1912.16 9.54393 L1919.61 9.54393 L1919.61 18.9825 L1912.16 18.9825 L1912.16 9.54393 Z" fill="#000000" fill-rule="nonzero" fill-opacity="1" /><path clip-path="url(#clip960)" d="M1952.79 32.4315 Q1946.79 32.4315 1943.31 37.1306 Q1939.82 41.7891 1939.82 49.9314 Q1939.82 58.0738 1943.27 62.7728 Q1946.75 67.4314 1952.79 67.4314 Q1958.74 67.4314 1962.22 62.7323 Q1965.71 58.0333 1965.71 49.9314 Q1965.71 41.8701 1962.22 37.1711 Q1958.74 32.4315 1952.79 32.4315 M1952.79 26.1121 Q1962.51 26.1121 1968.06 32.4315 Q1973.61 38.7509 1973.61 49.9314 Q1973.61 61.0714 1968.06 67.4314 Q1962.51 73.7508 1952.79 73.7508 Q1943.02 73.7508 1937.47 67.4314 Q1931.96 61.0714 1931.96 49.9314 Q1931.96 38.7509 1937.47 32.4315 Q1943.02 26.1121 1952.79 26.1121 Z" fill="#000000" fill-rule="nonzero" fill-opacity="1" /><path clip-path="url(#clip960)" d="M2012.25 34.1734 Q2011 33.4443 2009.5 33.1202 Q2008.04 32.7556 2006.26 32.7556 Q1999.94 32.7556 1996.54 36.8875 Q1993.17 40.9789 1993.17 48.6757 L1993.17 72.576 L1985.68 72.576 L1985.68 27.2059 L1993.17 27.2059 L1993.17 34.2544 Q1995.52 30.1225 1999.29 28.1376 Q2003.06 26.1121 2008.45 26.1121 Q2009.22 26.1121 2010.15 26.2337 Q2011.08 26.3147 2012.21 26.5172 L2012.25 34.1734 Z" fill="#000000" fill-rule="nonzero" fill-opacity="1" /><path clip-path="url(#clip962)" d="M753.089 1154.99 L753.089 1423.18 L886.394 1423.18 L886.394 1154.99 L753.089 1154.99 L753.089 1154.99  Z" fill="#009af9" fill-rule="evenodd" fill-opacity="1"/>
<polyline clip-path="url(#clip962)" style="stroke:#000000; stroke-linecap:round; stroke-linejoin:round; stroke-width:4; stroke-opacity:1; fill:none" points="753.089,1154.99 753.089,1423.18 886.394,1423.18 886.394,1154.99 753.089,1154.99 "/>
<path clip-path="url(#clip962)" d="M886.394 735.504 L886.394 1423.18 L1019.7 1423.18 L1019.7 735.504 L886.394 735.504 L886.394 735.504  Z" fill="#009af9" fill-rule="evenodd" fill-opacity="1"/>
<polyline clip-path="url(#clip962)" style="stroke:#000000; stroke-linecap:round; stroke-linejoin:round; stroke-width:4; stroke-opacity:1; fill:none" points="886.394,735.504 886.394,1423.18 1019.7,1423.18 1019.7,735.504 886.394,735.504 "/>
<path clip-path="url(#clip962)" d="M1019.7 556.708 L1019.7 1423.18 L1153.01 1423.18 L1153.01 556.708 L1019.7 556.708 L1019.7 556.708  Z" fill="#009af9" fill-rule="evenodd" fill-opacity="1"/>
<polyline clip-path="url(#clip962)" style="stroke:#000000; stroke-linecap:round; stroke-linejoin:round; stroke-width:4; stroke-opacity:1; fill:none" points="1019.7,556.708 1019.7,1423.18 1153.01,1423.18 1153.01,556.708 1019.7,556.708 "/>
<path clip-path="url(#clip962)" d="M1153.01 123.472 L1153.01 1423.18 L1286.31 1423.18 L1286.31 123.472 L1153.01 123.472 L1153.01 123.472  Z" fill="#009af9" fill-rule="evenodd" fill-opacity="1"/>
<polyline clip-path="url(#clip962)" style="stroke:#000000; stroke-linecap:round; stroke-linejoin:round; stroke-width:4; stroke-opacity:1; fill:none" points="1153.01,123.472 1153.01,1423.18 1286.31,1423.18 1286.31,123.472 1153.01,123.472 "/>
<path clip-path="url(#clip962)" d="M1286.31 309.145 L1286.31 1423.18 L1419.62 1423.18 L1419.62 309.145 L1286.31 309.145 L1286.31 309.145  Z" fill="#009af9" fill-rule="evenodd" fill-opacity="1"/>
<polyline clip-path="url(#clip962)" style="stroke:#000000; stroke-linecap:round; stroke-linejoin:round; stroke-width:4; stroke-opacity:1; fill:none" points="1286.31,309.145 1286.31,1423.18 1419.62,1423.18 1419.62,309.145 1286.31,309.145 "/>
<path clip-path="url(#clip962)" d="M1419.62 646.106 L1419.62 1423.18 L1552.92 1423.18 L1552.92 646.106 L1419.62 646.106 L1419.62 646.106  Z" fill="#009af9" fill-rule="evenodd" fill-opacity="1"/>
<polyline clip-path="url(#clip962)" style="stroke:#000000; stroke-linecap:round; stroke-linejoin:round; stroke-width:4; stroke-opacity:1; fill:none" points="1419.62,646.106 1419.62,1423.18 1552.92,1423.18 1552.92,646.106 1419.62,646.106 "/>
<path clip-path="url(#clip962)" d="M1552.92 969.314 L1552.92 1423.18 L1686.23 1423.18 L1686.23 969.314 L1552.92 969.314 L1552.92 969.314  Z" fill="#009af9" fill-rule="evenodd" fill-opacity="1"/>
<polyline clip-path="url(#clip962)" style="stroke:#000000; stroke-linecap:round; stroke-linejoin:round; stroke-width:4; stroke-opacity:1; fill:none" points="1552.92,969.314 1552.92,1423.18 1686.23,1423.18 1686.23,969.314 1552.92,969.314 "/>
<path clip-path="url(#clip962)" d="M1686.23 1203.12 L1686.23 1423.18 L1819.53 1423.18 L1819.53 1203.12 L1686.23 1203.12 L1686.23 1203.12  Z" fill="#009af9" fill-rule="evenodd" fill-opacity="1"/>
<polyline clip-path="url(#clip962)" style="stroke:#000000; stroke-linecap:round; stroke-linejoin:round; stroke-width:4; stroke-opacity:1; fill:none" points="1686.23,1203.12 1686.23,1423.18 1819.53,1423.18 1819.53,1203.12 1686.23,1203.12 "/>
<path clip-path="url(#clip962)" d="M1819.53 1299.4 L1819.53 1423.18 L1952.84 1423.18 L1952.84 1299.4 L1819.53 1299.4 L1819.53 1299.4  Z" fill="#009af9" fill-rule="evenodd" fill-opacity="1"/>
<polyline clip-path="url(#clip962)" style="stroke:#000000; stroke-linecap:round; stroke-linejoin:round; stroke-width:4; stroke-opacity:1; fill:none" points="1819.53,1299.4 1819.53,1423.18 1952.84,1423.18 1952.84,1299.4 1819.53,1299.4 "/>
<path clip-path="url(#clip962)" d="M1952.84 1333.78 L1952.84 1423.18 L2086.14 1423.18 L2086.14 1333.78 L1952.84 1333.78 L1952.84 1333.78  Z" fill="#009af9" fill-rule="evenodd" fill-opacity="1"/>
<polyline clip-path="url(#clip962)" style="stroke:#000000; stroke-linecap:round; stroke-linejoin:round; stroke-width:4; stroke-opacity:1; fill:none" points="1952.84,1333.78 1952.84,1423.18 2086.14,1423.18 2086.14,1333.78 1952.84,1333.78 "/>
<path clip-path="url(#clip962)" d="M2086.14 1402.55 L2086.14 1423.18 L2219.45 1423.18 L2219.45 1402.55 L2086.14 1402.55 L2086.14 1402.55  Z" fill="#009af9" fill-rule="evenodd" fill-opacity="1"/>
<polyline clip-path="url(#clip962)" style="stroke:#000000; stroke-linecap:round; stroke-linejoin:round; stroke-width:4; stroke-opacity:1; fill:none" points="2086.14,1402.55 2086.14,1423.18 2219.45,1423.18 2219.45,1402.55 2086.14,1402.55 "/>
<circle clip-path="url(#clip962)" style="fill:#009af9; stroke:none; fill-opacity:0" cx="819.741" cy="1154.99" r="2"/>
<circle clip-path="url(#clip962)" style="fill:#009af9; stroke:none; fill-opacity:0" cx="953.047" cy="735.504" r="2"/>
<circle clip-path="url(#clip962)" style="fill:#009af9; stroke:none; fill-opacity:0" cx="1086.35" cy="556.708" r="2"/>
<circle clip-path="url(#clip962)" style="fill:#009af9; stroke:none; fill-opacity:0" cx="1219.66" cy="123.472" r="2"/>
<circle clip-path="url(#clip962)" style="fill:#009af9; stroke:none; fill-opacity:0" cx="1352.96" cy="309.145" r="2"/>
<circle clip-path="url(#clip962)" style="fill:#009af9; stroke:none; fill-opacity:0" cx="1486.27" cy="646.106" r="2"/>
<circle clip-path="url(#clip962)" style="fill:#009af9; stroke:none; fill-opacity:0" cx="1619.58" cy="969.314" r="2"/>
<circle clip-path="url(#clip962)" style="fill:#009af9; stroke:none; fill-opacity:0" cx="1752.88" cy="1203.12" r="2"/>
<circle clip-path="url(#clip962)" style="fill:#009af9; stroke:none; fill-opacity:0" cx="1886.19" cy="1299.4" r="2"/>
<circle clip-path="url(#clip962)" style="fill:#009af9; stroke:none; fill-opacity:0" cx="2019.49" cy="1333.78" r="2"/>
<circle clip-path="url(#clip962)" style="fill:#009af9; stroke:none; fill-opacity:0" cx="2152.8" cy="1402.55" r="2"/>
<polyline clip-path="url(#clip962)" style="stroke:#ffffff; stroke-linecap:round; stroke-linejoin:round; stroke-width:12; stroke-opacity:1; fill:none" points="-12754.4,1423.18 -12600,1423.18 -12445.6,1423.18 -12291.3,1423.18 -12136.9,1423.18 -11982.5,1423.18 -11828.1,1423.18 -11673.7,1423.18 -11519.3,1423.18 -11365,1423.18 -11210.6,1423.18 -11056.2,1423.18 -10901.8,1423.18 -10747.4,1423.18 -10593,1423.18 -10438.7,1423.18 -10284.3,1423.18 -10129.9,1423.18 -9975.52,1423.18 -9821.14,1423.18 -9666.76,1423.18 -9512.37,1423.18 -9357.99,1423.18 -9203.61,1423.18 -9049.23,1423.18 -8894.84,1423.18 -8740.46,1423.18 -8586.08,1423.18 -8431.7,1423.18 -8277.31,1423.18 -8122.93,1423.18 -7968.55,1423.18 -7814.17,1423.18 -7659.78,1423.18 -7505.4,1423.18 -7351.02,1423.18 -7196.64,1423.18 -7042.25,1423.17 -6887.87,1423.17 -6733.49,1423.17 -6579.11,1423.17 -6424.73,1423.17 -6270.34,1423.17 -6115.96,1423.16 -5961.58,1423.15 -5807.2,1423.17 -5652.81,1423.16 -5498.43,1423.15 -5344.05,1423.15 -5189.67,1423.16 -5035.28,1423.15 -4880.9,1423.14 -4726.52,1423.14 -4572.14,1423.15 -4417.75,1423.13 -4263.37,1423.13 -4108.99,1423.14 -3954.61,1423.11 -3800.22,1423.13 -3645.84,1423.13 -3491.46,1423.11 -3337.08,1423.13 -3182.7,1423.06 -3028.31,1423.05 -2873.93,1423.08 -2719.55,1423.05 -2565.17,1423.06 -2410.78,1423.02 -2256.4,1422.95 -2102.02,1422.94 -1947.64,1422.82 -1793.25,1422.76 -1638.87,1422.58 -1484.49,1422.38 -1330.11,1421.95 -1175.72,1421.67 -1021.34,1421.13 -866.96,1420.14 -712.577,1418.27 -558.195,1415.24 -403.813,1410.22 -249.43,1401.72 -95.0479,1386.92 59.3345,1364.63 213.717,1326.81 368.099,1273.99 522.482,1203.99 676.864,1114.81 831.246,1017.36 985.629,926.692 1140.01,867.57 1294.39,850.396 1448.78,884.649 1603.16,960.722 1757.54,1057.11 1911.92,1153.47 2066.31,1236.98 2220.69,1299.22 2375.07,1344.29 2529.45,1374.42 2683.83,1393.02 2838.22,1404.95 2992.6,1412.34 3146.98,1416.72 3301.36,1419.21 3455.75,1420.51 3610.13,1421.34 3764.51,1421.94 3918.89,1422.35 4073.28,1422.55 4227.66,1422.68 4382.04,1422.83 4536.42,1422.86 4690.81,1422.9 4845.19,1422.96 4999.57,1423.02 5153.95,1423.05 5308.34,1423.05 5462.72,1423.07 5617.1,1423.09 5771.48,1423.1 5925.86,1423.07 6080.25,1423.08 6234.63,1423.12 6389.01,1423.13 6543.39,1423.11 6697.78,1423.14 6852.16,1423.15 7006.54,1423.16 7160.92,1423.16 7315.31,1423.15 7469.69,1423.17 7624.07,1423.16 7778.45,1423.14 7932.84,1423.16 8087.22,1423.17 8241.6,1423.17 8395.98,1423.16 8550.37,1423.18 8704.75,1423.18 8859.13,1423.17 9013.51,1423.17 9167.89,1423.17 9322.28,1423.17 9476.66,1423.17 9631.04,1423.17 9785.42,1423.18 9939.81,1423.18 10094.2,1423.18 10248.6,1423.18 10403,1423.17 10557.3,1423.18 10711.7,1423.17 10866.1,1423.17 11020.5,1423.18 11174.9,1423.18 11329.2,1423.17 11483.6,1423.18 11638,1423.18 11792.4,1423.18 11946.8,1423.18 12101.2,1423.18 12255.5,1423.18 12409.9,1423.18 12564.3,1423.18 12718.7,1423.18 12873.1,1423.17 13027.5,1423.18 13181.8,1423.18 13336.2,1423.18 13490.6,1423.18 13645,1423.18 13799.4,1423.18 13953.7,1423.18 14108.1,1423.17 14262.5,1423.17 14416.9,1423.17 14571.3,1423.18 14725.7,1423.18 14880,1423.18 15034.4,1423.18 15188.8,1423.18 15343.2,1423.18 15497.6,1423.18 15652,1423.18 15806.3,1423.18 15960.7,1423.18 16115.1,1423.18 16269.5,1423.18 16423.9,1423.18 16578.2,1423.18 16732.6,1423.18 16887,1423.18 17041.4,1423.18 17195.8,1423.18 17350.2,1423.18 17504.5,1423.18 17658.9,1423.18 17813.3,1423.18 17967.7,1423.18 "/>
<path clip-path="url(#clip962)" d="M-12754.4 1423.18 L-12600 1423.18 L-12445.6 1423.18 L-12291.3 1423.18 L-12136.9 1423.18 L-11982.5 1423.18 L-11828.1 1423.18 L-11673.7 1423.18 L-11519.3 1423.18 L-11365 1423.18 L-11210.6 1423.18 L-11056.2 1423.18 L-10901.8 1423.18 L-10747.4 1423.18 L-10593 1423.18 L-10438.7 1423.18 L-10284.3 1423.18 L-10129.9 1423.18 L-9975.52 1423.18 L-9821.14 1423.18 L-9666.76 1423.18 L-9512.37 1423.18 L-9357.99 1423.18 L-9203.61 1423.18 L-9049.23 1423.18 L-8894.84 1423.18 L-8740.46 1423.18 L-8586.08 1423.18 L-8431.7 1423.18 L-8277.31 1423.18 L-8122.93 1423.18 L-7968.55 1423.18 L-7814.17 1423.18 L-7659.78 1423.18 L-7505.4 1423.18 L-7351.02 1423.18 L-7196.64 1423.18 L-7042.25 1423.17 L-6887.87 1423.17 L-6733.49 1423.17 L-6579.11 1423.17 L-6424.73 1423.17 L-6270.34 1423.17 L-6115.96 1423.16 L-5961.58 1423.15 L-5807.2 1423.17 L-5652.81 1423.16 L-5498.43 1423.15 L-5344.05 1423.15 L-5189.67 1423.16 L-5035.28 1423.15 L-4880.9 1423.14 L-4726.52 1423.14 L-4572.14 1423.15 L-4417.75 1423.13 L-4263.37 1423.13 L-4108.99 1423.14 L-3954.61 1423.11 L-3800.22 1423.13 L-3645.84 1423.13 L-3491.46 1423.11 L-3337.08 1423.13 L-3182.7 1423.06 L-3028.31 1423.05 L-2873.93 1423.08 L-2719.55 1423.05 L-2565.17 1423.06 L-2410.78 1423.02 L-2256.4 1422.95 L-2102.02 1422.94 L-1947.64 1422.82 L-1793.25 1422.76 L-1638.87 1422.58 L-1484.49 1422.38 L-1330.11 1421.95 L-1175.72 1421.67 L-1021.34 1421.13 L-866.96 1420.14 L-712.577 1418.27 L-558.195 1415.24 L-403.813 1410.22 L-249.43 1401.72 L-95.0479 1386.92 L59.3345 1364.63 L213.717 1326.81 L368.099 1273.99 L522.482 1203.99 L676.864 1114.81 L831.246 1017.36 L985.629 926.692 L1140.01 867.57 L1294.39 850.396 L1448.78 884.649 L1603.16 960.722 L1757.54 1057.11 L1911.92 1153.47 L2066.31 1236.98 L2220.69 1299.22 L2375.07 1344.29 L2529.45 1374.42 L2683.83 1393.02 L2838.22 1404.95 L2992.6 1412.34 L3146.98 1416.72 L3301.36 1419.21 L3455.75 1420.51 L3610.13 1421.34 L3764.51 1421.94 L3918.89 1422.35 L4073.28 1422.55 L4227.66 1422.68 L4382.04 1422.83 L4536.42 1422.86 L4690.81 1422.9 L4845.19 1422.96 L4999.57 1423.02 L5153.95 1423.05 L5308.34 1423.05 L5462.72 1423.07 L5617.1 1423.09 L5771.48 1423.1 L5925.86 1423.07 L6080.25 1423.08 L6234.63 1423.12 L6389.01 1423.13 L6543.39 1423.11 L6697.78 1423.14 L6852.16 1423.15 L7006.54 1423.16 L7160.92 1423.16 L7315.31 1423.15 L7469.69 1423.17 L7624.07 1423.16 L7778.45 1423.14 L7932.84 1423.16 L8087.22 1423.17 L8241.6 1423.17 L8395.98 1423.16 L8550.37 1423.18 L8704.75 1423.18 L8859.13 1423.17 L9013.51 1423.17 L9167.89 1423.17 L9322.28 1423.17 L9476.66 1423.17 L9631.04 1423.17 L9785.42 1423.18 L9939.81 1423.18 L10094.2 1423.18 L10248.6 1423.18 L10403 1423.17 L10557.3 1423.18 L10711.7 1423.17 L10866.1 1423.17 L11020.5 1423.18 L11174.9 1423.18 L11329.2 1423.17 L11483.6 1423.18 L11638 1423.18 L11792.4 1423.18 L11946.8 1423.18 L12101.2 1423.18 L12255.5 1423.18 L12409.9 1423.18 L12564.3 1423.18 L12718.7 1423.18 L12873.1 1423.17 L13027.5 1423.18 L13181.8 1423.18 L13336.2 1423.18 L13490.6 1423.18 L13645 1423.18 L13799.4 1423.18 L13953.7 1423.18 L14108.1 1423.17 L14262.5 1423.17 L14416.9 1423.17 L14571.3 1423.18 L14725.7 1423.18 L14880 1423.18 L15034.4 1423.18 L15188.8 1423.18 L15343.2 1423.18 L15497.6 1423.18 L15652 1423.18 L15806.3 1423.18 L15960.7 1423.18 L16115.1 1423.18 L16269.5 1423.18 L16423.9 1423.18 L16578.2 1423.18 L16732.6 1423.18 L16887 1423.18 L17041.4 1423.18 L17195.8 1423.18 L17350.2 1423.18 L17504.5 1423.18 L17658.9 1423.18 L17813.3 1423.18 L17967.7 1423.18 L17967.7 1423.18 L17813.3 1423.18 L17658.9 1423.18 L17504.5 1423.18 L17350.2 1423.18 L17195.8 1423.18 L17041.4 1423.18 L16887 1423.18 L16732.6 1423.18 L16578.2 1423.18 L16423.9 1423.18 L16269.5 1423.18 L16115.1 1423.18 L15960.7 1423.18 L15806.3 1423.18 L15652 1423.18 L15497.6 1423.18 L15343.2 1423.18 L15188.8 1423.18 L15034.4 1423.18 L14880 1423.18 L14725.7 1423.18 L14571.3 1423.18 L14416.9 1423.18 L14262.5 1423.18 L14108.1 1423.18 L13953.7 1423.18 L13799.4 1423.18 L13645 1423.18 L13490.6 1423.18 L13336.2 1423.18 L13181.8 1423.18 L13027.5 1423.18 L12873.1 1423.18 L12718.7 1423.18 L12564.3 1423.18 L12409.9 1423.18 L12255.5 1423.18 L12101.2 1423.18 L11946.8 1423.18 L11792.4 1423.18 L11638 1423.18 L11483.6 1423.18 L11329.2 1423.18 L11174.9 1423.18 L11020.5 1423.18 L10866.1 1423.18 L10711.7 1423.18 L10557.3 1423.18 L10403 1423.18 L10248.6 1423.18 L10094.2 1423.18 L9939.81 1423.18 L9785.42 1423.18 L9631.04 1423.18 L9476.66 1423.18 L9322.28 1423.18 L9167.89 1423.18 L9013.51 1423.18 L8859.13 1423.18 L8704.75 1423.18 L8550.37 1423.18 L8395.98 1423.18 L8241.6 1423.18 L8087.22 1423.18 L7932.84 1423.18 L7778.45 1423.18 L7624.07 1423.18 L7469.69 1423.18 L7315.31 1423.18 L7160.92 1423.18 L7006.54 1423.18 L6852.16 1423.18 L6697.78 1423.18 L6543.39 1423.18 L6389.01 1423.18 L6234.63 1423.18 L6080.25 1423.18 L5925.86 1423.18 L5771.48 1423.18 L5617.1 1423.18 L5462.72 1423.18 L5308.34 1423.18 L5153.95 1423.18 L4999.57 1423.18 L4845.19 1423.18 L4690.81 1423.18 L4536.42 1423.18 L4382.04 1423.18 L4227.66 1423.18 L4073.28 1423.18 L3918.89 1423.18 L3764.51 1423.18 L3610.13 1423.18 L3455.75 1423.18 L3301.36 1423.18 L3146.98 1423.18 L2992.6 1423.18 L2838.22 1423.18 L2683.83 1423.18 L2529.45 1423.18 L2375.07 1423.18 L2220.69 1423.18 L2066.31 1423.18 L1911.92 1423.18 L1757.54 1423.18 L1603.16 1423.18 L1448.78 1423.18 L1294.39 1423.18 L1140.01 1423.18 L985.629 1423.18 L831.246 1423.18 L676.864 1423.18 L522.482 1423.18 L368.099 1423.18 L213.717 1423.18 L59.3345 1423.18 L-95.0479 1423.18 L-249.43 1423.18 L-403.813 1423.18 L-558.195 1423.18 L-712.577 1423.18 L-866.96 1423.18 L-1021.34 1423.18 L-1175.72 1423.18 L-1330.11 1423.18 L-1484.49 1423.18 L-1638.87 1423.18 L-1793.25 1423.18 L-1947.64 1423.18 L-2102.02 1423.18 L-2256.4 1423.18 L-2410.78 1423.18 L-2565.17 1423.18 L-2719.55 1423.18 L-2873.93 1423.18 L-3028.31 1423.18 L-3182.7 1423.18 L-3337.08 1423.18 L-3491.46 1423.18 L-3645.84 1423.18 L-3800.22 1423.18 L-3954.61 1423.18 L-4108.99 1423.18 L-4263.37 1423.18 L-4417.75 1423.18 L-4572.14 1423.18 L-4726.52 1423.18 L-4880.9 1423.18 L-5035.28 1423.18 L-5189.67 1423.18 L-5344.05 1423.18 L-5498.43 1423.18 L-5652.81 1423.18 L-5807.2 1423.18 L-5961.58 1423.18 L-6115.96 1423.18 L-6270.34 1423.18 L-6424.73 1423.18 L-6579.11 1423.18 L-6733.49 1423.18 L-6887.87 1423.18 L-7042.25 1423.18 L-7196.64 1423.18 L-7351.02 1423.18 L-7505.4 1423.18 L-7659.78 1423.18 L-7814.17 1423.18 L-7968.55 1423.18 L-8122.93 1423.18 L-8277.31 1423.18 L-8431.7 1423.18 L-8586.08 1423.18 L-8740.46 1423.18 L-8894.84 1423.18 L-9049.23 1423.18 L-9203.61 1423.18 L-9357.99 1423.18 L-9512.37 1423.18 L-9666.76 1423.18 L-9821.14 1423.18 L-9975.52 1423.18 L-10129.9 1423.18 L-10284.3 1423.18 L-10438.7 1423.18 L-10593 1423.18 L-10747.4 1423.18 L-10901.8 1423.18 L-11056.2 1423.18 L-11210.6 1423.18 L-11365 1423.18 L-11519.3 1423.18 L-11673.7 1423.18 L-11828.1 1423.18 L-11982.5 1423.18 L-12136.9 1423.18 L-12291.3 1423.18 L-12445.6 1423.18 L-12600 1423.18 L-12754.4 1423.18  Z" fill="#e26f46" fill-rule="evenodd" fill-opacity="0.2"/>
<polyline clip-path="url(#clip962)" style="stroke:#e26f46; stroke-linecap:round; stroke-linejoin:round; stroke-width:4; stroke-opacity:1; fill:none" points="-12754.4,1423.18 -12600,1423.18 -12445.6,1423.18 -12291.3,1423.18 -12136.9,1423.18 -11982.5,1423.18 -11828.1,1423.18 -11673.7,1423.18 -11519.3,1423.18 -11365,1423.18 -11210.6,1423.18 -11056.2,1423.18 -10901.8,1423.18 -10747.4,1423.18 -10593,1423.18 -10438.7,1423.18 -10284.3,1423.18 -10129.9,1423.18 -9975.52,1423.18 -9821.14,1423.18 -9666.76,1423.18 -9512.37,1423.18 -9357.99,1423.18 -9203.61,1423.18 -9049.23,1423.18 -8894.84,1423.18 -8740.46,1423.18 -8586.08,1423.18 -8431.7,1423.18 -8277.31,1423.18 -8122.93,1423.18 -7968.55,1423.18 -7814.17,1423.18 -7659.78,1423.18 -7505.4,1423.18 -7351.02,1423.18 -7196.64,1423.18 -7042.25,1423.17 -6887.87,1423.17 -6733.49,1423.17 -6579.11,1423.17 -6424.73,1423.17 -6270.34,1423.17 -6115.96,1423.16 -5961.58,1423.15 -5807.2,1423.17 -5652.81,1423.16 -5498.43,1423.15 -5344.05,1423.15 -5189.67,1423.16 -5035.28,1423.15 -4880.9,1423.14 -4726.52,1423.14 -4572.14,1423.15 -4417.75,1423.13 -4263.37,1423.13 -4108.99,1423.14 -3954.61,1423.11 -3800.22,1423.13 -3645.84,1423.13 -3491.46,1423.11 -3337.08,1423.13 -3182.7,1423.06 -3028.31,1423.05 -2873.93,1423.08 -2719.55,1423.05 -2565.17,1423.06 -2410.78,1423.02 -2256.4,1422.95 -2102.02,1422.94 -1947.64,1422.82 -1793.25,1422.76 -1638.87,1422.58 -1484.49,1422.38 -1330.11,1421.95 -1175.72,1421.67 -1021.34,1421.13 -866.96,1420.14 -712.577,1418.27 -558.195,1415.24 -403.813,1410.22 -249.43,1401.72 -95.0479,1386.92 59.3345,1364.63 213.717,1326.81 368.099,1273.99 522.482,1203.99 676.864,1114.81 831.246,1017.36 985.629,926.692 1140.01,867.57 1294.39,850.396 1448.78,884.649 1603.16,960.722 1757.54,1057.11 1911.92,1153.47 2066.31,1236.98 2220.69,1299.22 2375.07,1344.29 2529.45,1374.42 2683.83,1393.02 2838.22,1404.95 2992.6,1412.34 3146.98,1416.72 3301.36,1419.21 3455.75,1420.51 3610.13,1421.34 3764.51,1421.94 3918.89,1422.35 4073.28,1422.55 4227.66,1422.68 4382.04,1422.83 4536.42,1422.86 4690.81,1422.9 4845.19,1422.96 4999.57,1423.02 5153.95,1423.05 5308.34,1423.05 5462.72,1423.07 5617.1,1423.09 5771.48,1423.1 5925.86,1423.07 6080.25,1423.08 6234.63,1423.12 6389.01,1423.13 6543.39,1423.11 6697.78,1423.14 6852.16,1423.15 7006.54,1423.16 7160.92,1423.16 7315.31,1423.15 7469.69,1423.17 7624.07,1423.16 7778.45,1423.14 7932.84,1423.16 8087.22,1423.17 8241.6,1423.17 8395.98,1423.16 8550.37,1423.18 8704.75,1423.18 8859.13,1423.17 9013.51,1423.17 9167.89,1423.17 9322.28,1423.17 9476.66,1423.17 9631.04,1423.17 9785.42,1423.18 9939.81,1423.18 10094.2,1423.18 10248.6,1423.18 10403,1423.17 10557.3,1423.18 10711.7,1423.17 10866.1,1423.17 11020.5,1423.18 11174.9,1423.18 11329.2,1423.17 11483.6,1423.18 11638,1423.18 11792.4,1423.18 11946.8,1423.18 12101.2,1423.18 12255.5,1423.18 12409.9,1423.18 12564.3,1423.18 12718.7,1423.18 12873.1,1423.17 13027.5,1423.18 13181.8,1423.18 13336.2,1423.18 13490.6,1423.18 13645,1423.18 13799.4,1423.18 13953.7,1423.18 14108.1,1423.17 14262.5,1423.17 14416.9,1423.17 14571.3,1423.18 14725.7,1423.18 14880,1423.18 15034.4,1423.18 15188.8,1423.18 15343.2,1423.18 15497.6,1423.18 15652,1423.18 15806.3,1423.18 15960.7,1423.18 16115.1,1423.18 16269.5,1423.18 16423.9,1423.18 16578.2,1423.18 16732.6,1423.18 16887,1423.18 17041.4,1423.18 17195.8,1423.18 17350.2,1423.18 17504.5,1423.18 17658.9,1423.18 17813.3,1423.18 17967.7,1423.18 "/>
</svg>
