<?xml version="1.0" encoding="utf-8"?>
<svg xmlns="http://www.w3.org/2000/svg" xmlns:xlink="http://www.w3.org/1999/xlink" width="600" height="400" viewBox="0 0 2400 1600">
<defs>
  <clipPath id="clip860">
    <rect x="0" y="0" width="2400" height="1600"/>
  </clipPath>
</defs>
<path clip-path="url(#clip860)" d="M0 1600 L2400 1600 L2400 0 L0 0  Z" fill="#ffffff" fill-rule="evenodd" fill-opacity="1"/>
<defs>
  <clipPath id="clip861">
    <rect x="480" y="0" width="1681" height="1600"/>
  </clipPath>
</defs>
<path clip-path="url(#clip860)" d="M219.866 1423.18 L2352.76 1423.18 L2352.76 123.472 L219.866 123.472  Z" fill="#ffffff" fill-rule="evenodd" fill-opacity="1"/>
<defs>
  <clipPath id="clip862">
    <rect x="219" y="123" width="2134" height="1301"/>
  </clipPath>
</defs>
<polyline clip-path="url(#clip862)" style="stroke:#000000; stroke-linecap:round; stroke-linejoin:round; stroke-width:2; stroke-opacity:0.1; fill:none" points="219.866,1423.18 219.866,123.472 "/>
<polyline clip-path="url(#clip862)" style="stroke:#000000; stroke-linecap:round; stroke-linejoin:round; stroke-width:2; stroke-opacity:0.1; fill:none" points="753.089,1423.18 753.089,123.472 "/>
<polyline clip-path="url(#clip862)" style="stroke:#000000; stroke-linecap:round; stroke-linejoin:round; stroke-width:2; stroke-opacity:0.1; fill:none" points="1286.31,1423.18 1286.31,123.472 "/>
<polyline clip-path="url(#clip862)" style="stroke:#000000; stroke-linecap:round; stroke-linejoin:round; stroke-width:2; stroke-opacity:0.1; fill:none" points="1819.53,1423.18 1819.53,123.472 "/>
<polyline clip-path="url(#clip862)" style="stroke:#000000; stroke-linecap:round; stroke-linejoin:round; stroke-width:2; stroke-opacity:0.1; fill:none" points="2352.76,1423.18 2352.76,123.472 "/>
<polyline clip-path="url(#clip860)" style="stroke:#000000; stroke-linecap:round; stroke-linejoin:round; stroke-width:4; stroke-opacity:1; fill:none" points="219.866,1423.18 2352.76,1423.18 "/>
<polyline clip-path="url(#clip860)" style="stroke:#000000; stroke-linecap:round; stroke-linejoin:round; stroke-width:4; stroke-opacity:1; fill:none" points="219.866,1423.18 219.866,1404.28 "/>
<polyline clip-path="url(#clip860)" style="stroke:#000000; stroke-linecap:round; stroke-linejoin:round; stroke-width:4; stroke-opacity:1; fill:none" points="753.089,1423.18 753.089,1404.28 "/>
<polyline clip-path="url(#clip860)" style="stroke:#000000; stroke-linecap:round; stroke-linejoin:round; stroke-width:4; stroke-opacity:1; fill:none" points="1286.31,1423.18 1286.31,1404.28 "/>
<polyline clip-path="url(#clip860)" style="stroke:#000000; stroke-linecap:round; stroke-linejoin:round; stroke-width:4; stroke-opacity:1; fill:none" points="1819.53,1423.18 1819.53,1404.28 "/>
<polyline clip-path="url(#clip860)" style="stroke:#000000; stroke-linecap:round; stroke-linejoin:round; stroke-width:4; stroke-opacity:1; fill:none" points="2352.76,1423.18 2352.76,1404.28 "/>
<path clip-path="url(#clip860)" d="M188.767 1468.75 L218.443 1468.75 L218.443 1472.69 L188.767 1472.69 L188.767 1468.75 Z" fill="#000000" fill-rule="nonzero" fill-opacity="1" /><path clip-path="url(#clip860)" d="M241.382 1455.09 L229.577 1473.54 L241.382 1473.54 L241.382 1455.09 M240.156 1451.02 L246.035 1451.02 L246.035 1473.54 L250.966 1473.54 L250.966 1477.43 L246.035 1477.43 L246.035 1485.58 L241.382 1485.58 L241.382 1477.43 L225.781 1477.43 L225.781 1472.92 L240.156 1451.02 Z" fill="#000000" fill-rule="nonzero" fill-opacity="1" /><path clip-path="url(#clip860)" d="M723.031 1468.75 L752.707 1468.75 L752.707 1472.69 L723.031 1472.69 L723.031 1468.75 Z" fill="#000000" fill-rule="nonzero" fill-opacity="1" /><path clip-path="url(#clip860)" d="M766.827 1481.64 L783.146 1481.64 L783.146 1485.58 L761.202 1485.58 L761.202 1481.64 Q763.864 1478.89 768.447 1474.26 Q773.054 1469.61 774.234 1468.27 Q776.48 1465.74 777.359 1464.01 Q778.262 1462.25 778.262 1460.56 Q778.262 1457.8 776.318 1456.07 Q774.396 1454.33 771.295 1454.33 Q769.096 1454.33 766.642 1455.09 Q764.211 1455.86 761.434 1457.41 L761.434 1452.69 Q764.258 1451.55 766.711 1450.97 Q769.165 1450.39 771.202 1450.39 Q776.572 1450.39 779.767 1453.08 Q782.961 1455.77 782.961 1460.26 Q782.961 1462.39 782.151 1464.31 Q781.364 1466.2 779.258 1468.8 Q778.679 1469.47 775.577 1472.69 Q772.475 1475.88 766.827 1481.64 Z" fill="#000000" fill-rule="nonzero" fill-opacity="1" /><path clip-path="url(#clip860)" d="M1286.31 1454.1 Q1282.7 1454.1 1280.87 1457.66 Q1279.07 1461.2 1279.07 1468.33 Q1279.07 1475.44 1280.87 1479.01 Q1282.7 1482.55 1286.31 1482.55 Q1289.95 1482.55 1291.75 1479.01 Q1293.58 1475.44 1293.58 1468.33 Q1293.58 1461.2 1291.75 1457.66 Q1289.95 1454.1 1286.31 1454.1 M1286.31 1450.39 Q1292.12 1450.39 1295.18 1455 Q1298.26 1459.58 1298.26 1468.33 Q1298.26 1477.06 1295.18 1481.67 Q1292.12 1486.25 1286.31 1486.25 Q1280.5 1486.25 1277.42 1481.67 Q1274.37 1477.06 1274.37 1468.33 Q1274.37 1459.58 1277.42 1455 Q1280.5 1450.39 1286.31 1450.39 Z" fill="#000000" fill-rule="nonzero" fill-opacity="1" /><path clip-path="url(#clip860)" d="M1814.19 1481.64 L1830.51 1481.64 L1830.51 1485.58 L1808.56 1485.58 L1808.56 1481.64 Q1811.22 1478.89 1815.81 1474.26 Q1820.41 1469.61 1821.59 1468.27 Q1823.84 1465.74 1824.72 1464.01 Q1825.62 1462.25 1825.62 1460.56 Q1825.62 1457.8 1823.68 1456.07 Q1821.76 1454.33 1818.65 1454.33 Q1816.45 1454.33 1814 1455.09 Q1811.57 1455.86 1808.79 1457.41 L1808.79 1452.69 Q1811.62 1451.55 1814.07 1450.97 Q1816.52 1450.39 1818.56 1450.39 Q1823.93 1450.39 1827.13 1453.08 Q1830.32 1455.77 1830.32 1460.26 Q1830.32 1462.39 1829.51 1464.31 Q1828.72 1466.2 1826.62 1468.8 Q1826.04 1469.47 1822.94 1472.69 Q1819.83 1475.88 1814.19 1481.64 Z" fill="#000000" fill-rule="nonzero" fill-opacity="1" /><path clip-path="url(#clip860)" d="M2355.77 1455.09 L2343.96 1473.54 L2355.77 1473.54 L2355.77 1455.09 M2354.54 1451.02 L2360.42 1451.02 L2360.42 1473.54 L2365.35 1473.54 L2365.35 1477.43 L2360.42 1477.43 L2360.42 1485.58 L2355.77 1485.58 L2355.77 1477.43 L2340.16 1477.43 L2340.16 1472.92 L2354.54 1451.02 Z" fill="#000000" fill-rule="nonzero" fill-opacity="1" /><path clip-path="url(#clip860)" d="M885.319 1532.4 L913.137 1532.4 L913.137 1537.74 L891.112 1563.37 L913.137 1563.37 L913.137 1568.04 L884.524 1568.04 L884.524 1562.7 L906.549 1537.07 L885.319 1537.07 L885.319 1532.4 Z" fill="#000000" fill-rule="nonzero" fill-opacity="1" /><path clip-path="url(#clip860)" d="M919.121 1547.58 L936.277 1547.58 L936.277 1552.8 L919.121 1552.8 L919.121 1547.58 Z" fill="#000000" fill-rule="nonzero" fill-opacity="1" /><path clip-path="url(#clip860)" d="M968.328 1533.45 L968.328 1538.98 Q965.845 1537.71 963.172 1537.07 Q960.498 1536.44 957.634 1536.44 Q953.273 1536.44 951.077 1537.77 Q948.913 1539.11 948.913 1541.79 Q948.913 1543.82 950.472 1545 Q952.032 1546.15 956.743 1547.2 L958.748 1547.64 Q964.986 1548.98 967.596 1551.43 Q970.238 1553.85 970.238 1558.21 Q970.238 1563.17 966.291 1566.07 Q962.376 1568.97 955.501 1568.97 Q952.637 1568.97 949.517 1568.39 Q946.43 1567.85 942.993 1566.74 L942.993 1560.69 Q946.239 1562.38 949.39 1563.24 Q952.541 1564.07 955.629 1564.07 Q959.766 1564.07 961.994 1562.66 Q964.222 1561.23 964.222 1558.65 Q964.222 1556.27 962.599 1554.99 Q961.008 1553.72 955.565 1552.54 L953.528 1552.07 Q948.085 1550.92 945.666 1548.56 Q943.247 1546.18 943.247 1542.04 Q943.247 1537.01 946.812 1534.27 Q950.377 1531.54 956.934 1531.54 Q960.18 1531.54 963.045 1532.01 Q965.909 1532.49 968.328 1533.45 Z" fill="#000000" fill-rule="nonzero" fill-opacity="1" /><path clip-path="url(#clip860)" d="M985.356 1522.27 L985.356 1532.4 L997.419 1532.4 L997.419 1536.95 L985.356 1536.95 L985.356 1556.3 Q985.356 1560.66 986.534 1561.9 Q987.744 1563.14 991.404 1563.14 L997.419 1563.14 L997.419 1568.04 L991.404 1568.04 Q984.624 1568.04 982.046 1565.53 Q979.468 1562.98 979.468 1556.3 L979.468 1536.95 L975.171 1536.95 L975.171 1532.4 L979.468 1532.4 L979.468 1522.27 L985.356 1522.27 Z" fill="#000000" fill-rule="nonzero" fill-opacity="1" /><path clip-path="url(#clip860)" d="M1021.32 1550.12 Q1014.22 1550.12 1011.49 1551.75 Q1008.75 1553.37 1008.75 1557.29 Q1008.75 1560.4 1010.79 1562.25 Q1012.86 1564.07 1016.39 1564.07 Q1021.26 1564.07 1024.19 1560.63 Q1027.15 1557.16 1027.15 1551.43 L1027.15 1550.12 L1021.32 1550.12 M1033 1547.71 L1033 1568.04 L1027.15 1568.04 L1027.15 1562.63 Q1025.14 1565.88 1022.15 1567.44 Q1019.16 1568.97 1014.83 1568.97 Q1009.36 1568.97 1006.11 1565.91 Q1002.89 1562.82 1002.89 1557.67 Q1002.89 1551.65 1006.9 1548.6 Q1010.95 1545.54 1018.94 1545.54 L1027.15 1545.54 L1027.15 1544.97 Q1027.15 1540.93 1024.47 1538.73 Q1021.83 1536.5 1017.03 1536.5 Q1013.97 1536.5 1011.07 1537.23 Q1008.18 1537.97 1005.5 1539.43 L1005.5 1534.02 Q1008.72 1532.78 1011.74 1532.17 Q1014.77 1531.54 1017.63 1531.54 Q1025.36 1531.54 1029.18 1535.55 Q1033 1539.56 1033 1547.71 Z" fill="#000000" fill-rule="nonzero" fill-opacity="1" /><path clip-path="url(#clip860)" d="M1074.7 1546.53 L1074.7 1568.04 L1068.84 1568.04 L1068.84 1546.72 Q1068.84 1541.66 1066.87 1539.14 Q1064.9 1536.63 1060.95 1536.63 Q1056.21 1536.63 1053.47 1539.65 Q1050.73 1542.68 1050.73 1547.9 L1050.73 1568.04 L1044.84 1568.04 L1044.84 1532.4 L1050.73 1532.4 L1050.73 1537.93 Q1052.83 1534.72 1055.67 1533.13 Q1058.53 1531.54 1062.25 1531.54 Q1068.4 1531.54 1071.55 1535.36 Q1074.7 1539.14 1074.7 1546.53 Z" fill="#000000" fill-rule="nonzero" fill-opacity="1" /><path clip-path="url(#clip860)" d="M1109.84 1537.81 L1109.84 1518.52 L1115.69 1518.52 L1115.69 1568.04 L1109.84 1568.04 L1109.84 1562.7 Q1107.99 1565.88 1105.16 1567.44 Q1102.36 1568.97 1098.41 1568.97 Q1091.95 1568.97 1087.88 1563.81 Q1083.83 1558.65 1083.83 1550.25 Q1083.83 1541.85 1087.88 1536.69 Q1091.95 1531.54 1098.41 1531.54 Q1102.36 1531.54 1105.16 1533.1 Q1107.99 1534.62 1109.84 1537.81 M1089.88 1550.25 Q1089.88 1556.71 1092.52 1560.4 Q1095.2 1564.07 1099.84 1564.07 Q1104.49 1564.07 1107.16 1560.4 Q1109.84 1556.71 1109.84 1550.25 Q1109.84 1543.79 1107.16 1540.13 Q1104.49 1536.44 1099.84 1536.44 Q1095.2 1536.44 1092.52 1540.13 Q1089.88 1543.79 1089.88 1550.25 Z" fill="#000000" fill-rule="nonzero" fill-opacity="1" /><path clip-path="url(#clip860)" d="M1143.96 1550.12 Q1136.86 1550.12 1134.12 1551.75 Q1131.39 1553.37 1131.39 1557.29 Q1131.39 1560.4 1133.42 1562.25 Q1135.49 1564.07 1139.02 1564.07 Q1143.89 1564.07 1146.82 1560.63 Q1149.78 1557.16 1149.78 1551.43 L1149.78 1550.12 L1143.96 1550.12 M1155.64 1547.71 L1155.64 1568.04 L1149.78 1568.04 L1149.78 1562.63 Q1147.78 1565.88 1144.79 1567.44 Q1141.79 1568.97 1137.46 1568.97 Q1131.99 1568.97 1128.74 1565.91 Q1125.53 1562.82 1125.53 1557.67 Q1125.53 1551.65 1129.54 1548.6 Q1133.58 1545.54 1141.57 1545.54 L1149.78 1545.54 L1149.78 1544.97 Q1149.78 1540.93 1147.11 1538.73 Q1144.47 1536.5 1139.66 1536.5 Q1136.61 1536.5 1133.71 1537.23 Q1130.81 1537.97 1128.14 1539.43 L1128.14 1534.02 Q1131.35 1532.78 1134.38 1532.17 Q1137.4 1531.54 1140.27 1531.54 Q1148 1531.54 1151.82 1535.55 Q1155.64 1539.56 1155.64 1547.71 Z" fill="#000000" fill-rule="nonzero" fill-opacity="1" /><path clip-path="url(#clip860)" d="M1188.36 1537.87 Q1187.37 1537.3 1186.19 1537.04 Q1185.05 1536.76 1183.65 1536.76 Q1178.68 1536.76 1176.01 1540 Q1173.37 1543.22 1173.37 1549.27 L1173.37 1568.04 L1167.48 1568.04 L1167.48 1532.4 L1173.37 1532.4 L1173.37 1537.93 Q1175.21 1534.69 1178.17 1533.13 Q1181.13 1531.54 1185.37 1531.54 Q1185.97 1531.54 1186.7 1531.63 Q1187.44 1531.7 1188.33 1531.85 L1188.36 1537.87 Z" fill="#000000" fill-rule="nonzero" fill-opacity="1" /><path clip-path="url(#clip860)" d="M1216.81 1537.81 L1216.81 1518.52 L1222.67 1518.52 L1222.67 1568.04 L1216.81 1568.04 L1216.81 1562.7 Q1214.97 1565.88 1212.13 1567.44 Q1209.33 1568.97 1205.39 1568.97 Q1198.93 1568.97 1194.85 1563.81 Q1190.81 1558.65 1190.81 1550.25 Q1190.81 1541.85 1194.85 1536.69 Q1198.93 1531.54 1205.39 1531.54 Q1209.33 1531.54 1212.13 1533.1 Q1214.97 1534.62 1216.81 1537.81 M1196.86 1550.25 Q1196.86 1556.71 1199.5 1560.4 Q1202.17 1564.07 1206.82 1564.07 Q1211.47 1564.07 1214.14 1560.4 Q1216.81 1556.71 1216.81 1550.25 Q1216.81 1543.79 1214.14 1540.13 Q1211.47 1536.44 1206.82 1536.44 Q1202.17 1536.44 1199.5 1540.13 Q1196.86 1543.79 1196.86 1550.25 Z" fill="#000000" fill-rule="nonzero" fill-opacity="1" /><path clip-path="url(#clip860)" d="M1234.73 1532.4 L1240.59 1532.4 L1240.59 1568.04 L1234.73 1568.04 L1234.73 1532.4 M1234.73 1518.52 L1240.59 1518.52 L1240.59 1525.93 L1234.73 1525.93 L1234.73 1518.52 Z" fill="#000000" fill-rule="nonzero" fill-opacity="1" /><path clip-path="url(#clip860)" d="M1275.57 1533.45 L1275.57 1538.98 Q1273.09 1537.71 1270.41 1537.07 Q1267.74 1536.44 1264.87 1536.44 Q1260.51 1536.44 1258.32 1537.77 Q1256.15 1539.11 1256.15 1541.79 Q1256.15 1543.82 1257.71 1545 Q1259.27 1546.15 1263.98 1547.2 L1265.99 1547.64 Q1272.23 1548.98 1274.84 1551.43 Q1277.48 1553.85 1277.48 1558.21 Q1277.48 1563.17 1273.53 1566.07 Q1269.62 1568.97 1262.74 1568.97 Q1259.88 1568.97 1256.76 1568.39 Q1253.67 1567.85 1250.23 1566.74 L1250.23 1560.69 Q1253.48 1562.38 1256.63 1563.24 Q1259.78 1564.07 1262.87 1564.07 Q1267.01 1564.07 1269.24 1562.66 Q1271.46 1561.23 1271.46 1558.65 Q1271.46 1556.27 1269.84 1554.99 Q1268.25 1553.72 1262.81 1552.54 L1260.77 1552.07 Q1255.33 1550.92 1252.91 1548.56 Q1250.49 1546.18 1250.49 1542.04 Q1250.49 1537.01 1254.05 1534.27 Q1257.62 1531.54 1264.17 1531.54 Q1267.42 1531.54 1270.29 1532.01 Q1273.15 1532.49 1275.57 1533.45 Z" fill="#000000" fill-rule="nonzero" fill-opacity="1" /><path clip-path="url(#clip860)" d="M1317.3 1548.76 L1317.3 1551.62 L1290.37 1551.62 Q1290.75 1557.67 1294 1560.85 Q1297.28 1564 1303.1 1564 Q1306.47 1564 1309.63 1563.17 Q1312.81 1562.35 1315.93 1560.69 L1315.93 1566.23 Q1312.78 1567.57 1309.47 1568.27 Q1306.16 1568.97 1302.75 1568.97 Q1294.22 1568.97 1289.22 1564 Q1284.26 1559.04 1284.26 1550.57 Q1284.26 1541.82 1288.97 1536.69 Q1293.71 1531.54 1301.73 1531.54 Q1308.93 1531.54 1313.09 1536.18 Q1317.3 1540.8 1317.3 1548.76 M1311.44 1547.04 Q1311.38 1542.23 1308.73 1539.37 Q1306.12 1536.5 1301.8 1536.5 Q1296.89 1536.5 1293.93 1539.27 Q1291.01 1542.04 1290.56 1547.07 L1311.44 1547.04 Z" fill="#000000" fill-rule="nonzero" fill-opacity="1" /><path clip-path="url(#clip860)" d="M1350.37 1537.81 L1350.37 1518.52 L1356.22 1518.52 L1356.22 1568.04 L1350.37 1568.04 L1350.37 1562.7 Q1348.52 1565.88 1345.69 1567.44 Q1342.89 1568.97 1338.94 1568.97 Q1332.48 1568.97 1328.4 1563.81 Q1324.36 1558.65 1324.36 1550.25 Q1324.36 1541.85 1328.4 1536.69 Q1332.48 1531.54 1338.94 1531.54 Q1342.89 1531.54 1345.69 1533.1 Q1348.52 1534.62 1350.37 1537.81 M1330.41 1550.25 Q1330.41 1556.71 1333.05 1560.4 Q1335.72 1564.07 1340.37 1564.07 Q1345.02 1564.07 1347.69 1560.4 Q1350.37 1556.71 1350.37 1550.25 Q1350.37 1543.79 1347.69 1540.13 Q1345.02 1536.44 1340.37 1536.44 Q1335.72 1536.44 1333.05 1540.13 Q1330.41 1543.79 1330.41 1550.25 Z" fill="#000000" fill-rule="nonzero" fill-opacity="1" /><path clip-path="url(#clip860)" d="M1389.01 1518.52 L1394.86 1518.52 L1394.86 1568.04 L1389.01 1568.04 L1389.01 1518.52 Z" fill="#000000" fill-rule="nonzero" fill-opacity="1" /><path clip-path="url(#clip860)" d="M1420.93 1536.5 Q1416.22 1536.5 1413.48 1540.19 Q1410.74 1543.85 1410.74 1550.25 Q1410.74 1556.65 1413.45 1560.34 Q1416.19 1564 1420.93 1564 Q1425.61 1564 1428.35 1560.31 Q1431.08 1556.62 1431.08 1550.25 Q1431.08 1543.92 1428.35 1540.23 Q1425.61 1536.5 1420.93 1536.5 M1420.93 1531.54 Q1428.57 1531.54 1432.93 1536.5 Q1437.29 1541.47 1437.29 1550.25 Q1437.29 1559 1432.93 1564 Q1428.57 1568.97 1420.93 1568.97 Q1413.26 1568.97 1408.9 1564 Q1404.57 1559 1404.57 1550.25 Q1404.57 1541.47 1408.9 1536.5 Q1413.26 1531.54 1420.93 1531.54 Z" fill="#000000" fill-rule="nonzero" fill-opacity="1" /><path clip-path="url(#clip860)" d="M1470.46 1549.81 Q1470.46 1543.44 1467.81 1539.94 Q1465.2 1536.44 1460.46 1536.44 Q1455.75 1536.44 1453.11 1539.94 Q1450.5 1543.44 1450.5 1549.81 Q1450.5 1556.14 1453.11 1559.64 Q1455.75 1563.14 1460.46 1563.14 Q1465.2 1563.14 1467.81 1559.64 Q1470.46 1556.14 1470.46 1549.81 M1476.31 1563.62 Q1476.31 1572.72 1472.27 1577.15 Q1468.23 1581.6 1459.89 1581.6 Q1456.8 1581.6 1454.06 1581.13 Q1451.33 1580.68 1448.75 1579.72 L1448.75 1574.03 Q1451.33 1575.43 1453.84 1576.1 Q1456.36 1576.76 1458.96 1576.76 Q1464.73 1576.76 1467.59 1573.74 Q1470.46 1570.75 1470.46 1564.67 L1470.46 1561.77 Q1468.64 1564.92 1465.81 1566.48 Q1462.98 1568.04 1459.03 1568.04 Q1452.47 1568.04 1448.46 1563.05 Q1444.45 1558.05 1444.45 1549.81 Q1444.45 1541.53 1448.46 1536.53 Q1452.47 1531.54 1459.03 1531.54 Q1462.98 1531.54 1465.81 1533.1 Q1468.64 1534.66 1470.46 1537.81 L1470.46 1532.4 L1476.31 1532.4 L1476.31 1563.62 Z" fill="#000000" fill-rule="nonzero" fill-opacity="1" /><path clip-path="url(#clip860)" d="M1485.41 1547.58 L1502.57 1547.58 L1502.57 1552.8 L1485.41 1552.8 L1485.41 1547.58 Z" fill="#000000" fill-rule="nonzero" fill-opacity="1" /><path clip-path="url(#clip860)" d="M1537.55 1533.76 L1537.55 1539.24 Q1535.07 1537.87 1532.55 1537.2 Q1530.07 1536.5 1527.52 1536.5 Q1521.83 1536.5 1518.68 1540.13 Q1515.52 1543.73 1515.52 1550.25 Q1515.52 1556.78 1518.68 1560.4 Q1521.83 1564 1527.52 1564 Q1530.07 1564 1532.55 1563.33 Q1535.07 1562.63 1537.55 1561.26 L1537.55 1566.68 Q1535.1 1567.82 1532.46 1568.39 Q1529.85 1568.97 1526.89 1568.97 Q1518.83 1568.97 1514.09 1563.91 Q1509.35 1558.85 1509.35 1550.25 Q1509.35 1541.53 1514.12 1536.53 Q1518.93 1531.54 1527.27 1531.54 Q1529.97 1531.54 1532.55 1532.11 Q1535.13 1532.65 1537.55 1533.76 Z" fill="#000000" fill-rule="nonzero" fill-opacity="1" /><path clip-path="url(#clip860)" d="M1561.55 1536.5 Q1556.84 1536.5 1554.1 1540.19 Q1551.36 1543.85 1551.36 1550.25 Q1551.36 1556.65 1554.07 1560.34 Q1556.81 1564 1561.55 1564 Q1566.23 1564 1568.96 1560.31 Q1571.7 1556.62 1571.7 1550.25 Q1571.7 1543.92 1568.96 1540.23 Q1566.23 1536.5 1561.55 1536.5 M1561.55 1531.54 Q1569.19 1531.54 1573.55 1536.5 Q1577.91 1541.47 1577.91 1550.25 Q1577.91 1559 1573.55 1564 Q1569.19 1568.97 1561.55 1568.97 Q1553.88 1568.97 1549.52 1564 Q1545.19 1559 1545.19 1550.25 Q1545.19 1541.47 1549.52 1536.5 Q1553.88 1531.54 1561.55 1531.54 Z" fill="#000000" fill-rule="nonzero" fill-opacity="1" /><path clip-path="url(#clip860)" d="M1587.01 1553.98 L1587.01 1532.4 L1592.87 1532.4 L1592.87 1553.75 Q1592.87 1558.81 1594.84 1561.36 Q1596.81 1563.87 1600.76 1563.87 Q1605.5 1563.87 1608.24 1560.85 Q1611.01 1557.83 1611.01 1552.61 L1611.01 1532.4 L1616.87 1532.4 L1616.87 1568.04 L1611.01 1568.04 L1611.01 1562.57 Q1608.88 1565.82 1606.04 1567.41 Q1603.24 1568.97 1599.52 1568.97 Q1593.38 1568.97 1590.19 1565.15 Q1587.01 1561.33 1587.01 1553.98 M1601.75 1531.54 L1601.75 1531.54 Z" fill="#000000" fill-rule="nonzero" fill-opacity="1" /><path clip-path="url(#clip860)" d="M1658.56 1546.53 L1658.56 1568.04 L1652.71 1568.04 L1652.71 1546.72 Q1652.71 1541.66 1650.73 1539.14 Q1648.76 1536.63 1644.81 1536.63 Q1640.07 1536.63 1637.33 1539.65 Q1634.59 1542.68 1634.59 1547.9 L1634.59 1568.04 L1628.71 1568.04 L1628.71 1532.4 L1634.59 1532.4 L1634.59 1537.93 Q1636.7 1534.72 1639.53 1533.13 Q1642.39 1531.54 1646.12 1531.54 Q1652.26 1531.54 1655.41 1535.36 Q1658.56 1539.14 1658.56 1546.53 Z" fill="#000000" fill-rule="nonzero" fill-opacity="1" /><path clip-path="url(#clip860)" d="M1676.04 1522.27 L1676.04 1532.4 L1688.1 1532.4 L1688.1 1536.95 L1676.04 1536.95 L1676.04 1556.3 Q1676.04 1560.66 1677.21 1561.9 Q1678.42 1563.14 1682.08 1563.14 L1688.1 1563.14 L1688.1 1568.04 L1682.08 1568.04 Q1675.3 1568.04 1672.73 1565.53 Q1670.15 1562.98 1670.15 1556.3 L1670.15 1536.95 L1665.85 1536.95 L1665.85 1532.4 L1670.15 1532.4 L1670.15 1522.27 L1676.04 1522.27 Z" fill="#000000" fill-rule="nonzero" fill-opacity="1" /><polyline clip-path="url(#clip862)" style="stroke:#000000; stroke-linecap:round; stroke-linejoin:round; stroke-width:2; stroke-opacity:0.1; fill:none" points="219.866,1423.18 2352.76,1423.18 "/>
<polyline clip-path="url(#clip862)" style="stroke:#000000; stroke-linecap:round; stroke-linejoin:round; stroke-width:2; stroke-opacity:0.1; fill:none" points="219.866,1127.14 2352.76,1127.14 "/>
<polyline clip-path="url(#clip862)" style="stroke:#000000; stroke-linecap:round; stroke-linejoin:round; stroke-width:2; stroke-opacity:0.1; fill:none" points="219.866,831.091 2352.76,831.091 "/>
<polyline clip-path="url(#clip862)" style="stroke:#000000; stroke-linecap:round; stroke-linejoin:round; stroke-width:2; stroke-opacity:0.1; fill:none" points="219.866,535.046 2352.76,535.046 "/>
<polyline clip-path="url(#clip862)" style="stroke:#000000; stroke-linecap:round; stroke-linejoin:round; stroke-width:2; stroke-opacity:0.1; fill:none" points="219.866,239.002 2352.76,239.002 "/>
<polyline clip-path="url(#clip860)" style="stroke:#000000; stroke-linecap:round; stroke-linejoin:round; stroke-width:4; stroke-opacity:1; fill:none" points="219.866,1423.18 219.866,123.472 "/>
<polyline clip-path="url(#clip860)" style="stroke:#000000; stroke-linecap:round; stroke-linejoin:round; stroke-width:4; stroke-opacity:1; fill:none" points="219.866,1423.18 238.764,1423.18 "/>
<polyline clip-path="url(#clip860)" style="stroke:#000000; stroke-linecap:round; stroke-linejoin:round; stroke-width:4; stroke-opacity:1; fill:none" points="219.866,1127.14 238.764,1127.14 "/>
<polyline clip-path="url(#clip860)" style="stroke:#000000; stroke-linecap:round; stroke-linejoin:round; stroke-width:4; stroke-opacity:1; fill:none" points="219.866,831.091 238.764,831.091 "/>
<polyline clip-path="url(#clip860)" style="stroke:#000000; stroke-linecap:round; stroke-linejoin:round; stroke-width:4; stroke-opacity:1; fill:none" points="219.866,535.046 238.764,535.046 "/>
<polyline clip-path="url(#clip860)" style="stroke:#000000; stroke-linecap:round; stroke-linejoin:round; stroke-width:4; stroke-opacity:1; fill:none" points="219.866,239.002 238.764,239.002 "/>
<path clip-path="url(#clip860)" d="M126.691 1408.98 Q123.08 1408.98 121.251 1412.54 Q119.445 1416.08 119.445 1423.21 Q119.445 1430.32 121.251 1433.89 Q123.08 1437.43 126.691 1437.43 Q130.325 1437.43 132.13 1433.89 Q133.959 1430.32 133.959 1423.21 Q133.959 1416.08 132.13 1412.54 Q130.325 1408.98 126.691 1408.98 M126.691 1405.27 Q132.501 1405.27 135.556 1409.88 Q138.635 1414.46 138.635 1423.21 Q138.635 1431.94 135.556 1436.55 Q132.501 1441.13 126.691 1441.13 Q120.88 1441.13 117.802 1436.55 Q114.746 1431.94 114.746 1423.21 Q114.746 1414.46 117.802 1409.88 Q120.88 1405.27 126.691 1405.27 Z" fill="#000000" fill-rule="nonzero" fill-opacity="1" /><path clip-path="url(#clip860)" d="M146.853 1434.58 L151.737 1434.58 L151.737 1440.46 L146.853 1440.46 L146.853 1434.58 Z" fill="#000000" fill-rule="nonzero" fill-opacity="1" /><path clip-path="url(#clip860)" d="M171.922 1408.98 Q168.311 1408.98 166.482 1412.54 Q164.677 1416.08 164.677 1423.21 Q164.677 1430.32 166.482 1433.89 Q168.311 1437.43 171.922 1437.43 Q175.556 1437.43 177.362 1433.89 Q179.19 1430.32 179.19 1423.21 Q179.19 1416.08 177.362 1412.54 Q175.556 1408.98 171.922 1408.98 M171.922 1405.27 Q177.732 1405.27 180.788 1409.88 Q183.866 1414.46 183.866 1423.21 Q183.866 1431.94 180.788 1436.55 Q177.732 1441.13 171.922 1441.13 Q166.112 1441.13 163.033 1436.55 Q159.978 1431.94 159.978 1423.21 Q159.978 1414.46 163.033 1409.88 Q166.112 1405.27 171.922 1405.27 Z" fill="#000000" fill-rule="nonzero" fill-opacity="1" /><path clip-path="url(#clip860)" d="M127.917 1112.93 Q124.306 1112.93 122.478 1116.5 Q120.672 1120.04 120.672 1127.17 Q120.672 1134.28 122.478 1137.84 Q124.306 1141.38 127.917 1141.38 Q131.552 1141.38 133.357 1137.84 Q135.186 1134.28 135.186 1127.17 Q135.186 1120.04 133.357 1116.5 Q131.552 1112.93 127.917 1112.93 M127.917 1109.23 Q133.728 1109.23 136.783 1113.84 Q139.862 1118.42 139.862 1127.17 Q139.862 1135.9 136.783 1140.5 Q133.728 1145.09 127.917 1145.09 Q122.107 1145.09 119.029 1140.5 Q115.973 1135.9 115.973 1127.17 Q115.973 1118.42 119.029 1113.84 Q122.107 1109.23 127.917 1109.23 Z" fill="#000000" fill-rule="nonzero" fill-opacity="1" /><path clip-path="url(#clip860)" d="M148.079 1138.54 L152.964 1138.54 L152.964 1144.42 L148.079 1144.42 L148.079 1138.54 Z" fill="#000000" fill-rule="nonzero" fill-opacity="1" /><path clip-path="url(#clip860)" d="M163.959 1140.48 L171.598 1140.48 L171.598 1114.11 L163.288 1115.78 L163.288 1111.52 L171.552 1109.86 L176.227 1109.86 L176.227 1140.48 L183.866 1140.48 L183.866 1144.42 L163.959 1144.42 L163.959 1140.48 Z" fill="#000000" fill-rule="nonzero" fill-opacity="1" /><path clip-path="url(#clip860)" d="M128.288 816.889 Q124.677 816.889 122.848 820.454 Q121.043 823.996 121.043 831.125 Q121.043 838.232 122.848 841.797 Q124.677 845.338 128.288 845.338 Q131.922 845.338 133.728 841.797 Q135.556 838.232 135.556 831.125 Q135.556 823.996 133.728 820.454 Q131.922 816.889 128.288 816.889 M128.288 813.186 Q134.098 813.186 137.154 817.792 Q140.232 822.376 140.232 831.125 Q140.232 839.852 137.154 844.459 Q134.098 849.042 128.288 849.042 Q122.478 849.042 119.399 844.459 Q116.343 839.852 116.343 831.125 Q116.343 822.376 119.399 817.792 Q122.478 813.186 128.288 813.186 Z" fill="#000000" fill-rule="nonzero" fill-opacity="1" /><path clip-path="url(#clip860)" d="M148.45 842.491 L153.334 842.491 L153.334 848.371 L148.45 848.371 L148.45 842.491 Z" fill="#000000" fill-rule="nonzero" fill-opacity="1" /><path clip-path="url(#clip860)" d="M167.547 844.436 L183.866 844.436 L183.866 848.371 L161.922 848.371 L161.922 844.436 Q164.584 841.681 169.167 837.051 Q173.774 832.399 174.954 831.056 Q177.2 828.533 178.079 826.797 Q178.982 825.038 178.982 823.348 Q178.982 820.593 177.038 818.857 Q175.116 817.121 172.014 817.121 Q169.815 817.121 167.362 817.885 Q164.931 818.649 162.153 820.2 L162.153 815.477 Q164.977 814.343 167.431 813.764 Q169.885 813.186 171.922 813.186 Q177.292 813.186 180.487 815.871 Q183.681 818.556 183.681 823.047 Q183.681 825.176 182.871 827.098 Q182.084 828.996 179.977 831.588 Q179.399 832.26 176.297 835.477 Q173.195 838.672 167.547 844.436 Z" fill="#000000" fill-rule="nonzero" fill-opacity="1" /><path clip-path="url(#clip860)" d="M127.339 520.845 Q123.728 520.845 121.899 524.41 Q120.093 527.951 120.093 535.081 Q120.093 542.187 121.899 545.752 Q123.728 549.294 127.339 549.294 Q130.973 549.294 132.779 545.752 Q134.607 542.187 134.607 535.081 Q134.607 527.951 132.779 524.41 Q130.973 520.845 127.339 520.845 M127.339 517.141 Q133.149 517.141 136.204 521.748 Q139.283 526.331 139.283 535.081 Q139.283 543.808 136.204 548.414 Q133.149 552.998 127.339 552.998 Q121.529 552.998 118.45 548.414 Q115.394 543.808 115.394 535.081 Q115.394 526.331 118.45 521.748 Q121.529 517.141 127.339 517.141 Z" fill="#000000" fill-rule="nonzero" fill-opacity="1" /><path clip-path="url(#clip860)" d="M147.501 546.447 L152.385 546.447 L152.385 552.326 L147.501 552.326 L147.501 546.447 Z" fill="#000000" fill-rule="nonzero" fill-opacity="1" /><path clip-path="url(#clip860)" d="M176.737 533.692 Q180.093 534.41 181.968 536.678 Q183.866 538.947 183.866 542.28 Q183.866 547.396 180.348 550.197 Q176.829 552.998 170.348 552.998 Q168.172 552.998 165.857 552.558 Q163.565 552.141 161.112 551.285 L161.112 546.771 Q163.056 547.905 165.371 548.484 Q167.686 549.062 170.209 549.062 Q174.607 549.062 176.899 547.326 Q179.214 545.59 179.214 542.28 Q179.214 539.224 177.061 537.512 Q174.931 535.775 171.112 535.775 L167.084 535.775 L167.084 531.933 L171.297 531.933 Q174.746 531.933 176.575 530.567 Q178.403 529.178 178.403 526.586 Q178.403 523.924 176.505 522.512 Q174.63 521.076 171.112 521.076 Q169.19 521.076 166.991 521.493 Q164.792 521.91 162.153 522.789 L162.153 518.623 Q164.815 517.882 167.13 517.512 Q169.468 517.141 171.528 517.141 Q176.852 517.141 179.954 519.572 Q183.056 521.979 183.056 526.1 Q183.056 528.97 181.413 530.961 Q179.769 532.928 176.737 533.692 Z" fill="#000000" fill-rule="nonzero" fill-opacity="1" /><path clip-path="url(#clip860)" d="M126.205 224.8 Q122.593 224.8 120.765 228.365 Q118.959 231.907 118.959 239.036 Q118.959 246.143 120.765 249.708 Q122.593 253.249 126.205 253.249 Q129.839 253.249 131.644 249.708 Q133.473 246.143 133.473 239.036 Q133.473 231.907 131.644 228.365 Q129.839 224.8 126.205 224.8 M126.205 221.097 Q132.015 221.097 135.07 225.703 Q138.149 230.286 138.149 239.036 Q138.149 247.763 135.07 252.37 Q132.015 256.953 126.205 256.953 Q120.394 256.953 117.316 252.37 Q114.26 247.763 114.26 239.036 Q114.26 230.286 117.316 225.703 Q120.394 221.097 126.205 221.097 Z" fill="#000000" fill-rule="nonzero" fill-opacity="1" /><path clip-path="url(#clip860)" d="M146.366 250.402 L151.251 250.402 L151.251 256.282 L146.366 256.282 L146.366 250.402 Z" fill="#000000" fill-rule="nonzero" fill-opacity="1" /><path clip-path="url(#clip860)" d="M174.283 225.796 L162.477 244.245 L174.283 244.245 L174.283 225.796 M173.056 221.722 L178.936 221.722 L178.936 244.245 L183.866 244.245 L183.866 248.134 L178.936 248.134 L178.936 256.282 L174.283 256.282 L174.283 248.134 L158.681 248.134 L158.681 243.62 L173.056 221.722 Z" fill="#000000" fill-rule="nonzero" fill-opacity="1" /><path clip-path="url(#clip860)" d="M21.7677 886.636 L58.7206 886.636 L58.7206 878.869 Q58.7206 869.034 54.2646 864.483 Q49.8086 859.9 40.1964 859.9 Q30.6479 859.9 26.2237 864.483 Q21.7677 869.034 21.7677 878.869 L21.7677 886.636 M16.4842 893.065 L16.4842 879.856 Q16.4842 866.043 22.2451 859.581 Q27.9743 853.12 40.1964 853.12 Q52.4822 853.12 58.2432 859.613 Q64.0042 866.106 64.0042 879.856 L64.0042 893.065 L16.4842 893.065 Z" fill="#000000" fill-rule="nonzero" fill-opacity="1" /><path clip-path="url(#clip860)" d="M44.7161 812.634 L47.5806 812.634 L47.5806 839.561 Q53.6281 839.179 56.8109 835.933 Q59.9619 832.654 59.9619 826.83 Q59.9619 823.456 59.1344 820.305 Q58.3069 817.122 56.6518 814.003 L62.1899 814.003 Q63.5267 817.154 64.227 820.464 Q64.9272 823.774 64.9272 827.18 Q64.9272 835.71 59.9619 840.707 Q54.9967 845.672 46.5303 845.672 Q37.7774 845.672 32.6531 840.962 Q27.4968 836.219 27.4968 828.198 Q27.4968 821.005 32.1438 816.836 Q36.7589 812.634 44.7161 812.634 M42.9973 818.491 Q38.1912 818.554 35.3266 821.196 Q32.4621 823.806 32.4621 828.135 Q32.4621 833.036 35.2312 835.996 Q38.0002 838.925 43.0292 839.37 L42.9973 818.491 Z" fill="#000000" fill-rule="nonzero" fill-opacity="1" /><path clip-path="url(#clip860)" d="M42.4881 773.39 L64.0042 773.39 L64.0042 779.246 L42.679 779.246 Q37.6183 779.246 35.1038 781.219 Q32.5894 783.193 32.5894 787.14 Q32.5894 791.882 35.6131 794.619 Q38.6368 797.357 43.8567 797.357 L64.0042 797.357 L64.0042 803.245 L28.3562 803.245 L28.3562 797.357 L33.8944 797.357 Q30.6797 795.256 29.0883 792.423 Q27.4968 789.559 27.4968 785.835 Q27.4968 779.692 31.3163 776.541 Q35.1038 773.39 42.4881 773.39 Z" fill="#000000" fill-rule="nonzero" fill-opacity="1" /><path clip-path="url(#clip860)" d="M29.4065 738.983 L34.9447 738.983 Q33.6716 741.466 33.035 744.139 Q32.3984 746.813 32.3984 749.677 Q32.3984 754.038 33.7352 756.234 Q35.072 758.398 37.7456 758.398 Q39.7826 758.398 40.9603 756.839 Q42.1061 755.279 43.1565 750.569 L43.6021 748.563 Q44.9389 742.325 47.3897 739.715 Q49.8086 737.073 54.1691 737.073 Q59.1344 737.073 62.0308 741.02 Q64.9272 744.935 64.9272 751.81 Q64.9272 754.674 64.3543 757.794 Q63.8132 760.881 62.6992 764.319 L56.6518 764.319 Q58.3387 761.072 59.198 757.921 Q60.0256 754.77 60.0256 751.683 Q60.0256 747.545 58.6251 745.317 Q57.1929 743.089 54.6147 743.089 Q52.2276 743.089 50.9545 744.712 Q49.6813 746.304 48.5037 751.746 L48.0262 753.783 Q46.8804 759.226 44.5251 761.645 Q42.138 764.064 38.0002 764.064 Q32.9713 764.064 30.2341 760.499 Q27.4968 756.934 27.4968 750.378 Q27.4968 747.131 27.9743 744.267 Q28.4517 741.402 29.4065 738.983 Z" fill="#000000" fill-rule="nonzero" fill-opacity="1" /><path clip-path="url(#clip860)" d="M28.3562 727.748 L28.3562 721.891 L64.0042 721.891 L64.0042 727.748 L28.3562 727.748 M14.479 727.748 L14.479 721.891 L21.895 721.891 L21.895 727.748 L14.479 727.748 Z" fill="#000000" fill-rule="nonzero" fill-opacity="1" /><path clip-path="url(#clip860)" d="M18.2347 703.844 L28.3562 703.844 L28.3562 691.781 L32.9077 691.781 L32.9077 703.844 L52.2594 703.844 Q56.6199 703.844 57.8613 702.667 Q59.1026 701.457 59.1026 697.797 L59.1026 691.781 L64.0042 691.781 L64.0042 697.797 Q64.0042 704.576 61.4897 707.154 Q58.9434 709.733 52.2594 709.733 L32.9077 709.733 L32.9077 714.029 L28.3562 714.029 L28.3562 709.733 L18.2347 709.733 L18.2347 703.844 Z" fill="#000000" fill-rule="nonzero" fill-opacity="1" /><path clip-path="url(#clip860)" d="M67.3143 669.247 Q73.68 671.729 75.6216 674.085 Q77.5631 676.44 77.5631 680.387 L77.5631 685.065 L72.6615 685.065 L72.6615 681.628 Q72.6615 679.209 71.5157 677.872 Q70.3699 676.535 66.1048 674.912 L63.4312 673.862 L28.3562 688.28 L28.3562 682.074 L56.238 670.934 L28.3562 659.794 L28.3562 653.587 L67.3143 669.247 Z" fill="#000000" fill-rule="nonzero" fill-opacity="1" /><path clip-path="url(#clip860)" d="M614.732 18.8205 L614.732 41.5461 L625.021 41.5461 Q630.733 41.5461 633.852 38.5889 Q636.971 35.6318 636.971 30.163 Q636.971 24.7348 633.852 21.7777 Q630.733 18.8205 625.021 18.8205 L614.732 18.8205 M606.549 12.096 L625.021 12.096 Q635.189 12.096 640.374 16.714 Q645.6 21.2916 645.6 30.163 Q645.6 39.1155 640.374 43.6931 Q635.189 48.2706 625.021 48.2706 L614.732 48.2706 L614.732 72.576 L606.549 72.576 L606.549 12.096 Z" fill="#000000" fill-rule="nonzero" fill-opacity="1" /><path clip-path="url(#clip860)" d="M681.086 34.1734 Q679.83 33.4443 678.331 33.1202 Q676.873 32.7556 675.09 32.7556 Q668.771 32.7556 665.368 36.8875 Q662.006 40.9789 662.006 48.6757 L662.006 72.576 L654.512 72.576 L654.512 27.2059 L662.006 27.2059 L662.006 34.2544 Q664.356 30.1225 668.123 28.1376 Q671.89 26.1121 677.278 26.1121 Q678.048 26.1121 678.979 26.2337 Q679.911 26.3147 681.045 26.5172 L681.086 34.1734 Z" fill="#000000" fill-rule="nonzero" fill-opacity="1" /><path clip-path="url(#clip860)" d="M688.904 27.2059 L696.358 27.2059 L696.358 72.576 L688.904 72.576 L688.904 27.2059 M688.904 9.54393 L696.358 9.54393 L696.358 18.9825 L688.904 18.9825 L688.904 9.54393 Z" fill="#000000" fill-rule="nonzero" fill-opacity="1" /><path clip-path="url(#clip860)" d="M729.535 32.4315 Q723.539 32.4315 720.055 37.1306 Q716.572 41.7891 716.572 49.9314 Q716.572 58.0738 720.015 62.7728 Q723.499 67.4314 729.535 67.4314 Q735.489 67.4314 738.973 62.7323 Q742.457 58.0333 742.457 49.9314 Q742.457 41.8701 738.973 37.1711 Q735.489 32.4315 729.535 32.4315 M729.535 26.1121 Q739.257 26.1121 744.806 32.4315 Q750.356 38.7509 750.356 49.9314 Q750.356 61.0714 744.806 67.4314 Q739.257 73.7508 729.535 73.7508 Q719.772 73.7508 714.222 67.4314 Q708.713 61.0714 708.713 49.9314 Q708.713 38.7509 714.222 32.4315 Q719.772 26.1121 729.535 26.1121 Z" fill="#000000" fill-rule="nonzero" fill-opacity="1" /><path clip-path="url(#clip860)" d="M789.002 34.1734 Q787.746 33.4443 786.247 33.1202 Q784.789 32.7556 783.006 32.7556 Q776.687 32.7556 773.284 36.8875 Q769.922 40.9789 769.922 48.6757 L769.922 72.576 L762.428 72.576 L762.428 27.2059 L769.922 27.2059 L769.922 34.2544 Q772.272 30.1225 776.039 28.1376 Q779.806 26.1121 785.194 26.1121 Q785.964 26.1121 786.895 26.2337 Q787.827 26.3147 788.961 26.5172 L789.002 34.1734 Z" fill="#000000" fill-rule="nonzero" fill-opacity="1" /><path clip-path="url(#clip860)" d="M830.402 65.7705 L830.402 89.8329 L822.908 89.8329 L822.908 27.2059 L830.402 27.2059 L830.402 34.0924 Q832.752 30.0415 836.316 28.0971 Q839.922 26.1121 844.904 26.1121 Q853.168 26.1121 858.313 32.6746 Q863.498 39.2371 863.498 49.9314 Q863.498 60.6258 858.313 67.1883 Q853.168 73.7508 844.904 73.7508 Q839.922 73.7508 836.316 71.8063 Q832.752 69.8214 830.402 65.7705 M855.761 49.9314 Q855.761 41.7081 852.358 37.0496 Q848.996 32.3505 843.081 32.3505 Q837.167 32.3505 833.764 37.0496 Q830.402 41.7081 830.402 49.9314 Q830.402 58.1548 833.764 62.8538 Q837.167 67.5124 843.081 67.5124 Q848.996 67.5124 852.358 62.8538 Q855.761 58.1548 855.761 49.9314 Z" fill="#000000" fill-rule="nonzero" fill-opacity="1" /><path clip-path="url(#clip860)" d="M902.144 34.1734 Q900.888 33.4443 899.389 33.1202 Q897.931 32.7556 896.148 32.7556 Q889.829 32.7556 886.426 36.8875 Q883.064 40.9789 883.064 48.6757 L883.064 72.576 L875.57 72.576 L875.57 27.2059 L883.064 27.2059 L883.064 34.2544 Q885.413 30.1225 889.181 28.1376 Q892.948 26.1121 898.336 26.1121 Q899.105 26.1121 900.037 26.2337 Q900.969 26.3147 902.103 26.5172 L902.144 34.1734 Z" fill="#000000" fill-rule="nonzero" fill-opacity="1" /><path clip-path="url(#clip860)" d="M946.947 48.0275 L946.947 51.6733 L912.676 51.6733 Q913.162 59.3701 917.294 63.421 Q921.466 67.4314 928.88 67.4314 Q933.174 67.4314 937.184 66.3781 Q941.235 65.3249 945.205 63.2184 L945.205 70.267 Q941.194 71.9684 936.981 72.8596 Q932.768 73.7508 928.434 73.7508 Q917.578 73.7508 911.218 67.4314 Q904.898 61.1119 904.898 50.3365 Q904.898 39.1965 910.894 32.6746 Q916.929 26.1121 927.138 26.1121 Q936.293 26.1121 941.599 32.0264 Q946.947 37.9003 946.947 48.0275 M939.493 45.84 Q939.412 39.7232 936.05 36.0774 Q932.728 32.4315 927.219 32.4315 Q920.98 32.4315 917.213 35.9558 Q913.486 39.4801 912.919 45.8805 L939.493 45.84 Z" fill="#000000" fill-rule="nonzero" fill-opacity="1" /><path clip-path="url(#clip860)" d="M989.035 34.0924 L989.035 9.54393 L996.489 9.54393 L996.489 72.576 L989.035 72.576 L989.035 65.7705 Q986.686 69.8214 983.081 71.8063 Q979.516 73.7508 974.493 73.7508 Q966.269 73.7508 961.084 67.1883 Q955.94 60.6258 955.94 49.9314 Q955.94 39.2371 961.084 32.6746 Q966.269 26.1121 974.493 26.1121 Q979.516 26.1121 983.081 28.0971 Q986.686 30.0415 989.035 34.0924 M963.636 49.9314 Q963.636 58.1548 966.999 62.8538 Q970.401 67.5124 976.316 67.5124 Q982.23 67.5124 985.633 62.8538 Q989.035 58.1548 989.035 49.9314 Q989.035 41.7081 985.633 37.0496 Q982.23 32.3505 976.316 32.3505 Q970.401 32.3505 966.999 37.0496 Q963.636 41.7081 963.636 49.9314 Z" fill="#000000" fill-rule="nonzero" fill-opacity="1" /><path clip-path="url(#clip860)" d="M1011.84 27.2059 L1019.3 27.2059 L1019.3 72.576 L1011.84 72.576 L1011.84 27.2059 M1011.84 9.54393 L1019.3 9.54393 L1019.3 18.9825 L1011.84 18.9825 L1011.84 9.54393 Z" fill="#000000" fill-rule="nonzero" fill-opacity="1" /><path clip-path="url(#clip860)" d="M1067.54 28.9478 L1067.54 35.9153 Q1064.38 34.1734 1061.18 33.3227 Q1058.02 32.4315 1054.78 32.4315 Q1047.53 32.4315 1043.52 37.0496 Q1039.51 41.6271 1039.51 49.9314 Q1039.51 58.2358 1043.52 62.8538 Q1047.53 67.4314 1054.78 67.4314 Q1058.02 67.4314 1061.18 66.5807 Q1064.38 65.6895 1067.54 63.9476 L1067.54 70.8341 Q1064.42 72.2924 1061.06 73.0216 Q1057.74 73.7508 1053.97 73.7508 Q1043.72 73.7508 1037.69 67.3098 Q1031.65 60.8689 1031.65 49.9314 Q1031.65 38.832 1037.73 32.472 Q1043.84 26.1121 1054.46 26.1121 Q1057.9 26.1121 1061.18 26.8413 Q1064.46 27.5299 1067.54 28.9478 Z" fill="#000000" fill-rule="nonzero" fill-opacity="1" /><path clip-path="url(#clip860)" d="M1087.88 14.324 L1087.88 27.2059 L1103.23 27.2059 L1103.23 32.9987 L1087.88 32.9987 L1087.88 57.6282 Q1087.88 63.1779 1089.38 64.7578 Q1090.92 66.3376 1095.57 66.3376 L1103.23 66.3376 L1103.23 72.576 L1095.57 72.576 Q1086.95 72.576 1083.66 69.3758 Q1080.38 66.1351 1080.38 57.6282 L1080.38 32.9987 L1074.91 32.9987 L1074.91 27.2059 L1080.38 27.2059 L1080.38 14.324 L1087.88 14.324 Z" fill="#000000" fill-rule="nonzero" fill-opacity="1" /><path clip-path="url(#clip860)" d="M1113.03 27.2059 L1120.49 27.2059 L1120.49 72.576 L1113.03 72.576 L1113.03 27.2059 M1113.03 9.54393 L1120.49 9.54393 L1120.49 18.9825 L1113.03 18.9825 L1113.03 9.54393 Z" fill="#000000" fill-rule="nonzero" fill-opacity="1" /><path clip-path="url(#clip860)" d="M1130.74 27.2059 L1138.64 27.2059 L1152.81 65.2844 L1166.99 27.2059 L1174.89 27.2059 L1157.88 72.576 L1147.75 72.576 L1130.74 27.2059 Z" fill="#000000" fill-rule="nonzero" fill-opacity="1" /><path clip-path="url(#clip860)" d="M1223.99 48.0275 L1223.99 51.6733 L1189.72 51.6733 Q1190.2 59.3701 1194.34 63.421 Q1198.51 67.4314 1205.92 67.4314 Q1210.21 67.4314 1214.23 66.3781 Q1218.28 65.3249 1222.25 63.2184 L1222.25 70.267 Q1218.24 71.9684 1214.02 72.8596 Q1209.81 73.7508 1205.48 73.7508 Q1194.62 73.7508 1188.26 67.4314 Q1181.94 61.1119 1181.94 50.3365 Q1181.94 39.1965 1187.93 32.6746 Q1193.97 26.1121 1204.18 26.1121 Q1213.33 26.1121 1218.64 32.0264 Q1223.99 37.9003 1223.99 48.0275 M1216.53 45.84 Q1216.45 39.7232 1213.09 36.0774 Q1209.77 32.4315 1204.26 32.4315 Q1198.02 32.4315 1194.25 35.9558 Q1190.53 39.4801 1189.96 45.8805 L1216.53 45.84 Z" fill="#000000" fill-rule="nonzero" fill-opacity="1" /><path clip-path="url(#clip860)" d="M1295.24 28.9478 L1295.24 35.9153 Q1292.08 34.1734 1288.88 33.3227 Q1285.72 32.4315 1282.48 32.4315 Q1275.23 32.4315 1271.22 37.0496 Q1267.21 41.6271 1267.21 49.9314 Q1267.21 58.2358 1271.22 62.8538 Q1275.23 67.4314 1282.48 67.4314 Q1285.72 67.4314 1288.88 66.5807 Q1292.08 65.6895 1295.24 63.9476 L1295.24 70.8341 Q1292.12 72.2924 1288.76 73.0216 Q1285.44 73.7508 1281.67 73.7508 Q1271.42 73.7508 1265.39 67.3098 Q1259.35 60.8689 1259.35 49.9314 Q1259.35 38.832 1265.43 32.472 Q1271.55 26.1121 1282.16 26.1121 Q1285.6 26.1121 1288.88 26.8413 Q1292.16 27.5299 1295.24 28.9478 Z" fill="#000000" fill-rule="nonzero" fill-opacity="1" /><path clip-path="url(#clip860)" d="M1345.92 45.1919 L1345.92 72.576 L1338.47 72.576 L1338.47 45.4349 Q1338.47 38.994 1335.95 35.7938 Q1333.44 32.5936 1328.42 32.5936 Q1322.38 32.5936 1318.9 36.4419 Q1315.42 40.2903 1315.42 46.9338 L1315.42 72.576 L1307.92 72.576 L1307.92 9.54393 L1315.42 9.54393 L1315.42 34.2544 Q1318.09 30.163 1321.7 28.1376 Q1325.34 26.1121 1330.08 26.1121 Q1337.9 26.1121 1341.91 30.9732 Q1345.92 35.7938 1345.92 45.1919 Z" fill="#000000" fill-rule="nonzero" fill-opacity="1" /><path clip-path="url(#clip860)" d="M1399.59 48.0275 L1399.59 51.6733 L1365.32 51.6733 Q1365.81 59.3701 1369.94 63.421 Q1374.11 67.4314 1381.53 67.4314 Q1385.82 67.4314 1389.83 66.3781 Q1393.88 65.3249 1397.85 63.2184 L1397.85 70.267 Q1393.84 71.9684 1389.63 72.8596 Q1385.42 73.7508 1381.08 73.7508 Q1370.23 73.7508 1363.87 67.4314 Q1357.55 61.1119 1357.55 50.3365 Q1357.55 39.1965 1363.54 32.6746 Q1369.58 26.1121 1379.79 26.1121 Q1388.94 26.1121 1394.25 32.0264 Q1399.59 37.9003 1399.59 48.0275 M1392.14 45.84 Q1392.06 39.7232 1388.7 36.0774 Q1385.38 32.4315 1379.87 32.4315 Q1373.63 32.4315 1369.86 35.9558 Q1366.13 39.4801 1365.57 45.8805 L1392.14 45.84 Z" fill="#000000" fill-rule="nonzero" fill-opacity="1" /><path clip-path="url(#clip860)" d="M1444.48 28.9478 L1444.48 35.9153 Q1441.32 34.1734 1438.12 33.3227 Q1434.96 32.4315 1431.72 32.4315 Q1424.47 32.4315 1420.46 37.0496 Q1416.45 41.6271 1416.45 49.9314 Q1416.45 58.2358 1420.46 62.8538 Q1424.47 67.4314 1431.72 67.4314 Q1434.96 67.4314 1438.12 66.5807 Q1441.32 65.6895 1444.48 63.9476 L1444.48 70.8341 Q1441.36 72.2924 1438 73.0216 Q1434.68 73.7508 1430.91 73.7508 Q1420.66 73.7508 1414.62 67.3098 Q1408.59 60.8689 1408.59 49.9314 Q1408.59 38.832 1414.66 32.472 Q1420.78 26.1121 1431.39 26.1121 Q1434.84 26.1121 1438.12 26.8413 Q1441.4 27.5299 1444.48 28.9478 Z" fill="#000000" fill-rule="nonzero" fill-opacity="1" /><path clip-path="url(#clip860)" d="M1457.16 9.54393 L1464.65 9.54393 L1464.65 46.7717 L1486.89 27.2059 L1496.41 27.2059 L1472.35 48.4326 L1497.42 72.576 L1487.7 72.576 L1464.65 50.4176 L1464.65 72.576 L1457.16 72.576 L1457.16 9.54393 Z" fill="#000000" fill-rule="nonzero" fill-opacity="1" /><path clip-path="url(#clip860)" d="M1507.39 62.2867 L1515.94 62.2867 L1515.94 69.2543 L1509.29 82.2172 L1504.07 82.2172 L1507.39 69.2543 L1507.39 62.2867 Z" fill="#000000" fill-rule="nonzero" fill-opacity="1" /><path clip-path="url(#clip860)" d="M1553.89 27.2059 L1561.35 27.2059 L1570.66 62.6108 L1579.94 27.2059 L1588.73 27.2059 L1598.05 62.6108 L1607.32 27.2059 L1614.78 27.2059 L1602.91 72.576 L1594.12 72.576 L1584.36 35.3887 L1574.55 72.576 L1565.76 72.576 L1553.89 27.2059 Z" fill="#000000" fill-rule="nonzero" fill-opacity="1" /><path clip-path="url(#clip860)" d="M1626.08 27.2059 L1633.53 27.2059 L1633.53 72.576 L1626.08 72.576 L1626.08 27.2059 M1626.08 9.54393 L1633.53 9.54393 L1633.53 18.9825 L1626.08 18.9825 L1626.08 9.54393 Z" fill="#000000" fill-rule="nonzero" fill-opacity="1" /><path clip-path="url(#clip860)" d="M1678.99 34.0924 L1678.99 9.54393 L1686.44 9.54393 L1686.44 72.576 L1678.99 72.576 L1678.99 65.7705 Q1676.64 69.8214 1673.03 71.8063 Q1669.47 73.7508 1664.44 73.7508 Q1656.22 73.7508 1651.03 67.1883 Q1645.89 60.6258 1645.89 49.9314 Q1645.89 39.2371 1651.03 32.6746 Q1656.22 26.1121 1664.44 26.1121 Q1669.47 26.1121 1673.03 28.0971 Q1676.64 30.0415 1678.99 34.0924 M1653.59 49.9314 Q1653.59 58.1548 1656.95 62.8538 Q1660.35 67.5124 1666.27 67.5124 Q1672.18 67.5124 1675.58 62.8538 Q1678.99 58.1548 1678.99 49.9314 Q1678.99 41.7081 1675.58 37.0496 Q1672.18 32.3505 1666.27 32.3505 Q1660.35 32.3505 1656.95 37.0496 Q1653.59 41.7081 1653.59 49.9314 Z" fill="#000000" fill-rule="nonzero" fill-opacity="1" /><path clip-path="url(#clip860)" d="M1740.6 48.0275 L1740.6 51.6733 L1706.33 51.6733 Q1706.82 59.3701 1710.95 63.421 Q1715.12 67.4314 1722.53 67.4314 Q1726.83 67.4314 1730.84 66.3781 Q1734.89 65.3249 1738.86 63.2184 L1738.86 70.267 Q1734.85 71.9684 1730.63 72.8596 Q1726.42 73.7508 1722.09 73.7508 Q1711.23 73.7508 1704.87 67.4314 Q1698.55 61.1119 1698.55 50.3365 Q1698.55 39.1965 1704.55 32.6746 Q1710.58 26.1121 1720.79 26.1121 Q1729.95 26.1121 1735.25 32.0264 Q1740.6 37.9003 1740.6 48.0275 M1733.15 45.84 Q1733.07 39.7232 1729.7 36.0774 Q1726.38 32.4315 1720.87 32.4315 Q1714.63 32.4315 1710.87 35.9558 Q1707.14 39.4801 1706.57 45.8805 L1733.15 45.84 Z" fill="#000000" fill-rule="nonzero" fill-opacity="1" /><path clip-path="url(#clip860)" d="M1786.42 65.7705 L1786.42 89.8329 L1778.92 89.8329 L1778.92 27.2059 L1786.42 27.2059 L1786.42 34.0924 Q1788.76 30.0415 1792.33 28.0971 Q1795.94 26.1121 1800.92 26.1121 Q1809.18 26.1121 1814.33 32.6746 Q1819.51 39.2371 1819.51 49.9314 Q1819.51 60.6258 1814.33 67.1883 Q1809.18 73.7508 1800.92 73.7508 Q1795.94 73.7508 1792.33 71.8063 Q1788.76 69.8214 1786.42 65.7705 M1811.77 49.9314 Q1811.77 41.7081 1808.37 37.0496 Q1805.01 32.3505 1799.09 32.3505 Q1793.18 32.3505 1789.78 37.0496 Q1786.42 41.7081 1786.42 49.9314 Q1786.42 58.1548 1789.78 62.8538 Q1793.18 67.5124 1799.09 67.5124 Q1805.01 67.5124 1808.37 62.8538 Q1811.77 58.1548 1811.77 49.9314 Z" fill="#000000" fill-rule="nonzero" fill-opacity="1" /><path clip-path="url(#clip860)" d="M1858.16 34.1734 Q1856.9 33.4443 1855.4 33.1202 Q1853.94 32.7556 1852.16 32.7556 Q1845.84 32.7556 1842.44 36.8875 Q1839.08 40.9789 1839.08 48.6757 L1839.08 72.576 L1831.58 72.576 L1831.58 27.2059 L1839.08 27.2059 L1839.08 34.2544 Q1841.43 30.1225 1845.19 28.1376 Q1848.96 26.1121 1854.35 26.1121 Q1855.12 26.1121 1856.05 26.2337 Q1856.98 26.3147 1858.12 26.5172 L1858.16 34.1734 Z" fill="#000000" fill-rule="nonzero" fill-opacity="1" /><path clip-path="url(#clip860)" d="M1865.98 27.2059 L1873.43 27.2059 L1873.43 72.576 L1865.98 72.576 L1865.98 27.2059 M1865.98 9.54393 L1873.43 9.54393 L1873.43 18.9825 L1865.98 18.9825 L1865.98 9.54393 Z" fill="#000000" fill-rule="nonzero" fill-opacity="1" /><path clip-path="url(#clip860)" d="M1906.61 32.4315 Q1900.61 32.4315 1897.13 37.1306 Q1893.64 41.7891 1893.64 49.9314 Q1893.64 58.0738 1897.09 62.7728 Q1900.57 67.4314 1906.61 67.4314 Q1912.56 67.4314 1916.04 62.7323 Q1919.53 58.0333 1919.53 49.9314 Q1919.53 41.8701 1916.04 37.1711 Q1912.56 32.4315 1906.61 32.4315 M1906.61 26.1121 Q1916.33 26.1121 1921.88 32.4315 Q1927.43 38.7509 1927.43 49.9314 Q1927.43 61.0714 1921.88 67.4314 Q1916.33 73.7508 1906.61 73.7508 Q1896.84 73.7508 1891.29 67.4314 Q1885.78 61.0714 1885.78 49.9314 Q1885.78 38.7509 1891.29 32.4315 Q1896.84 26.1121 1906.61 26.1121 Z" fill="#000000" fill-rule="nonzero" fill-opacity="1" /><path clip-path="url(#clip860)" d="M1966.07 34.1734 Q1964.82 33.4443 1963.32 33.1202 Q1961.86 32.7556 1960.08 32.7556 Q1953.76 32.7556 1950.36 36.8875 Q1946.99 40.9789 1946.99 48.6757 L1946.99 72.576 L1939.5 72.576 L1939.5 27.2059 L1946.99 27.2059 L1946.99 34.2544 Q1949.34 30.1225 1953.11 28.1376 Q1956.88 26.1121 1962.27 26.1121 Q1963.03 26.1121 1963.97 26.2337 Q1964.9 26.3147 1966.03 26.5172 L1966.07 34.1734 Z" fill="#000000" fill-rule="nonzero" fill-opacity="1" /><path clip-path="url(#clip862)" d="M753.089 1154.99 L753.089 1423.18 L886.394 1423.18 L886.394 1154.99 L753.089 1154.99 L753.089 1154.99  Z" fill="#009af9" fill-rule="evenodd" fill-opacity="1"/>
<polyline clip-path="url(#clip862)" style="stroke:#000000; stroke-linecap:round; stroke-linejoin:round; stroke-width:4; stroke-opacity:1; fill:none" points="753.089,1154.99 753.089,1423.18 886.394,1423.18 886.394,1154.99 753.089,1154.99 "/>
<path clip-path="url(#clip862)" d="M886.394 735.504 L886.394 1423.18 L1019.7 1423.18 L1019.7 735.504 L886.394 735.504 L886.394 735.504  Z" fill="#009af9" fill-rule="evenodd" fill-opacity="1"/>
<polyline clip-path="url(#clip862)" style="stroke:#000000; stroke-linecap:round; stroke-linejoin:round; stroke-width:4; stroke-opacity:1; fill:none" points="886.394,735.504 886.394,1423.18 1019.7,1423.18 1019.7,735.504 886.394,735.504 "/>
<path clip-path="url(#clip862)" d="M1019.7 556.708 L1019.7 1423.18 L1153.01 1423.18 L1153.01 556.708 L1019.7 556.708 L1019.7 556.708  Z" fill="#009af9" fill-rule="evenodd" fill-opacity="1"/>
<polyline clip-path="url(#clip862)" style="stroke:#000000; stroke-linecap:round; stroke-linejoin:round; stroke-width:4; stroke-opacity:1; fill:none" points="1019.7,556.708 1019.7,1423.18 1153.01,1423.18 1153.01,556.708 1019.7,556.708 "/>
<path clip-path="url(#clip862)" d="M1153.01 123.472 L1153.01 1423.18 L1286.31 1423.18 L1286.31 123.472 L1153.01 123.472 L1153.01 123.472  Z" fill="#009af9" fill-rule="evenodd" fill-opacity="1"/>
<polyline clip-path="url(#clip862)" style="stroke:#000000; stroke-linecap:round; stroke-linejoin:round; stroke-width:4; stroke-opacity:1; fill:none" points="1153.01,123.472 1153.01,1423.18 1286.31,1423.18 1286.31,123.472 1153.01,123.472 "/>
<path clip-path="url(#clip862)" d="M1286.31 309.145 L1286.31 1423.18 L1419.62 1423.18 L1419.62 309.145 L1286.31 309.145 L1286.31 309.145  Z" fill="#009af9" fill-rule="evenodd" fill-opacity="1"/>
<polyline clip-path="url(#clip862)" style="stroke:#000000; stroke-linecap:round; stroke-linejoin:round; stroke-width:4; stroke-opacity:1; fill:none" points="1286.31,309.145 1286.31,1423.18 1419.62,1423.18 1419.62,309.145 1286.31,309.145 "/>
<path clip-path="url(#clip862)" d="M1419.62 646.106 L1419.62 1423.18 L1552.92 1423.18 L1552.92 646.106 L1419.62 646.106 L1419.62 646.106  Z" fill="#009af9" fill-rule="evenodd" fill-opacity="1"/>
<polyline clip-path="url(#clip862)" style="stroke:#000000; stroke-linecap:round; stroke-linejoin:round; stroke-width:4; stroke-opacity:1; fill:none" points="1419.62,646.106 1419.62,1423.18 1552.92,1423.18 1552.92,646.106 1419.62,646.106 "/>
<path clip-path="url(#clip862)" d="M1552.92 969.314 L1552.92 1423.18 L1686.23 1423.18 L1686.23 969.314 L1552.92 969.314 L1552.92 969.314  Z" fill="#009af9" fill-rule="evenodd" fill-opacity="1"/>
<polyline clip-path="url(#clip862)" style="stroke:#000000; stroke-linecap:round; stroke-linejoin:round; stroke-width:4; stroke-opacity:1; fill:none" points="1552.92,969.314 1552.92,1423.18 1686.23,1423.18 1686.23,969.314 1552.92,969.314 "/>
<path clip-path="url(#clip862)" d="M1686.23 1203.12 L1686.23 1423.18 L1819.53 1423.18 L1819.53 1203.12 L1686.23 1203.12 L1686.23 1203.12  Z" fill="#009af9" fill-rule="evenodd" fill-opacity="1"/>
<polyline clip-path="url(#clip862)" style="stroke:#000000; stroke-linecap:round; stroke-linejoin:round; stroke-width:4; stroke-opacity:1; fill:none" points="1686.23,1203.12 1686.23,1423.18 1819.53,1423.18 1819.53,1203.12 1686.23,1203.12 "/>
<path clip-path="url(#clip862)" d="M1819.53 1299.4 L1819.53 1423.18 L1952.84 1423.18 L1952.84 1299.4 L1819.53 1299.4 L1819.53 1299.4  Z" fill="#009af9" fill-rule="evenodd" fill-opacity="1"/>
<polyline clip-path="url(#clip862)" style="stroke:#000000; stroke-linecap:round; stroke-linejoin:round; stroke-width:4; stroke-opacity:1; fill:none" points="1819.53,1299.4 1819.53,1423.18 1952.84,1423.18 1952.84,1299.4 1819.53,1299.4 "/>
<path clip-path="url(#clip862)" d="M1952.84 1333.78 L1952.84 1423.18 L2086.14 1423.18 L2086.14 1333.78 L1952.84 1333.78 L1952.84 1333.78  Z" fill="#009af9" fill-rule="evenodd" fill-opacity="1"/>
<polyline clip-path="url(#clip862)" style="stroke:#000000; stroke-linecap:round; stroke-linejoin:round; stroke-width:4; stroke-opacity:1; fill:none" points="1952.84,1333.78 1952.84,1423.18 2086.14,1423.18 2086.14,1333.78 1952.84,1333.78 "/>
<path clip-path="url(#clip862)" d="M2086.14 1402.55 L2086.14 1423.18 L2219.45 1423.18 L2219.45 1402.55 L2086.14 1402.55 L2086.14 1402.55  Z" fill="#009af9" fill-rule="evenodd" fill-opacity="1"/>
<polyline clip-path="url(#clip862)" style="stroke:#000000; stroke-linecap:round; stroke-linejoin:round; stroke-width:4; stroke-opacity:1; fill:none" points="2086.14,1402.55 2086.14,1423.18 2219.45,1423.18 2219.45,1402.55 2086.14,1402.55 "/>
<circle clip-path="url(#clip862)" style="fill:#009af9; stroke:none; fill-opacity:0" cx="819.741" cy="1154.99" r="2"/>
<circle clip-path="url(#clip862)" style="fill:#009af9; stroke:none; fill-opacity:0" cx="953.047" cy="735.504" r="2"/>
<circle clip-path="url(#clip862)" style="fill:#009af9; stroke:none; fill-opacity:0" cx="1086.35" cy="556.708" r="2"/>
<circle clip-path="url(#clip862)" style="fill:#009af9; stroke:none; fill-opacity:0" cx="1219.66" cy="123.472" r="2"/>
<circle clip-path="url(#clip862)" style="fill:#009af9; stroke:none; fill-opacity:0" cx="1352.96" cy="309.145" r="2"/>
<circle clip-path="url(#clip862)" style="fill:#009af9; stroke:none; fill-opacity:0" cx="1486.27" cy="646.106" r="2"/>
<circle clip-path="url(#clip862)" style="fill:#009af9; stroke:none; fill-opacity:0" cx="1619.58" cy="969.314" r="2"/>
<circle clip-path="url(#clip862)" style="fill:#009af9; stroke:none; fill-opacity:0" cx="1752.88" cy="1203.12" r="2"/>
<circle clip-path="url(#clip862)" style="fill:#009af9; stroke:none; fill-opacity:0" cx="1886.19" cy="1299.4" r="2"/>
<circle clip-path="url(#clip862)" style="fill:#009af9; stroke:none; fill-opacity:0" cx="2019.49" cy="1333.78" r="2"/>
<circle clip-path="url(#clip862)" style="fill:#009af9; stroke:none; fill-opacity:0" cx="2152.8" cy="1402.55" r="2"/>
<polyline clip-path="url(#clip862)" style="stroke:#ffffff; stroke-linecap:round; stroke-linejoin:round; stroke-width:12; stroke-opacity:1; fill:none" points="-122129,1423.18 -120742,1423.18 -119355,1423.18 -117968,1423.18 -116582,1423.18 -115195,1423.18 -113808,1423.18 -112421,1423.18 -111035,1423.18 -109648,1423.18 -108261,1423.18 -106874,1423.18 -105488,1423.18 -104101,1423.18 -102714,1423.18 -101327,1423.18 -99940.6,1423.18 -98553.8,1423.18 -97167.1,1423.18 -95780.3,1423.18 -94393.5,1423.18 -93006.8,1423.18 -91620,1423.18 -90233.3,1423.18 -88846.5,1423.18 -87459.8,1423.18 -86073,1423.18 -84686.3,1423.18 -83299.5,1423.18 -81912.7,1423.18 -80526,1423.18 -79139.2,1423.18 -77752.5,1423.18 -76365.7,1423.18 -74979,1423.18 -73592.2,1423.18 -72205.5,1423.18 -70818.7,1423.18 -69431.9,1423.18 -68045.2,1423.18 -66658.4,1423.18 -65271.7,1423.18 -63884.9,1423.18 -62498.2,1423.18 -61111.4,1423.18 -59724.7,1423.18 -58337.9,1423.18 -56951.1,1423.18 -55564.4,1423.18 -54177.6,1423.17 -52790.9,1423.18 -51404.1,1423.17 -50017.4,1423.18 -48630.6,1423.17 -47243.9,1423.18 -45857.1,1423.18 -44470.3,1423.17 -43083.6,1423.17 -41696.8,1423.17 -40310.1,1423.17 -38923.3,1423.17 -37536.6,1423.17 -36149.8,1423.17 -34763.1,1423.17 -33376.3,1423.16 -31989.5,1423.16 -30602.8,1423.16 -29216,1423.15 -27829.3,1423.15 -26442.5,1423.14 -25055.8,1423.13 -23669,1423.11 -22282.3,1423.09 -20895.5,1423.07 -19508.7,1423.02 -18122,1422.96 -16735.2,1422.88 -15348.5,1422.71 -13961.7,1422.42 -12575,1421.92 -11188.2,1421.08 -9801.46,1419.6 -8414.7,1417.17 -7027.95,1413.09 -5641.19,1406.67 -4254.43,1396.77 -2867.68,1382.7 -1480.92,1364.8 -94.1678,1346.79 1292.59,1338.57 2679.34,1347.31 4066.1,1365.34 5452.85,1383.35 6839.61,1397.16 8226.37,1406.75 9613.12,1413.26 10999.9,1417.34 12386.6,1419.68 13773.4,1421.14 15160.1,1421.99 16546.9,1422.47 17933.7,1422.71 19320.4,1422.9 20707.2,1422.99 22093.9,1423.03 23480.7,1423.07 24867.4,1423.1 26254.2,1423.13 27640.9,1423.13 29027.7,1423.14 30414.5,1423.15 31801.2,1423.15 33188,1423.16 34574.7,1423.16 35961.5,1423.17 37348.2,1423.17 38735,1423.17 40121.7,1423.17 41508.5,1423.17 42895.3,1423.17 44282,1423.17 45668.8,1423.17 47055.5,1423.17 48442.3,1423.17 49829,1423.18 51215.8,1423.17 52602.5,1423.18 53989.3,1423.18 55376.1,1423.18 56762.8,1423.18 58149.6,1423.18 59536.3,1423.18 60923.1,1423.18 62309.8,1423.18 63696.6,1423.18 65083.3,1423.18 66470.1,1423.18 67856.9,1423.18 69243.6,1423.18 70630.4,1423.18 72017.1,1423.18 73403.9,1423.18 74790.6,1423.18 76177.4,1423.18 77564.1,1423.18 78950.9,1423.18 80337.7,1423.18 81724.4,1423.18 83111.2,1423.18 84497.9,1423.18 85884.7,1423.18 87271.4,1423.18 88658.2,1423.18 90044.9,1423.18 91431.7,1423.18 92818.5,1423.18 94205.2,1423.18 95592,1423.18 96978.7,1423.18 98365.5,1423.18 99752.2,1423.18 101139,1423.18 102526,1423.18 103912,1423.18 105299,1423.18 106686,1423.18 108073,1423.18 109460,1423.18 110846,1423.18 112233,1423.18 113620,1423.18 115007,1423.18 116393,1423.18 117780,1423.18 119167,1423.18 120554,1423.18 121940,1423.18 123327,1423.18 124714,1423.18 126101,1423.18 127487,1423.18 128874,1423.18 130261,1423.18 131648,1423.18 133034,1423.18 134421,1423.18 135808,1423.18 137195,1423.18 138581,1423.18 139968,1423.18 141355,1423.18 142742,1423.18 144128,1423.18 145515,1423.18 146902,1423.18 148289,1423.18 149675,1423.18 151062,1423.18 152449,1423.18 153836,1423.18 "/>
<path clip-path="url(#clip862)" d="M-122129 1423.18 L-120742 1423.18 L-119355 1423.18 L-117968 1423.18 L-116582 1423.18 L-115195 1423.18 L-113808 1423.18 L-112421 1423.18 L-111035 1423.18 L-109648 1423.18 L-108261 1423.18 L-106874 1423.18 L-105488 1423.18 L-104101 1423.18 L-102714 1423.18 L-101327 1423.18 L-99940.6 1423.18 L-98553.8 1423.18 L-97167.1 1423.18 L-95780.3 1423.18 L-94393.5 1423.18 L-93006.8 1423.18 L-91620 1423.18 L-90233.3 1423.18 L-88846.5 1423.18 L-87459.8 1423.18 L-86073 1423.18 L-84686.3 1423.18 L-83299.5 1423.18 L-81912.7 1423.18 L-80526 1423.18 L-79139.2 1423.18 L-77752.5 1423.18 L-76365.7 1423.18 L-74979 1423.18 L-73592.2 1423.18 L-72205.5 1423.18 L-70818.7 1423.18 L-69431.9 1423.18 L-68045.2 1423.18 L-66658.4 1423.18 L-65271.7 1423.18 L-63884.9 1423.18 L-62498.2 1423.18 L-61111.4 1423.18 L-59724.7 1423.18 L-58337.9 1423.18 L-56951.1 1423.18 L-55564.4 1423.18 L-54177.6 1423.17 L-52790.9 1423.18 L-51404.1 1423.17 L-50017.4 1423.18 L-48630.6 1423.17 L-47243.9 1423.18 L-45857.1 1423.18 L-44470.3 1423.17 L-43083.6 1423.17 L-41696.8 1423.17 L-40310.1 1423.17 L-38923.3 1423.17 L-37536.6 1423.17 L-36149.8 1423.17 L-34763.1 1423.17 L-33376.3 1423.16 L-31989.5 1423.16 L-30602.8 1423.16 L-29216 1423.15 L-27829.3 1423.15 L-26442.5 1423.14 L-25055.8 1423.13 L-23669 1423.11 L-22282.3 1423.09 L-20895.5 1423.07 L-19508.7 1423.02 L-18122 1422.96 L-16735.2 1422.88 L-15348.5 1422.71 L-13961.7 1422.42 L-12575 1421.92 L-11188.2 1421.08 L-9801.46 1419.6 L-8414.7 1417.17 L-7027.95 1413.09 L-5641.19 1406.67 L-4254.43 1396.77 L-2867.68 1382.7 L-1480.92 1364.8 L-94.1678 1346.79 L1292.59 1338.57 L2679.34 1347.31 L4066.1 1365.34 L5452.85 1383.35 L6839.61 1397.16 L8226.37 1406.75 L9613.12 1413.26 L10999.9 1417.34 L12386.6 1419.68 L13773.4 1421.14 L15160.1 1421.99 L16546.9 1422.47 L17933.7 1422.71 L19320.4 1422.9 L20707.2 1422.99 L22093.9 1423.03 L23480.7 1423.07 L24867.4 1423.1 L26254.2 1423.13 L27640.9 1423.13 L29027.7 1423.14 L30414.5 1423.15 L31801.2 1423.15 L33188 1423.16 L34574.7 1423.16 L35961.5 1423.17 L37348.2 1423.17 L38735 1423.17 L40121.7 1423.17 L41508.5 1423.17 L42895.3 1423.17 L44282 1423.17 L45668.8 1423.17 L47055.5 1423.17 L48442.3 1423.17 L49829 1423.18 L51215.8 1423.17 L52602.5 1423.18 L53989.3 1423.18 L55376.1 1423.18 L56762.8 1423.18 L58149.6 1423.18 L59536.3 1423.18 L60923.1 1423.18 L62309.8 1423.18 L63696.6 1423.18 L65083.3 1423.18 L66470.1 1423.18 L67856.9 1423.18 L69243.6 1423.18 L70630.4 1423.18 L72017.1 1423.18 L73403.9 1423.18 L74790.6 1423.18 L76177.4 1423.18 L77564.1 1423.18 L78950.9 1423.18 L80337.7 1423.18 L81724.4 1423.18 L83111.2 1423.18 L84497.9 1423.18 L85884.7 1423.18 L87271.4 1423.18 L88658.2 1423.18 L90044.9 1423.18 L91431.7 1423.18 L92818.5 1423.18 L94205.2 1423.18 L95592 1423.18 L96978.7 1423.18 L98365.5 1423.18 L99752.2 1423.18 L101139 1423.18 L102526 1423.18 L103912 1423.18 L105299 1423.18 L106686 1423.18 L108073 1423.18 L109460 1423.18 L110846 1423.18 L112233 1423.18 L113620 1423.18 L115007 1423.18 L116393 1423.18 L117780 1423.18 L119167 1423.18 L120554 1423.18 L121940 1423.18 L123327 1423.18 L124714 1423.18 L126101 1423.18 L127487 1423.18 L128874 1423.18 L130261 1423.18 L131648 1423.18 L133034 1423.18 L134421 1423.18 L135808 1423.18 L137195 1423.18 L138581 1423.18 L139968 1423.18 L141355 1423.18 L142742 1423.18 L144128 1423.18 L145515 1423.18 L146902 1423.18 L148289 1423.18 L149675 1423.18 L151062 1423.18 L152449 1423.18 L153836 1423.18 L153836 1423.18 L152449 1423.18 L151062 1423.18 L149675 1423.18 L148289 1423.18 L146902 1423.18 L145515 1423.18 L144128 1423.18 L142742 1423.18 L141355 1423.18 L139968 1423.18 L138581 1423.18 L137195 1423.18 L135808 1423.18 L134421 1423.18 L133034 1423.18 L131648 1423.18 L130261 1423.18 L128874 1423.18 L127487 1423.18 L126101 1423.18 L124714 1423.18 L123327 1423.18 L121940 1423.18 L120554 1423.18 L119167 1423.18 L117780 1423.18 L116393 1423.18 L115007 1423.18 L113620 1423.18 L112233 1423.18 L110846 1423.18 L109460 1423.18 L108073 1423.18 L106686 1423.18 L105299 1423.18 L103912 1423.18 L102526 1423.18 L101139 1423.18 L99752.2 1423.18 L98365.5 1423.18 L96978.7 1423.18 L95592 1423.18 L94205.2 1423.18 L92818.5 1423.18 L91431.7 1423.18 L90044.9 1423.18 L88658.2 1423.18 L87271.4 1423.18 L85884.7 1423.18 L84497.9 1423.18 L83111.2 1423.18 L81724.4 1423.18 L80337.7 1423.18 L78950.9 1423.18 L77564.1 1423.18 L76177.4 1423.18 L74790.6 1423.18 L73403.9 1423.18 L72017.1 1423.18 L70630.4 1423.18 L69243.6 1423.18 L67856.9 1423.18 L66470.1 1423.18 L65083.3 1423.18 L63696.6 1423.18 L62309.8 1423.18 L60923.1 1423.18 L59536.3 1423.18 L58149.6 1423.18 L56762.8 1423.18 L55376.1 1423.18 L53989.3 1423.18 L52602.5 1423.18 L51215.8 1423.18 L49829 1423.18 L48442.3 1423.18 L47055.5 1423.18 L45668.8 1423.18 L44282 1423.18 L42895.3 1423.18 L41508.5 1423.18 L40121.7 1423.18 L38735 1423.18 L37348.2 1423.18 L35961.5 1423.18 L34574.7 1423.18 L33188 1423.18 L31801.2 1423.18 L30414.5 1423.18 L29027.7 1423.18 L27640.9 1423.18 L26254.2 1423.18 L24867.4 1423.18 L23480.7 1423.18 L22093.9 1423.18 L20707.2 1423.18 L19320.4 1423.18 L17933.7 1423.18 L16546.9 1423.18 L15160.1 1423.18 L13773.4 1423.18 L12386.6 1423.18 L10999.9 1423.18 L9613.12 1423.18 L8226.37 1423.18 L6839.61 1423.18 L5452.85 1423.18 L4066.1 1423.18 L2679.34 1423.18 L1292.59 1423.18 L-94.1678 1423.18 L-1480.92 1423.18 L-2867.68 1423.18 L-4254.43 1423.18 L-5641.19 1423.18 L-7027.95 1423.18 L-8414.7 1423.18 L-9801.46 1423.18 L-11188.2 1423.18 L-12575 1423.18 L-13961.7 1423.18 L-15348.5 1423.18 L-16735.2 1423.18 L-18122 1423.18 L-19508.7 1423.18 L-20895.5 1423.18 L-22282.3 1423.18 L-23669 1423.18 L-25055.8 1423.18 L-26442.5 1423.18 L-27829.3 1423.18 L-29216 1423.18 L-30602.8 1423.18 L-31989.5 1423.18 L-33376.3 1423.18 L-34763.1 1423.18 L-36149.8 1423.18 L-37536.6 1423.18 L-38923.3 1423.18 L-40310.1 1423.18 L-41696.8 1423.18 L-43083.6 1423.18 L-44470.3 1423.18 L-45857.1 1423.18 L-47243.9 1423.18 L-48630.6 1423.18 L-50017.4 1423.18 L-51404.1 1423.18 L-52790.9 1423.18 L-54177.6 1423.18 L-55564.4 1423.18 L-56951.1 1423.18 L-58337.9 1423.18 L-59724.7 1423.18 L-61111.4 1423.18 L-62498.2 1423.18 L-63884.9 1423.18 L-65271.7 1423.18 L-66658.4 1423.18 L-68045.2 1423.18 L-69431.9 1423.18 L-70818.7 1423.18 L-72205.5 1423.18 L-73592.2 1423.18 L-74979 1423.18 L-76365.7 1423.18 L-77752.5 1423.18 L-79139.2 1423.18 L-80526 1423.18 L-81912.7 1423.18 L-83299.5 1423.18 L-84686.3 1423.18 L-86073 1423.18 L-87459.8 1423.18 L-88846.5 1423.18 L-90233.3 1423.18 L-91620 1423.18 L-93006.8 1423.18 L-94393.5 1423.18 L-95780.3 1423.18 L-97167.1 1423.18 L-98553.8 1423.18 L-99940.6 1423.18 L-101327 1423.18 L-102714 1423.18 L-104101 1423.18 L-105488 1423.18 L-106874 1423.18 L-108261 1423.18 L-109648 1423.18 L-111035 1423.18 L-112421 1423.18 L-113808 1423.18 L-115195 1423.18 L-116582 1423.18 L-117968 1423.18 L-119355 1423.18 L-120742 1423.18 L-122129 1423.18  Z" fill="#e26f46" fill-rule="evenodd" fill-opacity="0.2"/>
<polyline clip-path="url(#clip862)" style="stroke:#e26f46; stroke-linecap:round; stroke-linejoin:round; stroke-width:4; stroke-opacity:1; fill:none" points="-122129,1423.18 -120742,1423.18 -119355,1423.18 -117968,1423.18 -116582,1423.18 -115195,1423.18 -113808,1423.18 -112421,1423.18 -111035,1423.18 -109648,1423.18 -108261,1423.18 -106874,1423.18 -105488,1423.18 -104101,1423.18 -102714,1423.18 -101327,1423.18 -99940.6,1423.18 -98553.8,1423.18 -97167.1,1423.18 -95780.3,1423.18 -94393.5,1423.18 -93006.8,1423.18 -91620,1423.18 -90233.3,1423.18 -88846.5,1423.18 -87459.8,1423.18 -86073,1423.18 -84686.3,1423.18 -83299.5,1423.18 -81912.7,1423.18 -80526,1423.18 -79139.2,1423.18 -77752.5,1423.18 -76365.7,1423.18 -74979,1423.18 -73592.2,1423.18 -72205.5,1423.18 -70818.7,1423.18 -69431.9,1423.18 -68045.2,1423.18 -66658.4,1423.18 -65271.7,1423.18 -63884.9,1423.18 -62498.2,1423.18 -61111.4,1423.18 -59724.7,1423.18 -58337.9,1423.18 -56951.1,1423.18 -55564.4,1423.18 -54177.6,1423.17 -52790.9,1423.18 -51404.1,1423.17 -50017.4,1423.18 -48630.6,1423.17 -47243.9,1423.18 -45857.1,1423.18 -44470.3,1423.17 -43083.6,1423.17 -41696.8,1423.17 -40310.1,1423.17 -38923.3,1423.17 -37536.6,1423.17 -36149.8,1423.17 -34763.1,1423.17 -33376.3,1423.16 -31989.5,1423.16 -30602.8,1423.16 -29216,1423.15 -27829.3,1423.15 -26442.5,1423.14 -25055.8,1423.13 -23669,1423.11 -22282.3,1423.09 -20895.5,1423.07 -19508.7,1423.02 -18122,1422.96 -16735.2,1422.88 -15348.5,1422.71 -13961.7,1422.42 -12575,1421.92 -11188.2,1421.08 -9801.46,1419.6 -8414.7,1417.17 -7027.95,1413.09 -5641.19,1406.67 -4254.43,1396.77 -2867.68,1382.7 -1480.92,1364.8 -94.1678,1346.79 1292.59,1338.57 2679.34,1347.31 4066.1,1365.34 5452.85,1383.35 6839.61,1397.16 8226.37,1406.75 9613.12,1413.26 10999.9,1417.34 12386.6,1419.68 13773.4,1421.14 15160.1,1421.99 16546.9,1422.47 17933.7,1422.71 19320.4,1422.9 20707.2,1422.99 22093.9,1423.03 23480.7,1423.07 24867.4,1423.1 26254.2,1423.13 27640.9,1423.13 29027.7,1423.14 30414.5,1423.15 31801.2,1423.15 33188,1423.16 34574.7,1423.16 35961.5,1423.17 37348.2,1423.17 38735,1423.17 40121.7,1423.17 41508.5,1423.17 42895.3,1423.17 44282,1423.17 45668.8,1423.17 47055.5,1423.17 48442.3,1423.17 49829,1423.18 51215.8,1423.17 52602.5,1423.18 53989.3,1423.18 55376.1,1423.18 56762.8,1423.18 58149.6,1423.18 59536.3,1423.18 60923.1,1423.18 62309.8,1423.18 63696.6,1423.18 65083.3,1423.18 66470.1,1423.18 67856.9,1423.18 69243.6,1423.18 70630.4,1423.18 72017.1,1423.18 73403.9,1423.18 74790.6,1423.18 76177.4,1423.18 77564.1,1423.18 78950.9,1423.18 80337.7,1423.18 81724.4,1423.18 83111.2,1423.18 84497.9,1423.18 85884.7,1423.18 87271.4,1423.18 88658.2,1423.18 90044.9,1423.18 91431.7,1423.18 92818.5,1423.18 94205.2,1423.18 95592,1423.18 96978.7,1423.18 98365.5,1423.18 99752.2,1423.18 101139,1423.18 102526,1423.18 103912,1423.18 105299,1423.18 106686,1423.18 108073,1423.18 109460,1423.18 110846,1423.18 112233,1423.18 113620,1423.18 115007,1423.18 116393,1423.18 117780,1423.18 119167,1423.18 120554,1423.18 121940,1423.18 123327,1423.18 124714,1423.18 126101,1423.18 127487,1423.18 128874,1423.18 130261,1423.18 131648,1423.18 133034,1423.18 134421,1423.18 135808,1423.18 137195,1423.18 138581,1423.18 139968,1423.18 141355,1423.18 142742,1423.18 144128,1423.18 145515,1423.18 146902,1423.18 148289,1423.18 149675,1423.18 151062,1423.18 152449,1423.18 153836,1423.18 "/>
</svg>
