<?xml version="1.0" encoding="utf-8"?>
<svg xmlns="http://www.w3.org/2000/svg" xmlns:xlink="http://www.w3.org/1999/xlink" width="600" height="400" viewBox="0 0 2400 1600">
<defs>
  <clipPath id="clip250">
    <rect x="0" y="0" width="2400" height="1600"/>
  </clipPath>
</defs>
<path clip-path="url(#clip250)" d="M0 1600 L2400 1600 L2400 0 L0 0  Z" fill="#ffffff" fill-rule="evenodd" fill-opacity="1"/>
<defs>
  <clipPath id="clip251">
    <rect x="480" y="0" width="1681" height="1600"/>
  </clipPath>
</defs>
<path clip-path="url(#clip250)" d="M219.866 1423.18 L2352.76 1423.18 L2352.76 123.472 L219.866 123.472  Z" fill="#ffffff" fill-rule="evenodd" fill-opacity="1"/>
<defs>
  <clipPath id="clip252">
    <rect x="219" y="123" width="2134" height="1301"/>
  </clipPath>
</defs>
<polyline clip-path="url(#clip252)" style="stroke:#000000; stroke-linecap:round; stroke-linejoin:round; stroke-width:2; stroke-opacity:0.1; fill:none" points="219.866,1423.18 219.866,123.472 "/>
<polyline clip-path="url(#clip252)" style="stroke:#000000; stroke-linecap:round; stroke-linejoin:round; stroke-width:2; stroke-opacity:0.1; fill:none" points="753.089,1423.18 753.089,123.472 "/>
<polyline clip-path="url(#clip252)" style="stroke:#000000; stroke-linecap:round; stroke-linejoin:round; stroke-width:2; stroke-opacity:0.1; fill:none" points="1286.31,1423.18 1286.31,123.472 "/>
<polyline clip-path="url(#clip252)" style="stroke:#000000; stroke-linecap:round; stroke-linejoin:round; stroke-width:2; stroke-opacity:0.1; fill:none" points="1819.53,1423.18 1819.53,123.472 "/>
<polyline clip-path="url(#clip252)" style="stroke:#000000; stroke-linecap:round; stroke-linejoin:round; stroke-width:2; stroke-opacity:0.1; fill:none" points="2352.76,1423.18 2352.76,123.472 "/>
<polyline clip-path="url(#clip250)" style="stroke:#000000; stroke-linecap:round; stroke-linejoin:round; stroke-width:4; stroke-opacity:1; fill:none" points="219.866,1423.18 2352.76,1423.18 "/>
<polyline clip-path="url(#clip250)" style="stroke:#000000; stroke-linecap:round; stroke-linejoin:round; stroke-width:4; stroke-opacity:1; fill:none" points="219.866,1423.18 219.866,1404.28 "/>
<polyline clip-path="url(#clip250)" style="stroke:#000000; stroke-linecap:round; stroke-linejoin:round; stroke-width:4; stroke-opacity:1; fill:none" points="753.089,1423.18 753.089,1404.28 "/>
<polyline clip-path="url(#clip250)" style="stroke:#000000; stroke-linecap:round; stroke-linejoin:round; stroke-width:4; stroke-opacity:1; fill:none" points="1286.31,1423.18 1286.31,1404.28 "/>
<polyline clip-path="url(#clip250)" style="stroke:#000000; stroke-linecap:round; stroke-linejoin:round; stroke-width:4; stroke-opacity:1; fill:none" points="1819.53,1423.18 1819.53,1404.28 "/>
<polyline clip-path="url(#clip250)" style="stroke:#000000; stroke-linecap:round; stroke-linejoin:round; stroke-width:4; stroke-opacity:1; fill:none" points="2352.76,1423.18 2352.76,1404.28 "/>
<path clip-path="url(#clip250)" d="M188.767 1468.75 L218.443 1468.75 L218.443 1472.69 L188.767 1472.69 L188.767 1468.75 Z" fill="#000000" fill-rule="nonzero" fill-opacity="1" /><path clip-path="url(#clip250)" d="M241.382 1455.09 L229.577 1473.54 L241.382 1473.54 L241.382 1455.09 M240.156 1451.02 L246.035 1451.02 L246.035 1473.54 L250.966 1473.54 L250.966 1477.43 L246.035 1477.43 L246.035 1485.58 L241.382 1485.58 L241.382 1477.43 L225.781 1477.43 L225.781 1472.92 L240.156 1451.02 Z" fill="#000000" fill-rule="nonzero" fill-opacity="1" /><path clip-path="url(#clip250)" d="M723.031 1468.75 L752.707 1468.75 L752.707 1472.69 L723.031 1472.69 L723.031 1468.75 Z" fill="#000000" fill-rule="nonzero" fill-opacity="1" /><path clip-path="url(#clip250)" d="M766.827 1481.64 L783.146 1481.64 L783.146 1485.58 L761.202 1485.58 L761.202 1481.64 Q763.864 1478.89 768.447 1474.26 Q773.054 1469.61 774.234 1468.27 Q776.48 1465.74 777.359 1464.01 Q778.262 1462.25 778.262 1460.56 Q778.262 1457.8 776.318 1456.07 Q774.396 1454.33 771.295 1454.33 Q769.096 1454.33 766.642 1455.09 Q764.211 1455.86 761.434 1457.41 L761.434 1452.69 Q764.258 1451.55 766.711 1450.97 Q769.165 1450.39 771.202 1450.39 Q776.572 1450.39 779.767 1453.08 Q782.961 1455.77 782.961 1460.26 Q782.961 1462.39 782.151 1464.31 Q781.364 1466.2 779.258 1468.8 Q778.679 1469.47 775.577 1472.69 Q772.475 1475.88 766.827 1481.64 Z" fill="#000000" fill-rule="nonzero" fill-opacity="1" /><path clip-path="url(#clip250)" d="M1286.31 1454.1 Q1282.7 1454.1 1280.87 1457.66 Q1279.07 1461.2 1279.07 1468.33 Q1279.07 1475.44 1280.87 1479.01 Q1282.7 1482.55 1286.31 1482.55 Q1289.95 1482.55 1291.75 1479.01 Q1293.58 1475.44 1293.58 1468.33 Q1293.58 1461.2 1291.75 1457.66 Q1289.95 1454.1 1286.31 1454.1 M1286.31 1450.39 Q1292.12 1450.39 1295.18 1455 Q1298.26 1459.58 1298.26 1468.33 Q1298.26 1477.06 1295.18 1481.67 Q1292.12 1486.25 1286.31 1486.25 Q1280.5 1486.25 1277.42 1481.67 Q1274.37 1477.06 1274.37 1468.33 Q1274.37 1459.58 1277.42 1455 Q1280.5 1450.39 1286.31 1450.39 Z" fill="#000000" fill-rule="nonzero" fill-opacity="1" /><path clip-path="url(#clip250)" d="M1814.19 1481.64 L1830.51 1481.64 L1830.51 1485.58 L1808.56 1485.58 L1808.56 1481.64 Q1811.22 1478.89 1815.81 1474.26 Q1820.41 1469.61 1821.59 1468.27 Q1823.84 1465.74 1824.72 1464.01 Q1825.62 1462.25 1825.62 1460.56 Q1825.62 1457.8 1823.68 1456.07 Q1821.76 1454.33 1818.65 1454.33 Q1816.45 1454.33 1814 1455.09 Q1811.57 1455.86 1808.79 1457.41 L1808.79 1452.69 Q1811.62 1451.55 1814.07 1450.97 Q1816.52 1450.39 1818.56 1450.39 Q1823.93 1450.39 1827.13 1453.08 Q1830.32 1455.77 1830.32 1460.26 Q1830.32 1462.39 1829.51 1464.31 Q1828.72 1466.2 1826.62 1468.8 Q1826.04 1469.47 1822.94 1472.69 Q1819.83 1475.88 1814.19 1481.64 Z" fill="#000000" fill-rule="nonzero" fill-opacity="1" /><path clip-path="url(#clip250)" d="M2355.77 1455.09 L2343.96 1473.54 L2355.77 1473.54 L2355.77 1455.09 M2354.54 1451.02 L2360.42 1451.02 L2360.42 1473.54 L2365.35 1473.54 L2365.35 1477.43 L2360.42 1477.43 L2360.42 1485.58 L2355.77 1485.58 L2355.77 1477.43 L2340.16 1477.43 L2340.16 1472.92 L2354.54 1451.02 Z" fill="#000000" fill-rule="nonzero" fill-opacity="1" /><path clip-path="url(#clip250)" d="M885.319 1532.4 L913.137 1532.4 L913.137 1537.74 L891.112 1563.37 L913.137 1563.37 L913.137 1568.04 L884.524 1568.04 L884.524 1562.7 L906.549 1537.07 L885.319 1537.07 L885.319 1532.4 Z" fill="#000000" fill-rule="nonzero" fill-opacity="1" /><path clip-path="url(#clip250)" d="M919.121 1547.58 L936.277 1547.58 L936.277 1552.8 L919.121 1552.8 L919.121 1547.58 Z" fill="#000000" fill-rule="nonzero" fill-opacity="1" /><path clip-path="url(#clip250)" d="M968.328 1533.45 L968.328 1538.98 Q965.845 1537.71 963.172 1537.07 Q960.498 1536.44 957.634 1536.44 Q953.273 1536.44 951.077 1537.77 Q948.913 1539.11 948.913 1541.79 Q948.913 1543.82 950.472 1545 Q952.032 1546.15 956.743 1547.2 L958.748 1547.64 Q964.986 1548.98 967.596 1551.43 Q970.238 1553.85 970.238 1558.21 Q970.238 1563.17 966.291 1566.07 Q962.376 1568.97 955.501 1568.97 Q952.637 1568.97 949.517 1568.39 Q946.43 1567.85 942.993 1566.74 L942.993 1560.69 Q946.239 1562.38 949.39 1563.24 Q952.541 1564.07 955.629 1564.07 Q959.766 1564.07 961.994 1562.66 Q964.222 1561.23 964.222 1558.65 Q964.222 1556.27 962.599 1554.99 Q961.008 1553.72 955.565 1552.54 L953.528 1552.07 Q948.085 1550.92 945.666 1548.56 Q943.247 1546.18 943.247 1542.04 Q943.247 1537.01 946.812 1534.27 Q950.377 1531.54 956.934 1531.54 Q960.18 1531.54 963.045 1532.01 Q965.909 1532.49 968.328 1533.45 Z" fill="#000000" fill-rule="nonzero" fill-opacity="1" /><path clip-path="url(#clip250)" d="M985.356 1522.27 L985.356 1532.4 L997.419 1532.4 L997.419 1536.95 L985.356 1536.95 L985.356 1556.3 Q985.356 1560.66 986.534 1561.9 Q987.744 1563.14 991.404 1563.14 L997.419 1563.14 L997.419 1568.04 L991.404 1568.04 Q984.624 1568.04 982.046 1565.53 Q979.468 1562.98 979.468 1556.3 L979.468 1536.95 L975.171 1536.95 L975.171 1532.4 L979.468 1532.4 L979.468 1522.27 L985.356 1522.27 Z" fill="#000000" fill-rule="nonzero" fill-opacity="1" /><path clip-path="url(#clip250)" d="M1021.32 1550.12 Q1014.22 1550.12 1011.49 1551.75 Q1008.75 1553.37 1008.75 1557.29 Q1008.75 1560.4 1010.79 1562.25 Q1012.86 1564.07 1016.39 1564.07 Q1021.26 1564.07 1024.19 1560.63 Q1027.15 1557.16 1027.15 1551.43 L1027.15 1550.12 L1021.32 1550.12 M1033 1547.71 L1033 1568.04 L1027.15 1568.04 L1027.15 1562.63 Q1025.14 1565.88 1022.15 1567.44 Q1019.16 1568.97 1014.83 1568.97 Q1009.36 1568.97 1006.11 1565.91 Q1002.89 1562.82 1002.89 1557.67 Q1002.89 1551.65 1006.9 1548.6 Q1010.95 1545.54 1018.94 1545.54 L1027.15 1545.54 L1027.15 1544.97 Q1027.15 1540.93 1024.47 1538.73 Q1021.83 1536.5 1017.03 1536.5 Q1013.97 1536.5 1011.07 1537.23 Q1008.18 1537.97 1005.5 1539.43 L1005.5 1534.02 Q1008.72 1532.78 1011.74 1532.17 Q1014.77 1531.54 1017.63 1531.54 Q1025.36 1531.54 1029.18 1535.55 Q1033 1539.56 1033 1547.71 Z" fill="#000000" fill-rule="nonzero" fill-opacity="1" /><path clip-path="url(#clip250)" d="M1074.7 1546.53 L1074.7 1568.04 L1068.84 1568.04 L1068.84 1546.72 Q1068.84 1541.66 1066.87 1539.14 Q1064.9 1536.63 1060.95 1536.63 Q1056.21 1536.63 1053.47 1539.65 Q1050.73 1542.68 1050.73 1547.9 L1050.73 1568.04 L1044.84 1568.04 L1044.84 1532.4 L1050.73 1532.4 L1050.73 1537.93 Q1052.83 1534.72 1055.67 1533.13 Q1058.53 1531.54 1062.25 1531.54 Q1068.4 1531.54 1071.55 1535.36 Q1074.7 1539.14 1074.7 1546.53 Z" fill="#000000" fill-rule="nonzero" fill-opacity="1" /><path clip-path="url(#clip250)" d="M1109.84 1537.81 L1109.84 1518.52 L1115.69 1518.52 L1115.69 1568.04 L1109.84 1568.04 L1109.84 1562.7 Q1107.99 1565.88 1105.16 1567.44 Q1102.36 1568.97 1098.41 1568.97 Q1091.95 1568.97 1087.88 1563.81 Q1083.83 1558.65 1083.83 1550.25 Q1083.83 1541.85 1087.88 1536.69 Q1091.95 1531.54 1098.41 1531.54 Q1102.36 1531.54 1105.16 1533.1 Q1107.99 1534.62 1109.84 1537.81 M1089.88 1550.25 Q1089.88 1556.71 1092.52 1560.4 Q1095.2 1564.07 1099.84 1564.07 Q1104.49 1564.07 1107.16 1560.4 Q1109.84 1556.71 1109.84 1550.25 Q1109.84 1543.79 1107.16 1540.13 Q1104.49 1536.44 1099.84 1536.44 Q1095.2 1536.44 1092.52 1540.13 Q1089.88 1543.79 1089.88 1550.25 Z" fill="#000000" fill-rule="nonzero" fill-opacity="1" /><path clip-path="url(#clip250)" d="M1143.96 1550.12 Q1136.86 1550.12 1134.12 1551.75 Q1131.39 1553.37 1131.39 1557.29 Q1131.39 1560.4 1133.42 1562.25 Q1135.49 1564.07 1139.02 1564.07 Q1143.89 1564.07 1146.82 1560.63 Q1149.78 1557.16 1149.78 1551.43 L1149.78 1550.12 L1143.96 1550.12 M1155.64 1547.71 L1155.64 1568.04 L1149.78 1568.04 L1149.78 1562.63 Q1147.78 1565.88 1144.79 1567.44 Q1141.79 1568.97 1137.46 1568.97 Q1131.99 1568.97 1128.74 1565.91 Q1125.53 1562.82 1125.53 1557.67 Q1125.53 1551.65 1129.54 1548.6 Q1133.58 1545.54 1141.57 1545.54 L1149.78 1545.54 L1149.78 1544.97 Q1149.78 1540.93 1147.11 1538.73 Q1144.47 1536.5 1139.66 1536.5 Q1136.61 1536.5 1133.71 1537.23 Q1130.81 1537.97 1128.14 1539.43 L1128.14 1534.02 Q1131.35 1532.78 1134.38 1532.17 Q1137.4 1531.54 1140.27 1531.54 Q1148 1531.54 1151.82 1535.55 Q1155.64 1539.56 1155.64 1547.71 Z" fill="#000000" fill-rule="nonzero" fill-opacity="1" /><path clip-path="url(#clip250)" d="M1188.36 1537.87 Q1187.37 1537.3 1186.19 1537.04 Q1185.05 1536.76 1183.65 1536.76 Q1178.68 1536.76 1176.01 1540 Q1173.37 1543.22 1173.37 1549.27 L1173.37 1568.04 L1167.48 1568.04 L1167.48 1532.4 L1173.37 1532.4 L1173.37 1537.93 Q1175.21 1534.69 1178.17 1533.13 Q1181.13 1531.54 1185.37 1531.54 Q1185.97 1531.54 1186.7 1531.63 Q1187.44 1531.7 1188.33 1531.85 L1188.36 1537.87 Z" fill="#000000" fill-rule="nonzero" fill-opacity="1" /><path clip-path="url(#clip250)" d="M1216.81 1537.81 L1216.81 1518.52 L1222.67 1518.52 L1222.67 1568.04 L1216.81 1568.04 L1216.81 1562.7 Q1214.97 1565.88 1212.13 1567.44 Q1209.33 1568.97 1205.39 1568.97 Q1198.93 1568.97 1194.85 1563.81 Q1190.81 1558.65 1190.81 1550.25 Q1190.81 1541.85 1194.85 1536.69 Q1198.93 1531.54 1205.39 1531.54 Q1209.33 1531.54 1212.13 1533.1 Q1214.97 1534.62 1216.81 1537.81 M1196.86 1550.25 Q1196.86 1556.71 1199.5 1560.4 Q1202.17 1564.07 1206.82 1564.07 Q1211.47 1564.07 1214.14 1560.4 Q1216.81 1556.71 1216.81 1550.25 Q1216.81 1543.79 1214.14 1540.13 Q1211.47 1536.44 1206.82 1536.44 Q1202.17 1536.44 1199.5 1540.13 Q1196.86 1543.79 1196.86 1550.25 Z" fill="#000000" fill-rule="nonzero" fill-opacity="1" /><path clip-path="url(#clip250)" d="M1234.73 1532.4 L1240.59 1532.4 L1240.59 1568.04 L1234.73 1568.04 L1234.73 1532.4 M1234.73 1518.52 L1240.59 1518.52 L1240.59 1525.93 L1234.73 1525.93 L1234.73 1518.52 Z" fill="#000000" fill-rule="nonzero" fill-opacity="1" /><path clip-path="url(#clip250)" d="M1275.57 1533.45 L1275.57 1538.98 Q1273.09 1537.71 1270.41 1537.07 Q1267.74 1536.44 1264.87 1536.44 Q1260.51 1536.44 1258.32 1537.77 Q1256.15 1539.11 1256.15 1541.79 Q1256.15 1543.82 1257.71 1545 Q1259.27 1546.15 1263.98 1547.2 L1265.99 1547.64 Q1272.23 1548.98 1274.84 1551.43 Q1277.48 1553.85 1277.48 1558.21 Q1277.48 1563.17 1273.53 1566.07 Q1269.62 1568.97 1262.74 1568.97 Q1259.88 1568.97 1256.76 1568.39 Q1253.67 1567.85 1250.23 1566.74 L1250.23 1560.69 Q1253.48 1562.38 1256.63 1563.24 Q1259.78 1564.07 1262.87 1564.07 Q1267.01 1564.07 1269.24 1562.66 Q1271.46 1561.23 1271.46 1558.65 Q1271.46 1556.27 1269.84 1554.99 Q1268.25 1553.72 1262.81 1552.54 L1260.77 1552.07 Q1255.33 1550.92 1252.91 1548.56 Q1250.49 1546.18 1250.49 1542.04 Q1250.49 1537.01 1254.05 1534.27 Q1257.62 1531.54 1264.17 1531.54 Q1267.42 1531.54 1270.29 1532.01 Q1273.15 1532.49 1275.57 1533.45 Z" fill="#000000" fill-rule="nonzero" fill-opacity="1" /><path clip-path="url(#clip250)" d="M1317.3 1548.76 L1317.3 1551.62 L1290.37 1551.62 Q1290.75 1557.67 1294 1560.85 Q1297.28 1564 1303.1 1564 Q1306.47 1564 1309.63 1563.17 Q1312.81 1562.35 1315.93 1560.69 L1315.93 1566.23 Q1312.78 1567.57 1309.47 1568.27 Q1306.16 1568.97 1302.75 1568.97 Q1294.22 1568.97 1289.22 1564 Q1284.26 1559.04 1284.26 1550.57 Q1284.26 1541.82 1288.97 1536.69 Q1293.71 1531.54 1301.73 1531.54 Q1308.93 1531.54 1313.09 1536.18 Q1317.3 1540.8 1317.3 1548.76 M1311.44 1547.04 Q1311.38 1542.23 1308.73 1539.37 Q1306.12 1536.5 1301.8 1536.5 Q1296.89 1536.5 1293.93 1539.27 Q1291.01 1542.04 1290.56 1547.07 L1311.44 1547.04 Z" fill="#000000" fill-rule="nonzero" fill-opacity="1" /><path clip-path="url(#clip250)" d="M1350.37 1537.81 L1350.37 1518.52 L1356.22 1518.52 L1356.22 1568.04 L1350.37 1568.04 L1350.37 1562.7 Q1348.52 1565.88 1345.69 1567.44 Q1342.89 1568.97 1338.94 1568.97 Q1332.48 1568.97 1328.4 1563.81 Q1324.36 1558.65 1324.36 1550.25 Q1324.36 1541.85 1328.4 1536.69 Q1332.48 1531.54 1338.94 1531.54 Q1342.89 1531.54 1345.69 1533.1 Q1348.52 1534.62 1350.37 1537.81 M1330.41 1550.25 Q1330.41 1556.71 1333.05 1560.4 Q1335.72 1564.07 1340.37 1564.07 Q1345.02 1564.07 1347.69 1560.4 Q1350.37 1556.71 1350.37 1550.25 Q1350.37 1543.79 1347.69 1540.13 Q1345.02 1536.44 1340.37 1536.44 Q1335.72 1536.44 1333.05 1540.13 Q1330.41 1543.79 1330.41 1550.25 Z" fill="#000000" fill-rule="nonzero" fill-opacity="1" /><path clip-path="url(#clip250)" d="M1389.01 1518.52 L1394.86 1518.52 L1394.86 1568.04 L1389.01 1568.04 L1389.01 1518.52 Z" fill="#000000" fill-rule="nonzero" fill-opacity="1" /><path clip-path="url(#clip250)" d="M1420.93 1536.5 Q1416.22 1536.5 1413.48 1540.19 Q1410.74 1543.85 1410.74 1550.25 Q1410.74 1556.65 1413.45 1560.34 Q1416.19 1564 1420.93 1564 Q1425.61 1564 1428.35 1560.31 Q1431.08 1556.62 1431.08 1550.25 Q1431.08 1543.92 1428.35 1540.23 Q1425.61 1536.5 1420.93 1536.5 M1420.93 1531.54 Q1428.57 1531.54 1432.93 1536.5 Q1437.29 1541.47 1437.29 1550.25 Q1437.29 1559 1432.93 1564 Q1428.57 1568.97 1420.93 1568.97 Q1413.26 1568.97 1408.9 1564 Q1404.57 1559 1404.57 1550.25 Q1404.57 1541.47 1408.9 1536.5 Q1413.26 1531.54 1420.93 1531.54 Z" fill="#000000" fill-rule="nonzero" fill-opacity="1" /><path clip-path="url(#clip250)" d="M1470.46 1549.81 Q1470.46 1543.44 1467.81 1539.94 Q1465.2 1536.44 1460.46 1536.44 Q1455.75 1536.44 1453.11 1539.94 Q1450.5 1543.44 1450.5 1549.81 Q1450.5 1556.14 1453.11 1559.64 Q1455.75 1563.14 1460.46 1563.14 Q1465.2 1563.14 1467.81 1559.64 Q1470.46 1556.14 1470.46 1549.81 M1476.31 1563.62 Q1476.31 1572.72 1472.27 1577.15 Q1468.23 1581.6 1459.89 1581.6 Q1456.8 1581.6 1454.06 1581.13 Q1451.33 1580.68 1448.75 1579.72 L1448.75 1574.03 Q1451.33 1575.43 1453.84 1576.1 Q1456.36 1576.76 1458.96 1576.76 Q1464.73 1576.76 1467.59 1573.74 Q1470.46 1570.75 1470.46 1564.67 L1470.46 1561.77 Q1468.64 1564.92 1465.81 1566.48 Q1462.98 1568.04 1459.03 1568.04 Q1452.47 1568.04 1448.46 1563.05 Q1444.45 1558.05 1444.45 1549.81 Q1444.45 1541.53 1448.46 1536.53 Q1452.47 1531.54 1459.03 1531.54 Q1462.98 1531.54 1465.81 1533.1 Q1468.64 1534.66 1470.46 1537.81 L1470.46 1532.4 L1476.31 1532.4 L1476.31 1563.62 Z" fill="#000000" fill-rule="nonzero" fill-opacity="1" /><path clip-path="url(#clip250)" d="M1485.41 1547.58 L1502.57 1547.58 L1502.57 1552.8 L1485.41 1552.8 L1485.41 1547.58 Z" fill="#000000" fill-rule="nonzero" fill-opacity="1" /><path clip-path="url(#clip250)" d="M1537.55 1533.76 L1537.55 1539.24 Q1535.07 1537.87 1532.55 1537.2 Q1530.07 1536.5 1527.52 1536.5 Q1521.83 1536.5 1518.68 1540.13 Q1515.52 1543.73 1515.52 1550.25 Q1515.52 1556.78 1518.68 1560.4 Q1521.83 1564 1527.52 1564 Q1530.07 1564 1532.55 1563.33 Q1535.07 1562.63 1537.55 1561.26 L1537.55 1566.68 Q1535.1 1567.82 1532.46 1568.39 Q1529.85 1568.97 1526.89 1568.97 Q1518.83 1568.97 1514.09 1563.91 Q1509.35 1558.85 1509.35 1550.25 Q1509.35 1541.53 1514.12 1536.53 Q1518.93 1531.54 1527.27 1531.54 Q1529.97 1531.54 1532.55 1532.11 Q1535.13 1532.65 1537.55 1533.76 Z" fill="#000000" fill-rule="nonzero" fill-opacity="1" /><path clip-path="url(#clip250)" d="M1561.55 1536.5 Q1556.84 1536.5 1554.1 1540.19 Q1551.36 1543.85 1551.36 1550.25 Q1551.36 1556.65 1554.07 1560.34 Q1556.81 1564 1561.55 1564 Q1566.23 1564 1568.96 1560.31 Q1571.7 1556.62 1571.7 1550.25 Q1571.7 1543.92 1568.96 1540.23 Q1566.23 1536.5 1561.55 1536.5 M1561.55 1531.54 Q1569.19 1531.54 1573.55 1536.5 Q1577.91 1541.47 1577.91 1550.25 Q1577.91 1559 1573.55 1564 Q1569.19 1568.97 1561.55 1568.97 Q1553.88 1568.97 1549.52 1564 Q1545.19 1559 1545.19 1550.25 Q1545.19 1541.47 1549.52 1536.5 Q1553.88 1531.54 1561.55 1531.54 Z" fill="#000000" fill-rule="nonzero" fill-opacity="1" /><path clip-path="url(#clip250)" d="M1587.01 1553.98 L1587.01 1532.4 L1592.87 1532.4 L1592.87 1553.75 Q1592.87 1558.81 1594.84 1561.36 Q1596.81 1563.87 1600.76 1563.87 Q1605.5 1563.87 1608.24 1560.85 Q1611.01 1557.83 1611.01 1552.61 L1611.01 1532.4 L1616.87 1532.4 L1616.87 1568.04 L1611.01 1568.04 L1611.01 1562.57 Q1608.88 1565.82 1606.04 1567.41 Q1603.24 1568.97 1599.52 1568.97 Q1593.38 1568.97 1590.19 1565.15 Q1587.01 1561.33 1587.01 1553.98 M1601.75 1531.54 L1601.75 1531.54 Z" fill="#000000" fill-rule="nonzero" fill-opacity="1" /><path clip-path="url(#clip250)" d="M1658.56 1546.53 L1658.56 1568.04 L1652.71 1568.04 L1652.71 1546.72 Q1652.71 1541.66 1650.73 1539.14 Q1648.76 1536.63 1644.81 1536.63 Q1640.07 1536.63 1637.33 1539.65 Q1634.59 1542.68 1634.59 1547.9 L1634.59 1568.04 L1628.71 1568.04 L1628.71 1532.4 L1634.59 1532.4 L1634.59 1537.93 Q1636.7 1534.72 1639.53 1533.13 Q1642.39 1531.54 1646.12 1531.54 Q1652.26 1531.54 1655.41 1535.36 Q1658.56 1539.14 1658.56 1546.53 Z" fill="#000000" fill-rule="nonzero" fill-opacity="1" /><path clip-path="url(#clip250)" d="M1676.04 1522.27 L1676.04 1532.4 L1688.1 1532.4 L1688.1 1536.95 L1676.04 1536.95 L1676.04 1556.3 Q1676.04 1560.66 1677.21 1561.9 Q1678.42 1563.14 1682.08 1563.14 L1688.1 1563.14 L1688.1 1568.04 L1682.08 1568.04 Q1675.3 1568.04 1672.73 1565.53 Q1670.15 1562.98 1670.15 1556.3 L1670.15 1536.95 L1665.85 1536.95 L1665.85 1532.4 L1670.15 1532.4 L1670.15 1522.27 L1676.04 1522.27 Z" fill="#000000" fill-rule="nonzero" fill-opacity="1" /><polyline clip-path="url(#clip252)" style="stroke:#000000; stroke-linecap:round; stroke-linejoin:round; stroke-width:2; stroke-opacity:0.1; fill:none" points="219.866,1423.18 2352.76,1423.18 "/>
<polyline clip-path="url(#clip252)" style="stroke:#000000; stroke-linecap:round; stroke-linejoin:round; stroke-width:2; stroke-opacity:0.1; fill:none" points="219.866,1128.35 2352.76,1128.35 "/>
<polyline clip-path="url(#clip252)" style="stroke:#000000; stroke-linecap:round; stroke-linejoin:round; stroke-width:2; stroke-opacity:0.1; fill:none" points="219.866,833.523 2352.76,833.523 "/>
<polyline clip-path="url(#clip252)" style="stroke:#000000; stroke-linecap:round; stroke-linejoin:round; stroke-width:2; stroke-opacity:0.1; fill:none" points="219.866,538.695 2352.76,538.695 "/>
<polyline clip-path="url(#clip252)" style="stroke:#000000; stroke-linecap:round; stroke-linejoin:round; stroke-width:2; stroke-opacity:0.1; fill:none" points="219.866,243.866 2352.76,243.866 "/>
<polyline clip-path="url(#clip250)" style="stroke:#000000; stroke-linecap:round; stroke-linejoin:round; stroke-width:4; stroke-opacity:1; fill:none" points="219.866,1423.18 219.866,123.472 "/>
<polyline clip-path="url(#clip250)" style="stroke:#000000; stroke-linecap:round; stroke-linejoin:round; stroke-width:4; stroke-opacity:1; fill:none" points="219.866,1423.18 238.764,1423.18 "/>
<polyline clip-path="url(#clip250)" style="stroke:#000000; stroke-linecap:round; stroke-linejoin:round; stroke-width:4; stroke-opacity:1; fill:none" points="219.866,1128.35 238.764,1128.35 "/>
<polyline clip-path="url(#clip250)" style="stroke:#000000; stroke-linecap:round; stroke-linejoin:round; stroke-width:4; stroke-opacity:1; fill:none" points="219.866,833.523 238.764,833.523 "/>
<polyline clip-path="url(#clip250)" style="stroke:#000000; stroke-linecap:round; stroke-linejoin:round; stroke-width:4; stroke-opacity:1; fill:none" points="219.866,538.695 238.764,538.695 "/>
<polyline clip-path="url(#clip250)" style="stroke:#000000; stroke-linecap:round; stroke-linejoin:round; stroke-width:4; stroke-opacity:1; fill:none" points="219.866,243.866 238.764,243.866 "/>
<path clip-path="url(#clip250)" d="M126.691 1408.98 Q123.08 1408.98 121.251 1412.54 Q119.445 1416.08 119.445 1423.21 Q119.445 1430.32 121.251 1433.89 Q123.08 1437.43 126.691 1437.43 Q130.325 1437.43 132.13 1433.89 Q133.959 1430.32 133.959 1423.21 Q133.959 1416.08 132.13 1412.54 Q130.325 1408.98 126.691 1408.98 M126.691 1405.27 Q132.501 1405.27 135.556 1409.88 Q138.635 1414.46 138.635 1423.21 Q138.635 1431.94 135.556 1436.55 Q132.501 1441.13 126.691 1441.13 Q120.88 1441.13 117.802 1436.55 Q114.746 1431.94 114.746 1423.21 Q114.746 1414.46 117.802 1409.88 Q120.88 1405.27 126.691 1405.27 Z" fill="#000000" fill-rule="nonzero" fill-opacity="1" /><path clip-path="url(#clip250)" d="M146.853 1434.58 L151.737 1434.58 L151.737 1440.46 L146.853 1440.46 L146.853 1434.58 Z" fill="#000000" fill-rule="nonzero" fill-opacity="1" /><path clip-path="url(#clip250)" d="M171.922 1408.98 Q168.311 1408.98 166.482 1412.54 Q164.677 1416.08 164.677 1423.21 Q164.677 1430.32 166.482 1433.89 Q168.311 1437.43 171.922 1437.43 Q175.556 1437.43 177.362 1433.89 Q179.19 1430.32 179.19 1423.21 Q179.19 1416.08 177.362 1412.54 Q175.556 1408.98 171.922 1408.98 M171.922 1405.27 Q177.732 1405.27 180.788 1409.88 Q183.866 1414.46 183.866 1423.21 Q183.866 1431.94 180.788 1436.55 Q177.732 1441.13 171.922 1441.13 Q166.112 1441.13 163.033 1436.55 Q159.978 1431.94 159.978 1423.21 Q159.978 1414.46 163.033 1409.88 Q166.112 1405.27 171.922 1405.27 Z" fill="#000000" fill-rule="nonzero" fill-opacity="1" /><path clip-path="url(#clip250)" d="M127.917 1114.15 Q124.306 1114.15 122.478 1117.71 Q120.672 1121.26 120.672 1128.39 Q120.672 1135.49 122.478 1139.06 Q124.306 1142.6 127.917 1142.6 Q131.552 1142.6 133.357 1139.06 Q135.186 1135.49 135.186 1128.39 Q135.186 1121.26 133.357 1117.71 Q131.552 1114.15 127.917 1114.15 M127.917 1110.45 Q133.728 1110.45 136.783 1115.05 Q139.862 1119.64 139.862 1128.39 Q139.862 1137.11 136.783 1141.72 Q133.728 1146.3 127.917 1146.3 Q122.107 1146.3 119.029 1141.72 Q115.973 1137.11 115.973 1128.39 Q115.973 1119.64 119.029 1115.05 Q122.107 1110.45 127.917 1110.45 Z" fill="#000000" fill-rule="nonzero" fill-opacity="1" /><path clip-path="url(#clip250)" d="M148.079 1139.75 L152.964 1139.75 L152.964 1145.63 L148.079 1145.63 L148.079 1139.75 Z" fill="#000000" fill-rule="nonzero" fill-opacity="1" /><path clip-path="url(#clip250)" d="M163.959 1141.7 L171.598 1141.7 L171.598 1115.33 L163.288 1117 L163.288 1112.74 L171.552 1111.07 L176.227 1111.07 L176.227 1141.7 L183.866 1141.7 L183.866 1145.63 L163.959 1145.63 L163.959 1141.7 Z" fill="#000000" fill-rule="nonzero" fill-opacity="1" /><path clip-path="url(#clip250)" d="M128.288 819.322 Q124.677 819.322 122.848 822.886 Q121.043 826.428 121.043 833.558 Q121.043 840.664 122.848 844.229 Q124.677 847.771 128.288 847.771 Q131.922 847.771 133.728 844.229 Q135.556 840.664 135.556 833.558 Q135.556 826.428 133.728 822.886 Q131.922 819.322 128.288 819.322 M128.288 815.618 Q134.098 815.618 137.154 820.224 Q140.232 824.808 140.232 833.558 Q140.232 842.285 137.154 846.891 Q134.098 851.474 128.288 851.474 Q122.478 851.474 119.399 846.891 Q116.343 842.285 116.343 833.558 Q116.343 824.808 119.399 820.224 Q122.478 815.618 128.288 815.618 Z" fill="#000000" fill-rule="nonzero" fill-opacity="1" /><path clip-path="url(#clip250)" d="M148.45 844.923 L153.334 844.923 L153.334 850.803 L148.45 850.803 L148.45 844.923 Z" fill="#000000" fill-rule="nonzero" fill-opacity="1" /><path clip-path="url(#clip250)" d="M167.547 846.868 L183.866 846.868 L183.866 850.803 L161.922 850.803 L161.922 846.868 Q164.584 844.113 169.167 839.484 Q173.774 834.831 174.954 833.488 Q177.2 830.965 178.079 829.229 Q178.982 827.47 178.982 825.78 Q178.982 823.025 177.038 821.289 Q175.116 819.553 172.014 819.553 Q169.815 819.553 167.362 820.317 Q164.931 821.081 162.153 822.632 L162.153 817.91 Q164.977 816.775 167.431 816.197 Q169.885 815.618 171.922 815.618 Q177.292 815.618 180.487 818.303 Q183.681 820.988 183.681 825.479 Q183.681 827.609 182.871 829.53 Q182.084 831.428 179.977 834.021 Q179.399 834.692 176.297 837.91 Q173.195 841.104 167.547 846.868 Z" fill="#000000" fill-rule="nonzero" fill-opacity="1" /><path clip-path="url(#clip250)" d="M127.339 524.493 Q123.728 524.493 121.899 528.058 Q120.093 531.6 120.093 538.729 Q120.093 545.836 121.899 549.4 Q123.728 552.942 127.339 552.942 Q130.973 552.942 132.779 549.4 Q134.607 545.836 134.607 538.729 Q134.607 531.6 132.779 528.058 Q130.973 524.493 127.339 524.493 M127.339 520.79 Q133.149 520.79 136.204 525.396 Q139.283 529.979 139.283 538.729 Q139.283 547.456 136.204 552.063 Q133.149 556.646 127.339 556.646 Q121.529 556.646 118.45 552.063 Q115.394 547.456 115.394 538.729 Q115.394 529.979 118.45 525.396 Q121.529 520.79 127.339 520.79 Z" fill="#000000" fill-rule="nonzero" fill-opacity="1" /><path clip-path="url(#clip250)" d="M147.501 550.095 L152.385 550.095 L152.385 555.975 L147.501 555.975 L147.501 550.095 Z" fill="#000000" fill-rule="nonzero" fill-opacity="1" /><path clip-path="url(#clip250)" d="M176.737 537.34 Q180.093 538.058 181.968 540.326 Q183.866 542.595 183.866 545.928 Q183.866 551.044 180.348 553.845 Q176.829 556.646 170.348 556.646 Q168.172 556.646 165.857 556.206 Q163.565 555.789 161.112 554.933 L161.112 550.419 Q163.056 551.553 165.371 552.132 Q167.686 552.711 170.209 552.711 Q174.607 552.711 176.899 550.975 Q179.214 549.238 179.214 545.928 Q179.214 542.873 177.061 541.16 Q174.931 539.424 171.112 539.424 L167.084 539.424 L167.084 535.581 L171.297 535.581 Q174.746 535.581 176.575 534.215 Q178.403 532.827 178.403 530.234 Q178.403 527.572 176.505 526.16 Q174.63 524.725 171.112 524.725 Q169.19 524.725 166.991 525.141 Q164.792 525.558 162.153 526.438 L162.153 522.271 Q164.815 521.53 167.13 521.16 Q169.468 520.79 171.528 520.79 Q176.852 520.79 179.954 523.22 Q183.056 525.627 183.056 529.748 Q183.056 532.618 181.413 534.609 Q179.769 536.576 176.737 537.34 Z" fill="#000000" fill-rule="nonzero" fill-opacity="1" /><path clip-path="url(#clip250)" d="M126.205 229.665 Q122.593 229.665 120.765 233.23 Q118.959 236.771 118.959 243.901 Q118.959 251.007 120.765 254.572 Q122.593 258.114 126.205 258.114 Q129.839 258.114 131.644 254.572 Q133.473 251.007 133.473 243.901 Q133.473 236.771 131.644 233.23 Q129.839 229.665 126.205 229.665 M126.205 225.961 Q132.015 225.961 135.07 230.568 Q138.149 235.151 138.149 243.901 Q138.149 252.628 135.07 257.234 Q132.015 261.817 126.205 261.817 Q120.394 261.817 117.316 257.234 Q114.26 252.628 114.26 243.901 Q114.26 235.151 117.316 230.568 Q120.394 225.961 126.205 225.961 Z" fill="#000000" fill-rule="nonzero" fill-opacity="1" /><path clip-path="url(#clip250)" d="M146.366 255.267 L151.251 255.267 L151.251 261.146 L146.366 261.146 L146.366 255.267 Z" fill="#000000" fill-rule="nonzero" fill-opacity="1" /><path clip-path="url(#clip250)" d="M174.283 230.66 L162.477 249.109 L174.283 249.109 L174.283 230.66 M173.056 226.586 L178.936 226.586 L178.936 249.109 L183.866 249.109 L183.866 252.998 L178.936 252.998 L178.936 261.146 L174.283 261.146 L174.283 252.998 L158.681 252.998 L158.681 248.484 L173.056 226.586 Z" fill="#000000" fill-rule="nonzero" fill-opacity="1" /><path clip-path="url(#clip250)" d="M21.7677 886.636 L58.7206 886.636 L58.7206 878.869 Q58.7206 869.034 54.2646 864.483 Q49.8086 859.9 40.1964 859.9 Q30.6479 859.9 26.2237 864.483 Q21.7677 869.034 21.7677 878.869 L21.7677 886.636 M16.4842 893.065 L16.4842 879.856 Q16.4842 866.043 22.2451 859.581 Q27.9743 853.12 40.1964 853.12 Q52.4822 853.12 58.2432 859.613 Q64.0042 866.106 64.0042 879.856 L64.0042 893.065 L16.4842 893.065 Z" fill="#000000" fill-rule="nonzero" fill-opacity="1" /><path clip-path="url(#clip250)" d="M44.7161 812.634 L47.5806 812.634 L47.5806 839.561 Q53.6281 839.179 56.8109 835.933 Q59.9619 832.654 59.9619 826.83 Q59.9619 823.456 59.1344 820.305 Q58.3069 817.122 56.6518 814.003 L62.1899 814.003 Q63.5267 817.154 64.227 820.464 Q64.9272 823.774 64.9272 827.18 Q64.9272 835.71 59.9619 840.707 Q54.9967 845.672 46.5303 845.672 Q37.7774 845.672 32.6531 840.962 Q27.4968 836.219 27.4968 828.198 Q27.4968 821.005 32.1438 816.836 Q36.7589 812.634 44.7161 812.634 M42.9973 818.491 Q38.1912 818.554 35.3266 821.196 Q32.4621 823.806 32.4621 828.135 Q32.4621 833.036 35.2312 835.996 Q38.0002 838.925 43.0292 839.37 L42.9973 818.491 Z" fill="#000000" fill-rule="nonzero" fill-opacity="1" /><path clip-path="url(#clip250)" d="M42.4881 773.39 L64.0042 773.39 L64.0042 779.246 L42.679 779.246 Q37.6183 779.246 35.1038 781.219 Q32.5894 783.193 32.5894 787.14 Q32.5894 791.882 35.6131 794.619 Q38.6368 797.357 43.8567 797.357 L64.0042 797.357 L64.0042 803.245 L28.3562 803.245 L28.3562 797.357 L33.8944 797.357 Q30.6797 795.256 29.0883 792.423 Q27.4968 789.559 27.4968 785.835 Q27.4968 779.692 31.3163 776.541 Q35.1038 773.39 42.4881 773.39 Z" fill="#000000" fill-rule="nonzero" fill-opacity="1" /><path clip-path="url(#clip250)" d="M29.4065 738.983 L34.9447 738.983 Q33.6716 741.466 33.035 744.139 Q32.3984 746.813 32.3984 749.677 Q32.3984 754.038 33.7352 756.234 Q35.072 758.398 37.7456 758.398 Q39.7826 758.398 40.9603 756.839 Q42.1061 755.279 43.1565 750.569 L43.6021 748.563 Q44.9389 742.325 47.3897 739.715 Q49.8086 737.073 54.1691 737.073 Q59.1344 737.073 62.0308 741.02 Q64.9272 744.935 64.9272 751.81 Q64.9272 754.674 64.3543 757.794 Q63.8132 760.881 62.6992 764.319 L56.6518 764.319 Q58.3387 761.072 59.198 757.921 Q60.0256 754.77 60.0256 751.683 Q60.0256 747.545 58.6251 745.317 Q57.1929 743.089 54.6147 743.089 Q52.2276 743.089 50.9545 744.712 Q49.6813 746.304 48.5037 751.746 L48.0262 753.783 Q46.8804 759.226 44.5251 761.645 Q42.138 764.064 38.0002 764.064 Q32.9713 764.064 30.2341 760.499 Q27.4968 756.934 27.4968 750.378 Q27.4968 747.131 27.9743 744.267 Q28.4517 741.402 29.4065 738.983 Z" fill="#000000" fill-rule="nonzero" fill-opacity="1" /><path clip-path="url(#clip250)" d="M28.3562 727.748 L28.3562 721.891 L64.0042 721.891 L64.0042 727.748 L28.3562 727.748 M14.479 727.748 L14.479 721.891 L21.895 721.891 L21.895 727.748 L14.479 727.748 Z" fill="#000000" fill-rule="nonzero" fill-opacity="1" /><path clip-path="url(#clip250)" d="M18.2347 703.844 L28.3562 703.844 L28.3562 691.781 L32.9077 691.781 L32.9077 703.844 L52.2594 703.844 Q56.6199 703.844 57.8613 702.667 Q59.1026 701.457 59.1026 697.797 L59.1026 691.781 L64.0042 691.781 L64.0042 697.797 Q64.0042 704.576 61.4897 707.154 Q58.9434 709.733 52.2594 709.733 L32.9077 709.733 L32.9077 714.029 L28.3562 714.029 L28.3562 709.733 L18.2347 709.733 L18.2347 703.844 Z" fill="#000000" fill-rule="nonzero" fill-opacity="1" /><path clip-path="url(#clip250)" d="M67.3143 669.247 Q73.68 671.729 75.6216 674.085 Q77.5631 676.44 77.5631 680.387 L77.5631 685.065 L72.6615 685.065 L72.6615 681.628 Q72.6615 679.209 71.5157 677.872 Q70.3699 676.535 66.1048 674.912 L63.4312 673.862 L28.3562 688.28 L28.3562 682.074 L56.238 670.934 L28.3562 659.794 L28.3562 653.587 L67.3143 669.247 Z" fill="#000000" fill-rule="nonzero" fill-opacity="1" /><path clip-path="url(#clip250)" d="M566.081 18.8205 L566.081 41.5461 L576.37 41.5461 Q582.082 41.5461 585.201 38.5889 Q588.32 35.6318 588.32 30.163 Q588.32 24.7348 585.201 21.7777 Q582.082 18.8205 576.37 18.8205 L566.081 18.8205 M557.898 12.096 L576.37 12.096 Q586.538 12.096 591.723 16.714 Q596.948 21.2916 596.948 30.163 Q596.948 39.1155 591.723 43.6931 Q586.538 48.2706 576.37 48.2706 L566.081 48.2706 L566.081 72.576 L557.898 72.576 L557.898 12.096 Z" fill="#000000" fill-rule="nonzero" fill-opacity="1" /><path clip-path="url(#clip250)" d="M632.434 34.1734 Q631.179 33.4443 629.68 33.1202 Q628.221 32.7556 626.439 32.7556 Q620.12 32.7556 616.717 36.8875 Q613.355 40.9789 613.355 48.6757 L613.355 72.576 L605.86 72.576 L605.86 27.2059 L613.355 27.2059 L613.355 34.2544 Q615.704 30.1225 619.471 28.1376 Q623.239 26.1121 628.627 26.1121 Q629.396 26.1121 630.328 26.2337 Q631.26 26.3147 632.394 26.5172 L632.434 34.1734 Z" fill="#000000" fill-rule="nonzero" fill-opacity="1" /><path clip-path="url(#clip250)" d="M640.253 27.2059 L647.706 27.2059 L647.706 72.576 L640.253 72.576 L640.253 27.2059 M640.253 9.54393 L647.706 9.54393 L647.706 18.9825 L640.253 18.9825 L640.253 9.54393 Z" fill="#000000" fill-rule="nonzero" fill-opacity="1" /><path clip-path="url(#clip250)" d="M680.883 32.4315 Q674.888 32.4315 671.404 37.1306 Q667.92 41.7891 667.92 49.9314 Q667.92 58.0738 671.364 62.7728 Q674.847 67.4314 680.883 67.4314 Q686.838 67.4314 690.322 62.7323 Q693.806 58.0333 693.806 49.9314 Q693.806 41.8701 690.322 37.1711 Q686.838 32.4315 680.883 32.4315 M680.883 26.1121 Q690.605 26.1121 696.155 32.4315 Q701.705 38.7509 701.705 49.9314 Q701.705 61.0714 696.155 67.4314 Q690.605 73.7508 680.883 73.7508 Q671.121 73.7508 665.571 67.4314 Q660.062 61.0714 660.062 49.9314 Q660.062 38.7509 665.571 32.4315 Q671.121 26.1121 680.883 26.1121 Z" fill="#000000" fill-rule="nonzero" fill-opacity="1" /><path clip-path="url(#clip250)" d="M740.35 34.1734 Q739.095 33.4443 737.596 33.1202 Q736.138 32.7556 734.355 32.7556 Q728.036 32.7556 724.633 36.8875 Q721.271 40.9789 721.271 48.6757 L721.271 72.576 L713.777 72.576 L713.777 27.2059 L721.271 27.2059 L721.271 34.2544 Q723.62 30.1225 727.388 28.1376 Q731.155 26.1121 736.543 26.1121 Q737.312 26.1121 738.244 26.2337 Q739.176 26.3147 740.31 26.5172 L740.35 34.1734 Z" fill="#000000" fill-rule="nonzero" fill-opacity="1" /><path clip-path="url(#clip250)" d="M781.751 65.7705 L781.751 89.8329 L774.257 89.8329 L774.257 27.2059 L781.751 27.2059 L781.751 34.0924 Q784.1 30.0415 787.665 28.0971 Q791.27 26.1121 796.253 26.1121 Q804.517 26.1121 809.661 32.6746 Q814.847 39.2371 814.847 49.9314 Q814.847 60.6258 809.661 67.1883 Q804.517 73.7508 796.253 73.7508 Q791.27 73.7508 787.665 71.8063 Q784.1 69.8214 781.751 65.7705 M807.109 49.9314 Q807.109 41.7081 803.707 37.0496 Q800.344 32.3505 794.43 32.3505 Q788.516 32.3505 785.113 37.0496 Q781.751 41.7081 781.751 49.9314 Q781.751 58.1548 785.113 62.8538 Q788.516 67.5124 794.43 67.5124 Q800.344 67.5124 803.707 62.8538 Q807.109 58.1548 807.109 49.9314 Z" fill="#000000" fill-rule="nonzero" fill-opacity="1" /><path clip-path="url(#clip250)" d="M853.492 34.1734 Q852.236 33.4443 850.738 33.1202 Q849.279 32.7556 847.497 32.7556 Q841.177 32.7556 837.775 36.8875 Q834.412 40.9789 834.412 48.6757 L834.412 72.576 L826.918 72.576 L826.918 27.2059 L834.412 27.2059 L834.412 34.2544 Q836.762 30.1225 840.529 28.1376 Q844.297 26.1121 849.684 26.1121 Q850.454 26.1121 851.386 26.2337 Q852.317 26.3147 853.452 26.5172 L853.492 34.1734 Z" fill="#000000" fill-rule="nonzero" fill-opacity="1" /><path clip-path="url(#clip250)" d="M898.295 48.0275 L898.295 51.6733 L864.025 51.6733 Q864.511 59.3701 868.643 63.421 Q872.815 67.4314 880.228 67.4314 Q884.522 67.4314 888.533 66.3781 Q892.583 65.3249 896.553 63.2184 L896.553 70.267 Q892.543 71.9684 888.33 72.8596 Q884.117 73.7508 879.783 73.7508 Q868.926 73.7508 862.566 67.4314 Q856.247 61.1119 856.247 50.3365 Q856.247 39.1965 862.242 32.6746 Q868.278 26.1121 878.486 26.1121 Q887.641 26.1121 892.948 32.0264 Q898.295 37.9003 898.295 48.0275 M890.842 45.84 Q890.761 39.7232 887.398 36.0774 Q884.077 32.4315 878.567 32.4315 Q872.329 32.4315 868.562 35.9558 Q864.835 39.4801 864.268 45.8805 L890.842 45.84 Z" fill="#000000" fill-rule="nonzero" fill-opacity="1" /><path clip-path="url(#clip250)" d="M940.384 34.0924 L940.384 9.54393 L947.838 9.54393 L947.838 72.576 L940.384 72.576 L940.384 65.7705 Q938.035 69.8214 934.429 71.8063 Q930.864 73.7508 925.841 73.7508 Q917.618 73.7508 912.433 67.1883 Q907.288 60.6258 907.288 49.9314 Q907.288 39.2371 912.433 32.6746 Q917.618 26.1121 925.841 26.1121 Q930.864 26.1121 934.429 28.0971 Q938.035 30.0415 940.384 34.0924 M914.985 49.9314 Q914.985 58.1548 918.347 62.8538 Q921.75 67.5124 927.664 67.5124 Q933.579 67.5124 936.981 62.8538 Q940.384 58.1548 940.384 49.9314 Q940.384 41.7081 936.981 37.0496 Q933.579 32.3505 927.664 32.3505 Q921.75 32.3505 918.347 37.0496 Q914.985 41.7081 914.985 49.9314 Z" fill="#000000" fill-rule="nonzero" fill-opacity="1" /><path clip-path="url(#clip250)" d="M963.191 27.2059 L970.644 27.2059 L970.644 72.576 L963.191 72.576 L963.191 27.2059 M963.191 9.54393 L970.644 9.54393 L970.644 18.9825 L963.191 18.9825 L963.191 9.54393 Z" fill="#000000" fill-rule="nonzero" fill-opacity="1" /><path clip-path="url(#clip250)" d="M1018.89 28.9478 L1018.89 35.9153 Q1015.73 34.1734 1012.53 33.3227 Q1009.37 32.4315 1006.13 32.4315 Q998.879 32.4315 994.869 37.0496 Q990.858 41.6271 990.858 49.9314 Q990.858 58.2358 994.869 62.8538 Q998.879 67.4314 1006.13 67.4314 Q1009.37 67.4314 1012.53 66.5807 Q1015.73 65.6895 1018.89 63.9476 L1018.89 70.8341 Q1015.77 72.2924 1012.41 73.0216 Q1009.09 73.7508 1005.32 73.7508 Q995.071 73.7508 989.035 67.3098 Q983 60.8689 983 49.9314 Q983 38.832 989.076 32.472 Q995.193 26.1121 1005.81 26.1121 Q1009.25 26.1121 1012.53 26.8413 Q1015.81 27.5299 1018.89 28.9478 Z" fill="#000000" fill-rule="nonzero" fill-opacity="1" /><path clip-path="url(#clip250)" d="M1039.23 14.324 L1039.23 27.2059 L1054.58 27.2059 L1054.58 32.9987 L1039.23 32.9987 L1039.23 57.6282 Q1039.23 63.1779 1040.73 64.7578 Q1042.26 66.3376 1046.92 66.3376 L1054.58 66.3376 L1054.58 72.576 L1046.92 72.576 Q1038.29 72.576 1035.01 69.3758 Q1031.73 66.1351 1031.73 57.6282 L1031.73 32.9987 L1026.26 32.9987 L1026.26 27.2059 L1031.73 27.2059 L1031.73 14.324 L1039.23 14.324 Z" fill="#000000" fill-rule="nonzero" fill-opacity="1" /><path clip-path="url(#clip250)" d="M1064.38 27.2059 L1071.84 27.2059 L1071.84 72.576 L1064.38 72.576 L1064.38 27.2059 M1064.38 9.54393 L1071.84 9.54393 L1071.84 18.9825 L1064.38 18.9825 L1064.38 9.54393 Z" fill="#000000" fill-rule="nonzero" fill-opacity="1" /><path clip-path="url(#clip250)" d="M1082.08 27.2059 L1089.98 27.2059 L1104.16 65.2844 L1118.34 27.2059 L1126.24 27.2059 L1109.23 72.576 L1099.1 72.576 L1082.08 27.2059 Z" fill="#000000" fill-rule="nonzero" fill-opacity="1" /><path clip-path="url(#clip250)" d="M1175.34 48.0275 L1175.34 51.6733 L1141.07 51.6733 Q1141.55 59.3701 1145.68 63.421 Q1149.86 67.4314 1157.27 67.4314 Q1161.56 67.4314 1165.57 66.3781 Q1169.62 65.3249 1173.59 63.2184 L1173.59 70.267 Q1169.58 71.9684 1165.37 72.8596 Q1161.16 73.7508 1156.82 73.7508 Q1145.97 73.7508 1139.61 67.4314 Q1133.29 61.1119 1133.29 50.3365 Q1133.29 39.1965 1139.28 32.6746 Q1145.32 26.1121 1155.53 26.1121 Q1164.68 26.1121 1169.99 32.0264 Q1175.34 37.9003 1175.34 48.0275 M1167.88 45.84 Q1167.8 39.7232 1164.44 36.0774 Q1161.12 32.4315 1155.61 32.4315 Q1149.37 32.4315 1145.6 35.9558 Q1141.88 39.4801 1141.31 45.8805 L1167.88 45.84 Z" fill="#000000" fill-rule="nonzero" fill-opacity="1" /><path clip-path="url(#clip250)" d="M1246.59 28.9478 L1246.59 35.9153 Q1243.43 34.1734 1240.23 33.3227 Q1237.07 32.4315 1233.83 32.4315 Q1226.58 32.4315 1222.57 37.0496 Q1218.56 41.6271 1218.56 49.9314 Q1218.56 58.2358 1222.57 62.8538 Q1226.58 67.4314 1233.83 67.4314 Q1237.07 67.4314 1240.23 66.5807 Q1243.43 65.6895 1246.59 63.9476 L1246.59 70.8341 Q1243.47 72.2924 1240.11 73.0216 Q1236.79 73.7508 1233.02 73.7508 Q1222.77 73.7508 1216.74 67.3098 Q1210.7 60.8689 1210.7 49.9314 Q1210.7 38.832 1216.78 32.472 Q1222.89 26.1121 1233.51 26.1121 Q1236.95 26.1121 1240.23 26.8413 Q1243.51 27.5299 1246.59 28.9478 Z" fill="#000000" fill-rule="nonzero" fill-opacity="1" /><path clip-path="url(#clip250)" d="M1297.27 45.1919 L1297.27 72.576 L1289.82 72.576 L1289.82 45.4349 Q1289.82 38.994 1287.3 35.7938 Q1284.79 32.5936 1279.77 32.5936 Q1273.73 32.5936 1270.25 36.4419 Q1266.77 40.2903 1266.77 46.9338 L1266.77 72.576 L1259.27 72.576 L1259.27 9.54393 L1266.77 9.54393 L1266.77 34.2544 Q1269.44 30.163 1273.04 28.1376 Q1276.69 26.1121 1281.43 26.1121 Q1289.25 26.1121 1293.26 30.9732 Q1297.27 35.7938 1297.27 45.1919 Z" fill="#000000" fill-rule="nonzero" fill-opacity="1" /><path clip-path="url(#clip250)" d="M1350.94 48.0275 L1350.94 51.6733 L1316.67 51.6733 Q1317.16 59.3701 1321.29 63.421 Q1325.46 67.4314 1332.88 67.4314 Q1337.17 67.4314 1341.18 66.3781 Q1345.23 65.3249 1349.2 63.2184 L1349.2 70.267 Q1345.19 71.9684 1340.98 72.8596 Q1336.77 73.7508 1332.43 73.7508 Q1321.57 73.7508 1315.21 67.4314 Q1308.89 61.1119 1308.89 50.3365 Q1308.89 39.1965 1314.89 32.6746 Q1320.93 26.1121 1331.13 26.1121 Q1340.29 26.1121 1345.6 32.0264 Q1350.94 37.9003 1350.94 48.0275 M1343.49 45.84 Q1343.41 39.7232 1340.05 36.0774 Q1336.72 32.4315 1331.22 32.4315 Q1324.98 32.4315 1321.21 35.9558 Q1317.48 39.4801 1316.92 45.8805 L1343.49 45.84 Z" fill="#000000" fill-rule="nonzero" fill-opacity="1" /><path clip-path="url(#clip250)" d="M1395.83 28.9478 L1395.83 35.9153 Q1392.67 34.1734 1389.47 33.3227 Q1386.31 32.4315 1383.07 32.4315 Q1375.82 32.4315 1371.81 37.0496 Q1367.8 41.6271 1367.8 49.9314 Q1367.8 58.2358 1371.81 62.8538 Q1375.82 67.4314 1383.07 67.4314 Q1386.31 67.4314 1389.47 66.5807 Q1392.67 65.6895 1395.83 63.9476 L1395.83 70.8341 Q1392.71 72.2924 1389.35 73.0216 Q1386.02 73.7508 1382.26 73.7508 Q1372.01 73.7508 1365.97 67.3098 Q1359.94 60.8689 1359.94 49.9314 Q1359.94 38.832 1366.01 32.472 Q1372.13 26.1121 1382.74 26.1121 Q1386.19 26.1121 1389.47 26.8413 Q1392.75 27.5299 1395.83 28.9478 Z" fill="#000000" fill-rule="nonzero" fill-opacity="1" /><path clip-path="url(#clip250)" d="M1408.51 9.54393 L1416 9.54393 L1416 46.7717 L1438.24 27.2059 L1447.76 27.2059 L1423.7 48.4326 L1448.77 72.576 L1439.05 72.576 L1416 50.4176 L1416 72.576 L1408.51 72.576 L1408.51 9.54393 Z" fill="#000000" fill-rule="nonzero" fill-opacity="1" /><path clip-path="url(#clip250)" d="M1458.74 62.2867 L1467.29 62.2867 L1467.29 69.2543 L1460.64 82.2172 L1455.42 82.2172 L1458.74 69.2543 L1458.74 62.2867 Z" fill="#000000" fill-rule="nonzero" fill-opacity="1" /><path clip-path="url(#clip250)" d="M1539.43 34.0924 L1539.43 9.54393 L1546.89 9.54393 L1546.89 72.576 L1539.43 72.576 L1539.43 65.7705 Q1537.08 69.8214 1533.48 71.8063 Q1529.91 73.7508 1524.89 73.7508 Q1516.67 73.7508 1511.48 67.1883 Q1506.34 60.6258 1506.34 49.9314 Q1506.34 39.2371 1511.48 32.6746 Q1516.67 26.1121 1524.89 26.1121 Q1529.91 26.1121 1533.48 28.0971 Q1537.08 30.0415 1539.43 34.0924 M1514.03 49.9314 Q1514.03 58.1548 1517.39 62.8538 Q1520.8 67.5124 1526.71 67.5124 Q1532.63 67.5124 1536.03 62.8538 Q1539.43 58.1548 1539.43 49.9314 Q1539.43 41.7081 1536.03 37.0496 Q1532.63 32.3505 1526.71 32.3505 Q1520.8 32.3505 1517.39 37.0496 Q1514.03 41.7081 1514.03 49.9314 Z" fill="#000000" fill-rule="nonzero" fill-opacity="1" /><path clip-path="url(#clip250)" d="M1601.05 48.0275 L1601.05 51.6733 L1566.78 51.6733 Q1567.26 59.3701 1571.39 63.421 Q1575.57 67.4314 1582.98 67.4314 Q1587.27 67.4314 1591.28 66.3781 Q1595.33 65.3249 1599.3 63.2184 L1599.3 70.267 Q1595.29 71.9684 1591.08 72.8596 Q1586.87 73.7508 1582.53 73.7508 Q1571.68 73.7508 1565.32 67.4314 Q1559 61.1119 1559 50.3365 Q1559 39.1965 1564.99 32.6746 Q1571.03 26.1121 1581.24 26.1121 Q1590.39 26.1121 1595.7 32.0264 Q1601.05 37.9003 1601.05 48.0275 M1593.59 45.84 Q1593.51 39.7232 1590.15 36.0774 Q1586.83 32.4315 1581.32 32.4315 Q1575.08 32.4315 1571.31 35.9558 Q1567.59 39.4801 1567.02 45.8805 L1593.59 45.84 Z" fill="#000000" fill-rule="nonzero" fill-opacity="1" /><path clip-path="url(#clip250)" d="M1636.25 9.54393 L1636.25 15.7418 L1629.12 15.7418 Q1625.11 15.7418 1623.53 17.3622 Q1621.99 18.9825 1621.99 23.1955 L1621.99 27.2059 L1634.26 27.2059 L1634.26 32.9987 L1621.99 32.9987 L1621.99 72.576 L1614.5 72.576 L1614.5 32.9987 L1607.37 32.9987 L1607.37 27.2059 L1614.5 27.2059 L1614.5 24.0462 Q1614.5 16.471 1618.02 13.0277 Q1621.54 9.54393 1629.2 9.54393 L1636.25 9.54393 Z" fill="#000000" fill-rule="nonzero" fill-opacity="1" /><path clip-path="url(#clip250)" d="M1663.11 49.7694 Q1654.07 49.7694 1650.59 51.8354 Q1647.1 53.9013 1647.1 58.8839 Q1647.1 62.8538 1649.7 65.2034 Q1652.33 67.5124 1656.83 67.5124 Q1663.02 67.5124 1666.75 63.1374 Q1670.52 58.7219 1670.52 51.4303 L1670.52 49.7694 L1663.11 49.7694 M1677.97 46.6907 L1677.97 72.576 L1670.52 72.576 L1670.52 65.6895 Q1667.97 69.8214 1664.16 71.8063 Q1660.35 73.7508 1654.84 73.7508 Q1647.87 73.7508 1643.74 69.8619 Q1639.65 65.9325 1639.65 59.3701 Q1639.65 51.7138 1644.76 47.825 Q1649.9 43.9361 1660.07 43.9361 L1670.52 43.9361 L1670.52 43.2069 Q1670.52 38.0623 1667.12 35.2672 Q1663.75 32.4315 1657.64 32.4315 Q1653.75 32.4315 1650.06 33.3632 Q1646.38 34.295 1642.97 36.1584 L1642.97 29.2718 Q1647.06 27.692 1650.91 26.9223 Q1654.76 26.1121 1658.41 26.1121 Q1668.25 26.1121 1673.11 31.2163 Q1677.97 36.3204 1677.97 46.6907 Z" fill="#000000" fill-rule="nonzero" fill-opacity="1" /><path clip-path="url(#clip250)" d="M1692.56 54.671 L1692.56 27.2059 L1700.01 27.2059 L1700.01 54.3874 Q1700.01 60.8284 1702.52 64.0691 Q1705.03 67.2693 1710.06 67.2693 Q1716.09 67.2693 1719.58 63.421 Q1723.1 59.5726 1723.1 52.9291 L1723.1 27.2059 L1730.55 27.2059 L1730.55 72.576 L1723.1 72.576 L1723.1 65.6084 Q1720.39 69.7404 1716.78 71.7658 Q1713.22 73.7508 1708.48 73.7508 Q1700.66 73.7508 1696.61 68.8897 Q1692.56 64.0286 1692.56 54.671 M1711.31 26.1121 L1711.31 26.1121 Z" fill="#000000" fill-rule="nonzero" fill-opacity="1" /><path clip-path="url(#clip250)" d="M1745.91 9.54393 L1753.36 9.54393 L1753.36 72.576 L1745.91 72.576 L1745.91 9.54393 Z" fill="#000000" fill-rule="nonzero" fill-opacity="1" /><path clip-path="url(#clip250)" d="M1776.33 14.324 L1776.33 27.2059 L1791.68 27.2059 L1791.68 32.9987 L1776.33 32.9987 L1776.33 57.6282 Q1776.33 63.1779 1777.83 64.7578 Q1779.37 66.3376 1784.03 66.3376 L1791.68 66.3376 L1791.68 72.576 L1784.03 72.576 Q1775.4 72.576 1772.12 69.3758 Q1768.83 66.1351 1768.83 57.6282 L1768.83 32.9987 L1763.37 32.9987 L1763.37 27.2059 L1768.83 27.2059 L1768.83 14.324 L1776.33 14.324 Z" fill="#000000" fill-rule="nonzero" fill-opacity="1" /><path clip-path="url(#clip250)" d="M1835.07 65.7705 L1835.07 89.8329 L1827.57 89.8329 L1827.57 27.2059 L1835.07 27.2059 L1835.07 34.0924 Q1837.42 30.0415 1840.98 28.0971 Q1844.59 26.1121 1849.57 26.1121 Q1857.83 26.1121 1862.98 32.6746 Q1868.16 39.2371 1868.16 49.9314 Q1868.16 60.6258 1862.98 67.1883 Q1857.83 73.7508 1849.57 73.7508 Q1844.59 73.7508 1840.98 71.8063 Q1837.42 69.8214 1835.07 65.7705 M1860.43 49.9314 Q1860.43 41.7081 1857.02 37.0496 Q1853.66 32.3505 1847.75 32.3505 Q1841.83 32.3505 1838.43 37.0496 Q1835.07 41.7081 1835.07 49.9314 Q1835.07 58.1548 1838.43 62.8538 Q1841.83 67.5124 1847.75 67.5124 Q1853.66 67.5124 1857.02 62.8538 Q1860.43 58.1548 1860.43 49.9314 Z" fill="#000000" fill-rule="nonzero" fill-opacity="1" /><path clip-path="url(#clip250)" d="M1906.81 34.1734 Q1905.55 33.4443 1904.05 33.1202 Q1902.6 32.7556 1900.81 32.7556 Q1894.49 32.7556 1891.09 36.8875 Q1887.73 40.9789 1887.73 48.6757 L1887.73 72.576 L1880.23 72.576 L1880.23 27.2059 L1887.73 27.2059 L1887.73 34.2544 Q1890.08 30.1225 1893.85 28.1376 Q1897.61 26.1121 1903 26.1121 Q1903.77 26.1121 1904.7 26.2337 Q1905.63 26.3147 1906.77 26.5172 L1906.81 34.1734 Z" fill="#000000" fill-rule="nonzero" fill-opacity="1" /><path clip-path="url(#clip250)" d="M1914.63 27.2059 L1922.08 27.2059 L1922.08 72.576 L1914.63 72.576 L1914.63 27.2059 M1914.63 9.54393 L1922.08 9.54393 L1922.08 18.9825 L1914.63 18.9825 L1914.63 9.54393 Z" fill="#000000" fill-rule="nonzero" fill-opacity="1" /><path clip-path="url(#clip250)" d="M1955.26 32.4315 Q1949.26 32.4315 1945.78 37.1306 Q1942.29 41.7891 1942.29 49.9314 Q1942.29 58.0738 1945.74 62.7728 Q1949.22 67.4314 1955.26 67.4314 Q1961.21 67.4314 1964.7 62.7323 Q1968.18 58.0333 1968.18 49.9314 Q1968.18 41.8701 1964.7 37.1711 Q1961.21 32.4315 1955.26 32.4315 M1955.26 26.1121 Q1964.98 26.1121 1970.53 32.4315 Q1976.08 38.7509 1976.08 49.9314 Q1976.08 61.0714 1970.53 67.4314 Q1964.98 73.7508 1955.26 73.7508 Q1945.49 73.7508 1939.94 67.4314 Q1934.44 61.0714 1934.44 49.9314 Q1934.44 38.7509 1939.94 32.4315 Q1945.49 26.1121 1955.26 26.1121 Z" fill="#000000" fill-rule="nonzero" fill-opacity="1" /><path clip-path="url(#clip250)" d="M2014.72 34.1734 Q2013.47 33.4443 2011.97 33.1202 Q2010.51 32.7556 2008.73 32.7556 Q2002.41 32.7556 1999.01 36.8875 Q1995.64 40.9789 1995.64 48.6757 L1995.64 72.576 L1988.15 72.576 L1988.15 27.2059 L1995.64 27.2059 L1995.64 34.2544 Q1997.99 30.1225 2001.76 28.1376 Q2005.53 26.1121 2010.92 26.1121 Q2011.69 26.1121 2012.62 26.2337 Q2013.55 26.3147 2014.68 26.5172 L2014.72 34.1734 Z" fill="#000000" fill-rule="nonzero" fill-opacity="1" /><path clip-path="url(#clip252)" d="M753.089 1156.4 L753.089 1423.18 L886.394 1423.18 L886.394 1156.4 L753.089 1156.4 L753.089 1156.4  Z" fill="#009af9" fill-rule="evenodd" fill-opacity="1"/>
<polyline clip-path="url(#clip252)" style="stroke:#000000; stroke-linecap:round; stroke-linejoin:round; stroke-width:4; stroke-opacity:1; fill:none" points="753.089,1156.4 753.089,1423.18 886.394,1423.18 886.394,1156.4 753.089,1156.4 "/>
<path clip-path="url(#clip252)" d="M886.394 739.123 L886.394 1423.18 L1019.7 1423.18 L1019.7 739.123 L886.394 739.123 L886.394 739.123  Z" fill="#009af9" fill-rule="evenodd" fill-opacity="1"/>
<polyline clip-path="url(#clip252)" style="stroke:#000000; stroke-linecap:round; stroke-linejoin:round; stroke-width:4; stroke-opacity:1; fill:none" points="886.394,739.123 886.394,1423.18 1019.7,1423.18 1019.7,739.123 886.394,739.123 "/>
<path clip-path="url(#clip252)" d="M1019.7 561.268 L1019.7 1423.18 L1153.01 1423.18 L1153.01 561.268 L1019.7 561.268 L1019.7 561.268  Z" fill="#009af9" fill-rule="evenodd" fill-opacity="1"/>
<polyline clip-path="url(#clip252)" style="stroke:#000000; stroke-linecap:round; stroke-linejoin:round; stroke-width:4; stroke-opacity:1; fill:none" points="1019.7,561.268 1019.7,1423.18 1153.01,1423.18 1153.01,561.268 1019.7,561.268 "/>
<path clip-path="url(#clip252)" d="M1153.01 123.472 L1153.01 1423.18 L1286.31 1423.18 L1286.31 123.472 L1153.01 123.472 L1153.01 123.472  Z" fill="#009af9" fill-rule="evenodd" fill-opacity="1"/>
<polyline clip-path="url(#clip252)" style="stroke:#000000; stroke-linecap:round; stroke-linejoin:round; stroke-width:4; stroke-opacity:1; fill:none" points="1153.01,123.472 1153.01,1423.18 1286.31,1423.18 1286.31,123.472 1153.01,123.472 "/>
<path clip-path="url(#clip252)" d="M1286.31 315.008 L1286.31 1423.18 L1419.62 1423.18 L1419.62 315.008 L1286.31 315.008 L1286.31 315.008  Z" fill="#009af9" fill-rule="evenodd" fill-opacity="1"/>
<polyline clip-path="url(#clip252)" style="stroke:#000000; stroke-linecap:round; stroke-linejoin:round; stroke-width:4; stroke-opacity:1; fill:none" points="1286.31,315.008 1286.31,1423.18 1419.62,1423.18 1419.62,315.008 1286.31,315.008 "/>
<path clip-path="url(#clip252)" d="M1419.62 657.036 L1419.62 1423.18 L1552.92 1423.18 L1552.92 657.036 L1419.62 657.036 L1419.62 657.036  Z" fill="#009af9" fill-rule="evenodd" fill-opacity="1"/>
<polyline clip-path="url(#clip252)" style="stroke:#000000; stroke-linecap:round; stroke-linejoin:round; stroke-width:4; stroke-opacity:1; fill:none" points="1419.62,657.036 1419.62,1423.18 1552.92,1423.18 1552.92,657.036 1419.62,657.036 "/>
<path clip-path="url(#clip252)" d="M1552.92 964.862 L1552.92 1423.18 L1686.23 1423.18 L1686.23 964.862 L1552.92 964.862 L1552.92 964.862  Z" fill="#009af9" fill-rule="evenodd" fill-opacity="1"/>
<polyline clip-path="url(#clip252)" style="stroke:#000000; stroke-linecap:round; stroke-linejoin:round; stroke-width:4; stroke-opacity:1; fill:none" points="1552.92,964.862 1552.92,1423.18 1686.23,1423.18 1686.23,964.862 1552.92,964.862 "/>
<path clip-path="url(#clip252)" d="M1686.23 1204.28 L1686.23 1423.18 L1819.53 1423.18 L1819.53 1204.28 L1686.23 1204.28 L1686.23 1204.28  Z" fill="#009af9" fill-rule="evenodd" fill-opacity="1"/>
<polyline clip-path="url(#clip252)" style="stroke:#000000; stroke-linecap:round; stroke-linejoin:round; stroke-width:4; stroke-opacity:1; fill:none" points="1686.23,1204.28 1686.23,1423.18 1819.53,1423.18 1819.53,1204.28 1686.23,1204.28 "/>
<path clip-path="url(#clip252)" d="M1819.53 1300.05 L1819.53 1423.18 L1952.84 1423.18 L1952.84 1300.05 L1819.53 1300.05 L1819.53 1300.05  Z" fill="#009af9" fill-rule="evenodd" fill-opacity="1"/>
<polyline clip-path="url(#clip252)" style="stroke:#000000; stroke-linecap:round; stroke-linejoin:round; stroke-width:4; stroke-opacity:1; fill:none" points="1819.53,1300.05 1819.53,1423.18 1952.84,1423.18 1952.84,1300.05 1819.53,1300.05 "/>
<path clip-path="url(#clip252)" d="M1952.84 1334.25 L1952.84 1423.18 L2086.14 1423.18 L2086.14 1334.25 L1952.84 1334.25 L1952.84 1334.25  Z" fill="#009af9" fill-rule="evenodd" fill-opacity="1"/>
<polyline clip-path="url(#clip252)" style="stroke:#000000; stroke-linecap:round; stroke-linejoin:round; stroke-width:4; stroke-opacity:1; fill:none" points="1952.84,1334.25 1952.84,1423.18 2086.14,1423.18 2086.14,1334.25 1952.84,1334.25 "/>
<path clip-path="url(#clip252)" d="M2086.14 1402.66 L2086.14 1423.18 L2219.45 1423.18 L2219.45 1402.66 L2086.14 1402.66 L2086.14 1402.66  Z" fill="#009af9" fill-rule="evenodd" fill-opacity="1"/>
<polyline clip-path="url(#clip252)" style="stroke:#000000; stroke-linecap:round; stroke-linejoin:round; stroke-width:4; stroke-opacity:1; fill:none" points="2086.14,1402.66 2086.14,1423.18 2219.45,1423.18 2219.45,1402.66 2086.14,1402.66 "/>
<circle clip-path="url(#clip252)" style="fill:#009af9; stroke:none; fill-opacity:0" cx="819.741" cy="1156.4" r="2"/>
<circle clip-path="url(#clip252)" style="fill:#009af9; stroke:none; fill-opacity:0" cx="953.047" cy="739.123" r="2"/>
<circle clip-path="url(#clip252)" style="fill:#009af9; stroke:none; fill-opacity:0" cx="1086.35" cy="561.268" r="2"/>
<circle clip-path="url(#clip252)" style="fill:#009af9; stroke:none; fill-opacity:0" cx="1219.66" cy="123.472" r="2"/>
<circle clip-path="url(#clip252)" style="fill:#009af9; stroke:none; fill-opacity:0" cx="1352.96" cy="315.008" r="2"/>
<circle clip-path="url(#clip252)" style="fill:#009af9; stroke:none; fill-opacity:0" cx="1486.27" cy="657.036" r="2"/>
<circle clip-path="url(#clip252)" style="fill:#009af9; stroke:none; fill-opacity:0" cx="1619.58" cy="964.862" r="2"/>
<circle clip-path="url(#clip252)" style="fill:#009af9; stroke:none; fill-opacity:0" cx="1752.88" cy="1204.28" r="2"/>
<circle clip-path="url(#clip252)" style="fill:#009af9; stroke:none; fill-opacity:0" cx="1886.19" cy="1300.05" r="2"/>
<circle clip-path="url(#clip252)" style="fill:#009af9; stroke:none; fill-opacity:0" cx="2019.49" cy="1334.25" r="2"/>
<circle clip-path="url(#clip252)" style="fill:#009af9; stroke:none; fill-opacity:0" cx="2152.8" cy="1402.66" r="2"/>
<polyline clip-path="url(#clip252)" style="stroke:#ffffff; stroke-linecap:round; stroke-linejoin:round; stroke-width:12; stroke-opacity:1; fill:none" points="-40080.7,1423.18 -39618.4,1423.18 -39156,1423.18 -38693.6,1423.18 -38231.3,1423.18 -37768.9,1423.18 -37306.5,1423.18 -36844.2,1423.18 -36381.8,1423.18 -35919.4,1423.18 -35457.1,1423.18 -34994.7,1423.18 -34532.3,1423.18 -34070,1423.18 -33607.6,1423.18 -33145.2,1423.18 -32682.9,1423.18 -32220.5,1423.18 -31758.2,1423.18 -31295.8,1423.18 -30833.4,1423.18 -30371.1,1423.18 -29908.7,1423.18 -29446.3,1423.18 -28984,1423.18 -28521.6,1423.18 -28059.2,1423.18 -27596.9,1423.18 -27134.5,1423.18 -26672.1,1423.18 -26209.8,1423.18 -25747.4,1423.18 -25285,1423.18 -24822.7,1423.18 -24360.3,1423.18 -23897.9,1423.18 -23435.6,1423.18 -22973.2,1423.18 -22510.8,1423.18 -22048.5,1423.17 -21586.1,1423.18 -21123.7,1423.18 -20661.4,1423.18 -20199,1423.17 -19736.6,1423.17 -19274.3,1423.17 -18811.9,1423.17 -18349.5,1423.17 -17887.2,1423.17 -17424.8,1423.16 -16962.5,1423.17 -16500.1,1423.17 -16037.7,1423.17 -15575.4,1423.16 -15113,1423.16 -14650.6,1423.16 -14188.3,1423.16 -13725.9,1423.16 -13263.5,1423.16 -12801.2,1423.15 -12338.8,1423.15 -11876.4,1423.16 -11414.1,1423.14 -10951.7,1423.14 -10489.3,1423.14 -10027,1423.14 -9564.6,1423.12 -9102.24,1423.1 -8639.87,1423.09 -8177.51,1423.08 -7715.14,1423.05 -7252.77,1422.99 -6790.41,1422.93 -6328.04,1422.86 -5865.68,1422.74 -5403.31,1422.62 -4940.95,1422.38 -4478.58,1421.95 -4016.22,1421.25 -3553.85,1419.98 -3091.48,1417.86 -2629.12,1414.28 -2166.75,1408.03 -1704.39,1397.84 -1242.02,1381.25 -779.657,1356.08 -317.291,1319.64 145.075,1272.25 607.44,1220.67 1069.81,1185.32 1532.17,1188.44 1994.54,1227.35 2456.9,1279.4 2919.27,1326.58 3381.63,1360.47 3844,1384.16 4306.36,1399.94 4768.73,1409.3 5231.1,1415.04 5693.46,1418.36 6155.83,1420.39 6618.19,1421.35 7080.56,1422.06 7542.92,1422.46 8005.29,1422.68 8467.66,1422.76 8930.02,1422.89 9392.39,1423 9854.75,1423.02 10317.1,1423.06 10779.5,1423.08 11241.8,1423.07 11704.2,1423.1 12166.6,1423.13 12628.9,1423.14 13091.3,1423.15 13553.7,1423.15 14016,1423.15 14478.4,1423.15 14940.8,1423.15 15403.1,1423.15 15865.5,1423.16 16327.9,1423.16 16790.2,1423.16 17252.6,1423.17 17715,1423.16 18177.3,1423.17 18639.7,1423.17 19102.1,1423.17 19564.4,1423.17 20026.8,1423.17 20489.2,1423.17 20951.5,1423.17 21413.9,1423.18 21876.3,1423.17 22338.6,1423.17 22801,1423.18 23263.4,1423.18 23725.7,1423.18 24188.1,1423.18 24650.5,1423.18 25112.8,1423.18 25575.2,1423.18 26037.5,1423.18 26499.9,1423.18 26962.3,1423.18 27424.6,1423.18 27887,1423.18 28349.4,1423.18 28811.7,1423.18 29274.1,1423.18 29736.5,1423.18 30198.8,1423.18 30661.2,1423.18 31123.6,1423.18 31585.9,1423.18 32048.3,1423.18 32510.7,1423.18 32973,1423.18 33435.4,1423.18 33897.8,1423.18 34360.1,1423.18 34822.5,1423.18 35284.9,1423.18 35747.2,1423.18 36209.6,1423.18 36672,1423.18 37134.3,1423.18 37596.7,1423.18 38059.1,1423.18 38521.4,1423.18 38983.8,1423.18 39446.1,1423.18 39908.5,1423.18 40370.9,1423.18 40833.2,1423.18 41295.6,1423.18 41758,1423.18 42220.3,1423.18 42682.7,1423.18 43145.1,1423.18 43607.4,1423.18 44069.8,1423.18 44532.2,1423.18 44994.5,1423.18 45456.9,1423.18 45919.3,1423.18 46381.6,1423.18 46844,1423.18 47306.4,1423.18 47768.7,1423.18 48231.1,1423.18 48693.5,1423.18 49155.8,1423.18 49618.2,1423.18 50080.6,1423.18 50542.9,1423.18 51005.3,1423.18 51467.7,1423.18 51930,1423.18 "/>
<path clip-path="url(#clip252)" d="M-40080.7 1423.18 L-39618.4 1423.18 L-39156 1423.18 L-38693.6 1423.18 L-38231.3 1423.18 L-37768.9 1423.18 L-37306.5 1423.18 L-36844.2 1423.18 L-36381.8 1423.18 L-35919.4 1423.18 L-35457.1 1423.18 L-34994.7 1423.18 L-34532.3 1423.18 L-34070 1423.18 L-33607.6 1423.18 L-33145.2 1423.18 L-32682.9 1423.18 L-32220.5 1423.18 L-31758.2 1423.18 L-31295.8 1423.18 L-30833.4 1423.18 L-30371.1 1423.18 L-29908.7 1423.18 L-29446.3 1423.18 L-28984 1423.18 L-28521.6 1423.18 L-28059.2 1423.18 L-27596.9 1423.18 L-27134.5 1423.18 L-26672.1 1423.18 L-26209.8 1423.18 L-25747.4 1423.18 L-25285 1423.18 L-24822.7 1423.18 L-24360.3 1423.18 L-23897.9 1423.18 L-23435.6 1423.18 L-22973.2 1423.18 L-22510.8 1423.18 L-22048.5 1423.17 L-21586.1 1423.18 L-21123.7 1423.18 L-20661.4 1423.18 L-20199 1423.17 L-19736.6 1423.17 L-19274.3 1423.17 L-18811.9 1423.17 L-18349.5 1423.17 L-17887.2 1423.17 L-17424.8 1423.16 L-16962.5 1423.17 L-16500.1 1423.17 L-16037.7 1423.17 L-15575.4 1423.16 L-15113 1423.16 L-14650.6 1423.16 L-14188.3 1423.16 L-13725.9 1423.16 L-13263.5 1423.16 L-12801.2 1423.15 L-12338.8 1423.15 L-11876.4 1423.16 L-11414.1 1423.14 L-10951.7 1423.14 L-10489.3 1423.14 L-10027 1423.14 L-9564.6 1423.12 L-9102.24 1423.1 L-8639.87 1423.09 L-8177.51 1423.08 L-7715.14 1423.05 L-7252.77 1422.99 L-6790.41 1422.93 L-6328.04 1422.86 L-5865.68 1422.74 L-5403.31 1422.62 L-4940.95 1422.38 L-4478.58 1421.95 L-4016.22 1421.25 L-3553.85 1419.98 L-3091.48 1417.86 L-2629.12 1414.28 L-2166.75 1408.03 L-1704.39 1397.84 L-1242.02 1381.25 L-779.657 1356.08 L-317.291 1319.64 L145.075 1272.25 L607.44 1220.67 L1069.81 1185.32 L1532.17 1188.44 L1994.54 1227.35 L2456.9 1279.4 L2919.27 1326.58 L3381.63 1360.47 L3844 1384.16 L4306.36 1399.94 L4768.73 1409.3 L5231.1 1415.04 L5693.46 1418.36 L6155.83 1420.39 L6618.19 1421.35 L7080.56 1422.06 L7542.92 1422.46 L8005.29 1422.68 L8467.66 1422.76 L8930.02 1422.89 L9392.39 1423 L9854.75 1423.02 L10317.1 1423.06 L10779.5 1423.08 L11241.8 1423.07 L11704.2 1423.1 L12166.6 1423.13 L12628.9 1423.14 L13091.3 1423.15 L13553.7 1423.15 L14016 1423.15 L14478.4 1423.15 L14940.8 1423.15 L15403.1 1423.15 L15865.5 1423.16 L16327.9 1423.16 L16790.2 1423.16 L17252.6 1423.17 L17715 1423.16 L18177.3 1423.17 L18639.7 1423.17 L19102.1 1423.17 L19564.4 1423.17 L20026.8 1423.17 L20489.2 1423.17 L20951.5 1423.17 L21413.9 1423.18 L21876.3 1423.17 L22338.6 1423.17 L22801 1423.18 L23263.4 1423.18 L23725.7 1423.18 L24188.1 1423.18 L24650.5 1423.18 L25112.8 1423.18 L25575.2 1423.18 L26037.5 1423.18 L26499.9 1423.18 L26962.3 1423.18 L27424.6 1423.18 L27887 1423.18 L28349.4 1423.18 L28811.7 1423.18 L29274.1 1423.18 L29736.5 1423.18 L30198.8 1423.18 L30661.2 1423.18 L31123.6 1423.18 L31585.9 1423.18 L32048.3 1423.18 L32510.7 1423.18 L32973 1423.18 L33435.4 1423.18 L33897.8 1423.18 L34360.1 1423.18 L34822.5 1423.18 L35284.9 1423.18 L35747.2 1423.18 L36209.6 1423.18 L36672 1423.18 L37134.3 1423.18 L37596.7 1423.18 L38059.1 1423.18 L38521.4 1423.18 L38983.8 1423.18 L39446.1 1423.18 L39908.5 1423.18 L40370.9 1423.18 L40833.2 1423.18 L41295.6 1423.18 L41758 1423.18 L42220.3 1423.18 L42682.7 1423.18 L43145.1 1423.18 L43607.4 1423.18 L44069.8 1423.18 L44532.2 1423.18 L44994.5 1423.18 L45456.9 1423.18 L45919.3 1423.18 L46381.6 1423.18 L46844 1423.18 L47306.4 1423.18 L47768.7 1423.18 L48231.1 1423.18 L48693.5 1423.18 L49155.8 1423.18 L49618.2 1423.18 L50080.6 1423.18 L50542.9 1423.18 L51005.3 1423.18 L51467.7 1423.18 L51930 1423.18 L51930 1423.18 L51467.7 1423.18 L51005.3 1423.18 L50542.9 1423.18 L50080.6 1423.18 L49618.2 1423.18 L49155.8 1423.18 L48693.5 1423.18 L48231.1 1423.18 L47768.7 1423.18 L47306.4 1423.18 L46844 1423.18 L46381.6 1423.18 L45919.3 1423.18 L45456.9 1423.18 L44994.5 1423.18 L44532.2 1423.18 L44069.8 1423.18 L43607.4 1423.18 L43145.1 1423.18 L42682.7 1423.18 L42220.3 1423.18 L41758 1423.18 L41295.6 1423.18 L40833.2 1423.18 L40370.9 1423.18 L39908.5 1423.18 L39446.1 1423.18 L38983.8 1423.18 L38521.4 1423.18 L38059.1 1423.18 L37596.7 1423.18 L37134.3 1423.18 L36672 1423.18 L36209.6 1423.18 L35747.2 1423.18 L35284.9 1423.18 L34822.5 1423.18 L34360.1 1423.18 L33897.8 1423.18 L33435.4 1423.18 L32973 1423.18 L32510.7 1423.18 L32048.3 1423.18 L31585.9 1423.18 L31123.6 1423.18 L30661.2 1423.18 L30198.8 1423.18 L29736.5 1423.18 L29274.1 1423.18 L28811.7 1423.18 L28349.4 1423.18 L27887 1423.18 L27424.6 1423.18 L26962.3 1423.18 L26499.9 1423.18 L26037.5 1423.18 L25575.2 1423.18 L25112.8 1423.18 L24650.5 1423.18 L24188.1 1423.18 L23725.7 1423.18 L23263.4 1423.18 L22801 1423.18 L22338.6 1423.18 L21876.3 1423.18 L21413.9 1423.18 L20951.5 1423.18 L20489.2 1423.18 L20026.8 1423.18 L19564.4 1423.18 L19102.1 1423.18 L18639.7 1423.18 L18177.3 1423.18 L17715 1423.18 L17252.6 1423.18 L16790.2 1423.18 L16327.9 1423.18 L15865.5 1423.18 L15403.1 1423.18 L14940.8 1423.18 L14478.4 1423.18 L14016 1423.18 L13553.7 1423.18 L13091.3 1423.18 L12628.9 1423.18 L12166.6 1423.18 L11704.2 1423.18 L11241.8 1423.18 L10779.5 1423.18 L10317.1 1423.18 L9854.75 1423.18 L9392.39 1423.18 L8930.02 1423.18 L8467.66 1423.18 L8005.29 1423.18 L7542.92 1423.18 L7080.56 1423.18 L6618.19 1423.18 L6155.83 1423.18 L5693.46 1423.18 L5231.1 1423.18 L4768.73 1423.18 L4306.36 1423.18 L3844 1423.18 L3381.63 1423.18 L2919.27 1423.18 L2456.9 1423.18 L1994.54 1423.18 L1532.17 1423.18 L1069.81 1423.18 L607.44 1423.18 L145.075 1423.18 L-317.291 1423.18 L-779.657 1423.18 L-1242.02 1423.18 L-1704.39 1423.18 L-2166.75 1423.18 L-2629.12 1423.18 L-3091.48 1423.18 L-3553.85 1423.18 L-4016.22 1423.18 L-4478.58 1423.18 L-4940.95 1423.18 L-5403.31 1423.18 L-5865.68 1423.18 L-6328.04 1423.18 L-6790.41 1423.18 L-7252.77 1423.18 L-7715.14 1423.18 L-8177.51 1423.18 L-8639.87 1423.18 L-9102.24 1423.18 L-9564.6 1423.18 L-10027 1423.18 L-10489.3 1423.18 L-10951.7 1423.18 L-11414.1 1423.18 L-11876.4 1423.18 L-12338.8 1423.18 L-12801.2 1423.18 L-13263.5 1423.18 L-13725.9 1423.18 L-14188.3 1423.18 L-14650.6 1423.18 L-15113 1423.18 L-15575.4 1423.18 L-16037.7 1423.18 L-16500.1 1423.18 L-16962.5 1423.18 L-17424.8 1423.18 L-17887.2 1423.18 L-18349.5 1423.18 L-18811.9 1423.18 L-19274.3 1423.18 L-19736.6 1423.18 L-20199 1423.18 L-20661.4 1423.18 L-21123.7 1423.18 L-21586.1 1423.18 L-22048.5 1423.18 L-22510.8 1423.18 L-22973.2 1423.18 L-23435.6 1423.18 L-23897.9 1423.18 L-24360.3 1423.18 L-24822.7 1423.18 L-25285 1423.18 L-25747.4 1423.18 L-26209.8 1423.18 L-26672.1 1423.18 L-27134.5 1423.18 L-27596.9 1423.18 L-28059.2 1423.18 L-28521.6 1423.18 L-28984 1423.18 L-29446.3 1423.18 L-29908.7 1423.18 L-30371.1 1423.18 L-30833.4 1423.18 L-31295.8 1423.18 L-31758.2 1423.18 L-32220.5 1423.18 L-32682.9 1423.18 L-33145.2 1423.18 L-33607.6 1423.18 L-34070 1423.18 L-34532.3 1423.18 L-34994.7 1423.18 L-35457.1 1423.18 L-35919.4 1423.18 L-36381.8 1423.18 L-36844.2 1423.18 L-37306.5 1423.18 L-37768.9 1423.18 L-38231.3 1423.18 L-38693.6 1423.18 L-39156 1423.18 L-39618.4 1423.18 L-40080.7 1423.18  Z" fill="#e26f46" fill-rule="evenodd" fill-opacity="0.2"/>
<polyline clip-path="url(#clip252)" style="stroke:#e26f46; stroke-linecap:round; stroke-linejoin:round; stroke-width:4; stroke-opacity:1; fill:none" points="-40080.7,1423.18 -39618.4,1423.18 -39156,1423.18 -38693.6,1423.18 -38231.3,1423.18 -37768.9,1423.18 -37306.5,1423.18 -36844.2,1423.18 -36381.8,1423.18 -35919.4,1423.18 -35457.1,1423.18 -34994.7,1423.18 -34532.3,1423.18 -34070,1423.18 -33607.6,1423.18 -33145.2,1423.18 -32682.9,1423.18 -32220.5,1423.18 -31758.2,1423.18 -31295.8,1423.18 -30833.4,1423.18 -30371.1,1423.18 -29908.7,1423.18 -29446.3,1423.18 -28984,1423.18 -28521.6,1423.18 -28059.2,1423.18 -27596.9,1423.18 -27134.5,1423.18 -26672.1,1423.18 -26209.8,1423.18 -25747.4,1423.18 -25285,1423.18 -24822.7,1423.18 -24360.3,1423.18 -23897.9,1423.18 -23435.6,1423.18 -22973.2,1423.18 -22510.8,1423.18 -22048.5,1423.17 -21586.1,1423.18 -21123.7,1423.18 -20661.4,1423.18 -20199,1423.17 -19736.6,1423.17 -19274.3,1423.17 -18811.9,1423.17 -18349.5,1423.17 -17887.2,1423.17 -17424.8,1423.16 -16962.5,1423.17 -16500.1,1423.17 -16037.7,1423.17 -15575.4,1423.16 -15113,1423.16 -14650.6,1423.16 -14188.3,1423.16 -13725.9,1423.16 -13263.5,1423.16 -12801.2,1423.15 -12338.8,1423.15 -11876.4,1423.16 -11414.1,1423.14 -10951.7,1423.14 -10489.3,1423.14 -10027,1423.14 -9564.6,1423.12 -9102.24,1423.1 -8639.87,1423.09 -8177.51,1423.08 -7715.14,1423.05 -7252.77,1422.99 -6790.41,1422.93 -6328.04,1422.86 -5865.68,1422.74 -5403.31,1422.62 -4940.95,1422.38 -4478.58,1421.95 -4016.22,1421.25 -3553.85,1419.98 -3091.48,1417.86 -2629.12,1414.28 -2166.75,1408.03 -1704.39,1397.84 -1242.02,1381.25 -779.657,1356.08 -317.291,1319.64 145.075,1272.25 607.44,1220.67 1069.81,1185.32 1532.17,1188.44 1994.54,1227.35 2456.9,1279.4 2919.27,1326.58 3381.63,1360.47 3844,1384.16 4306.36,1399.94 4768.73,1409.3 5231.1,1415.04 5693.46,1418.36 6155.83,1420.39 6618.19,1421.35 7080.56,1422.06 7542.92,1422.46 8005.29,1422.68 8467.66,1422.76 8930.02,1422.89 9392.39,1423 9854.75,1423.02 10317.1,1423.06 10779.5,1423.08 11241.8,1423.07 11704.2,1423.1 12166.6,1423.13 12628.9,1423.14 13091.3,1423.15 13553.7,1423.15 14016,1423.15 14478.4,1423.15 14940.8,1423.15 15403.1,1423.15 15865.5,1423.16 16327.9,1423.16 16790.2,1423.16 17252.6,1423.17 17715,1423.16 18177.3,1423.17 18639.7,1423.17 19102.1,1423.17 19564.4,1423.17 20026.8,1423.17 20489.2,1423.17 20951.5,1423.17 21413.9,1423.18 21876.3,1423.17 22338.6,1423.17 22801,1423.18 23263.4,1423.18 23725.7,1423.18 24188.1,1423.18 24650.5,1423.18 25112.8,1423.18 25575.2,1423.18 26037.5,1423.18 26499.9,1423.18 26962.3,1423.18 27424.6,1423.18 27887,1423.18 28349.4,1423.18 28811.7,1423.18 29274.1,1423.18 29736.5,1423.18 30198.8,1423.18 30661.2,1423.18 31123.6,1423.18 31585.9,1423.18 32048.3,1423.18 32510.7,1423.18 32973,1423.18 33435.4,1423.18 33897.8,1423.18 34360.1,1423.18 34822.5,1423.18 35284.9,1423.18 35747.2,1423.18 36209.6,1423.18 36672,1423.18 37134.3,1423.18 37596.7,1423.18 38059.1,1423.18 38521.4,1423.18 38983.8,1423.18 39446.1,1423.18 39908.5,1423.18 40370.9,1423.18 40833.2,1423.18 41295.6,1423.18 41758,1423.18 42220.3,1423.18 42682.7,1423.18 43145.1,1423.18 43607.4,1423.18 44069.8,1423.18 44532.2,1423.18 44994.5,1423.18 45456.9,1423.18 45919.3,1423.18 46381.6,1423.18 46844,1423.18 47306.4,1423.18 47768.7,1423.18 48231.1,1423.18 48693.5,1423.18 49155.8,1423.18 49618.2,1423.18 50080.6,1423.18 50542.9,1423.18 51005.3,1423.18 51467.7,1423.18 51930,1423.18 "/>
</svg>
