<?xml version="1.0" encoding="utf-8"?>
<svg xmlns="http://www.w3.org/2000/svg" xmlns:xlink="http://www.w3.org/1999/xlink" width="600" height="400" viewBox="0 0 2400 1600">
<defs>
  <clipPath id="clip340">
    <rect x="0" y="0" width="2400" height="1600"/>
  </clipPath>
</defs>
<path clip-path="url(#clip340)" d="M0 1600 L2400 1600 L2400 0 L0 0  Z" fill="#ffffff" fill-rule="evenodd" fill-opacity="1"/>
<defs>
  <clipPath id="clip341">
    <rect x="480" y="0" width="1681" height="1600"/>
  </clipPath>
</defs>
<path clip-path="url(#clip340)" d="M219.866 1423.18 L2352.76 1423.18 L2352.76 123.472 L219.866 123.472  Z" fill="#ffffff" fill-rule="evenodd" fill-opacity="1"/>
<defs>
  <clipPath id="clip342">
    <rect x="219" y="123" width="2134" height="1301"/>
  </clipPath>
</defs>
<polyline clip-path="url(#clip342)" style="stroke:#000000; stroke-linecap:round; stroke-linejoin:round; stroke-width:2; stroke-opacity:0.1; fill:none" points="219.866,1423.18 219.866,123.472 "/>
<polyline clip-path="url(#clip342)" style="stroke:#000000; stroke-linecap:round; stroke-linejoin:round; stroke-width:2; stroke-opacity:0.1; fill:none" points="753.089,1423.18 753.089,123.472 "/>
<polyline clip-path="url(#clip342)" style="stroke:#000000; stroke-linecap:round; stroke-linejoin:round; stroke-width:2; stroke-opacity:0.1; fill:none" points="1286.31,1423.18 1286.31,123.472 "/>
<polyline clip-path="url(#clip342)" style="stroke:#000000; stroke-linecap:round; stroke-linejoin:round; stroke-width:2; stroke-opacity:0.1; fill:none" points="1819.53,1423.18 1819.53,123.472 "/>
<polyline clip-path="url(#clip342)" style="stroke:#000000; stroke-linecap:round; stroke-linejoin:round; stroke-width:2; stroke-opacity:0.1; fill:none" points="2352.76,1423.18 2352.76,123.472 "/>
<polyline clip-path="url(#clip340)" style="stroke:#000000; stroke-linecap:round; stroke-linejoin:round; stroke-width:4; stroke-opacity:1; fill:none" points="219.866,1423.18 2352.76,1423.18 "/>
<polyline clip-path="url(#clip340)" style="stroke:#000000; stroke-linecap:round; stroke-linejoin:round; stroke-width:4; stroke-opacity:1; fill:none" points="219.866,1423.18 219.866,1404.28 "/>
<polyline clip-path="url(#clip340)" style="stroke:#000000; stroke-linecap:round; stroke-linejoin:round; stroke-width:4; stroke-opacity:1; fill:none" points="753.089,1423.18 753.089,1404.28 "/>
<polyline clip-path="url(#clip340)" style="stroke:#000000; stroke-linecap:round; stroke-linejoin:round; stroke-width:4; stroke-opacity:1; fill:none" points="1286.31,1423.18 1286.31,1404.28 "/>
<polyline clip-path="url(#clip340)" style="stroke:#000000; stroke-linecap:round; stroke-linejoin:round; stroke-width:4; stroke-opacity:1; fill:none" points="1819.53,1423.18 1819.53,1404.28 "/>
<polyline clip-path="url(#clip340)" style="stroke:#000000; stroke-linecap:round; stroke-linejoin:round; stroke-width:4; stroke-opacity:1; fill:none" points="2352.76,1423.18 2352.76,1404.28 "/>
<path clip-path="url(#clip340)" d="M188.767 1468.75 L218.443 1468.75 L218.443 1472.69 L188.767 1472.69 L188.767 1468.75 Z" fill="#000000" fill-rule="nonzero" fill-opacity="1" /><path clip-path="url(#clip340)" d="M241.382 1455.09 L229.577 1473.54 L241.382 1473.54 L241.382 1455.09 M240.156 1451.02 L246.035 1451.02 L246.035 1473.54 L250.966 1473.54 L250.966 1477.43 L246.035 1477.43 L246.035 1485.58 L241.382 1485.58 L241.382 1477.43 L225.781 1477.43 L225.781 1472.92 L240.156 1451.02 Z" fill="#000000" fill-rule="nonzero" fill-opacity="1" /><path clip-path="url(#clip340)" d="M723.031 1468.75 L752.707 1468.75 L752.707 1472.69 L723.031 1472.69 L723.031 1468.75 Z" fill="#000000" fill-rule="nonzero" fill-opacity="1" /><path clip-path="url(#clip340)" d="M766.827 1481.64 L783.146 1481.64 L783.146 1485.58 L761.202 1485.58 L761.202 1481.64 Q763.864 1478.89 768.447 1474.26 Q773.054 1469.61 774.234 1468.27 Q776.48 1465.74 777.359 1464.01 Q778.262 1462.25 778.262 1460.56 Q778.262 1457.8 776.318 1456.07 Q774.396 1454.33 771.295 1454.33 Q769.096 1454.33 766.642 1455.09 Q764.211 1455.86 761.434 1457.41 L761.434 1452.69 Q764.258 1451.55 766.711 1450.97 Q769.165 1450.39 771.202 1450.39 Q776.572 1450.39 779.767 1453.08 Q782.961 1455.77 782.961 1460.26 Q782.961 1462.39 782.151 1464.31 Q781.364 1466.2 779.258 1468.8 Q778.679 1469.47 775.577 1472.69 Q772.475 1475.88 766.827 1481.64 Z" fill="#000000" fill-rule="nonzero" fill-opacity="1" /><path clip-path="url(#clip340)" d="M1286.31 1454.1 Q1282.7 1454.1 1280.87 1457.66 Q1279.07 1461.2 1279.07 1468.33 Q1279.07 1475.44 1280.87 1479.01 Q1282.7 1482.55 1286.31 1482.55 Q1289.95 1482.55 1291.75 1479.01 Q1293.58 1475.44 1293.58 1468.33 Q1293.58 1461.2 1291.75 1457.66 Q1289.95 1454.1 1286.31 1454.1 M1286.31 1450.39 Q1292.12 1450.39 1295.18 1455 Q1298.26 1459.58 1298.26 1468.33 Q1298.26 1477.06 1295.18 1481.67 Q1292.12 1486.25 1286.31 1486.25 Q1280.5 1486.25 1277.42 1481.67 Q1274.37 1477.06 1274.37 1468.33 Q1274.37 1459.58 1277.42 1455 Q1280.5 1450.39 1286.31 1450.39 Z" fill="#000000" fill-rule="nonzero" fill-opacity="1" /><path clip-path="url(#clip340)" d="M1814.19 1481.64 L1830.51 1481.64 L1830.51 1485.58 L1808.56 1485.58 L1808.56 1481.64 Q1811.22 1478.89 1815.81 1474.26 Q1820.41 1469.61 1821.59 1468.27 Q1823.84 1465.74 1824.72 1464.01 Q1825.62 1462.25 1825.62 1460.56 Q1825.62 1457.8 1823.68 1456.07 Q1821.76 1454.33 1818.65 1454.33 Q1816.45 1454.33 1814 1455.09 Q1811.57 1455.86 1808.79 1457.41 L1808.79 1452.69 Q1811.62 1451.55 1814.07 1450.97 Q1816.52 1450.39 1818.56 1450.39 Q1823.93 1450.39 1827.13 1453.08 Q1830.32 1455.77 1830.32 1460.26 Q1830.32 1462.39 1829.51 1464.31 Q1828.72 1466.2 1826.62 1468.8 Q1826.04 1469.47 1822.94 1472.69 Q1819.83 1475.88 1814.19 1481.64 Z" fill="#000000" fill-rule="nonzero" fill-opacity="1" /><path clip-path="url(#clip340)" d="M2355.77 1455.09 L2343.96 1473.54 L2355.77 1473.54 L2355.77 1455.09 M2354.54 1451.02 L2360.42 1451.02 L2360.42 1473.54 L2365.35 1473.54 L2365.35 1477.43 L2360.42 1477.43 L2360.42 1485.58 L2355.77 1485.58 L2355.77 1477.43 L2340.16 1477.43 L2340.16 1472.92 L2354.54 1451.02 Z" fill="#000000" fill-rule="nonzero" fill-opacity="1" /><path clip-path="url(#clip340)" d="M885.319 1532.4 L913.137 1532.4 L913.137 1537.74 L891.112 1563.37 L913.137 1563.37 L913.137 1568.04 L884.524 1568.04 L884.524 1562.7 L906.549 1537.07 L885.319 1537.07 L885.319 1532.4 Z" fill="#000000" fill-rule="nonzero" fill-opacity="1" /><path clip-path="url(#clip340)" d="M919.121 1547.58 L936.277 1547.58 L936.277 1552.8 L919.121 1552.8 L919.121 1547.58 Z" fill="#000000" fill-rule="nonzero" fill-opacity="1" /><path clip-path="url(#clip340)" d="M968.328 1533.45 L968.328 1538.98 Q965.845 1537.71 963.172 1537.07 Q960.498 1536.44 957.634 1536.44 Q953.273 1536.44 951.077 1537.77 Q948.913 1539.11 948.913 1541.79 Q948.913 1543.82 950.472 1545 Q952.032 1546.15 956.743 1547.2 L958.748 1547.64 Q964.986 1548.98 967.596 1551.43 Q970.238 1553.85 970.238 1558.21 Q970.238 1563.17 966.291 1566.07 Q962.376 1568.97 955.501 1568.97 Q952.637 1568.97 949.517 1568.39 Q946.43 1567.85 942.993 1566.74 L942.993 1560.69 Q946.239 1562.38 949.39 1563.24 Q952.541 1564.07 955.629 1564.07 Q959.766 1564.07 961.994 1562.66 Q964.222 1561.23 964.222 1558.65 Q964.222 1556.27 962.599 1554.99 Q961.008 1553.72 955.565 1552.54 L953.528 1552.07 Q948.085 1550.92 945.666 1548.56 Q943.247 1546.18 943.247 1542.04 Q943.247 1537.01 946.812 1534.27 Q950.377 1531.54 956.934 1531.54 Q960.18 1531.54 963.045 1532.01 Q965.909 1532.49 968.328 1533.45 Z" fill="#000000" fill-rule="nonzero" fill-opacity="1" /><path clip-path="url(#clip340)" d="M985.356 1522.27 L985.356 1532.4 L997.419 1532.4 L997.419 1536.95 L985.356 1536.95 L985.356 1556.3 Q985.356 1560.66 986.534 1561.9 Q987.744 1563.14 991.404 1563.14 L997.419 1563.14 L997.419 1568.04 L991.404 1568.04 Q984.624 1568.04 982.046 1565.53 Q979.468 1562.98 979.468 1556.3 L979.468 1536.95 L975.171 1536.95 L975.171 1532.4 L979.468 1532.4 L979.468 1522.27 L985.356 1522.27 Z" fill="#000000" fill-rule="nonzero" fill-opacity="1" /><path clip-path="url(#clip340)" d="M1021.32 1550.12 Q1014.22 1550.12 1011.49 1551.75 Q1008.75 1553.37 1008.75 1557.29 Q1008.75 1560.4 1010.79 1562.25 Q1012.86 1564.07 1016.39 1564.07 Q1021.26 1564.07 1024.19 1560.63 Q1027.15 1557.16 1027.15 1551.43 L1027.15 1550.12 L1021.32 1550.12 M1033 1547.71 L1033 1568.04 L1027.15 1568.04 L1027.15 1562.63 Q1025.14 1565.88 1022.15 1567.44 Q1019.16 1568.97 1014.83 1568.97 Q1009.36 1568.97 1006.11 1565.91 Q1002.89 1562.82 1002.89 1557.67 Q1002.89 1551.65 1006.9 1548.6 Q1010.95 1545.54 1018.94 1545.54 L1027.15 1545.54 L1027.15 1544.97 Q1027.15 1540.93 1024.47 1538.73 Q1021.83 1536.5 1017.03 1536.5 Q1013.97 1536.5 1011.07 1537.23 Q1008.18 1537.97 1005.5 1539.43 L1005.5 1534.02 Q1008.72 1532.78 1011.74 1532.17 Q1014.77 1531.54 1017.63 1531.54 Q1025.36 1531.54 1029.18 1535.55 Q1033 1539.56 1033 1547.71 Z" fill="#000000" fill-rule="nonzero" fill-opacity="1" /><path clip-path="url(#clip340)" d="M1074.7 1546.53 L1074.7 1568.04 L1068.84 1568.04 L1068.84 1546.72 Q1068.84 1541.66 1066.87 1539.14 Q1064.9 1536.63 1060.95 1536.63 Q1056.21 1536.63 1053.47 1539.65 Q1050.73 1542.68 1050.73 1547.9 L1050.73 1568.04 L1044.84 1568.04 L1044.84 1532.4 L1050.73 1532.4 L1050.73 1537.93 Q1052.83 1534.72 1055.67 1533.13 Q1058.53 1531.54 1062.25 1531.54 Q1068.4 1531.54 1071.55 1535.36 Q1074.7 1539.14 1074.7 1546.53 Z" fill="#000000" fill-rule="nonzero" fill-opacity="1" /><path clip-path="url(#clip340)" d="M1109.84 1537.81 L1109.84 1518.52 L1115.69 1518.52 L1115.69 1568.04 L1109.84 1568.04 L1109.84 1562.7 Q1107.99 1565.88 1105.16 1567.44 Q1102.36 1568.97 1098.41 1568.97 Q1091.95 1568.97 1087.88 1563.81 Q1083.83 1558.65 1083.83 1550.25 Q1083.83 1541.85 1087.88 1536.69 Q1091.95 1531.54 1098.41 1531.54 Q1102.36 1531.54 1105.16 1533.1 Q1107.99 1534.62 1109.84 1537.81 M1089.88 1550.25 Q1089.88 1556.71 1092.52 1560.4 Q1095.2 1564.07 1099.84 1564.07 Q1104.49 1564.07 1107.16 1560.4 Q1109.84 1556.71 1109.84 1550.25 Q1109.84 1543.79 1107.16 1540.13 Q1104.49 1536.44 1099.84 1536.44 Q1095.2 1536.44 1092.52 1540.13 Q1089.88 1543.79 1089.88 1550.25 Z" fill="#000000" fill-rule="nonzero" fill-opacity="1" /><path clip-path="url(#clip340)" d="M1143.96 1550.12 Q1136.86 1550.12 1134.12 1551.75 Q1131.39 1553.37 1131.39 1557.29 Q1131.39 1560.4 1133.42 1562.25 Q1135.49 1564.07 1139.02 1564.07 Q1143.89 1564.07 1146.82 1560.63 Q1149.78 1557.16 1149.78 1551.43 L1149.78 1550.12 L1143.96 1550.12 M1155.64 1547.71 L1155.64 1568.04 L1149.78 1568.04 L1149.78 1562.63 Q1147.78 1565.88 1144.79 1567.44 Q1141.79 1568.97 1137.46 1568.97 Q1131.99 1568.97 1128.74 1565.91 Q1125.53 1562.82 1125.53 1557.67 Q1125.53 1551.65 1129.54 1548.6 Q1133.58 1545.54 1141.57 1545.54 L1149.78 1545.54 L1149.78 1544.97 Q1149.78 1540.93 1147.11 1538.73 Q1144.47 1536.5 1139.66 1536.5 Q1136.61 1536.5 1133.71 1537.23 Q1130.81 1537.97 1128.14 1539.43 L1128.14 1534.02 Q1131.35 1532.78 1134.38 1532.17 Q1137.4 1531.54 1140.27 1531.54 Q1148 1531.54 1151.82 1535.55 Q1155.64 1539.56 1155.64 1547.71 Z" fill="#000000" fill-rule="nonzero" fill-opacity="1" /><path clip-path="url(#clip340)" d="M1188.36 1537.87 Q1187.37 1537.3 1186.19 1537.04 Q1185.05 1536.76 1183.65 1536.76 Q1178.68 1536.76 1176.01 1540 Q1173.37 1543.22 1173.37 1549.27 L1173.37 1568.04 L1167.48 1568.04 L1167.48 1532.4 L1173.37 1532.4 L1173.37 1537.93 Q1175.21 1534.69 1178.17 1533.13 Q1181.13 1531.54 1185.37 1531.54 Q1185.97 1531.54 1186.7 1531.63 Q1187.44 1531.7 1188.33 1531.85 L1188.36 1537.87 Z" fill="#000000" fill-rule="nonzero" fill-opacity="1" /><path clip-path="url(#clip340)" d="M1216.81 1537.81 L1216.81 1518.52 L1222.67 1518.52 L1222.67 1568.04 L1216.81 1568.04 L1216.81 1562.7 Q1214.97 1565.88 1212.13 1567.44 Q1209.33 1568.97 1205.39 1568.97 Q1198.93 1568.97 1194.85 1563.81 Q1190.81 1558.65 1190.81 1550.25 Q1190.81 1541.85 1194.85 1536.69 Q1198.93 1531.54 1205.39 1531.54 Q1209.33 1531.54 1212.13 1533.1 Q1214.97 1534.62 1216.81 1537.81 M1196.86 1550.25 Q1196.86 1556.71 1199.5 1560.4 Q1202.17 1564.07 1206.82 1564.07 Q1211.47 1564.07 1214.14 1560.4 Q1216.81 1556.71 1216.81 1550.25 Q1216.81 1543.79 1214.14 1540.13 Q1211.47 1536.44 1206.82 1536.44 Q1202.17 1536.44 1199.5 1540.13 Q1196.86 1543.79 1196.86 1550.25 Z" fill="#000000" fill-rule="nonzero" fill-opacity="1" /><path clip-path="url(#clip340)" d="M1234.73 1532.4 L1240.59 1532.4 L1240.59 1568.04 L1234.73 1568.04 L1234.73 1532.4 M1234.73 1518.52 L1240.59 1518.52 L1240.59 1525.93 L1234.73 1525.93 L1234.73 1518.52 Z" fill="#000000" fill-rule="nonzero" fill-opacity="1" /><path clip-path="url(#clip340)" d="M1275.57 1533.45 L1275.57 1538.98 Q1273.09 1537.71 1270.41 1537.07 Q1267.74 1536.44 1264.87 1536.44 Q1260.51 1536.44 1258.32 1537.77 Q1256.15 1539.11 1256.15 1541.79 Q1256.15 1543.82 1257.71 1545 Q1259.27 1546.15 1263.98 1547.2 L1265.99 1547.64 Q1272.23 1548.98 1274.84 1551.43 Q1277.48 1553.85 1277.48 1558.21 Q1277.48 1563.17 1273.53 1566.07 Q1269.62 1568.97 1262.74 1568.97 Q1259.88 1568.97 1256.76 1568.39 Q1253.67 1567.85 1250.23 1566.74 L1250.23 1560.69 Q1253.48 1562.38 1256.63 1563.24 Q1259.78 1564.07 1262.87 1564.07 Q1267.01 1564.07 1269.24 1562.66 Q1271.46 1561.23 1271.46 1558.65 Q1271.46 1556.27 1269.84 1554.99 Q1268.25 1553.72 1262.81 1552.54 L1260.77 1552.07 Q1255.33 1550.92 1252.91 1548.56 Q1250.49 1546.18 1250.49 1542.04 Q1250.49 1537.01 1254.05 1534.27 Q1257.62 1531.54 1264.17 1531.54 Q1267.42 1531.54 1270.29 1532.01 Q1273.15 1532.49 1275.57 1533.45 Z" fill="#000000" fill-rule="nonzero" fill-opacity="1" /><path clip-path="url(#clip340)" d="M1317.3 1548.76 L1317.3 1551.62 L1290.37 1551.62 Q1290.75 1557.67 1294 1560.85 Q1297.28 1564 1303.1 1564 Q1306.47 1564 1309.63 1563.17 Q1312.81 1562.35 1315.93 1560.69 L1315.93 1566.23 Q1312.78 1567.57 1309.47 1568.27 Q1306.16 1568.97 1302.75 1568.97 Q1294.22 1568.97 1289.22 1564 Q1284.26 1559.04 1284.26 1550.57 Q1284.26 1541.82 1288.97 1536.69 Q1293.71 1531.54 1301.73 1531.54 Q1308.93 1531.54 1313.09 1536.18 Q1317.3 1540.8 1317.3 1548.76 M1311.44 1547.04 Q1311.38 1542.23 1308.73 1539.37 Q1306.12 1536.5 1301.8 1536.5 Q1296.89 1536.5 1293.93 1539.27 Q1291.01 1542.04 1290.56 1547.07 L1311.44 1547.04 Z" fill="#000000" fill-rule="nonzero" fill-opacity="1" /><path clip-path="url(#clip340)" d="M1350.37 1537.81 L1350.37 1518.52 L1356.22 1518.52 L1356.22 1568.04 L1350.37 1568.04 L1350.37 1562.7 Q1348.52 1565.88 1345.69 1567.44 Q1342.89 1568.97 1338.94 1568.97 Q1332.48 1568.97 1328.4 1563.81 Q1324.36 1558.65 1324.36 1550.25 Q1324.36 1541.85 1328.4 1536.69 Q1332.48 1531.54 1338.94 1531.54 Q1342.89 1531.54 1345.69 1533.1 Q1348.52 1534.62 1350.37 1537.81 M1330.41 1550.25 Q1330.41 1556.71 1333.05 1560.4 Q1335.72 1564.07 1340.37 1564.07 Q1345.02 1564.07 1347.69 1560.4 Q1350.37 1556.71 1350.37 1550.25 Q1350.37 1543.79 1347.69 1540.13 Q1345.02 1536.44 1340.37 1536.44 Q1335.72 1536.44 1333.05 1540.13 Q1330.41 1543.79 1330.41 1550.25 Z" fill="#000000" fill-rule="nonzero" fill-opacity="1" /><path clip-path="url(#clip340)" d="M1389.01 1518.52 L1394.86 1518.52 L1394.86 1568.04 L1389.01 1568.04 L1389.01 1518.52 Z" fill="#000000" fill-rule="nonzero" fill-opacity="1" /><path clip-path="url(#clip340)" d="M1420.93 1536.5 Q1416.22 1536.5 1413.48 1540.19 Q1410.74 1543.85 1410.74 1550.25 Q1410.74 1556.65 1413.45 1560.34 Q1416.19 1564 1420.93 1564 Q1425.61 1564 1428.35 1560.31 Q1431.08 1556.62 1431.08 1550.25 Q1431.08 1543.92 1428.35 1540.23 Q1425.61 1536.5 1420.93 1536.5 M1420.93 1531.54 Q1428.57 1531.54 1432.93 1536.5 Q1437.29 1541.47 1437.29 1550.25 Q1437.29 1559 1432.93 1564 Q1428.57 1568.97 1420.93 1568.97 Q1413.26 1568.97 1408.9 1564 Q1404.57 1559 1404.57 1550.25 Q1404.57 1541.47 1408.9 1536.5 Q1413.26 1531.54 1420.93 1531.54 Z" fill="#000000" fill-rule="nonzero" fill-opacity="1" /><path clip-path="url(#clip340)" d="M1470.46 1549.81 Q1470.46 1543.44 1467.81 1539.94 Q1465.2 1536.44 1460.46 1536.44 Q1455.75 1536.44 1453.11 1539.94 Q1450.5 1543.44 1450.5 1549.81 Q1450.5 1556.14 1453.11 1559.64 Q1455.75 1563.14 1460.46 1563.14 Q1465.2 1563.14 1467.81 1559.64 Q1470.46 1556.14 1470.46 1549.81 M1476.31 1563.62 Q1476.31 1572.72 1472.27 1577.15 Q1468.23 1581.6 1459.89 1581.6 Q1456.8 1581.6 1454.06 1581.13 Q1451.33 1580.68 1448.75 1579.72 L1448.75 1574.03 Q1451.33 1575.43 1453.84 1576.1 Q1456.36 1576.76 1458.96 1576.76 Q1464.73 1576.76 1467.59 1573.74 Q1470.46 1570.75 1470.46 1564.67 L1470.46 1561.77 Q1468.64 1564.92 1465.81 1566.48 Q1462.98 1568.04 1459.03 1568.04 Q1452.47 1568.04 1448.46 1563.05 Q1444.45 1558.05 1444.45 1549.81 Q1444.45 1541.53 1448.46 1536.53 Q1452.47 1531.54 1459.03 1531.54 Q1462.98 1531.54 1465.81 1533.1 Q1468.64 1534.66 1470.46 1537.81 L1470.46 1532.4 L1476.31 1532.4 L1476.31 1563.62 Z" fill="#000000" fill-rule="nonzero" fill-opacity="1" /><path clip-path="url(#clip340)" d="M1485.41 1547.58 L1502.57 1547.58 L1502.57 1552.8 L1485.41 1552.8 L1485.41 1547.58 Z" fill="#000000" fill-rule="nonzero" fill-opacity="1" /><path clip-path="url(#clip340)" d="M1537.55 1533.76 L1537.55 1539.24 Q1535.07 1537.87 1532.55 1537.2 Q1530.07 1536.5 1527.52 1536.5 Q1521.83 1536.5 1518.68 1540.13 Q1515.52 1543.73 1515.52 1550.25 Q1515.52 1556.78 1518.68 1560.4 Q1521.83 1564 1527.52 1564 Q1530.07 1564 1532.55 1563.33 Q1535.07 1562.63 1537.55 1561.26 L1537.55 1566.68 Q1535.1 1567.82 1532.46 1568.39 Q1529.85 1568.97 1526.89 1568.97 Q1518.83 1568.97 1514.09 1563.91 Q1509.35 1558.85 1509.35 1550.25 Q1509.35 1541.53 1514.12 1536.53 Q1518.93 1531.54 1527.27 1531.54 Q1529.97 1531.54 1532.55 1532.11 Q1535.13 1532.65 1537.55 1533.76 Z" fill="#000000" fill-rule="nonzero" fill-opacity="1" /><path clip-path="url(#clip340)" d="M1561.55 1536.5 Q1556.84 1536.5 1554.1 1540.19 Q1551.36 1543.85 1551.36 1550.25 Q1551.36 1556.65 1554.07 1560.34 Q1556.81 1564 1561.55 1564 Q1566.23 1564 1568.96 1560.31 Q1571.7 1556.62 1571.7 1550.25 Q1571.7 1543.92 1568.96 1540.23 Q1566.23 1536.5 1561.55 1536.5 M1561.55 1531.54 Q1569.19 1531.54 1573.55 1536.5 Q1577.91 1541.47 1577.91 1550.25 Q1577.91 1559 1573.55 1564 Q1569.19 1568.97 1561.55 1568.97 Q1553.88 1568.97 1549.52 1564 Q1545.19 1559 1545.19 1550.25 Q1545.19 1541.47 1549.52 1536.5 Q1553.88 1531.54 1561.55 1531.54 Z" fill="#000000" fill-rule="nonzero" fill-opacity="1" /><path clip-path="url(#clip340)" d="M1587.01 1553.98 L1587.01 1532.4 L1592.87 1532.4 L1592.87 1553.75 Q1592.87 1558.81 1594.84 1561.36 Q1596.81 1563.87 1600.76 1563.87 Q1605.5 1563.87 1608.24 1560.85 Q1611.01 1557.83 1611.01 1552.61 L1611.01 1532.4 L1616.87 1532.4 L1616.87 1568.04 L1611.01 1568.04 L1611.01 1562.57 Q1608.88 1565.82 1606.04 1567.41 Q1603.24 1568.97 1599.52 1568.97 Q1593.38 1568.97 1590.19 1565.15 Q1587.01 1561.33 1587.01 1553.98 M1601.75 1531.54 L1601.75 1531.54 Z" fill="#000000" fill-rule="nonzero" fill-opacity="1" /><path clip-path="url(#clip340)" d="M1658.56 1546.53 L1658.56 1568.04 L1652.71 1568.04 L1652.71 1546.72 Q1652.71 1541.66 1650.73 1539.14 Q1648.76 1536.63 1644.81 1536.63 Q1640.07 1536.63 1637.33 1539.65 Q1634.59 1542.68 1634.59 1547.9 L1634.59 1568.04 L1628.71 1568.04 L1628.71 1532.4 L1634.59 1532.4 L1634.59 1537.93 Q1636.7 1534.72 1639.53 1533.13 Q1642.39 1531.54 1646.12 1531.54 Q1652.26 1531.54 1655.41 1535.36 Q1658.56 1539.14 1658.56 1546.53 Z" fill="#000000" fill-rule="nonzero" fill-opacity="1" /><path clip-path="url(#clip340)" d="M1676.04 1522.27 L1676.04 1532.4 L1688.1 1532.4 L1688.1 1536.95 L1676.04 1536.95 L1676.04 1556.3 Q1676.04 1560.66 1677.21 1561.9 Q1678.42 1563.14 1682.08 1563.14 L1688.1 1563.14 L1688.1 1568.04 L1682.08 1568.04 Q1675.3 1568.04 1672.73 1565.53 Q1670.15 1562.98 1670.15 1556.3 L1670.15 1536.95 L1665.85 1536.95 L1665.85 1532.4 L1670.15 1532.4 L1670.15 1522.27 L1676.04 1522.27 Z" fill="#000000" fill-rule="nonzero" fill-opacity="1" /><polyline clip-path="url(#clip342)" style="stroke:#000000; stroke-linecap:round; stroke-linejoin:round; stroke-width:2; stroke-opacity:0.1; fill:none" points="219.866,1423.18 2352.76,1423.18 "/>
<polyline clip-path="url(#clip342)" style="stroke:#000000; stroke-linecap:round; stroke-linejoin:round; stroke-width:2; stroke-opacity:0.1; fill:none" points="219.866,1128.35 2352.76,1128.35 "/>
<polyline clip-path="url(#clip342)" style="stroke:#000000; stroke-linecap:round; stroke-linejoin:round; stroke-width:2; stroke-opacity:0.1; fill:none" points="219.866,833.523 2352.76,833.523 "/>
<polyline clip-path="url(#clip342)" style="stroke:#000000; stroke-linecap:round; stroke-linejoin:round; stroke-width:2; stroke-opacity:0.1; fill:none" points="219.866,538.695 2352.76,538.695 "/>
<polyline clip-path="url(#clip342)" style="stroke:#000000; stroke-linecap:round; stroke-linejoin:round; stroke-width:2; stroke-opacity:0.1; fill:none" points="219.866,243.866 2352.76,243.866 "/>
<polyline clip-path="url(#clip340)" style="stroke:#000000; stroke-linecap:round; stroke-linejoin:round; stroke-width:4; stroke-opacity:1; fill:none" points="219.866,1423.18 219.866,123.472 "/>
<polyline clip-path="url(#clip340)" style="stroke:#000000; stroke-linecap:round; stroke-linejoin:round; stroke-width:4; stroke-opacity:1; fill:none" points="219.866,1423.18 238.764,1423.18 "/>
<polyline clip-path="url(#clip340)" style="stroke:#000000; stroke-linecap:round; stroke-linejoin:round; stroke-width:4; stroke-opacity:1; fill:none" points="219.866,1128.35 238.764,1128.35 "/>
<polyline clip-path="url(#clip340)" style="stroke:#000000; stroke-linecap:round; stroke-linejoin:round; stroke-width:4; stroke-opacity:1; fill:none" points="219.866,833.523 238.764,833.523 "/>
<polyline clip-path="url(#clip340)" style="stroke:#000000; stroke-linecap:round; stroke-linejoin:round; stroke-width:4; stroke-opacity:1; fill:none" points="219.866,538.695 238.764,538.695 "/>
<polyline clip-path="url(#clip340)" style="stroke:#000000; stroke-linecap:round; stroke-linejoin:round; stroke-width:4; stroke-opacity:1; fill:none" points="219.866,243.866 238.764,243.866 "/>
<path clip-path="url(#clip340)" d="M126.691 1408.98 Q123.08 1408.98 121.251 1412.54 Q119.445 1416.08 119.445 1423.21 Q119.445 1430.32 121.251 1433.89 Q123.08 1437.43 126.691 1437.43 Q130.325 1437.43 132.13 1433.89 Q133.959 1430.32 133.959 1423.21 Q133.959 1416.08 132.13 1412.54 Q130.325 1408.98 126.691 1408.98 M126.691 1405.27 Q132.501 1405.27 135.556 1409.88 Q138.635 1414.46 138.635 1423.21 Q138.635 1431.94 135.556 1436.55 Q132.501 1441.13 126.691 1441.13 Q120.88 1441.13 117.802 1436.55 Q114.746 1431.94 114.746 1423.21 Q114.746 1414.46 117.802 1409.88 Q120.88 1405.27 126.691 1405.27 Z" fill="#000000" fill-rule="nonzero" fill-opacity="1" /><path clip-path="url(#clip340)" d="M146.853 1434.58 L151.737 1434.58 L151.737 1440.46 L146.853 1440.46 L146.853 1434.58 Z" fill="#000000" fill-rule="nonzero" fill-opacity="1" /><path clip-path="url(#clip340)" d="M171.922 1408.98 Q168.311 1408.98 166.482 1412.54 Q164.677 1416.08 164.677 1423.21 Q164.677 1430.32 166.482 1433.89 Q168.311 1437.43 171.922 1437.43 Q175.556 1437.43 177.362 1433.89 Q179.19 1430.32 179.19 1423.21 Q179.19 1416.08 177.362 1412.54 Q175.556 1408.98 171.922 1408.98 M171.922 1405.27 Q177.732 1405.27 180.788 1409.88 Q183.866 1414.46 183.866 1423.21 Q183.866 1431.94 180.788 1436.55 Q177.732 1441.13 171.922 1441.13 Q166.112 1441.13 163.033 1436.55 Q159.978 1431.94 159.978 1423.21 Q159.978 1414.46 163.033 1409.88 Q166.112 1405.27 171.922 1405.27 Z" fill="#000000" fill-rule="nonzero" fill-opacity="1" /><path clip-path="url(#clip340)" d="M127.917 1114.15 Q124.306 1114.15 122.478 1117.71 Q120.672 1121.26 120.672 1128.39 Q120.672 1135.49 122.478 1139.06 Q124.306 1142.6 127.917 1142.6 Q131.552 1142.6 133.357 1139.06 Q135.186 1135.49 135.186 1128.39 Q135.186 1121.26 133.357 1117.71 Q131.552 1114.15 127.917 1114.15 M127.917 1110.45 Q133.728 1110.45 136.783 1115.05 Q139.862 1119.64 139.862 1128.39 Q139.862 1137.11 136.783 1141.72 Q133.728 1146.3 127.917 1146.3 Q122.107 1146.3 119.029 1141.72 Q115.973 1137.11 115.973 1128.39 Q115.973 1119.64 119.029 1115.05 Q122.107 1110.45 127.917 1110.45 Z" fill="#000000" fill-rule="nonzero" fill-opacity="1" /><path clip-path="url(#clip340)" d="M148.079 1139.75 L152.964 1139.75 L152.964 1145.63 L148.079 1145.63 L148.079 1139.75 Z" fill="#000000" fill-rule="nonzero" fill-opacity="1" /><path clip-path="url(#clip340)" d="M163.959 1141.7 L171.598 1141.7 L171.598 1115.33 L163.288 1117 L163.288 1112.74 L171.552 1111.07 L176.227 1111.07 L176.227 1141.7 L183.866 1141.7 L183.866 1145.63 L163.959 1145.63 L163.959 1141.7 Z" fill="#000000" fill-rule="nonzero" fill-opacity="1" /><path clip-path="url(#clip340)" d="M128.288 819.322 Q124.677 819.322 122.848 822.886 Q121.043 826.428 121.043 833.558 Q121.043 840.664 122.848 844.229 Q124.677 847.771 128.288 847.771 Q131.922 847.771 133.728 844.229 Q135.556 840.664 135.556 833.558 Q135.556 826.428 133.728 822.886 Q131.922 819.322 128.288 819.322 M128.288 815.618 Q134.098 815.618 137.154 820.224 Q140.232 824.808 140.232 833.558 Q140.232 842.285 137.154 846.891 Q134.098 851.474 128.288 851.474 Q122.478 851.474 119.399 846.891 Q116.343 842.285 116.343 833.558 Q116.343 824.808 119.399 820.224 Q122.478 815.618 128.288 815.618 Z" fill="#000000" fill-rule="nonzero" fill-opacity="1" /><path clip-path="url(#clip340)" d="M148.45 844.923 L153.334 844.923 L153.334 850.803 L148.45 850.803 L148.45 844.923 Z" fill="#000000" fill-rule="nonzero" fill-opacity="1" /><path clip-path="url(#clip340)" d="M167.547 846.868 L183.866 846.868 L183.866 850.803 L161.922 850.803 L161.922 846.868 Q164.584 844.113 169.167 839.484 Q173.774 834.831 174.954 833.488 Q177.2 830.965 178.079 829.229 Q178.982 827.47 178.982 825.78 Q178.982 823.025 177.038 821.289 Q175.116 819.553 172.014 819.553 Q169.815 819.553 167.362 820.317 Q164.931 821.081 162.153 822.632 L162.153 817.91 Q164.977 816.775 167.431 816.197 Q169.885 815.618 171.922 815.618 Q177.292 815.618 180.487 818.303 Q183.681 820.988 183.681 825.479 Q183.681 827.609 182.871 829.53 Q182.084 831.428 179.977 834.021 Q179.399 834.692 176.297 837.91 Q173.195 841.104 167.547 846.868 Z" fill="#000000" fill-rule="nonzero" fill-opacity="1" /><path clip-path="url(#clip340)" d="M127.339 524.493 Q123.728 524.493 121.899 528.058 Q120.093 531.6 120.093 538.729 Q120.093 545.836 121.899 549.4 Q123.728 552.942 127.339 552.942 Q130.973 552.942 132.779 549.4 Q134.607 545.836 134.607 538.729 Q134.607 531.6 132.779 528.058 Q130.973 524.493 127.339 524.493 M127.339 520.79 Q133.149 520.79 136.204 525.396 Q139.283 529.979 139.283 538.729 Q139.283 547.456 136.204 552.063 Q133.149 556.646 127.339 556.646 Q121.529 556.646 118.45 552.063 Q115.394 547.456 115.394 538.729 Q115.394 529.979 118.45 525.396 Q121.529 520.79 127.339 520.79 Z" fill="#000000" fill-rule="nonzero" fill-opacity="1" /><path clip-path="url(#clip340)" d="M147.501 550.095 L152.385 550.095 L152.385 555.975 L147.501 555.975 L147.501 550.095 Z" fill="#000000" fill-rule="nonzero" fill-opacity="1" /><path clip-path="url(#clip340)" d="M176.737 537.34 Q180.093 538.058 181.968 540.326 Q183.866 542.595 183.866 545.928 Q183.866 551.044 180.348 553.845 Q176.829 556.646 170.348 556.646 Q168.172 556.646 165.857 556.206 Q163.565 555.789 161.112 554.933 L161.112 550.419 Q163.056 551.553 165.371 552.132 Q167.686 552.711 170.209 552.711 Q174.607 552.711 176.899 550.975 Q179.214 549.238 179.214 545.928 Q179.214 542.873 177.061 541.16 Q174.931 539.424 171.112 539.424 L167.084 539.424 L167.084 535.581 L171.297 535.581 Q174.746 535.581 176.575 534.215 Q178.403 532.827 178.403 530.234 Q178.403 527.572 176.505 526.16 Q174.63 524.725 171.112 524.725 Q169.19 524.725 166.991 525.141 Q164.792 525.558 162.153 526.438 L162.153 522.271 Q164.815 521.53 167.13 521.16 Q169.468 520.79 171.528 520.79 Q176.852 520.79 179.954 523.22 Q183.056 525.627 183.056 529.748 Q183.056 532.618 181.413 534.609 Q179.769 536.576 176.737 537.34 Z" fill="#000000" fill-rule="nonzero" fill-opacity="1" /><path clip-path="url(#clip340)" d="M126.205 229.665 Q122.593 229.665 120.765 233.23 Q118.959 236.771 118.959 243.901 Q118.959 251.007 120.765 254.572 Q122.593 258.114 126.205 258.114 Q129.839 258.114 131.644 254.572 Q133.473 251.007 133.473 243.901 Q133.473 236.771 131.644 233.23 Q129.839 229.665 126.205 229.665 M126.205 225.961 Q132.015 225.961 135.07 230.568 Q138.149 235.151 138.149 243.901 Q138.149 252.628 135.07 257.234 Q132.015 261.817 126.205 261.817 Q120.394 261.817 117.316 257.234 Q114.26 252.628 114.26 243.901 Q114.26 235.151 117.316 230.568 Q120.394 225.961 126.205 225.961 Z" fill="#000000" fill-rule="nonzero" fill-opacity="1" /><path clip-path="url(#clip340)" d="M146.366 255.267 L151.251 255.267 L151.251 261.146 L146.366 261.146 L146.366 255.267 Z" fill="#000000" fill-rule="nonzero" fill-opacity="1" /><path clip-path="url(#clip340)" d="M174.283 230.66 L162.477 249.109 L174.283 249.109 L174.283 230.66 M173.056 226.586 L178.936 226.586 L178.936 249.109 L183.866 249.109 L183.866 252.998 L178.936 252.998 L178.936 261.146 L174.283 261.146 L174.283 252.998 L158.681 252.998 L158.681 248.484 L173.056 226.586 Z" fill="#000000" fill-rule="nonzero" fill-opacity="1" /><path clip-path="url(#clip340)" d="M21.7677 886.636 L58.7206 886.636 L58.7206 878.869 Q58.7206 869.034 54.2646 864.483 Q49.8086 859.9 40.1964 859.9 Q30.6479 859.9 26.2237 864.483 Q21.7677 869.034 21.7677 878.869 L21.7677 886.636 M16.4842 893.065 L16.4842 879.856 Q16.4842 866.043 22.2451 859.581 Q27.9743 853.12 40.1964 853.12 Q52.4822 853.12 58.2432 859.613 Q64.0042 866.106 64.0042 879.856 L64.0042 893.065 L16.4842 893.065 Z" fill="#000000" fill-rule="nonzero" fill-opacity="1" /><path clip-path="url(#clip340)" d="M44.7161 812.634 L47.5806 812.634 L47.5806 839.561 Q53.6281 839.179 56.8109 835.933 Q59.9619 832.654 59.9619 826.83 Q59.9619 823.456 59.1344 820.305 Q58.3069 817.122 56.6518 814.003 L62.1899 814.003 Q63.5267 817.154 64.227 820.464 Q64.9272 823.774 64.9272 827.18 Q64.9272 835.71 59.9619 840.707 Q54.9967 845.672 46.5303 845.672 Q37.7774 845.672 32.6531 840.962 Q27.4968 836.219 27.4968 828.198 Q27.4968 821.005 32.1438 816.836 Q36.7589 812.634 44.7161 812.634 M42.9973 818.491 Q38.1912 818.554 35.3266 821.196 Q32.4621 823.806 32.4621 828.135 Q32.4621 833.036 35.2312 835.996 Q38.0002 838.925 43.0292 839.37 L42.9973 818.491 Z" fill="#000000" fill-rule="nonzero" fill-opacity="1" /><path clip-path="url(#clip340)" d="M42.4881 773.39 L64.0042 773.39 L64.0042 779.246 L42.679 779.246 Q37.6183 779.246 35.1038 781.219 Q32.5894 783.193 32.5894 787.14 Q32.5894 791.882 35.6131 794.619 Q38.6368 797.357 43.8567 797.357 L64.0042 797.357 L64.0042 803.245 L28.3562 803.245 L28.3562 797.357 L33.8944 797.357 Q30.6797 795.256 29.0883 792.423 Q27.4968 789.559 27.4968 785.835 Q27.4968 779.692 31.3163 776.541 Q35.1038 773.39 42.4881 773.39 Z" fill="#000000" fill-rule="nonzero" fill-opacity="1" /><path clip-path="url(#clip340)" d="M29.4065 738.983 L34.9447 738.983 Q33.6716 741.466 33.035 744.139 Q32.3984 746.813 32.3984 749.677 Q32.3984 754.038 33.7352 756.234 Q35.072 758.398 37.7456 758.398 Q39.7826 758.398 40.9603 756.839 Q42.1061 755.279 43.1565 750.569 L43.6021 748.563 Q44.9389 742.325 47.3897 739.715 Q49.8086 737.073 54.1691 737.073 Q59.1344 737.073 62.0308 741.02 Q64.9272 744.935 64.9272 751.81 Q64.9272 754.674 64.3543 757.794 Q63.8132 760.881 62.6992 764.319 L56.6518 764.319 Q58.3387 761.072 59.198 757.921 Q60.0256 754.77 60.0256 751.683 Q60.0256 747.545 58.6251 745.317 Q57.1929 743.089 54.6147 743.089 Q52.2276 743.089 50.9545 744.712 Q49.6813 746.304 48.5037 751.746 L48.0262 753.783 Q46.8804 759.226 44.5251 761.645 Q42.138 764.064 38.0002 764.064 Q32.9713 764.064 30.2341 760.499 Q27.4968 756.934 27.4968 750.378 Q27.4968 747.131 27.9743 744.267 Q28.4517 741.402 29.4065 738.983 Z" fill="#000000" fill-rule="nonzero" fill-opacity="1" /><path clip-path="url(#clip340)" d="M28.3562 727.748 L28.3562 721.891 L64.0042 721.891 L64.0042 727.748 L28.3562 727.748 M14.479 727.748 L14.479 721.891 L21.895 721.891 L21.895 727.748 L14.479 727.748 Z" fill="#000000" fill-rule="nonzero" fill-opacity="1" /><path clip-path="url(#clip340)" d="M18.2347 703.844 L28.3562 703.844 L28.3562 691.781 L32.9077 691.781 L32.9077 703.844 L52.2594 703.844 Q56.6199 703.844 57.8613 702.667 Q59.1026 701.457 59.1026 697.797 L59.1026 691.781 L64.0042 691.781 L64.0042 697.797 Q64.0042 704.576 61.4897 707.154 Q58.9434 709.733 52.2594 709.733 L32.9077 709.733 L32.9077 714.029 L28.3562 714.029 L28.3562 709.733 L18.2347 709.733 L18.2347 703.844 Z" fill="#000000" fill-rule="nonzero" fill-opacity="1" /><path clip-path="url(#clip340)" d="M67.3143 669.247 Q73.68 671.729 75.6216 674.085 Q77.5631 676.44 77.5631 680.387 L77.5631 685.065 L72.6615 685.065 L72.6615 681.628 Q72.6615 679.209 71.5157 677.872 Q70.3699 676.535 66.1048 674.912 L63.4312 673.862 L28.3562 688.28 L28.3562 682.074 L56.238 670.934 L28.3562 659.794 L28.3562 653.587 L67.3143 669.247 Z" fill="#000000" fill-rule="nonzero" fill-opacity="1" /><path clip-path="url(#clip340)" d="M614.732 18.8205 L614.732 41.5461 L625.021 41.5461 Q630.733 41.5461 633.852 38.5889 Q636.971 35.6318 636.971 30.163 Q636.971 24.7348 633.852 21.7777 Q630.733 18.8205 625.021 18.8205 L614.732 18.8205 M606.549 12.096 L625.021 12.096 Q635.189 12.096 640.374 16.714 Q645.6 21.2916 645.6 30.163 Q645.6 39.1155 640.374 43.6931 Q635.189 48.2706 625.021 48.2706 L614.732 48.2706 L614.732 72.576 L606.549 72.576 L606.549 12.096 Z" fill="#000000" fill-rule="nonzero" fill-opacity="1" /><path clip-path="url(#clip340)" d="M681.086 34.1734 Q679.83 33.4443 678.331 33.1202 Q676.873 32.7556 675.09 32.7556 Q668.771 32.7556 665.368 36.8875 Q662.006 40.9789 662.006 48.6757 L662.006 72.576 L654.512 72.576 L654.512 27.2059 L662.006 27.2059 L662.006 34.2544 Q664.356 30.1225 668.123 28.1376 Q671.89 26.1121 677.278 26.1121 Q678.048 26.1121 678.979 26.2337 Q679.911 26.3147 681.045 26.5172 L681.086 34.1734 Z" fill="#000000" fill-rule="nonzero" fill-opacity="1" /><path clip-path="url(#clip340)" d="M688.904 27.2059 L696.358 27.2059 L696.358 72.576 L688.904 72.576 L688.904 27.2059 M688.904 9.54393 L696.358 9.54393 L696.358 18.9825 L688.904 18.9825 L688.904 9.54393 Z" fill="#000000" fill-rule="nonzero" fill-opacity="1" /><path clip-path="url(#clip340)" d="M729.535 32.4315 Q723.539 32.4315 720.055 37.1306 Q716.572 41.7891 716.572 49.9314 Q716.572 58.0738 720.015 62.7728 Q723.499 67.4314 729.535 67.4314 Q735.489 67.4314 738.973 62.7323 Q742.457 58.0333 742.457 49.9314 Q742.457 41.8701 738.973 37.1711 Q735.489 32.4315 729.535 32.4315 M729.535 26.1121 Q739.257 26.1121 744.806 32.4315 Q750.356 38.7509 750.356 49.9314 Q750.356 61.0714 744.806 67.4314 Q739.257 73.7508 729.535 73.7508 Q719.772 73.7508 714.222 67.4314 Q708.713 61.0714 708.713 49.9314 Q708.713 38.7509 714.222 32.4315 Q719.772 26.1121 729.535 26.1121 Z" fill="#000000" fill-rule="nonzero" fill-opacity="1" /><path clip-path="url(#clip340)" d="M789.002 34.1734 Q787.746 33.4443 786.247 33.1202 Q784.789 32.7556 783.006 32.7556 Q776.687 32.7556 773.284 36.8875 Q769.922 40.9789 769.922 48.6757 L769.922 72.576 L762.428 72.576 L762.428 27.2059 L769.922 27.2059 L769.922 34.2544 Q772.272 30.1225 776.039 28.1376 Q779.806 26.1121 785.194 26.1121 Q785.964 26.1121 786.895 26.2337 Q787.827 26.3147 788.961 26.5172 L789.002 34.1734 Z" fill="#000000" fill-rule="nonzero" fill-opacity="1" /><path clip-path="url(#clip340)" d="M830.402 65.7705 L830.402 89.8329 L822.908 89.8329 L822.908 27.2059 L830.402 27.2059 L830.402 34.0924 Q832.752 30.0415 836.316 28.0971 Q839.922 26.1121 844.904 26.1121 Q853.168 26.1121 858.313 32.6746 Q863.498 39.2371 863.498 49.9314 Q863.498 60.6258 858.313 67.1883 Q853.168 73.7508 844.904 73.7508 Q839.922 73.7508 836.316 71.8063 Q832.752 69.8214 830.402 65.7705 M855.761 49.9314 Q855.761 41.7081 852.358 37.0496 Q848.996 32.3505 843.081 32.3505 Q837.167 32.3505 833.764 37.0496 Q830.402 41.7081 830.402 49.9314 Q830.402 58.1548 833.764 62.8538 Q837.167 67.5124 843.081 67.5124 Q848.996 67.5124 852.358 62.8538 Q855.761 58.1548 855.761 49.9314 Z" fill="#000000" fill-rule="nonzero" fill-opacity="1" /><path clip-path="url(#clip340)" d="M902.144 34.1734 Q900.888 33.4443 899.389 33.1202 Q897.931 32.7556 896.148 32.7556 Q889.829 32.7556 886.426 36.8875 Q883.064 40.9789 883.064 48.6757 L883.064 72.576 L875.57 72.576 L875.57 27.2059 L883.064 27.2059 L883.064 34.2544 Q885.413 30.1225 889.181 28.1376 Q892.948 26.1121 898.336 26.1121 Q899.105 26.1121 900.037 26.2337 Q900.969 26.3147 902.103 26.5172 L902.144 34.1734 Z" fill="#000000" fill-rule="nonzero" fill-opacity="1" /><path clip-path="url(#clip340)" d="M946.947 48.0275 L946.947 51.6733 L912.676 51.6733 Q913.162 59.3701 917.294 63.421 Q921.466 67.4314 928.88 67.4314 Q933.174 67.4314 937.184 66.3781 Q941.235 65.3249 945.205 63.2184 L945.205 70.267 Q941.194 71.9684 936.981 72.8596 Q932.768 73.7508 928.434 73.7508 Q917.578 73.7508 911.218 67.4314 Q904.898 61.1119 904.898 50.3365 Q904.898 39.1965 910.894 32.6746 Q916.929 26.1121 927.138 26.1121 Q936.293 26.1121 941.599 32.0264 Q946.947 37.9003 946.947 48.0275 M939.493 45.84 Q939.412 39.7232 936.05 36.0774 Q932.728 32.4315 927.219 32.4315 Q920.98 32.4315 917.213 35.9558 Q913.486 39.4801 912.919 45.8805 L939.493 45.84 Z" fill="#000000" fill-rule="nonzero" fill-opacity="1" /><path clip-path="url(#clip340)" d="M989.035 34.0924 L989.035 9.54393 L996.489 9.54393 L996.489 72.576 L989.035 72.576 L989.035 65.7705 Q986.686 69.8214 983.081 71.8063 Q979.516 73.7508 974.493 73.7508 Q966.269 73.7508 961.084 67.1883 Q955.94 60.6258 955.94 49.9314 Q955.94 39.2371 961.084 32.6746 Q966.269 26.1121 974.493 26.1121 Q979.516 26.1121 983.081 28.0971 Q986.686 30.0415 989.035 34.0924 M963.636 49.9314 Q963.636 58.1548 966.999 62.8538 Q970.401 67.5124 976.316 67.5124 Q982.23 67.5124 985.633 62.8538 Q989.035 58.1548 989.035 49.9314 Q989.035 41.7081 985.633 37.0496 Q982.23 32.3505 976.316 32.3505 Q970.401 32.3505 966.999 37.0496 Q963.636 41.7081 963.636 49.9314 Z" fill="#000000" fill-rule="nonzero" fill-opacity="1" /><path clip-path="url(#clip340)" d="M1011.84 27.2059 L1019.3 27.2059 L1019.3 72.576 L1011.84 72.576 L1011.84 27.2059 M1011.84 9.54393 L1019.3 9.54393 L1019.3 18.9825 L1011.84 18.9825 L1011.84 9.54393 Z" fill="#000000" fill-rule="nonzero" fill-opacity="1" /><path clip-path="url(#clip340)" d="M1067.54 28.9478 L1067.54 35.9153 Q1064.38 34.1734 1061.18 33.3227 Q1058.02 32.4315 1054.78 32.4315 Q1047.53 32.4315 1043.52 37.0496 Q1039.51 41.6271 1039.51 49.9314 Q1039.51 58.2358 1043.52 62.8538 Q1047.53 67.4314 1054.78 67.4314 Q1058.02 67.4314 1061.18 66.5807 Q1064.38 65.6895 1067.54 63.9476 L1067.54 70.8341 Q1064.42 72.2924 1061.06 73.0216 Q1057.74 73.7508 1053.97 73.7508 Q1043.72 73.7508 1037.69 67.3098 Q1031.65 60.8689 1031.65 49.9314 Q1031.65 38.832 1037.73 32.472 Q1043.84 26.1121 1054.46 26.1121 Q1057.9 26.1121 1061.18 26.8413 Q1064.46 27.5299 1067.54 28.9478 Z" fill="#000000" fill-rule="nonzero" fill-opacity="1" /><path clip-path="url(#clip340)" d="M1087.88 14.324 L1087.88 27.2059 L1103.23 27.2059 L1103.23 32.9987 L1087.88 32.9987 L1087.88 57.6282 Q1087.88 63.1779 1089.38 64.7578 Q1090.92 66.3376 1095.57 66.3376 L1103.23 66.3376 L1103.23 72.576 L1095.57 72.576 Q1086.95 72.576 1083.66 69.3758 Q1080.38 66.1351 1080.38 57.6282 L1080.38 32.9987 L1074.91 32.9987 L1074.91 27.2059 L1080.38 27.2059 L1080.38 14.324 L1087.88 14.324 Z" fill="#000000" fill-rule="nonzero" fill-opacity="1" /><path clip-path="url(#clip340)" d="M1113.03 27.2059 L1120.49 27.2059 L1120.49 72.576 L1113.03 72.576 L1113.03 27.2059 M1113.03 9.54393 L1120.49 9.54393 L1120.49 18.9825 L1113.03 18.9825 L1113.03 9.54393 Z" fill="#000000" fill-rule="nonzero" fill-opacity="1" /><path clip-path="url(#clip340)" d="M1130.74 27.2059 L1138.64 27.2059 L1152.81 65.2844 L1166.99 27.2059 L1174.89 27.2059 L1157.88 72.576 L1147.75 72.576 L1130.74 27.2059 Z" fill="#000000" fill-rule="nonzero" fill-opacity="1" /><path clip-path="url(#clip340)" d="M1223.99 48.0275 L1223.99 51.6733 L1189.72 51.6733 Q1190.2 59.3701 1194.34 63.421 Q1198.51 67.4314 1205.92 67.4314 Q1210.21 67.4314 1214.23 66.3781 Q1218.28 65.3249 1222.25 63.2184 L1222.25 70.267 Q1218.24 71.9684 1214.02 72.8596 Q1209.81 73.7508 1205.48 73.7508 Q1194.62 73.7508 1188.26 67.4314 Q1181.94 61.1119 1181.94 50.3365 Q1181.94 39.1965 1187.93 32.6746 Q1193.97 26.1121 1204.18 26.1121 Q1213.33 26.1121 1218.64 32.0264 Q1223.99 37.9003 1223.99 48.0275 M1216.53 45.84 Q1216.45 39.7232 1213.09 36.0774 Q1209.77 32.4315 1204.26 32.4315 Q1198.02 32.4315 1194.25 35.9558 Q1190.53 39.4801 1189.96 45.8805 L1216.53 45.84 Z" fill="#000000" fill-rule="nonzero" fill-opacity="1" /><path clip-path="url(#clip340)" d="M1295.24 28.9478 L1295.24 35.9153 Q1292.08 34.1734 1288.88 33.3227 Q1285.72 32.4315 1282.48 32.4315 Q1275.23 32.4315 1271.22 37.0496 Q1267.21 41.6271 1267.21 49.9314 Q1267.21 58.2358 1271.22 62.8538 Q1275.23 67.4314 1282.48 67.4314 Q1285.72 67.4314 1288.88 66.5807 Q1292.08 65.6895 1295.24 63.9476 L1295.24 70.8341 Q1292.12 72.2924 1288.76 73.0216 Q1285.44 73.7508 1281.67 73.7508 Q1271.42 73.7508 1265.39 67.3098 Q1259.35 60.8689 1259.35 49.9314 Q1259.35 38.832 1265.43 32.472 Q1271.55 26.1121 1282.16 26.1121 Q1285.6 26.1121 1288.88 26.8413 Q1292.16 27.5299 1295.24 28.9478 Z" fill="#000000" fill-rule="nonzero" fill-opacity="1" /><path clip-path="url(#clip340)" d="M1345.92 45.1919 L1345.92 72.576 L1338.47 72.576 L1338.47 45.4349 Q1338.47 38.994 1335.95 35.7938 Q1333.44 32.5936 1328.42 32.5936 Q1322.38 32.5936 1318.9 36.4419 Q1315.42 40.2903 1315.42 46.9338 L1315.42 72.576 L1307.92 72.576 L1307.92 9.54393 L1315.42 9.54393 L1315.42 34.2544 Q1318.09 30.163 1321.7 28.1376 Q1325.34 26.1121 1330.08 26.1121 Q1337.9 26.1121 1341.91 30.9732 Q1345.92 35.7938 1345.92 45.1919 Z" fill="#000000" fill-rule="nonzero" fill-opacity="1" /><path clip-path="url(#clip340)" d="M1399.59 48.0275 L1399.59 51.6733 L1365.32 51.6733 Q1365.81 59.3701 1369.94 63.421 Q1374.11 67.4314 1381.53 67.4314 Q1385.82 67.4314 1389.83 66.3781 Q1393.88 65.3249 1397.85 63.2184 L1397.85 70.267 Q1393.84 71.9684 1389.63 72.8596 Q1385.42 73.7508 1381.08 73.7508 Q1370.23 73.7508 1363.87 67.4314 Q1357.55 61.1119 1357.55 50.3365 Q1357.55 39.1965 1363.54 32.6746 Q1369.58 26.1121 1379.79 26.1121 Q1388.94 26.1121 1394.25 32.0264 Q1399.59 37.9003 1399.59 48.0275 M1392.14 45.84 Q1392.06 39.7232 1388.7 36.0774 Q1385.38 32.4315 1379.87 32.4315 Q1373.63 32.4315 1369.86 35.9558 Q1366.13 39.4801 1365.57 45.8805 L1392.14 45.84 Z" fill="#000000" fill-rule="nonzero" fill-opacity="1" /><path clip-path="url(#clip340)" d="M1444.48 28.9478 L1444.48 35.9153 Q1441.32 34.1734 1438.12 33.3227 Q1434.96 32.4315 1431.72 32.4315 Q1424.47 32.4315 1420.46 37.0496 Q1416.45 41.6271 1416.45 49.9314 Q1416.45 58.2358 1420.46 62.8538 Q1424.47 67.4314 1431.72 67.4314 Q1434.96 67.4314 1438.12 66.5807 Q1441.32 65.6895 1444.48 63.9476 L1444.48 70.8341 Q1441.36 72.2924 1438 73.0216 Q1434.68 73.7508 1430.91 73.7508 Q1420.66 73.7508 1414.62 67.3098 Q1408.59 60.8689 1408.59 49.9314 Q1408.59 38.832 1414.66 32.472 Q1420.78 26.1121 1431.39 26.1121 Q1434.84 26.1121 1438.12 26.8413 Q1441.4 27.5299 1444.48 28.9478 Z" fill="#000000" fill-rule="nonzero" fill-opacity="1" /><path clip-path="url(#clip340)" d="M1457.16 9.54393 L1464.65 9.54393 L1464.65 46.7717 L1486.89 27.2059 L1496.41 27.2059 L1472.35 48.4326 L1497.42 72.576 L1487.7 72.576 L1464.65 50.4176 L1464.65 72.576 L1457.16 72.576 L1457.16 9.54393 Z" fill="#000000" fill-rule="nonzero" fill-opacity="1" /><path clip-path="url(#clip340)" d="M1507.39 62.2867 L1515.94 62.2867 L1515.94 69.2543 L1509.29 82.2172 L1504.07 82.2172 L1507.39 69.2543 L1507.39 62.2867 Z" fill="#000000" fill-rule="nonzero" fill-opacity="1" /><path clip-path="url(#clip340)" d="M1553.89 27.2059 L1561.35 27.2059 L1570.66 62.6108 L1579.94 27.2059 L1588.73 27.2059 L1598.05 62.6108 L1607.32 27.2059 L1614.78 27.2059 L1602.91 72.576 L1594.12 72.576 L1584.36 35.3887 L1574.55 72.576 L1565.76 72.576 L1553.89 27.2059 Z" fill="#000000" fill-rule="nonzero" fill-opacity="1" /><path clip-path="url(#clip340)" d="M1626.08 27.2059 L1633.53 27.2059 L1633.53 72.576 L1626.08 72.576 L1626.08 27.2059 M1626.08 9.54393 L1633.53 9.54393 L1633.53 18.9825 L1626.08 18.9825 L1626.08 9.54393 Z" fill="#000000" fill-rule="nonzero" fill-opacity="1" /><path clip-path="url(#clip340)" d="M1678.99 34.0924 L1678.99 9.54393 L1686.44 9.54393 L1686.44 72.576 L1678.99 72.576 L1678.99 65.7705 Q1676.64 69.8214 1673.03 71.8063 Q1669.47 73.7508 1664.44 73.7508 Q1656.22 73.7508 1651.03 67.1883 Q1645.89 60.6258 1645.89 49.9314 Q1645.89 39.2371 1651.03 32.6746 Q1656.22 26.1121 1664.44 26.1121 Q1669.47 26.1121 1673.03 28.0971 Q1676.64 30.0415 1678.99 34.0924 M1653.59 49.9314 Q1653.59 58.1548 1656.95 62.8538 Q1660.35 67.5124 1666.27 67.5124 Q1672.18 67.5124 1675.58 62.8538 Q1678.99 58.1548 1678.99 49.9314 Q1678.99 41.7081 1675.58 37.0496 Q1672.18 32.3505 1666.27 32.3505 Q1660.35 32.3505 1656.95 37.0496 Q1653.59 41.7081 1653.59 49.9314 Z" fill="#000000" fill-rule="nonzero" fill-opacity="1" /><path clip-path="url(#clip340)" d="M1740.6 48.0275 L1740.6 51.6733 L1706.33 51.6733 Q1706.82 59.3701 1710.95 63.421 Q1715.12 67.4314 1722.53 67.4314 Q1726.83 67.4314 1730.84 66.3781 Q1734.89 65.3249 1738.86 63.2184 L1738.86 70.267 Q1734.85 71.9684 1730.63 72.8596 Q1726.42 73.7508 1722.09 73.7508 Q1711.23 73.7508 1704.87 67.4314 Q1698.55 61.1119 1698.55 50.3365 Q1698.55 39.1965 1704.55 32.6746 Q1710.58 26.1121 1720.79 26.1121 Q1729.95 26.1121 1735.25 32.0264 Q1740.6 37.9003 1740.6 48.0275 M1733.15 45.84 Q1733.07 39.7232 1729.7 36.0774 Q1726.38 32.4315 1720.87 32.4315 Q1714.63 32.4315 1710.87 35.9558 Q1707.14 39.4801 1706.57 45.8805 L1733.15 45.84 Z" fill="#000000" fill-rule="nonzero" fill-opacity="1" /><path clip-path="url(#clip340)" d="M1786.42 65.7705 L1786.42 89.8329 L1778.92 89.8329 L1778.92 27.2059 L1786.42 27.2059 L1786.42 34.0924 Q1788.76 30.0415 1792.33 28.0971 Q1795.94 26.1121 1800.92 26.1121 Q1809.18 26.1121 1814.33 32.6746 Q1819.51 39.2371 1819.51 49.9314 Q1819.51 60.6258 1814.33 67.1883 Q1809.18 73.7508 1800.92 73.7508 Q1795.94 73.7508 1792.33 71.8063 Q1788.76 69.8214 1786.42 65.7705 M1811.77 49.9314 Q1811.77 41.7081 1808.37 37.0496 Q1805.01 32.3505 1799.09 32.3505 Q1793.18 32.3505 1789.78 37.0496 Q1786.42 41.7081 1786.42 49.9314 Q1786.42 58.1548 1789.78 62.8538 Q1793.18 67.5124 1799.09 67.5124 Q1805.01 67.5124 1808.37 62.8538 Q1811.77 58.1548 1811.77 49.9314 Z" fill="#000000" fill-rule="nonzero" fill-opacity="1" /><path clip-path="url(#clip340)" d="M1858.16 34.1734 Q1856.9 33.4443 1855.4 33.1202 Q1853.94 32.7556 1852.16 32.7556 Q1845.84 32.7556 1842.44 36.8875 Q1839.08 40.9789 1839.08 48.6757 L1839.08 72.576 L1831.58 72.576 L1831.58 27.2059 L1839.08 27.2059 L1839.08 34.2544 Q1841.43 30.1225 1845.19 28.1376 Q1848.96 26.1121 1854.35 26.1121 Q1855.12 26.1121 1856.05 26.2337 Q1856.98 26.3147 1858.12 26.5172 L1858.16 34.1734 Z" fill="#000000" fill-rule="nonzero" fill-opacity="1" /><path clip-path="url(#clip340)" d="M1865.98 27.2059 L1873.43 27.2059 L1873.43 72.576 L1865.98 72.576 L1865.98 27.2059 M1865.98 9.54393 L1873.43 9.54393 L1873.43 18.9825 L1865.98 18.9825 L1865.98 9.54393 Z" fill="#000000" fill-rule="nonzero" fill-opacity="1" /><path clip-path="url(#clip340)" d="M1906.61 32.4315 Q1900.61 32.4315 1897.13 37.1306 Q1893.64 41.7891 1893.64 49.9314 Q1893.64 58.0738 1897.09 62.7728 Q1900.57 67.4314 1906.61 67.4314 Q1912.56 67.4314 1916.04 62.7323 Q1919.53 58.0333 1919.53 49.9314 Q1919.53 41.8701 1916.04 37.1711 Q1912.56 32.4315 1906.61 32.4315 M1906.61 26.1121 Q1916.33 26.1121 1921.88 32.4315 Q1927.43 38.7509 1927.43 49.9314 Q1927.43 61.0714 1921.88 67.4314 Q1916.33 73.7508 1906.61 73.7508 Q1896.84 73.7508 1891.29 67.4314 Q1885.78 61.0714 1885.78 49.9314 Q1885.78 38.7509 1891.29 32.4315 Q1896.84 26.1121 1906.61 26.1121 Z" fill="#000000" fill-rule="nonzero" fill-opacity="1" /><path clip-path="url(#clip340)" d="M1966.07 34.1734 Q1964.82 33.4443 1963.32 33.1202 Q1961.86 32.7556 1960.08 32.7556 Q1953.76 32.7556 1950.36 36.8875 Q1946.99 40.9789 1946.99 48.6757 L1946.99 72.576 L1939.5 72.576 L1939.5 27.2059 L1946.99 27.2059 L1946.99 34.2544 Q1949.34 30.1225 1953.11 28.1376 Q1956.88 26.1121 1962.27 26.1121 Q1963.03 26.1121 1963.97 26.2337 Q1964.9 26.3147 1966.03 26.5172 L1966.07 34.1734 Z" fill="#000000" fill-rule="nonzero" fill-opacity="1" /><path clip-path="url(#clip342)" d="M753.089 1156.4 L753.089 1423.18 L886.394 1423.18 L886.394 1156.4 L753.089 1156.4 L753.089 1156.4  Z" fill="#009af9" fill-rule="evenodd" fill-opacity="1"/>
<polyline clip-path="url(#clip342)" style="stroke:#000000; stroke-linecap:round; stroke-linejoin:round; stroke-width:4; stroke-opacity:1; fill:none" points="753.089,1156.4 753.089,1423.18 886.394,1423.18 886.394,1156.4 753.089,1156.4 "/>
<path clip-path="url(#clip342)" d="M886.394 739.123 L886.394 1423.18 L1019.7 1423.18 L1019.7 739.123 L886.394 739.123 L886.394 739.123  Z" fill="#009af9" fill-rule="evenodd" fill-opacity="1"/>
<polyline clip-path="url(#clip342)" style="stroke:#000000; stroke-linecap:round; stroke-linejoin:round; stroke-width:4; stroke-opacity:1; fill:none" points="886.394,739.123 886.394,1423.18 1019.7,1423.18 1019.7,739.123 886.394,739.123 "/>
<path clip-path="url(#clip342)" d="M1019.7 561.268 L1019.7 1423.18 L1153.01 1423.18 L1153.01 561.268 L1019.7 561.268 L1019.7 561.268  Z" fill="#009af9" fill-rule="evenodd" fill-opacity="1"/>
<polyline clip-path="url(#clip342)" style="stroke:#000000; stroke-linecap:round; stroke-linejoin:round; stroke-width:4; stroke-opacity:1; fill:none" points="1019.7,561.268 1019.7,1423.18 1153.01,1423.18 1153.01,561.268 1019.7,561.268 "/>
<path clip-path="url(#clip342)" d="M1153.01 123.472 L1153.01 1423.18 L1286.31 1423.18 L1286.31 123.472 L1153.01 123.472 L1153.01 123.472  Z" fill="#009af9" fill-rule="evenodd" fill-opacity="1"/>
<polyline clip-path="url(#clip342)" style="stroke:#000000; stroke-linecap:round; stroke-linejoin:round; stroke-width:4; stroke-opacity:1; fill:none" points="1153.01,123.472 1153.01,1423.18 1286.31,1423.18 1286.31,123.472 1153.01,123.472 "/>
<path clip-path="url(#clip342)" d="M1286.31 315.008 L1286.31 1423.18 L1419.62 1423.18 L1419.62 315.008 L1286.31 315.008 L1286.31 315.008  Z" fill="#009af9" fill-rule="evenodd" fill-opacity="1"/>
<polyline clip-path="url(#clip342)" style="stroke:#000000; stroke-linecap:round; stroke-linejoin:round; stroke-width:4; stroke-opacity:1; fill:none" points="1286.31,315.008 1286.31,1423.18 1419.62,1423.18 1419.62,315.008 1286.31,315.008 "/>
<path clip-path="url(#clip342)" d="M1419.62 657.036 L1419.62 1423.18 L1552.92 1423.18 L1552.92 657.036 L1419.62 657.036 L1419.62 657.036  Z" fill="#009af9" fill-rule="evenodd" fill-opacity="1"/>
<polyline clip-path="url(#clip342)" style="stroke:#000000; stroke-linecap:round; stroke-linejoin:round; stroke-width:4; stroke-opacity:1; fill:none" points="1419.62,657.036 1419.62,1423.18 1552.92,1423.18 1552.92,657.036 1419.62,657.036 "/>
<path clip-path="url(#clip342)" d="M1552.92 964.862 L1552.92 1423.18 L1686.23 1423.18 L1686.23 964.862 L1552.92 964.862 L1552.92 964.862  Z" fill="#009af9" fill-rule="evenodd" fill-opacity="1"/>
<polyline clip-path="url(#clip342)" style="stroke:#000000; stroke-linecap:round; stroke-linejoin:round; stroke-width:4; stroke-opacity:1; fill:none" points="1552.92,964.862 1552.92,1423.18 1686.23,1423.18 1686.23,964.862 1552.92,964.862 "/>
<path clip-path="url(#clip342)" d="M1686.23 1204.28 L1686.23 1423.18 L1819.53 1423.18 L1819.53 1204.28 L1686.23 1204.28 L1686.23 1204.28  Z" fill="#009af9" fill-rule="evenodd" fill-opacity="1"/>
<polyline clip-path="url(#clip342)" style="stroke:#000000; stroke-linecap:round; stroke-linejoin:round; stroke-width:4; stroke-opacity:1; fill:none" points="1686.23,1204.28 1686.23,1423.18 1819.53,1423.18 1819.53,1204.28 1686.23,1204.28 "/>
<path clip-path="url(#clip342)" d="M1819.53 1300.05 L1819.53 1423.18 L1952.84 1423.18 L1952.84 1300.05 L1819.53 1300.05 L1819.53 1300.05  Z" fill="#009af9" fill-rule="evenodd" fill-opacity="1"/>
<polyline clip-path="url(#clip342)" style="stroke:#000000; stroke-linecap:round; stroke-linejoin:round; stroke-width:4; stroke-opacity:1; fill:none" points="1819.53,1300.05 1819.53,1423.18 1952.84,1423.18 1952.84,1300.05 1819.53,1300.05 "/>
<path clip-path="url(#clip342)" d="M1952.84 1334.25 L1952.84 1423.18 L2086.14 1423.18 L2086.14 1334.25 L1952.84 1334.25 L1952.84 1334.25  Z" fill="#009af9" fill-rule="evenodd" fill-opacity="1"/>
<polyline clip-path="url(#clip342)" style="stroke:#000000; stroke-linecap:round; stroke-linejoin:round; stroke-width:4; stroke-opacity:1; fill:none" points="1952.84,1334.25 1952.84,1423.18 2086.14,1423.18 2086.14,1334.25 1952.84,1334.25 "/>
<path clip-path="url(#clip342)" d="M2086.14 1402.66 L2086.14 1423.18 L2219.45 1423.18 L2219.45 1402.66 L2086.14 1402.66 L2086.14 1402.66  Z" fill="#009af9" fill-rule="evenodd" fill-opacity="1"/>
<polyline clip-path="url(#clip342)" style="stroke:#000000; stroke-linecap:round; stroke-linejoin:round; stroke-width:4; stroke-opacity:1; fill:none" points="2086.14,1402.66 2086.14,1423.18 2219.45,1423.18 2219.45,1402.66 2086.14,1402.66 "/>
<circle clip-path="url(#clip342)" style="fill:#009af9; stroke:none; fill-opacity:0" cx="819.741" cy="1156.4" r="2"/>
<circle clip-path="url(#clip342)" style="fill:#009af9; stroke:none; fill-opacity:0" cx="953.047" cy="739.123" r="2"/>
<circle clip-path="url(#clip342)" style="fill:#009af9; stroke:none; fill-opacity:0" cx="1086.35" cy="561.268" r="2"/>
<circle clip-path="url(#clip342)" style="fill:#009af9; stroke:none; fill-opacity:0" cx="1219.66" cy="123.472" r="2"/>
<circle clip-path="url(#clip342)" style="fill:#009af9; stroke:none; fill-opacity:0" cx="1352.96" cy="315.008" r="2"/>
<circle clip-path="url(#clip342)" style="fill:#009af9; stroke:none; fill-opacity:0" cx="1486.27" cy="657.036" r="2"/>
<circle clip-path="url(#clip342)" style="fill:#009af9; stroke:none; fill-opacity:0" cx="1619.58" cy="964.862" r="2"/>
<circle clip-path="url(#clip342)" style="fill:#009af9; stroke:none; fill-opacity:0" cx="1752.88" cy="1204.28" r="2"/>
<circle clip-path="url(#clip342)" style="fill:#009af9; stroke:none; fill-opacity:0" cx="1886.19" cy="1300.05" r="2"/>
<circle clip-path="url(#clip342)" style="fill:#009af9; stroke:none; fill-opacity:0" cx="2019.49" cy="1334.25" r="2"/>
<circle clip-path="url(#clip342)" style="fill:#009af9; stroke:none; fill-opacity:0" cx="2152.8" cy="1402.66" r="2"/>
<polyline clip-path="url(#clip342)" style="stroke:#ffffff; stroke-linecap:round; stroke-linejoin:round; stroke-width:12; stroke-opacity:1; fill:none" points="-122123,1423.18 -120736,1423.18 -119349,1423.18 -117962,1423.18 -116576,1423.18 -115189,1423.18 -113802,1423.18 -112415,1423.18 -111029,1423.18 -109642,1423.18 -108255,1423.18 -106868,1423.18 -105482,1423.18 -104095,1423.18 -102708,1423.18 -101321,1423.18 -99934.5,1423.18 -98547.8,1423.18 -97161,1423.18 -95774.3,1423.18 -94387.5,1423.18 -93000.7,1423.18 -91614,1423.18 -90227.2,1423.18 -88840.5,1423.18 -87453.7,1423.18 -86066.9,1423.18 -84680.2,1423.18 -83293.4,1423.18 -81906.7,1423.18 -80519.9,1423.18 -79133.2,1423.18 -77746.4,1423.18 -76359.6,1423.18 -74972.9,1423.18 -73586.1,1423.18 -72199.4,1423.18 -70812.6,1423.18 -69425.8,1423.18 -68039.1,1423.18 -66652.3,1423.18 -65265.6,1423.18 -63878.8,1423.18 -62492.1,1423.18 -61105.3,1423.18 -59718.5,1423.18 -58331.8,1423.18 -56945,1423.18 -55558.3,1423.18 -54171.5,1423.17 -52784.7,1423.18 -51398,1423.18 -50011.2,1423.18 -48624.5,1423.17 -47237.7,1423.18 -45850.9,1423.17 -44464.2,1423.17 -43077.4,1423.17 -41690.7,1423.17 -40303.9,1423.17 -38917.2,1423.17 -37530.4,1423.17 -36143.6,1423.17 -34756.9,1423.17 -33370.1,1423.16 -31983.4,1423.17 -30596.6,1423.15 -29209.8,1423.15 -27823.1,1423.15 -26436.3,1423.14 -25049.6,1423.13 -23662.8,1423.11 -22276.1,1423.09 -20889.3,1423.06 -19502.5,1423.03 -18115.8,1422.97 -16729,1422.87 -15342.3,1422.71 -13955.5,1422.42 -12568.7,1421.92 -11182,1421.1 -9795.23,1419.61 -8408.47,1417.19 -7021.71,1413.12 -5634.95,1406.66 -4248.2,1396.85 -2861.44,1382.81 -1474.68,1364.93 -87.9199,1347.03 1298.84,1339.03 2685.6,1347.67 4072.36,1365.65 5459.11,1383.58 6845.87,1397.32 8232.63,1406.81 9619.39,1413.32 11006.1,1417.39 12392.9,1419.71 13779.7,1421.17 15166.4,1422 16553.2,1422.47 17939.9,1422.7 19326.7,1422.9 20713.5,1422.99 22100.2,1423.03 23487,1423.07 24873.7,1423.09 26260.5,1423.13 27647.2,1423.13 29034,1423.14 30420.8,1423.14 31807.5,1423.15 33194.3,1423.16 34581,1423.16 35967.8,1423.17 37354.6,1423.17 38741.3,1423.17 40128.1,1423.17 41514.8,1423.17 42901.6,1423.17 44288.4,1423.17 45675.1,1423.17 47061.9,1423.17 48448.6,1423.18 49835.4,1423.18 51222.1,1423.18 52608.9,1423.18 53995.7,1423.18 55382.4,1423.18 56769.2,1423.18 58155.9,1423.18 59542.7,1423.18 60929.5,1423.18 62316.2,1423.18 63703,1423.18 65089.7,1423.18 66476.5,1423.18 67863.2,1423.18 69250,1423.18 70636.8,1423.18 72023.5,1423.18 73410.3,1423.18 74797,1423.18 76183.8,1423.18 77570.6,1423.18 78957.3,1423.18 80344.1,1423.18 81730.8,1423.18 83117.6,1423.18 84504.3,1423.18 85891.1,1423.18 87277.9,1423.18 88664.6,1423.18 90051.4,1423.18 91438.1,1423.18 92824.9,1423.18 94211.7,1423.18 95598.4,1423.18 96985.2,1423.18 98371.9,1423.18 99758.7,1423.18 101145,1423.18 102532,1423.18 103919,1423.18 105306,1423.18 106692,1423.18 108079,1423.18 109466,1423.18 110853,1423.18 112240,1423.18 113626,1423.18 115013,1423.18 116400,1423.18 117787,1423.18 119173,1423.18 120560,1423.18 121947,1423.18 123334,1423.18 124720,1423.18 126107,1423.18 127494,1423.18 128881,1423.18 130267,1423.18 131654,1423.18 133041,1423.18 134428,1423.18 135814,1423.18 137201,1423.18 138588,1423.18 139975,1423.18 141361,1423.18 142748,1423.18 144135,1423.18 145522,1423.18 146908,1423.18 148295,1423.18 149682,1423.18 151069,1423.18 152456,1423.18 153842,1423.18 "/>
<path clip-path="url(#clip342)" d="M-122123 1423.18 L-120736 1423.18 L-119349 1423.18 L-117962 1423.18 L-116576 1423.18 L-115189 1423.18 L-113802 1423.18 L-112415 1423.18 L-111029 1423.18 L-109642 1423.18 L-108255 1423.18 L-106868 1423.18 L-105482 1423.18 L-104095 1423.18 L-102708 1423.18 L-101321 1423.18 L-99934.5 1423.18 L-98547.8 1423.18 L-97161 1423.18 L-95774.3 1423.18 L-94387.5 1423.18 L-93000.7 1423.18 L-91614 1423.18 L-90227.2 1423.18 L-88840.5 1423.18 L-87453.7 1423.18 L-86066.9 1423.18 L-84680.2 1423.18 L-83293.4 1423.18 L-81906.7 1423.18 L-80519.9 1423.18 L-79133.2 1423.18 L-77746.4 1423.18 L-76359.6 1423.18 L-74972.9 1423.18 L-73586.1 1423.18 L-72199.4 1423.18 L-70812.6 1423.18 L-69425.8 1423.18 L-68039.1 1423.18 L-66652.3 1423.18 L-65265.6 1423.18 L-63878.8 1423.18 L-62492.1 1423.18 L-61105.3 1423.18 L-59718.5 1423.18 L-58331.8 1423.18 L-56945 1423.18 L-55558.3 1423.18 L-54171.5 1423.17 L-52784.7 1423.18 L-51398 1423.18 L-50011.2 1423.18 L-48624.5 1423.17 L-47237.7 1423.18 L-45850.9 1423.17 L-44464.2 1423.17 L-43077.4 1423.17 L-41690.7 1423.17 L-40303.9 1423.17 L-38917.2 1423.17 L-37530.4 1423.17 L-36143.6 1423.17 L-34756.9 1423.17 L-33370.1 1423.16 L-31983.4 1423.17 L-30596.6 1423.15 L-29209.8 1423.15 L-27823.1 1423.15 L-26436.3 1423.14 L-25049.6 1423.13 L-23662.8 1423.11 L-22276.1 1423.09 L-20889.3 1423.06 L-19502.5 1423.03 L-18115.8 1422.97 L-16729 1422.87 L-15342.3 1422.71 L-13955.5 1422.42 L-12568.7 1421.92 L-11182 1421.1 L-9795.23 1419.61 L-8408.47 1417.19 L-7021.71 1413.12 L-5634.95 1406.66 L-4248.2 1396.85 L-2861.44 1382.81 L-1474.68 1364.93 L-87.9199 1347.03 L1298.84 1339.03 L2685.6 1347.67 L4072.36 1365.65 L5459.11 1383.58 L6845.87 1397.32 L8232.63 1406.81 L9619.39 1413.32 L11006.1 1417.39 L12392.9 1419.71 L13779.7 1421.17 L15166.4 1422 L16553.2 1422.47 L17939.9 1422.7 L19326.7 1422.9 L20713.5 1422.99 L22100.2 1423.03 L23487 1423.07 L24873.7 1423.09 L26260.5 1423.13 L27647.2 1423.13 L29034 1423.14 L30420.8 1423.14 L31807.5 1423.15 L33194.3 1423.16 L34581 1423.16 L35967.8 1423.17 L37354.6 1423.17 L38741.3 1423.17 L40128.1 1423.17 L41514.8 1423.17 L42901.6 1423.17 L44288.4 1423.17 L45675.1 1423.17 L47061.9 1423.17 L48448.6 1423.18 L49835.4 1423.18 L51222.1 1423.18 L52608.9 1423.18 L53995.7 1423.18 L55382.4 1423.18 L56769.2 1423.18 L58155.9 1423.18 L59542.7 1423.18 L60929.5 1423.18 L62316.2 1423.18 L63703 1423.18 L65089.7 1423.18 L66476.5 1423.18 L67863.2 1423.18 L69250 1423.18 L70636.8 1423.18 L72023.5 1423.18 L73410.3 1423.18 L74797 1423.18 L76183.8 1423.18 L77570.6 1423.18 L78957.3 1423.18 L80344.1 1423.18 L81730.8 1423.18 L83117.6 1423.18 L84504.3 1423.18 L85891.1 1423.18 L87277.9 1423.18 L88664.6 1423.18 L90051.4 1423.18 L91438.1 1423.18 L92824.9 1423.18 L94211.7 1423.18 L95598.4 1423.18 L96985.2 1423.18 L98371.9 1423.18 L99758.7 1423.18 L101145 1423.18 L102532 1423.18 L103919 1423.18 L105306 1423.18 L106692 1423.18 L108079 1423.18 L109466 1423.18 L110853 1423.18 L112240 1423.18 L113626 1423.18 L115013 1423.18 L116400 1423.18 L117787 1423.18 L119173 1423.18 L120560 1423.18 L121947 1423.18 L123334 1423.18 L124720 1423.18 L126107 1423.18 L127494 1423.18 L128881 1423.18 L130267 1423.18 L131654 1423.18 L133041 1423.18 L134428 1423.18 L135814 1423.18 L137201 1423.18 L138588 1423.18 L139975 1423.18 L141361 1423.18 L142748 1423.18 L144135 1423.18 L145522 1423.18 L146908 1423.18 L148295 1423.18 L149682 1423.18 L151069 1423.18 L152456 1423.18 L153842 1423.18 L153842 1423.18 L152456 1423.18 L151069 1423.18 L149682 1423.18 L148295 1423.18 L146908 1423.18 L145522 1423.18 L144135 1423.18 L142748 1423.18 L141361 1423.18 L139975 1423.18 L138588 1423.18 L137201 1423.18 L135814 1423.18 L134428 1423.18 L133041 1423.18 L131654 1423.18 L130267 1423.18 L128881 1423.18 L127494 1423.18 L126107 1423.18 L124720 1423.18 L123334 1423.18 L121947 1423.18 L120560 1423.18 L119173 1423.18 L117787 1423.18 L116400 1423.18 L115013 1423.18 L113626 1423.18 L112240 1423.18 L110853 1423.18 L109466 1423.18 L108079 1423.18 L106692 1423.18 L105306 1423.18 L103919 1423.18 L102532 1423.18 L101145 1423.18 L99758.7 1423.18 L98371.9 1423.18 L96985.2 1423.18 L95598.4 1423.18 L94211.7 1423.18 L92824.9 1423.18 L91438.1 1423.18 L90051.4 1423.18 L88664.6 1423.18 L87277.9 1423.18 L85891.1 1423.18 L84504.3 1423.18 L83117.6 1423.18 L81730.8 1423.18 L80344.1 1423.18 L78957.3 1423.18 L77570.6 1423.18 L76183.8 1423.18 L74797 1423.18 L73410.3 1423.18 L72023.5 1423.18 L70636.8 1423.18 L69250 1423.18 L67863.2 1423.18 L66476.5 1423.18 L65089.7 1423.18 L63703 1423.18 L62316.2 1423.18 L60929.5 1423.18 L59542.7 1423.18 L58155.9 1423.18 L56769.2 1423.18 L55382.4 1423.18 L53995.7 1423.18 L52608.9 1423.18 L51222.1 1423.18 L49835.4 1423.18 L48448.6 1423.18 L47061.9 1423.18 L45675.1 1423.18 L44288.4 1423.18 L42901.6 1423.18 L41514.8 1423.18 L40128.1 1423.18 L38741.3 1423.18 L37354.6 1423.18 L35967.8 1423.18 L34581 1423.18 L33194.3 1423.18 L31807.5 1423.18 L30420.8 1423.18 L29034 1423.18 L27647.2 1423.18 L26260.5 1423.18 L24873.7 1423.18 L23487 1423.18 L22100.2 1423.18 L20713.5 1423.18 L19326.7 1423.18 L17939.9 1423.18 L16553.2 1423.18 L15166.4 1423.18 L13779.7 1423.18 L12392.9 1423.18 L11006.1 1423.18 L9619.39 1423.18 L8232.63 1423.18 L6845.87 1423.18 L5459.11 1423.18 L4072.36 1423.18 L2685.6 1423.18 L1298.84 1423.18 L-87.9199 1423.18 L-1474.68 1423.18 L-2861.44 1423.18 L-4248.2 1423.18 L-5634.95 1423.18 L-7021.71 1423.18 L-8408.47 1423.18 L-9795.23 1423.18 L-11182 1423.18 L-12568.7 1423.18 L-13955.5 1423.18 L-15342.3 1423.18 L-16729 1423.18 L-18115.8 1423.18 L-19502.5 1423.18 L-20889.3 1423.18 L-22276.1 1423.18 L-23662.8 1423.18 L-25049.6 1423.18 L-26436.3 1423.18 L-27823.1 1423.18 L-29209.8 1423.18 L-30596.6 1423.18 L-31983.4 1423.18 L-33370.1 1423.18 L-34756.9 1423.18 L-36143.6 1423.18 L-37530.4 1423.18 L-38917.2 1423.18 L-40303.9 1423.18 L-41690.7 1423.18 L-43077.4 1423.18 L-44464.2 1423.18 L-45850.9 1423.18 L-47237.7 1423.18 L-48624.5 1423.18 L-50011.2 1423.18 L-51398 1423.18 L-52784.7 1423.18 L-54171.5 1423.18 L-55558.3 1423.18 L-56945 1423.18 L-58331.8 1423.18 L-59718.5 1423.18 L-61105.3 1423.18 L-62492.1 1423.18 L-63878.8 1423.18 L-65265.6 1423.18 L-66652.3 1423.18 L-68039.1 1423.18 L-69425.8 1423.18 L-70812.6 1423.18 L-72199.4 1423.18 L-73586.1 1423.18 L-74972.9 1423.18 L-76359.6 1423.18 L-77746.4 1423.18 L-79133.2 1423.18 L-80519.9 1423.18 L-81906.7 1423.18 L-83293.4 1423.18 L-84680.2 1423.18 L-86066.9 1423.18 L-87453.7 1423.18 L-88840.5 1423.18 L-90227.2 1423.18 L-91614 1423.18 L-93000.7 1423.18 L-94387.5 1423.18 L-95774.3 1423.18 L-97161 1423.18 L-98547.8 1423.18 L-99934.5 1423.18 L-101321 1423.18 L-102708 1423.18 L-104095 1423.18 L-105482 1423.18 L-106868 1423.18 L-108255 1423.18 L-109642 1423.18 L-111029 1423.18 L-112415 1423.18 L-113802 1423.18 L-115189 1423.18 L-116576 1423.18 L-117962 1423.18 L-119349 1423.18 L-120736 1423.18 L-122123 1423.18  Z" fill="#e26f46" fill-rule="evenodd" fill-opacity="0.2"/>
<polyline clip-path="url(#clip342)" style="stroke:#e26f46; stroke-linecap:round; stroke-linejoin:round; stroke-width:4; stroke-opacity:1; fill:none" points="-122123,1423.18 -120736,1423.18 -119349,1423.18 -117962,1423.18 -116576,1423.18 -115189,1423.18 -113802,1423.18 -112415,1423.18 -111029,1423.18 -109642,1423.18 -108255,1423.18 -106868,1423.18 -105482,1423.18 -104095,1423.18 -102708,1423.18 -101321,1423.18 -99934.5,1423.18 -98547.8,1423.18 -97161,1423.18 -95774.3,1423.18 -94387.5,1423.18 -93000.7,1423.18 -91614,1423.18 -90227.2,1423.18 -88840.5,1423.18 -87453.7,1423.18 -86066.9,1423.18 -84680.2,1423.18 -83293.4,1423.18 -81906.7,1423.18 -80519.9,1423.18 -79133.2,1423.18 -77746.4,1423.18 -76359.6,1423.18 -74972.9,1423.18 -73586.1,1423.18 -72199.4,1423.18 -70812.6,1423.18 -69425.8,1423.18 -68039.1,1423.18 -66652.3,1423.18 -65265.6,1423.18 -63878.8,1423.18 -62492.1,1423.18 -61105.3,1423.18 -59718.5,1423.18 -58331.8,1423.18 -56945,1423.18 -55558.3,1423.18 -54171.5,1423.17 -52784.7,1423.18 -51398,1423.18 -50011.2,1423.18 -48624.5,1423.17 -47237.7,1423.18 -45850.9,1423.17 -44464.2,1423.17 -43077.4,1423.17 -41690.7,1423.17 -40303.9,1423.17 -38917.2,1423.17 -37530.4,1423.17 -36143.6,1423.17 -34756.9,1423.17 -33370.1,1423.16 -31983.4,1423.17 -30596.6,1423.15 -29209.8,1423.15 -27823.1,1423.15 -26436.3,1423.14 -25049.6,1423.13 -23662.8,1423.11 -22276.1,1423.09 -20889.3,1423.06 -19502.5,1423.03 -18115.8,1422.97 -16729,1422.87 -15342.3,1422.71 -13955.5,1422.42 -12568.7,1421.92 -11182,1421.1 -9795.23,1419.61 -8408.47,1417.19 -7021.71,1413.12 -5634.95,1406.66 -4248.2,1396.85 -2861.44,1382.81 -1474.68,1364.93 -87.9199,1347.03 1298.84,1339.03 2685.6,1347.67 4072.36,1365.65 5459.11,1383.58 6845.87,1397.32 8232.63,1406.81 9619.39,1413.32 11006.1,1417.39 12392.9,1419.71 13779.7,1421.17 15166.4,1422 16553.2,1422.47 17939.9,1422.7 19326.7,1422.9 20713.5,1422.99 22100.2,1423.03 23487,1423.07 24873.7,1423.09 26260.5,1423.13 27647.2,1423.13 29034,1423.14 30420.8,1423.14 31807.5,1423.15 33194.3,1423.16 34581,1423.16 35967.8,1423.17 37354.6,1423.17 38741.3,1423.17 40128.1,1423.17 41514.8,1423.17 42901.6,1423.17 44288.4,1423.17 45675.1,1423.17 47061.9,1423.17 48448.6,1423.18 49835.4,1423.18 51222.1,1423.18 52608.9,1423.18 53995.7,1423.18 55382.4,1423.18 56769.2,1423.18 58155.9,1423.18 59542.7,1423.18 60929.5,1423.18 62316.2,1423.18 63703,1423.18 65089.7,1423.18 66476.5,1423.18 67863.2,1423.18 69250,1423.18 70636.8,1423.18 72023.5,1423.18 73410.3,1423.18 74797,1423.18 76183.8,1423.18 77570.6,1423.18 78957.3,1423.18 80344.1,1423.18 81730.8,1423.18 83117.6,1423.18 84504.3,1423.18 85891.1,1423.18 87277.9,1423.18 88664.6,1423.18 90051.4,1423.18 91438.1,1423.18 92824.9,1423.18 94211.7,1423.18 95598.4,1423.18 96985.2,1423.18 98371.9,1423.18 99758.7,1423.18 101145,1423.18 102532,1423.18 103919,1423.18 105306,1423.18 106692,1423.18 108079,1423.18 109466,1423.18 110853,1423.18 112240,1423.18 113626,1423.18 115013,1423.18 116400,1423.18 117787,1423.18 119173,1423.18 120560,1423.18 121947,1423.18 123334,1423.18 124720,1423.18 126107,1423.18 127494,1423.18 128881,1423.18 130267,1423.18 131654,1423.18 133041,1423.18 134428,1423.18 135814,1423.18 137201,1423.18 138588,1423.18 139975,1423.18 141361,1423.18 142748,1423.18 144135,1423.18 145522,1423.18 146908,1423.18 148295,1423.18 149682,1423.18 151069,1423.18 152456,1423.18 153842,1423.18 "/>
</svg>
