<?xml version="1.0" encoding="utf-8"?>
<svg xmlns="http://www.w3.org/2000/svg" xmlns:xlink="http://www.w3.org/1999/xlink" width="600" height="400" viewBox="0 0 2400 1600">
<defs>
  <clipPath id="clip660">
    <rect x="0" y="0" width="2400" height="1600"/>
  </clipPath>
</defs>
<path clip-path="url(#clip660)" d="M0 1600 L2400 1600 L2400 0 L0 0  Z" fill="#ffffff" fill-rule="evenodd" fill-opacity="1"/>
<defs>
  <clipPath id="clip661">
    <rect x="480" y="0" width="1681" height="1600"/>
  </clipPath>
</defs>
<path clip-path="url(#clip660)" d="M219.866 1423.18 L2352.76 1423.18 L2352.76 123.472 L219.866 123.472  Z" fill="#ffffff" fill-rule="evenodd" fill-opacity="1"/>
<defs>
  <clipPath id="clip662">
    <rect x="219" y="123" width="2134" height="1301"/>
  </clipPath>
</defs>
<polyline clip-path="url(#clip662)" style="stroke:#000000; stroke-linecap:round; stroke-linejoin:round; stroke-width:2; stroke-opacity:0.1; fill:none" points="219.866,1423.18 219.866,123.472 "/>
<polyline clip-path="url(#clip662)" style="stroke:#000000; stroke-linecap:round; stroke-linejoin:round; stroke-width:2; stroke-opacity:0.1; fill:none" points="753.089,1423.18 753.089,123.472 "/>
<polyline clip-path="url(#clip662)" style="stroke:#000000; stroke-linecap:round; stroke-linejoin:round; stroke-width:2; stroke-opacity:0.1; fill:none" points="1286.31,1423.18 1286.31,123.472 "/>
<polyline clip-path="url(#clip662)" style="stroke:#000000; stroke-linecap:round; stroke-linejoin:round; stroke-width:2; stroke-opacity:0.1; fill:none" points="1819.53,1423.18 1819.53,123.472 "/>
<polyline clip-path="url(#clip662)" style="stroke:#000000; stroke-linecap:round; stroke-linejoin:round; stroke-width:2; stroke-opacity:0.1; fill:none" points="2352.76,1423.18 2352.76,123.472 "/>
<polyline clip-path="url(#clip660)" style="stroke:#000000; stroke-linecap:round; stroke-linejoin:round; stroke-width:4; stroke-opacity:1; fill:none" points="219.866,1423.18 2352.76,1423.18 "/>
<polyline clip-path="url(#clip660)" style="stroke:#000000; stroke-linecap:round; stroke-linejoin:round; stroke-width:4; stroke-opacity:1; fill:none" points="219.866,1423.18 219.866,1404.28 "/>
<polyline clip-path="url(#clip660)" style="stroke:#000000; stroke-linecap:round; stroke-linejoin:round; stroke-width:4; stroke-opacity:1; fill:none" points="753.089,1423.18 753.089,1404.28 "/>
<polyline clip-path="url(#clip660)" style="stroke:#000000; stroke-linecap:round; stroke-linejoin:round; stroke-width:4; stroke-opacity:1; fill:none" points="1286.31,1423.18 1286.31,1404.28 "/>
<polyline clip-path="url(#clip660)" style="stroke:#000000; stroke-linecap:round; stroke-linejoin:round; stroke-width:4; stroke-opacity:1; fill:none" points="1819.53,1423.18 1819.53,1404.28 "/>
<polyline clip-path="url(#clip660)" style="stroke:#000000; stroke-linecap:round; stroke-linejoin:round; stroke-width:4; stroke-opacity:1; fill:none" points="2352.76,1423.18 2352.76,1404.28 "/>
<path clip-path="url(#clip660)" d="M188.767 1468.75 L218.443 1468.75 L218.443 1472.69 L188.767 1472.69 L188.767 1468.75 Z" fill="#000000" fill-rule="nonzero" fill-opacity="1" /><path clip-path="url(#clip660)" d="M241.382 1455.09 L229.577 1473.54 L241.382 1473.54 L241.382 1455.09 M240.156 1451.02 L246.035 1451.02 L246.035 1473.54 L250.966 1473.54 L250.966 1477.43 L246.035 1477.43 L246.035 1485.58 L241.382 1485.58 L241.382 1477.43 L225.781 1477.43 L225.781 1472.92 L240.156 1451.02 Z" fill="#000000" fill-rule="nonzero" fill-opacity="1" /><path clip-path="url(#clip660)" d="M723.031 1468.75 L752.707 1468.75 L752.707 1472.69 L723.031 1472.69 L723.031 1468.75 Z" fill="#000000" fill-rule="nonzero" fill-opacity="1" /><path clip-path="url(#clip660)" d="M766.827 1481.64 L783.146 1481.64 L783.146 1485.58 L761.202 1485.58 L761.202 1481.64 Q763.864 1478.89 768.447 1474.26 Q773.054 1469.61 774.234 1468.27 Q776.48 1465.74 777.359 1464.01 Q778.262 1462.25 778.262 1460.56 Q778.262 1457.8 776.318 1456.07 Q774.396 1454.33 771.295 1454.33 Q769.096 1454.33 766.642 1455.09 Q764.211 1455.86 761.434 1457.41 L761.434 1452.69 Q764.258 1451.55 766.711 1450.97 Q769.165 1450.39 771.202 1450.39 Q776.572 1450.39 779.767 1453.08 Q782.961 1455.77 782.961 1460.26 Q782.961 1462.39 782.151 1464.31 Q781.364 1466.2 779.258 1468.8 Q778.679 1469.47 775.577 1472.69 Q772.475 1475.88 766.827 1481.64 Z" fill="#000000" fill-rule="nonzero" fill-opacity="1" /><path clip-path="url(#clip660)" d="M1286.31 1454.1 Q1282.7 1454.1 1280.87 1457.66 Q1279.07 1461.2 1279.07 1468.33 Q1279.07 1475.44 1280.87 1479.01 Q1282.7 1482.55 1286.31 1482.55 Q1289.95 1482.55 1291.75 1479.01 Q1293.58 1475.44 1293.58 1468.33 Q1293.58 1461.2 1291.75 1457.66 Q1289.95 1454.1 1286.31 1454.1 M1286.31 1450.39 Q1292.12 1450.39 1295.18 1455 Q1298.26 1459.58 1298.26 1468.33 Q1298.26 1477.06 1295.18 1481.67 Q1292.12 1486.25 1286.31 1486.25 Q1280.5 1486.25 1277.42 1481.67 Q1274.37 1477.06 1274.37 1468.33 Q1274.37 1459.58 1277.42 1455 Q1280.5 1450.39 1286.31 1450.39 Z" fill="#000000" fill-rule="nonzero" fill-opacity="1" /><path clip-path="url(#clip660)" d="M1814.19 1481.64 L1830.51 1481.64 L1830.51 1485.58 L1808.56 1485.58 L1808.56 1481.64 Q1811.22 1478.89 1815.81 1474.26 Q1820.41 1469.61 1821.59 1468.27 Q1823.84 1465.74 1824.72 1464.01 Q1825.62 1462.25 1825.62 1460.56 Q1825.62 1457.8 1823.68 1456.07 Q1821.76 1454.33 1818.65 1454.33 Q1816.45 1454.33 1814 1455.09 Q1811.57 1455.86 1808.79 1457.41 L1808.79 1452.69 Q1811.62 1451.55 1814.07 1450.97 Q1816.52 1450.39 1818.56 1450.39 Q1823.93 1450.39 1827.13 1453.08 Q1830.32 1455.77 1830.32 1460.26 Q1830.32 1462.39 1829.51 1464.31 Q1828.72 1466.2 1826.62 1468.8 Q1826.04 1469.47 1822.94 1472.69 Q1819.83 1475.88 1814.19 1481.64 Z" fill="#000000" fill-rule="nonzero" fill-opacity="1" /><path clip-path="url(#clip660)" d="M2355.77 1455.09 L2343.96 1473.54 L2355.77 1473.54 L2355.77 1455.09 M2354.54 1451.02 L2360.42 1451.02 L2360.42 1473.54 L2365.35 1473.54 L2365.35 1477.43 L2360.42 1477.43 L2360.42 1485.58 L2355.77 1485.58 L2355.77 1477.43 L2340.16 1477.43 L2340.16 1472.92 L2354.54 1451.02 Z" fill="#000000" fill-rule="nonzero" fill-opacity="1" /><path clip-path="url(#clip660)" d="M885.319 1532.4 L913.137 1532.4 L913.137 1537.74 L891.112 1563.37 L913.137 1563.37 L913.137 1568.04 L884.524 1568.04 L884.524 1562.7 L906.549 1537.07 L885.319 1537.07 L885.319 1532.4 Z" fill="#000000" fill-rule="nonzero" fill-opacity="1" /><path clip-path="url(#clip660)" d="M919.121 1547.58 L936.277 1547.58 L936.277 1552.8 L919.121 1552.8 L919.121 1547.58 Z" fill="#000000" fill-rule="nonzero" fill-opacity="1" /><path clip-path="url(#clip660)" d="M968.328 1533.45 L968.328 1538.98 Q965.845 1537.71 963.172 1537.07 Q960.498 1536.44 957.634 1536.44 Q953.273 1536.44 951.077 1537.77 Q948.913 1539.11 948.913 1541.79 Q948.913 1543.82 950.472 1545 Q952.032 1546.15 956.743 1547.2 L958.748 1547.64 Q964.986 1548.98 967.596 1551.43 Q970.238 1553.85 970.238 1558.21 Q970.238 1563.17 966.291 1566.07 Q962.376 1568.97 955.501 1568.97 Q952.637 1568.97 949.517 1568.39 Q946.43 1567.85 942.993 1566.74 L942.993 1560.69 Q946.239 1562.38 949.39 1563.24 Q952.541 1564.07 955.629 1564.07 Q959.766 1564.07 961.994 1562.66 Q964.222 1561.23 964.222 1558.65 Q964.222 1556.27 962.599 1554.99 Q961.008 1553.72 955.565 1552.54 L953.528 1552.07 Q948.085 1550.92 945.666 1548.56 Q943.247 1546.18 943.247 1542.04 Q943.247 1537.01 946.812 1534.27 Q950.377 1531.54 956.934 1531.54 Q960.18 1531.54 963.045 1532.01 Q965.909 1532.49 968.328 1533.45 Z" fill="#000000" fill-rule="nonzero" fill-opacity="1" /><path clip-path="url(#clip660)" d="M985.356 1522.27 L985.356 1532.4 L997.419 1532.4 L997.419 1536.95 L985.356 1536.95 L985.356 1556.3 Q985.356 1560.66 986.534 1561.9 Q987.744 1563.14 991.404 1563.14 L997.419 1563.14 L997.419 1568.04 L991.404 1568.04 Q984.624 1568.04 982.046 1565.53 Q979.468 1562.98 979.468 1556.3 L979.468 1536.95 L975.171 1536.95 L975.171 1532.4 L979.468 1532.4 L979.468 1522.27 L985.356 1522.27 Z" fill="#000000" fill-rule="nonzero" fill-opacity="1" /><path clip-path="url(#clip660)" d="M1021.32 1550.12 Q1014.22 1550.12 1011.49 1551.75 Q1008.75 1553.37 1008.75 1557.29 Q1008.75 1560.4 1010.79 1562.25 Q1012.86 1564.07 1016.39 1564.07 Q1021.26 1564.07 1024.19 1560.63 Q1027.15 1557.16 1027.15 1551.43 L1027.15 1550.12 L1021.32 1550.12 M1033 1547.71 L1033 1568.04 L1027.15 1568.04 L1027.15 1562.63 Q1025.14 1565.88 1022.15 1567.44 Q1019.16 1568.97 1014.83 1568.97 Q1009.36 1568.97 1006.11 1565.91 Q1002.89 1562.82 1002.89 1557.67 Q1002.89 1551.65 1006.9 1548.6 Q1010.95 1545.54 1018.94 1545.54 L1027.15 1545.54 L1027.15 1544.97 Q1027.15 1540.93 1024.47 1538.73 Q1021.83 1536.5 1017.03 1536.5 Q1013.97 1536.5 1011.07 1537.23 Q1008.18 1537.97 1005.5 1539.43 L1005.5 1534.02 Q1008.72 1532.78 1011.74 1532.17 Q1014.77 1531.54 1017.63 1531.54 Q1025.36 1531.54 1029.18 1535.55 Q1033 1539.56 1033 1547.71 Z" fill="#000000" fill-rule="nonzero" fill-opacity="1" /><path clip-path="url(#clip660)" d="M1074.7 1546.53 L1074.7 1568.04 L1068.84 1568.04 L1068.84 1546.72 Q1068.84 1541.66 1066.87 1539.14 Q1064.9 1536.63 1060.95 1536.63 Q1056.21 1536.63 1053.47 1539.65 Q1050.73 1542.68 1050.73 1547.9 L1050.73 1568.04 L1044.84 1568.04 L1044.84 1532.4 L1050.73 1532.4 L1050.73 1537.93 Q1052.83 1534.72 1055.67 1533.13 Q1058.53 1531.54 1062.25 1531.54 Q1068.4 1531.54 1071.55 1535.36 Q1074.7 1539.14 1074.7 1546.53 Z" fill="#000000" fill-rule="nonzero" fill-opacity="1" /><path clip-path="url(#clip660)" d="M1109.84 1537.81 L1109.84 1518.52 L1115.69 1518.52 L1115.69 1568.04 L1109.84 1568.04 L1109.84 1562.7 Q1107.99 1565.88 1105.16 1567.44 Q1102.36 1568.97 1098.41 1568.97 Q1091.95 1568.97 1087.88 1563.81 Q1083.83 1558.65 1083.83 1550.25 Q1083.83 1541.85 1087.88 1536.69 Q1091.95 1531.54 1098.41 1531.54 Q1102.36 1531.54 1105.16 1533.1 Q1107.99 1534.62 1109.84 1537.81 M1089.88 1550.25 Q1089.88 1556.71 1092.52 1560.4 Q1095.2 1564.07 1099.84 1564.07 Q1104.49 1564.07 1107.16 1560.4 Q1109.84 1556.71 1109.84 1550.25 Q1109.84 1543.79 1107.16 1540.13 Q1104.49 1536.44 1099.84 1536.44 Q1095.2 1536.44 1092.52 1540.13 Q1089.88 1543.79 1089.88 1550.25 Z" fill="#000000" fill-rule="nonzero" fill-opacity="1" /><path clip-path="url(#clip660)" d="M1143.96 1550.12 Q1136.86 1550.12 1134.12 1551.75 Q1131.39 1553.37 1131.39 1557.29 Q1131.39 1560.4 1133.42 1562.25 Q1135.49 1564.07 1139.02 1564.07 Q1143.89 1564.07 1146.82 1560.63 Q1149.78 1557.16 1149.78 1551.43 L1149.78 1550.12 L1143.96 1550.12 M1155.64 1547.71 L1155.64 1568.04 L1149.78 1568.04 L1149.78 1562.63 Q1147.78 1565.88 1144.79 1567.44 Q1141.79 1568.97 1137.46 1568.97 Q1131.99 1568.97 1128.74 1565.91 Q1125.53 1562.82 1125.53 1557.67 Q1125.53 1551.65 1129.54 1548.6 Q1133.58 1545.54 1141.57 1545.54 L1149.78 1545.54 L1149.78 1544.97 Q1149.78 1540.93 1147.11 1538.73 Q1144.47 1536.5 1139.66 1536.5 Q1136.61 1536.5 1133.71 1537.23 Q1130.81 1537.97 1128.14 1539.43 L1128.14 1534.02 Q1131.35 1532.78 1134.38 1532.17 Q1137.4 1531.54 1140.27 1531.54 Q1148 1531.54 1151.82 1535.55 Q1155.64 1539.56 1155.64 1547.71 Z" fill="#000000" fill-rule="nonzero" fill-opacity="1" /><path clip-path="url(#clip660)" d="M1188.36 1537.87 Q1187.37 1537.3 1186.19 1537.04 Q1185.05 1536.76 1183.65 1536.76 Q1178.68 1536.76 1176.01 1540 Q1173.37 1543.22 1173.37 1549.27 L1173.37 1568.04 L1167.48 1568.04 L1167.48 1532.4 L1173.37 1532.4 L1173.37 1537.93 Q1175.21 1534.69 1178.17 1533.13 Q1181.13 1531.54 1185.37 1531.54 Q1185.97 1531.54 1186.7 1531.63 Q1187.44 1531.7 1188.33 1531.85 L1188.36 1537.87 Z" fill="#000000" fill-rule="nonzero" fill-opacity="1" /><path clip-path="url(#clip660)" d="M1216.81 1537.81 L1216.81 1518.52 L1222.67 1518.52 L1222.67 1568.04 L1216.81 1568.04 L1216.81 1562.7 Q1214.97 1565.88 1212.13 1567.44 Q1209.33 1568.97 1205.39 1568.97 Q1198.93 1568.97 1194.85 1563.81 Q1190.81 1558.65 1190.81 1550.25 Q1190.81 1541.85 1194.85 1536.69 Q1198.93 1531.54 1205.39 1531.54 Q1209.33 1531.54 1212.13 1533.1 Q1214.97 1534.62 1216.81 1537.81 M1196.86 1550.25 Q1196.86 1556.71 1199.5 1560.4 Q1202.17 1564.07 1206.82 1564.07 Q1211.47 1564.07 1214.14 1560.4 Q1216.81 1556.71 1216.81 1550.25 Q1216.81 1543.79 1214.14 1540.13 Q1211.47 1536.44 1206.82 1536.44 Q1202.17 1536.44 1199.5 1540.13 Q1196.86 1543.79 1196.86 1550.25 Z" fill="#000000" fill-rule="nonzero" fill-opacity="1" /><path clip-path="url(#clip660)" d="M1234.73 1532.4 L1240.59 1532.4 L1240.59 1568.04 L1234.73 1568.04 L1234.73 1532.4 M1234.73 1518.52 L1240.59 1518.52 L1240.59 1525.93 L1234.73 1525.93 L1234.73 1518.52 Z" fill="#000000" fill-rule="nonzero" fill-opacity="1" /><path clip-path="url(#clip660)" d="M1275.57 1533.45 L1275.57 1538.98 Q1273.09 1537.71 1270.41 1537.07 Q1267.74 1536.44 1264.87 1536.44 Q1260.51 1536.44 1258.32 1537.77 Q1256.15 1539.11 1256.15 1541.79 Q1256.15 1543.82 1257.71 1545 Q1259.27 1546.15 1263.98 1547.2 L1265.99 1547.64 Q1272.23 1548.98 1274.84 1551.43 Q1277.48 1553.85 1277.48 1558.21 Q1277.48 1563.17 1273.53 1566.07 Q1269.62 1568.97 1262.74 1568.97 Q1259.88 1568.97 1256.76 1568.39 Q1253.67 1567.85 1250.23 1566.74 L1250.23 1560.69 Q1253.48 1562.38 1256.63 1563.24 Q1259.78 1564.07 1262.87 1564.07 Q1267.01 1564.07 1269.24 1562.66 Q1271.46 1561.23 1271.46 1558.65 Q1271.46 1556.27 1269.84 1554.99 Q1268.25 1553.72 1262.81 1552.54 L1260.77 1552.07 Q1255.33 1550.92 1252.91 1548.56 Q1250.49 1546.18 1250.49 1542.04 Q1250.49 1537.01 1254.05 1534.27 Q1257.62 1531.54 1264.17 1531.54 Q1267.42 1531.54 1270.29 1532.01 Q1273.15 1532.49 1275.57 1533.45 Z" fill="#000000" fill-rule="nonzero" fill-opacity="1" /><path clip-path="url(#clip660)" d="M1317.3 1548.76 L1317.3 1551.62 L1290.37 1551.62 Q1290.75 1557.67 1294 1560.85 Q1297.28 1564 1303.1 1564 Q1306.47 1564 1309.63 1563.17 Q1312.81 1562.35 1315.93 1560.69 L1315.93 1566.23 Q1312.78 1567.57 1309.47 1568.27 Q1306.16 1568.97 1302.75 1568.97 Q1294.22 1568.97 1289.22 1564 Q1284.26 1559.04 1284.26 1550.57 Q1284.26 1541.82 1288.97 1536.69 Q1293.71 1531.54 1301.73 1531.54 Q1308.93 1531.54 1313.09 1536.18 Q1317.3 1540.8 1317.3 1548.76 M1311.44 1547.04 Q1311.38 1542.23 1308.73 1539.37 Q1306.12 1536.5 1301.8 1536.5 Q1296.89 1536.5 1293.93 1539.27 Q1291.01 1542.04 1290.56 1547.07 L1311.44 1547.04 Z" fill="#000000" fill-rule="nonzero" fill-opacity="1" /><path clip-path="url(#clip660)" d="M1350.37 1537.81 L1350.37 1518.52 L1356.22 1518.52 L1356.22 1568.04 L1350.37 1568.04 L1350.37 1562.7 Q1348.52 1565.88 1345.69 1567.44 Q1342.89 1568.97 1338.94 1568.97 Q1332.48 1568.97 1328.4 1563.81 Q1324.36 1558.65 1324.36 1550.25 Q1324.36 1541.85 1328.4 1536.69 Q1332.48 1531.54 1338.94 1531.54 Q1342.89 1531.54 1345.69 1533.1 Q1348.52 1534.62 1350.37 1537.81 M1330.41 1550.25 Q1330.41 1556.71 1333.05 1560.4 Q1335.72 1564.07 1340.37 1564.07 Q1345.02 1564.07 1347.69 1560.4 Q1350.37 1556.71 1350.37 1550.25 Q1350.37 1543.79 1347.69 1540.13 Q1345.02 1536.44 1340.37 1536.44 Q1335.72 1536.44 1333.05 1540.13 Q1330.41 1543.79 1330.41 1550.25 Z" fill="#000000" fill-rule="nonzero" fill-opacity="1" /><path clip-path="url(#clip660)" d="M1389.01 1518.52 L1394.86 1518.52 L1394.86 1568.04 L1389.01 1568.04 L1389.01 1518.52 Z" fill="#000000" fill-rule="nonzero" fill-opacity="1" /><path clip-path="url(#clip660)" d="M1420.93 1536.5 Q1416.22 1536.5 1413.48 1540.19 Q1410.74 1543.85 1410.74 1550.25 Q1410.74 1556.65 1413.45 1560.34 Q1416.19 1564 1420.93 1564 Q1425.61 1564 1428.35 1560.31 Q1431.08 1556.62 1431.08 1550.25 Q1431.08 1543.92 1428.35 1540.23 Q1425.61 1536.5 1420.93 1536.5 M1420.93 1531.54 Q1428.57 1531.54 1432.93 1536.5 Q1437.29 1541.47 1437.29 1550.25 Q1437.29 1559 1432.93 1564 Q1428.57 1568.97 1420.93 1568.97 Q1413.26 1568.97 1408.9 1564 Q1404.57 1559 1404.57 1550.25 Q1404.57 1541.47 1408.9 1536.5 Q1413.26 1531.54 1420.93 1531.54 Z" fill="#000000" fill-rule="nonzero" fill-opacity="1" /><path clip-path="url(#clip660)" d="M1470.46 1549.81 Q1470.46 1543.44 1467.81 1539.94 Q1465.2 1536.44 1460.46 1536.44 Q1455.75 1536.44 1453.11 1539.94 Q1450.5 1543.44 1450.5 1549.81 Q1450.5 1556.14 1453.11 1559.64 Q1455.75 1563.14 1460.46 1563.14 Q1465.2 1563.14 1467.81 1559.64 Q1470.46 1556.14 1470.46 1549.81 M1476.31 1563.62 Q1476.31 1572.72 1472.27 1577.15 Q1468.23 1581.6 1459.89 1581.6 Q1456.8 1581.6 1454.06 1581.13 Q1451.33 1580.68 1448.75 1579.72 L1448.75 1574.03 Q1451.33 1575.43 1453.84 1576.1 Q1456.36 1576.76 1458.96 1576.76 Q1464.73 1576.76 1467.59 1573.74 Q1470.46 1570.75 1470.46 1564.67 L1470.46 1561.77 Q1468.64 1564.92 1465.81 1566.48 Q1462.98 1568.04 1459.03 1568.04 Q1452.47 1568.04 1448.46 1563.05 Q1444.45 1558.05 1444.45 1549.81 Q1444.45 1541.53 1448.46 1536.53 Q1452.47 1531.54 1459.03 1531.54 Q1462.98 1531.54 1465.81 1533.1 Q1468.64 1534.66 1470.46 1537.81 L1470.46 1532.4 L1476.31 1532.4 L1476.31 1563.62 Z" fill="#000000" fill-rule="nonzero" fill-opacity="1" /><path clip-path="url(#clip660)" d="M1485.41 1547.58 L1502.57 1547.58 L1502.57 1552.8 L1485.41 1552.8 L1485.41 1547.58 Z" fill="#000000" fill-rule="nonzero" fill-opacity="1" /><path clip-path="url(#clip660)" d="M1537.55 1533.76 L1537.55 1539.24 Q1535.07 1537.87 1532.55 1537.2 Q1530.07 1536.5 1527.52 1536.5 Q1521.83 1536.5 1518.68 1540.13 Q1515.52 1543.73 1515.52 1550.25 Q1515.52 1556.78 1518.68 1560.4 Q1521.83 1564 1527.52 1564 Q1530.07 1564 1532.55 1563.33 Q1535.07 1562.63 1537.55 1561.26 L1537.55 1566.68 Q1535.1 1567.82 1532.46 1568.39 Q1529.85 1568.97 1526.89 1568.97 Q1518.83 1568.97 1514.09 1563.91 Q1509.35 1558.85 1509.35 1550.25 Q1509.35 1541.53 1514.12 1536.53 Q1518.93 1531.54 1527.27 1531.54 Q1529.97 1531.54 1532.55 1532.11 Q1535.13 1532.65 1537.55 1533.76 Z" fill="#000000" fill-rule="nonzero" fill-opacity="1" /><path clip-path="url(#clip660)" d="M1561.55 1536.5 Q1556.84 1536.5 1554.1 1540.19 Q1551.36 1543.85 1551.36 1550.25 Q1551.36 1556.65 1554.07 1560.34 Q1556.81 1564 1561.55 1564 Q1566.23 1564 1568.96 1560.31 Q1571.7 1556.62 1571.7 1550.25 Q1571.7 1543.92 1568.96 1540.23 Q1566.23 1536.5 1561.55 1536.5 M1561.55 1531.54 Q1569.19 1531.54 1573.55 1536.5 Q1577.91 1541.47 1577.91 1550.25 Q1577.91 1559 1573.55 1564 Q1569.19 1568.97 1561.55 1568.97 Q1553.88 1568.97 1549.52 1564 Q1545.19 1559 1545.19 1550.25 Q1545.19 1541.47 1549.52 1536.5 Q1553.88 1531.54 1561.55 1531.54 Z" fill="#000000" fill-rule="nonzero" fill-opacity="1" /><path clip-path="url(#clip660)" d="M1587.01 1553.98 L1587.01 1532.4 L1592.87 1532.4 L1592.87 1553.75 Q1592.87 1558.81 1594.84 1561.36 Q1596.81 1563.87 1600.76 1563.87 Q1605.5 1563.87 1608.24 1560.85 Q1611.01 1557.83 1611.01 1552.61 L1611.01 1532.4 L1616.87 1532.4 L1616.87 1568.04 L1611.01 1568.04 L1611.01 1562.57 Q1608.88 1565.82 1606.04 1567.41 Q1603.24 1568.97 1599.52 1568.97 Q1593.38 1568.97 1590.19 1565.15 Q1587.01 1561.33 1587.01 1553.98 M1601.75 1531.54 L1601.75 1531.54 Z" fill="#000000" fill-rule="nonzero" fill-opacity="1" /><path clip-path="url(#clip660)" d="M1658.56 1546.53 L1658.56 1568.04 L1652.71 1568.04 L1652.71 1546.72 Q1652.71 1541.66 1650.73 1539.14 Q1648.76 1536.63 1644.81 1536.63 Q1640.07 1536.63 1637.33 1539.65 Q1634.59 1542.68 1634.59 1547.9 L1634.59 1568.04 L1628.71 1568.04 L1628.71 1532.4 L1634.59 1532.4 L1634.59 1537.93 Q1636.7 1534.72 1639.53 1533.13 Q1642.39 1531.54 1646.12 1531.54 Q1652.26 1531.54 1655.41 1535.36 Q1658.56 1539.14 1658.56 1546.53 Z" fill="#000000" fill-rule="nonzero" fill-opacity="1" /><path clip-path="url(#clip660)" d="M1676.04 1522.27 L1676.04 1532.4 L1688.1 1532.4 L1688.1 1536.95 L1676.04 1536.95 L1676.04 1556.3 Q1676.04 1560.66 1677.21 1561.9 Q1678.42 1563.14 1682.08 1563.14 L1688.1 1563.14 L1688.1 1568.04 L1682.08 1568.04 Q1675.3 1568.04 1672.73 1565.53 Q1670.15 1562.98 1670.15 1556.3 L1670.15 1536.95 L1665.85 1536.95 L1665.85 1532.4 L1670.15 1532.4 L1670.15 1522.27 L1676.04 1522.27 Z" fill="#000000" fill-rule="nonzero" fill-opacity="1" /><polyline clip-path="url(#clip662)" style="stroke:#000000; stroke-linecap:round; stroke-linejoin:round; stroke-width:2; stroke-opacity:0.1; fill:none" points="219.866,1423.18 2352.76,1423.18 "/>
<polyline clip-path="url(#clip662)" style="stroke:#000000; stroke-linecap:round; stroke-linejoin:round; stroke-width:2; stroke-opacity:0.1; fill:none" points="219.866,1127.14 2352.76,1127.14 "/>
<polyline clip-path="url(#clip662)" style="stroke:#000000; stroke-linecap:round; stroke-linejoin:round; stroke-width:2; stroke-opacity:0.1; fill:none" points="219.866,831.091 2352.76,831.091 "/>
<polyline clip-path="url(#clip662)" style="stroke:#000000; stroke-linecap:round; stroke-linejoin:round; stroke-width:2; stroke-opacity:0.1; fill:none" points="219.866,535.046 2352.76,535.046 "/>
<polyline clip-path="url(#clip662)" style="stroke:#000000; stroke-linecap:round; stroke-linejoin:round; stroke-width:2; stroke-opacity:0.1; fill:none" points="219.866,239.002 2352.76,239.002 "/>
<polyline clip-path="url(#clip660)" style="stroke:#000000; stroke-linecap:round; stroke-linejoin:round; stroke-width:4; stroke-opacity:1; fill:none" points="219.866,1423.18 219.866,123.472 "/>
<polyline clip-path="url(#clip660)" style="stroke:#000000; stroke-linecap:round; stroke-linejoin:round; stroke-width:4; stroke-opacity:1; fill:none" points="219.866,1423.18 238.764,1423.18 "/>
<polyline clip-path="url(#clip660)" style="stroke:#000000; stroke-linecap:round; stroke-linejoin:round; stroke-width:4; stroke-opacity:1; fill:none" points="219.866,1127.14 238.764,1127.14 "/>
<polyline clip-path="url(#clip660)" style="stroke:#000000; stroke-linecap:round; stroke-linejoin:round; stroke-width:4; stroke-opacity:1; fill:none" points="219.866,831.091 238.764,831.091 "/>
<polyline clip-path="url(#clip660)" style="stroke:#000000; stroke-linecap:round; stroke-linejoin:round; stroke-width:4; stroke-opacity:1; fill:none" points="219.866,535.046 238.764,535.046 "/>
<polyline clip-path="url(#clip660)" style="stroke:#000000; stroke-linecap:round; stroke-linejoin:round; stroke-width:4; stroke-opacity:1; fill:none" points="219.866,239.002 238.764,239.002 "/>
<path clip-path="url(#clip660)" d="M126.691 1408.98 Q123.08 1408.98 121.251 1412.54 Q119.445 1416.08 119.445 1423.21 Q119.445 1430.32 121.251 1433.89 Q123.08 1437.43 126.691 1437.43 Q130.325 1437.43 132.13 1433.89 Q133.959 1430.32 133.959 1423.21 Q133.959 1416.08 132.13 1412.54 Q130.325 1408.98 126.691 1408.98 M126.691 1405.27 Q132.501 1405.27 135.556 1409.88 Q138.635 1414.46 138.635 1423.21 Q138.635 1431.94 135.556 1436.55 Q132.501 1441.13 126.691 1441.13 Q120.88 1441.13 117.802 1436.55 Q114.746 1431.94 114.746 1423.21 Q114.746 1414.46 117.802 1409.88 Q120.88 1405.27 126.691 1405.27 Z" fill="#000000" fill-rule="nonzero" fill-opacity="1" /><path clip-path="url(#clip660)" d="M146.853 1434.58 L151.737 1434.58 L151.737 1440.46 L146.853 1440.46 L146.853 1434.58 Z" fill="#000000" fill-rule="nonzero" fill-opacity="1" /><path clip-path="url(#clip660)" d="M171.922 1408.98 Q168.311 1408.98 166.482 1412.54 Q164.677 1416.08 164.677 1423.21 Q164.677 1430.32 166.482 1433.89 Q168.311 1437.43 171.922 1437.43 Q175.556 1437.43 177.362 1433.89 Q179.19 1430.32 179.19 1423.21 Q179.19 1416.08 177.362 1412.54 Q175.556 1408.98 171.922 1408.98 M171.922 1405.27 Q177.732 1405.27 180.788 1409.88 Q183.866 1414.46 183.866 1423.21 Q183.866 1431.94 180.788 1436.55 Q177.732 1441.13 171.922 1441.13 Q166.112 1441.13 163.033 1436.55 Q159.978 1431.94 159.978 1423.21 Q159.978 1414.46 163.033 1409.88 Q166.112 1405.27 171.922 1405.27 Z" fill="#000000" fill-rule="nonzero" fill-opacity="1" /><path clip-path="url(#clip660)" d="M127.917 1112.93 Q124.306 1112.93 122.478 1116.5 Q120.672 1120.04 120.672 1127.17 Q120.672 1134.28 122.478 1137.84 Q124.306 1141.38 127.917 1141.38 Q131.552 1141.38 133.357 1137.84 Q135.186 1134.28 135.186 1127.17 Q135.186 1120.04 133.357 1116.5 Q131.552 1112.93 127.917 1112.93 M127.917 1109.23 Q133.728 1109.23 136.783 1113.84 Q139.862 1118.42 139.862 1127.17 Q139.862 1135.9 136.783 1140.5 Q133.728 1145.09 127.917 1145.09 Q122.107 1145.09 119.029 1140.5 Q115.973 1135.9 115.973 1127.17 Q115.973 1118.42 119.029 1113.84 Q122.107 1109.23 127.917 1109.23 Z" fill="#000000" fill-rule="nonzero" fill-opacity="1" /><path clip-path="url(#clip660)" d="M148.079 1138.54 L152.964 1138.54 L152.964 1144.42 L148.079 1144.42 L148.079 1138.54 Z" fill="#000000" fill-rule="nonzero" fill-opacity="1" /><path clip-path="url(#clip660)" d="M163.959 1140.48 L171.598 1140.48 L171.598 1114.11 L163.288 1115.78 L163.288 1111.52 L171.552 1109.86 L176.227 1109.86 L176.227 1140.48 L183.866 1140.48 L183.866 1144.42 L163.959 1144.42 L163.959 1140.48 Z" fill="#000000" fill-rule="nonzero" fill-opacity="1" /><path clip-path="url(#clip660)" d="M128.288 816.889 Q124.677 816.889 122.848 820.454 Q121.043 823.996 121.043 831.125 Q121.043 838.232 122.848 841.797 Q124.677 845.338 128.288 845.338 Q131.922 845.338 133.728 841.797 Q135.556 838.232 135.556 831.125 Q135.556 823.996 133.728 820.454 Q131.922 816.889 128.288 816.889 M128.288 813.186 Q134.098 813.186 137.154 817.792 Q140.232 822.376 140.232 831.125 Q140.232 839.852 137.154 844.459 Q134.098 849.042 128.288 849.042 Q122.478 849.042 119.399 844.459 Q116.343 839.852 116.343 831.125 Q116.343 822.376 119.399 817.792 Q122.478 813.186 128.288 813.186 Z" fill="#000000" fill-rule="nonzero" fill-opacity="1" /><path clip-path="url(#clip660)" d="M148.45 842.491 L153.334 842.491 L153.334 848.371 L148.45 848.371 L148.45 842.491 Z" fill="#000000" fill-rule="nonzero" fill-opacity="1" /><path clip-path="url(#clip660)" d="M167.547 844.436 L183.866 844.436 L183.866 848.371 L161.922 848.371 L161.922 844.436 Q164.584 841.681 169.167 837.051 Q173.774 832.399 174.954 831.056 Q177.2 828.533 178.079 826.797 Q178.982 825.038 178.982 823.348 Q178.982 820.593 177.038 818.857 Q175.116 817.121 172.014 817.121 Q169.815 817.121 167.362 817.885 Q164.931 818.649 162.153 820.2 L162.153 815.477 Q164.977 814.343 167.431 813.764 Q169.885 813.186 171.922 813.186 Q177.292 813.186 180.487 815.871 Q183.681 818.556 183.681 823.047 Q183.681 825.176 182.871 827.098 Q182.084 828.996 179.977 831.588 Q179.399 832.26 176.297 835.477 Q173.195 838.672 167.547 844.436 Z" fill="#000000" fill-rule="nonzero" fill-opacity="1" /><path clip-path="url(#clip660)" d="M127.339 520.845 Q123.728 520.845 121.899 524.41 Q120.093 527.951 120.093 535.081 Q120.093 542.187 121.899 545.752 Q123.728 549.294 127.339 549.294 Q130.973 549.294 132.779 545.752 Q134.607 542.187 134.607 535.081 Q134.607 527.951 132.779 524.41 Q130.973 520.845 127.339 520.845 M127.339 517.141 Q133.149 517.141 136.204 521.748 Q139.283 526.331 139.283 535.081 Q139.283 543.808 136.204 548.414 Q133.149 552.998 127.339 552.998 Q121.529 552.998 118.45 548.414 Q115.394 543.808 115.394 535.081 Q115.394 526.331 118.45 521.748 Q121.529 517.141 127.339 517.141 Z" fill="#000000" fill-rule="nonzero" fill-opacity="1" /><path clip-path="url(#clip660)" d="M147.501 546.447 L152.385 546.447 L152.385 552.326 L147.501 552.326 L147.501 546.447 Z" fill="#000000" fill-rule="nonzero" fill-opacity="1" /><path clip-path="url(#clip660)" d="M176.737 533.692 Q180.093 534.41 181.968 536.678 Q183.866 538.947 183.866 542.28 Q183.866 547.396 180.348 550.197 Q176.829 552.998 170.348 552.998 Q168.172 552.998 165.857 552.558 Q163.565 552.141 161.112 551.285 L161.112 546.771 Q163.056 547.905 165.371 548.484 Q167.686 549.062 170.209 549.062 Q174.607 549.062 176.899 547.326 Q179.214 545.59 179.214 542.28 Q179.214 539.224 177.061 537.512 Q174.931 535.775 171.112 535.775 L167.084 535.775 L167.084 531.933 L171.297 531.933 Q174.746 531.933 176.575 530.567 Q178.403 529.178 178.403 526.586 Q178.403 523.924 176.505 522.512 Q174.63 521.076 171.112 521.076 Q169.19 521.076 166.991 521.493 Q164.792 521.91 162.153 522.789 L162.153 518.623 Q164.815 517.882 167.13 517.512 Q169.468 517.141 171.528 517.141 Q176.852 517.141 179.954 519.572 Q183.056 521.979 183.056 526.1 Q183.056 528.97 181.413 530.961 Q179.769 532.928 176.737 533.692 Z" fill="#000000" fill-rule="nonzero" fill-opacity="1" /><path clip-path="url(#clip660)" d="M126.205 224.8 Q122.593 224.8 120.765 228.365 Q118.959 231.907 118.959 239.036 Q118.959 246.143 120.765 249.708 Q122.593 253.249 126.205 253.249 Q129.839 253.249 131.644 249.708 Q133.473 246.143 133.473 239.036 Q133.473 231.907 131.644 228.365 Q129.839 224.8 126.205 224.8 M126.205 221.097 Q132.015 221.097 135.07 225.703 Q138.149 230.286 138.149 239.036 Q138.149 247.763 135.07 252.37 Q132.015 256.953 126.205 256.953 Q120.394 256.953 117.316 252.37 Q114.26 247.763 114.26 239.036 Q114.26 230.286 117.316 225.703 Q120.394 221.097 126.205 221.097 Z" fill="#000000" fill-rule="nonzero" fill-opacity="1" /><path clip-path="url(#clip660)" d="M146.366 250.402 L151.251 250.402 L151.251 256.282 L146.366 256.282 L146.366 250.402 Z" fill="#000000" fill-rule="nonzero" fill-opacity="1" /><path clip-path="url(#clip660)" d="M174.283 225.796 L162.477 244.245 L174.283 244.245 L174.283 225.796 M173.056 221.722 L178.936 221.722 L178.936 244.245 L183.866 244.245 L183.866 248.134 L178.936 248.134 L178.936 256.282 L174.283 256.282 L174.283 248.134 L158.681 248.134 L158.681 243.62 L173.056 221.722 Z" fill="#000000" fill-rule="nonzero" fill-opacity="1" /><path clip-path="url(#clip660)" d="M21.7677 886.636 L58.7206 886.636 L58.7206 878.869 Q58.7206 869.034 54.2646 864.483 Q49.8086 859.9 40.1964 859.9 Q30.6479 859.9 26.2237 864.483 Q21.7677 869.034 21.7677 878.869 L21.7677 886.636 M16.4842 893.065 L16.4842 879.856 Q16.4842 866.043 22.2451 859.581 Q27.9743 853.12 40.1964 853.12 Q52.4822 853.12 58.2432 859.613 Q64.0042 866.106 64.0042 879.856 L64.0042 893.065 L16.4842 893.065 Z" fill="#000000" fill-rule="nonzero" fill-opacity="1" /><path clip-path="url(#clip660)" d="M44.7161 812.634 L47.5806 812.634 L47.5806 839.561 Q53.6281 839.179 56.8109 835.933 Q59.9619 832.654 59.9619 826.83 Q59.9619 823.456 59.1344 820.305 Q58.3069 817.122 56.6518 814.003 L62.1899 814.003 Q63.5267 817.154 64.227 820.464 Q64.9272 823.774 64.9272 827.18 Q64.9272 835.71 59.9619 840.707 Q54.9967 845.672 46.5303 845.672 Q37.7774 845.672 32.6531 840.962 Q27.4968 836.219 27.4968 828.198 Q27.4968 821.005 32.1438 816.836 Q36.7589 812.634 44.7161 812.634 M42.9973 818.491 Q38.1912 818.554 35.3266 821.196 Q32.4621 823.806 32.4621 828.135 Q32.4621 833.036 35.2312 835.996 Q38.0002 838.925 43.0292 839.37 L42.9973 818.491 Z" fill="#000000" fill-rule="nonzero" fill-opacity="1" /><path clip-path="url(#clip660)" d="M42.4881 773.39 L64.0042 773.39 L64.0042 779.246 L42.679 779.246 Q37.6183 779.246 35.1038 781.219 Q32.5894 783.193 32.5894 787.14 Q32.5894 791.882 35.6131 794.619 Q38.6368 797.357 43.8567 797.357 L64.0042 797.357 L64.0042 803.245 L28.3562 803.245 L28.3562 797.357 L33.8944 797.357 Q30.6797 795.256 29.0883 792.423 Q27.4968 789.559 27.4968 785.835 Q27.4968 779.692 31.3163 776.541 Q35.1038 773.39 42.4881 773.39 Z" fill="#000000" fill-rule="nonzero" fill-opacity="1" /><path clip-path="url(#clip660)" d="M29.4065 738.983 L34.9447 738.983 Q33.6716 741.466 33.035 744.139 Q32.3984 746.813 32.3984 749.677 Q32.3984 754.038 33.7352 756.234 Q35.072 758.398 37.7456 758.398 Q39.7826 758.398 40.9603 756.839 Q42.1061 755.279 43.1565 750.569 L43.6021 748.563 Q44.9389 742.325 47.3897 739.715 Q49.8086 737.073 54.1691 737.073 Q59.1344 737.073 62.0308 741.02 Q64.9272 744.935 64.9272 751.81 Q64.9272 754.674 64.3543 757.794 Q63.8132 760.881 62.6992 764.319 L56.6518 764.319 Q58.3387 761.072 59.198 757.921 Q60.0256 754.77 60.0256 751.683 Q60.0256 747.545 58.6251 745.317 Q57.1929 743.089 54.6147 743.089 Q52.2276 743.089 50.9545 744.712 Q49.6813 746.304 48.5037 751.746 L48.0262 753.783 Q46.8804 759.226 44.5251 761.645 Q42.138 764.064 38.0002 764.064 Q32.9713 764.064 30.2341 760.499 Q27.4968 756.934 27.4968 750.378 Q27.4968 747.131 27.9743 744.267 Q28.4517 741.402 29.4065 738.983 Z" fill="#000000" fill-rule="nonzero" fill-opacity="1" /><path clip-path="url(#clip660)" d="M28.3562 727.748 L28.3562 721.891 L64.0042 721.891 L64.0042 727.748 L28.3562 727.748 M14.479 727.748 L14.479 721.891 L21.895 721.891 L21.895 727.748 L14.479 727.748 Z" fill="#000000" fill-rule="nonzero" fill-opacity="1" /><path clip-path="url(#clip660)" d="M18.2347 703.844 L28.3562 703.844 L28.3562 691.781 L32.9077 691.781 L32.9077 703.844 L52.2594 703.844 Q56.6199 703.844 57.8613 702.667 Q59.1026 701.457 59.1026 697.797 L59.1026 691.781 L64.0042 691.781 L64.0042 697.797 Q64.0042 704.576 61.4897 707.154 Q58.9434 709.733 52.2594 709.733 L32.9077 709.733 L32.9077 714.029 L28.3562 714.029 L28.3562 709.733 L18.2347 709.733 L18.2347 703.844 Z" fill="#000000" fill-rule="nonzero" fill-opacity="1" /><path clip-path="url(#clip660)" d="M67.3143 669.247 Q73.68 671.729 75.6216 674.085 Q77.5631 676.44 77.5631 680.387 L77.5631 685.065 L72.6615 685.065 L72.6615 681.628 Q72.6615 679.209 71.5157 677.872 Q70.3699 676.535 66.1048 674.912 L63.4312 673.862 L28.3562 688.28 L28.3562 682.074 L56.238 670.934 L28.3562 659.794 L28.3562 653.587 L67.3143 669.247 Z" fill="#000000" fill-rule="nonzero" fill-opacity="1" /><path clip-path="url(#clip660)" d="M585.525 18.8205 L585.525 41.5461 L595.814 41.5461 Q601.526 41.5461 604.645 38.5889 Q607.764 35.6318 607.764 30.163 Q607.764 24.7348 604.645 21.7777 Q601.526 18.8205 595.814 18.8205 L585.525 18.8205 M577.342 12.096 L595.814 12.096 Q605.982 12.096 611.167 16.714 Q616.393 21.2916 616.393 30.163 Q616.393 39.1155 611.167 43.6931 Q605.982 48.2706 595.814 48.2706 L585.525 48.2706 L585.525 72.576 L577.342 72.576 L577.342 12.096 Z" fill="#000000" fill-rule="nonzero" fill-opacity="1" /><path clip-path="url(#clip660)" d="M651.879 34.1734 Q650.623 33.4443 649.124 33.1202 Q647.666 32.7556 645.883 32.7556 Q639.564 32.7556 636.161 36.8875 Q632.799 40.9789 632.799 48.6757 L632.799 72.576 L625.305 72.576 L625.305 27.2059 L632.799 27.2059 L632.799 34.2544 Q635.148 30.1225 638.916 28.1376 Q642.683 26.1121 648.071 26.1121 Q648.841 26.1121 649.772 26.2337 Q650.704 26.3147 651.838 26.5172 L651.879 34.1734 Z" fill="#000000" fill-rule="nonzero" fill-opacity="1" /><path clip-path="url(#clip660)" d="M659.697 27.2059 L667.151 27.2059 L667.151 72.576 L659.697 72.576 L659.697 27.2059 M659.697 9.54393 L667.151 9.54393 L667.151 18.9825 L659.697 18.9825 L659.697 9.54393 Z" fill="#000000" fill-rule="nonzero" fill-opacity="1" /><path clip-path="url(#clip660)" d="M700.328 32.4315 Q694.332 32.4315 690.848 37.1306 Q687.365 41.7891 687.365 49.9314 Q687.365 58.0738 690.808 62.7728 Q694.292 67.4314 700.328 67.4314 Q706.282 67.4314 709.766 62.7323 Q713.25 58.0333 713.25 49.9314 Q713.25 41.8701 709.766 37.1711 Q706.282 32.4315 700.328 32.4315 M700.328 26.1121 Q710.05 26.1121 715.599 32.4315 Q721.149 38.7509 721.149 49.9314 Q721.149 61.0714 715.599 67.4314 Q710.05 73.7508 700.328 73.7508 Q690.565 73.7508 685.015 67.4314 Q679.506 61.0714 679.506 49.9314 Q679.506 38.7509 685.015 32.4315 Q690.565 26.1121 700.328 26.1121 Z" fill="#000000" fill-rule="nonzero" fill-opacity="1" /><path clip-path="url(#clip660)" d="M759.795 34.1734 Q758.539 33.4443 757.04 33.1202 Q755.582 32.7556 753.799 32.7556 Q747.48 32.7556 744.077 36.8875 Q740.715 40.9789 740.715 48.6757 L740.715 72.576 L733.221 72.576 L733.221 27.2059 L740.715 27.2059 L740.715 34.2544 Q743.065 30.1225 746.832 28.1376 Q750.599 26.1121 755.987 26.1121 Q756.757 26.1121 757.688 26.2337 Q758.62 26.3147 759.754 26.5172 L759.795 34.1734 Z" fill="#000000" fill-rule="nonzero" fill-opacity="1" /><path clip-path="url(#clip660)" d="M801.195 65.7705 L801.195 89.8329 L793.701 89.8329 L793.701 27.2059 L801.195 27.2059 L801.195 34.0924 Q803.545 30.0415 807.109 28.0971 Q810.715 26.1121 815.697 26.1121 Q823.961 26.1121 829.106 32.6746 Q834.291 39.2371 834.291 49.9314 Q834.291 60.6258 829.106 67.1883 Q823.961 73.7508 815.697 73.7508 Q810.715 73.7508 807.109 71.8063 Q803.545 69.8214 801.195 65.7705 M826.554 49.9314 Q826.554 41.7081 823.151 37.0496 Q819.789 32.3505 813.874 32.3505 Q807.96 32.3505 804.557 37.0496 Q801.195 41.7081 801.195 49.9314 Q801.195 58.1548 804.557 62.8538 Q807.96 67.5124 813.874 67.5124 Q819.789 67.5124 823.151 62.8538 Q826.554 58.1548 826.554 49.9314 Z" fill="#000000" fill-rule="nonzero" fill-opacity="1" /><path clip-path="url(#clip660)" d="M872.937 34.1734 Q871.681 33.4443 870.182 33.1202 Q868.724 32.7556 866.941 32.7556 Q860.622 32.7556 857.219 36.8875 Q853.857 40.9789 853.857 48.6757 L853.857 72.576 L846.363 72.576 L846.363 27.2059 L853.857 27.2059 L853.857 34.2544 Q856.206 30.1225 859.974 28.1376 Q863.741 26.1121 869.129 26.1121 Q869.898 26.1121 870.83 26.2337 Q871.762 26.3147 872.896 26.5172 L872.937 34.1734 Z" fill="#000000" fill-rule="nonzero" fill-opacity="1" /><path clip-path="url(#clip660)" d="M917.74 48.0275 L917.74 51.6733 L883.469 51.6733 Q883.955 59.3701 888.087 63.421 Q892.259 67.4314 899.673 67.4314 Q903.966 67.4314 907.977 66.3781 Q912.028 65.3249 915.998 63.2184 L915.998 70.267 Q911.987 71.9684 907.774 72.8596 Q903.561 73.7508 899.227 73.7508 Q888.371 73.7508 882.011 67.4314 Q875.691 61.1119 875.691 50.3365 Q875.691 39.1965 881.687 32.6746 Q887.722 26.1121 897.931 26.1121 Q907.086 26.1121 912.392 32.0264 Q917.74 37.9003 917.74 48.0275 M910.286 45.84 Q910.205 39.7232 906.843 36.0774 Q903.521 32.4315 898.012 32.4315 Q891.773 32.4315 888.006 35.9558 Q884.279 39.4801 883.712 45.8805 L910.286 45.84 Z" fill="#000000" fill-rule="nonzero" fill-opacity="1" /><path clip-path="url(#clip660)" d="M959.828 34.0924 L959.828 9.54393 L967.282 9.54393 L967.282 72.576 L959.828 72.576 L959.828 65.7705 Q957.479 69.8214 953.874 71.8063 Q950.309 73.7508 945.286 73.7508 Q937.062 73.7508 931.877 67.1883 Q926.733 60.6258 926.733 49.9314 Q926.733 39.2371 931.877 32.6746 Q937.062 26.1121 945.286 26.1121 Q950.309 26.1121 953.874 28.0971 Q957.479 30.0415 959.828 34.0924 M934.429 49.9314 Q934.429 58.1548 937.792 62.8538 Q941.194 67.5124 947.109 67.5124 Q953.023 67.5124 956.426 62.8538 Q959.828 58.1548 959.828 49.9314 Q959.828 41.7081 956.426 37.0496 Q953.023 32.3505 947.109 32.3505 Q941.194 32.3505 937.792 37.0496 Q934.429 41.7081 934.429 49.9314 Z" fill="#000000" fill-rule="nonzero" fill-opacity="1" /><path clip-path="url(#clip660)" d="M982.635 27.2059 L990.089 27.2059 L990.089 72.576 L982.635 72.576 L982.635 27.2059 M982.635 9.54393 L990.089 9.54393 L990.089 18.9825 L982.635 18.9825 L982.635 9.54393 Z" fill="#000000" fill-rule="nonzero" fill-opacity="1" /><path clip-path="url(#clip660)" d="M1038.33 28.9478 L1038.33 35.9153 Q1035.18 34.1734 1031.98 33.3227 Q1028.82 32.4315 1025.57 32.4315 Q1018.32 32.4315 1014.31 37.0496 Q1010.3 41.6271 1010.3 49.9314 Q1010.3 58.2358 1014.31 62.8538 Q1018.32 67.4314 1025.57 67.4314 Q1028.82 67.4314 1031.98 66.5807 Q1035.18 65.6895 1038.33 63.9476 L1038.33 70.8341 Q1035.22 72.2924 1031.85 73.0216 Q1028.53 73.7508 1024.76 73.7508 Q1014.52 73.7508 1008.48 67.3098 Q1002.44 60.8689 1002.44 49.9314 Q1002.44 38.832 1008.52 32.472 Q1014.64 26.1121 1025.25 26.1121 Q1028.69 26.1121 1031.98 26.8413 Q1035.26 27.5299 1038.33 28.9478 Z" fill="#000000" fill-rule="nonzero" fill-opacity="1" /><path clip-path="url(#clip660)" d="M1058.67 14.324 L1058.67 27.2059 L1074.02 27.2059 L1074.02 32.9987 L1058.67 32.9987 L1058.67 57.6282 Q1058.67 63.1779 1060.17 64.7578 Q1061.71 66.3376 1066.37 66.3376 L1074.02 66.3376 L1074.02 72.576 L1066.37 72.576 Q1057.74 72.576 1054.46 69.3758 Q1051.18 66.1351 1051.18 57.6282 L1051.18 32.9987 L1045.71 32.9987 L1045.71 27.2059 L1051.18 27.2059 L1051.18 14.324 L1058.67 14.324 Z" fill="#000000" fill-rule="nonzero" fill-opacity="1" /><path clip-path="url(#clip660)" d="M1083.83 27.2059 L1091.28 27.2059 L1091.28 72.576 L1083.83 72.576 L1083.83 27.2059 M1083.83 9.54393 L1091.28 9.54393 L1091.28 18.9825 L1083.83 18.9825 L1083.83 9.54393 Z" fill="#000000" fill-rule="nonzero" fill-opacity="1" /><path clip-path="url(#clip660)" d="M1101.53 27.2059 L1109.43 27.2059 L1123.61 65.2844 L1137.78 27.2059 L1145.68 27.2059 L1128.67 72.576 L1118.54 72.576 L1101.53 27.2059 Z" fill="#000000" fill-rule="nonzero" fill-opacity="1" /><path clip-path="url(#clip660)" d="M1194.78 48.0275 L1194.78 51.6733 L1160.51 51.6733 Q1161 59.3701 1165.13 63.421 Q1169.3 67.4314 1176.71 67.4314 Q1181.01 67.4314 1185.02 66.3781 Q1189.07 65.3249 1193.04 63.2184 L1193.04 70.267 Q1189.03 71.9684 1184.82 72.8596 Q1180.6 73.7508 1176.27 73.7508 Q1165.41 73.7508 1159.05 67.4314 Q1152.73 61.1119 1152.73 50.3365 Q1152.73 39.1965 1158.73 32.6746 Q1164.76 26.1121 1174.97 26.1121 Q1184.13 26.1121 1189.43 32.0264 Q1194.78 37.9003 1194.78 48.0275 M1187.33 45.84 Q1187.25 39.7232 1183.88 36.0774 Q1180.56 32.4315 1175.05 32.4315 Q1168.81 32.4315 1165.05 35.9558 Q1161.32 39.4801 1160.75 45.8805 L1187.33 45.84 Z" fill="#000000" fill-rule="nonzero" fill-opacity="1" /><path clip-path="url(#clip660)" d="M1266.04 28.9478 L1266.04 35.9153 Q1262.88 34.1734 1259.68 33.3227 Q1256.52 32.4315 1253.28 32.4315 Q1246.02 32.4315 1242.01 37.0496 Q1238 41.6271 1238 49.9314 Q1238 58.2358 1242.01 62.8538 Q1246.02 67.4314 1253.28 67.4314 Q1256.52 67.4314 1259.68 66.5807 Q1262.88 65.6895 1266.04 63.9476 L1266.04 70.8341 Q1262.92 72.2924 1259.55 73.0216 Q1256.23 73.7508 1252.47 73.7508 Q1242.22 73.7508 1236.18 67.3098 Q1230.15 60.8689 1230.15 49.9314 Q1230.15 38.832 1236.22 32.472 Q1242.34 26.1121 1252.95 26.1121 Q1256.4 26.1121 1259.68 26.8413 Q1262.96 27.5299 1266.04 28.9478 Z" fill="#000000" fill-rule="nonzero" fill-opacity="1" /><path clip-path="url(#clip660)" d="M1316.71 45.1919 L1316.71 72.576 L1309.26 72.576 L1309.26 45.4349 Q1309.26 38.994 1306.75 35.7938 Q1304.24 32.5936 1299.21 32.5936 Q1293.18 32.5936 1289.69 36.4419 Q1286.21 40.2903 1286.21 46.9338 L1286.21 72.576 L1278.72 72.576 L1278.72 9.54393 L1286.21 9.54393 L1286.21 34.2544 Q1288.88 30.163 1292.49 28.1376 Q1296.13 26.1121 1300.87 26.1121 Q1308.69 26.1121 1312.7 30.9732 Q1316.71 35.7938 1316.71 45.1919 Z" fill="#000000" fill-rule="nonzero" fill-opacity="1" /><path clip-path="url(#clip660)" d="M1370.39 48.0275 L1370.39 51.6733 L1336.12 51.6733 Q1336.6 59.3701 1340.73 63.421 Q1344.91 67.4314 1352.32 67.4314 Q1356.61 67.4314 1360.62 66.3781 Q1364.68 65.3249 1368.65 63.2184 L1368.65 70.267 Q1364.64 71.9684 1360.42 72.8596 Q1356.21 73.7508 1351.87 73.7508 Q1341.02 73.7508 1334.66 67.4314 Q1328.34 61.1119 1328.34 50.3365 Q1328.34 39.1965 1334.33 32.6746 Q1340.37 26.1121 1350.58 26.1121 Q1359.73 26.1121 1365.04 32.0264 Q1370.39 37.9003 1370.39 48.0275 M1362.93 45.84 Q1362.85 39.7232 1359.49 36.0774 Q1356.17 32.4315 1350.66 32.4315 Q1344.42 32.4315 1340.65 35.9558 Q1336.93 39.4801 1336.36 45.8805 L1362.93 45.84 Z" fill="#000000" fill-rule="nonzero" fill-opacity="1" /><path clip-path="url(#clip660)" d="M1415.27 28.9478 L1415.27 35.9153 Q1412.11 34.1734 1408.91 33.3227 Q1405.75 32.4315 1402.51 32.4315 Q1395.26 32.4315 1391.25 37.0496 Q1387.24 41.6271 1387.24 49.9314 Q1387.24 58.2358 1391.25 62.8538 Q1395.26 67.4314 1402.51 67.4314 Q1405.75 67.4314 1408.91 66.5807 Q1412.11 65.6895 1415.27 63.9476 L1415.27 70.8341 Q1412.15 72.2924 1408.79 73.0216 Q1405.47 73.7508 1401.7 73.7508 Q1391.45 73.7508 1385.42 67.3098 Q1379.38 60.8689 1379.38 49.9314 Q1379.38 38.832 1385.46 32.472 Q1391.57 26.1121 1402.19 26.1121 Q1405.63 26.1121 1408.91 26.8413 Q1412.19 27.5299 1415.27 28.9478 Z" fill="#000000" fill-rule="nonzero" fill-opacity="1" /><path clip-path="url(#clip660)" d="M1427.95 9.54393 L1435.45 9.54393 L1435.45 46.7717 L1457.68 27.2059 L1467.2 27.2059 L1443.14 48.4326 L1468.22 72.576 L1458.49 72.576 L1435.45 50.4176 L1435.45 72.576 L1427.95 72.576 L1427.95 9.54393 Z" fill="#000000" fill-rule="nonzero" fill-opacity="1" /><path clip-path="url(#clip660)" d="M1478.18 62.2867 L1486.73 62.2867 L1486.73 69.2543 L1480.09 82.2172 L1474.86 82.2172 L1478.18 69.2543 L1478.18 62.2867 Z" fill="#000000" fill-rule="nonzero" fill-opacity="1" /><path clip-path="url(#clip660)" d="M1558.88 49.3643 Q1558.88 41.2625 1555.51 36.8065 Q1552.19 32.3505 1546.16 32.3505 Q1540.16 32.3505 1536.8 36.8065 Q1533.48 41.2625 1533.48 49.3643 Q1533.48 57.4256 1536.8 61.8816 Q1540.16 66.3376 1546.16 66.3376 Q1552.19 66.3376 1555.51 61.8816 Q1558.88 57.4256 1558.88 49.3643 M1566.33 66.9452 Q1566.33 78.5308 1561.19 84.1616 Q1556.04 89.8329 1545.43 89.8329 Q1541.5 89.8329 1538.01 89.2252 Q1534.53 88.6581 1531.25 87.4428 L1531.25 80.1917 Q1534.53 81.9741 1537.73 82.8248 Q1540.93 83.6755 1544.25 83.6755 Q1551.58 83.6755 1555.23 79.8271 Q1558.88 76.0193 1558.88 68.282 L1558.88 64.5957 Q1556.57 68.6061 1552.96 70.5911 Q1549.36 72.576 1544.33 72.576 Q1535.99 72.576 1530.88 66.2161 Q1525.78 59.8562 1525.78 49.3643 Q1525.78 38.832 1530.88 32.472 Q1535.99 26.1121 1544.33 26.1121 Q1549.36 26.1121 1552.96 28.0971 Q1556.57 30.082 1558.88 34.0924 L1558.88 27.2059 L1566.33 27.2059 L1566.33 66.9452 Z" fill="#000000" fill-rule="nonzero" fill-opacity="1" /><path clip-path="url(#clip660)" d="M1581.68 9.54393 L1589.14 9.54393 L1589.14 72.576 L1581.68 72.576 L1581.68 9.54393 Z" fill="#000000" fill-rule="nonzero" fill-opacity="1" /><path clip-path="url(#clip660)" d="M1622.31 32.4315 Q1616.32 32.4315 1612.83 37.1306 Q1609.35 41.7891 1609.35 49.9314 Q1609.35 58.0738 1612.79 62.7728 Q1616.28 67.4314 1622.31 67.4314 Q1628.27 67.4314 1631.75 62.7323 Q1635.24 58.0333 1635.24 49.9314 Q1635.24 41.8701 1631.75 37.1711 Q1628.27 32.4315 1622.31 32.4315 M1622.31 26.1121 Q1632.04 26.1121 1637.59 32.4315 Q1643.13 38.7509 1643.13 49.9314 Q1643.13 61.0714 1637.59 67.4314 Q1632.04 73.7508 1622.31 73.7508 Q1612.55 73.7508 1607 67.4314 Q1601.49 61.0714 1601.49 49.9314 Q1601.49 38.7509 1607 32.4315 Q1612.55 26.1121 1622.31 26.1121 Z" fill="#000000" fill-rule="nonzero" fill-opacity="1" /><path clip-path="url(#clip660)" d="M1688.06 49.9314 Q1688.06 41.7081 1684.66 37.0496 Q1681.29 32.3505 1675.38 32.3505 Q1669.47 32.3505 1666.06 37.0496 Q1662.7 41.7081 1662.7 49.9314 Q1662.7 58.1548 1666.06 62.8538 Q1669.47 67.5124 1675.38 67.5124 Q1681.29 67.5124 1684.66 62.8538 Q1688.06 58.1548 1688.06 49.9314 M1662.7 34.0924 Q1665.05 30.0415 1668.62 28.0971 Q1672.22 26.1121 1677.2 26.1121 Q1685.47 26.1121 1690.61 32.6746 Q1695.8 39.2371 1695.8 49.9314 Q1695.8 60.6258 1690.61 67.1883 Q1685.47 73.7508 1677.2 73.7508 Q1672.22 73.7508 1668.62 71.8063 Q1665.05 69.8214 1662.7 65.7705 L1662.7 72.576 L1655.21 72.576 L1655.21 9.54393 L1662.7 9.54393 L1662.7 34.0924 Z" fill="#000000" fill-rule="nonzero" fill-opacity="1" /><path clip-path="url(#clip660)" d="M1728.77 49.7694 Q1719.74 49.7694 1716.25 51.8354 Q1712.77 53.9013 1712.77 58.8839 Q1712.77 62.8538 1715.36 65.2034 Q1718 67.5124 1722.49 67.5124 Q1728.69 67.5124 1732.42 63.1374 Q1736.18 58.7219 1736.18 51.4303 L1736.18 49.7694 L1728.77 49.7694 M1743.64 46.6907 L1743.64 72.576 L1736.18 72.576 L1736.18 65.6895 Q1733.63 69.8214 1729.82 71.8063 Q1726.02 73.7508 1720.51 73.7508 Q1713.54 73.7508 1709.41 69.8619 Q1705.32 65.9325 1705.32 59.3701 Q1705.32 51.7138 1710.42 47.825 Q1715.57 43.9361 1725.73 43.9361 L1736.18 43.9361 L1736.18 43.2069 Q1736.18 38.0623 1732.78 35.2672 Q1729.42 32.4315 1723.3 32.4315 Q1719.41 32.4315 1715.73 33.3632 Q1712.04 34.295 1708.64 36.1584 L1708.64 29.2718 Q1712.73 27.692 1716.58 26.9223 Q1720.43 26.1121 1724.07 26.1121 Q1733.92 26.1121 1738.78 31.2163 Q1743.64 36.3204 1743.64 46.6907 Z" fill="#000000" fill-rule="nonzero" fill-opacity="1" /><path clip-path="url(#clip660)" d="M1758.99 9.54393 L1766.44 9.54393 L1766.44 72.576 L1758.99 72.576 L1758.99 9.54393 Z" fill="#000000" fill-rule="nonzero" fill-opacity="1" /><path clip-path="url(#clip660)" d="M1815.62 65.7705 L1815.62 89.8329 L1808.13 89.8329 L1808.13 27.2059 L1815.62 27.2059 L1815.62 34.0924 Q1817.97 30.0415 1821.54 28.0971 Q1825.14 26.1121 1830.12 26.1121 Q1838.39 26.1121 1843.53 32.6746 Q1848.72 39.2371 1848.72 49.9314 Q1848.72 60.6258 1843.53 67.1883 Q1838.39 73.7508 1830.12 73.7508 Q1825.14 73.7508 1821.54 71.8063 Q1817.97 69.8214 1815.62 65.7705 M1840.98 49.9314 Q1840.98 41.7081 1837.58 37.0496 Q1834.22 32.3505 1828.3 32.3505 Q1822.39 32.3505 1818.98 37.0496 Q1815.62 41.7081 1815.62 49.9314 Q1815.62 58.1548 1818.98 62.8538 Q1822.39 67.5124 1828.3 67.5124 Q1834.22 67.5124 1837.58 62.8538 Q1840.98 58.1548 1840.98 49.9314 Z" fill="#000000" fill-rule="nonzero" fill-opacity="1" /><path clip-path="url(#clip660)" d="M1887.36 34.1734 Q1886.11 33.4443 1884.61 33.1202 Q1883.15 32.7556 1881.37 32.7556 Q1875.05 32.7556 1871.65 36.8875 Q1868.28 40.9789 1868.28 48.6757 L1868.28 72.576 L1860.79 72.576 L1860.79 27.2059 L1868.28 27.2059 L1868.28 34.2544 Q1870.63 30.1225 1874.4 28.1376 Q1878.17 26.1121 1883.56 26.1121 Q1884.33 26.1121 1885.26 26.2337 Q1886.19 26.3147 1887.32 26.5172 L1887.36 34.1734 Z" fill="#000000" fill-rule="nonzero" fill-opacity="1" /><path clip-path="url(#clip660)" d="M1895.18 27.2059 L1902.64 27.2059 L1902.64 72.576 L1895.18 72.576 L1895.18 27.2059 M1895.18 9.54393 L1902.64 9.54393 L1902.64 18.9825 L1895.18 18.9825 L1895.18 9.54393 Z" fill="#000000" fill-rule="nonzero" fill-opacity="1" /><path clip-path="url(#clip660)" d="M1935.81 32.4315 Q1929.82 32.4315 1926.33 37.1306 Q1922.85 41.7891 1922.85 49.9314 Q1922.85 58.0738 1926.29 62.7728 Q1929.78 67.4314 1935.81 67.4314 Q1941.77 67.4314 1945.25 62.7323 Q1948.74 58.0333 1948.74 49.9314 Q1948.74 41.8701 1945.25 37.1711 Q1941.77 32.4315 1935.81 32.4315 M1935.81 26.1121 Q1945.53 26.1121 1951.08 32.4315 Q1956.63 38.7509 1956.63 49.9314 Q1956.63 61.0714 1951.08 67.4314 Q1945.53 73.7508 1935.81 73.7508 Q1926.05 73.7508 1920.5 67.4314 Q1914.99 61.0714 1914.99 49.9314 Q1914.99 38.7509 1920.5 32.4315 Q1926.05 26.1121 1935.81 26.1121 Z" fill="#000000" fill-rule="nonzero" fill-opacity="1" /><path clip-path="url(#clip660)" d="M1995.28 34.1734 Q1994.02 33.4443 1992.53 33.1202 Q1991.07 32.7556 1989.28 32.7556 Q1982.97 32.7556 1979.56 36.8875 Q1976.2 40.9789 1976.2 48.6757 L1976.2 72.576 L1968.71 72.576 L1968.71 27.2059 L1976.2 27.2059 L1976.2 34.2544 Q1978.55 30.1225 1982.32 28.1376 Q1986.08 26.1121 1991.47 26.1121 Q1992.24 26.1121 1993.17 26.2337 Q1994.11 26.3147 1995.24 26.5172 L1995.28 34.1734 Z" fill="#000000" fill-rule="nonzero" fill-opacity="1" /><path clip-path="url(#clip662)" d="M753.089 1154.99 L753.089 1423.18 L886.394 1423.18 L886.394 1154.99 L753.089 1154.99 L753.089 1154.99  Z" fill="#009af9" fill-rule="evenodd" fill-opacity="1"/>
<polyline clip-path="url(#clip662)" style="stroke:#000000; stroke-linecap:round; stroke-linejoin:round; stroke-width:4; stroke-opacity:1; fill:none" points="753.089,1154.99 753.089,1423.18 886.394,1423.18 886.394,1154.99 753.089,1154.99 "/>
<path clip-path="url(#clip662)" d="M886.394 735.504 L886.394 1423.18 L1019.7 1423.18 L1019.7 735.504 L886.394 735.504 L886.394 735.504  Z" fill="#009af9" fill-rule="evenodd" fill-opacity="1"/>
<polyline clip-path="url(#clip662)" style="stroke:#000000; stroke-linecap:round; stroke-linejoin:round; stroke-width:4; stroke-opacity:1; fill:none" points="886.394,735.504 886.394,1423.18 1019.7,1423.18 1019.7,735.504 886.394,735.504 "/>
<path clip-path="url(#clip662)" d="M1019.7 556.708 L1019.7 1423.18 L1153.01 1423.18 L1153.01 556.708 L1019.7 556.708 L1019.7 556.708  Z" fill="#009af9" fill-rule="evenodd" fill-opacity="1"/>
<polyline clip-path="url(#clip662)" style="stroke:#000000; stroke-linecap:round; stroke-linejoin:round; stroke-width:4; stroke-opacity:1; fill:none" points="1019.7,556.708 1019.7,1423.18 1153.01,1423.18 1153.01,556.708 1019.7,556.708 "/>
<path clip-path="url(#clip662)" d="M1153.01 123.472 L1153.01 1423.18 L1286.31 1423.18 L1286.31 123.472 L1153.01 123.472 L1153.01 123.472  Z" fill="#009af9" fill-rule="evenodd" fill-opacity="1"/>
<polyline clip-path="url(#clip662)" style="stroke:#000000; stroke-linecap:round; stroke-linejoin:round; stroke-width:4; stroke-opacity:1; fill:none" points="1153.01,123.472 1153.01,1423.18 1286.31,1423.18 1286.31,123.472 1153.01,123.472 "/>
<path clip-path="url(#clip662)" d="M1286.31 309.145 L1286.31 1423.18 L1419.62 1423.18 L1419.62 309.145 L1286.31 309.145 L1286.31 309.145  Z" fill="#009af9" fill-rule="evenodd" fill-opacity="1"/>
<polyline clip-path="url(#clip662)" style="stroke:#000000; stroke-linecap:round; stroke-linejoin:round; stroke-width:4; stroke-opacity:1; fill:none" points="1286.31,309.145 1286.31,1423.18 1419.62,1423.18 1419.62,309.145 1286.31,309.145 "/>
<path clip-path="url(#clip662)" d="M1419.62 646.106 L1419.62 1423.18 L1552.92 1423.18 L1552.92 646.106 L1419.62 646.106 L1419.62 646.106  Z" fill="#009af9" fill-rule="evenodd" fill-opacity="1"/>
<polyline clip-path="url(#clip662)" style="stroke:#000000; stroke-linecap:round; stroke-linejoin:round; stroke-width:4; stroke-opacity:1; fill:none" points="1419.62,646.106 1419.62,1423.18 1552.92,1423.18 1552.92,646.106 1419.62,646.106 "/>
<path clip-path="url(#clip662)" d="M1552.92 969.314 L1552.92 1423.18 L1686.23 1423.18 L1686.23 969.314 L1552.92 969.314 L1552.92 969.314  Z" fill="#009af9" fill-rule="evenodd" fill-opacity="1"/>
<polyline clip-path="url(#clip662)" style="stroke:#000000; stroke-linecap:round; stroke-linejoin:round; stroke-width:4; stroke-opacity:1; fill:none" points="1552.92,969.314 1552.92,1423.18 1686.23,1423.18 1686.23,969.314 1552.92,969.314 "/>
<path clip-path="url(#clip662)" d="M1686.23 1203.12 L1686.23 1423.18 L1819.53 1423.18 L1819.53 1203.12 L1686.23 1203.12 L1686.23 1203.12  Z" fill="#009af9" fill-rule="evenodd" fill-opacity="1"/>
<polyline clip-path="url(#clip662)" style="stroke:#000000; stroke-linecap:round; stroke-linejoin:round; stroke-width:4; stroke-opacity:1; fill:none" points="1686.23,1203.12 1686.23,1423.18 1819.53,1423.18 1819.53,1203.12 1686.23,1203.12 "/>
<path clip-path="url(#clip662)" d="M1819.53 1299.4 L1819.53 1423.18 L1952.84 1423.18 L1952.84 1299.4 L1819.53 1299.4 L1819.53 1299.4  Z" fill="#009af9" fill-rule="evenodd" fill-opacity="1"/>
<polyline clip-path="url(#clip662)" style="stroke:#000000; stroke-linecap:round; stroke-linejoin:round; stroke-width:4; stroke-opacity:1; fill:none" points="1819.53,1299.4 1819.53,1423.18 1952.84,1423.18 1952.84,1299.4 1819.53,1299.4 "/>
<path clip-path="url(#clip662)" d="M1952.84 1333.78 L1952.84 1423.18 L2086.14 1423.18 L2086.14 1333.78 L1952.84 1333.78 L1952.84 1333.78  Z" fill="#009af9" fill-rule="evenodd" fill-opacity="1"/>
<polyline clip-path="url(#clip662)" style="stroke:#000000; stroke-linecap:round; stroke-linejoin:round; stroke-width:4; stroke-opacity:1; fill:none" points="1952.84,1333.78 1952.84,1423.18 2086.14,1423.18 2086.14,1333.78 1952.84,1333.78 "/>
<path clip-path="url(#clip662)" d="M2086.14 1402.55 L2086.14 1423.18 L2219.45 1423.18 L2219.45 1402.55 L2086.14 1402.55 L2086.14 1402.55  Z" fill="#009af9" fill-rule="evenodd" fill-opacity="1"/>
<polyline clip-path="url(#clip662)" style="stroke:#000000; stroke-linecap:round; stroke-linejoin:round; stroke-width:4; stroke-opacity:1; fill:none" points="2086.14,1402.55 2086.14,1423.18 2219.45,1423.18 2219.45,1402.55 2086.14,1402.55 "/>
<circle clip-path="url(#clip662)" style="fill:#009af9; stroke:none; fill-opacity:0" cx="819.741" cy="1154.99" r="2"/>
<circle clip-path="url(#clip662)" style="fill:#009af9; stroke:none; fill-opacity:0" cx="953.047" cy="735.504" r="2"/>
<circle clip-path="url(#clip662)" style="fill:#009af9; stroke:none; fill-opacity:0" cx="1086.35" cy="556.708" r="2"/>
<circle clip-path="url(#clip662)" style="fill:#009af9; stroke:none; fill-opacity:0" cx="1219.66" cy="123.472" r="2"/>
<circle clip-path="url(#clip662)" style="fill:#009af9; stroke:none; fill-opacity:0" cx="1352.96" cy="309.145" r="2"/>
<circle clip-path="url(#clip662)" style="fill:#009af9; stroke:none; fill-opacity:0" cx="1486.27" cy="646.106" r="2"/>
<circle clip-path="url(#clip662)" style="fill:#009af9; stroke:none; fill-opacity:0" cx="1619.58" cy="969.314" r="2"/>
<circle clip-path="url(#clip662)" style="fill:#009af9; stroke:none; fill-opacity:0" cx="1752.88" cy="1203.12" r="2"/>
<circle clip-path="url(#clip662)" style="fill:#009af9; stroke:none; fill-opacity:0" cx="1886.19" cy="1299.4" r="2"/>
<circle clip-path="url(#clip662)" style="fill:#009af9; stroke:none; fill-opacity:0" cx="2019.49" cy="1333.78" r="2"/>
<circle clip-path="url(#clip662)" style="fill:#009af9; stroke:none; fill-opacity:0" cx="2152.8" cy="1402.55" r="2"/>
<polyline clip-path="url(#clip662)" style="stroke:#ffffff; stroke-linecap:round; stroke-linejoin:round; stroke-width:12; stroke-opacity:1; fill:none" points="-39924.3,1423.18 -39462,1423.18 -38999.7,1423.18 -38537.3,1423.18 -38075,1423.18 -37612.7,1423.18 -37150.4,1423.18 -36688,1423.18 -36225.7,1423.18 -35763.4,1423.18 -35301,1423.18 -34838.7,1423.18 -34376.4,1423.18 -33914.1,1423.18 -33451.7,1423.18 -32989.4,1423.18 -32527.1,1423.18 -32064.8,1423.18 -31602.4,1423.18 -31140.1,1423.18 -30677.8,1423.18 -30215.5,1423.18 -29753.1,1423.18 -29290.8,1423.18 -28828.5,1423.18 -28366.2,1423.18 -27903.8,1423.18 -27441.5,1423.18 -26979.2,1423.18 -26516.9,1423.18 -26054.5,1423.18 -25592.2,1423.18 -25129.9,1423.18 -24667.5,1423.18 -24205.2,1423.18 -23742.9,1423.18 -23280.6,1423.18 -22818.2,1423.18 -22355.9,1423.18 -21893.6,1423.17 -21431.3,1423.18 -20968.9,1423.18 -20506.6,1423.18 -20044.3,1423.17 -19582,1423.17 -19119.6,1423.17 -18657.3,1423.17 -18195,1423.17 -17732.7,1423.17 -17270.3,1423.16 -16808,1423.17 -16345.7,1423.17 -15883.3,1423.17 -15421,1423.17 -14958.7,1423.16 -14496.4,1423.17 -14034,1423.16 -13571.7,1423.15 -13109.4,1423.17 -12647.1,1423.14 -12184.7,1423.16 -11722.4,1423.16 -11260.1,1423.14 -10797.8,1423.14 -10335.4,1423.14 -9873.1,1423.14 -9410.78,1423.12 -8948.45,1423.1 -8486.13,1423.09 -8023.8,1423.07 -7561.47,1423.03 -7099.15,1422.98 -6636.82,1422.91 -6174.49,1422.85 -5712.17,1422.72 -5249.84,1422.54 -4787.52,1422.31 -4325.19,1421.82 -3862.86,1421.03 -3400.54,1419.51 -2938.21,1417.13 -2475.88,1413.02 -2013.56,1405.95 -1551.23,1394.29 -1088.91,1375.74 -626.58,1347.51 -164.253,1307.63 298.073,1256.48 760.399,1204.08 1222.73,1177.11 1685.05,1193.9 2147.38,1241.47 2609.7,1294.27 3072.03,1337.87 3534.36,1368.55 3996.68,1389.92 4459.01,1403.45 4921.34,1411.42 5383.66,1416.19 5845.99,1419.13 6308.31,1420.8 6770.64,1421.65 7232.97,1422.21 7695.29,1422.51 8157.62,1422.72 8619.95,1422.81 9082.27,1422.91 9544.6,1423.02 10006.9,1423.04 10469.3,1423.06 10931.6,1423.07 11393.9,1423.09 11856.2,1423.11 12318.6,1423.13 12780.9,1423.14 13243.2,1423.15 13705.5,1423.15 14167.9,1423.15 14630.2,1423.14 15092.5,1423.15 15554.8,1423.16 16017.2,1423.16 16479.5,1423.16 16941.8,1423.16 17404.1,1423.16 17866.5,1423.16 18328.8,1423.17 18791.1,1423.17 19253.5,1423.17 19715.8,1423.17 20178.1,1423.17 20640.4,1423.18 21102.8,1423.17 21565.1,1423.18 22027.4,1423.17 22489.7,1423.18 22952.1,1423.18 23414.4,1423.18 23876.7,1423.18 24339,1423.18 24801.4,1423.18 25263.7,1423.18 25726,1423.18 26188.3,1423.18 26650.7,1423.18 27113,1423.18 27575.3,1423.18 28037.6,1423.18 28500,1423.18 28962.3,1423.18 29424.6,1423.18 29887,1423.18 30349.3,1423.18 30811.6,1423.18 31273.9,1423.18 31736.3,1423.18 32198.6,1423.18 32660.9,1423.18 33123.2,1423.18 33585.6,1423.18 34047.9,1423.18 34510.2,1423.18 34972.5,1423.18 35434.9,1423.18 35897.2,1423.18 36359.5,1423.18 36821.8,1423.18 37284.2,1423.18 37746.5,1423.18 38208.8,1423.18 38671.2,1423.18 39133.5,1423.18 39595.8,1423.18 40058.1,1423.18 40520.5,1423.18 40982.8,1423.18 41445.1,1423.18 41907.4,1423.18 42369.8,1423.18 42832.1,1423.18 43294.4,1423.18 43756.7,1423.18 44219.1,1423.18 44681.4,1423.18 45143.7,1423.18 45606,1423.18 46068.4,1423.18 46530.7,1423.18 46993,1423.18 47455.4,1423.18 47917.7,1423.18 48380,1423.18 48842.3,1423.18 49304.7,1423.18 49767,1423.18 50229.3,1423.18 50691.6,1423.18 51154,1423.18 51616.3,1423.18 52078.6,1423.18 "/>
<path clip-path="url(#clip662)" d="M-39924.3 1423.18 L-39462 1423.18 L-38999.7 1423.18 L-38537.3 1423.18 L-38075 1423.18 L-37612.7 1423.18 L-37150.4 1423.18 L-36688 1423.18 L-36225.7 1423.18 L-35763.4 1423.18 L-35301 1423.18 L-34838.7 1423.18 L-34376.4 1423.18 L-33914.1 1423.18 L-33451.7 1423.18 L-32989.4 1423.18 L-32527.1 1423.18 L-32064.8 1423.18 L-31602.4 1423.18 L-31140.1 1423.18 L-30677.8 1423.18 L-30215.5 1423.18 L-29753.1 1423.18 L-29290.8 1423.18 L-28828.5 1423.18 L-28366.2 1423.18 L-27903.8 1423.18 L-27441.5 1423.18 L-26979.2 1423.18 L-26516.9 1423.18 L-26054.5 1423.18 L-25592.2 1423.18 L-25129.9 1423.18 L-24667.5 1423.18 L-24205.2 1423.18 L-23742.9 1423.18 L-23280.6 1423.18 L-22818.2 1423.18 L-22355.9 1423.18 L-21893.6 1423.17 L-21431.3 1423.18 L-20968.9 1423.18 L-20506.6 1423.18 L-20044.3 1423.17 L-19582 1423.17 L-19119.6 1423.17 L-18657.3 1423.17 L-18195 1423.17 L-17732.7 1423.17 L-17270.3 1423.16 L-16808 1423.17 L-16345.7 1423.17 L-15883.3 1423.17 L-15421 1423.17 L-14958.7 1423.16 L-14496.4 1423.17 L-14034 1423.16 L-13571.7 1423.15 L-13109.4 1423.17 L-12647.1 1423.14 L-12184.7 1423.16 L-11722.4 1423.16 L-11260.1 1423.14 L-10797.8 1423.14 L-10335.4 1423.14 L-9873.1 1423.14 L-9410.78 1423.12 L-8948.45 1423.1 L-8486.13 1423.09 L-8023.8 1423.07 L-7561.47 1423.03 L-7099.15 1422.98 L-6636.82 1422.91 L-6174.49 1422.85 L-5712.17 1422.72 L-5249.84 1422.54 L-4787.52 1422.31 L-4325.19 1421.82 L-3862.86 1421.03 L-3400.54 1419.51 L-2938.21 1417.13 L-2475.88 1413.02 L-2013.56 1405.95 L-1551.23 1394.29 L-1088.91 1375.74 L-626.58 1347.51 L-164.253 1307.63 L298.073 1256.48 L760.399 1204.08 L1222.73 1177.11 L1685.05 1193.9 L2147.38 1241.47 L2609.7 1294.27 L3072.03 1337.87 L3534.36 1368.55 L3996.68 1389.92 L4459.01 1403.45 L4921.34 1411.42 L5383.66 1416.19 L5845.99 1419.13 L6308.31 1420.8 L6770.64 1421.65 L7232.97 1422.21 L7695.29 1422.51 L8157.62 1422.72 L8619.95 1422.81 L9082.27 1422.91 L9544.6 1423.02 L10006.9 1423.04 L10469.3 1423.06 L10931.6 1423.07 L11393.9 1423.09 L11856.2 1423.11 L12318.6 1423.13 L12780.9 1423.14 L13243.2 1423.15 L13705.5 1423.15 L14167.9 1423.15 L14630.2 1423.14 L15092.5 1423.15 L15554.8 1423.16 L16017.2 1423.16 L16479.5 1423.16 L16941.8 1423.16 L17404.1 1423.16 L17866.5 1423.16 L18328.8 1423.17 L18791.1 1423.17 L19253.5 1423.17 L19715.8 1423.17 L20178.1 1423.17 L20640.4 1423.18 L21102.8 1423.17 L21565.1 1423.18 L22027.4 1423.17 L22489.7 1423.18 L22952.1 1423.18 L23414.4 1423.18 L23876.7 1423.18 L24339 1423.18 L24801.4 1423.18 L25263.7 1423.18 L25726 1423.18 L26188.3 1423.18 L26650.7 1423.18 L27113 1423.18 L27575.3 1423.18 L28037.6 1423.18 L28500 1423.18 L28962.3 1423.18 L29424.6 1423.18 L29887 1423.18 L30349.3 1423.18 L30811.6 1423.18 L31273.9 1423.18 L31736.3 1423.18 L32198.6 1423.18 L32660.9 1423.18 L33123.2 1423.18 L33585.6 1423.18 L34047.9 1423.18 L34510.2 1423.18 L34972.5 1423.18 L35434.9 1423.18 L35897.2 1423.18 L36359.5 1423.18 L36821.8 1423.18 L37284.2 1423.18 L37746.5 1423.18 L38208.8 1423.18 L38671.2 1423.18 L39133.5 1423.18 L39595.8 1423.18 L40058.1 1423.18 L40520.5 1423.18 L40982.8 1423.18 L41445.1 1423.18 L41907.4 1423.18 L42369.8 1423.18 L42832.1 1423.18 L43294.4 1423.18 L43756.7 1423.18 L44219.1 1423.18 L44681.4 1423.18 L45143.7 1423.18 L45606 1423.18 L46068.4 1423.18 L46530.7 1423.18 L46993 1423.18 L47455.4 1423.18 L47917.7 1423.18 L48380 1423.18 L48842.3 1423.18 L49304.7 1423.18 L49767 1423.18 L50229.3 1423.18 L50691.6 1423.18 L51154 1423.18 L51616.3 1423.18 L52078.6 1423.18 L52078.6 1423.18 L51616.3 1423.18 L51154 1423.18 L50691.6 1423.18 L50229.3 1423.18 L49767 1423.18 L49304.7 1423.18 L48842.3 1423.18 L48380 1423.18 L47917.7 1423.18 L47455.4 1423.18 L46993 1423.18 L46530.7 1423.18 L46068.4 1423.18 L45606 1423.18 L45143.7 1423.18 L44681.4 1423.18 L44219.1 1423.18 L43756.7 1423.18 L43294.4 1423.18 L42832.1 1423.18 L42369.8 1423.18 L41907.4 1423.18 L41445.1 1423.18 L40982.8 1423.18 L40520.5 1423.18 L40058.1 1423.18 L39595.8 1423.18 L39133.5 1423.18 L38671.2 1423.18 L38208.8 1423.18 L37746.5 1423.18 L37284.2 1423.18 L36821.8 1423.18 L36359.5 1423.18 L35897.2 1423.18 L35434.9 1423.18 L34972.5 1423.18 L34510.2 1423.18 L34047.9 1423.18 L33585.6 1423.18 L33123.2 1423.18 L32660.9 1423.18 L32198.6 1423.18 L31736.3 1423.18 L31273.9 1423.18 L30811.6 1423.18 L30349.3 1423.18 L29887 1423.18 L29424.6 1423.18 L28962.3 1423.18 L28500 1423.18 L28037.6 1423.18 L27575.3 1423.18 L27113 1423.18 L26650.7 1423.18 L26188.3 1423.18 L25726 1423.18 L25263.7 1423.18 L24801.4 1423.18 L24339 1423.18 L23876.7 1423.18 L23414.4 1423.18 L22952.1 1423.18 L22489.7 1423.18 L22027.4 1423.18 L21565.1 1423.18 L21102.8 1423.18 L20640.4 1423.18 L20178.1 1423.18 L19715.8 1423.18 L19253.5 1423.18 L18791.1 1423.18 L18328.8 1423.18 L17866.5 1423.18 L17404.1 1423.18 L16941.8 1423.18 L16479.5 1423.18 L16017.2 1423.18 L15554.8 1423.18 L15092.5 1423.18 L14630.2 1423.18 L14167.9 1423.18 L13705.5 1423.18 L13243.2 1423.18 L12780.9 1423.18 L12318.6 1423.18 L11856.2 1423.18 L11393.9 1423.18 L10931.6 1423.18 L10469.3 1423.18 L10006.9 1423.18 L9544.6 1423.18 L9082.27 1423.18 L8619.95 1423.18 L8157.62 1423.18 L7695.29 1423.18 L7232.97 1423.18 L6770.64 1423.18 L6308.31 1423.18 L5845.99 1423.18 L5383.66 1423.18 L4921.34 1423.18 L4459.01 1423.18 L3996.68 1423.18 L3534.36 1423.18 L3072.03 1423.18 L2609.7 1423.18 L2147.38 1423.18 L1685.05 1423.18 L1222.73 1423.18 L760.399 1423.18 L298.073 1423.18 L-164.253 1423.18 L-626.58 1423.18 L-1088.91 1423.18 L-1551.23 1423.18 L-2013.56 1423.18 L-2475.88 1423.18 L-2938.21 1423.18 L-3400.54 1423.18 L-3862.86 1423.18 L-4325.19 1423.18 L-4787.52 1423.18 L-5249.84 1423.18 L-5712.17 1423.18 L-6174.49 1423.18 L-6636.82 1423.18 L-7099.15 1423.18 L-7561.47 1423.18 L-8023.8 1423.18 L-8486.13 1423.18 L-8948.45 1423.18 L-9410.78 1423.18 L-9873.1 1423.18 L-10335.4 1423.18 L-10797.8 1423.18 L-11260.1 1423.18 L-11722.4 1423.18 L-12184.7 1423.18 L-12647.1 1423.18 L-13109.4 1423.18 L-13571.7 1423.18 L-14034 1423.18 L-14496.4 1423.18 L-14958.7 1423.18 L-15421 1423.18 L-15883.3 1423.18 L-16345.7 1423.18 L-16808 1423.18 L-17270.3 1423.18 L-17732.7 1423.18 L-18195 1423.18 L-18657.3 1423.18 L-19119.6 1423.18 L-19582 1423.18 L-20044.3 1423.18 L-20506.6 1423.18 L-20968.9 1423.18 L-21431.3 1423.18 L-21893.6 1423.18 L-22355.9 1423.18 L-22818.2 1423.18 L-23280.6 1423.18 L-23742.9 1423.18 L-24205.2 1423.18 L-24667.5 1423.18 L-25129.9 1423.18 L-25592.2 1423.18 L-26054.5 1423.18 L-26516.9 1423.18 L-26979.2 1423.18 L-27441.5 1423.18 L-27903.8 1423.18 L-28366.2 1423.18 L-28828.5 1423.18 L-29290.8 1423.18 L-29753.1 1423.18 L-30215.5 1423.18 L-30677.8 1423.18 L-31140.1 1423.18 L-31602.4 1423.18 L-32064.8 1423.18 L-32527.1 1423.18 L-32989.4 1423.18 L-33451.7 1423.18 L-33914.1 1423.18 L-34376.4 1423.18 L-34838.7 1423.18 L-35301 1423.18 L-35763.4 1423.18 L-36225.7 1423.18 L-36688 1423.18 L-37150.4 1423.18 L-37612.7 1423.18 L-38075 1423.18 L-38537.3 1423.18 L-38999.7 1423.18 L-39462 1423.18 L-39924.3 1423.18  Z" fill="#e26f46" fill-rule="evenodd" fill-opacity="0.2"/>
<polyline clip-path="url(#clip662)" style="stroke:#e26f46; stroke-linecap:round; stroke-linejoin:round; stroke-width:4; stroke-opacity:1; fill:none" points="-39924.3,1423.18 -39462,1423.18 -38999.7,1423.18 -38537.3,1423.18 -38075,1423.18 -37612.7,1423.18 -37150.4,1423.18 -36688,1423.18 -36225.7,1423.18 -35763.4,1423.18 -35301,1423.18 -34838.7,1423.18 -34376.4,1423.18 -33914.1,1423.18 -33451.7,1423.18 -32989.4,1423.18 -32527.1,1423.18 -32064.8,1423.18 -31602.4,1423.18 -31140.1,1423.18 -30677.8,1423.18 -30215.5,1423.18 -29753.1,1423.18 -29290.8,1423.18 -28828.5,1423.18 -28366.2,1423.18 -27903.8,1423.18 -27441.5,1423.18 -26979.2,1423.18 -26516.9,1423.18 -26054.5,1423.18 -25592.2,1423.18 -25129.9,1423.18 -24667.5,1423.18 -24205.2,1423.18 -23742.9,1423.18 -23280.6,1423.18 -22818.2,1423.18 -22355.9,1423.18 -21893.6,1423.17 -21431.3,1423.18 -20968.9,1423.18 -20506.6,1423.18 -20044.3,1423.17 -19582,1423.17 -19119.6,1423.17 -18657.3,1423.17 -18195,1423.17 -17732.7,1423.17 -17270.3,1423.16 -16808,1423.17 -16345.7,1423.17 -15883.3,1423.17 -15421,1423.17 -14958.7,1423.16 -14496.4,1423.17 -14034,1423.16 -13571.7,1423.15 -13109.4,1423.17 -12647.1,1423.14 -12184.7,1423.16 -11722.4,1423.16 -11260.1,1423.14 -10797.8,1423.14 -10335.4,1423.14 -9873.1,1423.14 -9410.78,1423.12 -8948.45,1423.1 -8486.13,1423.09 -8023.8,1423.07 -7561.47,1423.03 -7099.15,1422.98 -6636.82,1422.91 -6174.49,1422.85 -5712.17,1422.72 -5249.84,1422.54 -4787.52,1422.31 -4325.19,1421.82 -3862.86,1421.03 -3400.54,1419.51 -2938.21,1417.13 -2475.88,1413.02 -2013.56,1405.95 -1551.23,1394.29 -1088.91,1375.74 -626.58,1347.51 -164.253,1307.63 298.073,1256.48 760.399,1204.08 1222.73,1177.11 1685.05,1193.9 2147.38,1241.47 2609.7,1294.27 3072.03,1337.87 3534.36,1368.55 3996.68,1389.92 4459.01,1403.45 4921.34,1411.42 5383.66,1416.19 5845.99,1419.13 6308.31,1420.8 6770.64,1421.65 7232.97,1422.21 7695.29,1422.51 8157.62,1422.72 8619.95,1422.81 9082.27,1422.91 9544.6,1423.02 10006.9,1423.04 10469.3,1423.06 10931.6,1423.07 11393.9,1423.09 11856.2,1423.11 12318.6,1423.13 12780.9,1423.14 13243.2,1423.15 13705.5,1423.15 14167.9,1423.15 14630.2,1423.14 15092.5,1423.15 15554.8,1423.16 16017.2,1423.16 16479.5,1423.16 16941.8,1423.16 17404.1,1423.16 17866.5,1423.16 18328.8,1423.17 18791.1,1423.17 19253.5,1423.17 19715.8,1423.17 20178.1,1423.17 20640.4,1423.18 21102.8,1423.17 21565.1,1423.18 22027.4,1423.17 22489.7,1423.18 22952.1,1423.18 23414.4,1423.18 23876.7,1423.18 24339,1423.18 24801.4,1423.18 25263.7,1423.18 25726,1423.18 26188.3,1423.18 26650.7,1423.18 27113,1423.18 27575.3,1423.18 28037.6,1423.18 28500,1423.18 28962.3,1423.18 29424.6,1423.18 29887,1423.18 30349.3,1423.18 30811.6,1423.18 31273.9,1423.18 31736.3,1423.18 32198.6,1423.18 32660.9,1423.18 33123.2,1423.18 33585.6,1423.18 34047.9,1423.18 34510.2,1423.18 34972.5,1423.18 35434.9,1423.18 35897.2,1423.18 36359.5,1423.18 36821.8,1423.18 37284.2,1423.18 37746.5,1423.18 38208.8,1423.18 38671.2,1423.18 39133.5,1423.18 39595.8,1423.18 40058.1,1423.18 40520.5,1423.18 40982.8,1423.18 41445.1,1423.18 41907.4,1423.18 42369.8,1423.18 42832.1,1423.18 43294.4,1423.18 43756.7,1423.18 44219.1,1423.18 44681.4,1423.18 45143.7,1423.18 45606,1423.18 46068.4,1423.18 46530.7,1423.18 46993,1423.18 47455.4,1423.18 47917.7,1423.18 48380,1423.18 48842.3,1423.18 49304.7,1423.18 49767,1423.18 50229.3,1423.18 50691.6,1423.18 51154,1423.18 51616.3,1423.18 52078.6,1423.18 "/>
</svg>
