<?xml version="1.0" encoding="utf-8"?>
<svg xmlns="http://www.w3.org/2000/svg" xmlns:xlink="http://www.w3.org/1999/xlink" width="600" height="400" viewBox="0 0 2400 1600">
<defs>
  <clipPath id="clip630">
    <rect x="0" y="0" width="2400" height="1600"/>
  </clipPath>
</defs>
<path clip-path="url(#clip630)" d="M0 1600 L2400 1600 L2400 0 L0 0  Z" fill="#ffffff" fill-rule="evenodd" fill-opacity="1"/>
<defs>
  <clipPath id="clip631">
    <rect x="480" y="0" width="1681" height="1600"/>
  </clipPath>
</defs>
<path clip-path="url(#clip630)" d="M156.598 1486.45 L2352.76 1486.45 L2352.76 47.2441 L156.598 47.2441  Z" fill="#ffffff" fill-rule="evenodd" fill-opacity="1"/>
<defs>
  <clipPath id="clip632">
    <rect x="156" y="47" width="2197" height="1440"/>
  </clipPath>
</defs>
<polyline clip-path="url(#clip632)" style="stroke:#000000; stroke-linecap:round; stroke-linejoin:round; stroke-width:2; stroke-opacity:0.1; fill:none" points="156.598,1486.45 156.598,47.2441 "/>
<polyline clip-path="url(#clip632)" style="stroke:#000000; stroke-linecap:round; stroke-linejoin:round; stroke-width:2; stroke-opacity:0.1; fill:none" points="705.638,1486.45 705.638,47.2441 "/>
<polyline clip-path="url(#clip632)" style="stroke:#000000; stroke-linecap:round; stroke-linejoin:round; stroke-width:2; stroke-opacity:0.1; fill:none" points="1254.68,1486.45 1254.68,47.2441 "/>
<polyline clip-path="url(#clip632)" style="stroke:#000000; stroke-linecap:round; stroke-linejoin:round; stroke-width:2; stroke-opacity:0.1; fill:none" points="1803.72,1486.45 1803.72,47.2441 "/>
<polyline clip-path="url(#clip632)" style="stroke:#000000; stroke-linecap:round; stroke-linejoin:round; stroke-width:2; stroke-opacity:0.1; fill:none" points="2352.76,1486.45 2352.76,47.2441 "/>
<polyline clip-path="url(#clip630)" style="stroke:#000000; stroke-linecap:round; stroke-linejoin:round; stroke-width:4; stroke-opacity:1; fill:none" points="156.598,1486.45 2352.76,1486.45 "/>
<polyline clip-path="url(#clip630)" style="stroke:#000000; stroke-linecap:round; stroke-linejoin:round; stroke-width:4; stroke-opacity:1; fill:none" points="156.598,1486.45 156.598,1467.55 "/>
<polyline clip-path="url(#clip630)" style="stroke:#000000; stroke-linecap:round; stroke-linejoin:round; stroke-width:4; stroke-opacity:1; fill:none" points="705.638,1486.45 705.638,1467.55 "/>
<polyline clip-path="url(#clip630)" style="stroke:#000000; stroke-linecap:round; stroke-linejoin:round; stroke-width:4; stroke-opacity:1; fill:none" points="1254.68,1486.45 1254.68,1467.55 "/>
<polyline clip-path="url(#clip630)" style="stroke:#000000; stroke-linecap:round; stroke-linejoin:round; stroke-width:4; stroke-opacity:1; fill:none" points="1803.72,1486.45 1803.72,1467.55 "/>
<polyline clip-path="url(#clip630)" style="stroke:#000000; stroke-linecap:round; stroke-linejoin:round; stroke-width:4; stroke-opacity:1; fill:none" points="2352.76,1486.45 2352.76,1467.55 "/>
<path clip-path="url(#clip630)" d="M125.499 1532.02 L155.175 1532.02 L155.175 1535.95 L125.499 1535.95 L125.499 1532.02 Z" fill="#000000" fill-rule="nonzero" fill-opacity="1" /><path clip-path="url(#clip630)" d="M178.114 1518.36 L166.309 1536.81 L178.114 1536.81 L178.114 1518.36 M176.887 1514.29 L182.767 1514.29 L182.767 1536.81 L187.698 1536.81 L187.698 1540.7 L182.767 1540.7 L182.767 1548.85 L178.114 1548.85 L178.114 1540.7 L162.513 1540.7 L162.513 1536.19 L176.887 1514.29 Z" fill="#000000" fill-rule="nonzero" fill-opacity="1" /><path clip-path="url(#clip630)" d="M675.58 1532.02 L705.256 1532.02 L705.256 1535.95 L675.58 1535.95 L675.58 1532.02 Z" fill="#000000" fill-rule="nonzero" fill-opacity="1" /><path clip-path="url(#clip630)" d="M719.376 1544.91 L735.695 1544.91 L735.695 1548.85 L713.751 1548.85 L713.751 1544.91 Q716.413 1542.16 720.996 1537.53 Q725.603 1532.88 726.783 1531.53 Q729.029 1529.01 729.908 1527.27 Q730.811 1525.51 730.811 1523.82 Q730.811 1521.07 728.867 1519.33 Q726.945 1517.6 723.844 1517.6 Q721.645 1517.6 719.191 1518.36 Q716.76 1519.13 713.983 1520.68 L713.983 1515.95 Q716.807 1514.82 719.26 1514.24 Q721.714 1513.66 723.751 1513.66 Q729.121 1513.66 732.316 1516.35 Q735.51 1519.03 735.51 1523.52 Q735.51 1525.65 734.7 1527.57 Q733.913 1529.47 731.806 1532.07 Q731.228 1532.74 728.126 1535.95 Q725.024 1539.15 719.376 1544.91 Z" fill="#000000" fill-rule="nonzero" fill-opacity="1" /><path clip-path="url(#clip630)" d="M1254.68 1517.37 Q1251.07 1517.37 1249.24 1520.93 Q1247.43 1524.47 1247.43 1531.6 Q1247.43 1538.71 1249.24 1542.27 Q1251.07 1545.82 1254.68 1545.82 Q1258.31 1545.82 1260.12 1542.27 Q1261.95 1538.71 1261.95 1531.6 Q1261.95 1524.47 1260.12 1520.93 Q1258.31 1517.37 1254.68 1517.37 M1254.68 1513.66 Q1260.49 1513.66 1263.54 1518.27 Q1266.62 1522.85 1266.62 1531.6 Q1266.62 1540.33 1263.54 1544.94 Q1260.49 1549.52 1254.68 1549.52 Q1248.87 1549.52 1245.79 1544.94 Q1242.73 1540.33 1242.73 1531.6 Q1242.73 1522.85 1245.79 1518.27 Q1248.87 1513.66 1254.68 1513.66 Z" fill="#000000" fill-rule="nonzero" fill-opacity="1" /><path clip-path="url(#clip630)" d="M1798.37 1544.91 L1814.69 1544.91 L1814.69 1548.85 L1792.74 1548.85 L1792.74 1544.91 Q1795.41 1542.16 1799.99 1537.53 Q1804.6 1532.88 1805.78 1531.53 Q1808.02 1529.01 1808.9 1527.27 Q1809.8 1525.51 1809.8 1523.82 Q1809.8 1521.07 1807.86 1519.33 Q1805.94 1517.6 1802.84 1517.6 Q1800.64 1517.6 1798.18 1518.36 Q1795.75 1519.13 1792.98 1520.68 L1792.98 1515.95 Q1795.8 1514.82 1798.25 1514.24 Q1800.71 1513.66 1802.74 1513.66 Q1808.11 1513.66 1811.31 1516.35 Q1814.5 1519.03 1814.5 1523.52 Q1814.5 1525.65 1813.69 1527.57 Q1812.91 1529.47 1810.8 1532.07 Q1810.22 1532.74 1807.12 1535.95 Q1804.02 1539.15 1798.37 1544.91 Z" fill="#000000" fill-rule="nonzero" fill-opacity="1" /><path clip-path="url(#clip630)" d="M2355.77 1518.36 L2343.96 1536.81 L2355.77 1536.81 L2355.77 1518.36 M2354.54 1514.29 L2360.42 1514.29 L2360.42 1536.81 L2365.35 1536.81 L2365.35 1540.7 L2360.42 1540.7 L2360.42 1548.85 L2355.77 1548.85 L2355.77 1540.7 L2340.16 1540.7 L2340.16 1536.19 L2354.54 1514.29 Z" fill="#000000" fill-rule="nonzero" fill-opacity="1" /><polyline clip-path="url(#clip632)" style="stroke:#000000; stroke-linecap:round; stroke-linejoin:round; stroke-width:2; stroke-opacity:0.1; fill:none" points="156.598,1486.45 2352.76,1486.45 "/>
<polyline clip-path="url(#clip632)" style="stroke:#000000; stroke-linecap:round; stroke-linejoin:round; stroke-width:2; stroke-opacity:0.1; fill:none" points="156.598,1158.63 2352.76,1158.63 "/>
<polyline clip-path="url(#clip632)" style="stroke:#000000; stroke-linecap:round; stroke-linejoin:round; stroke-width:2; stroke-opacity:0.1; fill:none" points="156.598,830.811 2352.76,830.811 "/>
<polyline clip-path="url(#clip632)" style="stroke:#000000; stroke-linecap:round; stroke-linejoin:round; stroke-width:2; stroke-opacity:0.1; fill:none" points="156.598,502.992 2352.76,502.992 "/>
<polyline clip-path="url(#clip632)" style="stroke:#000000; stroke-linecap:round; stroke-linejoin:round; stroke-width:2; stroke-opacity:0.1; fill:none" points="156.598,175.173 2352.76,175.173 "/>
<polyline clip-path="url(#clip630)" style="stroke:#000000; stroke-linecap:round; stroke-linejoin:round; stroke-width:4; stroke-opacity:1; fill:none" points="156.598,1486.45 156.598,47.2441 "/>
<polyline clip-path="url(#clip630)" style="stroke:#000000; stroke-linecap:round; stroke-linejoin:round; stroke-width:4; stroke-opacity:1; fill:none" points="156.598,1486.45 175.496,1486.45 "/>
<polyline clip-path="url(#clip630)" style="stroke:#000000; stroke-linecap:round; stroke-linejoin:round; stroke-width:4; stroke-opacity:1; fill:none" points="156.598,1158.63 175.496,1158.63 "/>
<polyline clip-path="url(#clip630)" style="stroke:#000000; stroke-linecap:round; stroke-linejoin:round; stroke-width:4; stroke-opacity:1; fill:none" points="156.598,830.811 175.496,830.811 "/>
<polyline clip-path="url(#clip630)" style="stroke:#000000; stroke-linecap:round; stroke-linejoin:round; stroke-width:4; stroke-opacity:1; fill:none" points="156.598,502.992 175.496,502.992 "/>
<polyline clip-path="url(#clip630)" style="stroke:#000000; stroke-linecap:round; stroke-linejoin:round; stroke-width:4; stroke-opacity:1; fill:none" points="156.598,175.173 175.496,175.173 "/>
<path clip-path="url(#clip630)" d="M63.4226 1472.25 Q59.8115 1472.25 57.9828 1475.81 Q56.1773 1479.35 56.1773 1486.48 Q56.1773 1493.59 57.9828 1497.15 Q59.8115 1500.7 63.4226 1500.7 Q67.0569 1500.7 68.8624 1497.15 Q70.6911 1493.59 70.6911 1486.48 Q70.6911 1479.35 68.8624 1475.81 Q67.0569 1472.25 63.4226 1472.25 M63.4226 1468.54 Q69.2328 1468.54 72.2883 1473.15 Q75.367 1477.73 75.367 1486.48 Q75.367 1495.21 72.2883 1499.82 Q69.2328 1504.4 63.4226 1504.4 Q57.6125 1504.4 54.5338 1499.82 Q51.4782 1495.21 51.4782 1486.48 Q51.4782 1477.73 54.5338 1473.15 Q57.6125 1468.54 63.4226 1468.54 Z" fill="#000000" fill-rule="nonzero" fill-opacity="1" /><path clip-path="url(#clip630)" d="M83.5845 1497.85 L88.4688 1497.85 L88.4688 1503.73 L83.5845 1503.73 L83.5845 1497.85 Z" fill="#000000" fill-rule="nonzero" fill-opacity="1" /><path clip-path="url(#clip630)" d="M108.654 1472.25 Q105.043 1472.25 103.214 1475.81 Q101.409 1479.35 101.409 1486.48 Q101.409 1493.59 103.214 1497.15 Q105.043 1500.7 108.654 1500.7 Q112.288 1500.7 114.094 1497.15 Q115.922 1493.59 115.922 1486.48 Q115.922 1479.35 114.094 1475.81 Q112.288 1472.25 108.654 1472.25 M108.654 1468.54 Q114.464 1468.54 117.52 1473.15 Q120.598 1477.73 120.598 1486.48 Q120.598 1495.21 117.52 1499.82 Q114.464 1504.4 108.654 1504.4 Q102.844 1504.4 99.765 1499.82 Q96.7095 1495.21 96.7095 1486.48 Q96.7095 1477.73 99.765 1473.15 Q102.844 1468.54 108.654 1468.54 Z" fill="#000000" fill-rule="nonzero" fill-opacity="1" /><path clip-path="url(#clip630)" d="M64.6495 1144.43 Q61.0384 1144.43 59.2097 1147.99 Q57.4041 1151.53 57.4041 1158.66 Q57.4041 1165.77 59.2097 1169.34 Q61.0384 1172.88 64.6495 1172.88 Q68.2837 1172.88 70.0892 1169.34 Q71.9179 1165.77 71.9179 1158.66 Q71.9179 1151.53 70.0892 1147.99 Q68.2837 1144.43 64.6495 1144.43 M64.6495 1140.72 Q70.4596 1140.72 73.5152 1145.33 Q76.5938 1149.91 76.5938 1158.66 Q76.5938 1167.39 73.5152 1172 Q70.4596 1176.58 64.6495 1176.58 Q58.8393 1176.58 55.7606 1172 Q52.7051 1167.39 52.7051 1158.66 Q52.7051 1149.91 55.7606 1145.33 Q58.8393 1140.72 64.6495 1140.72 Z" fill="#000000" fill-rule="nonzero" fill-opacity="1" /><path clip-path="url(#clip630)" d="M84.8114 1170.03 L89.6956 1170.03 L89.6956 1175.91 L84.8114 1175.91 L84.8114 1170.03 Z" fill="#000000" fill-rule="nonzero" fill-opacity="1" /><path clip-path="url(#clip630)" d="M100.691 1171.97 L108.33 1171.97 L108.33 1145.61 L100.02 1147.28 L100.02 1143.02 L108.283 1141.35 L112.959 1141.35 L112.959 1171.97 L120.598 1171.97 L120.598 1175.91 L100.691 1175.91 L100.691 1171.97 Z" fill="#000000" fill-rule="nonzero" fill-opacity="1" /><path clip-path="url(#clip630)" d="M65.0198 816.609 Q61.4087 816.609 59.58 820.174 Q57.7745 823.716 57.7745 830.845 Q57.7745 837.952 59.58 841.517 Q61.4087 845.058 65.0198 845.058 Q68.6541 845.058 70.4596 841.517 Q72.2883 837.952 72.2883 830.845 Q72.2883 823.716 70.4596 820.174 Q68.6541 816.609 65.0198 816.609 M65.0198 812.906 Q70.83 812.906 73.8855 817.512 Q76.9642 822.095 76.9642 830.845 Q76.9642 839.572 73.8855 844.179 Q70.83 848.762 65.0198 848.762 Q59.2097 848.762 56.131 844.179 Q53.0754 839.572 53.0754 830.845 Q53.0754 822.095 56.131 817.512 Q59.2097 812.906 65.0198 812.906 Z" fill="#000000" fill-rule="nonzero" fill-opacity="1" /><path clip-path="url(#clip630)" d="M85.1818 842.211 L90.066 842.211 L90.066 848.091 L85.1818 848.091 L85.1818 842.211 Z" fill="#000000" fill-rule="nonzero" fill-opacity="1" /><path clip-path="url(#clip630)" d="M104.279 844.155 L120.598 844.155 L120.598 848.091 L98.6539 848.091 L98.6539 844.155 Q101.316 841.401 105.899 836.771 Q110.506 832.118 111.686 830.776 Q113.932 828.253 114.811 826.517 Q115.714 824.757 115.714 823.068 Q115.714 820.313 113.77 818.577 Q111.848 816.841 108.746 816.841 Q106.547 816.841 104.094 817.605 Q101.663 818.369 98.8854 819.919 L98.8854 815.197 Q101.709 814.063 104.163 813.484 Q106.617 812.906 108.654 812.906 Q114.024 812.906 117.219 815.591 Q120.413 818.276 120.413 822.767 Q120.413 824.896 119.603 826.818 Q118.816 828.716 116.709 831.308 Q116.131 831.98 113.029 835.197 Q109.927 838.392 104.279 844.155 Z" fill="#000000" fill-rule="nonzero" fill-opacity="1" /><path clip-path="url(#clip630)" d="M64.0708 488.791 Q60.4597 488.791 58.631 492.355 Q56.8254 495.897 56.8254 503.027 Q56.8254 510.133 58.631 513.698 Q60.4597 517.24 64.0708 517.24 Q67.705 517.24 69.5105 513.698 Q71.3392 510.133 71.3392 503.027 Q71.3392 495.897 69.5105 492.355 Q67.705 488.791 64.0708 488.791 M64.0708 485.087 Q69.8809 485.087 72.9365 489.693 Q76.0151 494.277 76.0151 503.027 Q76.0151 511.753 72.9365 516.36 Q69.8809 520.943 64.0708 520.943 Q58.2606 520.943 55.1819 516.36 Q52.1264 511.753 52.1264 503.027 Q52.1264 494.277 55.1819 489.693 Q58.2606 485.087 64.0708 485.087 Z" fill="#000000" fill-rule="nonzero" fill-opacity="1" /><path clip-path="url(#clip630)" d="M84.2327 514.392 L89.1169 514.392 L89.1169 520.272 L84.2327 520.272 L84.2327 514.392 Z" fill="#000000" fill-rule="nonzero" fill-opacity="1" /><path clip-path="url(#clip630)" d="M113.469 501.638 Q116.825 502.355 118.7 504.624 Q120.598 506.892 120.598 510.226 Q120.598 515.341 117.08 518.142 Q113.561 520.943 107.08 520.943 Q104.904 520.943 102.589 520.503 Q100.297 520.087 97.8437 519.23 L97.8437 514.716 Q99.7882 515.851 102.103 516.429 Q104.418 517.008 106.941 517.008 Q111.339 517.008 113.631 515.272 Q115.945 513.536 115.945 510.226 Q115.945 507.17 113.793 505.457 Q111.663 503.721 107.844 503.721 L103.816 503.721 L103.816 499.879 L108.029 499.879 Q111.478 499.879 113.307 498.513 Q115.135 497.124 115.135 494.531 Q115.135 491.869 113.237 490.457 Q111.362 489.022 107.844 489.022 Q105.922 489.022 103.723 489.439 Q101.524 489.855 98.8854 490.735 L98.8854 486.568 Q101.547 485.828 103.862 485.457 Q106.2 485.087 108.26 485.087 Q113.584 485.087 116.686 487.518 Q119.788 489.925 119.788 494.045 Q119.788 496.916 118.145 498.906 Q116.501 500.874 113.469 501.638 Z" fill="#000000" fill-rule="nonzero" fill-opacity="1" /><path clip-path="url(#clip630)" d="M62.9365 160.972 Q59.3254 160.972 57.4967 164.537 Q55.6912 168.078 55.6912 175.208 Q55.6912 182.314 57.4967 185.879 Q59.3254 189.421 62.9365 189.421 Q66.5707 189.421 68.3763 185.879 Q70.205 182.314 70.205 175.208 Q70.205 168.078 68.3763 164.537 Q66.5707 160.972 62.9365 160.972 M62.9365 157.268 Q68.7467 157.268 71.8022 161.875 Q74.8809 166.458 74.8809 175.208 Q74.8809 183.935 71.8022 188.541 Q68.7467 193.125 62.9365 193.125 Q57.1264 193.125 54.0477 188.541 Q50.9921 183.935 50.9921 175.208 Q50.9921 166.458 54.0477 161.875 Q57.1264 157.268 62.9365 157.268 Z" fill="#000000" fill-rule="nonzero" fill-opacity="1" /><path clip-path="url(#clip630)" d="M83.0984 186.574 L87.9827 186.574 L87.9827 192.453 L83.0984 192.453 L83.0984 186.574 Z" fill="#000000" fill-rule="nonzero" fill-opacity="1" /><path clip-path="url(#clip630)" d="M111.015 161.967 L99.2095 180.416 L111.015 180.416 L111.015 161.967 M109.788 157.893 L115.668 157.893 L115.668 180.416 L120.598 180.416 L120.598 184.305 L115.668 184.305 L115.668 192.453 L111.015 192.453 L111.015 184.305 L95.4132 184.305 L95.4132 179.791 L109.788 157.893 Z" fill="#000000" fill-rule="nonzero" fill-opacity="1" /><path clip-path="url(#clip632)" d="M705.638 1189.47 L705.638 1486.45 L842.898 1486.45 L842.898 1189.47 L705.638 1189.47 L705.638 1189.47  Z" fill="#009af9" fill-rule="evenodd" fill-opacity="1"/>
<polyline clip-path="url(#clip632)" style="stroke:#000000; stroke-linecap:round; stroke-linejoin:round; stroke-width:4; stroke-opacity:1; fill:none" points="705.638,1189.47 705.638,1486.45 842.898,1486.45 842.898,1189.47 705.638,1189.47 "/>
<path clip-path="url(#clip632)" d="M842.898 724.964 L842.898 1486.45 L980.157 1486.45 L980.157 724.964 L842.898 724.964 L842.898 724.964  Z" fill="#009af9" fill-rule="evenodd" fill-opacity="1"/>
<polyline clip-path="url(#clip632)" style="stroke:#000000; stroke-linecap:round; stroke-linejoin:round; stroke-width:4; stroke-opacity:1; fill:none" points="842.898,724.964 842.898,1486.45 980.157,1486.45 980.157,724.964 842.898,724.964 "/>
<path clip-path="url(#clip632)" d="M980.157 526.979 L980.157 1486.45 L1117.42 1486.45 L1117.42 526.979 L980.157 526.979 L980.157 526.979  Z" fill="#009af9" fill-rule="evenodd" fill-opacity="1"/>
<polyline clip-path="url(#clip632)" style="stroke:#000000; stroke-linecap:round; stroke-linejoin:round; stroke-width:4; stroke-opacity:1; fill:none" points="980.157,526.979 980.157,1486.45 1117.42,1486.45 1117.42,526.979 980.157,526.979 "/>
<path clip-path="url(#clip632)" d="M1117.42 47.2441 L1117.42 1486.45 L1254.68 1486.45 L1254.68 47.2441 L1117.42 47.2441 L1117.42 47.2441  Z" fill="#009af9" fill-rule="evenodd" fill-opacity="1"/>
<polyline clip-path="url(#clip632)" style="stroke:#000000; stroke-linecap:round; stroke-linejoin:round; stroke-width:4; stroke-opacity:1; fill:none" points="1117.42,47.2441 1117.42,1486.45 1254.68,1486.45 1254.68,47.2441 1117.42,47.2441 "/>
<path clip-path="url(#clip632)" d="M1254.68 252.845 L1254.68 1486.45 L1391.94 1486.45 L1391.94 252.845 L1254.68 252.845 L1254.68 252.845  Z" fill="#009af9" fill-rule="evenodd" fill-opacity="1"/>
<polyline clip-path="url(#clip632)" style="stroke:#000000; stroke-linecap:round; stroke-linejoin:round; stroke-width:4; stroke-opacity:1; fill:none" points="1254.68,252.845 1254.68,1486.45 1391.94,1486.45 1391.94,252.845 1254.68,252.845 "/>
<path clip-path="url(#clip632)" d="M1391.94 625.972 L1391.94 1486.45 L1529.2 1486.45 L1529.2 625.972 L1391.94 625.972 L1391.94 625.972  Z" fill="#009af9" fill-rule="evenodd" fill-opacity="1"/>
<polyline clip-path="url(#clip632)" style="stroke:#000000; stroke-linecap:round; stroke-linejoin:round; stroke-width:4; stroke-opacity:1; fill:none" points="1391.94,625.972 1391.94,1486.45 1529.2,1486.45 1529.2,625.972 1391.94,625.972 "/>
<path clip-path="url(#clip632)" d="M1529.2 983.869 L1529.2 1486.45 L1666.46 1486.45 L1666.46 983.869 L1529.2 983.869 L1529.2 983.869  Z" fill="#009af9" fill-rule="evenodd" fill-opacity="1"/>
<polyline clip-path="url(#clip632)" style="stroke:#000000; stroke-linecap:round; stroke-linejoin:round; stroke-width:4; stroke-opacity:1; fill:none" points="1529.2,983.869 1529.2,1486.45 1666.46,1486.45 1666.46,983.869 1529.2,983.869 "/>
<path clip-path="url(#clip632)" d="M1666.46 1242.77 L1666.46 1486.45 L1803.72 1486.45 L1803.72 1242.77 L1666.46 1242.77 L1666.46 1242.77  Z" fill="#009af9" fill-rule="evenodd" fill-opacity="1"/>
<polyline clip-path="url(#clip632)" style="stroke:#000000; stroke-linecap:round; stroke-linejoin:round; stroke-width:4; stroke-opacity:1; fill:none" points="1666.46,1242.77 1666.46,1486.45 1803.72,1486.45 1803.72,1242.77 1666.46,1242.77 "/>
<path clip-path="url(#clip632)" d="M1803.72 1349.38 L1803.72 1486.45 L1940.98 1486.45 L1940.98 1349.38 L1803.72 1349.38 L1803.72 1349.38  Z" fill="#009af9" fill-rule="evenodd" fill-opacity="1"/>
<polyline clip-path="url(#clip632)" style="stroke:#000000; stroke-linecap:round; stroke-linejoin:round; stroke-width:4; stroke-opacity:1; fill:none" points="1803.72,1349.38 1803.72,1486.45 1940.98,1486.45 1940.98,1349.38 1803.72,1349.38 "/>
<path clip-path="url(#clip632)" d="M1940.98 1387.46 L1940.98 1486.45 L2078.24 1486.45 L2078.24 1387.46 L1940.98 1387.46 L1940.98 1387.46  Z" fill="#009af9" fill-rule="evenodd" fill-opacity="1"/>
<polyline clip-path="url(#clip632)" style="stroke:#000000; stroke-linecap:round; stroke-linejoin:round; stroke-width:4; stroke-opacity:1; fill:none" points="1940.98,1387.46 1940.98,1486.45 2078.24,1486.45 2078.24,1387.46 1940.98,1387.46 "/>
<path clip-path="url(#clip632)" d="M2078.24 1463.6 L2078.24 1486.45 L2215.5 1486.45 L2215.5 1463.6 L2078.24 1463.6 L2078.24 1463.6  Z" fill="#009af9" fill-rule="evenodd" fill-opacity="1"/>
<polyline clip-path="url(#clip632)" style="stroke:#000000; stroke-linecap:round; stroke-linejoin:round; stroke-width:4; stroke-opacity:1; fill:none" points="2078.24,1463.6 2078.24,1486.45 2215.5,1486.45 2215.5,1463.6 2078.24,1463.6 "/>
<circle clip-path="url(#clip632)" style="fill:#009af9; stroke:none; fill-opacity:0" cx="774.268" cy="1189.47" r="2"/>
<circle clip-path="url(#clip632)" style="fill:#009af9; stroke:none; fill-opacity:0" cx="911.527" cy="724.964" r="2"/>
<circle clip-path="url(#clip632)" style="fill:#009af9; stroke:none; fill-opacity:0" cx="1048.79" cy="526.979" r="2"/>
<circle clip-path="url(#clip632)" style="fill:#009af9; stroke:none; fill-opacity:0" cx="1186.05" cy="47.2441" r="2"/>
<circle clip-path="url(#clip632)" style="fill:#009af9; stroke:none; fill-opacity:0" cx="1323.31" cy="252.845" r="2"/>
<circle clip-path="url(#clip632)" style="fill:#009af9; stroke:none; fill-opacity:0" cx="1460.57" cy="625.972" r="2"/>
<circle clip-path="url(#clip632)" style="fill:#009af9; stroke:none; fill-opacity:0" cx="1597.83" cy="983.869" r="2"/>
<circle clip-path="url(#clip632)" style="fill:#009af9; stroke:none; fill-opacity:0" cx="1735.09" cy="1242.77" r="2"/>
<circle clip-path="url(#clip632)" style="fill:#009af9; stroke:none; fill-opacity:0" cx="1872.35" cy="1349.38" r="2"/>
<circle clip-path="url(#clip632)" style="fill:#009af9; stroke:none; fill-opacity:0" cx="2009.61" cy="1387.46" r="2"/>
<circle clip-path="url(#clip632)" style="fill:#009af9; stroke:none; fill-opacity:0" cx="2146.87" cy="1463.6" r="2"/>
<polyline clip-path="url(#clip632)" style="stroke:#ffffff; stroke-linecap:round; stroke-linejoin:round; stroke-width:12; stroke-opacity:1; fill:none" points="-123540,1486.45 -122145,1486.45 -120751,1486.45 -119356,1486.45 -117962,1486.45 -116567,1486.45 -115172,1486.45 -113778,1486.45 -112383,1486.45 -110989,1486.45 -109594,1486.45 -108199,1486.45 -106805,1486.45 -105410,1486.45 -104016,1486.45 -102621,1486.45 -101227,1486.45 -99832,1486.45 -98437.4,1486.45 -97042.8,1486.45 -95648.2,1486.45 -94253.6,1486.45 -92859.1,1486.45 -91464.5,1486.45 -90069.9,1486.45 -88675.3,1486.45 -87280.7,1486.45 -85886.1,1486.45 -84491.5,1486.45 -83097,1486.45 -81702.4,1486.45 -80307.8,1486.45 -78913.2,1486.45 -77518.6,1486.45 -76124,1486.45 -74729.4,1486.45 -73334.9,1486.45 -71940.3,1486.45 -70545.7,1486.45 -69151.1,1486.45 -67756.5,1486.45 -66361.9,1486.45 -64967.3,1486.45 -63572.8,1486.45 -62178.2,1486.45 -60783.6,1486.45 -59389,1486.44 -57994.4,1486.44 -56599.8,1486.45 -55205.2,1486.45 -53810.7,1486.44 -52416.1,1486.44 -51021.5,1486.44 -49626.9,1486.44 -48232.3,1486.44 -46837.7,1486.44 -45443.1,1486.44 -44048.6,1486.44 -42654,1486.44 -41259.4,1486.44 -39864.8,1486.44 -38470.2,1486.43 -37075.6,1486.43 -35681,1486.44 -34286.5,1486.43 -32891.9,1486.43 -31497.3,1486.42 -30102.7,1486.42 -28708.1,1486.42 -27313.5,1486.41 -25918.9,1486.4 -24524.4,1486.38 -23129.8,1486.36 -21735.2,1486.34 -20340.6,1486.31 -18946,1486.2 -17551.4,1486.11 -16156.8,1485.92 -14762.3,1485.68 -13367.7,1485.16 -11973.1,1484.38 -10578.5,1482.89 -9183.92,1480.55 -7789.34,1476.66 -6394.75,1470.62 -5000.17,1461.32 -3605.58,1448.07 -2210.99,1430.8 -816.409,1410.95 578.176,1396.05 1972.76,1396.92 3367.35,1412.23 4761.93,1432.27 6156.52,1449.47 7551.1,1462.32 8945.69,1471.1 10340.3,1476.93 11734.9,1480.71 13129.4,1482.95 14524,1484.38 15918.6,1485.19 17313.2,1485.64 18707.8,1485.92 20102.4,1486.09 21497,1486.22 22891.5,1486.29 24286.1,1486.32 25680.7,1486.36 27075.3,1486.39 28469.9,1486.39 29864.5,1486.41 31259.1,1486.42 32653.6,1486.42 34048.2,1486.42 35442.8,1486.42 36837.4,1486.43 38232,1486.43 39626.6,1486.43 41021.2,1486.43 42415.7,1486.43 43810.3,1486.44 45204.9,1486.44 46599.5,1486.44 47994.1,1486.44 49388.7,1486.44 50783.3,1486.44 52177.8,1486.45 53572.4,1486.44 54967,1486.45 56361.6,1486.45 57756.2,1486.45 59150.8,1486.45 60545.4,1486.45 61939.9,1486.45 63334.5,1486.44 64729.1,1486.45 66123.7,1486.45 67518.3,1486.45 68912.9,1486.45 70307.5,1486.45 71702,1486.45 73096.6,1486.45 74491.2,1486.45 75885.8,1486.45 77280.4,1486.45 78675,1486.45 80069.5,1486.45 81464.1,1486.45 82858.7,1486.45 84253.3,1486.45 85647.9,1486.45 87042.5,1486.45 88437.1,1486.45 89831.6,1486.45 91226.2,1486.45 92620.8,1486.45 94015.4,1486.45 95410,1486.45 96804.6,1486.45 98199.2,1486.45 99593.7,1486.45 100988,1486.45 102383,1486.45 103778,1486.45 105172,1486.45 106567,1486.45 107961,1486.45 109356,1486.45 110750,1486.45 112145,1486.45 113540,1486.45 114934,1486.45 116329,1486.45 117723,1486.45 119118,1486.45 120513,1486.45 121907,1486.45 123302,1486.45 124696,1486.45 126091,1486.45 127485,1486.45 128880,1486.45 130275,1486.45 131669,1486.45 133064,1486.45 134458,1486.45 135853,1486.45 137248,1486.45 138642,1486.45 140037,1486.45 141431,1486.45 142826,1486.45 144220,1486.45 145615,1486.45 147010,1486.45 148404,1486.45 149799,1486.45 151193,1486.45 152588,1486.45 153983,1486.45 "/>
<path clip-path="url(#clip632)" d="M-123540 1486.45 L-122145 1486.45 L-120751 1486.45 L-119356 1486.45 L-117962 1486.45 L-116567 1486.45 L-115172 1486.45 L-113778 1486.45 L-112383 1486.45 L-110989 1486.45 L-109594 1486.45 L-108199 1486.45 L-106805 1486.45 L-105410 1486.45 L-104016 1486.45 L-102621 1486.45 L-101227 1486.45 L-99832 1486.45 L-98437.4 1486.45 L-97042.8 1486.45 L-95648.2 1486.45 L-94253.6 1486.45 L-92859.1 1486.45 L-91464.5 1486.45 L-90069.9 1486.45 L-88675.3 1486.45 L-87280.7 1486.45 L-85886.1 1486.45 L-84491.5 1486.45 L-83097 1486.45 L-81702.4 1486.45 L-80307.8 1486.45 L-78913.2 1486.45 L-77518.6 1486.45 L-76124 1486.45 L-74729.4 1486.45 L-73334.9 1486.45 L-71940.3 1486.45 L-70545.7 1486.45 L-69151.1 1486.45 L-67756.5 1486.45 L-66361.9 1486.45 L-64967.3 1486.45 L-63572.8 1486.45 L-62178.2 1486.45 L-60783.6 1486.45 L-59389 1486.44 L-57994.4 1486.44 L-56599.8 1486.45 L-55205.2 1486.45 L-53810.7 1486.44 L-52416.1 1486.44 L-51021.5 1486.44 L-49626.9 1486.44 L-48232.3 1486.44 L-46837.7 1486.44 L-45443.1 1486.44 L-44048.6 1486.44 L-42654 1486.44 L-41259.4 1486.44 L-39864.8 1486.44 L-38470.2 1486.43 L-37075.6 1486.43 L-35681 1486.44 L-34286.5 1486.43 L-32891.9 1486.43 L-31497.3 1486.42 L-30102.7 1486.42 L-28708.1 1486.42 L-27313.5 1486.41 L-25918.9 1486.4 L-24524.4 1486.38 L-23129.8 1486.36 L-21735.2 1486.34 L-20340.6 1486.31 L-18946 1486.2 L-17551.4 1486.11 L-16156.8 1485.92 L-14762.3 1485.68 L-13367.7 1485.16 L-11973.1 1484.38 L-10578.5 1482.89 L-9183.92 1480.55 L-7789.34 1476.66 L-6394.75 1470.62 L-5000.17 1461.32 L-3605.58 1448.07 L-2210.99 1430.8 L-816.409 1410.95 L578.176 1396.05 L1972.76 1396.92 L3367.35 1412.23 L4761.93 1432.27 L6156.52 1449.47 L7551.1 1462.32 L8945.69 1471.1 L10340.3 1476.93 L11734.9 1480.71 L13129.4 1482.95 L14524 1484.38 L15918.6 1485.19 L17313.2 1485.64 L18707.8 1485.92 L20102.4 1486.09 L21497 1486.22 L22891.5 1486.29 L24286.1 1486.32 L25680.7 1486.36 L27075.3 1486.39 L28469.9 1486.39 L29864.5 1486.41 L31259.1 1486.42 L32653.6 1486.42 L34048.2 1486.42 L35442.8 1486.42 L36837.4 1486.43 L38232 1486.43 L39626.6 1486.43 L41021.2 1486.43 L42415.7 1486.43 L43810.3 1486.44 L45204.9 1486.44 L46599.5 1486.44 L47994.1 1486.44 L49388.7 1486.44 L50783.3 1486.44 L52177.8 1486.45 L53572.4 1486.44 L54967 1486.45 L56361.6 1486.45 L57756.2 1486.45 L59150.8 1486.45 L60545.4 1486.45 L61939.9 1486.45 L63334.5 1486.44 L64729.1 1486.45 L66123.7 1486.45 L67518.3 1486.45 L68912.9 1486.45 L70307.5 1486.45 L71702 1486.45 L73096.6 1486.45 L74491.2 1486.45 L75885.8 1486.45 L77280.4 1486.45 L78675 1486.45 L80069.5 1486.45 L81464.1 1486.45 L82858.7 1486.45 L84253.3 1486.45 L85647.9 1486.45 L87042.5 1486.45 L88437.1 1486.45 L89831.6 1486.45 L91226.2 1486.45 L92620.8 1486.45 L94015.4 1486.45 L95410 1486.45 L96804.6 1486.45 L98199.2 1486.45 L99593.7 1486.45 L100988 1486.45 L102383 1486.45 L103778 1486.45 L105172 1486.45 L106567 1486.45 L107961 1486.45 L109356 1486.45 L110750 1486.45 L112145 1486.45 L113540 1486.45 L114934 1486.45 L116329 1486.45 L117723 1486.45 L119118 1486.45 L120513 1486.45 L121907 1486.45 L123302 1486.45 L124696 1486.45 L126091 1486.45 L127485 1486.45 L128880 1486.45 L130275 1486.45 L131669 1486.45 L133064 1486.45 L134458 1486.45 L135853 1486.45 L137248 1486.45 L138642 1486.45 L140037 1486.45 L141431 1486.45 L142826 1486.45 L144220 1486.45 L145615 1486.45 L147010 1486.45 L148404 1486.45 L149799 1486.45 L151193 1486.45 L152588 1486.45 L153983 1486.45 L153983 1486.45 L152588 1486.45 L151193 1486.45 L149799 1486.45 L148404 1486.45 L147010 1486.45 L145615 1486.45 L144220 1486.45 L142826 1486.45 L141431 1486.45 L140037 1486.45 L138642 1486.45 L137248 1486.45 L135853 1486.45 L134458 1486.45 L133064 1486.45 L131669 1486.45 L130275 1486.45 L128880 1486.45 L127485 1486.45 L126091 1486.45 L124696 1486.45 L123302 1486.45 L121907 1486.45 L120513 1486.45 L119118 1486.45 L117723 1486.45 L116329 1486.45 L114934 1486.45 L113540 1486.45 L112145 1486.45 L110750 1486.45 L109356 1486.45 L107961 1486.45 L106567 1486.45 L105172 1486.45 L103778 1486.45 L102383 1486.45 L100988 1486.45 L99593.7 1486.45 L98199.2 1486.45 L96804.6 1486.45 L95410 1486.45 L94015.4 1486.45 L92620.8 1486.45 L91226.2 1486.45 L89831.6 1486.45 L88437.1 1486.45 L87042.5 1486.45 L85647.9 1486.45 L84253.3 1486.45 L82858.7 1486.45 L81464.1 1486.45 L80069.5 1486.45 L78675 1486.45 L77280.4 1486.45 L75885.8 1486.45 L74491.2 1486.45 L73096.6 1486.45 L71702 1486.45 L70307.5 1486.45 L68912.9 1486.45 L67518.3 1486.45 L66123.7 1486.45 L64729.1 1486.45 L63334.5 1486.45 L61939.9 1486.45 L60545.4 1486.45 L59150.8 1486.45 L57756.2 1486.45 L56361.6 1486.45 L54967 1486.45 L53572.4 1486.45 L52177.8 1486.45 L50783.3 1486.45 L49388.7 1486.45 L47994.1 1486.45 L46599.5 1486.45 L45204.9 1486.45 L43810.3 1486.45 L42415.7 1486.45 L41021.2 1486.45 L39626.6 1486.45 L38232 1486.45 L36837.4 1486.45 L35442.8 1486.45 L34048.2 1486.45 L32653.6 1486.45 L31259.1 1486.45 L29864.5 1486.45 L28469.9 1486.45 L27075.3 1486.45 L25680.7 1486.45 L24286.1 1486.45 L22891.5 1486.45 L21497 1486.45 L20102.4 1486.45 L18707.8 1486.45 L17313.2 1486.45 L15918.6 1486.45 L14524 1486.45 L13129.4 1486.45 L11734.9 1486.45 L10340.3 1486.45 L8945.69 1486.45 L7551.1 1486.45 L6156.52 1486.45 L4761.93 1486.45 L3367.35 1486.45 L1972.76 1486.45 L578.176 1486.45 L-816.409 1486.45 L-2210.99 1486.45 L-3605.58 1486.45 L-5000.17 1486.45 L-6394.75 1486.45 L-7789.34 1486.45 L-9183.92 1486.45 L-10578.5 1486.45 L-11973.1 1486.45 L-13367.7 1486.45 L-14762.3 1486.45 L-16156.8 1486.45 L-17551.4 1486.45 L-18946 1486.45 L-20340.6 1486.45 L-21735.2 1486.45 L-23129.8 1486.45 L-24524.4 1486.45 L-25918.9 1486.45 L-27313.5 1486.45 L-28708.1 1486.45 L-30102.7 1486.45 L-31497.3 1486.45 L-32891.9 1486.45 L-34286.5 1486.45 L-35681 1486.45 L-37075.6 1486.45 L-38470.2 1486.45 L-39864.8 1486.45 L-41259.4 1486.45 L-42654 1486.45 L-44048.6 1486.45 L-45443.1 1486.45 L-46837.7 1486.45 L-48232.3 1486.45 L-49626.9 1486.45 L-51021.5 1486.45 L-52416.1 1486.45 L-53810.7 1486.45 L-55205.2 1486.45 L-56599.8 1486.45 L-57994.4 1486.45 L-59389 1486.45 L-60783.6 1486.45 L-62178.2 1486.45 L-63572.8 1486.45 L-64967.3 1486.45 L-66361.9 1486.45 L-67756.5 1486.45 L-69151.1 1486.45 L-70545.7 1486.45 L-71940.3 1486.45 L-73334.9 1486.45 L-74729.4 1486.45 L-76124 1486.45 L-77518.6 1486.45 L-78913.2 1486.45 L-80307.8 1486.45 L-81702.4 1486.45 L-83097 1486.45 L-84491.5 1486.45 L-85886.1 1486.45 L-87280.7 1486.45 L-88675.3 1486.45 L-90069.9 1486.45 L-91464.5 1486.45 L-92859.1 1486.45 L-94253.6 1486.45 L-95648.2 1486.45 L-97042.8 1486.45 L-98437.4 1486.45 L-99832 1486.45 L-101227 1486.45 L-102621 1486.45 L-104016 1486.45 L-105410 1486.45 L-106805 1486.45 L-108199 1486.45 L-109594 1486.45 L-110989 1486.45 L-112383 1486.45 L-113778 1486.45 L-115172 1486.45 L-116567 1486.45 L-117962 1486.45 L-119356 1486.45 L-120751 1486.45 L-122145 1486.45 L-123540 1486.45  Z" fill="#e26f46" fill-rule="evenodd" fill-opacity="0.2"/>
<polyline clip-path="url(#clip632)" style="stroke:#e26f46; stroke-linecap:round; stroke-linejoin:round; stroke-width:4; stroke-opacity:1; fill:none" points="-123540,1486.45 -122145,1486.45 -120751,1486.45 -119356,1486.45 -117962,1486.45 -116567,1486.45 -115172,1486.45 -113778,1486.45 -112383,1486.45 -110989,1486.45 -109594,1486.45 -108199,1486.45 -106805,1486.45 -105410,1486.45 -104016,1486.45 -102621,1486.45 -101227,1486.45 -99832,1486.45 -98437.4,1486.45 -97042.8,1486.45 -95648.2,1486.45 -94253.6,1486.45 -92859.1,1486.45 -91464.5,1486.45 -90069.9,1486.45 -88675.3,1486.45 -87280.7,1486.45 -85886.1,1486.45 -84491.5,1486.45 -83097,1486.45 -81702.4,1486.45 -80307.8,1486.45 -78913.2,1486.45 -77518.6,1486.45 -76124,1486.45 -74729.4,1486.45 -73334.9,1486.45 -71940.3,1486.45 -70545.7,1486.45 -69151.1,1486.45 -67756.5,1486.45 -66361.9,1486.45 -64967.3,1486.45 -63572.8,1486.45 -62178.2,1486.45 -60783.6,1486.45 -59389,1486.44 -57994.4,1486.44 -56599.8,1486.45 -55205.2,1486.45 -53810.7,1486.44 -52416.1,1486.44 -51021.5,1486.44 -49626.9,1486.44 -48232.3,1486.44 -46837.7,1486.44 -45443.1,1486.44 -44048.6,1486.44 -42654,1486.44 -41259.4,1486.44 -39864.8,1486.44 -38470.2,1486.43 -37075.6,1486.43 -35681,1486.44 -34286.5,1486.43 -32891.9,1486.43 -31497.3,1486.42 -30102.7,1486.42 -28708.1,1486.42 -27313.5,1486.41 -25918.9,1486.4 -24524.4,1486.38 -23129.8,1486.36 -21735.2,1486.34 -20340.6,1486.31 -18946,1486.2 -17551.4,1486.11 -16156.8,1485.92 -14762.3,1485.68 -13367.7,1485.16 -11973.1,1484.38 -10578.5,1482.89 -9183.92,1480.55 -7789.34,1476.66 -6394.75,1470.62 -5000.17,1461.32 -3605.58,1448.07 -2210.99,1430.8 -816.409,1410.95 578.176,1396.05 1972.76,1396.92 3367.35,1412.23 4761.93,1432.27 6156.52,1449.47 7551.1,1462.32 8945.69,1471.1 10340.3,1476.93 11734.9,1480.71 13129.4,1482.95 14524,1484.38 15918.6,1485.19 17313.2,1485.64 18707.8,1485.92 20102.4,1486.09 21497,1486.22 22891.5,1486.29 24286.1,1486.32 25680.7,1486.36 27075.3,1486.39 28469.9,1486.39 29864.5,1486.41 31259.1,1486.42 32653.6,1486.42 34048.2,1486.42 35442.8,1486.42 36837.4,1486.43 38232,1486.43 39626.6,1486.43 41021.2,1486.43 42415.7,1486.43 43810.3,1486.44 45204.9,1486.44 46599.5,1486.44 47994.1,1486.44 49388.7,1486.44 50783.3,1486.44 52177.8,1486.45 53572.4,1486.44 54967,1486.45 56361.6,1486.45 57756.2,1486.45 59150.8,1486.45 60545.4,1486.45 61939.9,1486.45 63334.5,1486.44 64729.1,1486.45 66123.7,1486.45 67518.3,1486.45 68912.9,1486.45 70307.5,1486.45 71702,1486.45 73096.6,1486.45 74491.2,1486.45 75885.8,1486.45 77280.4,1486.45 78675,1486.45 80069.5,1486.45 81464.1,1486.45 82858.7,1486.45 84253.3,1486.45 85647.9,1486.45 87042.5,1486.45 88437.1,1486.45 89831.6,1486.45 91226.2,1486.45 92620.8,1486.45 94015.4,1486.45 95410,1486.45 96804.6,1486.45 98199.2,1486.45 99593.7,1486.45 100988,1486.45 102383,1486.45 103778,1486.45 105172,1486.45 106567,1486.45 107961,1486.45 109356,1486.45 110750,1486.45 112145,1486.45 113540,1486.45 114934,1486.45 116329,1486.45 117723,1486.45 119118,1486.45 120513,1486.45 121907,1486.45 123302,1486.45 124696,1486.45 126091,1486.45 127485,1486.45 128880,1486.45 130275,1486.45 131669,1486.45 133064,1486.45 134458,1486.45 135853,1486.45 137248,1486.45 138642,1486.45 140037,1486.45 141431,1486.45 142826,1486.45 144220,1486.45 145615,1486.45 147010,1486.45 148404,1486.45 149799,1486.45 151193,1486.45 152588,1486.45 153983,1486.45 "/>
</svg>
