<?xml version="1.0" encoding="UTF-8" standalone="no"?>
<!-- Created with Inkscape (http://www.inkscape.org/) -->

<svg
   width="210mm"
   height="297mm"
   viewBox="0 0 210 297"
   version="1.1"
   id="svg5"
   xml:space="preserve"
   inkscape:version="1.2.2 (732a01da63, 2022-12-09)"
   sodipodi:docname="seabird_icons.svg"
   xmlns:inkscape="http://www.inkscape.org/namespaces/inkscape"
   xmlns:sodipodi="http://sodipodi.sourceforge.net/DTD/sodipodi-0.dtd"
   xmlns="http://www.w3.org/2000/svg"
   xmlns:svg="http://www.w3.org/2000/svg"><sodipodi:namedview
     id="namedview7"
     pagecolor="#ffffff"
     bordercolor="#000000"
     borderopacity="0.25"
     inkscape:showpageshadow="2"
     inkscape:pageopacity="0.0"
     inkscape:pagecheckerboard="0"
     inkscape:deskcolor="#d1d1d1"
     inkscape:document-units="mm"
     showgrid="false"
     inkscape:zoom="1.1212722"
     inkscape:cx="371.45308"
     inkscape:cy="218.94774"
     inkscape:window-width="1920"
     inkscape:window-height="1051"
     inkscape:window-x="-9"
     inkscape:window-y="-9"
     inkscape:window-maximized="1"
     inkscape:current-layer="layer1" /><defs
     id="defs2" /><g
     inkscape:label="Layer 1"
     inkscape:groupmode="layer"
     id="layer1"><g
       id="g8927"
       transform="matrix(-0.55103393,0,0,0.55103393,165.65303,-18.522806)"><path
         style="fill:#000000;fill-opacity:1;stroke:#000000;stroke-width:0.3;stroke-miterlimit:0;stroke-opacity:1"
         d="m 104.70294,70.723727 c -0.85733,-0.206541 -2.52809,0.119672 -3.58946,0.105769 0.79975,-0.629058 2.10375,-1.005994 4.0045,-1.084551 0.84953,-1.355948 2.15331,-1.63303 3.62907,-1.501685 1.93944,0.01949 2.2821,2.56722 3.37879,3.921066 3.43229,1.460164 9.43156,2.728188 12.55576,4.755338 1.68563,0.243898 3.42492,0.380498 4.9639,0.917697 2.94544,-0.11309 5.74815,-0.169092 8.30099,-0.125143 0.3493,0.244607 0.004,0.535542 -5.46447,1.167979 1.36803,0.158084 5.36105,0.135662 6.59073,0.667415 -1.19736,0.223626 -3.31416,0.309337 -5.00562,0.458848 -0.66836,0.418788 -3.28884,0.377216 -4.63019,0.417137 1.74774,0.664232 7.30224,1.114749 6.92443,1.33483 -1.92875,0.0401 -3.00564,0.16563 -9.13525,-1.001125 l -4.67191,-0.37542 c -2.07692,1.236896 -4.55306,1.550576 -7.25815,1.334831 -0.40797,-0.224507 -0.53299,1.361793 -0.76353,2.272824 l 0.29496,0.235969 c -0.29697,0.08156 -0.55586,0.201204 -0.61942,0.516178 -0.90849,-0.336344 -1.76562,-0.39026 -2.59563,-0.29496 l -1.0766,-0.737397 2.31542,0.07374 c 0.54946,-0.849915 0.54673,-1.649631 0.69315,-2.462906 -2.20831,-0.697131 -7.99868,-3.029223 -7.06426,-8.996246 -0.0777,-0.892948 -0.75622,-1.571917 -1.77721,-1.600188 z"
         id="path8057"
         sodipodi:nodetypes="ccccccccccccccccccccccccc" /><path
         style="fill:#ffffff;fill-opacity:1;stroke:none;stroke-width:0.3;stroke-miterlimit:0;stroke-opacity:1"
         d="m 114.54728,81.585622 -0.48669,2.330175 -0.45718,-0.08849 0.29496,-1.7845 0.19172,-0.501431 z"
         id="path8437" /></g><path
       style="fill:#000000;fill-opacity:1;stroke:#000000;stroke-width:0.083761;stroke-miterlimit:0;stroke-opacity:1"
       d="m 21.303489,22.63908 c -0.06373,1.040693 1.092084,2.785481 5.270631,6.275342 0.908043,2.1315 1.668965,4.163328 1.235305,5.385915 -0.196379,-0.16408 -0.116452,-0.190006 -0.625894,-0.510597 -0.05612,-0.658846 -1.185884,-2.196085 -1.77884,-3.294134 -2.849795,-2.129257 -5.335203,-4.432025 -7.26357,-7.000051 -0.671225,0.128003 -2.506647,0.191379 -3.88709,0.280002 -0.758286,0.204764 -1.223484,0.673304 -2.371769,0.527066 -0.160343,-0.126236 -0.335497,-0.252553 -0.411782,-0.37883 0.435752,-1.34813 2.409585,-1.235088 3.64004,-1.828248 0.407882,-0.414241 0.992848,-0.798972 1.663529,-1.169418 0.199355,-1.422674 -0.484222,-2.277751 -0.840006,-3.343552 -1.011722,-1.960013 -1.850696,-3.920026 -2.207064,-5.88004 -1.030543,-1.342807 -1.961577,-2.4617617 -2.81649,-3.4094338 -0.02514,-0.3098408 -0.01726,-0.5062322 0.0659,-0.4447081 0.650421,0.1185042 1.36449,0.5869647 2.098317,1.1642206 0.73384,0.5772545 1.487464,1.2633013 2.217011,1.8169753 1.588222,3.29703 2.283458,7.387836 5.385914,9.338887 1.118582,0.09453 2.364228,-0.160412 3.327087,0.362355 0.621206,0.330226 1.178587,0.596622 1.877655,1.004712 0.325319,0.315004 0.04212,0.447463 -0.03288,0.642361 l -0.09879,-0.263532 c -0.439176,-0.203099 -0.800246,-0.328092 -1.152946,-0.444711 -0.568714,0.460405 -1.17943,0.360653 -1.77884,0.411772 -0.537489,0.220159 -1.196905,0.318403 -1.515308,0.757647 z"
       id="path1636"
       sodipodi:nodetypes="cccccccccccccccsccccccccc" /><path
       style="fill:#000000;fill-opacity:1;stroke:#000000;stroke-width:0.116578;stroke-miterlimit:0;stroke-opacity:1"
       d="m 46.933544,19.576845 c 0.419561,-0.139513 0.804595,-0.303692 0.778058,-0.761848 -1.391119,-2.000272 -0.550157,-5.439445 2.917716,-3.744402 1.036085,0.438153 3.119407,0.555375 3.501259,1.004991 -1.256579,0.08378 -2.601537,0.09025 -3.630936,0.37282 -0.535639,0.171121 -0.892015,0.425901 -0.518705,1.021198 1.507765,4.051084 -0.435185,6.097025 -3.420211,7.537434 0.01842,0.698649 0.230801,1.025494 0.615962,1.021201 0.594597,0.09505 1.113054,0.03782 1.669582,0.05673 -0.03703,0.07546 -0.113328,0.160155 0.02431,0.194513 -0.07001,0.146493 0.333486,0.195014 0.543019,0.283668 -0.293252,0.02495 -0.630465,-0.01161 -0.875315,0.08105 -0.251897,0.0631 -0.296114,0.223106 -0.397133,0.35661 -0.563449,-0.231628 -1.116722,-0.341168 -1.669584,-0.445762 -0.246056,-0.131219 -0.192447,-0.332941 -0.27556,-0.502496 0.180655,-0.40681 -0.002,-0.526787 -0.008,-0.786161 -0.294758,-0.07764 -0.496706,0.05354 -0.575437,0.461971 -0.01176,0.832785 0.206625,1.309043 0.745638,1.288657 0.480882,0.07842 0.961767,-3.09e-4 1.442649,-0.008 -0.03488,0.07625 -0.09321,0.155263 0.04863,0.210723 0.185187,0.04618 0.39883,0.149279 0.615961,0.259353 -0.304612,0.0045 -0.609632,0.0085 -0.850998,0.09725 -0.219265,0.06319 -0.401705,0.183277 -0.502498,0.429553 -0.157793,0.03836 -0.351428,0.0672 -1.029303,-0.03242 -0.247141,-0.207186 -0.459288,-0.418745 -0.786164,-0.615964 0.0284,-0.472661 -0.03179,-0.921167 -0.121577,-1.361601 -0.426758,-0.04008 -0.821765,-0.125291 -1.045516,-0.453867 -1.282581,0.02957 -2.547847,0.01682 -3.63904,-0.421448 -1.835007,0.428425 -3.708711,0.676264 -5.608499,0.802374 0.841886,-0.534915 1.65822,-1.06983 2.350383,-1.604744 -0.339899,-0.20309 -3.298542,-1.085113 -5.203261,-1.693898 1.869905,0.135768 2.752297,0.129191 6.832319,0.583544 3.042971,-1.977904 5.867694,-3.480138 8.072345,-3.630936 z"
       id="path3983"
       sodipodi:nodetypes="ccccccccccccccccccccccccccccccccc" /><path
       style="fill:#000000;fill-opacity:1;stroke:#000000;stroke-width:0.118046;stroke-miterlimit:0;stroke-opacity:1"
       d="m 69.238888,25.216653 c -1.163014,1.31058 -3.22551,3.35261 -3.135026,3.64385 0.09212,0.2864 2.307406,-2.24836 3.217094,-2.68364 -0.591761,1.44289 -3.328893,4.29717 -2.921646,4.05419 0.859587,-0.007 3.539898,-3.79157 5.309847,-5.68736 0.289378,0.44234 0.980028,-0.86735 1.789099,-1.28027 0.221468,-0.0915 0.304796,-0.068 0.44317,-0.0903 0.115972,0.093 0.03841,0.18602 -0.0082,0.27904 0.395182,-0.0827 0.638902,-0.27367 0.935584,-0.42676 1.126383,0.13553 -0.318989,0.0788 5.025036,0.52965 4.148117,3.83861 3.775905,3.1569 5.66386,4.73536 -0.04652,0.1013 0.07237,0.21295 0.197306,0.32497 -0.320421,-3.57898 -3.176698,-7.39492 -3.36582,-7.56729 -0.535422,-0.70465 -0.634656,-1.99088 -2.007885,-1.57845 -1.599312,0.37241 -4.12422,1.36189 -4.375565,0.83565 0.0028,-1.02324 1.098508,-1.2074 1.996278,-1.54363 l 0.31337,0.15088 c -0.176011,-0.1573 0.09035,-0.6889 -0.59192,-0.41783 l -0.951713,0.31337 c -0.8172,-0.2976 -1.538526,-0.2117 -2.158767,0.27855 -1.434205,-0.003 -2.767762,-0.30856 -3.853282,-1.35793 -0.29358,-1.048434 -0.39635,-2.096867 -0.406219,-3.145301 0.1097,-1.003383 -1.412947,-0.374419 -2.356073,-0.324976 -2.261029,0.363459 -1.596984,-0.237509 -9.354655,1.938248 l 0.417826,0.06964 c 4.394747,0.242739 0.226633,0.25857 5.524585,0.568707 0.822601,0.04312 1.422438,0.212467 1.590059,0.626742 1.089374,1.54639 2.309332,3.07827 4.178258,4.53805 -0.141713,0.619 -0.08241,1.238 0.116063,1.857 -0.418606,0.45763 -1.526267,1.27358 -1.23066,1.35982 z"
       id="path7031"
       sodipodi:nodetypes="cccccccccccccccccccccccccccccc" /><path
       style="fill:#000000;fill-opacity:1;stroke:#000000;stroke-width:0.0640335;stroke-miterlimit:0;stroke-opacity:1"
       d="m 130.45024,19.251189 c 0.47407,-0.617312 0.92129,-1.234624 1.63825,-1.851936 0.44815,-0.179554 0.90718,-0.356387 1.29101,-0.552019 -0.3917,-0.176774 -0.84201,-0.133807 -1.29992,-0.06232 -1.07134,-0.566176 -1.48229,0.05635 -2.18136,0.160264 l -1.13965,0.02671 c -1.55717,-0.530421 -1.73494,-1.587519 -2.03001,-2.599832 -0.25604,-1.675578 -2.31524,-1.569158 -3.22416,-2.102886 -1.71136,-0.470154 -3.95216,-1.267316 -4.1552,-0.805857 0.64464,1.140977 2.6033,2.366729 4.69664,3.60117 0.0655,1.662841 0.86959,2.714483 1.59912,3.827817 -0.0531,0.37481 -0.30208,0.731648 -0.56662,1.08287 -0.50989,0.470083 -1.04518,0.940166 -1.37248,1.410249 -3.11584,2.329875 -6.77274,4.497438 -10.34195,6.691304 4.20261,-2.096592 7.94413,-5.07032 11.89071,-6.313559 0.63797,-0.159492 1.41829,-0.674871 1.91391,-0.478478 1.24747,1.721963 2.39739,2.517011 3.58443,3.664774 0.95345,1.744516 1.38204,3.569781 1.92316,5.377736 0.80235,1.999846 0.93675,0.852523 1.35677,1.740773 0.1935,-0.329444 0.23558,-0.552655 0.29929,-1.206561 -0.20221,-2.231107 -0.31758,-4.488267 -0.83693,-6.624232 -0.14852,-0.760556 -0.66899,-1.204946 -1.13966,-1.691672 -1.60165,-0.980947 -1.9555,-2.113144 -1.90535,-3.29431 z"
       id="path9677"
       sodipodi:nodetypes="ccccccccccccccccccccccc" /><path
       style="fill:#000000;fill-opacity:1;stroke:#000000;stroke-width:0.0508707;stroke-miterlimit:0;stroke-opacity:1"
       d="m 140.64595,18.330182 c -1.47087,0.619329 -3.49314,1.192708 -4.38138,1.860588 0.0105,0.214661 0.24568,0.405245 1.00031,0.540172 1.63636,-0.121209 3.64188,-0.414697 4.90155,-0.360116 0.51454,1.150386 1.21314,2.250571 2.02064,3.321053 1.55364,1.557678 1.47287,2.873737 1.84059,3.601136 0.42934,0.776754 0.54934,1.34206 3.00095,3.501118 l 0.58018,0.420125 c 0.82934,-2.927679 -1.00662,-6.3453 -2.02064,-8.722758 -0.98108,-1.071454 -1.54624,-2.069514 -1.62051,-2.980942 0.90041,-0.183884 1.59308,-0.658606 2.73086,-0.510164 0.31165,0.09088 0.59161,0.154599 0.99031,0.320102 l 0.10004,0.190062 c -0.009,-0.166722 0.21729,-0.333439 -0.15005,-0.500161 l -0.51016,-0.200064 c -0.15472,-0.09867 -0.29863,-0.262215 -0.44014,-0.44014 0.023,-0.150999 0.0582,-0.298407 -0.23008,-0.54017 -0.67698,-0.510663 -1.82649,-0.611858 -3.12098,-0.715227 -1.1484,-0.937467 -1.76349,-2.192541 -2.2007,-3.446091 0.39654,-0.823676 -2.88743,-4.4513577 -4.66148,-4.5314359 -0.53897,1.6182659 -0.16809,2.4748079 0.43014,3.1409949 0.70988,0.81529 0.72988,1.469607 0.65021,2.100666 0.45135,1.426968 1.49574,3.595227 1.09034,3.951252 z"
       id="path11154"
       sodipodi:nodetypes="ccccccccccccccccccccccc" /></g></svg>
